<svg width="480" height="88" viewBox="0 0 480 88" fill="none" xmlns="http://www.w3.org/2000/svg">
<rect x="0.5" y="0.5" width="479" height="87" rx="7.5" fill="url(#paint0_linear_6889_39323)"/>
<rect x="0.5" y="0.5" width="479" height="87" rx="7.5" stroke="#B4C685"/>
<path d="M15.92 26V21.36L11.904 14.64H13.536L16.608 19.952L19.68 14.64H21.312L17.296 21.36V26H15.92ZM24.6858 26.192C22.3338 26.192 20.7978 24.464 20.7978 21.76C20.7978 19.056 22.3338 17.328 24.6858 17.328C27.0218 17.328 28.5578 19.056 28.5578 21.76C28.5578 24.464 27.0218 26.192 24.6858 26.192ZM24.6858 24.912C26.2378 24.912 27.1498 23.728 27.1498 21.76C27.1498 19.792 26.2378 18.608 24.6858 18.608C23.1178 18.608 22.2057 19.792 22.2057 21.76C22.2057 23.728 23.1178 24.912 24.6858 24.912ZM33.1734 26.192C31.4774 26.192 30.3894 24.992 30.3894 22.976V17.52H31.7334V22.608C31.7334 24.256 32.3094 25.008 33.5254 25.008C34.8694 25.008 35.6854 24.096 35.6854 22.576V17.52H37.0294V26H35.7494V24.624C35.2854 25.632 34.3894 26.192 33.1734 26.192ZM39.0805 18.944L39.8485 16.448H39.0325V14.64H40.8405V16.224L39.8805 18.944H39.0805ZM45.0025 26L41.9145 17.52H43.3865L45.8505 24.624L48.3145 17.52H49.7865L46.6985 26H45.0025ZM54.3108 26.192C51.9108 26.192 50.4228 24.448 50.4228 21.76C50.4228 19.072 51.9108 17.328 54.2468 17.328C56.4548 17.328 57.9908 18.928 57.9908 21.776V22.176H51.8307C51.9268 24 52.8388 24.912 54.3108 24.912C55.4148 24.912 56.1348 24.352 56.4228 23.488L57.8628 23.6C57.4148 25.12 56.1028 26.192 54.3108 26.192ZM51.8307 20.992H56.5188C56.3908 19.36 55.4948 18.608 54.2468 18.608C52.9348 18.608 52.0548 19.424 51.8307 20.992ZM63.9675 26V14.64H65.3115V18.848C65.7435 17.808 66.7035 17.328 67.8715 17.328C69.6955 17.328 70.7035 18.656 70.7035 20.544V26H69.3595V20.928C69.3595 19.296 68.7675 18.512 67.5835 18.512C66.2075 18.512 65.3115 19.376 65.3115 20.944V26H63.9675ZM75.3961 26.192C73.6361 26.192 72.5321 25.344 72.5321 23.888C72.5321 22.448 73.3481 21.648 75.2041 21.296L78.2121 20.736C78.2121 19.312 77.5401 18.608 76.1961 18.608C75.0121 18.608 74.3561 19.152 74.1001 20.128L72.6761 20.016C72.9961 18.416 74.2761 17.328 76.1961 17.328C78.3721 17.328 79.5561 18.64 79.5561 20.784V24.288C79.5561 24.672 79.6841 24.816 80.0041 24.816H80.3401V26C80.2441 26.016 80.0361 26.032 79.8281 26.032C78.8041 26.032 78.3401 25.632 78.2281 24.688C77.8121 25.568 76.6441 26.192 75.3961 26.192ZM75.5241 25.008C77.2201 25.008 78.2121 23.92 78.2121 22.512V21.904L75.4601 22.416C74.3081 22.624 73.9401 23.056 73.9401 23.76C73.9401 24.56 74.5321 25.008 75.5241 25.008ZM84.8349 26.192C82.6269 26.192 81.2509 24.48 81.2509 21.76C81.2509 19.04 82.6269 17.328 84.8349 17.328C85.9709 17.328 86.9789 17.84 87.4429 18.704V14.64H88.7869V26H87.5709L87.5229 24.72C87.0429 25.648 86.0189 26.192 84.8349 26.192ZM85.1069 24.912C86.6109 24.912 87.4429 23.696 87.4429 21.76C87.4429 19.792 86.6109 18.608 85.1069 18.608C83.6189 18.608 82.6589 19.792 82.6589 21.76C82.6589 23.696 83.6189 24.912 85.1069 24.912ZM97.6305 26.192C95.8705 26.192 94.7665 25.344 94.7665 23.888C94.7665 22.448 95.5825 21.648 97.4385 21.296L100.447 20.736C100.447 19.312 99.7745 18.608 98.4305 18.608C97.2465 18.608 96.5905 19.152 96.3345 20.128L94.9105 20.016C95.2305 18.416 96.5105 17.328 98.4305 17.328C100.607 17.328 101.791 18.64 101.791 20.784V24.288C101.791 24.672 101.919 24.816 102.239 24.816H102.575V26C102.479 26.016 102.271 26.032 102.062 26.032C101.039 26.032 100.575 25.632 100.463 24.688C100.047 25.568 98.8785 26.192 97.6305 26.192ZM97.7585 25.008C99.4545 25.008 100.447 23.92 100.447 22.512V21.904L97.6945 22.416C96.5425 22.624 96.1745 23.056 96.1745 23.76C96.1745 24.56 96.7665 25.008 97.7585 25.008ZM104.093 26V17.52H105.325L105.357 19.04C105.805 17.872 106.797 17.328 107.965 17.328C109.901 17.328 110.829 18.752 110.829 20.544V26H109.485V20.928C109.485 19.36 108.957 18.512 107.677 18.512C106.365 18.512 105.437 19.36 105.437 20.928V26H104.093ZM120.701 26.192C118.301 26.192 116.813 24.448 116.813 21.76C116.813 19.072 118.301 17.328 120.637 17.328C122.845 17.328 124.381 18.928 124.381 21.776V22.176H118.221C118.317 24 119.229 24.912 120.701 24.912C121.805 24.912 122.525 24.352 122.813 23.488L124.253 23.6C123.805 25.12 122.493 26.192 120.701 26.192ZM118.221 20.992H122.909C122.781 19.36 121.885 18.608 120.637 18.608C119.325 18.608 118.445 19.424 118.221 20.992ZM126.202 26V17.52H127.434L127.466 19.008C127.882 17.968 128.762 17.328 129.85 17.328C131.13 17.328 132.026 17.968 132.394 19.104C132.762 17.968 133.626 17.328 134.874 17.328C136.682 17.328 137.674 18.496 137.674 20.544V26H136.33V20.832C136.33 19.296 135.722 18.512 134.554 18.512C133.37 18.512 132.602 19.408 132.602 20.928V26H131.258V20.928C131.258 19.424 130.762 18.512 129.514 18.512C128.33 18.512 127.546 19.424 127.546 20.928V26H126.202ZM142.365 26.192C140.605 26.192 139.501 25.344 139.501 23.888C139.501 22.448 140.317 21.648 142.173 21.296L145.181 20.736C145.181 19.312 144.509 18.608 143.165 18.608C141.981 18.608 141.325 19.152 141.069 20.128L139.645 20.016C139.965 18.416 141.245 17.328 143.165 17.328C145.341 17.328 146.525 18.64 146.525 20.784V24.288C146.525 24.672 146.653 24.816 146.973 24.816H147.309V26C147.213 26.016 147.005 26.032 146.797 26.032C145.773 26.032 145.309 25.632 145.197 24.688C144.781 25.568 143.613 26.192 142.365 26.192ZM142.493 25.008C144.189 25.008 145.181 23.92 145.181 22.512V21.904L142.429 22.416C141.277 22.624 140.909 23.056 140.909 23.76C140.909 24.56 141.501 25.008 142.493 25.008ZM148.732 16.192V14.624H150.14V16.192H148.732ZM148.764 26V17.52H150.108V26H148.764ZM154.178 26C153.186 26 152.514 25.52 152.514 24.4V14.64H153.858V24.288C153.858 24.64 154.034 24.816 154.386 24.816H155.122V26H154.178ZM161.612 26V18.704H160.46V17.52H161.612V16.752C161.612 15.504 162.316 14.64 163.852 14.64H165.196V15.824H163.948C163.276 15.824 162.956 16.208 162.956 16.848V17.52H165.084V18.704H162.956V26H161.612ZM166.608 26V17.52H167.792L167.84 19.088C168.144 18.016 168.816 17.52 169.856 17.52H170.688V18.8H169.872C168.592 18.8 167.952 19.488 167.952 20.88V26H166.608ZM175.342 26.192C172.99 26.192 171.454 24.464 171.454 21.76C171.454 19.056 172.99 17.328 175.342 17.328C177.678 17.328 179.214 19.056 179.214 21.76C179.214 24.464 177.678 26.192 175.342 26.192ZM175.342 24.912C176.894 24.912 177.806 23.728 177.806 21.76C177.806 19.792 176.894 18.608 175.342 18.608C173.774 18.608 172.862 19.792 172.862 21.76C172.862 23.728 173.774 24.912 175.342 24.912ZM181.046 26V17.52H182.278L182.31 19.008C182.726 17.968 183.606 17.328 184.694 17.328C185.974 17.328 186.87 17.968 187.238 19.104C187.606 17.968 188.47 17.328 189.718 17.328C191.526 17.328 192.518 18.496 192.518 20.544V26H191.174V20.832C191.174 19.296 190.566 18.512 189.398 18.512C188.214 18.512 187.446 19.408 187.446 20.928V26H186.102V20.928C186.102 19.424 185.606 18.512 184.358 18.512C183.174 18.512 182.39 19.424 182.39 20.928V26H181.046ZM203.621 26.256C200.581 26.256 198.517 24.016 198.517 20.336C198.517 16.656 200.581 14.384 203.621 14.384C206.373 14.384 207.829 15.872 208.309 18.256L206.853 18.352C206.533 16.736 205.509 15.728 203.621 15.728C201.445 15.728 199.957 17.456 199.957 20.336C199.957 23.216 201.445 24.912 203.621 24.912C205.605 24.912 206.661 23.808 206.949 22.032L208.405 22.128C207.989 24.592 206.341 26.256 203.621 26.256ZM212.552 26.192C210.792 26.192 209.688 25.344 209.688 23.888C209.688 22.448 210.504 21.648 212.36 21.296L215.368 20.736C215.368 19.312 214.696 18.608 213.352 18.608C212.168 18.608 211.512 19.152 211.256 20.128L209.832 20.016C210.152 18.416 211.432 17.328 213.352 17.328C215.528 17.328 216.712 18.64 216.712 20.784V24.288C216.712 24.672 216.84 24.816 217.16 24.816H217.496V26C217.4 26.016 217.192 26.032 216.984 26.032C215.96 26.032 215.496 25.632 215.384 24.688C214.968 25.568 213.8 26.192 212.552 26.192ZM212.68 25.008C214.376 25.008 215.368 23.92 215.368 22.512V21.904L212.616 22.416C211.464 22.624 211.096 23.056 211.096 23.76C211.096 24.56 211.688 25.008 212.68 25.008ZM220.585 26C219.593 26 218.921 25.52 218.921 24.4V14.64H220.265V24.288C220.265 24.64 220.441 24.816 220.793 24.816H221.529V26H220.585ZM225.493 26C223.957 26 223.237 25.328 223.237 23.824V18.704H221.989V17.52H223.237V15.536H224.581V17.52H226.837V18.704H224.581V23.792C224.581 24.56 224.917 24.816 225.621 24.816H226.837V26H225.493ZM231.717 26.192C229.365 26.192 227.829 24.464 227.829 21.76C227.829 19.056 229.365 17.328 231.717 17.328C234.053 17.328 235.589 19.056 235.589 21.76C235.589 24.464 234.053 26.192 231.717 26.192ZM231.717 24.912C233.269 24.912 234.181 23.728 234.181 21.76C234.181 19.792 233.269 18.608 231.717 18.608C230.149 18.608 229.237 19.792 229.237 21.76C229.237 23.728 230.149 24.912 231.717 24.912ZM237.421 26V17.52H238.653L238.685 19.04C239.133 17.872 240.125 17.328 241.293 17.328C243.229 17.328 244.157 18.752 244.157 20.544V26H242.813V20.928C242.813 19.36 242.285 18.512 241.005 18.512C239.693 18.512 238.765 19.36 238.765 20.928V26H237.421ZM250.91 26V14.64H254.99C257.517 14.64 259.006 15.92 259.006 18.08C259.006 20.272 257.517 21.584 254.99 21.584H252.286V26H250.91ZM252.286 20.24H254.99C256.702 20.24 257.566 19.504 257.566 18.08C257.566 16.688 256.702 15.984 254.99 15.984H252.286V20.24ZM260.968 26V17.52H262.152L262.2 19.088C262.504 18.016 263.176 17.52 264.216 17.52H265.048V18.8H264.232C262.952 18.8 262.312 19.488 262.312 20.88V26H260.968ZM266.514 16.192V14.624H267.922V16.192H266.514ZM266.546 26V17.52H267.89V26H266.546ZM270.546 26V17.52H271.778L271.81 19.008C272.226 17.968 273.106 17.328 274.194 17.328C275.474 17.328 276.37 17.968 276.738 19.104C277.106 17.968 277.97 17.328 279.218 17.328C281.026 17.328 282.018 18.496 282.018 20.544V26H280.674V20.832C280.674 19.296 280.066 18.512 278.898 18.512C277.714 18.512 276.946 19.408 276.946 20.928V26H275.602V20.928C275.602 19.424 275.106 18.512 273.858 18.512C272.674 18.512 271.89 19.424 271.89 20.928V26H270.546ZM286.709 26.192C284.949 26.192 283.845 25.344 283.845 23.888C283.845 22.448 284.661 21.648 286.517 21.296L289.525 20.736C289.525 19.312 288.853 18.608 287.509 18.608C286.325 18.608 285.669 19.152 285.413 20.128L283.989 20.016C284.309 18.416 285.589 17.328 287.509 17.328C289.685 17.328 290.869 18.64 290.869 20.784V24.288C290.869 24.672 290.997 24.816 291.317 24.816H291.653V26C291.557 26.016 291.349 26.032 291.141 26.032C290.117 26.032 289.653 25.632 289.541 24.688C289.125 25.568 287.957 26.192 286.709 26.192ZM286.837 25.008C288.533 25.008 289.525 23.92 289.525 22.512V21.904L286.773 22.416C285.621 22.624 285.253 23.056 285.253 23.76C285.253 24.56 285.845 25.008 286.837 25.008ZM293.171 26V17.52H294.355L294.403 19.088C294.707 18.016 295.379 17.52 296.419 17.52H297.251V18.8H296.435C295.155 18.8 294.515 19.488 294.515 20.88V26H293.171ZM299.195 28.4V27.216H300.171C300.763 27.216 301.003 27.04 301.163 26.64L301.467 25.84H301.003L297.899 17.52H299.371L301.899 24.592L304.315 17.52H305.787L302.347 27.072C302.027 27.984 301.435 28.4 300.299 28.4H299.195ZM315.517 26.256C312.893 26.256 311.213 24.672 311.021 22.368L312.461 22.272C312.685 23.968 313.725 24.912 315.549 24.912C317.133 24.912 318.061 24.288 318.061 23.12C318.061 22.064 317.533 21.424 314.813 20.752C312.189 20.096 311.261 19.312 311.261 17.616C311.261 15.712 312.701 14.384 315.037 14.384C317.533 14.384 319.005 15.92 319.261 18L317.821 18.096C317.629 16.72 316.701 15.728 315.005 15.728C313.597 15.728 312.701 16.464 312.701 17.552C312.701 18.624 313.277 19.008 315.677 19.6C318.525 20.304 319.501 21.392 319.501 23.024C319.501 25.008 317.837 26.256 315.517 26.256ZM325.186 26.192C322.818 26.192 321.298 24.448 321.298 21.76C321.298 19.072 322.818 17.328 325.186 17.328C327.138 17.328 328.498 18.384 328.786 20.272L327.378 20.368C327.186 19.248 326.338 18.608 325.186 18.608C323.618 18.608 322.706 19.792 322.706 21.76C322.706 23.728 323.618 24.912 325.186 24.912C326.338 24.912 327.186 24.272 327.378 22.992L328.786 23.088C328.498 24.976 327.138 26.192 325.186 26.192ZM330.452 26V14.64H331.796V18.848C332.228 17.808 333.188 17.328 334.356 17.328C336.18 17.328 337.188 18.656 337.188 20.544V26H335.844V20.928C335.844 19.296 335.252 18.512 334.068 18.512C332.692 18.512 331.796 19.376 331.796 20.944V26H330.452ZM342.873 26.192C340.521 26.192 338.985 24.464 338.985 21.76C338.985 19.056 340.521 17.328 342.873 17.328C345.209 17.328 346.745 19.056 346.745 21.76C346.745 24.464 345.209 26.192 342.873 26.192ZM342.873 24.912C344.425 24.912 345.337 23.728 345.337 21.76C345.337 19.792 344.425 18.608 342.873 18.608C341.305 18.608 340.393 19.792 340.393 21.76C340.393 23.728 341.305 24.912 342.873 24.912ZM351.889 26.192C349.537 26.192 348.001 24.464 348.001 21.76C348.001 19.056 349.537 17.328 351.889 17.328C354.225 17.328 355.761 19.056 355.761 21.76C355.761 24.464 354.225 26.192 351.889 26.192ZM351.889 24.912C353.441 24.912 354.353 23.728 354.353 21.76C354.353 19.792 353.441 18.608 351.889 18.608C350.321 18.608 349.409 19.792 349.409 21.76C349.409 23.728 350.321 24.912 351.889 24.912ZM359.335 26C358.343 26 357.671 25.52 357.671 24.4V14.64H359.015V24.288C359.015 24.64 359.191 24.816 359.543 24.816H360.279V26H359.335ZM368.224 26.192C366.464 26.192 365.36 25.344 365.36 23.888C365.36 22.448 366.176 21.648 368.032 21.296L371.04 20.736C371.04 19.312 370.368 18.608 369.024 18.608C367.84 18.608 367.184 19.152 366.928 20.128L365.504 20.016C365.824 18.416 367.104 17.328 369.024 17.328C371.2 17.328 372.384 18.64 372.384 20.784V24.288C372.384 24.672 372.512 24.816 372.832 24.816H373.168V26C373.072 26.016 372.864 26.032 372.656 26.032C371.632 26.032 371.168 25.632 371.056 24.688C370.64 25.568 369.472 26.192 368.224 26.192ZM368.352 25.008C370.048 25.008 371.04 23.92 371.04 22.512V21.904L368.288 22.416C367.136 22.624 366.768 23.056 366.768 23.76C366.768 24.56 367.36 25.008 368.352 25.008ZM378.512 26.192C377.328 26.192 376.368 25.648 375.888 24.72L375.84 26H374.624V14.64H375.968V18.704C376.384 18 377.328 17.328 378.512 17.328C380.752 17.328 382.16 19.04 382.16 21.76C382.16 24.48 380.752 26.192 378.512 26.192ZM378.432 24.912C379.856 24.912 380.752 23.696 380.752 21.76C380.752 19.792 379.856 18.608 378.464 18.608C376.896 18.608 375.968 19.792 375.968 21.76C375.968 23.696 376.896 24.912 378.432 24.912ZM387.295 26.192C384.943 26.192 383.407 24.464 383.407 21.76C383.407 19.056 384.943 17.328 387.295 17.328C389.631 17.328 391.167 19.056 391.167 21.76C391.167 24.464 389.631 26.192 387.295 26.192ZM387.295 24.912C388.847 24.912 389.759 23.728 389.759 21.76C389.759 19.792 388.847 18.608 387.295 18.608C385.727 18.608 384.815 19.792 384.815 21.76C384.815 23.728 385.727 24.912 387.295 24.912ZM395.783 26.192C394.087 26.192 392.999 24.992 392.999 22.976V17.52H394.343V22.608C394.343 24.256 394.919 25.008 396.135 25.008C397.479 25.008 398.295 24.096 398.295 22.576V17.52H399.639V26H398.359V24.624C397.895 25.632 396.999 26.192 395.783 26.192ZM404.853 26C403.317 26 402.597 25.328 402.597 23.824V18.704H401.349V17.52H402.597V15.536H403.941V17.52H406.197V18.704H403.941V23.792C403.941 24.56 404.277 24.816 404.981 24.816H406.197V26H404.853ZM412.206 26V14.64H415.726C419.214 14.64 421.182 16.688 421.182 20.336C421.182 23.968 419.262 26 415.822 26H412.206ZM413.582 24.656H415.726C418.398 24.656 419.742 23.216 419.742 20.336C419.742 17.424 418.398 15.984 415.726 15.984H413.582V24.656ZM423.186 26V17.52H424.37L424.418 19.088C424.722 18.016 425.394 17.52 426.434 17.52H427.266V18.8H426.45C425.17 18.8 424.53 19.488 424.53 20.88V26H423.186ZM430.896 26.192C429.136 26.192 428.032 25.344 428.032 23.888C428.032 22.448 428.848 21.648 430.704 21.296L433.712 20.736C433.712 19.312 433.04 18.608 431.696 18.608C430.512 18.608 429.856 19.152 429.6 20.128L428.176 20.016C428.496 18.416 429.776 17.328 431.696 17.328C433.872 17.328 435.056 18.64 435.056 20.784V24.288C435.056 24.672 435.184 24.816 435.504 24.816H435.84V26C435.744 26.016 435.536 26.032 435.328 26.032C434.304 26.032 433.84 25.632 433.728 24.688C433.312 25.568 432.144 26.192 430.896 26.192ZM431.024 25.008C432.72 25.008 433.712 23.92 433.712 22.512V21.904L430.96 22.416C429.808 22.624 429.44 23.056 429.44 23.76C429.44 24.56 430.032 25.008 431.024 25.008ZM437.358 26V17.52H438.59L438.622 19.008C439.038 17.968 439.918 17.328 441.006 17.328C442.286 17.328 443.182 17.968 443.55 19.104C443.918 17.968 444.782 17.328 446.03 17.328C447.838 17.328 448.83 18.496 448.83 20.544V26H447.486V20.832C447.486 19.296 446.878 18.512 445.71 18.512C444.526 18.512 443.758 19.408 443.758 20.928V26H442.414V20.928C442.414 19.424 441.918 18.512 440.67 18.512C439.486 18.512 438.702 19.424 438.702 20.928V26H437.358ZM453.521 26.192C451.761 26.192 450.657 25.344 450.657 23.888C450.657 22.448 451.473 21.648 453.329 21.296L456.337 20.736C456.337 19.312 455.665 18.608 454.321 18.608C453.137 18.608 452.481 19.152 452.225 20.128L450.801 20.016C451.121 18.416 452.401 17.328 454.321 17.328C456.497 17.328 457.681 18.64 457.681 20.784V24.288C457.681 24.672 457.809 24.816 458.129 24.816H458.465V26C458.369 26.016 458.161 26.032 457.953 26.032C456.929 26.032 456.465 25.632 456.353 24.688C455.937 25.568 454.769 26.192 453.521 26.192ZM453.649 25.008C455.345 25.008 456.337 23.92 456.337 22.512V21.904L453.585 22.416C452.433 22.624 452.065 23.056 452.065 23.76C452.065 24.56 452.657 25.008 453.649 25.008ZM17.824 50.256C14.784 50.256 12.72 48.016 12.72 44.336C12.72 40.656 14.784 38.384 17.824 38.384C20.576 38.384 22.032 39.872 22.512 42.256L21.056 42.352C20.736 40.736 19.712 39.728 17.824 39.728C15.648 39.728 14.16 41.456 14.16 44.336C14.16 47.216 15.648 48.912 17.824 48.912C19.808 48.912 20.864 47.808 21.152 46.032L22.608 46.128C22.192 48.592 20.544 50.256 17.824 50.256ZM26.0378 50C25.0458 50 24.3738 49.52 24.3738 48.4V38.64H25.7178V48.288C25.7178 48.64 25.8938 48.816 26.2458 48.816H26.9818V50H26.0378ZM31.2671 50.192C29.5711 50.192 28.4831 48.992 28.4831 46.976V41.52H29.8271V46.608C29.8271 48.256 30.4031 49.008 31.6191 49.008C32.9631 49.008 33.7791 48.096 33.7791 46.576V41.52H35.1231V50H33.8431V48.624C33.3791 49.632 32.4831 50.192 31.2671 50.192ZM41.3399 50.192C40.1559 50.192 39.1959 49.648 38.7159 48.72L38.6679 50H37.4519V38.64H38.7959V42.704C39.2119 42 40.1559 41.328 41.3399 41.328C43.5799 41.328 44.9879 43.04 44.9879 45.76C44.9879 48.48 43.5799 50.192 41.3399 50.192ZM41.2599 48.912C42.6839 48.912 43.5799 47.696 43.5799 45.76C43.5799 43.792 42.6839 42.608 41.2919 42.608C39.7239 42.608 38.7959 43.792 38.7959 45.76C38.7959 47.696 39.7239 48.912 41.2599 48.912ZM46.3915 50V48.192H48.1995V50H46.3915ZM54.3783 50V38.64H55.7543V50H54.3783ZM57.9868 42.944L58.7548 40.448H57.9388V38.64H59.7468V40.224L58.7868 42.944H57.9868ZM63.9088 50L60.8208 41.52H62.2928L64.7568 48.624L67.2208 41.52H68.6927L65.6048 50H63.9088ZM73.217 50.192C70.817 50.192 69.329 48.448 69.329 45.76C69.329 43.072 70.817 41.328 73.153 41.328C75.361 41.328 76.897 42.928 76.897 45.776V46.176H70.737C70.833 48 71.745 48.912 73.217 48.912C74.321 48.912 75.041 48.352 75.329 47.488L76.769 47.6C76.321 49.12 75.009 50.192 73.217 50.192ZM70.737 44.992H75.425C75.297 43.36 74.401 42.608 73.153 42.608C71.841 42.608 70.961 43.424 70.737 44.992ZM85.9618 50.192C83.6258 50.192 82.4258 48.992 82.2978 47.328L83.7057 47.232C83.8658 48.256 84.4578 48.912 85.9618 48.912C87.1138 48.912 87.7698 48.56 87.7698 47.728C87.7698 47.056 87.4338 46.768 85.7057 46.448C83.3378 46 82.6338 45.264 82.6338 43.92C82.6338 42.416 83.8018 41.328 85.8498 41.328C88.0898 41.328 89.0338 42.672 89.2098 44.048L87.8018 44.144C87.7218 43.344 87.2098 42.608 85.8177 42.608C84.6018 42.608 84.0418 43.136 84.0418 43.856C84.0418 44.688 84.4738 45.008 85.9618 45.264C88.4578 45.696 89.1778 46.384 89.1778 47.728C89.1778 49.296 87.8338 50.192 85.9618 50.192ZM94.342 50.192C91.974 50.192 90.454 48.448 90.454 45.76C90.454 43.072 91.974 41.328 94.342 41.328C96.294 41.328 97.654 42.384 97.942 44.272L96.534 44.368C96.342 43.248 95.494 42.608 94.342 42.608C92.774 42.608 91.862 43.792 91.862 45.76C91.862 47.728 92.774 48.912 94.342 48.912C95.494 48.912 96.342 48.272 96.534 46.992L97.942 47.088C97.654 48.976 96.294 50.192 94.342 50.192ZM102.115 50.192C100.355 50.192 99.2509 49.344 99.2509 47.888C99.2509 46.448 100.067 45.648 101.923 45.296L104.931 44.736C104.931 43.312 104.259 42.608 102.915 42.608C101.731 42.608 101.075 43.152 100.819 44.128L99.3949 44.016C99.7149 42.416 100.995 41.328 102.915 41.328C105.091 41.328 106.275 42.64 106.275 44.784V48.288C106.275 48.672 106.403 48.816 106.723 48.816H107.059V50C106.963 50.016 106.755 50.032 106.547 50.032C105.523 50.032 105.059 49.632 104.947 48.688C104.531 49.568 103.363 50.192 102.115 50.192ZM102.243 49.008C103.939 49.008 104.931 47.92 104.931 46.512V45.904L102.179 46.416C101.027 46.624 100.659 47.056 100.659 47.76C100.659 48.56 101.251 49.008 102.243 49.008ZM108.577 50V41.52H109.809L109.841 43.04C110.289 41.872 111.281 41.328 112.449 41.328C114.385 41.328 115.313 42.752 115.313 44.544V50H113.969V44.928C113.969 43.36 113.441 42.512 112.161 42.512C110.849 42.512 109.921 43.36 109.921 44.928V50H108.577ZM117.561 50V41.52H118.793L118.825 43.04C119.273 41.872 120.265 41.328 121.433 41.328C123.369 41.328 124.297 42.752 124.297 44.544V50H122.953V44.928C122.953 43.36 122.425 42.512 121.145 42.512C119.833 42.512 118.905 43.36 118.905 44.928V50H117.561ZM129.983 50.192C127.583 50.192 126.095 48.448 126.095 45.76C126.095 43.072 127.583 41.328 129.919 41.328C132.127 41.328 133.663 42.928 133.663 45.776V46.176H127.503C127.599 48 128.511 48.912 129.983 48.912C131.087 48.912 131.807 48.352 132.095 47.488L133.535 47.6C133.087 49.12 131.775 50.192 129.983 50.192ZM127.503 44.992H132.191C132.063 43.36 131.167 42.608 129.919 42.608C128.607 42.608 127.727 43.424 127.503 44.992ZM138.491 50.192C136.283 50.192 134.907 48.48 134.907 45.76C134.907 43.04 136.283 41.328 138.491 41.328C139.627 41.328 140.635 41.84 141.099 42.704V38.64H142.443V50H141.227L141.179 48.72C140.699 49.648 139.675 50.192 138.491 50.192ZM138.763 48.912C140.267 48.912 141.099 47.696 141.099 45.76C141.099 43.792 140.267 42.608 138.763 42.608C137.275 42.608 136.315 43.792 136.315 45.76C136.315 47.696 137.275 48.912 138.763 48.912ZM152.103 50C150.567 50 149.847 49.328 149.847 47.824V42.704H148.599V41.52H149.847V39.536H151.191V41.52H153.447V42.704H151.191V47.792C151.191 48.56 151.527 48.816 152.231 48.816H153.447V50H152.103ZM155.014 50V38.64H156.358V42.848C156.79 41.808 157.75 41.328 158.918 41.328C160.742 41.328 161.75 42.656 161.75 44.544V50H160.406V44.928C160.406 43.296 159.814 42.512 158.63 42.512C157.254 42.512 156.358 43.376 156.358 44.944V50H155.014ZM167.436 50.192C165.036 50.192 163.548 48.448 163.548 45.76C163.548 43.072 165.036 41.328 167.372 41.328C169.58 41.328 171.116 42.928 171.116 45.776V46.176H164.956C165.052 48 165.964 48.912 167.436 48.912C168.54 48.912 169.26 48.352 169.548 47.488L170.988 47.6C170.54 49.12 169.228 50.192 167.436 50.192ZM164.956 44.992H169.644C169.516 43.36 168.62 42.608 167.372 42.608C166.06 42.608 165.18 43.424 164.956 44.992ZM177.924 50V42.704H176.773V41.52H177.924V40.752C177.924 39.504 178.629 38.64 180.165 38.64H181.509V39.824H180.261C179.589 39.824 179.269 40.208 179.269 40.848V41.52H181.397V42.704H179.269V50H177.924ZM186.014 50.192C183.662 50.192 182.126 48.464 182.126 45.76C182.126 43.056 183.662 41.328 186.014 41.328C188.35 41.328 189.886 43.056 189.886 45.76C189.886 48.464 188.35 50.192 186.014 50.192ZM186.014 48.912C187.566 48.912 188.478 47.728 188.478 45.76C188.478 43.792 187.566 42.608 186.014 42.608C184.446 42.608 183.534 43.792 183.534 45.76C183.534 47.728 184.446 48.912 186.014 48.912ZM191.718 50V41.52H192.902L192.95 43.088C193.254 42.016 193.926 41.52 194.966 41.52H195.798V42.8H194.982C193.702 42.8 193.062 43.488 193.062 44.88V50H191.718ZM197.139 50V41.52H198.371L198.403 43.008C198.819 41.968 199.699 41.328 200.787 41.328C202.067 41.328 202.963 41.968 203.331 43.104C203.699 41.968 204.563 41.328 205.811 41.328C207.619 41.328 208.611 42.496 208.611 44.544V50H207.267V44.832C207.267 43.296 206.659 42.512 205.491 42.512C204.307 42.512 203.539 43.408 203.539 44.928V50H202.195V44.928C202.195 43.424 201.699 42.512 200.451 42.512C199.267 42.512 198.483 43.424 198.483 44.928V50H197.139ZM217.459 50.192C215.699 50.192 214.595 49.344 214.595 47.888C214.595 46.448 215.411 45.648 217.267 45.296L220.275 44.736C220.275 43.312 219.603 42.608 218.259 42.608C217.075 42.608 216.419 43.152 216.163 44.128L214.739 44.016C215.059 42.416 216.339 41.328 218.259 41.328C220.435 41.328 221.619 42.64 221.619 44.784V48.288C221.619 48.672 221.747 48.816 222.067 48.816H222.403V50C222.307 50.016 222.099 50.032 221.891 50.032C220.867 50.032 220.403 49.632 220.291 48.688C219.875 49.568 218.707 50.192 217.459 50.192ZM217.587 49.008C219.283 49.008 220.275 47.92 220.275 46.512V45.904L217.523 46.416C216.371 46.624 216.003 47.056 216.003 47.76C216.003 48.56 216.595 49.008 217.587 49.008ZM223.921 50V41.52H225.153L225.185 43.04C225.633 41.872 226.625 41.328 227.793 41.328C229.729 41.328 230.657 42.752 230.657 44.544V50H229.313V44.928C229.313 43.36 228.785 42.512 227.505 42.512C226.193 42.512 225.265 43.36 225.265 44.928V50H223.921ZM236.038 50.192C233.83 50.192 232.454 48.48 232.454 45.76C232.454 43.04 233.83 41.328 236.038 41.328C237.174 41.328 238.182 41.84 238.646 42.704V38.64H239.99V50H238.774L238.726 48.72C238.246 49.648 237.222 50.192 236.038 50.192ZM236.31 48.912C237.814 48.912 238.646 47.696 238.646 45.76C238.646 43.792 237.814 42.608 236.31 42.608C234.822 42.608 233.862 43.792 233.862 45.76C233.862 47.696 234.822 48.912 236.31 48.912ZM246.514 40.192V38.624H247.922V40.192H246.514ZM246.546 50V41.52H247.89V50H246.546ZM252.915 50C251.379 50 250.659 49.328 250.659 47.824V42.704H249.411V41.52H250.659V39.536H252.003V41.52H254.259V42.704H252.003V47.792C252.003 48.56 252.339 48.816 253.043 48.816H254.259V50H252.915ZM255.565 42.944L256.333 40.448H255.517V38.64H257.325V40.224L256.365 42.944H255.565ZM262.415 50.192C260.079 50.192 258.879 48.992 258.751 47.328L260.159 47.232C260.319 48.256 260.911 48.912 262.415 48.912C263.567 48.912 264.223 48.56 264.223 47.728C264.223 47.056 263.887 46.768 262.159 46.448C259.791 46 259.087 45.264 259.087 43.92C259.087 42.416 260.255 41.328 262.303 41.328C264.543 41.328 265.487 42.672 265.663 44.048L264.255 44.144C264.175 43.344 263.663 42.608 262.271 42.608C261.055 42.608 260.495 43.136 260.495 43.856C260.495 44.688 260.927 45.008 262.415 45.264C264.911 45.696 265.631 46.384 265.631 47.728C265.631 49.296 264.287 50.192 262.415 50.192ZM271.255 50V48.688C272.455 47.968 273.127 46.896 273.127 45.552C273.127 45.36 273.095 45.152 273.063 44.928H271.239V43.744H272.791C272.519 42.912 272.327 42.192 272.327 41.536C272.327 39.744 273.767 38.384 275.703 38.384C278.087 38.384 279.143 39.712 279.383 41.2L277.783 41.312C277.511 40.256 276.695 39.728 275.767 39.728C274.551 39.728 273.751 40.576 273.751 41.76C273.751 42.256 273.911 42.896 274.167 43.744H277.015V44.928H274.359C274.359 46.832 273.975 47.92 272.631 48.608H279.191V50H271.255ZM286.397 50V47.536H280.621V46.288L286.301 38.64H287.773V46.192H289.181V47.536H287.773V50H286.397ZM282.285 46.192H286.397V40.752L282.285 46.192ZM295.124 50.256C292.372 50.256 290.628 47.968 290.628 44.336C290.628 40.688 292.372 38.384 295.124 38.384C297.892 38.384 299.636 40.672 299.636 44.336C299.636 47.968 297.892 50.256 295.124 50.256ZM295.124 48.912C297.092 48.912 298.196 47.264 298.196 44.336C298.196 41.392 297.092 39.728 295.124 39.728C293.172 39.728 292.068 41.392 292.068 44.336C292.068 47.264 293.172 48.912 295.124 48.912ZM308.006 50.192C306.246 50.192 305.142 49.344 305.142 47.888C305.142 46.448 305.958 45.648 307.814 45.296L310.822 44.736C310.822 43.312 310.15 42.608 308.806 42.608C307.622 42.608 306.966 43.152 306.71 44.128L305.286 44.016C305.606 42.416 306.886 41.328 308.806 41.328C310.982 41.328 312.166 42.64 312.166 44.784V48.288C312.166 48.672 312.294 48.816 312.614 48.816H312.95V50C312.854 50.016 312.646 50.032 312.438 50.032C311.414 50.032 310.95 49.632 310.838 48.688C310.422 49.568 309.254 50.192 308.006 50.192ZM308.134 49.008C309.83 49.008 310.822 47.92 310.822 46.512V45.904L308.07 46.416C306.918 46.624 306.549 47.056 306.549 47.76C306.549 48.56 307.142 49.008 308.134 49.008ZM321.634 50C320.098 50 319.378 49.328 319.378 47.824V42.704H318.13V41.52H319.378V39.536H320.722V41.52H322.978V42.704H320.722V47.792C320.722 48.56 321.058 48.816 321.762 48.816H322.978V50H321.634ZM327.858 50.192C325.458 50.192 323.97 48.448 323.97 45.76C323.97 43.072 325.458 41.328 327.794 41.328C330.002 41.328 331.538 42.928 331.538 45.776V46.176H325.378C325.474 48 326.386 48.912 327.858 48.912C328.962 48.912 329.682 48.352 329.97 47.488L331.41 47.6C330.962 49.12 329.65 50.192 327.858 50.192ZM325.378 44.992H330.066C329.938 43.36 329.042 42.608 327.794 42.608C326.482 42.608 325.602 43.424 325.378 44.992ZM333.358 50V41.52H334.542L334.59 43.088C334.894 42.016 335.566 41.52 336.606 41.52H337.438V42.8H336.622C335.342 42.8 334.702 43.488 334.702 44.88V50H333.358ZM338.78 50V41.52H340.012L340.044 43.008C340.46 41.968 341.34 41.328 342.428 41.328C343.708 41.328 344.604 41.968 344.972 43.104C345.34 41.968 346.204 41.328 347.452 41.328C349.26 41.328 350.252 42.496 350.252 44.544V50H348.908V44.832C348.908 43.296 348.3 42.512 347.132 42.512C345.948 42.512 345.18 43.408 345.18 44.928V50H343.836V44.928C343.836 43.424 343.34 42.512 342.092 42.512C340.908 42.512 340.124 43.424 340.124 44.928V50H338.78ZM352.283 52.496L353.051 50H352.235V48.192H354.043V49.776L353.083 52.496H352.283ZM362.318 50.192C360.558 50.192 359.454 49.344 359.454 47.888C359.454 46.448 360.27 45.648 362.126 45.296L365.134 44.736C365.134 43.312 364.462 42.608 363.118 42.608C361.934 42.608 361.278 43.152 361.022 44.128L359.598 44.016C359.918 42.416 361.198 41.328 363.118 41.328C365.294 41.328 366.478 42.64 366.478 44.784V48.288C366.478 48.672 366.606 48.816 366.926 48.816H367.262V50C367.166 50.016 366.958 50.032 366.75 50.032C365.726 50.032 365.262 49.632 365.15 48.688C364.734 49.568 363.566 50.192 362.318 50.192ZM362.446 49.008C364.142 49.008 365.134 47.92 365.134 46.512V45.904L362.382 46.416C361.23 46.624 360.862 47.056 360.862 47.76C360.862 48.56 361.454 49.008 362.446 49.008ZM368.78 50V41.52H370.012L370.044 43.04C370.492 41.872 371.484 41.328 372.652 41.328C374.588 41.328 375.516 42.752 375.516 44.544V50H374.172V44.928C374.172 43.36 373.644 42.512 372.364 42.512C371.052 42.512 370.124 43.36 370.124 44.928V50H368.78ZM380.897 50.192C378.689 50.192 377.313 48.48 377.313 45.76C377.313 43.04 378.689 41.328 380.897 41.328C382.033 41.328 383.041 41.84 383.505 42.704V38.64H384.849V50H383.633L383.585 48.72C383.105 49.648 382.081 50.192 380.897 50.192ZM381.169 48.912C382.673 48.912 383.505 47.696 383.505 45.76C383.505 43.792 382.673 42.608 381.169 42.608C379.681 42.608 378.721 43.792 378.721 45.76C378.721 47.696 379.681 48.912 381.169 48.912ZM394.493 50.192C392.157 50.192 390.957 48.992 390.829 47.328L392.237 47.232C392.397 48.256 392.989 48.912 394.493 48.912C395.645 48.912 396.301 48.56 396.301 47.728C396.301 47.056 395.965 46.768 394.237 46.448C391.869 46 391.165 45.264 391.165 43.92C391.165 42.416 392.333 41.328 394.381 41.328C396.621 41.328 397.565 42.672 397.741 44.048L396.333 44.144C396.253 43.344 395.741 42.608 394.349 42.608C393.133 42.608 392.573 43.136 392.573 43.856C392.573 44.688 393.005 45.008 394.493 45.264C396.989 45.696 397.709 46.384 397.709 47.728C397.709 49.296 396.365 50.192 394.493 50.192ZM402.337 50C400.801 50 400.081 49.328 400.081 47.824V42.704H398.833V41.52H400.081V39.536H401.425V41.52H403.681V42.704H401.425V47.792C401.425 48.56 401.761 48.816 402.465 48.816H403.681V50H402.337ZM407.631 50.192C405.871 50.192 404.767 49.344 404.767 47.888C404.767 46.448 405.583 45.648 407.439 45.296L410.447 44.736C410.447 43.312 409.775 42.608 408.431 42.608C407.247 42.608 406.591 43.152 406.335 44.128L404.911 44.016C405.231 42.416 406.511 41.328 408.431 41.328C410.607 41.328 411.791 42.64 411.791 44.784V48.288C411.791 48.672 411.919 48.816 412.239 48.816H412.575V50C412.479 50.016 412.271 50.032 412.062 50.032C411.039 50.032 410.575 49.632 410.463 48.688C410.047 49.568 408.879 50.192 407.631 50.192ZM407.759 49.008C409.455 49.008 410.447 47.92 410.447 46.512V45.904L407.695 46.416C406.543 46.624 406.174 47.056 406.174 47.76C406.174 48.56 406.767 49.008 407.759 49.008ZM414.093 50V41.52H415.277L415.325 43.088C415.629 42.016 416.301 41.52 417.341 41.52H418.173V42.8H417.357C416.077 42.8 415.437 43.488 415.437 44.88V50H414.093ZM422.462 50C420.926 50 420.206 49.328 420.206 47.824V42.704H418.958V41.52H420.206V39.536H421.55V41.52H423.806V42.704H421.55V47.792C421.55 48.56 421.886 48.816 422.59 48.816H423.806V50H422.462ZM428.462 50.192C426.126 50.192 424.926 48.992 424.798 47.328L426.206 47.232C426.366 48.256 426.958 48.912 428.462 48.912C429.614 48.912 430.27 48.56 430.27 47.728C430.27 47.056 429.934 46.768 428.206 46.448C425.838 46 425.134 45.264 425.134 43.92C425.134 42.416 426.302 41.328 428.35 41.328C430.59 41.328 431.534 42.672 431.71 44.048L430.302 44.144C430.222 43.344 429.71 42.608 428.318 42.608C427.102 42.608 426.542 43.136 426.542 43.856C426.542 44.688 426.974 45.008 428.462 45.264C430.958 45.696 431.678 46.384 431.678 47.728C431.678 49.296 430.334 50.192 428.462 50.192ZM439.974 50.192C438.214 50.192 437.11 49.344 437.11 47.888C437.11 46.448 437.926 45.648 439.782 45.296L442.79 44.736C442.79 43.312 442.118 42.608 440.774 42.608C439.59 42.608 438.934 43.152 438.678 44.128L437.254 44.016C437.574 42.416 438.854 41.328 440.774 41.328C442.95 41.328 444.134 42.64 444.134 44.784V48.288C444.134 48.672 444.262 48.816 444.582 48.816H444.918V50C444.822 50.016 444.614 50.032 444.406 50.032C443.382 50.032 442.918 49.632 442.806 48.688C442.39 49.568 441.222 50.192 439.974 50.192ZM440.102 49.008C441.798 49.008 442.79 47.92 442.79 46.512V45.904L440.038 46.416C438.886 46.624 438.518 47.056 438.518 47.76C438.518 48.56 439.11 49.008 440.102 49.008ZM448.806 50C447.27 50 446.55 49.328 446.55 47.824V42.704H445.302V41.52H446.55V39.536H447.894V41.52H450.15V42.704H447.894V47.792C447.894 48.56 448.23 48.816 448.934 48.816H450.15V50H448.806ZM15.008 74V65.584H12.64V64.4H13.6C14.848 64.4 15.296 63.984 15.296 62.64H16.384V74H15.008ZM23.1326 74.256C20.7326 74.256 19.2606 72.96 19.1006 71.072L20.5406 70.976C20.7006 72.256 21.6926 72.912 23.1326 72.912C24.7326 72.912 25.7406 71.952 25.7406 70.352C25.7406 68.752 24.7646 67.744 23.1006 67.744C22.0446 67.744 21.1326 68.224 20.7646 69.024H19.2926L20.0446 62.64H26.4126V63.984H21.3086L20.8926 67.408C21.4686 66.768 22.3806 66.432 23.3566 66.432C25.6286 66.432 27.1806 68.08 27.1806 70.352C27.1806 72.64 25.5166 74.256 23.1326 74.256ZM29.6283 67.712V65.904H31.4363V67.712H29.6283ZM29.6283 74V72.192H31.4363V74H29.6283ZM37.7223 74.256C35.1943 74.256 33.8023 72.944 33.7063 71.072L35.1303 70.976C35.2582 72.368 36.2983 72.912 37.7223 72.912C39.1943 72.912 40.4743 72.368 40.4743 70.832C40.4743 69.328 39.3703 68.64 37.7383 68.64H36.8423V67.296H37.7383C39.0823 67.296 40.0743 66.816 40.0743 65.52C40.0743 64.352 39.3063 63.728 37.8023 63.728C36.2983 63.728 35.5783 64.336 35.4343 65.344L33.9943 65.248C34.2023 63.552 35.5303 62.384 37.8023 62.384C40.1063 62.384 41.5143 63.568 41.5143 65.456C41.5143 66.672 40.8423 67.488 39.5463 67.888C41.0183 68.288 41.9143 69.376 41.9143 70.832C41.9143 73.008 40.1863 74.256 37.7223 74.256ZM48.0148 74.256C45.2628 74.256 43.5188 71.968 43.5188 68.336C43.5188 64.688 45.2628 62.384 48.0148 62.384C50.7828 62.384 52.5268 64.672 52.5268 68.336C52.5268 71.968 50.7828 74.256 48.0148 74.256ZM48.0148 72.912C49.9828 72.912 51.0868 71.264 51.0868 68.336C51.0868 65.392 49.9828 63.728 48.0148 63.728C46.0628 63.728 44.9588 65.392 44.9588 68.336C44.9588 71.264 46.0628 72.912 48.0148 72.912ZM54.0321 74V72.192H55.8401V74H54.0321ZM64.1469 74L61.1549 62.64H62.6589L64.9949 72.112L67.3149 62.64H68.8829L71.2189 72.112L73.5389 62.64H75.0589L72.0669 74H70.3389L68.0989 65.2L65.8589 74H64.1469ZM79.6233 74.192C77.2713 74.192 75.7353 72.464 75.7353 69.76C75.7353 67.056 77.2713 65.328 79.6233 65.328C81.9593 65.328 83.4953 67.056 83.4953 69.76C83.4953 72.464 81.9593 74.192 79.6233 74.192ZM79.6233 72.912C81.1753 72.912 82.0873 71.728 82.0873 69.76C82.0873 67.792 81.1753 66.608 79.6233 66.608C78.0553 66.608 77.1432 67.792 77.1432 69.76C77.1432 71.728 78.0553 72.912 79.6233 72.912ZM88.1109 74.192C86.4149 74.192 85.3269 72.992 85.3269 70.976V65.52H86.6709V70.608C86.6709 72.256 87.2469 73.008 88.4629 73.008C89.8069 73.008 90.6229 72.096 90.6229 70.576V65.52H91.9669V74H90.6869V72.624C90.2229 73.632 89.3269 74.192 88.1109 74.192ZM96.194 74C95.202 74 94.53 73.52 94.53 72.4V62.64H95.874V72.288C95.874 72.64 96.05 72.816 96.402 72.816H97.138V74H96.194ZM101.71 74.192C99.5019 74.192 98.1259 72.48 98.1259 69.76C98.1259 67.04 99.5019 65.328 101.71 65.328C102.846 65.328 103.854 65.84 104.318 66.704V62.64H105.662V74H104.446L104.398 72.72C103.918 73.648 102.894 74.192 101.71 74.192ZM101.982 72.912C103.486 72.912 104.318 71.696 104.318 69.76C104.318 67.792 103.486 66.608 101.982 66.608C100.494 66.608 99.5339 67.792 99.5339 69.76C99.5339 71.696 100.494 72.912 101.982 72.912ZM116.762 74.256C113.722 74.256 111.658 72.016 111.658 68.336C111.658 64.656 113.722 62.384 116.762 62.384C119.514 62.384 120.97 63.872 121.45 66.256L119.994 66.352C119.674 64.736 118.65 63.728 116.762 63.728C114.586 63.728 113.098 65.456 113.098 68.336C113.098 71.216 114.586 72.912 116.762 72.912C118.746 72.912 119.802 71.808 120.09 70.032L121.546 70.128C121.13 72.592 119.482 74.256 116.762 74.256ZM123.499 74V62.64H124.843V66.848C125.275 65.808 126.235 65.328 127.403 65.328C129.227 65.328 130.235 66.656 130.235 68.544V74H128.891V68.928C128.891 67.296 128.299 66.512 127.115 66.512C125.739 66.512 124.843 67.376 124.843 68.944V74H123.499ZM134.927 74.192C133.167 74.192 132.063 73.344 132.063 71.888C132.063 70.448 132.879 69.648 134.735 69.296L137.743 68.736C137.743 67.312 137.071 66.608 135.727 66.608C134.543 66.608 133.887 67.152 133.631 68.128L132.207 68.016C132.527 66.416 133.807 65.328 135.727 65.328C137.903 65.328 139.087 66.64 139.087 68.784V72.288C139.087 72.672 139.215 72.816 139.535 72.816H139.871V74C139.775 74.016 139.567 74.032 139.359 74.032C138.335 74.032 137.871 73.632 137.759 72.688C137.343 73.568 136.175 74.192 134.927 74.192ZM135.055 73.008C136.751 73.008 137.743 71.92 137.743 70.512V69.904L134.991 70.416C133.839 70.624 133.471 71.056 133.471 71.76C133.471 72.56 134.063 73.008 135.055 73.008ZM141.389 74V65.52H142.573L142.621 67.088C142.925 66.016 143.597 65.52 144.637 65.52H145.469V66.8H144.653C143.373 66.8 142.733 67.488 142.733 68.88V74H141.389ZM148.632 74C147.64 74 146.968 73.52 146.968 72.4V62.64H148.312V72.288C148.312 72.64 148.488 72.816 148.84 72.816H149.576V74H148.632ZM154.451 74.192C152.099 74.192 150.563 72.464 150.563 69.76C150.563 67.056 152.099 65.328 154.451 65.328C156.787 65.328 158.323 67.056 158.323 69.76C158.323 72.464 156.787 74.192 154.451 74.192ZM154.451 72.912C156.003 72.912 156.915 71.728 156.915 69.76C156.915 67.792 156.003 66.608 154.451 66.608C152.883 66.608 151.971 67.792 151.971 69.76C151.971 71.728 152.883 72.912 154.451 72.912ZM162.931 74C161.395 74 160.675 73.328 160.675 71.824V66.704H159.427V65.52H160.675V63.536H162.019V65.52H165.491V63.536H166.835V65.52H169.091V66.704H166.835V71.792C166.835 72.56 167.171 72.816 167.875 72.816H169.091V74H167.747C166.211 74 165.491 73.328 165.491 71.824V66.704H162.019V71.792C162.019 72.56 162.355 72.816 163.059 72.816H164.275V74H162.931ZM173.983 74.192C171.583 74.192 170.095 72.448 170.095 69.76C170.095 67.072 171.583 65.328 173.919 65.328C176.127 65.328 177.663 66.928 177.663 69.776V70.176H171.503C171.599 72 172.511 72.912 173.983 72.912C175.087 72.912 175.807 72.352 176.095 71.488L177.535 71.6C177.087 73.12 175.775 74.192 173.983 74.192ZM171.503 68.992H176.191C176.063 67.36 175.167 66.608 173.919 66.608C172.607 66.608 171.727 67.424 171.503 68.992ZM185.303 74C184.311 74 183.639 73.52 183.639 72.4V62.64H184.983V72.288C184.983 72.64 185.159 72.816 185.511 72.816H186.247V74H185.303ZM187.748 64.192V62.624H189.156V64.192H187.748ZM187.78 74V65.52H189.124V74H187.78ZM191.374 74V62.64H192.718V70.08L196.846 65.52H198.638L195.294 69.12L198.782 74H197.15L194.382 70.032L192.718 71.792V74H191.374ZM203.326 74.192C200.926 74.192 199.438 72.448 199.438 69.76C199.438 67.072 200.926 65.328 203.262 65.328C205.47 65.328 207.006 66.928 207.006 69.776V70.176H200.846C200.942 72 201.854 72.912 203.326 72.912C204.43 72.912 205.15 72.352 205.438 71.488L206.878 71.6C206.43 73.12 205.118 74.192 203.326 74.192ZM200.846 68.992H205.534C205.406 67.36 204.51 66.608 203.262 66.608C201.95 66.608 201.07 67.424 200.846 68.992ZM216.087 74C214.551 74 213.831 73.328 213.831 71.824V66.704H212.583V65.52H213.831V63.536H215.175V65.52H217.431V66.704H215.175V71.792C215.175 72.56 215.511 72.816 216.215 72.816H217.431V74H216.087ZM222.311 74.192C219.959 74.192 218.423 72.464 218.423 69.76C218.423 67.056 219.959 65.328 222.311 65.328C224.647 65.328 226.183 67.056 226.183 69.76C226.183 72.464 224.647 74.192 222.311 74.192ZM222.311 72.912C223.863 72.912 224.775 71.728 224.775 69.76C224.775 67.792 223.863 66.608 222.311 66.608C220.743 66.608 219.831 67.792 219.831 69.76C219.831 71.728 220.743 72.912 222.311 72.912ZM234.459 74.192C232.699 74.192 231.595 73.344 231.595 71.888C231.595 70.448 232.411 69.648 234.267 69.296L237.275 68.736C237.275 67.312 236.603 66.608 235.259 66.608C234.075 66.608 233.419 67.152 233.163 68.128L231.739 68.016C232.059 66.416 233.339 65.328 235.259 65.328C237.435 65.328 238.619 66.64 238.619 68.784V72.288C238.619 72.672 238.747 72.816 239.067 72.816H239.403V74C239.307 74.016 239.099 74.032 238.891 74.032C237.867 74.032 237.403 73.632 237.291 72.688C236.875 73.568 235.707 74.192 234.459 74.192ZM234.587 73.008C236.283 73.008 237.275 71.92 237.275 70.512V69.904L234.523 70.416C233.371 70.624 233.003 71.056 233.003 71.76C233.003 72.56 233.595 73.008 234.587 73.008ZM243.29 74C241.754 74 241.034 73.328 241.034 71.824V66.704H239.786V65.52H241.034V63.536H242.378V65.52H245.85V63.536H247.194V65.52H249.45V66.704H247.194V71.792C247.194 72.56 247.53 72.816 248.234 72.816H249.45V74H248.106C246.57 74 245.85 73.328 245.85 71.824V66.704H242.378V71.792C242.378 72.56 242.714 72.816 243.418 72.816H244.634V74H243.29ZM254.342 74.192C251.942 74.192 250.454 72.448 250.454 69.76C250.454 67.072 251.942 65.328 254.278 65.328C256.486 65.328 258.022 66.928 258.022 69.776V70.176H251.862C251.958 72 252.87 72.912 254.342 72.912C255.446 72.912 256.166 72.352 256.454 71.488L257.894 71.6C257.446 73.12 256.134 74.192 254.342 74.192ZM251.862 68.992H256.55C256.422 67.36 255.526 66.608 254.278 66.608C252.966 66.608 252.086 67.424 251.862 68.992ZM259.843 74V65.52H261.075L261.107 67.04C261.555 65.872 262.547 65.328 263.715 65.328C265.651 65.328 266.579 66.752 266.579 68.544V74H265.235V68.928C265.235 67.36 264.707 66.512 263.427 66.512C262.115 66.512 261.187 67.36 261.187 68.928V74H259.843ZM271.96 74.192C269.752 74.192 268.376 72.48 268.376 69.76C268.376 67.04 269.752 65.328 271.96 65.328C273.096 65.328 274.104 65.84 274.568 66.704V62.64H275.912V74H274.696L274.648 72.72C274.168 73.648 273.144 74.192 271.96 74.192ZM272.232 72.912C273.736 72.912 274.568 71.696 274.568 69.76C274.568 67.792 273.736 66.608 272.232 66.608C270.744 66.608 269.784 67.792 269.784 69.76C269.784 71.696 270.744 72.912 272.232 72.912ZM280.775 70.784C280.775 69.248 281.223 68.448 282.327 67.76C283.575 66.992 283.831 66.608 283.831 65.648C283.831 64.544 283.047 63.728 281.751 63.728C280.167 63.728 279.335 64.56 279.175 66.096L277.735 66C277.927 63.888 279.415 62.384 281.751 62.384C283.831 62.384 285.271 63.744 285.271 65.648C285.271 66.992 284.631 67.696 283.255 68.592C282.391 69.152 282.151 69.664 282.151 70.784H280.775ZM280.519 74V72.192H282.327V74H280.519Z" fill="#1E2939"/>
<defs>
<linearGradient id="paint0_linear_6889_39323" x1="0" y1="44" x2="480" y2="44" gradientUnits="userSpaceOnUse">
<stop stop-color="#F2F5EA"/>
<stop offset="1" stop-color="#DCE3C5"/>
</linearGradient>
</defs>
</svg>
