<svg width="480" height="64" viewBox="0 0 480 64" fill="none" xmlns="http://www.w3.org/2000/svg">
<rect x="0.5" y="0.5" width="479" height="63" rx="7.5" fill="url(#paint0_linear_6889_39307)"/>
<rect x="0.5" y="0.5" width="479" height="63" rx="7.5" stroke="#859DA7"/>
<path d="M13.472 26V14.64H14.848V26H13.472ZM17.0805 18.944L17.8485 16.448H17.0325V14.64H18.8405V16.224L17.8805 18.944H17.0805ZM23.0025 26L19.9145 17.52H21.3865L23.8505 24.624L26.3145 17.52H27.7865L24.6985 26H23.0025ZM32.3108 26.192C29.9108 26.192 28.4228 24.448 28.4228 21.76C28.4228 19.072 29.9108 17.328 32.2468 17.328C34.4548 17.328 35.9908 18.928 35.9908 21.776V22.176H29.8307C29.9268 24 30.8388 24.912 32.3108 24.912C33.4148 24.912 34.1348 24.352 34.4228 23.488L35.8628 23.6C35.4148 25.12 34.1028 26.192 32.3108 26.192ZM29.8307 20.992H34.5188C34.3908 19.36 33.4948 18.608 32.2468 18.608C30.9348 18.608 30.0548 19.424 29.8307 20.992ZM45.0555 26.192C42.7195 26.192 41.5195 24.992 41.3915 23.328L42.7995 23.232C42.9595 24.256 43.5515 24.912 45.0555 24.912C46.2075 24.912 46.8635 24.56 46.8635 23.728C46.8635 23.056 46.5275 22.768 44.7995 22.448C42.4315 22 41.7275 21.264 41.7275 19.92C41.7275 18.416 42.8955 17.328 44.9435 17.328C47.1835 17.328 48.1275 18.672 48.3035 20.048L46.8955 20.144C46.8155 19.344 46.3035 18.608 44.9115 18.608C43.6955 18.608 43.1355 19.136 43.1355 19.856C43.1355 20.688 43.5675 21.008 45.0555 21.264C47.5515 21.696 48.2715 22.384 48.2715 23.728C48.2715 25.296 46.9275 26.192 45.0555 26.192ZM53.4358 26.192C51.0358 26.192 49.5478 24.448 49.5478 21.76C49.5478 19.072 51.0358 17.328 53.3718 17.328C55.5798 17.328 57.1158 18.928 57.1158 21.776V22.176H50.9557C51.0518 24 51.9638 24.912 53.4358 24.912C54.5398 24.912 55.2598 24.352 55.5478 23.488L56.9878 23.6C56.5398 25.12 55.2278 26.192 53.4358 26.192ZM50.9557 20.992H55.6438C55.5158 19.36 54.6198 18.608 53.3718 18.608C52.0598 18.608 51.1798 19.424 50.9557 20.992ZM58.9363 26V17.52H60.1683L60.2003 19.04C60.6483 17.872 61.6403 17.328 62.8083 17.328C64.7443 17.328 65.6723 18.752 65.6723 20.544V26H64.3283V20.928C64.3283 19.36 63.8003 18.512 62.5203 18.512C61.2083 18.512 60.2803 19.36 60.2803 20.928V26H58.9363ZM70.6965 26C69.1605 26 68.4405 25.328 68.4405 23.824V18.704H67.1925V17.52H68.4405V15.536H69.7845V17.52H72.0405V18.704H69.7845V23.792C69.7845 24.56 70.1205 24.816 70.8245 24.816H72.0405V26H70.6965ZM80.9621 26C79.4261 26 78.7061 25.328 78.7061 23.824V18.704H77.4581V17.52H78.7061V15.536H80.0501V17.52H82.3061V18.704H80.0501V23.792C80.0501 24.56 80.3861 24.816 81.0901 24.816H82.3061V26H80.9621ZM83.8738 26V14.64H85.2178V18.848C85.6498 17.808 86.6098 17.328 87.7778 17.328C89.6018 17.328 90.6098 18.656 90.6098 20.544V26H89.2658V20.928C89.2658 19.296 88.6738 18.512 87.4898 18.512C86.1138 18.512 85.2178 19.376 85.2178 20.944V26H83.8738ZM96.2951 26.192C93.8951 26.192 92.4071 24.448 92.4071 21.76C92.4071 19.072 93.8951 17.328 96.2311 17.328C98.4391 17.328 99.9751 18.928 99.9751 21.776V22.176H93.8151C93.9111 24 94.8231 24.912 96.2951 24.912C97.3991 24.912 98.1191 24.352 98.4071 23.488L99.8471 23.6C99.3991 25.12 98.0871 26.192 96.2951 26.192ZM93.8151 20.992H98.5031C98.3751 19.36 97.4791 18.608 96.2311 18.608C94.9191 18.608 94.0391 19.424 93.8151 20.992ZM109.264 26.192C106.864 26.192 105.376 24.448 105.376 21.76C105.376 19.072 106.864 17.328 109.2 17.328C111.408 17.328 112.944 18.928 112.944 21.776V22.176H106.784C106.88 24 107.792 24.912 109.264 24.912C110.368 24.912 111.088 24.352 111.376 23.488L112.816 23.6C112.368 25.12 111.056 26.192 109.264 26.192ZM106.784 20.992H111.472C111.344 19.36 110.448 18.608 109.2 18.608C107.888 18.608 107.008 19.424 106.784 20.992ZM114.764 26V17.52H115.996L116.028 19.008C116.444 17.968 117.324 17.328 118.412 17.328C119.692 17.328 120.588 17.968 120.956 19.104C121.324 17.968 122.188 17.328 123.436 17.328C125.244 17.328 126.236 18.496 126.236 20.544V26H124.892V20.832C124.892 19.296 124.284 18.512 123.116 18.512C121.932 18.512 121.164 19.408 121.164 20.928V26H119.82V20.928C119.82 19.424 119.324 18.512 118.076 18.512C116.892 18.512 116.108 19.424 116.108 20.928V26H114.764ZM130.927 26.192C129.167 26.192 128.063 25.344 128.063 23.888C128.063 22.448 128.879 21.648 130.735 21.296L133.743 20.736C133.743 19.312 133.071 18.608 131.727 18.608C130.543 18.608 129.887 19.152 129.631 20.128L128.207 20.016C128.527 18.416 129.807 17.328 131.727 17.328C133.903 17.328 135.087 18.64 135.087 20.784V24.288C135.087 24.672 135.215 24.816 135.535 24.816H135.871V26C135.775 26.016 135.567 26.032 135.359 26.032C134.335 26.032 133.871 25.632 133.759 24.688C133.343 25.568 132.175 26.192 130.927 26.192ZM131.055 25.008C132.751 25.008 133.743 23.92 133.743 22.512V21.904L130.991 22.416C129.839 22.624 129.471 23.056 129.471 23.76C129.471 24.56 130.063 25.008 131.055 25.008ZM137.295 16.192V14.624H138.703V16.192H137.295ZM137.327 26V17.52H138.671V26H137.327ZM142.741 26C141.749 26 141.077 25.52 141.077 24.4V14.64H142.421V24.288C142.421 24.64 142.597 24.816 142.949 24.816H143.685V26H142.741ZM152.447 26C150.911 26 150.191 25.328 150.191 23.824V18.704H148.943V17.52H150.191V15.536H151.535V17.52H153.791V18.704H151.535V23.792C151.535 24.56 151.871 24.816 152.575 24.816H153.791V26H152.447ZM158.67 26.192C156.318 26.192 154.782 24.464 154.782 21.76C154.782 19.056 156.318 17.328 158.67 17.328C161.006 17.328 162.542 19.056 162.542 21.76C162.542 24.464 161.006 26.192 158.67 26.192ZM158.67 24.912C160.222 24.912 161.134 23.728 161.134 21.76C161.134 19.792 160.222 18.608 158.67 18.608C157.102 18.608 156.19 19.792 156.19 21.76C156.19 23.728 157.102 24.912 158.67 24.912ZM168.722 26V14.64H170.642L174.274 24.496L177.89 14.64H179.81V26H178.434V17.2L175.186 26H173.346L170.098 17.2V26H168.722ZM184.693 26.192C182.933 26.192 181.829 25.344 181.829 23.888C181.829 22.448 182.645 21.648 184.501 21.296L187.509 20.736C187.509 19.312 186.837 18.608 185.493 18.608C184.309 18.608 183.653 19.152 183.397 20.128L181.973 20.016C182.293 18.416 183.573 17.328 185.493 17.328C187.669 17.328 188.853 18.64 188.853 20.784V24.288C188.853 24.672 188.981 24.816 189.301 24.816H189.637V26C189.541 26.016 189.333 26.032 189.125 26.032C188.101 26.032 187.637 25.632 187.525 24.688C187.109 25.568 185.941 26.192 184.693 26.192ZM184.821 25.008C186.517 25.008 187.509 23.92 187.509 22.512V21.904L184.757 22.416C183.605 22.624 183.237 23.056 183.237 23.76C183.237 24.56 183.829 25.008 184.821 25.008ZM191.155 26V17.52H192.339L192.387 19.088C192.691 18.016 193.363 17.52 194.403 17.52H195.235V18.8H194.419C193.139 18.8 192.499 19.488 192.499 20.88V26H191.155ZM199.889 26.192C197.521 26.192 196.001 24.448 196.001 21.76C196.001 19.072 197.521 17.328 199.889 17.328C201.841 17.328 203.201 18.384 203.489 20.272L202.081 20.368C201.889 19.248 201.041 18.608 199.889 18.608C198.321 18.608 197.409 19.792 197.409 21.76C197.409 23.728 198.321 24.912 199.889 24.912C201.041 24.912 201.889 24.272 202.081 22.992L203.489 23.088C203.201 24.976 201.841 26.192 199.889 26.192ZM207.939 26.192C206.243 26.192 205.155 24.992 205.155 22.976V17.52H206.499V22.608C206.499 24.256 207.075 25.008 208.291 25.008C209.635 25.008 210.451 24.096 210.451 22.576V17.52H211.795V26H210.515V24.624C210.051 25.632 209.155 26.192 207.939 26.192ZM217.29 26.192C214.954 26.192 213.754 24.992 213.626 23.328L215.034 23.232C215.194 24.256 215.786 24.912 217.29 24.912C218.442 24.912 219.098 24.56 219.098 23.728C219.098 23.056 218.762 22.768 217.034 22.448C214.666 22 213.962 21.264 213.962 19.92C213.962 18.416 215.13 17.328 217.178 17.328C219.418 17.328 220.362 18.672 220.538 20.048L219.13 20.144C219.05 19.344 218.538 18.608 217.146 18.608C215.93 18.608 215.37 19.136 215.37 19.856C215.37 20.688 215.802 21.008 217.29 21.264C219.786 21.696 220.506 22.384 220.506 23.728C220.506 25.296 219.162 26.192 217.29 26.192ZM226.706 26V14.64H230.61C233.298 14.64 234.642 15.584 234.642 17.696C234.642 18.976 233.89 19.904 232.626 20.128C234.178 20.352 235.122 21.408 235.122 22.88C235.122 24.944 233.73 26 231.25 26H226.706ZM228.082 19.552H230.61C232.274 19.552 233.202 18.896 233.202 17.76C233.202 16.56 232.338 15.984 230.61 15.984H228.082V19.552ZM228.082 24.656H231.25C232.802 24.656 233.682 24 233.682 22.8C233.682 21.6 232.802 20.896 231.25 20.896H228.082V24.656ZM237.233 26V17.52H238.417L238.465 19.088C238.769 18.016 239.441 17.52 240.481 17.52H241.313V18.8H240.497C239.217 18.8 238.577 19.488 238.577 20.88V26H237.233ZM245.967 26.192C243.615 26.192 242.079 24.464 242.079 21.76C242.079 19.056 243.615 17.328 245.967 17.328C248.303 17.328 249.839 19.056 249.839 21.76C249.839 24.464 248.303 26.192 245.967 26.192ZM245.967 24.912C247.519 24.912 248.431 23.728 248.431 21.76C248.431 19.792 247.519 18.608 245.967 18.608C244.399 18.608 243.487 19.792 243.487 21.76C243.487 23.728 244.399 24.912 245.967 24.912ZM254.679 26.192C252.471 26.192 251.095 24.48 251.095 21.76C251.095 19.04 252.471 17.328 254.679 17.328C255.815 17.328 256.823 17.84 257.287 18.704V14.64H258.631V26H257.415L257.367 24.72C256.887 25.648 255.863 26.192 254.679 26.192ZM254.951 24.912C256.455 24.912 257.287 23.696 257.287 21.76C257.287 19.792 256.455 18.608 254.951 18.608C253.463 18.608 252.503 19.792 252.503 21.76C252.503 23.696 253.463 24.912 254.951 24.912ZM261.398 28.4V27.216H262.374C262.966 27.216 263.206 27.04 263.366 26.64L263.67 25.84H263.206L260.102 17.52H261.574L264.102 24.592L266.518 17.52H267.99L264.55 27.072C264.23 27.984 263.638 28.4 262.502 28.4H261.398ZM276.728 26C275.192 26 274.472 25.328 274.472 23.824V18.704H273.224V17.52H274.472V15.536H275.816V17.52H278.072V18.704H275.816V23.792C275.816 24.56 276.152 24.816 276.856 24.816H278.072V26H276.728ZM282.951 26.192C280.599 26.192 279.063 24.464 279.063 21.76C279.063 19.056 280.599 17.328 282.951 17.328C285.287 17.328 286.823 19.056 286.823 21.76C286.823 24.464 285.287 26.192 282.951 26.192ZM282.951 24.912C284.503 24.912 285.415 23.728 285.415 21.76C285.415 19.792 284.503 18.608 282.951 18.608C281.383 18.608 280.471 19.792 280.471 21.76C280.471 23.728 281.383 24.912 282.951 24.912ZM292.779 16.192V14.624H294.187V16.192H292.779ZM292.811 26V17.52H294.155V26H292.811ZM296.811 26V17.52H298.043L298.075 19.04C298.523 17.872 299.515 17.328 300.683 17.328C302.619 17.328 303.547 18.752 303.547 20.544V26H302.203V20.928C302.203 19.36 301.675 18.512 300.395 18.512C299.083 18.512 298.155 19.36 298.155 20.928V26H296.811ZM309.233 26.192C306.865 26.192 305.345 24.448 305.345 21.76C305.345 19.072 306.865 17.328 309.233 17.328C311.185 17.328 312.545 18.384 312.833 20.272L311.425 20.368C311.233 19.248 310.385 18.608 309.233 18.608C307.665 18.608 306.753 19.792 306.753 21.76C306.753 23.728 307.665 24.912 309.233 24.912C310.385 24.912 311.233 24.272 311.425 22.992L312.833 23.088C312.545 24.976 311.185 26.192 309.233 26.192ZM316.241 26C315.249 26 314.577 25.52 314.577 24.4V14.64H315.921V24.288C315.921 24.64 316.097 24.816 316.449 24.816H317.185V26H316.241ZM321.47 26.192C319.774 26.192 318.686 24.992 318.686 22.976V17.52H320.03V22.608C320.03 24.256 320.606 25.008 321.822 25.008C323.166 25.008 323.982 24.096 323.982 22.576V17.52H325.326V26H324.046V24.624C323.582 25.632 322.686 26.192 321.47 26.192ZM330.741 26.192C328.533 26.192 327.157 24.48 327.157 21.76C327.157 19.04 328.533 17.328 330.741 17.328C331.877 17.328 332.885 17.84 333.349 18.704V14.64H334.693V26H333.477L333.429 24.72C332.949 25.648 331.925 26.192 330.741 26.192ZM331.013 24.912C332.517 24.912 333.349 23.696 333.349 21.76C333.349 19.792 332.517 18.608 331.013 18.608C329.525 18.608 328.565 19.792 328.565 21.76C328.565 23.696 329.525 24.912 331.013 24.912ZM340.405 26.192C338.005 26.192 336.517 24.448 336.517 21.76C336.517 19.072 338.005 17.328 340.341 17.328C342.549 17.328 344.085 18.928 344.085 21.776V22.176H337.924C338.021 24 338.933 24.912 340.405 24.912C341.509 24.912 342.229 24.352 342.517 23.488L343.957 23.6C343.509 25.12 342.197 26.192 340.405 26.192ZM337.924 20.992H342.613C342.485 19.36 341.589 18.608 340.341 18.608C339.029 18.608 338.149 19.424 337.924 20.992ZM352.509 26V15.984H348.973V14.64H357.421V15.984H353.885V26H352.509ZM358.405 26V14.64H359.749V18.848C360.181 17.808 361.141 17.328 362.309 17.328C364.133 17.328 365.141 18.656 365.141 20.544V26H363.797V20.928C363.797 19.296 363.205 18.512 362.021 18.512C360.645 18.512 359.749 19.376 359.749 20.944V26H358.405ZM370.252 26.192C368.556 26.192 367.468 24.992 367.468 22.976V17.52H368.812V22.608C368.812 24.256 369.388 25.008 370.604 25.008C371.948 25.008 372.764 24.096 372.764 22.576V17.52H374.108V26H372.828V24.624C372.364 25.632 371.468 26.192 370.252 26.192ZM376.671 26V17.52H377.855L377.903 19.088C378.207 18.016 378.879 17.52 379.919 17.52H380.751V18.8H379.935C378.655 18.8 378.015 19.488 378.015 20.88V26H376.671ZM385.181 26.192C382.845 26.192 381.645 24.992 381.517 23.328L382.924 23.232C383.085 24.256 383.677 24.912 385.181 24.912C386.333 24.912 386.989 24.56 386.989 23.728C386.989 23.056 386.653 22.768 384.924 22.448C382.557 22 381.853 21.264 381.853 19.92C381.853 18.416 383.021 17.328 385.069 17.328C387.309 17.328 388.253 18.672 388.429 20.048L387.021 20.144C386.941 19.344 386.429 18.608 385.036 18.608C383.821 18.608 383.261 19.136 383.261 19.856C383.261 20.688 383.693 21.008 385.181 21.264C387.677 21.696 388.397 22.384 388.397 23.728C388.397 25.296 387.053 26.192 385.181 26.192ZM393.257 26.192C391.049 26.192 389.673 24.48 389.673 21.76C389.673 19.04 391.049 17.328 393.257 17.328C394.393 17.328 395.401 17.84 395.865 18.704V14.64H397.209V26H395.993L395.945 24.72C395.465 25.648 394.441 26.192 393.257 26.192ZM393.529 24.912C395.033 24.912 395.865 23.696 395.865 21.76C395.865 19.792 395.033 18.608 393.529 18.608C392.041 18.608 391.081 19.792 391.081 21.76C391.081 23.696 392.041 24.912 393.529 24.912ZM401.896 26.192C400.136 26.192 399.032 25.344 399.032 23.888C399.032 22.448 399.848 21.648 401.704 21.296L404.712 20.736C404.712 19.312 404.04 18.608 402.696 18.608C401.512 18.608 400.856 19.152 400.6 20.128L399.176 20.016C399.496 18.416 400.776 17.328 402.696 17.328C404.872 17.328 406.056 18.64 406.056 20.784V24.288C406.056 24.672 406.184 24.816 406.504 24.816H406.84V26C406.744 26.016 406.536 26.032 406.328 26.032C405.304 26.032 404.84 25.632 404.728 24.688C404.312 25.568 403.144 26.192 401.896 26.192ZM402.024 25.008C403.72 25.008 404.712 23.92 404.712 22.512V21.904L401.96 22.416C400.808 22.624 400.44 23.056 400.44 23.76C400.44 24.56 401.032 25.008 402.024 25.008ZM408.398 28.4V27.216H409.374C409.966 27.216 410.206 27.04 410.366 26.64L410.67 25.84H410.206L407.102 17.52H408.574L411.102 24.592L413.518 17.52H414.99L411.55 27.072C411.23 27.984 410.638 28.4 409.502 28.4H408.398ZM424.032 26.256C421.92 26.256 420.432 24.624 420.416 22.288L421.824 22.192C421.84 23.936 422.64 24.912 424.032 24.912C425.472 24.912 426.288 23.872 426.288 22.032V14.64H427.664V22.032C427.664 24.624 426.256 26.256 424.032 26.256ZM432.459 26.192C430.699 26.192 429.595 25.344 429.595 23.888C429.595 22.448 430.411 21.648 432.267 21.296L435.275 20.736C435.275 19.312 434.603 18.608 433.259 18.608C432.075 18.608 431.419 19.152 431.163 20.128L429.739 20.016C430.059 18.416 431.339 17.328 433.259 17.328C435.435 17.328 436.619 18.64 436.619 20.784V24.288C436.619 24.672 436.747 24.816 437.067 24.816H437.403V26C437.307 26.016 437.099 26.032 436.891 26.032C435.867 26.032 435.403 25.632 435.291 24.688C434.875 25.568 433.707 26.192 432.459 26.192ZM432.587 25.008C434.283 25.008 435.275 23.92 435.275 22.512V21.904L432.523 22.416C431.371 22.624 431.003 23.056 431.003 23.76C431.003 24.56 431.595 25.008 432.587 25.008ZM438.921 26V17.52H440.153L440.185 19.04C440.633 17.872 441.625 17.328 442.793 17.328C444.729 17.328 445.657 18.752 445.657 20.544V26H444.313V20.928C444.313 19.36 443.785 18.512 442.505 18.512C441.193 18.512 440.265 19.36 440.265 20.928V26H438.921ZM12.96 50C12.96 47.6 13.904 46.016 17.312 44.208C18.88 43.376 19.504 42.864 19.504 41.712C19.504 40.544 18.736 39.728 17.232 39.728C15.632 39.728 14.704 40.592 14.464 42.128L13.024 42.032C13.28 39.808 14.768 38.384 17.232 38.384C19.568 38.384 20.944 39.728 20.944 41.68C20.944 43.408 20.176 44.272 17.824 45.52C15.776 46.608 14.72 47.792 14.656 48.656H20.944V50H12.96ZM22.8663 50C22.8663 47.6 23.8103 46.016 27.2183 44.208C28.7863 43.376 29.4103 42.864 29.4103 41.712C29.4103 40.544 28.6423 39.728 27.1383 39.728C25.5383 39.728 24.6103 40.592 24.3703 42.128L22.9303 42.032C23.1863 39.808 24.6743 38.384 27.1383 38.384C29.4743 38.384 30.8503 39.728 30.8503 41.68C30.8503 43.408 30.0823 44.272 27.7303 45.52C25.6823 46.608 24.6263 47.792 24.5623 48.656H30.8503V50H22.8663ZM33.0925 50V41.52H34.3245L34.3565 43.04C34.8045 41.872 35.7965 41.328 36.9645 41.328C38.9005 41.328 39.8285 42.752 39.8285 44.544V50H38.4845V44.928C38.4845 43.36 37.9565 42.512 36.6765 42.512C35.3645 42.512 34.4365 43.36 34.4365 44.928V50H33.0925ZM45.2099 50.192C43.0019 50.192 41.6259 48.48 41.6259 45.76C41.6259 43.04 43.0019 41.328 45.2099 41.328C46.3459 41.328 47.3539 41.84 47.8179 42.704V38.64H49.1619V50H47.9459L47.8979 48.72C47.4179 49.648 46.3939 50.192 45.2099 50.192ZM45.4819 48.912C46.9859 48.912 47.8179 47.696 47.8179 45.76C47.8179 43.792 46.9859 42.608 45.4819 42.608C43.9939 42.608 43.0339 43.792 43.0339 45.76C43.0339 47.696 43.9939 48.912 45.4819 48.912ZM58.0055 50.192C56.2455 50.192 55.1415 49.344 55.1415 47.888C55.1415 46.448 55.9575 45.648 57.8135 45.296L60.8215 44.736C60.8215 43.312 60.1495 42.608 58.8055 42.608C57.6215 42.608 56.9655 43.152 56.7095 44.128L55.2855 44.016C55.6055 42.416 56.8855 41.328 58.8055 41.328C60.9815 41.328 62.1655 42.64 62.1655 44.784V48.288C62.1655 48.672 62.2935 48.816 62.6135 48.816H62.9495V50C62.8535 50.016 62.6455 50.032 62.4375 50.032C61.4135 50.032 60.9495 49.632 60.8375 48.688C60.4215 49.568 59.2535 50.192 58.0055 50.192ZM58.1335 49.008C59.8295 49.008 60.8215 47.92 60.8215 46.512V45.904L58.0695 46.416C56.9175 46.624 56.5495 47.056 56.5495 47.76C56.5495 48.56 57.1415 49.008 58.1335 49.008ZM66.0378 50C65.0458 50 64.3738 49.52 64.3738 48.4V38.64H65.7178V48.288C65.7178 48.64 65.8938 48.816 66.2458 48.816H66.9818V50H66.0378ZM71.8576 50.192C69.5056 50.192 67.9696 48.464 67.9696 45.76C67.9696 43.056 69.5056 41.328 71.8576 41.328C74.1936 41.328 75.7296 43.056 75.7296 45.76C75.7296 48.464 74.1936 50.192 71.8576 50.192ZM71.8576 48.912C73.4096 48.912 74.3216 47.728 74.3216 45.76C74.3216 43.792 73.4096 42.608 71.8576 42.608C70.2896 42.608 69.3776 43.792 69.3776 45.76C69.3776 47.728 70.2896 48.912 71.8576 48.912ZM77.5613 50V41.52H78.7933L78.8253 43.04C79.2733 41.872 80.2653 41.328 81.4333 41.328C83.3693 41.328 84.2973 42.752 84.2973 44.544V50H82.9533V44.928C82.9533 43.36 82.4253 42.512 81.1453 42.512C79.8333 42.512 78.9053 43.36 78.9053 44.928V50H77.5613ZM89.8866 52.592C88.0626 52.592 86.6866 51.616 86.3346 50.128L87.7426 50.032C87.9986 50.832 88.5746 51.312 89.8866 51.312C91.4226 51.312 92.2706 50.704 92.2706 49.456V48.08C91.8546 48.976 90.8946 49.552 89.7906 49.552C87.6306 49.552 86.0946 47.856 86.0946 45.44C86.0946 43.024 87.5986 41.328 89.7266 41.328C90.9106 41.328 91.9506 41.92 92.3346 42.864V41.52H93.6146V49.424C93.6146 51.408 92.2226 52.592 89.8866 52.592ZM89.8546 48.272C91.3106 48.272 92.2546 47.184 92.2706 45.44C92.3026 43.696 91.3266 42.608 89.8546 42.608C88.3666 42.608 87.5026 43.696 87.5026 45.44C87.5026 47.184 88.3986 48.272 89.8546 48.272ZM99.1024 50.192C96.7664 50.192 95.5664 48.992 95.4384 47.328L96.8464 47.232C97.0064 48.256 97.5984 48.912 99.1024 48.912C100.254 48.912 100.91 48.56 100.91 47.728C100.91 47.056 100.574 46.768 98.8464 46.448C96.4784 46 95.7744 45.264 95.7744 43.92C95.7744 42.416 96.9424 41.328 98.9904 41.328C101.23 41.328 102.174 42.672 102.35 44.048L100.942 44.144C100.862 43.344 100.35 42.608 98.9584 42.608C97.7424 42.608 97.1824 43.136 97.1824 43.856C97.1824 44.688 97.6144 45.008 99.1024 45.264C101.598 45.696 102.318 46.384 102.318 47.728C102.318 49.296 100.974 50.192 99.1024 50.192ZM104.139 40.192V38.624H105.547V40.192H104.139ZM104.171 50V41.52H105.515V50H104.171ZM110.929 50.192C108.721 50.192 107.345 48.48 107.345 45.76C107.345 43.04 108.721 41.328 110.929 41.328C112.065 41.328 113.073 41.84 113.537 42.704V38.64H114.881V50H113.665L113.617 48.72C113.137 49.648 112.113 50.192 110.929 50.192ZM111.201 48.912C112.705 48.912 113.537 47.696 113.537 45.76C113.537 43.792 112.705 42.608 111.201 42.608C109.713 42.608 108.753 43.792 108.753 45.76C108.753 47.696 109.713 48.912 111.201 48.912ZM120.592 50.192C118.192 50.192 116.704 48.448 116.704 45.76C116.704 43.072 118.192 41.328 120.528 41.328C122.736 41.328 124.272 42.928 124.272 45.776V46.176H118.112C118.208 48 119.12 48.912 120.592 48.912C121.696 48.912 122.416 48.352 122.704 47.488L124.144 47.6C123.696 49.12 122.384 50.192 120.592 50.192ZM118.112 44.992H122.8C122.672 43.36 121.776 42.608 120.528 42.608C119.216 42.608 118.336 43.424 118.112 44.992ZM130.441 50V38.64H137.577V39.984H131.817V43.792H137.289V45.104H131.817V50H130.441ZM139.202 50V41.52H140.386L140.434 43.088C140.738 42.016 141.41 41.52 142.45 41.52H143.282V42.8H142.466C141.186 42.8 140.546 43.488 140.546 44.88V50H139.202ZM144.748 40.192V38.624H146.156V40.192H144.748ZM144.78 50V41.52H146.124V50H144.78ZM151.538 50.192C149.33 50.192 147.954 48.48 147.954 45.76C147.954 43.04 149.33 41.328 151.538 41.328C152.674 41.328 153.682 41.84 154.146 42.704V38.64H155.49V50H154.274L154.226 48.72C153.746 49.648 152.722 50.192 151.538 50.192ZM151.81 48.912C153.314 48.912 154.146 47.696 154.146 45.76C154.146 43.792 153.314 42.608 151.81 42.608C150.322 42.608 149.362 43.792 149.362 45.76C149.362 47.696 150.322 48.912 151.81 48.912ZM160.177 50.192C158.417 50.192 157.313 49.344 157.313 47.888C157.313 46.448 158.129 45.648 159.985 45.296L162.993 44.736C162.993 43.312 162.321 42.608 160.977 42.608C159.793 42.608 159.137 43.152 158.881 44.128L157.457 44.016C157.777 42.416 159.057 41.328 160.977 41.328C163.153 41.328 164.337 42.64 164.337 44.784V48.288C164.337 48.672 164.465 48.816 164.785 48.816H165.121V50C165.025 50.016 164.817 50.032 164.609 50.032C163.585 50.032 163.121 49.632 163.009 48.688C162.593 49.568 161.425 50.192 160.177 50.192ZM160.305 49.008C162.001 49.008 162.993 47.92 162.993 46.512V45.904L160.241 46.416C159.089 46.624 158.721 47.056 158.721 47.76C158.721 48.56 159.313 49.008 160.305 49.008ZM166.679 52.4V51.216H167.655C168.247 51.216 168.487 51.04 168.647 50.64L168.951 49.84H168.487L165.383 41.52H166.855L169.383 48.592L171.799 41.52H173.271L169.831 51.072C169.511 51.984 168.919 52.4 167.783 52.4H166.679ZM181.193 50.192C179.433 50.192 178.329 49.344 178.329 47.888C178.329 46.448 179.145 45.648 181.001 45.296L184.009 44.736C184.009 43.312 183.337 42.608 181.993 42.608C180.809 42.608 180.153 43.152 179.897 44.128L178.473 44.016C178.793 42.416 180.073 41.328 181.993 41.328C184.169 41.328 185.353 42.64 185.353 44.784V48.288C185.353 48.672 185.481 48.816 185.801 48.816H186.137V50C186.041 50.016 185.833 50.032 185.625 50.032C184.601 50.032 184.137 49.632 184.025 48.688C183.609 49.568 182.441 50.192 181.193 50.192ZM181.321 49.008C183.017 49.008 184.009 47.92 184.009 46.512V45.904L181.257 46.416C180.105 46.624 179.737 47.056 179.737 47.76C179.737 48.56 180.329 49.008 181.321 49.008ZM187.655 50V41.52H188.887L188.919 43.04C189.367 41.872 190.359 41.328 191.527 41.328C193.463 41.328 194.391 42.752 194.391 44.544V50H193.047V44.928C193.047 43.36 192.519 42.512 191.239 42.512C189.927 42.512 188.999 43.36 188.999 44.928V50H187.655ZM199.772 50.192C197.564 50.192 196.188 48.48 196.188 45.76C196.188 43.04 197.564 41.328 199.772 41.328C200.908 41.328 201.916 41.84 202.38 42.704V38.64H203.724V50H202.508L202.46 48.72C201.98 49.648 200.956 50.192 199.772 50.192ZM200.044 48.912C201.548 48.912 202.38 47.696 202.38 45.76C202.38 43.792 201.548 42.608 200.044 42.608C198.556 42.608 197.596 43.792 197.596 45.76C197.596 47.696 198.556 48.912 200.044 48.912ZM212.6 50L209.608 38.64H211.112L213.448 48.112L215.768 38.64H217.336L219.672 48.112L221.992 38.64H223.512L220.52 50H218.792L216.552 41.2L214.312 50H212.6ZM228.076 50.192C225.676 50.192 224.188 48.448 224.188 45.76C224.188 43.072 225.676 41.328 228.012 41.328C230.22 41.328 231.756 42.928 231.756 45.776V46.176H225.596C225.692 48 226.604 48.912 228.076 48.912C229.18 48.912 229.9 48.352 230.188 47.488L231.628 47.6C231.18 49.12 229.868 50.192 228.076 50.192ZM225.596 44.992H230.284C230.156 43.36 229.26 42.608 228.012 42.608C226.7 42.608 225.82 43.424 225.596 44.992ZM236.585 50.192C234.377 50.192 233.001 48.48 233.001 45.76C233.001 43.04 234.377 41.328 236.585 41.328C237.721 41.328 238.729 41.84 239.193 42.704V38.64H240.537V50H239.321L239.273 48.72C238.793 49.648 237.769 50.192 236.585 50.192ZM236.857 48.912C238.361 48.912 239.193 47.696 239.193 45.76C239.193 43.792 238.361 42.608 236.857 42.608C235.369 42.608 234.409 43.792 234.409 45.76C234.409 47.696 235.369 48.912 236.857 48.912ZM243.186 50V41.52H244.418L244.45 43.04C244.898 41.872 245.89 41.328 247.058 41.328C248.994 41.328 249.922 42.752 249.922 44.544V50H248.578V44.928C248.578 43.36 248.05 42.512 246.77 42.512C245.458 42.512 244.53 43.36 244.53 44.928V50H243.186ZM255.608 50.192C253.208 50.192 251.72 48.448 251.72 45.76C251.72 43.072 253.208 41.328 255.544 41.328C257.752 41.328 259.288 42.928 259.288 45.776V46.176H253.128C253.224 48 254.136 48.912 255.608 48.912C256.712 48.912 257.432 48.352 257.72 47.488L259.16 47.6C258.712 49.12 257.4 50.192 255.608 50.192ZM253.128 44.992H257.816C257.688 43.36 256.792 42.608 255.544 42.608C254.232 42.608 253.352 43.424 253.128 44.992ZM264.196 50.192C261.86 50.192 260.66 48.992 260.532 47.328L261.94 47.232C262.1 48.256 262.692 48.912 264.196 48.912C265.348 48.912 266.004 48.56 266.004 47.728C266.004 47.056 265.668 46.768 263.94 46.448C261.572 46 260.868 45.264 260.868 43.92C260.868 42.416 262.036 41.328 264.084 41.328C266.324 41.328 267.268 42.672 267.444 44.048L266.036 44.144C265.956 43.344 265.444 42.608 264.052 42.608C262.836 42.608 262.276 43.136 262.276 43.856C262.276 44.688 262.708 45.008 264.196 45.264C266.692 45.696 267.412 46.384 267.412 47.728C267.412 49.296 266.068 50.192 264.196 50.192ZM272.272 50.192C270.064 50.192 268.688 48.48 268.688 45.76C268.688 43.04 270.064 41.328 272.272 41.328C273.408 41.328 274.416 41.84 274.88 42.704V38.64H276.224V50H275.008L274.96 48.72C274.48 49.648 273.456 50.192 272.272 50.192ZM272.544 48.912C274.048 48.912 274.88 47.696 274.88 45.76C274.88 43.792 274.048 42.608 272.544 42.608C271.056 42.608 270.096 43.792 270.096 45.76C270.096 47.696 271.056 48.912 272.544 48.912ZM280.912 50.192C279.152 50.192 278.048 49.344 278.048 47.888C278.048 46.448 278.864 45.648 280.72 45.296L283.728 44.736C283.728 43.312 283.056 42.608 281.712 42.608C280.528 42.608 279.872 43.152 279.616 44.128L278.192 44.016C278.512 42.416 279.792 41.328 281.712 41.328C283.888 41.328 285.072 42.64 285.072 44.784V48.288C285.072 48.672 285.2 48.816 285.52 48.816H285.856V50C285.76 50.016 285.552 50.032 285.344 50.032C284.32 50.032 283.856 49.632 283.744 48.688C283.328 49.568 282.16 50.192 280.912 50.192ZM281.04 49.008C282.736 49.008 283.728 47.92 283.728 46.512V45.904L280.976 46.416C279.824 46.624 279.456 47.056 279.456 47.76C279.456 48.56 280.048 49.008 281.04 49.008ZM287.414 52.4V51.216H288.39C288.982 51.216 289.222 51.04 289.382 50.64L289.686 49.84H289.222L286.118 41.52H287.59L290.118 48.592L292.534 41.52H294.006L290.566 51.072C290.246 51.984 289.654 52.4 288.518 52.4H287.414ZM302.951 50.192C300.599 50.192 299.063 48.464 299.063 45.76C299.063 43.056 300.599 41.328 302.951 41.328C305.287 41.328 306.823 43.056 306.823 45.76C306.823 48.464 305.287 50.192 302.951 50.192ZM302.951 48.912C304.503 48.912 305.415 47.728 305.415 45.76C305.415 43.792 304.503 42.608 302.951 42.608C301.383 42.608 300.471 43.792 300.471 45.76C300.471 47.728 301.383 48.912 302.951 48.912ZM308.655 52.4V41.52H309.903L309.919 42.816C310.431 41.84 311.375 41.328 312.527 41.328C315.055 41.328 316.191 43.424 316.191 45.76C316.191 48.096 315.055 50.192 312.527 50.192C311.423 50.192 310.447 49.696 309.999 48.88V52.4H308.655ZM312.399 48.912C313.871 48.912 314.783 47.744 314.783 45.76C314.783 43.776 313.871 42.608 312.399 42.608C310.927 42.608 309.999 43.68 309.999 45.76C309.999 47.84 310.911 48.912 312.399 48.912ZM320.79 50C319.254 50 318.534 49.328 318.534 47.824V42.704H317.286V41.52H318.534V39.536H319.878V41.52H322.134V42.704H319.878V47.792C319.878 48.56 320.214 48.816 320.918 48.816H322.134V50H320.79ZM323.67 40.192V38.624H325.078V40.192H323.67ZM323.702 50V41.52H325.046V50H323.702ZM330.764 50.192C328.412 50.192 326.876 48.464 326.876 45.76C326.876 43.056 328.412 41.328 330.764 41.328C333.1 41.328 334.636 43.056 334.636 45.76C334.636 48.464 333.1 50.192 330.764 50.192ZM330.764 48.912C332.316 48.912 333.228 47.728 333.228 45.76C333.228 43.792 332.316 42.608 330.764 42.608C329.196 42.608 328.284 43.792 328.284 45.76C328.284 47.728 329.196 48.912 330.764 48.912ZM336.468 50V41.52H337.7L337.732 43.04C338.18 41.872 339.172 41.328 340.34 41.328C342.276 41.328 343.204 42.752 343.204 44.544V50H341.86V44.928C341.86 43.36 341.332 42.512 340.052 42.512C338.74 42.512 337.812 43.36 337.812 44.928V50H336.468ZM348.665 50.192C346.329 50.192 345.129 48.992 345.001 47.328L346.409 47.232C346.569 48.256 347.161 48.912 348.665 48.912C349.817 48.912 350.473 48.56 350.473 47.728C350.473 47.056 350.137 46.768 348.409 46.448C346.041 46 345.337 45.264 345.337 43.92C345.337 42.416 346.505 41.328 348.553 41.328C350.793 41.328 351.737 42.672 351.913 44.048L350.505 44.144C350.425 43.344 349.913 42.608 348.521 42.608C347.305 42.608 346.745 43.136 346.745 43.856C346.745 44.688 347.177 45.008 348.665 45.264C351.161 45.696 351.881 46.384 351.881 47.728C351.881 49.296 350.537 50.192 348.665 50.192ZM357.313 45.968V44.704H362.609V45.968H357.313ZM368.785 50V38.64H375.921V39.984H370.161V43.792H375.633V45.104H370.161V50H368.785ZM377.546 50V41.52H378.73L378.778 43.088C379.082 42.016 379.754 41.52 380.794 41.52H381.626V42.8H380.81C379.53 42.8 378.89 43.488 378.89 44.88V50H377.546ZM386.28 50.192C383.88 50.192 382.392 48.448 382.392 45.76C382.392 43.072 383.88 41.328 386.216 41.328C388.424 41.328 389.96 42.928 389.96 45.776V46.176H383.799C383.896 48 384.808 48.912 386.28 48.912C387.384 48.912 388.104 48.352 388.392 47.488L389.832 47.6C389.384 49.12 388.072 50.192 386.28 50.192ZM383.799 44.992H388.488C388.36 43.36 387.464 42.608 386.216 42.608C384.904 42.608 384.024 43.424 383.799 44.992ZM391.78 50V41.52H393.012L393.044 43.04C393.492 41.872 394.484 41.328 395.652 41.328C397.588 41.328 398.516 42.752 398.516 44.544V50H397.172V44.928C397.172 43.36 396.644 42.512 395.364 42.512C394.052 42.512 393.124 43.36 393.124 44.928V50H391.78ZM404.201 50.192C401.833 50.192 400.313 48.448 400.313 45.76C400.313 43.072 401.833 41.328 404.201 41.328C406.153 41.328 407.513 42.384 407.801 44.272L406.393 44.368C406.201 43.248 405.353 42.608 404.201 42.608C402.633 42.608 401.721 43.792 401.721 45.76C401.721 47.728 402.633 48.912 404.201 48.912C405.353 48.912 406.201 48.272 406.393 46.992L407.801 47.088C407.513 48.976 406.153 50.192 404.201 50.192ZM409.468 50V38.64H410.812V42.848C411.244 41.808 412.204 41.328 413.372 41.328C415.196 41.328 416.204 42.656 416.204 44.544V50H414.86V44.928C414.86 43.296 414.268 42.512 413.084 42.512C411.708 42.512 410.812 43.376 410.812 44.944V50H409.468ZM425.868 50C424.332 50 423.612 49.328 423.612 47.824V42.704H422.364V41.52H423.612V39.536H424.956V41.52H427.212V42.704H424.956V47.792C424.956 48.56 425.292 48.816 425.996 48.816H427.212V50H425.868ZM428.748 40.192V38.624H430.156V40.192H428.748ZM428.78 50V41.52H430.124V50H428.78ZM432.78 50V41.52H434.012L434.044 43.008C434.46 41.968 435.34 41.328 436.428 41.328C437.708 41.328 438.604 41.968 438.972 43.104C439.34 41.968 440.204 41.328 441.452 41.328C443.26 41.328 444.252 42.496 444.252 44.544V50H442.908V44.832C442.908 43.296 442.3 42.512 441.132 42.512C439.948 42.512 439.18 43.408 439.18 44.928V50H437.836V44.928C437.836 43.424 437.34 42.512 436.092 42.512C434.908 42.512 434.124 43.424 434.124 44.928V50H432.78ZM449.936 50.192C447.536 50.192 446.048 48.448 446.048 45.76C446.048 43.072 447.536 41.328 449.872 41.328C452.08 41.328 453.616 42.928 453.616 45.776V46.176H447.456C447.552 48 448.464 48.912 449.936 48.912C451.04 48.912 451.76 48.352 452.048 47.488L453.488 47.6C453.04 49.12 451.728 50.192 449.936 50.192ZM447.456 44.992H452.144C452.016 43.36 451.12 42.608 449.872 42.608C448.56 42.608 447.68 43.424 447.456 44.992ZM455.017 50V48.192H456.825V50H455.017Z" fill="#1E2939"/>
<defs>
<linearGradient id="paint0_linear_6889_39307" x1="0" y1="32" x2="480" y2="32" gradientUnits="userSpaceOnUse">
<stop stop-color="#EFF3F6"/>
<stop offset="1" stop-color="#CEDBE3"/>
</linearGradient>
</defs>
</svg>
