<svg width="356" height="40" viewBox="0 0 356 40" fill="none" xmlns="http://www.w3.org/2000/svg">
<rect x="0.5" y="0.5" width="355" height="39" rx="7.5" fill="#FFFEFC"/>
<rect x="0.5" y="0.5" width="355" height="39" rx="7.5" stroke="#C1C5CD"/>
<path d="M17.824 26.256C14.784 26.256 12.72 24.016 12.72 20.336C12.72 16.656 14.784 14.384 17.824 14.384C20.576 14.384 22.032 15.872 22.512 18.256L21.056 18.352C20.736 16.736 19.712 15.728 17.824 15.728C15.648 15.728 14.16 17.456 14.16 20.336C14.16 23.216 15.648 24.912 17.824 24.912C19.808 24.912 20.864 23.808 21.152 22.032L22.608 22.128C22.192 24.592 20.544 26.256 17.824 26.256ZM26.7555 26.192C24.9955 26.192 23.8915 25.344 23.8915 23.888C23.8915 22.448 24.7075 21.648 26.5635 21.296L29.5715 20.736C29.5715 19.312 28.8995 18.608 27.5555 18.608C26.3715 18.608 25.7155 19.152 25.4595 20.128L24.0355 20.016C24.3555 18.416 25.6355 17.328 27.5555 17.328C29.7315 17.328 30.9155 18.64 30.9155 20.784V24.288C30.9155 24.672 31.0435 24.816 31.3635 24.816H31.6995V26C31.6035 26.016 31.3955 26.032 31.1875 26.032C30.1635 26.032 29.6995 25.632 29.5875 24.688C29.1715 25.568 28.0035 26.192 26.7555 26.192ZM26.8835 25.008C28.5795 25.008 29.5715 23.92 29.5715 22.512V21.904L26.8195 22.416C25.6675 22.624 25.2995 23.056 25.2995 23.76C25.2995 24.56 25.8915 25.008 26.8835 25.008ZM33.2175 26V17.52H34.4495L34.4815 19.04C34.9295 17.872 35.9215 17.328 37.0895 17.328C39.0255 17.328 39.9535 18.752 39.9535 20.544V26H38.6095V20.928C38.6095 19.36 38.0815 18.512 36.8015 18.512C35.4895 18.512 34.5615 19.36 34.5615 20.928V26H33.2175ZM46.8824 28.4V27.216H47.8584C48.4504 27.216 48.6904 27.04 48.8504 26.64L49.1544 25.84H48.6904L45.5864 17.52H47.0584L49.5864 24.592L52.0024 17.52H53.4744L50.0344 27.072C49.7144 27.984 49.1224 28.4 47.9864 28.4H46.8824ZM57.9983 26.192C55.6463 26.192 54.1103 24.464 54.1103 21.76C54.1103 19.056 55.6463 17.328 57.9983 17.328C60.3343 17.328 61.8703 19.056 61.8703 21.76C61.8703 24.464 60.3343 26.192 57.9983 26.192ZM57.9983 24.912C59.5503 24.912 60.4623 23.728 60.4623 21.76C60.4623 19.792 59.5503 18.608 57.9983 18.608C56.4303 18.608 55.5182 19.792 55.5182 21.76C55.5182 23.728 56.4303 24.912 57.9983 24.912ZM66.4859 26.192C64.7899 26.192 63.7019 24.992 63.7019 22.976V17.52H65.0459V22.608C65.0459 24.256 65.6219 25.008 66.8379 25.008C68.1819 25.008 68.9979 24.096 68.9979 22.576V17.52H70.3419V26H69.0619V24.624C68.5979 25.632 67.7019 26.192 66.4859 26.192ZM79.993 26.192C77.657 26.192 76.457 24.992 76.329 23.328L77.737 23.232C77.897 24.256 78.489 24.912 79.993 24.912C81.145 24.912 81.801 24.56 81.801 23.728C81.801 23.056 81.465 22.768 79.737 22.448C77.369 22 76.665 21.264 76.665 19.92C76.665 18.416 77.833 17.328 79.881 17.328C82.121 17.328 83.065 18.672 83.241 20.048L81.833 20.144C81.753 19.344 81.241 18.608 79.849 18.608C78.633 18.608 78.073 19.136 78.073 19.856C78.073 20.688 78.505 21.008 79.993 21.264C82.489 21.696 83.209 22.384 83.209 23.728C83.209 25.296 81.865 26.192 79.993 26.192ZM88.3733 26.192C85.9733 26.192 84.4853 24.448 84.4853 21.76C84.4853 19.072 85.9733 17.328 88.3093 17.328C90.5173 17.328 92.0533 18.928 92.0533 21.776V22.176H85.8932C85.9893 24 86.9013 24.912 88.3733 24.912C89.4773 24.912 90.1973 24.352 90.4853 23.488L91.9253 23.6C91.4773 25.12 90.1653 26.192 88.3733 26.192ZM85.8932 20.992H90.5813C90.4533 19.36 89.5573 18.608 88.3093 18.608C86.9973 18.608 86.1173 19.424 85.8932 20.992ZM96.3805 26.192C94.6205 26.192 93.5165 25.344 93.5165 23.888C93.5165 22.448 94.3325 21.648 96.1885 21.296L99.1965 20.736C99.1965 19.312 98.5245 18.608 97.1805 18.608C95.9965 18.608 95.3405 19.152 95.0845 20.128L93.6605 20.016C93.9805 18.416 95.2605 17.328 97.1805 17.328C99.3565 17.328 100.541 18.64 100.541 20.784V24.288C100.541 24.672 100.669 24.816 100.989 24.816H101.325V26C101.229 26.016 101.021 26.032 100.812 26.032C99.7885 26.032 99.3245 25.632 99.2125 24.688C98.7965 25.568 97.6285 26.192 96.3805 26.192ZM96.5085 25.008C98.2045 25.008 99.1965 23.92 99.1965 22.512V21.904L96.4445 22.416C95.2925 22.624 94.9245 23.056 94.9245 23.76C94.9245 24.56 95.5165 25.008 96.5085 25.008ZM102.843 26V17.52H104.027L104.075 19.088C104.379 18.016 105.051 17.52 106.091 17.52H106.923V18.8H106.107C104.827 18.8 104.187 19.488 104.187 20.88V26H102.843ZM111.576 26.192C109.208 26.192 107.688 24.448 107.688 21.76C107.688 19.072 109.208 17.328 111.576 17.328C113.528 17.328 114.888 18.384 115.176 20.272L113.768 20.368C113.576 19.248 112.728 18.608 111.576 18.608C110.008 18.608 109.096 19.792 109.096 21.76C109.096 23.728 110.008 24.912 111.576 24.912C112.728 24.912 113.576 24.272 113.768 22.992L115.176 23.088C114.888 24.976 113.528 26.192 111.576 26.192ZM116.843 26V14.64H118.187V18.848C118.619 17.808 119.579 17.328 120.747 17.328C122.571 17.328 123.579 18.656 123.579 20.544V26H122.235V20.928C122.235 19.296 121.643 18.512 120.459 18.512C119.083 18.512 118.187 19.376 118.187 20.944V26H116.843ZM133.243 26C131.707 26 130.987 25.328 130.987 23.824V18.704H129.739V17.52H130.987V15.536H132.331V17.52H134.587V18.704H132.331V23.792C132.331 24.56 132.667 24.816 133.371 24.816H134.587V26H133.243ZM136.155 26V14.64H137.499V18.848C137.931 17.808 138.891 17.328 140.059 17.328C141.883 17.328 142.891 18.656 142.891 20.544V26H141.547V20.928C141.547 19.296 140.955 18.512 139.771 18.512C138.395 18.512 137.499 19.376 137.499 20.944V26L136.155 26ZM148.576 26.192C146.224 26.192 144.688 24.464 144.688 21.76C144.688 19.056 146.224 17.328 148.576 17.328C150.912 17.328 152.448 19.056 152.448 21.76C152.448 24.464 150.912 26.192 148.576 26.192ZM148.576 24.912C150.128 24.912 151.04 23.728 151.04 21.76C151.04 19.792 150.128 18.608 148.576 18.608C147.008 18.608 146.096 19.792 146.096 21.76C146.096 23.728 147.008 24.912 148.576 24.912ZM157.368 26.192C155.032 26.192 153.832 24.992 153.704 23.328L155.112 23.232C155.272 24.256 155.864 24.912 157.368 24.912C158.52 24.912 159.176 24.56 159.176 23.728C159.176 23.056 158.84 22.768 157.112 22.448C154.744 22 154.04 21.264 154.04 19.92C154.04 18.416 155.208 17.328 157.256 17.328C159.496 17.328 160.44 18.672 160.616 20.048L159.208 20.144C159.128 19.344 158.616 18.608 157.224 18.608C156.008 18.608 155.448 19.136 155.448 19.856C155.448 20.688 155.88 21.008 157.368 21.264C159.864 21.696 160.584 22.384 160.584 23.728C160.584 25.296 159.24 26.192 157.368 26.192ZM165.748 26.192C163.348 26.192 161.86 24.448 161.86 21.76C161.86 19.072 163.348 17.328 165.684 17.328C167.892 17.328 169.428 18.928 169.428 21.776V22.176H163.268C163.364 24 164.276 24.912 165.748 24.912C166.852 24.912 167.572 24.352 167.86 23.488L169.3 23.6C168.852 25.12 167.54 26.192 165.748 26.192ZM163.268 20.992H167.956C167.828 19.36 166.932 18.608 165.684 18.608C164.372 18.608 163.492 19.424 163.268 20.992ZM175.405 28.4V17.52H176.653L176.669 18.816C177.181 17.84 178.125 17.328 179.277 17.328C181.805 17.328 182.941 19.424 182.941 21.76C182.941 24.096 181.805 26.192 179.277 26.192C178.173 26.192 177.197 25.696 176.749 24.88V28.4H175.405ZM179.149 24.912C180.621 24.912 181.533 23.744 181.533 21.76C181.533 19.776 180.621 18.608 179.149 18.608C177.677 18.608 176.749 19.68 176.749 21.76C176.749 23.84 177.661 24.912 179.149 24.912ZM184.764 26V17.52H185.948L185.996 19.088C186.3 18.016 186.972 17.52 188.012 17.52H188.844V18.8H188.028C186.748 18.8 186.108 19.488 186.108 20.88V26H184.764ZM193.498 26.192C191.146 26.192 189.61 24.464 189.61 21.76C189.61 19.056 191.146 17.328 193.498 17.328C195.834 17.328 197.37 19.056 197.37 21.76C197.37 24.464 195.834 26.192 193.498 26.192ZM193.498 24.912C195.05 24.912 195.962 23.728 195.962 21.76C195.962 19.792 195.05 18.608 193.498 18.608C191.93 18.608 191.018 19.792 191.018 21.76C191.018 23.728 191.93 24.912 193.498 24.912ZM202.21 26.192C200.002 26.192 198.626 24.48 198.626 21.76C198.626 19.04 200.002 17.328 202.21 17.328C203.346 17.328 204.354 17.84 204.818 18.704V14.64H206.162V26H204.946L204.898 24.72C204.418 25.648 203.394 26.192 202.21 26.192ZM202.482 24.912C203.986 24.912 204.818 23.696 204.818 21.76C204.818 19.792 203.986 18.608 202.482 18.608C200.994 18.608 200.034 19.792 200.034 21.76C200.034 23.696 200.994 24.912 202.482 24.912ZM211.189 26.192C209.493 26.192 208.405 24.992 208.405 22.976V17.52H209.749V22.608C209.749 24.256 210.325 25.008 211.541 25.008C212.885 25.008 213.701 24.096 213.701 22.576V17.52H215.045V26H213.765V24.624C213.301 25.632 212.405 26.192 211.189 26.192ZM220.764 26.192C218.396 26.192 216.876 24.448 216.876 21.76C216.876 19.072 218.396 17.328 220.764 17.328C222.716 17.328 224.076 18.384 224.364 20.272L222.956 20.368C222.764 19.248 221.916 18.608 220.764 18.608C219.196 18.608 218.284 19.792 218.284 21.76C218.284 23.728 219.196 24.912 220.764 24.912C221.916 24.912 222.764 24.272 222.956 22.992L224.364 23.088C224.076 24.976 222.716 26.192 220.764 26.192ZM228.806 26C227.27 26 226.55 25.328 226.55 23.824V18.704H225.302V17.52H226.55V15.536H227.894V17.52H230.15V18.704H227.894V23.792C227.894 24.56 228.23 24.816 228.934 24.816H230.15V26H228.806ZM238.976 26.192C236.768 26.192 235.392 24.48 235.392 21.76C235.392 19.04 236.768 17.328 238.976 17.328C240.112 17.328 241.12 17.84 241.584 18.704V14.64H242.928V26H241.712L241.664 24.72C241.184 25.648 240.16 26.192 238.976 26.192ZM239.248 24.912C240.752 24.912 241.584 23.696 241.584 21.76C241.584 19.792 240.752 18.608 239.248 18.608C237.76 18.608 236.799 19.792 236.799 21.76C236.799 23.696 237.76 24.912 239.248 24.912ZM248.639 26.192C246.239 26.192 244.751 24.448 244.751 21.76C244.751 19.072 246.239 17.328 248.575 17.328C250.783 17.328 252.319 18.928 252.319 21.776V22.176H246.159C246.255 24 247.167 24.912 248.639 24.912C249.743 24.912 250.463 24.352 250.751 23.488L252.191 23.6C251.743 25.12 250.431 26.192 248.639 26.192ZM246.159 20.992H250.847C250.719 19.36 249.823 18.608 248.575 18.608C247.263 18.608 246.383 19.424 246.159 20.992ZM256.915 26C255.379 26 254.659 25.328 254.659 23.824V18.704H253.411V17.52H254.659V15.536H256.003V17.52H258.259V18.704H256.003V23.792C256.003 24.56 256.339 24.816 257.043 24.816H258.259V26H256.915ZM262.209 26.192C260.449 26.192 259.345 25.344 259.345 23.888C259.345 22.448 260.161 21.648 262.017 21.296L265.025 20.736C265.025 19.312 264.353 18.608 263.009 18.608C261.825 18.608 261.169 19.152 260.913 20.128L259.489 20.016C259.809 18.416 261.089 17.328 263.009 17.328C265.185 17.328 266.369 18.64 266.369 20.784V24.288C266.369 24.672 266.497 24.816 266.817 24.816H267.153V26C267.057 26.016 266.849 26.032 266.641 26.032C265.617 26.032 265.153 25.632 265.041 24.688C264.625 25.568 263.457 26.192 262.209 26.192ZM262.337 25.008C264.033 25.008 265.025 23.92 265.025 22.512V21.904L262.273 22.416C261.121 22.624 260.753 23.056 260.753 23.76C260.753 24.56 261.345 25.008 262.337 25.008ZM268.576 16.192V14.624H269.984V16.192H268.576ZM268.608 26V17.52H269.952V26H268.608ZM274.022 26C273.03 26 272.358 25.52 272.358 24.4V14.64H273.702V24.288C273.702 24.64 273.878 24.816 274.23 24.816H274.966V26H274.022ZM279.618 26.192C277.282 26.192 276.082 24.992 275.954 23.328L277.362 23.232C277.522 24.256 278.114 24.912 279.618 24.912C280.77 24.912 281.426 24.56 281.426 23.728C281.426 23.056 281.09 22.768 279.362 22.448C276.994 22 276.29 21.264 276.29 19.92C276.29 18.416 277.458 17.328 279.506 17.328C281.746 17.328 282.69 18.672 282.866 20.048L281.458 20.144C281.378 19.344 280.866 18.608 279.474 18.608C278.258 18.608 277.698 19.136 277.698 19.856C277.698 20.688 278.13 21.008 279.618 21.264C282.114 21.696 282.834 22.384 282.834 23.728C282.834 25.296 281.49 26.192 279.618 26.192ZM289.674 26V18.704H288.523V17.52H289.674V16.752C289.674 15.504 290.379 14.64 291.915 14.64H293.259V15.824H292.011C291.339 15.824 291.019 16.208 291.019 16.848V17.52H293.147V18.704H291.019V26H289.674ZM297.764 26.192C295.412 26.192 293.876 24.464 293.876 21.76C293.876 19.056 295.412 17.328 297.764 17.328C300.1 17.328 301.636 19.056 301.636 21.76C301.636 24.464 300.1 26.192 297.764 26.192ZM297.764 24.912C299.316 24.912 300.228 23.728 300.228 21.76C300.228 19.792 299.316 18.608 297.764 18.608C296.196 18.608 295.284 19.792 295.284 21.76C295.284 23.728 296.196 24.912 297.764 24.912ZM303.468 26V17.52H304.652L304.7 19.088C305.004 18.016 305.676 17.52 306.716 17.52H307.548V18.8H306.732C305.452 18.8 304.812 19.488 304.812 20.88V26H303.468ZM313.53 26V17.52H314.762L314.794 19.008C315.21 17.968 316.09 17.328 317.178 17.328C318.458 17.328 319.354 17.968 319.722 19.104C320.09 17.968 320.954 17.328 322.202 17.328C324.01 17.328 325.002 18.496 325.002 20.544V26H323.658V20.832C323.658 19.296 323.05 18.512 321.882 18.512C320.698 18.512 319.93 19.408 319.93 20.928V26H318.586V20.928C318.586 19.424 318.09 18.512 316.842 18.512C315.658 18.512 314.874 19.424 314.874 20.928V26H313.53ZM330.686 26.192C328.286 26.192 326.798 24.448 326.798 21.76C326.798 19.072 328.286 17.328 330.622 17.328C332.83 17.328 334.366 18.928 334.366 21.776V22.176H328.206C328.302 24 329.214 24.912 330.686 24.912C331.79 24.912 332.51 24.352 332.798 23.488L334.238 23.6C333.79 25.12 332.478 26.192 330.686 26.192ZM328.206 20.992H332.894C332.766 19.36 331.87 18.608 330.622 18.608C329.31 18.608 328.43 19.424 328.206 20.992ZM338.166 22.784C338.166 21.248 338.614 20.448 339.718 19.76C340.966 18.992 341.222 18.608 341.222 17.648C341.222 16.544 340.438 15.728 339.142 15.728C337.558 15.728 336.726 16.56 336.566 18.096L335.126 18C335.318 15.888 336.806 14.384 339.142 14.384C341.222 14.384 342.662 15.744 342.662 17.648C342.662 18.992 342.022 19.696 340.646 20.592C339.782 21.152 339.542 21.664 339.542 22.784H338.166ZM337.91 26V24.192H339.718V26H337.91Z" fill="#1E2939"/>
</svg>
