<svg width="498" height="40" viewBox="0 0 498 40" fill="none" xmlns="http://www.w3.org/2000/svg">
<rect x="0.5" y="0.5" width="497" height="39" rx="7.5" fill="url(#paint0_linear_6893_39469)"/>
<rect x="0.5" y="0.5" width="497" height="39" rx="7.5" stroke="#6F69BF"/>
<path d="M13.472 26V14.64H16.992C20.48 14.64 22.448 16.688 22.448 20.336C22.448 23.968 20.528 26 17.088 26H13.472ZM14.848 24.656H16.992C19.664 24.656 21.008 23.216 21.008 20.336C21.008 17.424 19.664 15.984 16.992 15.984H14.848V24.656ZM27.9826 26.192C25.6306 26.192 24.0946 24.464 24.0946 21.76C24.0946 19.056 25.6306 17.328 27.9826 17.328C30.3186 17.328 31.8546 19.056 31.8546 21.76C31.8546 24.464 30.3186 26.192 27.9826 26.192ZM27.9826 24.912C29.5346 24.912 30.4466 23.728 30.4466 21.76C30.4466 19.792 29.5346 18.608 27.9826 18.608C26.4146 18.608 25.5026 19.792 25.5026 21.76C25.5026 23.728 26.4146 24.912 27.9826 24.912ZM33.6863 26V17.52H34.9183L34.9503 19.04C35.3983 17.872 36.3903 17.328 37.5583 17.328C39.4943 17.328 40.4223 18.752 40.4223 20.544V26H39.0783V20.928C39.0783 19.36 38.5503 18.512 37.2703 18.512C35.9583 18.512 35.0303 19.36 35.0303 20.928V26H33.6863ZM46.1076 26.192C43.7076 26.192 42.2196 24.448 42.2196 21.76C42.2196 19.072 43.7076 17.328 46.0436 17.328C48.2516 17.328 49.7876 18.928 49.7876 21.776V22.176H43.6276C43.7236 24 44.6356 24.912 46.1076 24.912C47.2116 24.912 47.9316 24.352 48.2196 23.488L49.6596 23.6C49.2116 25.12 47.8996 26.192 46.1076 26.192ZM43.6276 20.992H48.3156C48.1876 19.36 47.2916 18.608 46.0436 18.608C44.7316 18.608 43.8516 19.424 43.6276 20.992ZM51.2364 28.496L52.0044 26H51.1884V24.192H52.9964V25.776L52.0364 28.496H51.2364ZM59.1751 26V14.64H60.5511V26H59.1751ZM62.7836 18.944L63.5516 16.448H62.7356V14.64H64.5436V16.224L63.5836 18.944H62.7836ZM68.7056 26L65.6176 17.52H67.0896L69.5536 24.624L72.0176 17.52H73.4896L70.4016 26H68.7056ZM78.0139 26.192C75.6139 26.192 74.1259 24.448 74.1259 21.76C74.1259 19.072 75.6139 17.328 77.9499 17.328C80.1579 17.328 81.6939 18.928 81.6939 21.776V22.176H75.5339C75.6299 24 76.5419 24.912 78.0139 24.912C79.1179 24.912 79.8379 24.352 80.1259 23.488L81.5659 23.6C81.1179 25.12 79.8059 26.192 78.0139 26.192ZM75.5339 20.992H80.2219C80.0939 19.36 79.1979 18.608 77.9499 18.608C76.6379 18.608 75.7579 19.424 75.5339 20.992ZM88.5026 26V18.704H87.3506V17.52H88.5026V16.752C88.5026 15.504 89.2066 14.64 90.7426 14.64H92.0866V15.824H90.8386C90.1666 15.824 89.8466 16.208 89.8466 16.848V17.52H91.9746V18.704H89.8466V26H88.5026ZM96.592 26.192C94.24 26.192 92.704 24.464 92.704 21.76C92.704 19.056 94.24 17.328 96.592 17.328C98.928 17.328 100.464 19.056 100.464 21.76C100.464 24.464 98.928 26.192 96.592 26.192ZM96.592 24.912C98.144 24.912 99.056 23.728 99.056 21.76C99.056 19.792 98.144 18.608 96.592 18.608C95.024 18.608 94.112 19.792 94.112 21.76C94.112 23.728 95.024 24.912 96.592 24.912ZM105.08 26.192C103.384 26.192 102.296 24.992 102.296 22.976V17.52H103.64V22.608C103.64 24.256 104.216 25.008 105.432 25.008C106.776 25.008 107.592 24.096 107.592 22.576V17.52H108.936V26H107.656V24.624C107.192 25.632 106.296 26.192 105.08 26.192ZM111.499 26V17.52H112.731L112.763 19.04C113.211 17.872 114.203 17.328 115.371 17.328C117.307 17.328 118.235 18.752 118.235 20.544V26H116.891V20.928C116.891 19.36 116.363 18.512 115.083 18.512C113.771 18.512 112.843 19.36 112.843 20.928V26H111.499ZM123.616 26.192C121.408 26.192 120.032 24.48 120.032 21.76C120.032 19.04 121.408 17.328 123.616 17.328C124.752 17.328 125.76 17.84 126.224 18.704V14.64H127.568V26H126.352L126.304 24.72C125.824 25.648 124.8 26.192 123.616 26.192ZM123.888 24.912C125.392 24.912 126.224 23.696 126.224 21.76C126.224 19.792 125.392 18.608 123.888 18.608C122.4 18.608 121.44 19.792 121.44 21.76C121.44 23.696 122.4 24.912 123.888 24.912ZM133.804 26C133.804 23.6 134.748 22.016 138.156 20.208C139.724 19.376 140.348 18.864 140.348 17.712C140.348 16.544 139.58 15.728 138.076 15.728C136.476 15.728 135.548 16.592 135.308 18.128L133.868 18.032C134.124 15.808 135.612 14.384 138.076 14.384C140.412 14.384 141.788 15.728 141.788 17.68C141.788 19.408 141.02 20.272 138.668 21.52C136.62 22.608 135.564 23.792 135.5 24.656H141.788V26H133.804ZM147.254 26.256C144.726 26.256 143.334 24.944 143.238 23.072L144.662 22.976C144.789 24.368 145.83 24.912 147.254 24.912C148.726 24.912 150.006 24.368 150.006 22.832C150.006 21.328 148.902 20.64 147.27 20.64H146.374V19.296H147.27C148.614 19.296 149.606 18.816 149.606 17.52C149.606 16.352 148.838 15.728 147.334 15.728C145.83 15.728 145.11 16.336 144.966 17.344L143.526 17.248C143.734 15.552 145.062 14.384 147.334 14.384C149.638 14.384 151.046 15.568 151.046 17.456C151.046 18.672 150.374 19.488 149.078 19.888C150.55 20.288 151.446 21.376 151.446 22.832C151.446 25.008 149.718 26.256 147.254 26.256ZM157.066 26.256C154.538 26.256 153.146 24.944 153.05 23.072L154.474 22.976C154.602 24.368 155.642 24.912 157.066 24.912C158.538 24.912 159.818 24.368 159.818 22.832C159.818 21.328 158.714 20.64 157.082 20.64H156.186V19.296H157.082C158.426 19.296 159.418 18.816 159.418 17.52C159.418 16.352 158.65 15.728 157.146 15.728C155.642 15.728 154.922 16.336 154.778 17.344L153.338 17.248C153.546 15.552 154.874 14.384 157.146 14.384C159.45 14.384 160.858 15.568 160.858 17.456C160.858 18.672 160.186 19.488 158.89 19.888C160.362 20.288 161.258 21.376 161.258 22.832C161.258 25.008 159.53 26.256 157.066 26.256ZM170.655 26.192C168.287 26.192 166.767 24.448 166.767 21.76C166.767 19.072 168.287 17.328 170.655 17.328C172.607 17.328 173.967 18.384 174.255 20.272L172.847 20.368C172.655 19.248 171.807 18.608 170.655 18.608C169.087 18.608 168.174 19.792 168.174 21.76C168.174 23.728 169.087 24.912 170.655 24.912C171.807 24.912 172.655 24.272 172.847 22.992L174.255 23.088C173.967 24.976 172.607 26.192 170.655 26.192ZM179.233 26.192C176.881 26.192 175.345 24.464 175.345 21.76C175.345 19.056 176.881 17.328 179.233 17.328C181.569 17.328 183.105 19.056 183.105 21.76C183.105 24.464 181.569 26.192 179.233 26.192ZM179.233 24.912C180.785 24.912 181.697 23.728 181.697 21.76C181.697 19.792 180.785 18.608 179.233 18.608C177.665 18.608 176.753 19.792 176.753 21.76C176.753 23.728 177.665 24.912 179.233 24.912ZM184.936 26V17.52H186.168L186.2 19.04C186.648 17.872 187.64 17.328 188.808 17.328C190.744 17.328 191.672 18.752 191.672 20.544V26H190.328V20.928C190.328 19.36 189.8 18.512 188.52 18.512C187.208 18.512 186.28 19.36 186.28 20.928V26H184.936ZM196.697 26C195.161 26 194.441 25.328 194.441 23.824V18.704H193.193V17.52H194.441V15.536H195.785V17.52H198.041V18.704H195.785V23.792C195.785 24.56 196.121 24.816 196.825 24.816H198.041V26H196.697ZM201.99 26.192C200.23 26.192 199.126 25.344 199.126 23.888C199.126 22.448 199.942 21.648 201.798 21.296L204.806 20.736C204.806 19.312 204.134 18.608 202.79 18.608C201.606 18.608 200.95 19.152 200.694 20.128L199.27 20.016C199.59 18.416 200.87 17.328 202.79 17.328C204.966 17.328 206.15 18.64 206.15 20.784V24.288C206.15 24.672 206.278 24.816 206.598 24.816H206.934V26C206.838 26.016 206.63 26.032 206.422 26.032C205.398 26.032 204.934 25.632 204.822 24.688C204.406 25.568 203.238 26.192 201.99 26.192ZM202.118 25.008C203.814 25.008 204.806 23.92 204.806 22.512V21.904L202.054 22.416C200.902 22.624 200.534 23.056 200.534 23.76C200.534 24.56 201.126 25.008 202.118 25.008ZM211.733 26.192C209.365 26.192 207.845 24.448 207.845 21.76C207.845 19.072 209.365 17.328 211.733 17.328C213.685 17.328 215.045 18.384 215.333 20.272L213.925 20.368C213.733 19.248 212.885 18.608 211.733 18.608C210.165 18.608 209.253 19.792 209.253 21.76C209.253 23.728 210.165 24.912 211.733 24.912C212.885 24.912 213.733 24.272 213.925 22.992L215.333 23.088C215.045 24.976 213.685 26.192 211.733 26.192ZM219.775 26C218.239 26 217.519 25.328 217.519 23.824V18.704H216.271V17.52H217.519V15.536H218.863V17.52H221.119V18.704H218.863V23.792C218.863 24.56 219.199 24.816 219.903 24.816H221.119V26H219.775ZM225.774 26.192C223.438 26.192 222.238 24.992 222.11 23.328L223.518 23.232C223.678 24.256 224.27 24.912 225.774 24.912C226.926 24.912 227.582 24.56 227.582 23.728C227.582 23.056 227.246 22.768 225.518 22.448C223.15 22 222.446 21.264 222.446 19.92C222.446 18.416 223.614 17.328 225.662 17.328C227.902 17.328 228.846 18.672 229.022 20.048L227.614 20.144C227.534 19.344 227.022 18.608 225.63 18.608C224.414 18.608 223.854 19.136 223.854 19.856C223.854 20.688 224.286 21.008 225.774 21.264C228.27 21.696 228.99 22.384 228.99 23.728C228.99 25.296 227.646 26.192 225.774 26.192ZM237.287 26.192C235.527 26.192 234.423 25.344 234.423 23.888C234.423 22.448 235.239 21.648 237.095 21.296L240.103 20.736C240.103 19.312 239.431 18.608 238.087 18.608C236.903 18.608 236.247 19.152 235.991 20.128L234.567 20.016C234.887 18.416 236.167 17.328 238.087 17.328C240.263 17.328 241.447 18.64 241.447 20.784V24.288C241.447 24.672 241.575 24.816 241.895 24.816H242.231V26C242.135 26.016 241.927 26.032 241.719 26.032C240.695 26.032 240.231 25.632 240.119 24.688C239.703 25.568 238.535 26.192 237.287 26.192ZM237.415 25.008C239.111 25.008 240.103 23.92 240.103 22.512V21.904L237.351 22.416C236.199 22.624 235.831 23.056 235.831 23.76C235.831 24.56 236.423 25.008 237.415 25.008ZM243.749 26V17.52H244.981L245.013 19.04C245.461 17.872 246.453 17.328 247.621 17.328C249.557 17.328 250.485 18.752 250.485 20.544V26H249.141V20.928C249.141 19.36 248.613 18.512 247.333 18.512C246.021 18.512 245.093 19.36 245.093 20.928V26H243.749ZM255.866 26.192C253.658 26.192 252.282 24.48 252.282 21.76C252.282 19.04 253.658 17.328 255.866 17.328C257.002 17.328 258.01 17.84 258.474 18.704V14.64H259.818V26H258.602L258.554 24.72C258.074 25.648 257.05 26.192 255.866 26.192ZM256.138 24.912C257.642 24.912 258.474 23.696 258.474 21.76C258.474 19.792 257.642 18.608 256.138 18.608C254.65 18.608 253.69 19.792 253.69 21.76C253.69 23.696 254.65 24.912 256.138 24.912ZM268.662 26.192C266.902 26.192 265.798 25.344 265.798 23.888C265.798 22.448 266.614 21.648 268.47 21.296L271.478 20.736C271.478 19.312 270.806 18.608 269.462 18.608C268.278 18.608 267.622 19.152 267.366 20.128L265.942 20.016C266.262 18.416 267.542 17.328 269.462 17.328C271.638 17.328 272.822 18.64 272.822 20.784V24.288C272.822 24.672 272.95 24.816 273.27 24.816H273.606V26C273.51 26.016 273.302 26.032 273.094 26.032C272.07 26.032 271.606 25.632 271.494 24.688C271.078 25.568 269.91 26.192 268.662 26.192ZM268.79 25.008C270.486 25.008 271.478 23.92 271.478 22.512V21.904L268.726 22.416C267.574 22.624 267.206 23.056 267.206 23.76C267.206 24.56 267.798 25.008 268.79 25.008ZM278.101 26.192C275.893 26.192 274.517 24.48 274.517 21.76C274.517 19.04 275.893 17.328 278.101 17.328C279.237 17.328 280.245 17.84 280.709 18.704V14.64H282.053V26H280.837L280.789 24.72C280.309 25.648 279.285 26.192 278.101 26.192ZM278.373 24.912C279.877 24.912 280.709 23.696 280.709 21.76C280.709 19.792 279.877 18.608 278.373 18.608C276.885 18.608 275.924 19.792 275.924 21.76C275.924 23.696 276.885 24.912 278.373 24.912ZM287.46 26.192C285.252 26.192 283.876 24.48 283.876 21.76C283.876 19.04 285.252 17.328 287.46 17.328C288.596 17.328 289.604 17.84 290.068 18.704V14.64H291.412V26H290.196L290.148 24.72C289.668 25.648 288.644 26.192 287.46 26.192ZM287.732 24.912C289.236 24.912 290.068 23.696 290.068 21.76C290.068 19.792 289.236 18.608 287.732 18.608C286.244 18.608 285.284 19.792 285.284 21.76C285.284 23.696 286.244 24.912 287.732 24.912ZM297.123 26.192C294.723 26.192 293.235 24.448 293.235 21.76C293.235 19.072 294.723 17.328 297.059 17.328C299.267 17.328 300.803 18.928 300.803 21.776V22.176H294.643C294.739 24 295.651 24.912 297.123 24.912C298.227 24.912 298.947 24.352 299.235 23.488L300.675 23.6C300.227 25.12 298.915 26.192 297.123 26.192ZM294.643 20.992H299.331C299.203 19.36 298.307 18.608 297.059 18.608C295.747 18.608 294.867 19.424 294.643 20.992ZM305.632 26.192C303.424 26.192 302.048 24.48 302.048 21.76C302.048 19.04 303.424 17.328 305.632 17.328C306.768 17.328 307.776 17.84 308.24 18.704V14.64H309.584V26H308.368L308.32 24.72C307.84 25.648 306.816 26.192 305.632 26.192ZM305.904 24.912C307.408 24.912 308.24 23.696 308.24 21.76C308.24 19.792 307.408 18.608 305.904 18.608C304.416 18.608 303.456 19.792 303.456 21.76C303.456 23.696 304.416 24.912 305.904 24.912ZM319.243 26C317.707 26 316.987 25.328 316.987 23.824V18.704H315.739V17.52H316.987V15.536H318.331V17.52H320.587V18.704H318.331V23.792C318.331 24.56 318.667 24.816 319.371 24.816H320.587V26H319.243ZM322.155 26V14.64H323.499V18.848C323.931 17.808 324.891 17.328 326.059 17.328C327.883 17.328 328.891 18.656 328.891 20.544V26H327.547V20.928C327.547 19.296 326.955 18.512 325.771 18.512C324.395 18.512 323.499 19.376 323.499 20.944V26H322.155ZM334.576 26.192C332.176 26.192 330.688 24.448 330.688 21.76C330.688 19.072 332.176 17.328 334.512 17.328C336.72 17.328 338.256 18.928 338.256 21.776V22.176H332.096C332.192 24 333.104 24.912 334.576 24.912C335.68 24.912 336.4 24.352 336.688 23.488L338.128 23.6C337.68 25.12 336.368 26.192 334.576 26.192ZM332.096 20.992H336.784C336.656 19.36 335.76 18.608 334.512 18.608C333.2 18.608 332.32 19.424 332.096 20.992ZM340.045 16.192V14.624H341.453V16.192H340.045ZM340.077 26V17.52H341.421V26H340.077ZM344.077 26V17.52H345.261L345.309 19.088C345.613 18.016 346.285 17.52 347.325 17.52H348.157V18.8H347.341C346.061 18.8 345.421 19.488 345.421 20.88V26H344.077ZM356.923 26.192C355.227 26.192 354.139 24.992 354.139 22.976V17.52H355.483V22.608C355.483 24.256 356.059 25.008 357.275 25.008C358.619 25.008 359.435 24.096 359.435 22.576V17.52H360.779V26H359.499V24.624C359.035 25.632 358.139 26.192 356.923 26.192ZM363.343 28.4V17.52H364.591L364.607 18.816C365.119 17.84 366.062 17.328 367.215 17.328C369.743 17.328 370.878 19.424 370.878 21.76C370.878 24.096 369.743 26.192 367.215 26.192C366.111 26.192 365.135 25.696 364.687 24.88V28.4H363.343ZM367.087 24.912C368.559 24.912 369.471 23.744 369.471 21.76C369.471 19.776 368.559 18.608 367.087 18.608C365.615 18.608 364.687 19.68 364.687 21.76C364.687 23.84 365.599 24.912 367.087 24.912ZM379.962 26C378.426 26 377.706 25.328 377.706 23.824V18.704H376.458V17.52H377.706V15.536H379.05V17.52H381.306V18.704H379.05V23.792C379.05 24.56 379.386 24.816 380.09 24.816H381.306V26H379.962ZM386.186 26.192C383.834 26.192 382.298 24.464 382.298 21.76C382.298 19.056 383.834 17.328 386.186 17.328C388.522 17.328 390.058 19.056 390.058 21.76C390.058 24.464 388.522 26.192 386.186 26.192ZM386.186 24.912C387.738 24.912 388.65 23.728 388.65 21.76C388.65 19.792 387.738 18.608 386.186 18.608C384.618 18.608 383.706 19.792 383.706 21.76C383.706 23.728 384.618 24.912 386.186 24.912ZM399.054 26.192C396.846 26.192 395.47 24.48 395.47 21.76C395.47 19.04 396.846 17.328 399.054 17.328C400.19 17.328 401.198 17.84 401.662 18.704V14.64H403.006V26H401.79L401.742 24.72C401.262 25.648 400.238 26.192 399.054 26.192ZM399.326 24.912C400.83 24.912 401.662 23.696 401.662 21.76C401.662 19.792 400.83 18.608 399.326 18.608C397.838 18.608 396.878 19.792 396.878 21.76C396.878 23.696 397.838 24.912 399.326 24.912ZM407.693 26.192C405.933 26.192 404.829 25.344 404.829 23.888C404.829 22.448 405.645 21.648 407.501 21.296L410.509 20.736C410.509 19.312 409.837 18.608 408.493 18.608C407.309 18.608 406.653 19.152 406.397 20.128L404.973 20.016C405.293 18.416 406.573 17.328 408.493 17.328C410.669 17.328 411.853 18.64 411.853 20.784V24.288C411.853 24.672 411.981 24.816 412.301 24.816H412.637V26C412.541 26.016 412.333 26.032 412.125 26.032C411.101 26.032 410.637 25.632 410.525 24.688C410.109 25.568 408.941 26.192 407.693 26.192ZM407.821 25.008C409.517 25.008 410.509 23.92 410.509 22.512V21.904L407.757 22.416C406.605 22.624 406.237 23.056 406.237 23.76C406.237 24.56 406.829 25.008 407.821 25.008ZM416.525 26C414.989 26 414.269 25.328 414.269 23.824V18.704H413.021V17.52H414.269V15.536H415.613V17.52H417.869V18.704H415.613V23.792C415.613 24.56 415.949 24.816 416.653 24.816H417.869V26H416.525ZM422.748 26.192C420.348 26.192 418.86 24.448 418.86 21.76C418.86 19.072 420.348 17.328 422.684 17.328C424.892 17.328 426.428 18.928 426.428 21.776V22.176H420.268C420.364 24 421.276 24.912 422.748 24.912C423.852 24.912 424.572 24.352 424.86 23.488L426.3 23.6C425.852 25.12 424.54 26.192 422.748 26.192ZM420.268 20.992H424.956C424.828 19.36 423.932 18.608 422.684 18.608C421.372 18.608 420.492 19.424 420.268 20.992ZM435.413 26.192C433.205 26.192 431.829 24.48 431.829 21.76C431.829 19.04 433.205 17.328 435.413 17.328C436.549 17.328 437.557 17.84 438.021 18.704V14.64H439.365V26H438.149L438.101 24.72C437.621 25.648 436.597 26.192 435.413 26.192ZM435.685 24.912C437.189 24.912 438.021 23.696 438.021 21.76C438.021 19.792 437.189 18.608 435.685 18.608C434.197 18.608 433.237 19.792 433.237 21.76C433.237 23.696 434.197 24.912 435.685 24.912ZM445.076 26.192C442.676 26.192 441.188 24.448 441.188 21.76C441.188 19.072 442.676 17.328 445.012 17.328C447.22 17.328 448.756 18.928 448.756 21.776V22.176H442.596C442.692 24 443.604 24.912 445.076 24.912C446.18 24.912 446.9 24.352 447.188 23.488L448.628 23.6C448.18 25.12 446.868 26.192 445.076 26.192ZM442.596 20.992H447.284C447.156 19.36 446.26 18.608 445.012 18.608C443.7 18.608 442.82 19.424 442.596 20.992ZM453.353 26C451.817 26 451.097 25.328 451.097 23.824V18.704H449.849V17.52H451.097V15.536H452.441V17.52H454.697V18.704H452.441V23.792C452.441 24.56 452.777 24.816 453.481 24.816H454.697V26H453.353ZM458.646 26.192C456.886 26.192 455.782 25.344 455.782 23.888C455.782 22.448 456.598 21.648 458.454 21.296L461.462 20.736C461.462 19.312 460.79 18.608 459.446 18.608C458.262 18.608 457.606 19.152 457.35 20.128L455.926 20.016C456.246 18.416 457.526 17.328 459.446 17.328C461.622 17.328 462.806 18.64 462.806 20.784V24.288C462.806 24.672 462.934 24.816 463.254 24.816H463.59V26C463.494 26.016 463.286 26.032 463.078 26.032C462.054 26.032 461.59 25.632 461.478 24.688C461.062 25.568 459.894 26.192 458.646 26.192ZM458.774 25.008C460.47 25.008 461.462 23.92 461.462 22.512V21.904L458.71 22.416C457.558 22.624 457.19 23.056 457.19 23.76C457.19 24.56 457.782 25.008 458.774 25.008ZM465.014 16.192V14.624H466.422V16.192H465.014ZM465.046 26V17.52H466.39V26H465.046ZM470.46 26C469.468 26 468.796 25.52 468.796 24.4V14.64H470.14V24.288C470.14 24.64 470.316 24.816 470.668 24.816H471.404V26H470.46ZM476.056 26.192C473.72 26.192 472.52 24.992 472.392 23.328L473.799 23.232C473.96 24.256 474.552 24.912 476.056 24.912C477.208 24.912 477.864 24.56 477.864 23.728C477.864 23.056 477.528 22.768 475.799 22.448C473.432 22 472.728 21.264 472.728 19.92C472.728 18.416 473.896 17.328 475.944 17.328C478.184 17.328 479.128 18.672 479.304 20.048L477.896 20.144C477.816 19.344 477.304 18.608 475.911 18.608C474.696 18.608 474.136 19.136 474.136 19.856C474.136 20.688 474.568 21.008 476.056 21.264C478.552 21.696 479.272 22.384 479.272 23.728C479.272 25.296 477.928 26.192 476.056 26.192ZM480.704 26V24.192H482.512V26H480.704Z" fill="#1E2939"/>
<defs>
<linearGradient id="paint0_linear_6893_39469" x1="0" y1="20" x2="498" y2="20" gradientUnits="userSpaceOnUse">
<stop stop-color="#E7E6F4"/>
<stop offset="1" stop-color="#C8C6E6"/>
</linearGradient>
</defs>
</svg>
