<svg width="480" height="100" viewBox="0 0 480 100" fill="none" xmlns="http://www.w3.org/2000/svg">
<g clip-path="url(#clip0_6889_39332)">
<rect width="480" height="100" rx="8" fill="url(#paint0_linear_6889_39332)"/>
<path d="M15.728 26V15.984H12.192V14.64H20.64V15.984H17.104V26H15.728ZM21.6238 26V14.64H22.9678V18.848C23.3998 17.808 24.3598 17.328 25.5278 17.328C27.3518 17.328 28.3598 18.656 28.3598 20.544V26H27.0158V20.928C27.0158 19.296 26.4238 18.512 25.2398 18.512C23.8638 18.512 22.9678 19.376 22.9678 20.944V26H21.6238ZM33.0524 26.192C31.2924 26.192 30.1884 25.344 30.1884 23.888C30.1884 22.448 31.0044 21.648 32.8604 21.296L35.8684 20.736C35.8684 19.312 35.1964 18.608 33.8524 18.608C32.6684 18.608 32.0124 19.152 31.7564 20.128L30.3324 20.016C30.6524 18.416 31.9324 17.328 33.8524 17.328C36.0284 17.328 37.2124 18.64 37.2124 20.784V24.288C37.2124 24.672 37.3404 24.816 37.6604 24.816H37.9964V26C37.9004 26.016 37.6924 26.032 37.4844 26.032C36.4604 26.032 35.9964 25.632 35.8844 24.688C35.4684 25.568 34.3004 26.192 33.0524 26.192ZM33.1804 25.008C34.8764 25.008 35.8684 23.92 35.8684 22.512V21.904L33.1164 22.416C31.9644 22.624 31.5964 23.056 31.5964 23.76C31.5964 24.56 32.1884 25.008 33.1804 25.008ZM41.884 26C40.348 26 39.628 25.328 39.628 23.824V18.704H38.38V17.52H39.628V15.536H40.972V17.52H43.228V18.704H40.972V23.792C40.972 24.56 41.308 24.816 42.012 24.816H43.228V26H41.884ZM44.5336 18.944L45.3016 16.448H44.4856V14.64H46.2936V16.224L45.3336 18.944H44.5336ZM51.3836 26.192C49.0476 26.192 47.8476 24.992 47.7196 23.328L49.1276 23.232C49.2876 24.256 49.8796 24.912 51.3836 24.912C52.5356 24.912 53.1916 24.56 53.1916 23.728C53.1916 23.056 52.8556 22.768 51.1276 22.448C48.7596 22 48.0556 21.264 48.0556 19.92C48.0556 18.416 49.2236 17.328 51.2716 17.328C53.5116 17.328 54.4556 18.672 54.6316 20.048L53.2236 20.144C53.1436 19.344 52.6316 18.608 51.2396 18.608C50.0236 18.608 49.4636 19.136 49.4636 19.856C49.4636 20.688 49.8956 21.008 51.3836 21.264C53.8796 21.696 54.5996 22.384 54.5996 23.728C54.5996 25.296 53.2556 26.192 51.3836 26.192ZM63.7121 26C62.1761 26 61.4561 25.328 61.4561 23.824V18.704H60.2081V17.52H61.4561V15.536H62.8001V17.52H65.0561V18.704H62.8001V23.792C62.8001 24.56 63.1361 24.816 63.8401 24.816H65.0561V26H63.7121ZM66.6238 26V14.64H67.9678V18.848C68.3998 17.808 69.3598 17.328 70.5278 17.328C72.3518 17.328 73.3598 18.656 73.3598 20.544V26H72.0158V20.928C72.0158 19.296 71.4238 18.512 70.2398 18.512C68.8638 18.512 67.9678 19.376 67.9678 20.944V26H66.6238ZM79.0451 26.192C76.6451 26.192 75.1571 24.448 75.1571 21.76C75.1571 19.072 76.6451 17.328 78.9811 17.328C81.1891 17.328 82.7251 18.928 82.7251 21.776V22.176H76.5651C76.6611 24 77.5731 24.912 79.0451 24.912C80.1491 24.912 80.8691 24.352 81.1571 23.488L82.5971 23.6C82.1491 25.12 80.8371 26.192 79.0451 26.192ZM76.5651 20.992H81.2531C81.1251 19.36 80.2291 18.608 78.9811 18.608C77.6691 18.608 76.7891 19.424 76.5651 20.992ZM89.5339 26V18.704H88.3819V17.52H89.5339V16.752C89.5339 15.504 90.2379 14.64 91.7739 14.64H93.1179V15.824H91.8699C91.1979 15.824 90.8779 16.208 90.8779 16.848V17.52H93.0059V18.704H90.8779V26H89.5339ZM97.6233 26.192C95.2713 26.192 93.7353 24.464 93.7353 21.76C93.7353 19.056 95.2713 17.328 97.6233 17.328C99.9593 17.328 101.495 19.056 101.495 21.76C101.495 24.464 99.9593 26.192 97.6233 26.192ZM97.6233 24.912C99.1753 24.912 100.087 23.728 100.087 21.76C100.087 19.792 99.1753 18.608 97.6233 18.608C96.0553 18.608 95.1432 19.792 95.1432 21.76C95.1432 23.728 96.0553 24.912 97.6233 24.912ZM103.327 26V17.52H104.511L104.559 19.088C104.863 18.016 105.535 17.52 106.575 17.52H107.407V18.8H106.591C105.311 18.8 104.671 19.488 104.671 20.88V26H103.327ZM108.749 26V17.52H109.981L110.013 19.008C110.429 17.968 111.309 17.328 112.397 17.328C113.677 17.328 114.573 17.968 114.941 19.104C115.309 17.968 116.173 17.328 117.421 17.328C119.229 17.328 120.221 18.496 120.221 20.544V26H118.877V20.832C118.877 19.296 118.269 18.512 117.101 18.512C115.917 18.512 115.149 19.408 115.149 20.928V26H113.805V20.928C113.805 19.424 113.309 18.512 112.061 18.512C110.877 18.512 110.093 19.424 110.093 20.928V26H108.749ZM129.868 26.192C127.532 26.192 126.332 24.992 126.204 23.328L127.612 23.232C127.772 24.256 128.364 24.912 129.868 24.912C131.02 24.912 131.676 24.56 131.676 23.728C131.676 23.056 131.34 22.768 129.612 22.448C127.244 22 126.54 21.264 126.54 19.92C126.54 18.416 127.708 17.328 129.756 17.328C131.996 17.328 132.94 18.672 133.116 20.048L131.708 20.144C131.628 19.344 131.116 18.608 129.724 18.608C128.508 18.608 127.948 19.136 127.948 19.856C127.948 20.688 128.38 21.008 129.868 21.264C132.364 21.696 133.084 22.384 133.084 23.728C133.084 25.296 131.74 26.192 129.868 26.192ZM138.248 26.192C135.848 26.192 134.36 24.448 134.36 21.76C134.36 19.072 135.848 17.328 138.184 17.328C140.392 17.328 141.928 18.928 141.928 21.776V22.176L135.768 22.176C135.864 24 136.776 24.912 138.248 24.912C139.352 24.912 140.072 24.352 140.36 23.488L141.8 23.6C141.352 25.12 140.04 26.192 138.248 26.192ZM135.768 20.992L140.456 20.992C140.328 19.36 139.432 18.608 138.184 18.608C136.872 18.608 135.992 19.424 135.768 20.992ZM143.749 26V17.52H144.981L145.013 19.04C145.461 17.872 146.453 17.328 147.621 17.328C149.557 17.328 150.485 18.752 150.485 20.544V26H149.141V20.928C149.141 19.36 148.613 18.512 147.333 18.512C146.021 18.512 145.093 19.36 145.093 20.928V26H143.749ZM155.509 26C153.973 26 153.253 25.328 153.253 23.824V18.704H152.005V17.52H153.253V15.536H154.597V17.52H156.853V18.704H154.597V23.792C154.597 24.56 154.933 24.816 155.637 24.816H156.853V26H155.509ZM165.983 26.192C163.631 26.192 162.095 24.464 162.095 21.76C162.095 19.056 163.631 17.328 165.983 17.328C168.319 17.328 169.855 19.056 169.855 21.76C169.855 24.464 168.319 26.192 165.983 26.192ZM165.983 24.912C167.535 24.912 168.447 23.728 168.447 21.76C168.447 19.792 167.535 18.608 165.983 18.608C164.415 18.608 163.503 19.792 163.503 21.76C163.503 23.728 164.415 24.912 165.983 24.912ZM173.596 26L170.508 17.52H171.98L174.444 24.624L176.908 17.52H178.38L175.292 26H173.596ZM182.905 26.192C180.505 26.192 179.017 24.448 179.017 21.76C179.017 19.072 180.505 17.328 182.841 17.328C185.049 17.328 186.585 18.928 186.585 21.776V22.176H180.424C180.521 24 181.433 24.912 182.905 24.912C184.009 24.912 184.729 24.352 185.017 23.488L186.457 23.6C186.009 25.12 184.697 26.192 182.905 26.192ZM180.424 20.992H185.113C184.985 19.36 184.089 18.608 182.841 18.608C181.529 18.608 180.649 19.424 180.424 20.992ZM188.405 26V17.52H189.589L189.637 19.088C189.941 18.016 190.613 17.52 191.653 17.52H192.485V18.8H191.669C190.389 18.8 189.749 19.488 189.749 20.88V26H188.405ZM192.938 26V24.192H194.746V26H192.938ZM203.181 26V15.984H199.645V14.64H208.093V15.984H204.557V26H203.181ZM209.077 26V14.64H210.421V18.848C210.853 17.808 211.813 17.328 212.981 17.328C214.805 17.328 215.813 18.656 215.813 20.544V26H214.469V20.928C214.469 19.296 213.877 18.512 212.693 18.512C211.317 18.512 210.421 19.376 210.421 20.944V26H209.077ZM221.498 26.192C219.098 26.192 217.61 24.448 217.61 21.76C217.61 19.072 219.098 17.328 221.434 17.328C223.642 17.328 225.178 18.928 225.178 21.776V22.176L219.018 22.176C219.114 24 220.026 24.912 221.498 24.912C222.602 24.912 223.322 24.352 223.61 23.488L225.05 23.6C224.602 25.12 223.29 26.192 221.498 26.192ZM219.018 20.992L223.706 20.992C223.578 19.36 222.682 18.608 221.434 18.608C220.122 18.608 219.242 19.424 219.018 20.992ZM234.467 26.192C232.099 26.192 230.579 24.448 230.579 21.76C230.579 19.072 232.099 17.328 234.467 17.328C236.419 17.328 237.779 18.384 238.067 20.272L236.659 20.368C236.467 19.248 235.619 18.608 234.467 18.608C232.899 18.608 231.987 19.792 231.987 21.76C231.987 23.728 232.899 24.912 234.467 24.912C235.619 24.912 236.467 24.272 236.659 22.992L238.067 23.088C237.779 24.976 236.419 26.192 234.467 26.192ZM241.475 26C240.483 26 239.811 25.52 239.811 24.4V14.64H241.155V24.288C241.155 24.64 241.331 24.816 241.683 24.816H242.419V26H241.475ZM246.705 26.192C245.009 26.192 243.921 24.992 243.921 22.976V17.52H245.265V22.608C245.265 24.256 245.841 25.008 247.057 25.008C248.401 25.008 249.217 24.096 249.217 22.576V17.52H250.561V26H249.281V24.624C248.817 25.632 247.921 26.192 246.705 26.192ZM256.777 26.192C255.593 26.192 254.633 25.648 254.153 24.72L254.105 26H252.889V14.64H254.233V18.704C254.649 18 255.593 17.328 256.777 17.328C259.017 17.328 260.425 19.04 260.425 21.76C260.425 24.48 259.017 26.192 256.777 26.192ZM256.697 24.912C258.121 24.912 259.017 23.696 259.017 21.76C259.017 19.792 258.121 18.608 256.729 18.608C255.161 18.608 254.233 19.792 254.233 21.76C254.233 23.696 255.161 24.912 256.697 24.912ZM266.405 26V14.64H267.749V18.848C268.181 17.808 269.141 17.328 270.309 17.328C272.133 17.328 273.141 18.656 273.141 20.544V26H271.797V20.928C271.797 19.296 271.205 18.512 270.021 18.512C268.645 18.512 267.749 19.376 267.749 20.944V26H266.405ZM277.834 26.192C276.074 26.192 274.97 25.344 274.97 23.888C274.97 22.448 275.786 21.648 277.642 21.296L280.65 20.736C280.65 19.312 279.978 18.608 278.634 18.608C277.45 18.608 276.794 19.152 276.538 20.128L275.114 20.016C275.434 18.416 276.714 17.328 278.634 17.328C280.81 17.328 281.994 18.64 281.994 20.784V24.288C281.994 24.672 282.122 24.816 282.442 24.816H282.778V26C282.682 26.016 282.474 26.032 282.266 26.032C281.242 26.032 280.778 25.632 280.666 24.688C280.25 25.568 279.082 26.192 277.834 26.192ZM277.962 25.008C279.658 25.008 280.65 23.92 280.65 22.512V21.904L277.898 22.416C276.746 22.624 276.378 23.056 276.378 23.76C276.378 24.56 276.97 25.008 277.962 25.008ZM287.352 26.192C285.016 26.192 283.816 24.992 283.688 23.328L285.096 23.232C285.256 24.256 285.848 24.912 287.352 24.912C288.504 24.912 289.16 24.56 289.16 23.728C289.16 23.056 288.824 22.768 287.096 22.448C284.728 22 284.024 21.264 284.024 19.92C284.024 18.416 285.192 17.328 287.24 17.328C289.48 17.328 290.424 18.672 290.6 20.048L289.192 20.144C289.112 19.344 288.6 18.608 287.208 18.608C285.992 18.608 285.432 19.136 285.432 19.856C285.432 20.688 285.864 21.008 287.352 21.264C289.848 21.696 290.568 22.384 290.568 23.728C290.568 25.296 289.224 26.192 287.352 26.192ZM299.665 26.192C297.329 26.192 296.129 24.992 296.001 23.328L297.409 23.232C297.569 24.256 298.161 24.912 299.665 24.912C300.817 24.912 301.473 24.56 301.473 23.728C301.473 23.056 301.137 22.768 299.409 22.448C297.041 22 296.337 21.264 296.337 19.92C296.337 18.416 297.505 17.328 299.553 17.328C301.793 17.328 302.737 18.672 302.913 20.048L301.505 20.144C301.425 19.344 300.913 18.608 299.521 18.608C298.305 18.608 297.745 19.136 297.745 19.856C297.745 20.688 298.177 21.008 299.665 21.264C302.161 21.696 302.881 22.384 302.881 23.728C302.881 25.296 301.537 26.192 299.665 26.192ZM308.045 26.192C305.645 26.192 304.157 24.448 304.157 21.76C304.157 19.072 305.645 17.328 307.981 17.328C310.189 17.328 311.725 18.928 311.725 21.776V22.176H305.565C305.661 24 306.573 24.912 308.045 24.912C309.149 24.912 309.869 24.352 310.157 23.488L311.597 23.6C311.149 25.12 309.837 26.192 308.045 26.192ZM305.565 20.992H310.253C310.125 19.36 309.229 18.608 307.981 18.608C306.669 18.608 305.789 19.424 305.565 20.992ZM313.546 26V17.52H314.778L314.81 19.04C315.258 17.872 316.25 17.328 317.418 17.328C319.354 17.328 320.282 18.752 320.282 20.544V26H318.938V20.928C318.938 19.36 318.41 18.512 317.13 18.512C315.818 18.512 314.89 19.36 314.89 20.928V26H313.546ZM325.306 26C323.77 26 323.05 25.328 323.05 23.824V18.704H321.802V17.52H323.05V15.536H324.394V17.52H326.65V18.704H324.394V23.792C324.394 24.56 324.73 24.816 325.434 24.816H326.65V26H325.306ZM335.78 26.192C333.428 26.192 331.892 24.464 331.892 21.76C331.892 19.056 333.428 17.328 335.78 17.328C338.116 17.328 339.652 19.056 339.652 21.76C339.652 24.464 338.116 26.192 335.78 26.192ZM335.78 24.912C337.332 24.912 338.244 23.728 338.244 21.76C338.244 19.792 337.332 18.608 335.78 18.608C334.212 18.608 333.299 19.792 333.299 21.76C333.299 23.728 334.212 24.912 335.78 24.912ZM343.393 26L340.305 17.52H341.777L344.241 24.624L346.705 17.52H348.177L345.089 26H343.393ZM352.701 26.192C350.301 26.192 348.813 24.448 348.813 21.76C348.813 19.072 350.301 17.328 352.637 17.328C354.845 17.328 356.381 18.928 356.381 21.776V22.176H350.221C350.317 24 351.229 24.912 352.701 24.912C353.805 24.912 354.525 24.352 354.813 23.488L356.253 23.6C355.805 25.12 354.493 26.192 352.701 26.192ZM350.221 20.992H354.909C354.781 19.36 353.885 18.608 352.637 18.608C351.325 18.608 350.445 19.424 350.221 20.992ZM358.202 26V17.52H359.386L359.434 19.088C359.738 18.016 360.41 17.52 361.45 17.52H362.282V18.8H361.466C360.186 18.8 359.546 19.488 359.546 20.88V26H358.202ZM370.552 26.192C368.792 26.192 367.688 25.344 367.688 23.888C367.688 22.448 368.504 21.648 370.36 21.296L373.368 20.736C373.368 19.312 372.696 18.608 371.352 18.608C370.168 18.608 369.512 19.152 369.256 20.128L367.832 20.016C368.152 18.416 369.432 17.328 371.352 17.328C373.528 17.328 374.712 18.64 374.712 20.784V24.288C374.712 24.672 374.84 24.816 375.16 24.816H375.496V26C375.4 26.016 375.192 26.032 374.984 26.032C373.96 26.032 373.496 25.632 373.384 24.688C372.968 25.568 371.8 26.192 370.552 26.192ZM370.68 25.008C372.376 25.008 373.368 23.92 373.368 22.512V21.904L370.616 22.416C369.464 22.624 369.096 23.056 369.096 23.76C369.096 24.56 369.688 25.008 370.68 25.008ZM381.077 28.4V17.52H382.325L382.341 18.816C382.853 17.84 383.797 17.328 384.949 17.328C387.477 17.328 388.613 19.424 388.613 21.76C388.613 24.096 387.477 26.192 384.949 26.192C383.845 26.192 382.869 25.696 382.421 24.88V28.4H381.077ZM384.821 24.912C386.293 24.912 387.205 23.744 387.205 21.76C387.205 19.776 386.293 18.608 384.821 18.608C383.349 18.608 382.421 19.68 382.421 21.76C382.421 23.84 383.333 24.912 384.821 24.912ZM392.943 26.192C391.183 26.192 390.079 25.344 390.079 23.888C390.079 22.448 390.895 21.648 392.751 21.296L395.759 20.736C395.759 19.312 395.087 18.608 393.743 18.608C392.559 18.608 391.903 19.152 391.647 20.128L390.223 20.016C390.543 18.416 391.823 17.328 393.743 17.328C395.919 17.328 397.103 18.64 397.103 20.784V24.288C397.103 24.672 397.231 24.816 397.551 24.816H397.887V26C397.791 26.016 397.583 26.032 397.375 26.032C396.351 26.032 395.887 25.632 395.775 24.688C395.359 25.568 394.191 26.192 392.943 26.192ZM393.071 25.008C394.767 25.008 395.759 23.92 395.759 22.512V21.904L393.007 22.416C391.855 22.624 391.487 23.056 391.487 23.76C391.487 24.56 392.079 25.008 393.071 25.008ZM399.445 28.4V27.216H400.421C401.013 27.216 401.253 27.04 401.413 26.64L401.717 25.84H401.253L398.149 17.52H399.621L402.149 24.592L404.565 17.52H406.037L402.597 27.072C402.277 27.984 401.685 28.4 400.549 28.4H399.445ZM407.28 26V17.52H408.512L408.544 19.008C408.96 17.968 409.84 17.328 410.928 17.328C412.208 17.328 413.104 17.968 413.472 19.104C413.84 17.968 414.704 17.328 415.952 17.328C417.76 17.328 418.752 18.496 418.752 20.544V26H417.408V20.832C417.408 19.296 416.8 18.512 415.632 18.512C414.448 18.512 413.68 19.408 413.68 20.928V26H412.336V20.928C412.336 19.424 411.84 18.512 410.592 18.512C409.408 18.512 408.624 19.424 408.624 20.928V26H407.28ZM424.436 26.192C422.036 26.192 420.548 24.448 420.548 21.76C420.548 19.072 422.036 17.328 424.372 17.328C426.58 17.328 428.116 18.928 428.116 21.776V22.176H421.956C422.052 24 422.964 24.912 424.436 24.912C425.54 24.912 426.26 24.352 426.548 23.488L427.988 23.6C427.54 25.12 426.228 26.192 424.436 26.192ZM421.956 20.992H426.644C426.516 19.36 425.62 18.608 424.372 18.608C423.06 18.608 422.18 19.424 421.956 20.992ZM429.936 26V17.52H431.168L431.2 19.04C431.648 17.872 432.64 17.328 433.808 17.328C435.744 17.328 436.672 18.752 436.672 20.544V26H435.328V20.928C435.328 19.36 434.8 18.512 433.52 18.512C432.208 18.512 431.28 19.36 431.28 20.928V26H429.936ZM441.697 26C440.161 26 439.441 25.328 439.441 23.824V18.704H438.193V17.52H439.441V15.536H440.785V17.52H443.041V18.704H440.785V23.792C440.785 24.56 441.121 24.816 441.825 24.816H443.041V26H441.697ZM14.944 50C13.952 50 13.28 49.52 13.28 48.4V38.64H14.624V48.288C14.624 48.64 14.8 48.816 15.152 48.816H15.888V50H14.944ZM17.3886 40.192V38.624H18.7966V40.192H17.3886ZM17.4206 50V41.52H18.7646V50H17.4206ZM21.4206 50V41.52H22.6526L22.6846 43.04C23.1326 41.872 24.1246 41.328 25.2926 41.328C27.2286 41.328 28.1566 42.752 28.1566 44.544V50H26.8126V44.928C26.8126 43.36 26.2846 42.512 25.0046 42.512C23.6926 42.512 22.7646 43.36 22.7646 44.928V50H21.4206ZM30.6238 50V38.64H31.9678V46.08L36.0958 41.52H37.8878L34.5438 45.12L38.0318 50H36.3998L33.6318 46.032L31.9678 47.792V50H30.6238ZM39.2208 52.496L39.9888 50H39.1728V48.192H40.9808V49.776L40.0208 52.496H39.2208ZM47.3355 52.4V51.216H48.3115C48.9035 51.216 49.1435 51.04 49.3035 50.64L49.6075 49.84H49.1435L46.0395 41.52H47.5115L50.0395 48.592L52.4555 41.52H53.9275L50.4875 51.072C50.1675 51.984 49.5755 52.4 48.4395 52.4H47.3355ZM58.4514 50.192C56.0994 50.192 54.5634 48.464 54.5634 45.76C54.5634 43.056 56.0994 41.328 58.4514 41.328C60.7874 41.328 62.3234 43.056 62.3234 45.76C62.3234 48.464 60.7874 50.192 58.4514 50.192ZM58.4514 48.912C60.0034 48.912 60.9154 47.728 60.9154 45.76C60.9154 43.792 60.0034 42.608 58.4514 42.608C56.8834 42.608 55.9714 43.792 55.9714 45.76C55.9714 47.728 56.8834 48.912 58.4514 48.912ZM66.939 50.192C65.243 50.192 64.155 48.992 64.155 46.976V41.52H65.499V46.608C65.499 48.256 66.075 49.008 67.291 49.008C68.635 49.008 69.451 48.096 69.451 46.576V41.52H70.795V50H69.515V48.624C69.051 49.632 68.155 50.192 66.939 50.192ZM80.6701 50.192C78.3021 50.192 76.7821 48.448 76.7821 45.76C76.7821 43.072 78.3021 41.328 80.6701 41.328C82.6221 41.328 83.9821 42.384 84.2701 44.272L82.8621 44.368C82.6701 43.248 81.8221 42.608 80.6701 42.608C79.1021 42.608 78.1901 43.792 78.1901 45.76C78.1901 47.728 79.1021 48.912 80.6701 48.912C81.8221 48.912 82.6701 48.272 82.8621 46.992L84.2701 47.088C83.9821 48.976 82.6221 50.192 80.6701 50.192ZM88.443 50.192C86.683 50.192 85.579 49.344 85.579 47.888C85.579 46.448 86.395 45.648 88.251 45.296L91.259 44.736C91.259 43.312 90.587 42.608 89.243 42.608C88.059 42.608 87.403 43.152 87.147 44.128L85.723 44.016C86.043 42.416 87.323 41.328 89.243 41.328C91.419 41.328 92.603 42.64 92.603 44.784V48.288C92.603 48.672 92.731 48.816 93.051 48.816H93.387V50C93.291 50.016 93.083 50.032 92.875 50.032C91.851 50.032 91.387 49.632 91.275 48.688C90.859 49.568 89.691 50.192 88.443 50.192ZM88.571 49.008C90.267 49.008 91.259 47.92 91.259 46.512V45.904L88.507 46.416C87.355 46.624 86.987 47.056 86.987 47.76C86.987 48.56 87.579 49.008 88.571 49.008ZM94.905 50V41.52H96.137L96.169 43.04C96.617 41.872 97.609 41.328 98.777 41.328C100.713 41.328 101.641 42.752 101.641 44.544V50H100.297V44.928C100.297 43.36 99.769 42.512 98.489 42.512C97.177 42.512 96.249 43.36 96.249 44.928V50H94.905ZM113.85 40.192V38.624H115.258V40.192H113.85ZM109.034 50V42.704H107.882V41.52H109.034V40.752C109.034 39.504 109.738 38.64 111.274 38.64H112.618V39.824H111.37C110.698 39.824 110.378 40.208 110.378 40.848V41.52H112.506V42.704H110.378V50H109.034ZM113.882 50V41.52H115.226V50H113.882ZM117.874 50V41.52H119.106L119.138 43.04C119.586 41.872 120.578 41.328 121.746 41.328C123.682 41.328 124.61 42.752 124.61 44.544V50H123.266V44.928C123.266 43.36 122.738 42.512 121.458 42.512C120.146 42.512 119.218 43.36 119.218 44.928V50H117.874ZM129.991 50.192C127.783 50.192 126.407 48.48 126.407 45.76C126.407 43.04 127.783 41.328 129.991 41.328C131.127 41.328 132.135 41.84 132.599 42.704V38.64H133.943V50H132.727L132.679 48.72C132.199 49.648 131.175 50.192 129.991 50.192ZM130.263 48.912C131.767 48.912 132.599 47.696 132.599 45.76C132.599 43.792 131.767 42.608 130.263 42.608C128.775 42.608 127.815 43.792 127.815 45.76C127.815 47.696 128.775 48.912 130.263 48.912ZM140.467 40.192V38.624H141.875V40.192H140.467ZM140.499 50V41.52H141.843V50H140.499ZM146.868 50C145.332 50 144.612 49.328 144.612 47.824V42.704H143.364V41.52H144.612V39.536H145.956V41.52H148.212V42.704H145.956V47.792C145.956 48.56 146.292 48.816 146.996 48.816H148.212V50H146.868ZM154.03 50V38.64H155.374V42.848C155.806 41.808 156.766 41.328 157.934 41.328C159.758 41.328 160.766 42.656 160.766 44.544V50H159.422V44.928C159.422 43.296 158.83 42.512 157.646 42.512C156.27 42.512 155.374 43.376 155.374 44.944V50H154.03ZM166.451 50.192C164.051 50.192 162.563 48.448 162.563 45.76C162.563 43.072 164.051 41.328 166.387 41.328C168.595 41.328 170.131 42.928 170.131 45.776V46.176H163.971C164.067 48 164.979 48.912 166.451 48.912C167.555 48.912 168.275 48.352 168.563 47.488L170.003 47.6C169.555 49.12 168.243 50.192 166.451 50.192ZM163.971 44.992H168.659C168.531 43.36 167.635 42.608 166.387 42.608C165.075 42.608 164.195 43.424 163.971 44.992ZM171.952 50V41.52H173.136L173.184 43.088C173.488 42.016 174.16 41.52 175.2 41.52H176.032V42.8H175.216C173.936 42.8 173.296 43.488 173.296 44.88V50H171.952ZM180.686 50.192C178.286 50.192 176.798 48.448 176.798 45.76C176.798 43.072 178.286 41.328 180.622 41.328C182.83 41.328 184.366 42.928 184.366 45.776V46.176L178.206 46.176C178.302 48 179.214 48.912 180.686 48.912C181.79 48.912 182.51 48.352 182.798 47.488L184.238 47.6C183.79 49.12 182.478 50.192 180.686 50.192ZM178.206 44.992L182.894 44.992C182.766 43.36 181.87 42.608 180.622 42.608C179.31 42.608 178.43 43.424 178.206 44.992ZM185.767 50V48.192H187.575V50H185.767Z" fill="#1E2939"/>
<rect x="0.5" y="64.5" width="479" height="35" fill="#F3F6EB"/>
<rect x="0.5" y="64.5" width="479" height="35" stroke="#B4C685"/>
<path d="M16.788 87.224C14.408 87.224 12.924 85.838 12.756 83.794L14.31 83.696C14.492 85.082 15.332 85.852 16.816 85.852C18.09 85.852 18.846 85.362 18.846 84.424C18.846 83.584 18.412 83.066 16.214 82.534C13.834 81.96 12.966 81.274 12.966 79.72C12.966 78.012 14.268 76.836 16.41 76.836C18.678 76.836 19.98 78.194 20.204 80.07L18.65 80.154C18.51 79.006 17.74 78.208 16.382 78.208C15.234 78.208 14.52 78.796 14.52 79.664C14.52 80.532 15.01 80.854 16.942 81.316C19.518 81.918 20.4 82.884 20.4 84.34C20.4 86.118 18.93 87.224 16.788 87.224ZM24.738 87C23.324 87 22.666 86.384 22.666 84.984V80.77H21.532V79.552H22.666V77.802H24.15V79.552H26.124V80.77H24.15V84.872C24.15 85.572 24.444 85.782 25.06 85.782H26.124V87H24.738ZM27.6926 87V79.552H29.0506L29.0926 80.966C29.3726 79.986 29.9606 79.552 30.8706 79.552H31.5846V80.882H30.8706C29.7366 80.882 29.1766 81.428 29.1766 82.604V87H27.6926ZM32.7779 78.474V76.99H34.3179V78.474H32.7779ZM32.8059 87V79.552H34.2899V87H32.8059ZM36.4699 89.1V79.552H37.8699L37.8979 80.686C38.3319 79.832 39.1579 79.384 40.1519 79.384C42.3359 79.384 43.3439 81.176 43.3439 83.276C43.3439 85.376 42.3219 87.168 40.1519 87.168C39.1999 87.168 38.3599 86.72 37.9539 85.992V89.1H36.4699ZM39.8859 85.88C41.0759 85.88 41.8039 84.914 41.8039 83.276C41.8039 81.638 41.0759 80.672 39.8859 80.672C38.6959 80.672 37.9539 81.554 37.9539 83.276C37.9539 84.998 38.6819 85.88 39.8859 85.88ZM47.9168 87.168C45.7468 87.168 44.3888 85.628 44.3888 83.276C44.3888 80.924 45.7468 79.384 47.8748 79.384C49.9048 79.384 51.2768 80.826 51.2768 83.332V83.71H45.9288C45.9988 85.166 46.7408 85.894 47.9308 85.894C48.7988 85.894 49.3868 85.46 49.6248 84.76L51.1648 84.858C50.7728 86.244 49.5548 87.168 47.9168 87.168ZM45.9288 82.59H49.7088C49.6108 81.274 48.8828 80.644 47.8748 80.644C46.8108 80.644 46.0968 81.33 45.9288 82.59ZM56.3215 89.1V79.552H57.7215L57.7495 80.686C58.1835 79.832 59.0095 79.384 60.0035 79.384C62.1875 79.384 63.1955 81.176 63.1955 83.276C63.1955 85.376 62.1735 87.168 60.0035 87.168C59.0515 87.168 58.2115 86.72 57.8055 85.992V89.1H56.3215ZM59.7375 85.88C60.9275 85.88 61.6555 84.914 61.6555 83.276C61.6555 81.638 60.9275 80.672 59.7375 80.672C58.5475 80.672 57.8055 81.554 57.8055 83.276C57.8055 84.998 58.5335 85.88 59.7375 85.88ZM66.9387 87.168C65.3847 87.168 64.3907 86.426 64.3907 85.138C64.3907 83.864 65.1327 83.178 66.7707 82.856L69.3327 82.366C69.3327 81.218 68.7867 80.644 67.7227 80.644C66.7707 80.644 66.2387 81.078 66.0427 81.89L64.5167 81.792C64.7967 80.308 65.9587 79.384 67.7227 79.384C69.7387 79.384 70.8167 80.518 70.8167 82.45V85.348C70.8167 85.712 70.9287 85.824 71.2087 85.824H71.4747V87C71.3767 87.028 71.1527 87.042 70.9287 87.042C70.0747 87.042 69.5707 86.72 69.4587 85.852C69.0807 86.636 68.1007 87.168 66.9387 87.168ZM67.1767 85.992C68.5207 85.992 69.3327 85.152 69.3327 83.962V83.486L67.1487 83.906C66.2527 84.074 65.9307 84.424 65.9307 84.998C65.9307 85.642 66.3787 85.992 67.1767 85.992ZM72.8059 89.1V87.882H73.7159C74.2199 87.882 74.4159 87.742 74.5559 87.392L74.7939 86.776H74.3319L71.6439 79.552H73.2119L75.2559 85.404L77.2019 79.552H78.7839L75.8159 87.868C75.5079 88.722 74.9759 89.1 73.9259 89.1H72.8059ZM79.7961 87V79.552H81.1541L81.1821 80.826C81.5461 79.916 82.3161 79.384 83.2541 79.384C84.3601 79.384 85.1301 79.958 85.4521 80.924C85.7881 79.93 86.5441 79.384 87.6081 79.384C89.1761 79.384 90.0721 80.392 90.0721 82.212V87H88.5881V82.576C88.5881 81.288 88.1261 80.63 87.1741 80.63C86.2361 80.63 85.6341 81.372 85.6341 82.632V87H84.2201V82.632C84.2201 81.372 83.8281 80.63 82.8341 80.63C81.8821 80.63 81.2801 81.386 81.2801 82.632V87H79.7961ZM95.0847 87.168C92.9148 87.168 91.5568 85.628 91.5568 83.276C91.5568 80.924 92.9148 79.384 95.0428 79.384C97.0728 79.384 98.4448 80.826 98.4448 83.332V83.71H93.0968C93.1668 85.166 93.9088 85.894 95.0988 85.894C95.9668 85.894 96.5548 85.46 96.7928 84.76L98.3328 84.858C97.9408 86.244 96.7228 87.168 95.0847 87.168ZM93.0968 82.59H96.8768C96.7788 81.274 96.0508 80.644 95.0428 80.644C93.9788 80.644 93.2648 81.33 93.0968 82.59ZM99.9484 87V79.552H101.306L101.334 80.854C101.726 79.832 102.58 79.384 103.602 79.384C105.268 79.384 106.122 80.588 106.122 82.212V87H104.638V82.66C104.638 81.344 104.232 80.63 103.196 80.63C102.146 80.63 101.432 81.344 101.432 82.66V87H99.9484ZM110.543 87C109.129 87 108.471 86.384 108.471 84.984V80.77H107.337V79.552H108.471V77.802H109.955V79.552H111.929V80.77H109.955V84.872C109.955 85.572 110.249 85.782 110.865 85.782H111.929V87H110.543Z" fill="black"/>
<path d="M121.668 85.3333L128.335 78.6666M128.335 78.6666H121.668M128.335 78.6666V85.3333" stroke="#000D26" stroke-width="2" stroke-linecap="round" stroke-linejoin="round"/>
<path d="M454.11 87.224C451.282 87.224 449.616 85.068 449.616 82.044C449.616 79.062 451.31 76.836 454.166 76.836C456.616 76.836 457.876 78.25 458.268 80.182L456.686 80.266C456.448 79.048 455.734 78.222 454.166 78.222C452.094 78.222 451.184 79.958 451.184 82.044C451.184 84.214 452.108 85.838 454.18 85.838C455.804 85.838 456.798 84.662 456.854 83.206H454.194V81.932H458.296V87H457.26L457.19 85.418C456.7 86.496 455.482 87.224 454.11 87.224ZM463.233 87.168C461.105 87.168 459.705 85.642 459.705 83.276C459.705 80.91 461.105 79.384 463.233 79.384C465.361 79.384 466.761 80.91 466.761 83.276C466.761 85.642 465.361 87.168 463.233 87.168ZM463.233 85.88C464.493 85.88 465.221 84.914 465.221 83.276C465.221 81.638 464.493 80.672 463.233 80.672C461.973 80.672 461.245 81.638 461.245 83.276C461.245 84.914 461.973 85.88 463.233 85.88Z" fill="#000D26"/>
</g>
<rect x="0.5" y="0.5" width="479" height="99" rx="7.5" stroke="#B4C685"/>
<defs>
<linearGradient id="paint0_linear_6889_39332" x1="0" y1="50" x2="480" y2="50" gradientUnits="userSpaceOnUse">
<stop stop-color="#F2F5EA"/>
<stop offset="1" stop-color="#DCE3C5"/>
</linearGradient>
<clipPath id="clip0_6889_39332">
<rect width="480" height="100" rx="8" fill="white"/>
</clipPath>
</defs>
</svg>
