<svg width="480" height="88" viewBox="0 0 480 88" fill="none" xmlns="http://www.w3.org/2000/svg">
<rect x="0.5" y="0.5" width="479" height="87" rx="7.5" fill="url(#paint0_linear_6889_39347)"/>
<rect x="0.5" y="0.5" width="479" height="87" rx="7.5" stroke="#799A84"/>
<path d="M13.472 26V14.64H16.992C20.48 14.64 22.448 16.688 22.448 20.336C22.448 23.968 20.528 26 17.088 26H13.472ZM14.848 24.656H16.992C19.664 24.656 21.008 23.216 21.008 20.336C21.008 17.424 19.664 15.984 16.992 15.984H14.848V24.656ZM27.9826 26.192C25.6306 26.192 24.0946 24.464 24.0946 21.76C24.0946 19.056 25.6306 17.328 27.9826 17.328C30.3186 17.328 31.8546 19.056 31.8546 21.76C31.8546 24.464 30.3186 26.192 27.9826 26.192ZM27.9826 24.912C29.5346 24.912 30.4466 23.728 30.4466 21.76C30.4466 19.792 29.5346 18.608 27.9826 18.608C26.4146 18.608 25.5026 19.792 25.5026 21.76C25.5026 23.728 26.4146 24.912 27.9826 24.912ZM38.2105 28.4V27.216H39.1865C39.7785 27.216 40.0185 27.04 40.1785 26.64L40.4825 25.84H40.0185L36.9145 17.52H38.3865L40.9145 24.592L43.3305 17.52H44.8025L41.3625 27.072C41.0425 27.984 40.4505 28.4 39.3145 28.4H38.2105ZM49.3264 26.192C46.9744 26.192 45.4384 24.464 45.4384 21.76C45.4384 19.056 46.9744 17.328 49.3264 17.328C51.6624 17.328 53.1984 19.056 53.1984 21.76C53.1984 24.464 51.6624 26.192 49.3264 26.192ZM49.3264 24.912C50.8784 24.912 51.7904 23.728 51.7904 21.76C51.7904 19.792 50.8784 18.608 49.3264 18.608C47.7584 18.608 46.8464 19.792 46.8464 21.76C46.8464 23.728 47.7584 24.912 49.3264 24.912ZM57.814 26.192C56.118 26.192 55.03 24.992 55.03 22.976V17.52H56.374V22.608C56.374 24.256 56.95 25.008 58.166 25.008C59.51 25.008 60.326 24.096 60.326 22.576V17.52H61.67V26H60.39V24.624C59.926 25.632 59.03 26.192 57.814 26.192ZM68.2331 26V14.64H69.5771V18.848C70.0091 17.808 70.9691 17.328 72.1371 17.328C73.9611 17.328 74.9691 18.656 74.9691 20.544V26H73.6251V20.928C73.6251 19.296 73.0331 18.512 71.8491 18.512C70.4731 18.512 69.5771 19.376 69.5771 20.944V26H68.2331ZM79.6618 26.192C77.9018 26.192 76.7978 25.344 76.7978 23.888C76.7978 22.448 77.6138 21.648 79.4698 21.296L82.4778 20.736C82.4778 19.312 81.8058 18.608 80.4618 18.608C79.2778 18.608 78.6218 19.152 78.3658 20.128L76.9418 20.016C77.2618 18.416 78.5418 17.328 80.4618 17.328C82.6378 17.328 83.8218 18.64 83.8218 20.784V24.288C83.8218 24.672 83.9498 24.816 84.2698 24.816H84.6058V26C84.5098 26.016 84.3018 26.032 84.0938 26.032C83.0698 26.032 82.6058 25.632 82.4938 24.688C82.0778 25.568 80.9098 26.192 79.6618 26.192ZM79.7898 25.008C81.4858 25.008 82.4778 23.92 82.4778 22.512V21.904L79.7258 22.416C78.5738 22.624 78.2057 23.056 78.2057 23.76C78.2057 24.56 78.7978 25.008 79.7898 25.008ZM87.9556 26L84.8676 17.52H86.3396L88.8036 24.624L91.2676 17.52H92.7396L89.6516 26H87.9556ZM97.2639 26.192C94.8639 26.192 93.3759 24.448 93.3759 21.76C93.3759 19.072 94.8639 17.328 97.1999 17.328C99.4079 17.328 100.944 18.928 100.944 21.776V22.176H94.7839C94.8799 24 95.7919 24.912 97.2639 24.912C98.3679 24.912 99.0879 24.352 99.3759 23.488L100.816 23.6C100.368 25.12 99.0559 26.192 97.2639 26.192ZM94.7839 20.992H99.4719C99.3439 19.36 98.4479 18.608 97.1999 18.608C95.8879 18.608 95.0079 19.424 94.7839 20.992ZM110.009 26.192C107.673 26.192 106.473 24.992 106.345 23.328L107.753 23.232C107.913 24.256 108.505 24.912 110.009 24.912C111.161 24.912 111.817 24.56 111.817 23.728C111.817 23.056 111.481 22.768 109.753 22.448C107.385 22 106.681 21.264 106.681 19.92C106.681 18.416 107.849 17.328 109.897 17.328C112.137 17.328 113.081 18.672 113.257 20.048L111.849 20.144C111.769 19.344 111.257 18.608 109.865 18.608C108.649 18.608 108.089 19.136 108.089 19.856C108.089 20.688 108.521 21.008 110.009 21.264C112.505 21.696 113.225 22.384 113.225 23.728C113.225 25.296 111.881 26.192 110.009 26.192ZM115.077 28.4V17.52H116.325L116.341 18.816C116.853 17.84 117.797 17.328 118.949 17.328C121.477 17.328 122.613 19.424 122.613 21.76C122.613 24.096 121.477 26.192 118.949 26.192C117.845 26.192 116.869 25.696 116.421 24.88V28.4H115.077ZM118.821 24.912C120.293 24.912 121.205 23.744 121.205 21.76C121.205 19.776 120.293 18.608 118.821 18.608C117.349 18.608 116.421 19.68 116.421 21.76C116.421 23.84 117.333 24.912 118.821 24.912ZM127.748 26.192C125.348 26.192 123.86 24.448 123.86 21.76C123.86 19.072 125.348 17.328 127.684 17.328C129.892 17.328 131.428 18.928 131.428 21.776V22.176H125.268C125.364 24 126.276 24.912 127.748 24.912C128.852 24.912 129.572 24.352 129.86 23.488L131.3 23.6C130.852 25.12 129.54 26.192 127.748 26.192ZM125.268 20.992H129.956C129.828 19.36 128.932 18.608 127.684 18.608C126.372 18.608 125.492 19.424 125.268 20.992ZM136.561 26.192C134.193 26.192 132.673 24.448 132.673 21.76C132.673 19.072 134.193 17.328 136.561 17.328C138.513 17.328 139.873 18.384 140.161 20.272L138.753 20.368C138.561 19.248 137.713 18.608 136.561 18.608C134.993 18.608 134.081 19.792 134.081 21.76C134.081 23.728 134.993 24.912 136.561 24.912C137.713 24.912 138.561 24.272 138.753 22.992L140.161 23.088C139.873 24.976 138.513 26.192 136.561 26.192ZM141.795 16.192V14.624H143.203V16.192H141.795ZM141.827 26V17.52H143.171V26H141.827ZM150.631 16.192V14.624H152.039V16.192H150.631ZM145.815 26V18.704H144.663V17.52H145.815V16.752C145.815 15.504 146.519 14.64 148.055 14.64H149.399V15.824H148.151C147.479 15.824 147.159 16.208 147.159 16.848V17.52H149.287V18.704H147.159V26H145.815ZM150.663 26V17.52H152.007V26H150.663ZM157.717 26.192C155.349 26.192 153.829 24.448 153.829 21.76C153.829 19.072 155.349 17.328 157.717 17.328C159.669 17.328 161.029 18.384 161.317 20.272L159.909 20.368C159.717 19.248 158.869 18.608 157.717 18.608C156.149 18.608 155.237 19.792 155.237 21.76C155.237 23.728 156.149 24.912 157.717 24.912C158.869 24.912 159.717 24.272 159.909 22.992L161.317 23.088C161.029 24.976 159.669 26.192 157.717 26.192ZM168.835 26L166.211 17.52H167.683L169.667 24.592L171.683 17.52H173.123L175.139 24.592L177.139 17.52H178.611L175.987 26H174.291L172.403 19.552L170.515 26H168.835ZM183.139 26.192C180.787 26.192 179.251 24.464 179.251 21.76C179.251 19.056 180.787 17.328 183.139 17.328C185.475 17.328 187.011 19.056 187.011 21.76C187.011 24.464 185.475 26.192 183.139 26.192ZM183.139 24.912C184.691 24.912 185.603 23.728 185.603 21.76C185.603 19.792 184.691 18.608 183.139 18.608C181.571 18.608 180.659 19.792 180.659 21.76C180.659 23.728 181.571 24.912 183.139 24.912ZM188.843 26V17.52H190.027L190.075 19.088C190.379 18.016 191.051 17.52 192.091 17.52H192.923V18.8H192.107C190.827 18.8 190.187 19.488 190.187 20.88V26H188.843ZM197.272 26.192C195.064 26.192 193.688 24.48 193.688 21.76C193.688 19.04 195.064 17.328 197.272 17.328C198.408 17.328 199.416 17.84 199.88 18.704V14.64H201.224V26H200.008L199.96 24.72C199.48 25.648 198.456 26.192 197.272 26.192ZM197.544 24.912C199.048 24.912 199.88 23.696 199.88 21.76C199.88 19.792 199.048 18.608 197.544 18.608C196.056 18.608 195.096 19.792 195.096 21.76C195.096 23.696 196.056 24.912 197.544 24.912ZM203.436 16.192V14.624H204.844V16.192H203.436ZM203.468 26V17.52H204.812V26H203.468ZM207.468 26V17.52H208.7L208.732 19.04C209.18 17.872 210.172 17.328 211.34 17.328C213.276 17.328 214.204 18.752 214.204 20.544V26H212.86V20.928C212.86 19.36 212.332 18.512 211.052 18.512C209.74 18.512 208.812 19.36 208.812 20.928V26H207.468ZM219.793 28.592C217.969 28.592 216.593 27.616 216.241 26.128L217.649 26.032C217.905 26.832 218.481 27.312 219.793 27.312C221.329 27.312 222.177 26.704 222.177 25.456V24.08C221.761 24.976 220.801 25.552 219.697 25.552C217.537 25.552 216.001 23.856 216.001 21.44C216.001 19.024 217.505 17.328 219.633 17.328C220.817 17.328 221.857 17.92 222.241 18.864V17.52H223.521V25.424C223.521 27.408 222.129 28.592 219.793 28.592ZM219.761 24.272C221.217 24.272 222.161 23.184 222.177 21.44C222.209 19.696 221.233 18.608 219.761 18.608C218.273 18.608 217.409 19.696 217.409 21.44C217.409 23.184 218.305 24.272 219.761 24.272ZM230.045 16.192V14.624H231.453V16.192H230.045ZM230.077 26V17.52H231.421V26H230.077ZM234.077 26V17.52H235.309L235.341 19.04C235.789 17.872 236.781 17.328 237.949 17.328C239.885 17.328 240.813 18.752 240.813 20.544V26H239.469V20.928C239.469 19.36 238.941 18.512 237.661 18.512C236.349 18.512 235.421 19.36 235.421 20.928V26H234.077ZM247.374 26V17.52H248.606L248.638 19.008C249.054 17.968 249.934 17.328 251.022 17.328C252.302 17.328 253.198 17.968 253.566 19.104C253.934 17.968 254.798 17.328 256.046 17.328C257.854 17.328 258.846 18.496 258.846 20.544V26H257.502V20.832C257.502 19.296 256.894 18.512 255.726 18.512C254.542 18.512 253.774 19.408 253.774 20.928V26H252.43V20.928C252.43 19.424 251.934 18.512 250.686 18.512C249.502 18.512 248.718 19.424 248.718 20.928V26H247.374ZM261.279 16.192V14.624H262.687V16.192H261.279ZM261.311 26V17.52H262.655V26H261.311ZM265.311 26V17.52H266.543L266.575 19.04C267.023 17.872 268.015 17.328 269.183 17.328C271.119 17.328 272.047 18.752 272.047 20.544V26H270.703V20.928C270.703 19.36 270.175 18.512 268.895 18.512C267.583 18.512 266.655 19.36 266.655 20.928V26H265.311ZM277.429 26.192C275.221 26.192 273.845 24.48 273.845 21.76C273.845 19.04 275.221 17.328 277.429 17.328C278.565 17.328 279.573 17.84 280.037 18.704V14.64H281.381V26H280.165L280.117 24.72C279.637 25.648 278.613 26.192 277.429 26.192ZM277.701 24.912C279.205 24.912 280.037 23.696 280.037 21.76C280.037 19.792 279.205 18.608 277.701 18.608C276.213 18.608 275.253 19.792 275.253 21.76C275.253 23.696 276.213 24.912 277.701 24.912ZM288.768 26V18.704H287.616V17.52H288.768V16.752C288.768 15.504 289.472 14.64 291.008 14.64H292.352V15.824H291.104C290.432 15.824 290.112 16.208 290.112 16.848V17.52H292.24V18.704H290.112V26H288.768ZM296.858 26.192C294.506 26.192 292.97 24.464 292.97 21.76C292.97 19.056 294.506 17.328 296.858 17.328C299.194 17.328 300.73 19.056 300.73 21.76C300.73 24.464 299.194 26.192 296.858 26.192ZM296.858 24.912C298.41 24.912 299.322 23.728 299.322 21.76C299.322 19.792 298.41 18.608 296.858 18.608C295.29 18.608 294.378 19.792 294.378 21.76C294.378 23.728 295.29 24.912 296.858 24.912ZM302.561 26V17.52H303.745L303.793 19.088C304.097 18.016 304.769 17.52 305.809 17.52H306.641V18.8H305.825C304.545 18.8 303.905 19.488 303.905 20.88V26H302.561ZM315.728 26C314.192 26 313.472 25.328 313.472 23.824V18.704H312.224V17.52H313.472V15.536H314.816V17.52H317.072V18.704H314.816V23.792C314.816 24.56 315.152 24.816 315.856 24.816H317.072V26H315.728ZM318.639 26V14.64H319.983V18.848C320.415 17.808 321.375 17.328 322.543 17.328C324.367 17.328 325.375 18.656 325.375 20.544V26H324.031V20.928C324.031 19.296 323.439 18.512 322.255 18.512C320.879 18.512 319.983 19.376 319.983 20.944V26H318.639ZM331.061 26.192C328.661 26.192 327.173 24.448 327.173 21.76C327.173 19.072 328.661 17.328 330.997 17.328C333.205 17.328 334.741 18.928 334.741 21.776V22.176H328.581C328.677 24 329.589 24.912 331.061 24.912C332.165 24.912 332.885 24.352 333.173 23.488L334.613 23.6C334.165 25.12 332.853 26.192 331.061 26.192ZM328.581 20.992H333.269C333.141 19.36 332.245 18.608 330.997 18.608C329.685 18.608 328.805 19.424 328.581 20.992ZM339.649 26.192C337.313 26.192 336.113 24.992 335.985 23.328L337.393 23.232C337.553 24.256 338.145 24.912 339.649 24.912C340.801 24.912 341.457 24.56 341.457 23.728C341.457 23.056 341.121 22.768 339.393 22.448C337.025 22 336.321 21.264 336.321 19.92C336.321 18.416 337.489 17.328 339.537 17.328C341.777 17.328 342.721 18.672 342.897 20.048L341.489 20.144C341.409 19.344 340.897 18.608 339.505 18.608C338.289 18.608 337.729 19.136 337.729 19.856C337.729 20.688 338.161 21.008 339.649 21.264C342.145 21.696 342.865 22.384 342.865 23.728C342.865 25.296 341.521 26.192 339.649 26.192ZM348.03 26.192C345.63 26.192 344.142 24.448 344.142 21.76C344.142 19.072 345.63 17.328 347.966 17.328C350.174 17.328 351.71 18.928 351.71 21.776V22.176H345.549C345.646 24 346.558 24.912 348.03 24.912C349.134 24.912 349.854 24.352 350.142 23.488L351.582 23.6C351.134 25.12 349.822 26.192 348.03 26.192ZM345.549 20.992H350.238C350.11 19.36 349.214 18.608 347.966 18.608C346.654 18.608 345.774 19.424 345.549 20.992ZM360.998 26.192C358.598 26.192 357.11 24.448 357.11 21.76C357.11 19.072 358.598 17.328 360.934 17.328C363.142 17.328 364.678 18.928 364.678 21.776V22.176H358.518C358.614 24 359.526 24.912 360.998 24.912C362.102 24.912 362.822 24.352 363.11 23.488L364.55 23.6C364.102 25.12 362.79 26.192 360.998 26.192ZM358.518 20.992H363.206C363.078 19.36 362.182 18.608 360.934 18.608C359.622 18.608 358.742 19.424 358.518 20.992ZM366.499 26V17.52H367.731L367.763 19.008C368.179 17.968 369.059 17.328 370.147 17.328C371.427 17.328 372.323 17.968 372.691 19.104C373.059 17.968 373.923 17.328 375.171 17.328C376.979 17.328 377.971 18.496 377.971 20.544V26H376.627V20.832C376.627 19.296 376.019 18.512 374.851 18.512C373.667 18.512 372.899 19.408 372.899 20.928V26H371.555V20.928C371.555 19.424 371.059 18.512 369.811 18.512C368.627 18.512 367.843 19.424 367.843 20.928V26H366.499ZM382.662 26.192C380.902 26.192 379.798 25.344 379.798 23.888C379.798 22.448 380.614 21.648 382.47 21.296L385.478 20.736C385.478 19.312 384.806 18.608 383.462 18.608C382.278 18.608 381.622 19.152 381.366 20.128L379.942 20.016C380.262 18.416 381.542 17.328 383.462 17.328C385.638 17.328 386.822 18.64 386.822 20.784V24.288C386.822 24.672 386.95 24.816 387.27 24.816H387.606V26C387.51 26.016 387.302 26.032 387.094 26.032C386.07 26.032 385.606 25.632 385.494 24.688C385.078 25.568 383.91 26.192 382.662 26.192ZM382.79 25.008C384.486 25.008 385.478 23.92 385.478 22.512V21.904L382.726 22.416C381.574 22.624 381.206 23.056 381.206 23.76C381.206 24.56 381.798 25.008 382.79 25.008ZM389.029 16.192V14.624H390.437V16.192H389.029ZM389.061 26V17.52H390.405V26H389.061ZM394.475 26C393.483 26 392.811 25.52 392.811 24.4V14.64H394.155V24.288C394.155 24.64 394.331 24.816 394.683 24.816H395.419V26H394.475ZM400.071 26.192C397.735 26.192 396.535 24.992 396.407 23.328L397.815 23.232C397.975 24.256 398.567 24.912 400.071 24.912C401.223 24.912 401.879 24.56 401.879 23.728C401.879 23.056 401.543 22.768 399.815 22.448C397.447 22 396.743 21.264 396.743 19.92C396.743 18.416 397.911 17.328 399.959 17.328C402.199 17.328 403.143 18.672 403.319 20.048L401.911 20.144C401.831 19.344 401.319 18.608 399.927 18.608C398.711 18.608 398.151 19.136 398.151 19.856C398.151 20.688 398.583 21.008 400.071 21.264C402.567 21.696 403.287 22.384 403.287 23.728C403.287 25.296 401.943 26.192 400.071 26.192ZM404.768 28.496L405.536 26H404.72V24.192H406.528V25.776L405.568 28.496H404.768ZM415.826 26.192C413.474 26.192 411.938 24.464 411.938 21.76C411.938 19.056 413.474 17.328 415.826 17.328C418.162 17.328 419.698 19.056 419.698 21.76C419.698 24.464 418.162 26.192 415.826 26.192ZM415.826 24.912C417.378 24.912 418.29 23.728 418.29 21.76C418.29 19.792 417.378 18.608 415.826 18.608C414.258 18.608 413.346 19.792 413.346 21.76C413.346 23.728 414.258 24.912 415.826 24.912ZM421.53 26V17.52H422.714L422.762 19.088C423.066 18.016 423.738 17.52 424.778 17.52H425.61V18.8H424.794C423.514 18.8 422.874 19.488 422.874 20.88V26H421.53ZM14.976 50L12.352 41.52H13.824L15.808 48.592L17.824 41.52H19.264L21.28 48.592L23.28 41.52H24.752L22.128 50H20.432L18.544 43.552L16.656 50H14.976ZM29.2795 50.192C26.9275 50.192 25.3915 48.464 25.3915 45.76C25.3915 43.056 26.9275 41.328 29.2795 41.328C31.6155 41.328 33.1515 43.056 33.1515 45.76C33.1515 48.464 31.6155 50.192 29.2795 50.192ZM29.2795 48.912C30.8315 48.912 31.7435 47.728 31.7435 45.76C31.7435 43.792 30.8315 42.608 29.2795 42.608C27.7115 42.608 26.7995 43.792 26.7995 45.76C26.7995 47.728 27.7115 48.912 29.2795 48.912ZM37.7671 50.192C36.0711 50.192 34.9831 48.992 34.9831 46.976V41.52H36.3271V46.608C36.3271 48.256 36.9031 49.008 38.1191 49.008C39.4631 49.008 40.2791 48.096 40.2791 46.576V41.52H41.6231V50H40.3431V48.624C39.8791 49.632 38.9831 50.192 37.7671 50.192ZM45.8503 50C44.8583 50 44.1863 49.52 44.1863 48.4V38.64H45.5303V48.288C45.5303 48.64 45.7063 48.816 46.0583 48.816H46.7943V50H45.8503ZM51.3661 50.192C49.1581 50.192 47.7821 48.48 47.7821 45.76C47.7821 43.04 49.1581 41.328 51.3661 41.328C52.5021 41.328 53.5101 41.84 53.9741 42.704V38.64H55.3181V50H54.1021L54.0541 48.72C53.5741 49.648 52.5501 50.192 51.3661 50.192ZM51.6381 48.912C53.1421 48.912 53.9741 47.696 53.9741 45.76C53.9741 43.792 53.1421 42.608 51.6381 42.608C50.1501 42.608 49.1901 43.792 49.1901 45.76C49.1901 47.696 50.1501 48.912 51.6381 48.912ZM62.2418 52.4V51.216H63.2178C63.8098 51.216 64.0498 51.04 64.2098 50.64L64.5138 49.84H64.0498L60.9458 41.52H62.4178L64.9458 48.592L67.3618 41.52H68.8338L65.3938 51.072C65.0738 51.984 64.4818 52.4 63.3458 52.4H62.2418ZM73.3576 50.192C71.0056 50.192 69.4696 48.464 69.4696 45.76C69.4696 43.056 71.0056 41.328 73.3576 41.328C75.6936 41.328 77.2296 43.056 77.2296 45.76C77.2296 48.464 75.6936 50.192 73.3576 50.192ZM73.3576 48.912C74.9096 48.912 75.8216 47.728 75.8216 45.76C75.8216 43.792 74.9096 42.608 73.3576 42.608C71.7896 42.608 70.8776 43.792 70.8776 45.76C70.8776 47.728 71.7896 48.912 73.3576 48.912ZM81.8453 50.192C80.1493 50.192 79.0613 48.992 79.0613 46.976V41.52H80.4053V46.608C80.4053 48.256 80.9813 49.008 82.1973 49.008C83.5413 49.008 84.3573 48.096 84.3573 46.576V41.52H85.7013V50H84.4213V48.624C83.9573 49.632 83.0613 50.192 81.8453 50.192ZM93.9284 50C92.9364 50 92.2644 49.52 92.2644 48.4V38.64H93.6084V48.288C93.6084 48.64 93.7844 48.816 94.1364 48.816H94.8724V50H93.9284ZM96.373 40.192V38.624H97.781V40.192H96.373ZM96.405 50V41.52H97.749V50H96.405ZM99.9988 50V38.64H101.343V46.08L105.471 41.52H107.263L103.919 45.12L107.407 50H105.775L103.007 46.032L101.343 47.792V50H99.9988ZM111.951 50.192C109.551 50.192 108.063 48.448 108.063 45.76C108.063 43.072 109.551 41.328 111.887 41.328C114.095 41.328 115.631 42.928 115.631 45.776V46.176H109.471C109.567 48 110.479 48.912 111.951 48.912C113.055 48.912 113.775 48.352 114.063 47.488L115.503 47.6C115.055 49.12 113.743 50.192 111.951 50.192ZM109.471 44.992H114.159C114.031 43.36 113.135 42.608 111.887 42.608C110.575 42.608 109.695 43.424 109.471 44.992ZM121.608 50V41.52H122.84L122.872 43.008C123.288 41.968 124.168 41.328 125.256 41.328C126.536 41.328 127.432 41.968 127.8 43.104C128.168 41.968 129.032 41.328 130.28 41.328C132.088 41.328 133.08 42.496 133.08 44.544V50H131.736V44.832C131.736 43.296 131.128 42.512 129.96 42.512C128.776 42.512 128.008 43.408 128.008 44.928V50H126.664V44.928C126.664 43.424 126.168 42.512 124.92 42.512C123.736 42.512 122.952 43.424 122.952 44.928V50H121.608ZM138.764 50.192C136.364 50.192 134.876 48.448 134.876 45.76C134.876 43.072 136.364 41.328 138.7 41.328C140.908 41.328 142.444 42.928 142.444 45.776V46.176H136.284C136.38 48 137.292 48.912 138.764 48.912C139.868 48.912 140.588 48.352 140.876 47.488L142.316 47.6C141.868 49.12 140.556 50.192 138.764 50.192ZM136.284 44.992H140.972C140.844 43.36 139.948 42.608 138.7 42.608C137.388 42.608 136.508 43.424 136.284 44.992ZM151.525 50C149.989 50 149.269 49.328 149.269 47.824V42.704H148.021V41.52H149.269V39.536H150.613V41.52H152.869V42.704H150.613V47.792C150.613 48.56 150.949 48.816 151.653 48.816H152.869V50H151.525ZM157.748 50.192C155.396 50.192 153.86 48.464 153.86 45.76C153.86 43.056 155.396 41.328 157.748 41.328C160.084 41.328 161.62 43.056 161.62 45.76C161.62 48.464 160.084 50.192 157.748 50.192ZM157.748 48.912C159.3 48.912 160.212 47.728 160.212 45.76C160.212 43.792 159.3 42.608 157.748 42.608C156.18 42.608 155.268 43.792 155.268 45.76C155.268 47.728 156.18 48.912 157.748 48.912ZM167.608 50V38.64H168.952V42.848C169.384 41.808 170.344 41.328 171.512 41.328C173.336 41.328 174.344 42.656 174.344 44.544V50H173V44.928C173 43.296 172.408 42.512 171.224 42.512C169.848 42.512 168.952 43.376 168.952 44.944V50H167.608ZM180.03 50.192C177.63 50.192 176.142 48.448 176.142 45.76C176.142 43.072 177.63 41.328 179.966 41.328C182.174 41.328 183.71 42.928 183.71 45.776V46.176H177.549C177.646 48 178.558 48.912 180.03 48.912C181.134 48.912 181.854 48.352 182.142 47.488L183.582 47.6C183.134 49.12 181.822 50.192 180.03 50.192ZM177.549 44.992H182.238C182.11 43.36 181.214 42.608 179.966 42.608C178.654 42.608 177.774 43.424 177.549 44.992ZM187.272 50C186.28 50 185.608 49.52 185.608 48.4V38.64H186.952V48.288C186.952 48.64 187.128 48.816 187.48 48.816H188.216V50H187.272ZM189.811 52.4V41.52H191.059L191.075 42.816C191.587 41.84 192.531 41.328 193.683 41.328C196.211 41.328 197.347 43.424 197.347 45.76C197.347 48.096 196.211 50.192 193.683 50.192C192.579 50.192 191.603 49.696 191.155 48.88V52.4H189.811ZM193.555 48.912C195.027 48.912 195.939 47.744 195.939 45.76C195.939 43.776 195.027 42.608 193.555 42.608C192.083 42.608 191.155 43.68 191.155 45.76C191.155 47.84 192.067 48.912 193.555 48.912ZM206.415 50.192C204.079 50.192 202.879 48.992 202.751 47.328L204.159 47.232C204.319 48.256 204.911 48.912 206.415 48.912C207.567 48.912 208.223 48.56 208.223 47.728C208.223 47.056 207.887 46.768 206.159 46.448C203.791 46 203.087 45.264 203.087 43.92C203.087 42.416 204.255 41.328 206.303 41.328C208.543 41.328 209.487 42.672 209.663 44.048L208.255 44.144C208.175 43.344 207.663 42.608 206.271 42.608C205.055 42.608 204.495 43.136 204.495 43.856C204.495 44.688 204.927 45.008 206.415 45.264C208.911 45.696 209.631 46.384 209.631 47.728C209.631 49.296 208.287 50.192 206.415 50.192ZM214.259 50C212.723 50 212.003 49.328 212.003 47.824V42.704H210.755V41.52H212.003V39.536H213.347V41.52H215.603V42.704H213.347V47.792C213.347 48.56 213.683 48.816 214.387 48.816H215.603V50H214.259ZM217.499 50V41.52H218.683L218.731 43.088C219.035 42.016 219.707 41.52 220.747 41.52H221.579V42.8H220.763C219.483 42.8 218.843 43.488 218.843 44.88V50H217.499ZM226.033 50.192C224.337 50.192 223.249 48.992 223.249 46.976V41.52H224.593V46.608C224.593 48.256 225.169 49.008 226.385 49.008C227.729 49.008 228.545 48.096 228.545 46.576V41.52H229.889V50H228.609V48.624C228.145 49.632 227.249 50.192 226.033 50.192ZM235.608 50.192C233.24 50.192 231.72 48.448 231.72 45.76C231.72 43.072 233.24 41.328 235.608 41.328C237.56 41.328 238.92 42.384 239.208 44.272L237.8 44.368C237.608 43.248 236.76 42.608 235.608 42.608C234.04 42.608 233.128 43.792 233.128 45.76C233.128 47.728 234.04 48.912 235.608 48.912C236.76 48.912 237.608 48.272 237.8 46.992L239.208 47.088C238.92 48.976 237.56 50.192 235.608 50.192ZM243.65 50C242.114 50 241.394 49.328 241.394 47.824V42.704H240.146V41.52H241.394V39.536H242.738V41.52H244.994V42.704H242.738V47.792C242.738 48.56 243.074 48.816 243.778 48.816H244.994V50H243.65ZM249.502 50.192C247.806 50.192 246.718 48.992 246.718 46.976V41.52H248.062V46.608C248.062 48.256 248.638 49.008 249.854 49.008C251.198 49.008 252.014 48.096 252.014 46.576V41.52H253.358V50H252.078V48.624C251.614 49.632 250.718 50.192 249.502 50.192ZM255.921 50V41.52H257.105L257.153 43.088C257.457 42.016 258.129 41.52 259.169 41.52H260.001V42.8H259.185C257.905 42.8 257.265 43.488 257.265 44.88V50H255.921ZM264.655 50.192C262.255 50.192 260.767 48.448 260.767 45.76C260.767 43.072 262.255 41.328 264.591 41.328C266.799 41.328 268.335 42.928 268.335 45.776V46.176H262.174C262.271 48 263.183 48.912 264.655 48.912C265.759 48.912 266.479 48.352 266.767 47.488L268.207 47.6C267.759 49.12 266.447 50.192 264.655 50.192ZM262.174 44.992H266.863C266.735 43.36 265.839 42.608 264.591 42.608C263.279 42.608 262.399 43.424 262.174 44.992ZM277.415 50C275.879 50 275.159 49.328 275.159 47.824V42.704H273.911V41.52H275.159V39.536H276.503V41.52H278.759V42.704H276.503V47.792C276.503 48.56 276.839 48.816 277.543 48.816H278.759V50H277.415ZM280.327 50V38.64H281.671V42.848C282.103 41.808 283.063 41.328 284.231 41.328C286.055 41.328 287.063 42.656 287.063 44.544V50H285.719V44.928C285.719 43.296 285.127 42.512 283.943 42.512C282.567 42.512 281.671 43.376 281.671 44.944V50H280.327ZM292.748 50.192C290.348 50.192 288.86 48.448 288.86 45.76C288.86 43.072 290.348 41.328 292.684 41.328C294.892 41.328 296.428 42.928 296.428 45.776V46.176H290.268C290.364 48 291.276 48.912 292.748 48.912C293.852 48.912 294.572 48.352 294.86 47.488L296.3 47.6C295.852 49.12 294.54 50.192 292.748 50.192ZM290.268 44.992H294.956C294.828 43.36 293.932 42.608 292.684 42.608C291.372 42.608 290.492 43.424 290.268 44.992ZM305.493 50.192C303.157 50.192 301.957 48.992 301.829 47.328L303.237 47.232C303.397 48.256 303.989 48.912 305.493 48.912C306.645 48.912 307.301 48.56 307.301 47.728C307.301 47.056 306.965 46.768 305.237 46.448C302.869 46 302.165 45.264 302.165 43.92C302.165 42.416 303.333 41.328 305.381 41.328C307.621 41.328 308.565 42.672 308.741 44.048L307.333 44.144C307.253 43.344 306.741 42.608 305.349 42.608C304.133 42.608 303.573 43.136 303.573 43.856C303.573 44.688 304.005 45.008 305.493 45.264C307.989 45.696 308.709 46.384 308.709 47.728C308.709 49.296 307.365 50.192 305.493 50.192ZM313.873 50.192C311.473 50.192 309.985 48.448 309.985 45.76C309.985 43.072 311.473 41.328 313.809 41.328C316.017 41.328 317.553 42.928 317.553 45.776V46.176H311.393C311.489 48 312.401 48.912 313.873 48.912C314.977 48.912 315.697 48.352 315.985 47.488L317.425 47.6C316.977 49.12 315.665 50.192 313.873 50.192ZM311.393 44.992H316.081C315.953 43.36 315.057 42.608 313.809 42.608C312.497 42.608 311.617 43.424 311.393 44.992ZM326.334 52.4H324.99V48.88C324.542 49.696 323.566 50.192 322.462 50.192C319.934 50.192 318.798 48.096 318.798 45.76C318.798 43.424 319.934 41.328 322.462 41.328C323.614 41.328 324.558 41.84 325.07 42.816L325.086 41.52H326.334V52.4ZM322.59 48.912C324.078 48.912 324.99 47.84 324.99 45.76C324.99 43.68 324.062 42.608 322.59 42.608C321.118 42.608 320.206 43.776 320.206 45.76C320.206 47.744 321.118 48.912 322.59 48.912ZM331.673 50.192C329.977 50.192 328.889 48.992 328.889 46.976V41.52H330.233V46.608C330.233 48.256 330.809 49.008 332.025 49.008C333.369 49.008 334.185 48.096 334.185 46.576V41.52H335.529V50H334.249V48.624C333.785 49.632 332.889 50.192 331.673 50.192ZM341.248 50.192C338.848 50.192 337.36 48.448 337.36 45.76C337.36 43.072 338.848 41.328 341.184 41.328C343.392 41.328 344.928 42.928 344.928 45.776V46.176H338.768C338.864 48 339.776 48.912 341.248 48.912C342.352 48.912 343.072 48.352 343.36 47.488L344.8 47.6C344.352 49.12 343.04 50.192 341.248 50.192ZM338.768 44.992H343.456C343.328 43.36 342.432 42.608 341.184 42.608C339.872 42.608 338.992 43.424 338.768 44.992ZM346.749 50V41.52H347.981L348.013 43.04C348.461 41.872 349.453 41.328 350.621 41.328C352.557 41.328 353.485 42.752 353.485 44.544V50H352.141V44.928C352.141 43.36 351.613 42.512 350.333 42.512C349.021 42.512 348.093 43.36 348.093 44.928V50H346.749ZM359.17 50.192C356.802 50.192 355.282 48.448 355.282 45.76C355.282 43.072 356.802 41.328 359.17 41.328C361.122 41.328 362.482 42.384 362.77 44.272L361.362 44.368C361.17 43.248 360.322 42.608 359.17 42.608C357.602 42.608 356.69 43.792 356.69 45.76C356.69 47.728 357.602 48.912 359.17 48.912C360.322 48.912 361.17 48.272 361.362 46.992L362.77 47.088C362.482 48.976 361.122 50.192 359.17 50.192ZM367.748 50.192C365.348 50.192 363.86 48.448 363.86 45.76C363.86 43.072 365.348 41.328 367.684 41.328C369.892 41.328 371.428 42.928 371.428 45.776V46.176H365.268C365.364 48 366.276 48.912 367.748 48.912C368.852 48.912 369.572 48.352 369.86 47.488L371.3 47.6C370.852 49.12 369.54 50.192 367.748 50.192ZM365.268 44.992H369.956C369.828 43.36 368.932 42.608 367.684 42.608C366.372 42.608 365.492 43.424 365.268 44.992ZM379.693 50.192C377.933 50.192 376.829 49.344 376.829 47.888C376.829 46.448 377.645 45.648 379.501 45.296L382.509 44.736C382.509 43.312 381.837 42.608 380.493 42.608C379.309 42.608 378.653 43.152 378.397 44.128L376.973 44.016C377.293 42.416 378.573 41.328 380.493 41.328C382.669 41.328 383.853 42.64 383.853 44.784V48.288C383.853 48.672 383.981 48.816 384.301 48.816H384.637V50C384.541 50.016 384.333 50.032 384.125 50.032C383.101 50.032 382.637 49.632 382.525 48.688C382.109 49.568 380.941 50.192 379.693 50.192ZM379.821 49.008C381.517 49.008 382.509 47.92 382.509 46.512V45.904L379.757 46.416C378.605 46.624 378.237 47.056 378.237 47.76C378.237 48.56 378.829 49.008 379.821 49.008ZM386.155 50V41.52H387.387L387.419 43.04C387.867 41.872 388.859 41.328 390.027 41.328C391.963 41.328 392.891 42.752 392.891 44.544V50H391.547V44.928C391.547 43.36 391.019 42.512 389.739 42.512C388.427 42.512 387.499 43.36 387.499 44.928V50H386.155ZM398.272 50.192C396.064 50.192 394.688 48.48 394.688 45.76C394.688 43.04 396.064 41.328 398.272 41.328C399.408 41.328 400.416 41.84 400.88 42.704V38.64H402.224V50H401.008L400.96 48.72C400.48 49.648 399.456 50.192 398.272 50.192ZM398.544 48.912C400.048 48.912 400.88 47.696 400.88 45.76C400.88 43.792 400.048 42.608 398.544 42.608C397.056 42.608 396.096 43.792 396.096 45.76C396.096 47.696 397.056 48.912 398.544 48.912ZM13.28 74V65.52H14.512L14.544 67.008C14.96 65.968 15.84 65.328 16.928 65.328C18.208 65.328 19.104 65.968 19.472 67.104C19.84 65.968 20.704 65.328 21.952 65.328C23.76 65.328 24.752 66.496 24.752 68.544V74H23.408V68.832C23.408 67.296 22.8 66.512 21.632 66.512C20.448 66.512 19.68 67.408 19.68 68.928V74H18.336V68.928C18.336 67.424 17.84 66.512 16.592 66.512C15.408 66.512 14.624 67.424 14.624 68.928V74H13.28ZM30.4358 74.192C28.0358 74.192 26.5478 72.448 26.5478 69.76C26.5478 67.072 28.0358 65.328 30.3718 65.328C32.5798 65.328 34.1158 66.928 34.1158 69.776V70.176H27.9557C28.0518 72 28.9638 72.912 30.4358 72.912C31.5398 72.912 32.2598 72.352 32.5478 71.488L33.9878 71.6C33.5398 73.12 32.2278 74.192 30.4358 74.192ZM27.9557 68.992H32.6438C32.5158 67.36 31.6198 66.608 30.3718 66.608C29.0598 66.608 28.1798 67.424 27.9557 68.992ZM39.0243 74.192C36.6883 74.192 35.4883 72.992 35.3603 71.328L36.7682 71.232C36.9283 72.256 37.5203 72.912 39.0243 72.912C40.1763 72.912 40.8323 72.56 40.8323 71.728C40.8323 71.056 40.4963 70.768 38.7682 70.448C36.4003 70 35.6963 69.264 35.6963 67.92C35.6963 66.416 36.8643 65.328 38.9123 65.328C41.1523 65.328 42.0963 66.672 42.2723 68.048L40.8643 68.144C40.7843 67.344 40.2723 66.608 38.8802 66.608C37.6643 66.608 37.1043 67.136 37.1043 67.856C37.1043 68.688 37.5363 69.008 39.0243 69.264C41.5203 69.696 42.2403 70.384 42.2403 71.728C42.2403 73.296 40.8963 74.192 39.0243 74.192ZM47.1805 74.192C44.8445 74.192 43.6445 72.992 43.5165 71.328L44.9245 71.232C45.0845 72.256 45.6765 72.912 47.1805 72.912C48.3325 72.912 48.9885 72.56 48.9885 71.728C48.9885 71.056 48.6525 70.768 46.9245 70.448C44.5565 70 43.8525 69.264 43.8525 67.92C43.8525 66.416 45.0205 65.328 47.0685 65.328C49.3085 65.328 50.2525 66.672 50.4285 68.048L49.0205 68.144C48.9405 67.344 48.4285 66.608 47.0365 66.608C45.8205 66.608 45.2605 67.136 45.2605 67.856C45.2605 68.688 45.6925 69.008 47.1805 69.264C49.6765 69.696 50.3965 70.384 50.3965 71.728C50.3965 73.296 49.0525 74.192 47.1805 74.192ZM54.7555 74.192C52.9955 74.192 51.8915 73.344 51.8915 71.888C51.8915 70.448 52.7075 69.648 54.5635 69.296L57.5715 68.736C57.5715 67.312 56.8995 66.608 55.5555 66.608C54.3715 66.608 53.7155 67.152 53.4595 68.128L52.0355 68.016C52.3555 66.416 53.6355 65.328 55.5555 65.328C57.7315 65.328 58.9155 66.64 58.9155 68.784V72.288C58.9155 72.672 59.0435 72.816 59.3635 72.816H59.6995V74C59.6035 74.016 59.3955 74.032 59.1875 74.032C58.1635 74.032 57.6995 73.632 57.5875 72.688C57.1715 73.568 56.0035 74.192 54.7555 74.192ZM54.8835 73.008C56.5795 73.008 57.5715 71.92 57.5715 70.512V69.904L54.8195 70.416C53.6675 70.624 53.2995 71.056 53.2995 71.76C53.2995 72.56 53.8915 73.008 54.8835 73.008ZM64.4023 76.592C62.5783 76.592 61.2023 75.616 60.8503 74.128L62.2582 74.032C62.5143 74.832 63.0903 75.312 64.4023 75.312C65.9383 75.312 66.7863 74.704 66.7863 73.456V72.08C66.3703 72.976 65.4103 73.552 64.3063 73.552C62.1463 73.552 60.6103 71.856 60.6103 69.44C60.6103 67.024 62.1143 65.328 64.2423 65.328C65.4263 65.328 66.4663 65.92 66.8503 66.864V65.52H68.1302V73.424C68.1302 75.408 66.7383 76.592 64.4023 76.592ZM64.3703 72.272C65.8263 72.272 66.7703 71.184 66.7863 69.44C66.8183 67.696 65.8423 66.608 64.3703 66.608C62.8823 66.608 62.0182 67.696 62.0182 69.44C62.0182 71.184 62.9143 72.272 64.3703 72.272ZM70.4199 64.192V62.624H71.8279V64.192H70.4199ZM70.4519 74V65.52H71.7959V74H70.4519ZM74.4519 74V65.52H75.6839L75.7159 67.04C76.1639 65.872 77.1559 65.328 78.3239 65.328C80.2599 65.328 81.1879 66.752 81.1879 68.544V74H79.8439V68.928C79.8439 67.36 79.3159 66.512 78.0359 66.512C76.7239 66.512 75.7959 67.36 75.7959 68.928V74H74.4519ZM86.7773 76.592C84.9533 76.592 83.5773 75.616 83.2253 74.128L84.6332 74.032C84.8893 74.832 85.4653 75.312 86.7773 75.312C88.3133 75.312 89.1613 74.704 89.1613 73.456V72.08C88.7453 72.976 87.7853 73.552 86.6813 73.552C84.5213 73.552 82.9853 71.856 82.9853 69.44C82.9853 67.024 84.4893 65.328 86.6173 65.328C87.8013 65.328 88.8413 65.92 89.2253 66.864V65.52H90.5052V73.424C90.5052 75.408 89.1133 76.592 86.7773 76.592ZM86.7453 72.272C88.2013 72.272 89.1453 71.184 89.1613 69.44C89.1933 67.696 88.2173 66.608 86.7453 66.608C85.2573 66.608 84.3932 67.696 84.3932 69.44C84.3932 71.184 85.2893 72.272 86.7453 72.272ZM97.8932 74V66.704H96.7413V65.52H97.8932V64.752C97.8932 63.504 98.5973 62.64 100.133 62.64H101.477V63.824H100.229C99.5573 63.824 99.2373 64.208 99.2373 64.848V65.52H101.365V66.704H99.2373V74H97.8932ZM105.983 74.192C103.631 74.192 102.095 72.464 102.095 69.76C102.095 67.056 103.631 65.328 105.983 65.328C108.319 65.328 109.855 67.056 109.855 69.76C109.855 72.464 108.319 74.192 105.983 74.192ZM105.983 72.912C107.535 72.912 108.447 71.728 108.447 69.76C108.447 67.792 107.535 66.608 105.983 66.608C104.415 66.608 103.503 67.792 103.503 69.76C103.503 71.728 104.415 72.912 105.983 72.912ZM111.686 74V65.52H112.87L112.918 67.088C113.222 66.016 113.894 65.52 114.934 65.52H115.766V66.8H114.95C113.67 66.8 113.03 67.488 113.03 68.88V74H111.686ZM122.117 76.4V75.216H123.093C123.685 75.216 123.925 75.04 124.085 74.64L124.389 73.84H123.925L120.821 65.52H122.293L124.821 72.592L127.237 65.52H128.709L125.269 75.072C124.949 75.984 124.357 76.4 123.221 76.4H122.117ZM133.233 74.192C130.881 74.192 129.345 72.464 129.345 69.76C129.345 67.056 130.881 65.328 133.233 65.328C135.569 65.328 137.105 67.056 137.105 69.76C137.105 72.464 135.569 74.192 133.233 74.192ZM133.233 72.912C134.785 72.912 135.697 71.728 135.697 69.76C135.697 67.792 134.785 66.608 133.233 66.608C131.665 66.608 130.753 67.792 130.753 69.76C130.753 71.728 131.665 72.912 133.233 72.912ZM141.72 74.192C140.024 74.192 138.936 72.992 138.936 70.976V65.52H140.28V70.608C140.28 72.256 140.856 73.008 142.072 73.008C143.416 73.008 144.232 72.096 144.232 70.576V65.52H145.576V74H144.296V72.624C143.832 73.632 142.936 74.192 141.72 74.192ZM150.291 70.784C150.291 69.248 150.739 68.448 151.843 67.76C153.091 66.992 153.347 66.608 153.347 65.648C153.347 64.544 152.563 63.728 151.267 63.728C149.683 63.728 148.851 64.56 148.691 66.096L147.251 66C147.443 63.888 148.931 62.384 151.267 62.384C153.347 62.384 154.787 63.744 154.787 65.648C154.787 66.992 154.147 67.696 152.771 68.592C151.907 69.152 151.667 69.664 151.667 70.784H150.291ZM150.035 74V72.192H151.843V74H150.035Z" fill="#1E2939"/>
<defs>
<linearGradient id="paint0_linear_6889_39347" x1="0" y1="44" x2="480" y2="44" gradientUnits="userSpaceOnUse">
<stop stop-color="#EEF2F0"/>
<stop offset="1" stop-color="#D0DAD2"/>
</linearGradient>
</defs>
</svg>
