<svg width="480" height="88" viewBox="0 0 480 88" fill="none" xmlns="http://www.w3.org/2000/svg">
<rect x="0.5" y="0.5" width="479" height="87" rx="7.5" fill="url(#paint0_linear_6889_39310)"/>
<rect x="0.5" y="0.5" width="479" height="87" rx="7.5" stroke="#859DA7"/>
<path d="M17.904 26.256C14.672 26.256 12.72 24.016 12.72 20.336C12.72 16.656 14.672 14.384 17.904 14.384C21.152 14.384 23.104 16.656 23.104 20.336C23.104 24.016 21.152 26.256 17.904 26.256ZM17.904 24.912C20.256 24.912 21.664 23.216 21.664 20.336C21.664 17.456 20.256 15.728 17.904 15.728C15.568 15.728 14.16 17.456 14.16 20.336C14.16 23.216 15.568 24.912 17.904 24.912ZM25.2956 26V14.64H26.6396V22.08L30.7676 17.52H32.5596L29.2156 21.12L32.7036 26H31.0716L28.3036 22.032L26.6396 23.792V26H25.2956ZM33.8926 28.496L34.6606 26H33.8446V24.192H35.6526V25.776L34.6926 28.496H33.8926ZM41.8314 26V14.64H43.7514L47.3834 24.496L50.9994 14.64H52.9194V26H51.5434V17.2L48.2954 26H46.4554L43.2074 17.2V26H41.8314ZM57.8024 26.192C56.0424 26.192 54.9384 25.344 54.9384 23.888C54.9384 22.448 55.7544 21.648 57.6104 21.296L60.6184 20.736C60.6184 19.312 59.9464 18.608 58.6024 18.608C57.4184 18.608 56.7624 19.152 56.5064 20.128L55.0824 20.016C55.4024 18.416 56.6824 17.328 58.6024 17.328C60.7784 17.328 61.9624 18.64 61.9624 20.784V24.288C61.9624 24.672 62.0904 24.816 62.4104 24.816H62.7464V26C62.6504 26.016 62.4424 26.032 62.2344 26.032C61.2104 26.032 60.7464 25.632 60.6344 24.688C60.2184 25.568 59.0504 26.192 57.8024 26.192ZM57.9304 25.008C59.6264 25.008 60.6184 23.92 60.6184 22.512V21.904L57.8664 22.416C56.7144 22.624 56.3464 23.056 56.3464 23.76C56.3464 24.56 56.9384 25.008 57.9304 25.008ZM64.2644 26V17.52H65.4484L65.4964 19.088C65.8004 18.016 66.4724 17.52 67.5124 17.52H68.3444V18.8H67.5284C66.2484 18.8 65.6084 19.488 65.6084 20.88V26H64.2644ZM72.9983 26.192C70.6303 26.192 69.1103 24.448 69.1103 21.76C69.1103 19.072 70.6303 17.328 72.9983 17.328C74.9503 17.328 76.3103 18.384 76.5983 20.272L75.1903 20.368C74.9983 19.248 74.1503 18.608 72.9983 18.608C71.4303 18.608 70.5182 19.792 70.5182 21.76C70.5182 23.728 71.4303 24.912 72.9983 24.912C74.1503 24.912 74.9983 24.272 75.1903 22.992L76.5983 23.088C76.3103 24.976 74.9503 26.192 72.9983 26.192ZM81.0484 26.192C79.3524 26.192 78.2644 24.992 78.2644 22.976V17.52H79.6084V22.608C79.6084 24.256 80.1844 25.008 81.4004 25.008C82.7444 25.008 83.5604 24.096 83.5604 22.576V17.52H84.9044V26H83.6244V24.624C83.1604 25.632 82.2644 26.192 81.0484 26.192ZM90.3993 26.192C88.0633 26.192 86.8633 24.992 86.7353 23.328L88.1432 23.232C88.3033 24.256 88.8953 24.912 90.3993 24.912C91.5513 24.912 92.2073 24.56 92.2073 23.728C92.2073 23.056 91.8713 22.768 90.1432 22.448C87.7753 22 87.0713 21.264 87.0713 19.92C87.0713 18.416 88.2393 17.328 90.2873 17.328C92.5273 17.328 93.4713 18.672 93.6473 20.048L92.2393 20.144C92.1593 19.344 91.6473 18.608 90.2552 18.608C89.0393 18.608 88.4793 19.136 88.4793 19.856C88.4793 20.688 88.9113 21.008 90.3993 21.264C92.8953 21.696 93.6153 22.384 93.6153 23.728C93.6153 25.296 92.2713 26.192 90.3993 26.192ZM99.8158 26V14.64H103.72C106.408 14.64 107.752 15.584 107.752 17.696C107.752 18.976 107 19.904 105.736 20.128C107.288 20.352 108.232 21.408 108.232 22.88C108.232 24.944 106.84 26 104.36 26H99.8158ZM101.192 19.552H103.72C105.384 19.552 106.312 18.896 106.312 17.76C106.312 16.56 105.448 15.984 103.72 15.984H101.192V19.552ZM101.192 24.656H104.36C105.912 24.656 106.792 24 106.792 22.8C106.792 21.6 105.912 20.896 104.36 20.896H101.192V24.656ZM110.343 26V17.52H111.527L111.575 19.088C111.879 18.016 112.551 17.52 113.591 17.52H114.423V18.8H113.607C112.327 18.8 111.687 19.488 111.687 20.88V26H110.343ZM119.076 26.192C116.724 26.192 115.188 24.464 115.188 21.76C115.188 19.056 116.724 17.328 119.076 17.328C121.412 17.328 122.948 19.056 122.948 21.76C122.948 24.464 121.412 26.192 119.076 26.192ZM119.076 24.912C120.628 24.912 121.54 23.728 121.54 21.76C121.54 19.792 120.628 18.608 119.076 18.608C117.508 18.608 116.596 19.792 116.596 21.76C116.596 23.728 117.508 24.912 119.076 24.912ZM127.788 26.192C125.58 26.192 124.204 24.48 124.204 21.76C124.204 19.04 125.58 17.328 127.788 17.328C128.924 17.328 129.932 17.84 130.396 18.704V14.64H131.74V26H130.524L130.476 24.72C129.996 25.648 128.972 26.192 127.788 26.192ZM128.06 24.912C129.564 24.912 130.396 23.696 130.396 21.76C130.396 19.792 129.564 18.608 128.06 18.608C126.572 18.608 125.612 19.792 125.612 21.76C125.612 23.696 126.572 24.912 128.06 24.912ZM134.507 28.4V27.216H135.483C136.075 27.216 136.315 27.04 136.475 26.64L136.779 25.84H136.315L133.211 17.52H134.683L137.211 24.592L139.627 17.52H141.099L137.659 27.072C137.339 27.984 136.747 28.4 135.611 28.4H134.507ZM146.733 26V14.64H148.077V18.848C148.509 17.808 149.469 17.328 150.637 17.328C152.461 17.328 153.469 18.656 153.469 20.544V26H152.125V20.928C152.125 19.296 151.533 18.512 150.349 18.512C148.973 18.512 148.077 19.376 148.077 20.944V26H146.733ZM158.162 26.192C156.402 26.192 155.298 25.344 155.298 23.888C155.298 22.448 156.114 21.648 157.97 21.296L160.978 20.736C160.978 19.312 160.306 18.608 158.962 18.608C157.778 18.608 157.122 19.152 156.866 20.128L155.442 20.016C155.762 18.416 157.042 17.328 158.962 17.328C161.138 17.328 162.322 18.64 162.322 20.784V24.288C162.322 24.672 162.45 24.816 162.77 24.816H163.106V26C163.01 26.016 162.802 26.032 162.594 26.032C161.57 26.032 161.106 25.632 160.994 24.688C160.578 25.568 159.41 26.192 158.162 26.192ZM158.29 25.008C159.986 25.008 160.978 23.92 160.978 22.512V21.904L158.226 22.416C157.074 22.624 156.706 23.056 156.706 23.76C156.706 24.56 157.298 25.008 158.29 25.008ZM167.681 26.192C165.345 26.192 164.145 24.992 164.017 23.328L165.424 23.232C165.585 24.256 166.177 24.912 167.681 24.912C168.833 24.912 169.489 24.56 169.489 23.728C169.489 23.056 169.153 22.768 167.424 22.448C165.057 22 164.353 21.264 164.353 19.92C164.353 18.416 165.521 17.328 167.569 17.328C169.809 17.328 170.753 18.672 170.929 20.048L169.521 20.144C169.441 19.344 168.929 18.608 167.536 18.608C166.321 18.608 165.761 19.136 165.761 19.856C165.761 20.688 166.193 21.008 167.681 21.264C170.177 21.696 170.897 22.384 170.897 23.728C170.897 25.296 169.553 26.192 167.681 26.192ZM180.217 26.192C177.849 26.192 176.329 24.448 176.329 21.76C176.329 19.072 177.849 17.328 180.217 17.328C182.169 17.328 183.529 18.384 183.817 20.272L182.409 20.368C182.217 19.248 181.369 18.608 180.217 18.608C178.649 18.608 177.737 19.792 177.737 21.76C177.737 23.728 178.649 24.912 180.217 24.912C181.369 24.912 182.217 24.272 182.409 22.992L183.817 23.088C183.529 24.976 182.169 26.192 180.217 26.192ZM188.795 26.192C186.443 26.192 184.907 24.464 184.907 21.76C184.907 19.056 186.443 17.328 188.795 17.328C191.131 17.328 192.667 19.056 192.667 21.76C192.667 24.464 191.131 26.192 188.795 26.192ZM188.795 24.912C190.347 24.912 191.259 23.728 191.259 21.76C191.259 19.792 190.347 18.608 188.795 18.608C187.227 18.608 186.315 19.792 186.315 21.76C186.315 23.728 187.227 24.912 188.795 24.912ZM194.499 26V17.52H195.731L195.763 19.04C196.211 17.872 197.203 17.328 198.371 17.328C200.307 17.328 201.235 18.752 201.235 20.544V26H199.891V20.928C199.891 19.36 199.363 18.512 198.083 18.512C196.771 18.512 195.843 19.36 195.843 20.928V26H194.499ZM208.897 16.192V14.624H210.305V16.192H208.897ZM204.081 26V18.704H202.929V17.52H204.081V16.752C204.081 15.504 204.785 14.64 206.321 14.64H207.665V15.824H206.417C205.745 15.824 205.425 16.208 205.425 16.848V17.52H207.553V18.704H205.425V26H204.081ZM208.929 26V17.52H210.273V26H208.929ZM212.921 26V17.52H214.105L214.153 19.088C214.457 18.016 215.129 17.52 216.169 17.52H217.001V18.8H216.185C214.905 18.8 214.265 19.488 214.265 20.88V26H212.921ZM218.343 26V17.52H219.575L219.607 19.008C220.023 17.968 220.903 17.328 221.991 17.328C223.271 17.328 224.167 17.968 224.535 19.104C224.903 17.968 225.767 17.328 227.015 17.328C228.823 17.328 229.815 18.496 229.815 20.544V26H228.471V20.832C228.471 19.296 227.863 18.512 226.695 18.512C225.51 18.512 224.743 19.408 224.743 20.928V26H223.399V20.928C223.399 19.424 222.903 18.512 221.655 18.512C220.471 18.512 219.687 19.424 219.687 20.928V26H218.343ZM235.498 26.192C233.098 26.192 231.61 24.448 231.61 21.76C231.61 19.072 233.098 17.328 235.434 17.328C237.642 17.328 239.178 18.928 239.178 21.776V22.176H233.018C233.114 24 234.026 24.912 235.498 24.912C236.602 24.912 237.322 24.352 237.61 23.488L239.05 23.6C238.602 25.12 237.29 26.192 235.498 26.192ZM233.018 20.992H237.706C237.578 19.36 236.682 18.608 235.434 18.608C234.122 18.608 233.242 19.424 233.018 20.992ZM244.007 26.192C241.799 26.192 240.423 24.48 240.423 21.76C240.423 19.04 241.799 17.328 244.007 17.328C245.143 17.328 246.151 17.84 246.615 18.704V14.64H247.959V26H246.743L246.695 24.72C246.215 25.648 245.191 26.192 244.007 26.192ZM244.279 24.912C245.783 24.912 246.615 23.696 246.615 21.76C246.615 19.792 245.783 18.608 244.279 18.608C242.791 18.608 241.831 19.792 241.831 21.76C241.831 23.696 242.791 24.912 244.279 24.912ZM256.802 26.192C255.042 26.192 253.938 25.344 253.938 23.888C253.938 22.448 254.754 21.648 256.61 21.296L259.618 20.736C259.618 19.312 258.946 18.608 257.602 18.608C256.418 18.608 255.762 19.152 255.506 20.128L254.082 20.016C254.402 18.416 255.682 17.328 257.602 17.328C259.778 17.328 260.962 18.64 260.962 20.784V24.288C260.962 24.672 261.09 24.816 261.41 24.816H261.746V26C261.65 26.016 261.442 26.032 261.234 26.032C260.21 26.032 259.746 25.632 259.634 24.688C259.218 25.568 258.05 26.192 256.802 26.192ZM256.93 25.008C258.626 25.008 259.618 23.92 259.618 22.512V21.904L256.866 22.416C255.714 22.624 255.346 23.056 255.346 23.76C255.346 24.56 255.938 25.008 256.93 25.008ZM265.096 26L262.008 17.52H263.48L265.944 24.624L268.408 17.52H269.88L266.792 26H265.096ZM273.443 26.192C271.683 26.192 270.579 25.344 270.579 23.888C270.579 22.448 271.395 21.648 273.251 21.296L276.259 20.736C276.259 19.312 275.587 18.608 274.243 18.608C273.059 18.608 272.403 19.152 272.147 20.128L270.723 20.016C271.043 18.416 272.323 17.328 274.243 17.328C276.419 17.328 277.603 18.64 277.603 20.784V24.288C277.603 24.672 277.731 24.816 278.051 24.816H278.387V26C278.291 26.016 278.083 26.032 277.875 26.032C276.851 26.032 276.387 25.632 276.275 24.688C275.859 25.568 274.691 26.192 273.443 26.192ZM273.571 25.008C275.267 25.008 276.259 23.92 276.259 22.512V21.904L273.507 22.416C272.355 22.624 271.987 23.056 271.987 23.76C271.987 24.56 272.579 25.008 273.571 25.008ZM279.811 16.192V14.624H281.219V16.192H279.811ZM279.843 26V17.52H281.187V26H279.843ZM285.257 26C284.265 26 283.593 25.52 283.593 24.4V14.64H284.937V24.288C284.937 24.64 285.113 24.816 285.465 24.816H286.201V26H285.257ZM290.146 26.192C288.386 26.192 287.282 25.344 287.282 23.888C287.282 22.448 288.098 21.648 289.954 21.296L292.962 20.736C292.962 19.312 292.29 18.608 290.946 18.608C289.762 18.608 289.106 19.152 288.85 20.128L287.426 20.016C287.746 18.416 289.026 17.328 290.946 17.328C293.122 17.328 294.306 18.64 294.306 20.784V24.288C294.306 24.672 294.434 24.816 294.754 24.816H295.09V26C294.994 26.016 294.786 26.032 294.578 26.032C293.554 26.032 293.09 25.632 292.978 24.688C292.562 25.568 291.394 26.192 290.146 26.192ZM290.274 25.008C291.97 25.008 292.962 23.92 292.962 22.512V21.904L290.21 22.416C289.058 22.624 288.69 23.056 288.69 23.76C288.69 24.56 289.282 25.008 290.274 25.008ZM300.434 26.192C299.25 26.192 298.29 25.648 297.81 24.72L297.762 26H296.546V14.64H297.89V18.704C298.306 18 299.25 17.328 300.434 17.328C302.674 17.328 304.082 19.04 304.082 21.76C304.082 24.48 302.674 26.192 300.434 26.192ZM300.354 24.912C301.778 24.912 302.674 23.696 302.674 21.76C302.674 19.792 301.778 18.608 300.386 18.608C298.818 18.608 297.89 19.792 297.89 21.76C297.89 23.696 298.818 24.912 300.354 24.912ZM305.873 16.192V14.624H307.281V16.192H305.873ZM305.905 26V17.52H307.249V26H305.905ZM311.319 26C310.327 26 309.655 25.52 309.655 24.4V14.64H310.999V24.288C310.999 24.64 311.175 24.816 311.527 24.816H312.263V26H311.319ZM313.764 16.192V14.624H315.172V16.192H313.764ZM313.796 26V17.52H315.14V26H313.796ZM320.165 26C318.629 26 317.909 25.328 317.909 23.824V18.704H316.661V17.52H317.909V15.536H319.253V17.52H321.509V18.704H319.253V23.792C319.253 24.56 319.589 24.816 320.293 24.816H321.509V26H320.165ZM323.539 28.4V27.216H324.515C325.107 27.216 325.347 27.04 325.507 26.64L325.811 25.84H325.347L322.243 17.52H323.715L326.243 24.592L328.659 17.52H330.131L326.691 27.072C326.371 27.984 325.779 28.4 324.643 28.4H323.539ZM339.076 26.192C336.724 26.192 335.188 24.464 335.188 21.76C335.188 19.056 336.724 17.328 339.076 17.328C341.412 17.328 342.948 19.056 342.948 21.76C342.948 24.464 341.412 26.192 339.076 26.192ZM339.076 24.912C340.628 24.912 341.54 23.728 341.54 21.76C341.54 19.792 340.628 18.608 339.076 18.608C337.508 18.608 336.596 19.792 336.596 21.76C336.596 23.728 337.508 24.912 339.076 24.912ZM344.78 26V17.52H346.012L346.044 19.04C346.492 17.872 347.484 17.328 348.652 17.328C350.588 17.328 351.516 18.752 351.516 20.544V26H350.172V20.928C350.172 19.36 349.644 18.512 348.364 18.512C347.052 18.512 346.124 19.36 346.124 20.928V26H344.78ZM360.397 26L357.405 14.64H358.909L361.245 24.112L363.565 14.64H365.133L367.469 24.112L369.789 14.64H371.309L368.317 26H366.589L364.349 17.2L362.109 26H360.397ZM375.873 26.192C373.473 26.192 371.985 24.448 371.985 21.76C371.985 19.072 373.473 17.328 375.809 17.328C378.017 17.328 379.553 18.928 379.553 21.776V22.176H373.393C373.489 24 374.401 24.912 375.873 24.912C376.977 24.912 377.697 24.352 377.985 23.488L379.425 23.6C378.977 25.12 377.665 26.192 375.873 26.192ZM373.393 20.992H378.081C377.953 19.36 377.057 18.608 375.809 18.608C374.497 18.608 373.617 19.424 373.393 20.992ZM384.382 26.192C382.174 26.192 380.798 24.48 380.798 21.76C380.798 19.04 382.174 17.328 384.382 17.328C385.518 17.328 386.526 17.84 386.99 18.704V14.64H388.334V26L387.118 26L387.07 24.72C386.59 25.648 385.566 26.192 384.382 26.192ZM384.654 24.912C386.158 24.912 386.99 23.696 386.99 21.76C386.99 19.792 386.158 18.608 384.654 18.608C383.166 18.608 382.206 19.792 382.206 21.76C382.206 23.696 383.166 24.912 384.654 24.912ZM390.983 26V17.52H392.215L392.247 19.04C392.695 17.872 393.687 17.328 394.855 17.328C396.791 17.328 397.719 18.752 397.719 20.544V26H396.375V20.928C396.375 19.36 395.847 18.512 394.567 18.512C393.255 18.512 392.327 19.36 392.327 20.928V26H390.983ZM403.405 26.192C401.005 26.192 399.517 24.448 399.517 21.76C399.517 19.072 401.005 17.328 403.341 17.328C405.549 17.328 407.085 18.928 407.085 21.776V22.176H400.924C401.021 24 401.933 24.912 403.405 24.912C404.509 24.912 405.229 24.352 405.517 23.488L406.957 23.6C406.509 25.12 405.197 26.192 403.405 26.192ZM400.924 20.992H405.613C405.485 19.36 404.589 18.608 403.341 18.608C402.029 18.608 401.149 19.424 400.924 20.992ZM411.993 26.192C409.657 26.192 408.457 24.992 408.329 23.328L409.737 23.232C409.897 24.256 410.489 24.912 411.993 24.912C413.145 24.912 413.801 24.56 413.801 23.728C413.801 23.056 413.465 22.768 411.737 22.448C409.369 22 408.665 21.264 408.665 19.92C408.665 18.416 409.833 17.328 411.881 17.328C414.121 17.328 415.065 18.672 415.241 20.048L413.833 20.144C413.753 19.344 413.241 18.608 411.849 18.608C410.633 18.608 410.073 19.136 410.073 19.856C410.073 20.688 410.505 21.008 411.993 21.264C414.489 21.696 415.209 22.384 415.209 23.728C415.209 25.296 413.865 26.192 411.993 26.192ZM420.069 26.192C417.861 26.192 416.485 24.48 416.485 21.76C416.485 19.04 417.861 17.328 420.069 17.328C421.205 17.328 422.213 17.84 422.677 18.704V14.64H424.021V26H422.805L422.757 24.72C422.277 25.648 421.253 26.192 420.069 26.192ZM420.341 24.912C421.845 24.912 422.677 23.696 422.677 21.76C422.677 19.792 421.845 18.608 420.341 18.608C418.853 18.608 417.893 19.792 417.893 21.76C417.893 23.696 418.853 24.912 420.341 24.912ZM428.709 26.192C426.949 26.192 425.845 25.344 425.845 23.888C425.845 22.448 426.661 21.648 428.517 21.296L431.525 20.736C431.525 19.312 430.853 18.608 429.509 18.608C428.325 18.608 427.669 19.152 427.413 20.128L425.989 20.016C426.309 18.416 427.589 17.328 429.509 17.328C431.685 17.328 432.869 18.64 432.869 20.784V24.288C432.869 24.672 432.997 24.816 433.317 24.816H433.653V26C433.557 26.016 433.349 26.032 433.141 26.032C432.117 26.032 431.653 25.632 431.541 24.688C431.125 25.568 429.957 26.192 428.709 26.192ZM428.837 25.008C430.533 25.008 431.525 23.92 431.525 22.512V21.904L428.773 22.416C427.621 22.624 427.253 23.056 427.253 23.76C427.253 24.56 427.845 25.008 428.837 25.008ZM435.211 28.4V27.216H436.187C436.779 27.216 437.019 27.04 437.179 26.64L437.483 25.84H437.019L433.915 17.52H435.387L437.915 24.592L440.331 17.52H441.803L438.363 27.072C438.043 27.984 437.451 28.4 436.315 28.4H435.211ZM449.724 26.192C447.964 26.192 446.86 25.344 446.86 23.888C446.86 22.448 447.676 21.648 449.532 21.296L452.54 20.736C452.54 19.312 451.868 18.608 450.524 18.608C449.34 18.608 448.684 19.152 448.428 20.128L447.004 20.016C447.324 18.416 448.604 17.328 450.524 17.328C452.7 17.328 453.884 18.64 453.884 20.784V24.288C453.884 24.672 454.012 24.816 454.332 24.816H454.668V26C454.572 26.016 454.364 26.032 454.156 26.032C453.132 26.032 452.668 25.632 452.556 24.688C452.14 25.568 450.972 26.192 449.724 26.192ZM449.852 25.008C451.548 25.008 452.54 23.92 452.54 22.512V21.904L449.788 22.416C448.636 22.624 448.268 23.056 448.268 23.76C448.268 24.56 448.86 25.008 449.852 25.008ZM458.556 26C457.02 26 456.3 25.328 456.3 23.824V18.704H455.052V17.52H456.3V15.536H457.644V17.52H459.9V18.704H457.644V23.792C457.644 24.56 457.98 24.816 458.684 24.816H459.9V26H458.556ZM16.592 50.192C14.192 50.192 12.704 48.448 12.704 45.76C12.704 43.072 14.192 41.328 16.528 41.328C18.736 41.328 20.272 42.928 20.272 45.776V46.176H14.112C14.208 48 15.12 48.912 16.592 48.912C17.696 48.912 18.416 48.352 18.704 47.488L20.144 47.6C19.696 49.12 18.384 50.192 16.592 50.192ZM14.112 44.992H18.8C18.672 43.36 17.776 42.608 16.528 42.608C15.216 42.608 14.336 43.424 14.112 44.992ZM22.0605 40.192V38.624H23.4685V40.192H22.0605ZM22.0925 50V41.52H23.4365V50H22.0925ZM28.4621 50C26.9261 50 26.2061 49.328 26.2061 47.824V42.704H24.9581V41.52H26.2061V39.536H27.5501V41.52H29.8061V42.704H27.5501V47.792C27.5501 48.56 27.8861 48.816 28.5901 48.816H29.8061V50H28.4621ZM31.3738 50V38.64H32.7178V42.848C33.1498 41.808 34.1098 41.328 35.2778 41.328C37.1018 41.328 38.1098 42.656 38.1098 44.544V50H36.7658V44.928C36.7658 43.296 36.1738 42.512 34.9898 42.512C33.6138 42.512 32.7178 43.376 32.7178 44.944V50H31.3738ZM43.7951 50.192C41.3951 50.192 39.9071 48.448 39.9071 45.76C39.9071 43.072 41.3951 41.328 43.7311 41.328C45.9391 41.328 47.4751 42.928 47.4751 45.776V46.176H41.3151C41.4111 48 42.3231 48.912 43.7951 48.912C44.8991 48.912 45.6191 48.352 45.9071 47.488L47.3471 47.6C46.8991 49.12 45.5871 50.192 43.7951 50.192ZM41.3151 44.992H46.0031C45.8751 43.36 44.9791 42.608 43.7311 42.608C42.4191 42.608 41.5391 43.424 41.3151 44.992ZM49.2956 50V41.52H50.4796L50.5276 43.088C50.8316 42.016 51.5036 41.52 52.5436 41.52H53.3756V42.8H52.5596C51.2796 42.8 50.6396 43.488 50.6396 44.88V50H49.2956ZM61.0861 50V41.584H58.7181V40.4H59.6781C60.9261 40.4 61.3741 39.984 61.3741 38.64H62.4621V50H61.0861ZM70.1623 50V47.536H64.3863V46.288L70.0663 38.64H71.5383V46.192H72.9462V47.536H71.5383V50H70.1623ZM66.0503 46.192H70.1623V40.752L66.0503 46.192ZM74.9095 43.712V41.904H76.7175V43.712H74.9095ZM74.9095 50V48.192H76.7175V50H74.9095ZM83.4835 50.256C80.7315 50.256 78.9875 47.968 78.9875 44.336C78.9875 40.688 80.7315 38.384 83.4835 38.384C86.2515 38.384 87.9955 40.672 87.9955 44.336C87.9955 47.968 86.2515 50.256 83.4835 50.256ZM83.4835 48.912C85.4515 48.912 86.5555 47.264 86.5555 44.336C86.5555 41.392 85.4515 39.728 83.4835 39.728C81.5315 39.728 80.4275 41.392 80.4275 44.336C80.4275 47.264 81.5315 48.912 83.4835 48.912ZM94.2491 50.256C91.4971 50.256 89.7531 47.968 89.7531 44.336C89.7531 40.688 91.4971 38.384 94.2491 38.384C97.0171 38.384 98.7611 40.672 98.7611 44.336C98.7611 47.968 97.0171 50.256 94.2491 50.256ZM94.2491 48.912C96.2171 48.912 97.3211 47.264 97.3211 44.336C97.3211 41.392 96.2171 39.728 94.2491 39.728C92.2971 39.728 91.1931 41.392 91.1931 44.336C91.1931 47.264 92.2971 48.912 94.2491 48.912ZM108.155 50.192C105.803 50.192 104.267 48.464 104.267 45.76C104.267 43.056 105.803 41.328 108.155 41.328C110.491 41.328 112.027 43.056 112.027 45.76C112.027 48.464 110.491 50.192 108.155 50.192ZM108.155 48.912C109.707 48.912 110.619 47.728 110.619 45.76C110.619 43.792 109.707 42.608 108.155 42.608C106.587 42.608 105.674 43.792 105.674 45.76C105.674 47.728 106.587 48.912 108.155 48.912ZM113.858 50V41.52H115.042L115.09 43.088C115.394 42.016 116.066 41.52 117.106 41.52H117.938V42.8H117.122C115.842 42.8 115.202 43.488 115.202 44.88V50H113.858ZM125.649 50V41.584H123.281V40.4H124.241C125.489 40.4 125.937 39.984 125.937 38.64H127.025V50H125.649ZM133.773 50.256C131.373 50.256 129.901 48.96 129.741 47.072L131.181 46.976C131.341 48.256 132.333 48.912 133.773 48.912C135.373 48.912 136.381 47.952 136.381 46.352C136.381 44.752 135.405 43.744 133.741 43.744C132.685 43.744 131.773 44.224 131.405 45.024H129.933L130.685 38.64H137.053V39.984H131.949L131.533 43.408C132.109 42.768 133.021 42.432 133.997 42.432C136.269 42.432 137.821 44.08 137.821 46.352C137.821 48.64 136.157 50.256 133.773 50.256ZM140.269 43.712V41.904H142.077V43.712H140.269ZM140.269 50V48.192H142.077V50H140.269ZM148.843 50.256C146.091 50.256 144.347 47.968 144.347 44.336C144.347 40.688 146.091 38.384 148.843 38.384C151.611 38.384 153.355 40.672 153.355 44.336C153.355 47.968 151.611 50.256 148.843 50.256ZM148.843 48.912C150.811 48.912 151.915 47.264 151.915 44.336C151.915 41.392 150.811 39.728 148.843 39.728C146.891 39.728 145.787 41.392 145.787 44.336C145.787 47.264 146.891 48.912 148.843 48.912ZM159.609 50.256C156.857 50.256 155.113 47.968 155.113 44.336C155.113 40.688 156.857 38.384 159.609 38.384C162.377 38.384 164.121 40.672 164.121 44.336C164.121 47.968 162.377 50.256 159.609 50.256ZM159.609 48.912C161.577 48.912 162.681 47.264 162.681 44.336C162.681 41.392 161.577 39.728 159.609 39.728C157.657 39.728 156.553 41.392 156.553 44.336C156.553 47.264 157.657 48.912 159.609 48.912ZM165.626 50V48.192H167.434V50H165.626ZM173.613 50V38.64H174.989V50H173.613ZM177.221 42.944L177.989 40.448H177.173V38.64H178.981V40.224L178.021 42.944H177.221ZM182.647 50C181.655 50 180.983 49.52 180.983 48.4V38.64H182.327V48.288C182.327 48.64 182.503 48.816 182.855 48.816H183.591V50H182.647ZM186.757 50C185.765 50 185.093 49.52 185.093 48.4V38.64H186.437V48.288C186.437 48.64 186.613 48.816 186.965 48.816H187.701V50H186.757ZM196.67 50.192C194.302 50.192 192.782 48.448 192.782 45.76C192.782 43.072 194.302 41.328 196.67 41.328C198.622 41.328 199.982 42.384 200.27 44.272L198.862 44.368C198.67 43.248 197.822 42.608 196.67 42.608C195.102 42.608 194.19 43.792 194.19 45.76C194.19 47.728 195.102 48.912 196.67 48.912C197.822 48.912 198.67 48.272 198.862 46.992L200.27 47.088C199.982 48.976 198.622 50.192 196.67 50.192ZM201.936 50V41.52H203.12L203.168 43.088C203.472 42.016 204.144 41.52 205.184 41.52H206.016V42.8H205.2C203.92 42.8 203.28 43.488 203.28 44.88V50H201.936ZM210.67 50.192C208.27 50.192 206.782 48.448 206.782 45.76C206.782 43.072 208.27 41.328 210.606 41.328C212.814 41.328 214.35 42.928 214.35 45.776V46.176H208.19C208.286 48 209.198 48.912 210.67 48.912C211.774 48.912 212.494 48.352 212.782 47.488L214.222 47.6C213.774 49.12 212.462 50.192 210.67 50.192ZM208.19 44.992H212.878C212.75 43.36 211.854 42.608 210.606 42.608C209.294 42.608 208.414 43.424 208.19 44.992ZM218.677 50.192C216.917 50.192 215.813 49.344 215.813 47.888C215.813 46.448 216.629 45.648 218.485 45.296L221.493 44.736C221.493 43.312 220.821 42.608 219.477 42.608C218.293 42.608 217.637 43.152 217.381 44.128L215.957 44.016C216.277 42.416 217.557 41.328 219.477 41.328C221.653 41.328 222.837 42.64 222.837 44.784V48.288C222.837 48.672 222.965 48.816 223.285 48.816H223.621V50C223.525 50.016 223.317 50.032 223.109 50.032C222.085 50.032 221.621 49.632 221.509 48.688C221.093 49.568 219.925 50.192 218.677 50.192ZM218.805 49.008C220.501 49.008 221.493 47.92 221.493 46.512V45.904L218.741 46.416C217.589 46.624 217.221 47.056 217.221 47.76C217.221 48.56 217.813 49.008 218.805 49.008ZM227.509 50C225.973 50 225.253 49.328 225.253 47.824V42.704H224.005V41.52H225.253V39.536H226.597V41.52H228.853V42.704H226.597V47.792C226.597 48.56 226.933 48.816 227.637 48.816H228.853V50H227.509ZM233.733 50.192C231.333 50.192 229.845 48.448 229.845 45.76C229.845 43.072 231.333 41.328 233.669 41.328C235.877 41.328 237.413 42.928 237.413 45.776V46.176H231.253C231.349 48 232.261 48.912 233.733 48.912C234.837 48.912 235.557 48.352 235.845 47.488L237.285 47.6C236.837 49.12 235.525 50.192 233.733 50.192ZM231.253 44.992H235.941C235.813 43.36 234.917 42.608 233.669 42.608C232.357 42.608 231.477 43.424 231.253 44.992ZM245.677 50.192C243.917 50.192 242.813 49.344 242.813 47.888C242.813 46.448 243.629 45.648 245.485 45.296L248.493 44.736C248.493 43.312 247.821 42.608 246.477 42.608C245.293 42.608 244.637 43.152 244.381 44.128L242.957 44.016C243.277 42.416 244.557 41.328 246.477 41.328C248.653 41.328 249.837 42.64 249.837 44.784V48.288C249.837 48.672 249.965 48.816 250.285 48.816H250.621V50C250.525 50.016 250.317 50.032 250.109 50.032C249.085 50.032 248.621 49.632 248.509 48.688C248.093 49.568 246.925 50.192 245.677 50.192ZM245.805 49.008C247.501 49.008 248.493 47.92 248.493 46.512V45.904L245.741 46.416C244.589 46.624 244.221 47.056 244.221 47.76C244.221 48.56 244.813 49.008 245.805 49.008ZM252.139 50V41.52H253.371L253.403 43.04C253.851 41.872 254.843 41.328 256.011 41.328C257.947 41.328 258.875 42.752 258.875 44.544V50H257.531V44.928C257.531 43.36 257.003 42.512 255.723 42.512C254.411 42.512 253.483 43.36 253.483 44.928V50H252.139ZM264.257 50.192C262.049 50.192 260.673 48.48 260.673 45.76C260.673 43.04 262.049 41.328 264.257 41.328C265.393 41.328 266.401 41.84 266.865 42.704V38.64H268.209V50H266.993L266.945 48.72C266.465 49.648 265.441 50.192 264.257 50.192ZM264.529 48.912C266.033 48.912 266.865 47.696 266.865 45.76C266.865 43.792 266.033 42.608 264.529 42.608C263.041 42.608 262.081 43.792 262.081 45.76C262.081 47.696 263.041 48.912 264.529 48.912ZM277.852 50.192C275.516 50.192 274.316 48.992 274.188 47.328L275.596 47.232C275.756 48.256 276.348 48.912 277.852 48.912C279.004 48.912 279.66 48.56 279.66 47.728C279.66 47.056 279.324 46.768 277.596 46.448C275.228 46 274.524 45.264 274.524 43.92C274.524 42.416 275.692 41.328 277.74 41.328C279.98 41.328 280.924 42.672 281.1 44.048L279.692 44.144C279.612 43.344 279.1 42.608 277.708 42.608C276.492 42.608 275.932 43.136 275.932 43.856C275.932 44.688 276.364 45.008 277.852 45.264C280.348 45.696 281.068 46.384 281.068 47.728C281.068 49.296 279.724 50.192 277.852 50.192ZM286.233 50.192C283.833 50.192 282.345 48.448 282.345 45.76C282.345 43.072 283.833 41.328 286.169 41.328C288.377 41.328 289.913 42.928 289.913 45.776V46.176H283.753C283.849 48 284.761 48.912 286.233 48.912C287.337 48.912 288.057 48.352 288.345 47.488L289.785 47.6C289.337 49.12 288.025 50.192 286.233 50.192ZM283.753 44.992H288.441C288.313 43.36 287.417 42.608 286.169 42.608C284.857 42.608 283.977 43.424 283.753 44.992ZM291.733 50V41.52H292.965L292.997 43.04C293.445 41.872 294.437 41.328 295.605 41.328C297.541 41.328 298.469 42.752 298.469 44.544V50H297.125V44.928C297.125 43.36 296.597 42.512 295.317 42.512C294.005 42.512 293.077 43.36 293.077 44.928V50H291.733ZM303.851 50.192C301.643 50.192 300.267 48.48 300.267 45.76C300.267 43.04 301.643 41.328 303.851 41.328C304.987 41.328 305.995 41.84 306.459 42.704V38.64H307.803V50H306.587L306.539 48.72C306.059 49.648 305.035 50.192 303.851 50.192ZM304.123 48.912C305.627 48.912 306.459 47.696 306.459 45.76C306.459 43.792 305.627 42.608 304.123 42.608C302.635 42.608 301.674 43.792 301.674 45.76C301.674 47.696 302.635 48.912 304.123 48.912ZM317.462 50C315.926 50 315.206 49.328 315.206 47.824V42.704H313.958V41.52H315.206V39.536H316.55V41.52H318.806V42.704H316.55V47.792C316.55 48.56 316.886 48.816 317.59 48.816H318.806V50H317.462ZM320.374 50V38.64H321.718V42.848C322.15 41.808 323.11 41.328 324.278 41.328C326.102 41.328 327.11 42.656 327.11 44.544V50H325.766V44.928C325.766 43.296 325.174 42.512 323.99 42.512C322.614 42.512 321.718 43.376 321.718 44.944V50H320.374ZM332.795 50.192C330.395 50.192 328.907 48.448 328.907 45.76C328.907 43.072 330.395 41.328 332.731 41.328C334.939 41.328 336.475 42.928 336.475 45.776V46.176H330.315C330.411 48 331.323 48.912 332.795 48.912C333.899 48.912 334.619 48.352 334.907 47.488L336.347 47.6C335.899 49.12 334.587 50.192 332.795 50.192ZM330.315 44.992H335.003C334.875 43.36 333.979 42.608 332.731 42.608C331.419 42.608 330.539 43.424 330.315 44.992ZM345.764 50.192C343.396 50.192 341.876 48.448 341.876 45.76C341.876 43.072 343.396 41.328 345.764 41.328C347.716 41.328 349.076 42.384 349.364 44.272L347.956 44.368C347.764 43.248 346.916 42.608 345.764 42.608C344.196 42.608 343.284 43.792 343.284 45.76C343.284 47.728 344.196 48.912 345.764 48.912C346.916 48.912 347.764 48.272 347.956 46.992L349.364 47.088C349.076 48.976 347.716 50.192 345.764 50.192ZM353.537 50.192C351.777 50.192 350.673 49.344 350.673 47.888C350.673 46.448 351.489 45.648 353.345 45.296L356.353 44.736C356.353 43.312 355.681 42.608 354.337 42.608C353.153 42.608 352.497 43.152 352.241 44.128L350.817 44.016C351.137 42.416 352.417 41.328 354.337 41.328C356.513 41.328 357.697 42.64 357.697 44.784V48.288C357.697 48.672 357.825 48.816 358.145 48.816H358.481V50C358.385 50.016 358.177 50.032 357.969 50.032C356.945 50.032 356.481 49.632 356.369 48.688C355.953 49.568 354.785 50.192 353.537 50.192ZM353.665 49.008C355.361 49.008 356.353 47.92 356.353 46.512V45.904L353.601 46.416C352.449 46.624 352.081 47.056 352.081 47.76C352.081 48.56 352.673 49.008 353.665 49.008ZM361.569 50C360.577 50 359.905 49.52 359.905 48.4V38.64H361.249V48.288C361.249 48.64 361.425 48.816 361.777 48.816H362.513V50H361.569ZM367.389 50.192C364.989 50.192 363.501 48.448 363.501 45.76C363.501 43.072 364.989 41.328 367.325 41.328C369.533 41.328 371.069 42.928 371.069 45.776V46.176H364.909C365.005 48 365.917 48.912 367.389 48.912C368.493 48.912 369.213 48.352 369.501 47.488L370.941 47.6C370.493 49.12 369.181 50.192 367.389 50.192ZM364.909 44.992H369.597C369.469 43.36 368.573 42.608 367.325 42.608C366.013 42.608 365.133 43.424 364.909 44.992ZM372.889 50V41.52H374.121L374.153 43.04C374.601 41.872 375.593 41.328 376.761 41.328C378.697 41.328 379.625 42.752 379.625 44.544V50H378.281V44.928C378.281 43.36 377.753 42.512 376.473 42.512C375.161 42.512 374.233 43.36 374.233 44.928V50H372.889ZM385.007 50.192C382.799 50.192 381.423 48.48 381.423 45.76C381.423 43.04 382.799 41.328 385.007 41.328C386.143 41.328 387.151 41.84 387.615 42.704V38.64L388.959 38.64V50H387.743L387.695 48.72C387.215 49.648 386.191 50.192 385.007 50.192ZM385.279 48.912C386.783 48.912 387.615 47.696 387.615 45.76C387.615 43.792 386.783 42.608 385.279 42.608C383.791 42.608 382.831 43.792 382.831 45.76C382.831 47.696 383.791 48.912 385.279 48.912ZM393.646 50.192C391.886 50.192 390.782 49.344 390.782 47.888C390.782 46.448 391.598 45.648 393.454 45.296L396.462 44.736C396.462 43.312 395.79 42.608 394.446 42.608C393.262 42.608 392.606 43.152 392.35 44.128L390.926 44.016C391.246 42.416 392.526 41.328 394.446 41.328C396.622 41.328 397.806 42.64 397.806 44.784V48.288C397.806 48.672 397.934 48.816 398.254 48.816H398.59V50C398.494 50.016 398.286 50.032 398.078 50.032C397.054 50.032 396.59 49.632 396.478 48.688C396.062 49.568 394.894 50.192 393.646 50.192ZM393.774 49.008C395.47 49.008 396.462 47.92 396.462 46.512V45.904L393.71 46.416C392.558 46.624 392.19 47.056 392.19 47.76C392.19 48.56 392.782 49.008 393.774 49.008ZM400.108 50V41.52H401.292L401.34 43.088C401.644 42.016 402.316 41.52 403.356 41.52H404.188V42.8H403.372C402.092 42.8 401.452 43.488 401.452 44.88V50H400.108ZM410.139 40.192V38.624H411.547V40.192H410.139ZM410.171 50V41.52H411.515V50H410.171ZM414.171 50V41.52H415.403L415.435 43.04C415.883 41.872 416.875 41.328 418.043 41.328C419.979 41.328 420.907 42.752 420.907 44.544V50H419.563V44.928C419.563 43.36 419.035 42.512 417.755 42.512C416.443 42.512 415.515 43.36 415.515 44.928V50H414.171ZM425.081 50L421.993 41.52H423.465L425.929 48.624L428.393 41.52H429.865L426.777 50H425.081ZM431.311 40.192V38.624H432.719V40.192H431.311ZM431.343 50V41.52H432.687V50H431.343ZM437.712 50C436.176 50 435.456 49.328 435.456 47.824V42.704H434.208V41.52H435.456V39.536H436.8V41.52H439.056V42.704H436.8V47.792C436.8 48.56 437.136 48.816 437.84 48.816H439.056V50H437.712ZM443.936 50.192C441.536 50.192 440.048 48.448 440.048 45.76C440.048 43.072 441.536 41.328 443.872 41.328C446.08 41.328 447.616 42.928 447.616 45.776V46.176H441.456C441.552 48 442.464 48.912 443.936 48.912C445.04 48.912 445.76 48.352 446.048 47.488L447.488 47.6C447.04 49.12 445.728 50.192 443.936 50.192ZM441.456 44.992H446.144C446.016 43.36 445.12 42.608 443.872 42.608C442.56 42.608 441.68 43.424 441.456 44.992ZM14.112 74V66.704H12.96V65.52H14.112V64.752C14.112 63.504 14.816 62.64 16.352 62.64H17.696V63.824H16.448C15.776 63.824 15.456 64.208 15.456 64.848V65.52H17.584V66.704H15.456V74H14.112ZM22.2014 74.192C19.8494 74.192 18.3134 72.464 18.3134 69.76C18.3134 67.056 19.8494 65.328 22.2014 65.328C24.5374 65.328 26.0734 67.056 26.0734 69.76C26.0734 72.464 24.5374 74.192 22.2014 74.192ZM22.2014 72.912C23.7534 72.912 24.6654 71.728 24.6654 69.76C24.6654 67.792 23.7534 66.608 22.2014 66.608C20.6334 66.608 19.7214 67.792 19.7214 69.76C19.7214 71.728 20.6334 72.912 22.2014 72.912ZM27.905 74V65.52H29.089L29.137 67.088C29.441 66.016 30.113 65.52 31.153 65.52H31.985V66.8H31.169C29.889 66.8 29.249 67.488 29.249 68.88V74H27.905ZM39.6955 74V65.584H37.3275V64.4H38.2875C39.5355 64.4 39.9835 63.984 39.9835 62.64H41.0715V74H39.6955ZM48.7716 74V71.536H42.9956V70.288L48.6756 62.64H50.1476V70.192H51.5556V71.536H50.1476V74H48.7716ZM44.6596 70.192H48.7716V64.752L44.6596 70.192ZM53.5189 67.712V65.904H55.3269V67.712H53.5189ZM53.5189 74V72.192H55.3269V74H53.5189ZM62.0929 74.256C59.3409 74.256 57.5969 71.968 57.5969 68.336C57.5969 64.688 59.3409 62.384 62.0929 62.384C64.8609 62.384 66.6049 64.672 66.6049 68.336C66.6049 71.968 64.8609 74.256 62.0929 74.256ZM62.0929 72.912C64.0609 72.912 65.1649 71.264 65.1649 68.336C65.1649 65.392 64.0609 63.728 62.0929 63.728C60.1409 63.728 59.0369 65.392 59.0369 68.336C59.0369 71.264 60.1409 72.912 62.0929 72.912ZM72.8585 74.256C70.1065 74.256 68.3625 71.968 68.3625 68.336C68.3625 64.688 70.1065 62.384 72.8585 62.384C75.6265 62.384 77.3705 64.672 77.3705 68.336C77.3705 71.968 75.6265 74.256 72.8585 74.256ZM72.8585 72.912C74.8265 72.912 75.9305 71.264 75.9305 68.336C75.9305 65.392 74.8265 63.728 72.8585 63.728C70.9065 63.728 69.8025 65.392 69.8025 68.336C69.8025 71.264 70.9065 72.912 72.8585 72.912ZM87.3399 74.192C86.1559 74.192 85.1959 73.648 84.7159 72.72L84.6679 74H83.4519V62.64H84.7959V66.704C85.2119 66 86.1559 65.328 87.3399 65.328C89.5799 65.328 90.9879 67.04 90.9879 69.76C90.9879 72.48 89.5799 74.192 87.3399 74.192ZM87.2599 72.912C88.6839 72.912 89.5799 71.696 89.5799 69.76C89.5799 67.792 88.6839 66.608 87.2919 66.608C85.7239 66.608 84.7959 67.792 84.7959 69.76C84.7959 71.696 85.7239 72.912 87.2599 72.912ZM95.318 74.192C93.558 74.192 92.454 73.344 92.454 71.888C92.454 70.448 93.27 69.648 95.126 69.296L98.134 68.736C98.134 67.312 97.462 66.608 96.118 66.608C94.934 66.608 94.278 67.152 94.022 68.128L92.598 68.016C92.918 66.416 94.198 65.328 96.118 65.328C98.294 65.328 99.478 66.64 99.478 68.784V72.288C99.478 72.672 99.606 72.816 99.926 72.816H100.262V74C100.166 74.016 99.958 74.032 99.75 74.032C98.726 74.032 98.262 73.632 98.15 72.688C97.734 73.568 96.566 74.192 95.318 74.192ZM95.446 73.008C97.142 73.008 98.134 71.92 98.134 70.512V69.904L95.382 70.416C94.23 70.624 93.862 71.056 93.862 71.76C93.862 72.56 94.454 73.008 95.446 73.008ZM104.837 74.192C102.501 74.192 101.301 72.992 101.173 71.328L102.581 71.232C102.741 72.256 103.333 72.912 104.837 72.912C105.989 72.912 106.645 72.56 106.645 71.728C106.645 71.056 106.309 70.768 104.581 70.448C102.213 70 101.509 69.264 101.509 67.92C101.509 66.416 102.677 65.328 104.725 65.328C106.965 65.328 107.909 66.672 108.085 68.048L106.677 68.144C106.597 67.344 106.085 66.608 104.693 66.608C103.477 66.608 102.917 67.136 102.917 67.856C102.917 68.688 103.349 69.008 104.837 69.264C107.333 69.696 108.053 70.384 108.053 71.728C108.053 73.296 106.709 74.192 104.837 74.192ZM113.217 74.192C110.817 74.192 109.329 72.448 109.329 69.76C109.329 67.072 110.817 65.328 113.153 65.328C115.361 65.328 116.897 66.928 116.897 69.776V70.176H110.737C110.833 72 111.745 72.912 113.217 72.912C114.321 72.912 115.041 72.352 115.329 71.488L116.769 71.6C116.321 73.12 115.009 74.192 113.217 74.192ZM110.737 68.992H115.425C115.297 67.36 114.401 66.608 113.153 66.608C111.841 66.608 110.961 67.424 110.737 68.992ZM121.726 74.192C119.518 74.192 118.142 72.48 118.142 69.76C118.142 67.04 119.518 65.328 121.726 65.328C122.862 65.328 123.87 65.84 124.334 66.704V62.64H125.678V74H124.462L124.414 72.72C123.934 73.648 122.91 74.192 121.726 74.192ZM121.998 72.912C123.502 72.912 124.334 71.696 124.334 69.76C124.334 67.792 123.502 66.608 121.998 66.608C120.51 66.608 119.549 67.792 119.549 69.76C119.549 71.696 120.51 72.912 121.998 72.912ZM135.545 74.192C133.193 74.192 131.657 72.464 131.657 69.76C131.657 67.056 133.193 65.328 135.545 65.328C137.881 65.328 139.417 67.056 139.417 69.76C139.417 72.464 137.881 74.192 135.545 74.192ZM135.545 72.912C137.097 72.912 138.009 71.728 138.009 69.76C138.009 67.792 137.097 66.608 135.545 66.608C133.977 66.608 133.065 67.792 133.065 69.76C133.065 71.728 133.977 72.912 135.545 72.912ZM141.249 74V65.52H142.481L142.513 67.04C142.961 65.872 143.953 65.328 145.121 65.328C147.057 65.328 147.985 66.752 147.985 68.544V74H146.641V68.928C146.641 67.36 146.113 66.512 144.833 66.512C143.521 66.512 142.593 67.36 142.593 68.928V74H141.249ZM154.914 76.4V75.216H155.89C156.482 75.216 156.722 75.04 156.882 74.64L157.186 73.84H156.722L153.618 65.52H155.09L157.618 72.592L160.034 65.52H161.506L158.066 75.072C157.746 75.984 157.154 76.4 156.018 76.4H154.914ZM166.03 74.192C163.678 74.192 162.142 72.464 162.142 69.76C162.142 67.056 163.678 65.328 166.03 65.328C168.366 65.328 169.902 67.056 169.902 69.76C169.902 72.464 168.366 74.192 166.03 74.192ZM166.03 72.912C167.582 72.912 168.494 71.728 168.494 69.76C168.494 67.792 167.582 66.608 166.03 66.608C164.462 66.608 163.549 67.792 163.549 69.76C163.549 71.728 164.462 72.912 166.03 72.912ZM174.517 74.192C172.821 74.192 171.733 72.992 171.733 70.976V65.52H173.077V70.608C173.077 72.256 173.653 73.008 174.869 73.008C176.213 73.008 177.029 72.096 177.029 70.576V65.52H178.373V74H177.093V72.624C176.629 73.632 175.733 74.192 174.517 74.192ZM180.936 74V65.52H182.12L182.168 67.088C182.472 66.016 183.144 65.52 184.184 65.52H185.016V66.8H184.2C182.92 66.8 182.28 67.488 182.28 68.88V74H180.936ZM190.999 76.4V65.52H192.247L192.263 66.816C192.775 65.84 193.719 65.328 194.871 65.328C197.399 65.328 198.535 67.424 198.535 69.76C198.535 72.096 197.399 74.192 194.871 74.192C193.767 74.192 192.791 73.696 192.343 72.88V76.4H190.999ZM194.743 72.912C196.215 72.912 197.127 71.744 197.127 69.76C197.127 67.776 196.215 66.608 194.743 66.608C193.271 66.608 192.343 67.68 192.343 69.76C192.343 71.84 193.255 72.912 194.743 72.912ZM200.358 74V65.52H201.542L201.59 67.088C201.894 66.016 202.566 65.52 203.606 65.52H204.438V66.8H203.622C202.342 66.8 201.702 67.488 201.702 68.88V74H200.358ZM209.092 74.192C206.692 74.192 205.204 72.448 205.204 69.76C205.204 67.072 206.692 65.328 209.028 65.328C211.236 65.328 212.772 66.928 212.772 69.776V70.176H206.612C206.708 72 207.62 72.912 209.092 72.912C210.196 72.912 210.916 72.352 211.204 71.488L212.644 71.6C212.196 73.12 210.884 74.192 209.092 74.192ZM206.612 68.992H211.3C211.172 67.36 210.276 66.608 209.028 66.608C207.716 66.608 206.836 67.424 206.612 68.992ZM215.096 74V66.704H213.944V65.52H215.096V64.752C215.096 63.504 215.8 62.64 217.336 62.64H218.68V63.824H217.432C216.76 63.824 216.44 64.208 216.44 64.848V65.52H218.568V66.704H216.44V74H215.096ZM223.186 74.192C220.786 74.192 219.298 72.448 219.298 69.76C219.298 67.072 220.786 65.328 223.122 65.328C225.33 65.328 226.866 66.928 226.866 69.776V70.176H220.706C220.802 72 221.714 72.912 223.186 72.912C224.29 72.912 225.01 72.352 225.298 71.488L226.738 71.6C226.29 73.12 224.978 74.192 223.186 74.192ZM220.706 68.992H225.394C225.266 67.36 224.37 66.608 223.122 66.608C221.81 66.608 220.93 67.424 220.706 68.992ZM228.686 74V65.52H229.87L229.918 67.088C230.222 66.016 230.894 65.52 231.934 65.52H232.766V66.8H231.95C230.67 66.8 230.03 67.488 230.03 68.88V74H228.686ZM237.42 74.192C235.02 74.192 233.532 72.448 233.532 69.76C233.532 67.072 235.02 65.328 237.356 65.328C239.564 65.328 241.1 66.928 241.1 69.776V70.176H234.94C235.036 72 235.948 72.912 237.42 72.912C238.524 72.912 239.244 72.352 239.532 71.488L240.972 71.6C240.524 73.12 239.212 74.192 237.42 74.192ZM234.94 68.992H239.628C239.5 67.36 238.604 66.608 237.356 66.608C236.044 66.608 235.164 67.424 234.94 68.992ZM242.921 74V65.52H244.153L244.185 67.04C244.633 65.872 245.625 65.328 246.793 65.328C248.729 65.328 249.657 66.752 249.657 68.544V74H248.313V68.928C248.313 67.36 247.785 66.512 246.505 66.512C245.193 66.512 244.265 67.36 244.265 68.928V74H242.921ZM255.342 74.192C252.974 74.192 251.454 72.448 251.454 69.76C251.454 67.072 252.974 65.328 255.342 65.328C257.294 65.328 258.654 66.384 258.942 68.272L257.534 68.368C257.342 67.248 256.494 66.608 255.342 66.608C253.774 66.608 252.862 67.792 252.862 69.76C252.862 71.728 253.774 72.912 255.342 72.912C256.494 72.912 257.342 72.272 257.534 70.992L258.942 71.088C258.654 72.976 257.294 74.192 255.342 74.192ZM263.92 74.192C261.52 74.192 260.032 72.448 260.032 69.76C260.032 67.072 261.52 65.328 263.856 65.328C266.064 65.328 267.6 66.928 267.6 69.776V70.176H261.44C261.536 72 262.448 72.912 263.92 72.912C265.024 72.912 265.744 72.352 266.032 71.488L267.472 71.6C267.024 73.12 265.712 74.192 263.92 74.192ZM261.44 68.992H266.128C266 67.36 265.104 66.608 263.856 66.608C262.544 66.608 261.664 67.424 261.44 68.992ZM272.509 74.192C270.173 74.192 268.973 72.992 268.845 71.328L270.253 71.232C270.413 72.256 271.005 72.912 272.509 72.912C273.661 72.912 274.317 72.56 274.317 71.728C274.317 71.056 273.981 70.768 272.253 70.448C269.885 70 269.181 69.264 269.181 67.92C269.181 66.416 270.349 65.328 272.397 65.328C274.637 65.328 275.581 66.672 275.757 68.048L274.349 68.144C274.269 67.344 273.757 66.608 272.365 66.608C271.149 66.608 270.589 67.136 270.589 67.856C270.589 68.688 271.021 69.008 272.509 69.264C275.005 69.696 275.725 70.384 275.725 71.728C275.725 73.296 274.381 74.192 272.509 74.192ZM277.157 74V72.192H278.965V74H277.157Z" fill="#1E2939"/>
<defs>
<linearGradient id="paint0_linear_6889_39310" x1="0" y1="44" x2="480" y2="44" gradientUnits="userSpaceOnUse">
<stop stop-color="#EFF3F6"/>
<stop offset="1" stop-color="#CEDBE3"/>
</linearGradient>
</defs>
</svg>
