<svg width="480" height="64" viewBox="0 0 480 64" fill="none" xmlns="http://www.w3.org/2000/svg">
<rect x="0.5" y="0.5" width="479" height="63" rx="7.5" fill="url(#paint0_linear_6889_39373)"/>
<rect x="0.5" y="0.5" width="479" height="63" rx="7.5" stroke="#799A84"/>
<path d="M13.472 26V14.64H14.848V26H13.472ZM17.2885 18.896L17.0325 15.92V14.64H18.4405V15.92L18.1845 18.896H17.2885ZM22.5963 26L19.5083 17.52H20.9803L23.4443 24.624L25.9083 17.52H27.3802L24.2923 26H22.5963ZM31.9045 26.192C29.5045 26.192 28.0165 24.448 28.0165 21.76C28.0165 19.072 29.5045 17.328 31.8405 17.328C34.0485 17.328 35.5845 18.928 35.5845 21.776V22.176H29.4245C29.5205 24 30.4325 24.912 31.9045 24.912C33.0085 24.912 33.7285 24.352 34.0165 23.488L35.4565 23.6C35.0085 25.12 33.6965 26.192 31.9045 26.192ZM29.4245 20.992H34.1125C33.9845 19.36 33.0885 18.608 31.8405 18.608C30.5285 18.608 29.6485 19.424 29.4245 20.992ZM44.5693 26.192C42.3613 26.192 40.9853 24.48 40.9853 21.76C40.9853 19.04 42.3613 17.328 44.5693 17.328C45.7053 17.328 46.7133 17.84 47.1773 18.704V14.64H48.5213V26H47.3053L47.2573 24.72C46.7773 25.648 45.7533 26.192 44.5693 26.192ZM44.8413 24.912C46.3453 24.912 47.1773 23.696 47.1773 21.76C47.1773 19.792 46.3453 18.608 44.8413 18.608C43.3533 18.608 42.3932 19.792 42.3932 21.76C42.3932 23.696 43.3533 24.912 44.8413 24.912ZM54.2326 26.192C51.8806 26.192 50.3446 24.464 50.3446 21.76C50.3446 19.056 51.8806 17.328 54.2326 17.328C56.5686 17.328 58.1046 19.056 58.1046 21.76C58.1046 24.464 56.5686 26.192 54.2326 26.192ZM54.2326 24.912C55.7846 24.912 56.6966 23.728 56.6966 21.76C56.6966 19.792 55.7846 18.608 54.2326 18.608C52.6646 18.608 51.7526 19.792 51.7526 21.76C51.7526 23.728 52.6646 24.912 54.2326 24.912ZM59.9363 26V17.52H61.1683L61.2003 19.04C61.6483 17.872 62.6403 17.328 63.8083 17.328C65.7443 17.328 66.6723 18.752 66.6723 20.544V26H65.3283V20.928C65.3283 19.36 64.8003 18.512 63.5203 18.512C62.2083 18.512 61.2803 19.36 61.2803 20.928V26H59.9363ZM72.3576 26.192C69.9576 26.192 68.4696 24.448 68.4696 21.76C68.4696 19.072 69.9576 17.328 72.2936 17.328C74.5016 17.328 76.0376 18.928 76.0376 21.776V22.176H69.8776C69.9736 24 70.8856 24.912 72.3576 24.912C73.4616 24.912 74.1816 24.352 74.4696 23.488L75.9096 23.6C75.4616 25.12 74.1496 26.192 72.3576 26.192ZM69.8776 20.992H74.5656C74.4376 19.36 73.5416 18.608 72.2936 18.608C70.9816 18.608 70.1016 19.424 69.8776 20.992ZM85.1024 26.192C82.7664 26.192 81.5664 24.992 81.4384 23.328L82.8464 23.232C83.0064 24.256 83.5984 24.912 85.1024 24.912C86.2544 24.912 86.9104 24.56 86.9104 23.728C86.9104 23.056 86.5744 22.768 84.8464 22.448C82.4784 22 81.7744 21.264 81.7744 19.92C81.7744 18.416 82.9424 17.328 84.9904 17.328C87.2304 17.328 88.1744 18.672 88.3504 20.048L86.9424 20.144C86.8624 19.344 86.3504 18.608 84.9584 18.608C83.7424 18.608 83.1824 19.136 83.1824 19.856C83.1824 20.688 83.6144 21.008 85.1024 21.264C87.5984 21.696 88.3184 22.384 88.3184 23.728C88.3184 25.296 86.9744 26.192 85.1024 26.192ZM93.4826 26.192C91.1306 26.192 89.5946 24.464 89.5946 21.76C89.5946 19.056 91.1306 17.328 93.4826 17.328C95.8186 17.328 97.3546 19.056 97.3546 21.76C97.3546 24.464 95.8186 26.192 93.4826 26.192ZM93.4826 24.912C95.0346 24.912 95.9466 23.728 95.9466 21.76C95.9466 19.792 95.0346 18.608 93.4826 18.608C91.9146 18.608 91.0026 19.792 91.0026 21.76C91.0026 23.728 91.9146 24.912 93.4826 24.912ZM99.1863 26V17.52H100.418L100.45 19.008C100.866 17.968 101.746 17.328 102.834 17.328C104.114 17.328 105.01 17.968 105.378 19.104C105.746 17.968 106.61 17.328 107.858 17.328C109.666 17.328 110.658 18.496 110.658 20.544V26H109.314V20.832C109.314 19.296 108.706 18.512 107.538 18.512C106.354 18.512 105.586 19.408 105.586 20.928V26H104.242V20.928C104.242 19.424 103.746 18.512 102.498 18.512C101.314 18.512 100.53 19.424 100.53 20.928V26H99.1863ZM116.342 26.192C113.942 26.192 112.454 24.448 112.454 21.76C112.454 19.072 113.942 17.328 116.278 17.328C118.486 17.328 120.022 18.928 120.022 21.776V22.176H113.862C113.958 24 114.87 24.912 116.342 24.912C117.446 24.912 118.166 24.352 118.454 23.488L119.894 23.6C119.446 25.12 118.134 26.192 116.342 26.192ZM113.862 20.992H118.55C118.422 19.36 117.526 18.608 116.278 18.608C114.966 18.608 114.086 19.424 113.862 20.992ZM129.007 26.192C126.799 26.192 125.423 24.48 125.423 21.76C125.423 19.04 126.799 17.328 129.007 17.328C130.143 17.328 131.151 17.84 131.615 18.704V14.64H132.959V26H131.743L131.695 24.72C131.215 25.648 130.191 26.192 129.007 26.192ZM129.279 24.912C130.783 24.912 131.615 23.696 131.615 21.76C131.615 19.792 130.783 18.608 129.279 18.608C127.791 18.608 126.831 19.792 126.831 21.76C126.831 23.696 127.791 24.912 129.279 24.912ZM135.17 16.192V14.624H136.578V16.192H135.17ZM135.202 26V17.52H136.546V26H135.202ZM142.168 28.592C140.344 28.592 138.968 27.616 138.616 26.128L140.024 26.032C140.28 26.832 140.856 27.312 142.168 27.312C143.704 27.312 144.552 26.704 144.552 25.456V24.08C144.136 24.976 143.176 25.552 142.072 25.552C139.912 25.552 138.376 23.856 138.376 21.44C138.376 19.024 139.88 17.328 142.008 17.328C143.192 17.328 144.232 17.92 144.616 18.864V17.52H145.896V25.424C145.896 27.408 144.504 28.592 142.168 28.592ZM142.136 24.272C143.592 24.272 144.536 23.184 144.552 21.44C144.584 19.696 143.608 18.608 142.136 18.608C140.648 18.608 139.784 19.696 139.784 21.44C139.784 23.184 140.68 24.272 142.136 24.272ZM151.512 28.592C149.688 28.592 148.312 27.616 147.96 26.128L149.368 26.032C149.624 26.832 150.2 27.312 151.512 27.312C153.048 27.312 153.896 26.704 153.896 25.456V24.08C153.48 24.976 152.52 25.552 151.416 25.552C149.256 25.552 147.72 23.856 147.72 21.44C147.72 19.024 149.224 17.328 151.352 17.328C152.536 17.328 153.576 17.92 153.96 18.864V17.52H155.24V25.424C155.24 27.408 153.848 28.592 151.512 28.592ZM151.48 24.272C152.936 24.272 153.88 23.184 153.896 21.44C153.928 19.696 152.952 18.608 151.48 18.608C149.992 18.608 149.128 19.696 149.128 21.44C149.128 23.184 150.024 24.272 151.48 24.272ZM157.529 16.192V14.624H158.937V16.192H157.529ZM157.561 26V17.52H158.905V26H157.561ZM161.561 26V17.52H162.793L162.825 19.04C163.273 17.872 164.265 17.328 165.433 17.328C167.369 17.328 168.297 18.752 168.297 20.544V26H166.953V20.928C166.953 19.36 166.425 18.512 165.145 18.512C163.833 18.512 162.905 19.36 162.905 20.928V26H161.561ZM173.887 28.592C172.063 28.592 170.687 27.616 170.335 26.128L171.743 26.032C171.999 26.832 172.575 27.312 173.887 27.312C175.423 27.312 176.271 26.704 176.271 25.456V24.08C175.855 24.976 174.895 25.552 173.791 25.552C171.631 25.552 170.095 23.856 170.095 21.44C170.095 19.024 171.599 17.328 173.727 17.328C174.911 17.328 175.951 17.92 176.335 18.864V17.52H177.615V25.424C177.615 27.408 176.223 28.592 173.887 28.592ZM173.855 24.272C175.311 24.272 176.255 23.184 176.271 21.44C176.303 19.696 175.327 18.608 173.855 18.608C172.367 18.608 171.503 19.696 171.503 21.44C171.503 23.184 172.399 24.272 173.855 24.272ZM187.483 26.192C185.131 26.192 183.595 24.464 183.595 21.76C183.595 19.056 185.131 17.328 187.483 17.328C189.819 17.328 191.355 19.056 191.355 21.76C191.355 24.464 189.819 26.192 187.483 26.192ZM187.483 24.912C189.035 24.912 189.947 23.728 189.947 21.76C189.947 19.792 189.035 18.608 187.483 18.608C185.915 18.608 185.003 19.792 185.003 21.76C185.003 23.728 185.915 24.912 187.483 24.912ZM193.186 26V17.52H194.418L194.45 19.04C194.898 17.872 195.89 17.328 197.058 17.328C198.994 17.328 199.922 18.752 199.922 20.544V26H198.578V20.928C198.578 19.36 198.05 18.512 196.77 18.512C195.458 18.512 194.53 19.36 194.53 20.928V26H193.186ZM206.851 28.4V27.216H207.827C208.419 27.216 208.659 27.04 208.819 26.64L209.123 25.84H208.659L205.555 17.52H207.027L209.555 24.592L211.971 17.52H213.443L210.003 27.072C209.683 27.984 209.091 28.4 207.955 28.4H206.851ZM217.967 26.192C215.615 26.192 214.079 24.464 214.079 21.76C214.079 19.056 215.615 17.328 217.967 17.328C220.303 17.328 221.839 19.056 221.839 21.76C221.839 24.464 220.303 26.192 217.967 26.192ZM217.967 24.912C219.519 24.912 220.431 23.728 220.431 21.76C220.431 19.792 219.519 18.608 217.967 18.608C216.399 18.608 215.487 19.792 215.487 21.76C215.487 23.728 216.399 24.912 217.967 24.912ZM226.455 26.192C224.759 26.192 223.671 24.992 223.671 22.976V17.52H225.015V22.608C225.015 24.256 225.591 25.008 226.807 25.008C228.151 25.008 228.967 24.096 228.967 22.576V17.52H230.311V26H229.031V24.624C228.567 25.632 227.671 26.192 226.455 26.192ZM232.874 26V17.52H234.058L234.106 19.088C234.41 18.016 235.082 17.52 236.122 17.52H236.954V18.8H236.138C234.858 18.8 234.218 19.488 234.218 20.88V26H232.874ZM246.824 26.192C245.64 26.192 244.68 25.648 244.2 24.72L244.152 26H242.936V14.64L244.28 14.64V18.704C244.696 18 245.64 17.328 246.824 17.328C249.064 17.328 250.472 19.04 250.472 21.76C250.472 24.48 249.064 26.192 246.824 26.192ZM246.744 24.912C248.168 24.912 249.064 23.696 249.064 21.76C249.064 19.792 248.168 18.608 246.776 18.608C245.208 18.608 244.28 19.792 244.28 21.76C244.28 23.696 245.208 24.912 246.744 24.912ZM252.296 26V17.52H253.48L253.528 19.088C253.832 18.016 254.504 17.52 255.544 17.52H256.376V18.8H255.56C254.28 18.8 253.64 19.488 253.64 20.88V26H252.296ZM260.006 26.192C258.246 26.192 257.142 25.344 257.142 23.888C257.142 22.448 257.958 21.648 259.814 21.296L262.822 20.736C262.822 19.312 262.15 18.608 260.806 18.608C259.622 18.608 258.966 19.152 258.71 20.128L257.286 20.016C257.606 18.416 258.886 17.328 260.806 17.328C262.982 17.328 264.166 18.64 264.166 20.784V24.288C264.166 24.672 264.294 24.816 264.614 24.816H264.95V26C264.854 26.016 264.646 26.032 264.438 26.032C263.414 26.032 262.95 25.632 262.838 24.688C262.422 25.568 261.254 26.192 260.006 26.192ZM260.134 25.008C261.83 25.008 262.822 23.92 262.822 22.512V21.904L260.07 22.416C258.918 22.624 258.549 23.056 258.549 23.76C258.549 24.56 259.142 25.008 260.134 25.008ZM266.468 26V17.52H267.7L267.732 19.04C268.18 17.872 269.172 17.328 270.34 17.328C272.276 17.328 273.204 18.752 273.204 20.544V26H271.86V20.928C271.86 19.36 271.332 18.512 270.052 18.512C268.74 18.512 267.812 19.36 267.812 20.928V26H266.468ZM278.585 26.192C276.377 26.192 275.001 24.48 275.001 21.76C275.001 19.04 276.377 17.328 278.585 17.328C279.721 17.328 280.729 17.84 281.193 18.704V14.64H282.537V26H281.321L281.273 24.72C280.793 25.648 279.769 26.192 278.585 26.192ZM278.857 24.912C280.361 24.912 281.193 23.696 281.193 21.76C281.193 19.792 280.361 18.608 278.857 18.608C277.369 18.608 276.409 19.792 276.409 21.76C276.409 23.696 277.369 24.912 278.857 24.912ZM291.381 26.192C289.621 26.192 288.517 25.344 288.517 23.888C288.517 22.448 289.333 21.648 291.189 21.296L294.197 20.736C294.197 19.312 293.525 18.608 292.181 18.608C290.997 18.608 290.341 19.152 290.085 20.128L288.661 20.016C288.981 18.416 290.261 17.328 292.181 17.328C294.357 17.328 295.541 18.64 295.541 20.784V24.288C295.541 24.672 295.669 24.816 295.989 24.816H296.325V26C296.229 26.016 296.021 26.032 295.812 26.032C294.789 26.032 294.325 25.632 294.213 24.688C293.797 25.568 292.629 26.192 291.381 26.192ZM291.509 25.008C293.205 25.008 294.197 23.92 294.197 22.512V21.904L291.445 22.416C290.293 22.624 289.924 23.056 289.924 23.76C289.924 24.56 290.517 25.008 291.509 25.008ZM297.843 26V17.52H299.075L299.107 19.04C299.555 17.872 300.547 17.328 301.715 17.328C303.651 17.328 304.579 18.752 304.579 20.544V26H303.235V20.928C303.235 19.36 302.707 18.512 301.427 18.512C300.115 18.512 299.187 19.36 299.187 20.928V26H297.843ZM309.96 26.192C307.752 26.192 306.376 24.48 306.376 21.76C306.376 19.04 307.752 17.328 309.96 17.328C311.096 17.328 312.104 17.84 312.568 18.704V14.64H313.912V26H312.696L312.648 24.72C312.168 25.648 311.144 26.192 309.96 26.192ZM310.232 24.912C311.736 24.912 312.568 23.696 312.568 21.76C312.568 19.792 311.736 18.608 310.232 18.608C308.744 18.608 307.784 19.792 307.784 21.76C307.784 23.696 308.744 24.912 310.232 24.912ZM321.299 26V18.704H320.148V17.52H321.299V16.752C321.299 15.504 322.004 14.64 323.54 14.64H324.884V15.824H323.636C322.964 15.824 322.644 16.208 322.644 16.848V17.52H324.772V18.704H322.644V26H321.299ZM329.389 26.192C327.037 26.192 325.501 24.464 325.501 21.76C325.501 19.056 327.037 17.328 329.389 17.328C331.725 17.328 333.261 19.056 333.261 21.76C333.261 24.464 331.725 26.192 329.389 26.192ZM329.389 24.912C330.941 24.912 331.853 23.728 331.853 21.76C331.853 19.792 330.941 18.608 329.389 18.608C327.821 18.608 326.909 19.792 326.909 21.76C326.909 23.728 327.821 24.912 329.389 24.912ZM337.877 26.192C336.181 26.192 335.093 24.992 335.093 22.976V17.52H336.437V22.608C336.437 24.256 337.013 25.008 338.229 25.008C339.573 25.008 340.389 24.096 340.389 22.576V17.52H341.733V26H340.453V24.624C339.989 25.632 339.093 26.192 337.877 26.192ZM344.296 26V17.52H345.528L345.56 19.04C346.008 17.872 347 17.328 348.168 17.328C350.104 17.328 351.032 18.752 351.032 20.544V26H349.688V20.928C349.688 19.36 349.16 18.512 347.88 18.512C346.568 18.512 345.64 19.36 345.64 20.928V26H344.296ZM356.413 26.192C354.205 26.192 352.829 24.48 352.829 21.76C352.829 19.04 354.205 17.328 356.413 17.328C357.549 17.328 358.557 17.84 359.021 18.704V14.64H360.365V26H359.149L359.101 24.72C358.621 25.648 357.597 26.192 356.413 26.192ZM356.685 24.912C358.189 24.912 359.021 23.696 359.021 21.76C359.021 19.792 358.189 18.608 356.685 18.608C355.197 18.608 354.237 19.792 354.237 21.76C354.237 23.696 355.197 24.912 356.685 24.912ZM370.233 26.192C367.833 26.192 366.345 24.448 366.345 21.76C366.345 19.072 367.833 17.328 370.169 17.328C372.377 17.328 373.913 18.928 373.913 21.776V22.176H367.753C367.849 24 368.761 24.912 370.233 24.912C371.337 24.912 372.057 24.352 372.345 23.488L373.785 23.6C373.337 25.12 372.025 26.192 370.233 26.192ZM367.753 20.992H372.441C372.313 19.36 371.417 18.608 370.169 18.608C368.857 18.608 367.977 19.424 367.753 20.992ZM377.643 26L374.555 17.52H376.027L378.491 24.624L380.955 17.52H382.427L379.339 26H377.643ZM386.951 26.192C384.551 26.192 383.063 24.448 383.063 21.76C383.063 19.072 384.551 17.328 386.887 17.328C389.095 17.328 390.631 18.928 390.631 21.776V22.176H384.471C384.567 24 385.479 24.912 386.951 24.912C388.055 24.912 388.775 24.352 389.063 23.488L390.503 23.6C390.055 25.12 388.743 26.192 386.951 26.192ZM384.471 20.992H389.159C389.031 19.36 388.135 18.608 386.887 18.608C385.575 18.608 384.695 19.424 384.471 20.992ZM392.452 26V17.52H393.636L393.684 19.088C393.988 18.016 394.66 17.52 395.7 17.52H396.532V18.8H395.716C394.436 18.8 393.796 19.488 393.796 20.88V26H392.452ZM398.476 28.4V27.216H399.452C400.044 27.216 400.284 27.04 400.444 26.64L400.748 25.84H400.284L397.18 17.52H398.652L401.18 24.592L403.596 17.52H405.068L401.628 27.072C401.308 27.984 400.716 28.4 399.58 28.4H398.476ZM409.415 26C407.879 26 407.159 25.328 407.159 23.824V18.704H405.911V17.52H407.159V15.536H408.503V17.52H410.759V18.704H408.503V23.792C408.503 24.56 408.839 24.816 409.543 24.816H410.759V26H409.415ZM412.327 26V14.64H413.671V18.848C414.103 17.808 415.063 17.328 416.231 17.328C418.055 17.328 419.063 18.656 419.063 20.544V26H417.719V20.928C417.719 19.296 417.127 18.512 415.943 18.512C414.567 18.512 413.671 19.376 413.671 20.944V26H412.327ZM421.498 16.192V14.624H422.906V16.192H421.498ZM421.53 26V17.52H422.874V26H421.53ZM425.53 26V17.52H426.762L426.794 19.04C427.242 17.872 428.234 17.328 429.402 17.328C431.338 17.328 432.266 18.752 432.266 20.544V26H430.922V20.928C430.922 19.36 430.394 18.512 429.114 18.512C427.802 18.512 426.874 19.36 426.874 20.928V26H425.53ZM437.855 28.592C436.031 28.592 434.655 27.616 434.303 26.128L435.711 26.032C435.967 26.832 436.543 27.312 437.855 27.312C439.391 27.312 440.239 26.704 440.239 25.456V24.08C439.823 24.976 438.863 25.552 437.759 25.552C435.599 25.552 434.063 23.856 434.063 21.44C434.063 19.024 435.567 17.328 437.695 17.328C438.879 17.328 439.919 17.92 440.303 18.864V17.52H441.583V25.424C441.583 27.408 440.191 28.592 437.855 28.592ZM437.823 24.272C439.279 24.272 440.223 23.184 440.239 21.44C440.271 19.696 439.295 18.608 437.823 18.608C436.335 18.608 435.471 19.696 435.471 21.44C435.471 23.184 436.367 24.272 437.823 24.272ZM448.331 26V14.64H449.707V26H448.331ZM13.28 50V41.52H14.512L14.544 43.04C14.992 41.872 15.984 41.328 17.152 41.328C19.088 41.328 20.016 42.752 20.016 44.544V50H18.672V44.928C18.672 43.36 18.144 42.512 16.864 42.512C15.552 42.512 14.624 43.36 14.624 44.928V50H13.28ZM25.7014 50.192C23.3014 50.192 21.8134 48.448 21.8134 45.76C21.8134 43.072 23.3014 41.328 25.6374 41.328C27.8454 41.328 29.3814 42.928 29.3814 45.776V46.176H23.2214C23.3174 48 24.2294 48.912 25.7014 48.912C26.8054 48.912 27.5254 48.352 27.8134 47.488L29.2534 47.6C28.8054 49.12 27.4934 50.192 25.7014 50.192ZM23.2214 44.992H27.9094C27.7814 43.36 26.8854 42.608 25.6374 42.608C24.3254 42.608 23.4454 43.424 23.2214 44.992ZM34.5139 50.192C32.1139 50.192 30.6259 48.448 30.6259 45.76C30.6259 43.072 32.1139 41.328 34.4499 41.328C36.6579 41.328 38.1939 42.928 38.1939 45.776V46.176H32.0339C32.1299 48 33.0419 48.912 34.5139 48.912C35.6179 48.912 36.3379 48.352 36.6259 47.488L38.0659 47.6C37.6179 49.12 36.3059 50.192 34.5139 50.192ZM32.0339 44.992H36.7219C36.5939 43.36 35.6979 42.608 34.4499 42.608C33.1379 42.608 32.2579 43.424 32.0339 44.992ZM43.0224 50.192C40.8144 50.192 39.4384 48.48 39.4384 45.76C39.4384 43.04 40.8144 41.328 43.0224 41.328C44.1584 41.328 45.1664 41.84 45.6304 42.704V38.64H46.9744V50H45.7584L45.7104 48.72C45.2304 49.648 44.2064 50.192 43.0224 50.192ZM43.2944 48.912C44.7984 48.912 45.6304 47.696 45.6304 45.76C45.6304 43.792 44.7984 42.608 43.2944 42.608C41.8064 42.608 40.8464 43.792 40.8464 45.76C40.8464 47.696 41.8064 48.912 43.2944 48.912ZM56.634 50C55.098 50 54.378 49.328 54.378 47.824V42.704H53.13V41.52H54.378V39.536H55.722V41.52H57.978V42.704H55.722V47.792C55.722 48.56 56.058 48.816 56.762 48.816H57.978V50H56.634ZM62.8576 50.192C60.5056 50.192 58.9696 48.464 58.9696 45.76C58.9696 43.056 60.5056 41.328 62.8576 41.328C65.1936 41.328 66.7296 43.056 66.7296 45.76C66.7296 48.464 65.1936 50.192 62.8576 50.192ZM62.8576 48.912C64.4096 48.912 65.3216 47.728 65.3216 45.76C65.3216 43.792 64.4096 42.608 62.8576 42.608C61.2896 42.608 60.3776 43.792 60.3776 45.76C60.3776 47.728 61.2896 48.912 62.8576 48.912ZM75.8055 50.192C73.4695 50.192 72.2695 48.992 72.1415 47.328L73.5495 47.232C73.7095 48.256 74.3015 48.912 75.8055 48.912C76.9575 48.912 77.6135 48.56 77.6135 47.728C77.6135 47.056 77.2775 46.768 75.5495 46.448C73.1815 46 72.4775 45.264 72.4775 43.92C72.4775 42.416 73.6455 41.328 75.6935 41.328C77.9335 41.328 78.8775 42.672 79.0535 44.048L77.6455 44.144C77.5655 43.344 77.0535 42.608 75.6615 42.608C74.4455 42.608 73.8855 43.136 73.8855 43.856C73.8855 44.688 74.3175 45.008 75.8055 45.264C78.3015 45.696 79.0215 46.384 79.0215 47.728C79.0215 49.296 77.6775 50.192 75.8055 50.192ZM83.6496 50C82.1136 50 81.3936 49.328 81.3936 47.824V42.704H80.1456V41.52H81.3936V39.536H82.7376V41.52H84.9936V42.704H82.7376V47.792C82.7376 48.56 83.0736 48.816 83.7776 48.816H84.9936V50H83.6496ZM86.8894 50V41.52H88.0734L88.1214 43.088C88.4254 42.016 89.0974 41.52 90.1374 41.52H90.9694V42.8H90.1534C88.8734 42.8 88.2334 43.488 88.2334 44.88V50H86.8894ZM95.4234 50.192C93.7274 50.192 92.6394 48.992 92.6394 46.976V41.52H93.9834V46.608C93.9834 48.256 94.5594 49.008 95.7754 49.008C97.1194 49.008 97.9354 48.096 97.9354 46.576V41.52H99.2794V50H97.9994V48.624C97.5354 49.632 96.6394 50.192 95.4234 50.192ZM104.998 50.192C102.63 50.192 101.11 48.448 101.11 45.76C101.11 43.072 102.63 41.328 104.998 41.328C106.95 41.328 108.31 42.384 108.598 44.272L107.19 44.368C106.998 43.248 106.15 42.608 104.998 42.608C103.43 42.608 102.518 43.792 102.518 45.76C102.518 47.728 103.43 48.912 104.998 48.912C106.15 48.912 106.998 48.272 107.19 46.992L108.598 47.088C108.31 48.976 106.95 50.192 104.998 50.192ZM113.04 50C111.504 50 110.784 49.328 110.784 47.824V42.704H109.536V41.52H110.784V39.536H112.128V41.52H114.384V42.704H112.128V47.792C112.128 48.56 112.464 48.816 113.168 48.816H114.384V50H113.04ZM118.892 50.192C117.196 50.192 116.108 48.992 116.108 46.976V41.52H117.452V46.608C117.452 48.256 118.028 49.008 119.244 49.008C120.588 49.008 121.404 48.096 121.404 46.576V41.52H122.748V50H121.468V48.624C121.004 49.632 120.108 50.192 118.892 50.192ZM125.311 50V41.52H126.495L126.543 43.088C126.847 42.016 127.519 41.52 128.559 41.52H129.391V42.8H128.575C127.295 42.8 126.655 43.488 126.655 44.88V50H125.311ZM134.045 50.192C131.645 50.192 130.157 48.448 130.157 45.76C130.157 43.072 131.645 41.328 133.981 41.328C136.189 41.328 137.725 42.928 137.725 45.776V46.176H131.565C131.661 48 132.573 48.912 134.045 48.912C135.149 48.912 135.869 48.352 136.157 47.488L137.597 47.6C137.149 49.12 135.837 50.192 134.045 50.192ZM131.565 44.992H136.253C136.125 43.36 135.229 42.608 133.981 42.608C132.669 42.608 131.789 43.424 131.565 44.992ZM145.99 50.192C144.23 50.192 143.126 49.344 143.126 47.888C143.126 46.448 143.942 45.648 145.798 45.296L148.806 44.736C148.806 43.312 148.134 42.608 146.79 42.608C145.606 42.608 144.95 43.152 144.694 44.128L143.27 44.016C143.59 42.416 144.87 41.328 146.79 41.328C148.966 41.328 150.15 42.64 150.15 44.784V48.288C150.15 48.672 150.278 48.816 150.598 48.816H150.934V50C150.838 50.016 150.63 50.032 150.422 50.032C149.398 50.032 148.934 49.632 148.822 48.688C148.406 49.568 147.238 50.192 145.99 50.192ZM146.118 49.008C147.814 49.008 148.806 47.92 148.806 46.512V45.904L146.054 46.416C144.902 46.624 144.534 47.056 144.534 47.76C144.534 48.56 145.126 49.008 146.118 49.008ZM159.602 50.192C157.266 50.192 156.066 48.992 155.938 47.328L157.346 47.232C157.506 48.256 158.098 48.912 159.602 48.912C160.754 48.912 161.41 48.56 161.41 47.728C161.41 47.056 161.074 46.768 159.346 46.448C156.978 46 156.274 45.264 156.274 43.92C156.274 42.416 157.442 41.328 159.49 41.328C161.73 41.328 162.674 42.672 162.85 44.048L161.442 44.144C161.362 43.344 160.85 42.608 159.458 42.608C158.242 42.608 157.682 43.136 157.682 43.856C157.682 44.688 158.114 45.008 159.602 45.264C162.098 45.696 162.818 46.384 162.818 47.728C162.818 49.296 161.474 50.192 159.602 50.192ZM167.447 50C165.911 50 165.191 49.328 165.191 47.824V42.704H163.943V41.52H165.191V39.536H166.535V41.52H168.791V42.704H166.535V47.792C166.535 48.56 166.871 48.816 167.575 48.816H168.791V50H167.447ZM170.686 50V41.52H171.87L171.918 43.088C172.222 42.016 172.894 41.52 173.934 41.52H174.766V42.8H173.95C172.67 42.8 172.03 43.488 172.03 44.88V50H170.686ZM179.42 50.192C177.068 50.192 175.532 48.464 175.532 45.76C175.532 43.056 177.068 41.328 179.42 41.328C181.756 41.328 183.292 43.056 183.292 45.76C183.292 48.464 181.756 50.192 179.42 50.192ZM179.42 48.912C180.972 48.912 181.884 47.728 181.884 45.76C181.884 43.792 180.972 42.608 179.42 42.608C177.852 42.608 176.94 43.792 176.94 45.76C176.94 47.728 177.852 48.912 179.42 48.912ZM185.124 50V41.52H186.356L186.388 43.04C186.836 41.872 187.828 41.328 188.996 41.328C190.932 41.328 191.86 42.752 191.86 44.544V50H190.516V44.928C190.516 43.36 189.988 42.512 188.708 42.512C187.396 42.512 186.468 43.36 186.468 44.928V50H185.124ZM197.449 52.592C195.625 52.592 194.249 51.616 193.897 50.128L195.305 50.032C195.561 50.832 196.137 51.312 197.449 51.312C198.985 51.312 199.833 50.704 199.833 49.456V48.08C199.417 48.976 198.457 49.552 197.353 49.552C195.193 49.552 193.657 47.856 193.657 45.44C193.657 43.024 195.161 41.328 197.289 41.328C198.473 41.328 199.513 41.92 199.897 42.864V41.52H201.177V49.424C201.177 51.408 199.785 52.592 197.449 52.592ZM197.417 48.272C198.873 48.272 199.817 47.184 199.833 45.44C199.865 43.696 198.889 42.608 197.417 42.608C195.929 42.608 195.065 43.696 195.065 45.44C195.065 47.184 195.961 48.272 197.417 48.272ZM211.045 50.192C208.645 50.192 207.157 48.448 207.157 45.76C207.157 43.072 208.645 41.328 210.981 41.328C213.189 41.328 214.725 42.928 214.725 45.776V46.176H208.565C208.661 48 209.573 48.912 211.045 48.912C212.149 48.912 212.869 48.352 213.157 47.488L214.597 47.6C214.149 49.12 212.837 50.192 211.045 50.192ZM208.565 44.992H213.253C213.125 43.36 212.229 42.608 210.981 42.608C209.669 42.608 208.789 43.424 208.565 44.992ZM216.546 50V41.52H217.778L217.81 43.008C218.226 41.968 219.106 41.328 220.194 41.328C221.474 41.328 222.37 41.968 222.738 43.104C223.106 41.968 223.97 41.328 225.218 41.328C227.026 41.328 228.018 42.496 228.018 44.544V50H226.674V44.832C226.674 43.296 226.066 42.512 224.898 42.512C223.714 42.512 222.946 43.408 222.946 44.928V50H221.602V44.928C221.602 43.424 221.106 42.512 219.858 42.512C218.674 42.512 217.89 43.424 217.89 44.928V50H216.546ZM232.709 50.192C230.949 50.192 229.845 49.344 229.845 47.888C229.845 46.448 230.661 45.648 232.517 45.296L235.525 44.736C235.525 43.312 234.853 42.608 233.509 42.608C232.325 42.608 231.669 43.152 231.413 44.128L229.989 44.016C230.309 42.416 231.589 41.328 233.509 41.328C235.685 41.328 236.869 42.64 236.869 44.784V48.288C236.869 48.672 236.997 48.816 237.317 48.816H237.653V50C237.557 50.016 237.349 50.032 237.141 50.032C236.117 50.032 235.653 49.632 235.541 48.688C235.125 49.568 233.957 50.192 232.709 50.192ZM232.837 49.008C234.533 49.008 235.525 47.92 235.525 46.512V45.904L232.773 46.416C231.621 46.624 231.253 47.056 231.253 47.76C231.253 48.56 231.845 49.008 232.837 49.008ZM239.076 40.192V38.624H240.484V40.192H239.076ZM239.108 50V41.52H240.452V50H239.108ZM244.522 50C243.53 50 242.858 49.52 242.858 48.4V38.64H244.202V48.288C244.202 48.64 244.378 48.816 244.73 48.816H245.466V50H244.522ZM254.212 50.192C251.876 50.192 250.676 48.992 250.548 47.328L251.956 47.232C252.116 48.256 252.708 48.912 254.212 48.912C255.364 48.912 256.02 48.56 256.02 47.728C256.02 47.056 255.684 46.768 253.956 46.448C251.588 46 250.884 45.264 250.884 43.92C250.884 42.416 252.052 41.328 254.1 41.328C256.34 41.328 257.284 42.672 257.46 44.048L256.052 44.144C255.972 43.344 255.46 42.608 254.068 42.608C252.852 42.608 252.292 43.136 252.292 43.856C252.292 44.688 252.724 45.008 254.212 45.264C256.708 45.696 257.428 46.384 257.428 47.728C257.428 49.296 256.084 50.192 254.212 50.192ZM262.592 50.192C260.192 50.192 258.704 48.448 258.704 45.76C258.704 43.072 260.192 41.328 262.528 41.328C264.736 41.328 266.272 42.928 266.272 45.776V46.176H260.112C260.208 48 261.12 48.912 262.592 48.912C263.696 48.912 264.416 48.352 264.704 47.488L266.144 47.6C265.696 49.12 264.384 50.192 262.592 50.192ZM260.112 44.992H264.8C264.672 43.36 263.776 42.608 262.528 42.608C261.216 42.608 260.336 43.424 260.112 44.992ZM275.053 52.4H273.709V48.88C273.261 49.696 272.285 50.192 271.181 50.192C268.653 50.192 267.517 48.096 267.517 45.76C267.517 43.424 268.653 41.328 271.181 41.328C272.333 41.328 273.277 41.84 273.789 42.816L273.805 41.52H275.053V52.4ZM271.309 48.912C272.797 48.912 273.709 47.84 273.709 45.76C273.709 43.68 272.781 42.608 271.309 42.608C269.837 42.608 268.924 43.776 268.924 45.76C268.924 47.744 269.837 48.912 271.309 48.912ZM280.392 50.192C278.696 50.192 277.608 48.992 277.608 46.976V41.52H278.952V46.608C278.952 48.256 279.528 49.008 280.744 49.008C282.088 49.008 282.904 48.096 282.904 46.576V41.52H284.248V50H282.968V48.624C282.504 49.632 281.608 50.192 280.392 50.192ZM289.967 50.192C287.567 50.192 286.079 48.448 286.079 45.76C286.079 43.072 287.567 41.328 289.903 41.328C292.111 41.328 293.647 42.928 293.647 45.776V46.176H287.487C287.583 48 288.495 48.912 289.967 48.912C291.071 48.912 291.791 48.352 292.079 47.488L293.519 47.6C293.071 49.12 291.759 50.192 289.967 50.192ZM287.487 44.992H292.175C292.047 43.36 291.151 42.608 289.903 42.608C288.591 42.608 287.711 43.424 287.487 44.992ZM295.468 50V41.52H296.7L296.732 43.04C297.18 41.872 298.172 41.328 299.34 41.328C301.276 41.328 302.204 42.752 302.204 44.544V50H300.86V44.928C300.86 43.36 300.332 42.512 299.052 42.512C297.74 42.512 296.812 43.36 296.812 44.928V50H295.468ZM307.889 50.192C305.521 50.192 304.001 48.448 304.001 45.76C304.001 43.072 305.521 41.328 307.889 41.328C309.841 41.328 311.201 42.384 311.489 44.272L310.081 44.368C309.889 43.248 309.041 42.608 307.889 42.608C306.321 42.608 305.409 43.792 305.409 45.76C305.409 47.728 306.321 48.912 307.889 48.912C309.041 48.912 309.889 48.272 310.081 46.992L311.489 47.088C311.201 48.976 309.841 50.192 307.889 50.192ZM316.467 50.192C314.067 50.192 312.579 48.448 312.579 45.76C312.579 43.072 314.067 41.328 316.403 41.328C318.611 41.328 320.147 42.928 320.147 45.776V46.176H313.987C314.083 48 314.995 48.912 316.467 48.912C317.571 48.912 318.291 48.352 318.579 47.488L320.019 47.6C319.571 49.12 318.259 50.192 316.467 50.192ZM313.987 44.992H318.675C318.547 43.36 317.651 42.608 316.403 42.608C315.091 42.608 314.211 43.424 313.987 44.992ZM326.956 50V42.704H325.804V41.52H326.956V40.752C326.956 39.504 327.66 38.64 329.196 38.64H330.54V39.824H329.292C328.62 39.824 328.3 40.208 328.3 40.848V41.52H330.428V42.704H328.3V50H326.956ZM335.045 50.192C332.693 50.192 331.157 48.464 331.157 45.76C331.157 43.056 332.693 41.328 335.045 41.328C337.381 41.328 338.917 43.056 338.917 45.76C338.917 48.464 337.381 50.192 335.045 50.192ZM335.045 48.912C336.597 48.912 337.509 47.728 337.509 45.76C337.509 43.792 336.597 42.608 335.045 42.608C333.477 42.608 332.565 43.792 332.565 45.76C332.565 47.728 333.477 48.912 335.045 48.912ZM340.749 50V41.52H341.933L341.981 43.088C342.285 42.016 342.957 41.52 343.997 41.52H344.829V42.8H344.013C342.733 42.8 342.093 43.488 342.093 44.88V50H340.749ZM351.179 52.4V51.216H352.155C352.747 51.216 352.987 51.04 353.147 50.64L353.451 49.84H352.987L349.883 41.52H351.355L353.883 48.592L356.299 41.52H357.771L354.331 51.072C354.011 51.984 353.419 52.4 352.283 52.4H351.179ZM362.295 50.192C359.943 50.192 358.407 48.464 358.407 45.76C358.407 43.056 359.943 41.328 362.295 41.328C364.631 41.328 366.167 43.056 366.167 45.76C366.167 48.464 364.631 50.192 362.295 50.192ZM362.295 48.912C363.847 48.912 364.759 47.728 364.759 45.76C364.759 43.792 363.847 42.608 362.295 42.608C360.727 42.608 359.815 43.792 359.815 45.76C359.815 47.728 360.727 48.912 362.295 48.912ZM370.783 50.192C369.087 50.192 367.999 48.992 367.999 46.976V41.52H369.343V46.608C369.343 48.256 369.919 49.008 371.135 49.008C372.479 49.008 373.295 48.096 373.295 46.576V41.52H374.639V50H373.359V48.624C372.895 49.632 371.999 50.192 370.783 50.192ZM376.626 50V48.192H378.434V50H376.626Z" fill="#1E2939"/>
<defs>
<linearGradient id="paint0_linear_6889_39373" x1="0" y1="32" x2="480" y2="32" gradientUnits="userSpaceOnUse">
<stop stop-color="#EEF2F0"/>
<stop offset="1" stop-color="#D0DAD2"/>
</linearGradient>
</defs>
</svg>
