<svg width="438" height="40" viewBox="0 0 438 40" fill="none" xmlns="http://www.w3.org/2000/svg">
<rect x="0.5" y="0.5" width="437" height="39" rx="7.5" fill="url(#paint0_linear_6893_39475)"/>
<rect x="0.5" y="0.5" width="437" height="39" rx="7.5" stroke="#6F69BF"/>
<path d="M13.472 26V14.64H16.992C20.48 14.64 22.448 16.688 22.448 20.336C22.448 23.968 20.528 26 17.088 26H13.472ZM14.848 24.656H16.992C19.664 24.656 21.008 23.216 21.008 20.336C21.008 17.424 19.664 15.984 16.992 15.984H14.848V24.656ZM27.9826 26.192C25.6306 26.192 24.0946 24.464 24.0946 21.76C24.0946 19.056 25.6306 17.328 27.9826 17.328C30.3186 17.328 31.8546 19.056 31.8546 21.76C31.8546 24.464 30.3186 26.192 27.9826 26.192ZM27.9826 24.912C29.5346 24.912 30.4466 23.728 30.4466 21.76C30.4466 19.792 29.5346 18.608 27.9826 18.608C26.4146 18.608 25.5026 19.792 25.5026 21.76C25.5026 23.728 26.4146 24.912 27.9826 24.912ZM33.6863 26V17.52H34.9183L34.9503 19.04C35.3983 17.872 36.3903 17.328 37.5583 17.328C39.4943 17.328 40.4223 18.752 40.4223 20.544V26H39.0783V20.928C39.0783 19.36 38.5503 18.512 37.2703 18.512C35.9583 18.512 35.0303 19.36 35.0303 20.928V26H33.6863ZM46.1076 26.192C43.7076 26.192 42.2196 24.448 42.2196 21.76C42.2196 19.072 43.7076 17.328 46.0436 17.328C48.2516 17.328 49.7876 18.928 49.7876 21.776V22.176H43.6276C43.7236 24 44.6356 24.912 46.1076 24.912C47.2116 24.912 47.9316 24.352 48.2196 23.488L49.6596 23.6C49.2116 25.12 47.8996 26.192 46.1076 26.192ZM43.6276 20.992H48.3156C48.1876 19.36 47.2916 18.608 46.0436 18.608C44.7316 18.608 43.8516 19.424 43.6276 20.992ZM51.1884 26V24.192H52.9964V26H51.1884ZM61.4311 26V15.984H57.8951V14.64H66.3431V15.984H62.8071V26H61.4311ZM67.3269 26V14.64H68.6709V18.848C69.1029 17.808 70.0629 17.328 71.2309 17.328C73.0549 17.328 74.0629 18.656 74.0629 20.544V26H72.7189V20.928C72.7189 19.296 72.1269 18.512 70.9429 18.512C69.5669 18.512 68.6709 19.376 68.6709 20.944V26H67.3269ZM79.7483 26.192C77.3483 26.192 75.8603 24.448 75.8603 21.76C75.8603 19.072 77.3483 17.328 79.6843 17.328C81.8923 17.328 83.4283 18.928 83.4283 21.776V22.176H77.2682C77.3643 24 78.2763 24.912 79.7483 24.912C80.8523 24.912 81.5723 24.352 81.8603 23.488L83.3003 23.6C82.8523 25.12 81.5403 26.192 79.7483 26.192ZM77.2682 20.992H81.9563C81.8283 19.36 80.9323 18.608 79.6843 18.608C78.3723 18.608 77.4923 19.424 77.2682 20.992ZM85.2488 26V17.52H86.4328L86.4808 19.088C86.7848 18.016 87.4568 17.52 88.4968 17.52H89.3288V18.8H88.5128C87.2328 18.8 86.5928 19.488 86.5928 20.88V26H85.2488ZM93.9826 26.192C91.5826 26.192 90.0946 24.448 90.0946 21.76C90.0946 19.072 91.5826 17.328 93.9186 17.328C96.1266 17.328 97.6626 18.928 97.6626 21.776V22.176H91.5026C91.5986 24 92.5106 24.912 93.9826 24.912C95.0866 24.912 95.8066 24.352 96.0946 23.488L97.5346 23.6C97.0866 25.12 95.7746 26.192 93.9826 26.192ZM91.5026 20.992H96.1906C96.0626 19.36 95.1666 18.608 93.9186 18.608C92.6066 18.608 91.7266 19.424 91.5026 20.992ZM105.927 26.192C104.167 26.192 103.063 25.344 103.063 23.888C103.063 22.448 103.879 21.648 105.735 21.296L108.743 20.736C108.743 19.312 108.071 18.608 106.727 18.608C105.543 18.608 104.887 19.152 104.631 20.128L103.207 20.016C103.527 18.416 104.807 17.328 106.727 17.328C108.903 17.328 110.087 18.64 110.087 20.784V24.288C110.087 24.672 110.215 24.816 110.535 24.816H110.871V26C110.775 26.016 110.567 26.032 110.359 26.032C109.335 26.032 108.871 25.632 108.759 24.688C108.343 25.568 107.175 26.192 105.927 26.192ZM106.055 25.008C107.751 25.008 108.743 23.92 108.743 22.512V21.904L105.991 22.416C104.839 22.624 104.471 23.056 104.471 23.76C104.471 24.56 105.063 25.008 106.055 25.008ZM112.389 26V17.52H113.573L113.621 19.088C113.925 18.016 114.597 17.52 115.637 17.52H116.469V18.8H115.653C114.373 18.8 113.733 19.488 113.733 20.88V26H112.389ZM121.123 26.192C118.723 26.192 117.235 24.448 117.235 21.76C117.235 19.072 118.723 17.328 121.059 17.328C123.267 17.328 124.803 18.928 124.803 21.776V22.176H118.643C118.739 24 119.651 24.912 121.123 24.912C122.227 24.912 122.947 24.352 123.235 23.488L124.675 23.6C124.227 25.12 122.915 26.192 121.123 26.192ZM118.643 20.992H123.331C123.203 19.36 122.307 18.608 121.059 18.608C119.747 18.608 118.867 19.424 118.643 20.992ZM132.508 26V17.584H130.14V16.4H131.1C132.348 16.4 132.796 15.984 132.796 14.64H133.884V26H132.508ZM140.16 26.256C137.712 26.256 135.968 25.088 135.968 22.88C135.968 21.408 136.816 20.368 138.16 19.888C137.152 19.472 136.512 18.72 136.512 17.504C136.512 15.712 137.952 14.384 140.16 14.384C142.368 14.384 143.808 15.712 143.808 17.504C143.808 18.72 143.168 19.472 142.16 19.888C143.504 20.368 144.352 21.408 144.352 22.88C144.352 25.088 142.608 26.256 140.16 26.256ZM140.16 19.328C141.568 19.328 142.368 18.72 142.368 17.504C142.368 16.416 141.6 15.728 140.16 15.728C138.72 15.728 137.952 16.416 137.952 17.504C137.952 18.72 138.752 19.328 140.16 19.328ZM140.16 24.912C141.84 24.912 142.912 24.24 142.912 22.8C142.912 21.472 142.048 20.608 140.16 20.608C138.272 20.608 137.408 21.472 137.408 22.8C137.408 24.24 138.48 24.912 140.16 24.912ZM151.96 26L149.336 17.52H150.808L152.792 24.592L154.808 17.52H156.248L158.264 24.592L160.264 17.52H161.736L159.112 26H157.416L155.528 19.552L153.64 26H151.96ZM163.218 26V14.64H164.562V18.848C164.994 17.808 165.954 17.328 167.122 17.328C168.946 17.328 169.954 18.656 169.954 20.544V26H168.61V20.928C168.61 19.296 168.018 18.512 166.834 18.512C165.458 18.512 164.562 19.376 164.562 20.944V26H163.218ZM175.639 26.192C173.287 26.192 171.751 24.464 171.751 21.76C171.751 19.056 173.287 17.328 175.639 17.328C177.975 17.328 179.511 19.056 179.511 21.76C179.511 24.464 177.975 26.192 175.639 26.192ZM175.639 24.912C177.191 24.912 178.103 23.728 178.103 21.76C178.103 19.792 177.191 18.608 175.639 18.608C174.071 18.608 173.159 19.792 173.159 21.76C173.159 23.728 174.071 24.912 175.639 24.912ZM187.787 26.192C186.027 26.192 184.923 25.344 184.923 23.888C184.923 22.448 185.739 21.648 187.595 21.296L190.603 20.736C190.603 19.312 189.931 18.608 188.587 18.608C187.403 18.608 186.747 19.152 186.491 20.128L185.067 20.016C185.387 18.416 186.667 17.328 188.587 17.328C190.763 17.328 191.947 18.64 191.947 20.784V24.288C191.947 24.672 192.075 24.816 192.395 24.816H192.731V26C192.635 26.016 192.427 26.032 192.219 26.032C191.195 26.032 190.731 25.632 190.619 24.688C190.203 25.568 189.035 26.192 187.787 26.192ZM187.915 25.008C189.611 25.008 190.603 23.92 190.603 22.512V21.904L187.851 22.416C186.699 22.624 186.331 23.056 186.331 23.76C186.331 24.56 186.923 25.008 187.915 25.008ZM194.249 26V17.52H195.433L195.481 19.088C195.785 18.016 196.457 17.52 197.497 17.52H198.329V18.8H197.513C196.233 18.8 195.593 19.488 195.593 20.88V26H194.249ZM202.983 26.192C200.583 26.192 199.095 24.448 199.095 21.76C199.095 19.072 200.583 17.328 202.919 17.328C205.127 17.328 206.663 18.928 206.663 21.776V22.176H200.503C200.599 24 201.511 24.912 202.983 24.912C204.087 24.912 204.807 24.352 205.095 23.488L206.535 23.6C206.087 25.12 204.775 26.192 202.983 26.192ZM200.503 20.992H205.191C205.063 19.36 204.167 18.608 202.919 18.608C201.607 18.608 200.727 19.424 200.503 20.992ZM214.367 26V17.584H211.999V16.4H212.959C214.207 16.4 214.655 15.984 214.655 14.64H215.743V26H214.367ZM222.64 26.256C219.888 26.256 218.144 23.968 218.144 20.336C218.144 16.688 219.888 14.384 222.64 14.384C225.408 14.384 227.152 16.672 227.152 20.336C227.152 23.968 225.408 26.256 222.64 26.256ZM222.64 24.912C224.608 24.912 225.712 23.264 225.712 20.336C225.712 17.392 224.608 15.728 222.64 15.728C220.688 15.728 219.584 17.392 219.584 20.336C219.584 23.264 220.688 24.912 222.64 24.912ZM228.593 27.76L233.313 14H234.593L229.873 27.76H228.593ZM238.336 26V17.584H235.968V16.4H236.928C238.176 16.4 238.624 15.984 238.624 14.64H239.712V26H238.336ZM246.609 26.256C243.857 26.256 242.113 23.968 242.113 20.336C242.113 16.688 243.857 14.384 246.609 14.384C249.377 14.384 251.121 16.672 251.121 20.336C251.121 23.968 249.377 26.256 246.609 26.256ZM246.609 24.912C248.577 24.912 249.681 23.264 249.681 20.336C249.681 17.392 248.577 15.728 246.609 15.728C244.657 15.728 243.553 17.392 243.553 20.336C243.553 23.264 244.657 24.912 246.609 24.912ZM252.626 26V24.192H254.434V26H252.626ZM262.741 26L259.749 14.64H261.253L263.589 24.112L265.909 14.64H267.477L269.813 24.112L272.133 14.64H273.653L270.661 26H268.933L266.693 17.2L264.453 26H262.741ZM277.131 26.192C275.371 26.192 274.267 25.344 274.267 23.888C274.267 22.448 275.083 21.648 276.939 21.296L279.947 20.736C279.947 19.312 279.275 18.608 277.931 18.608C276.747 18.608 276.091 19.152 275.835 20.128L274.411 20.016C274.731 18.416 276.011 17.328 277.931 17.328C280.107 17.328 281.291 18.64 281.291 20.784V24.288C281.291 24.672 281.419 24.816 281.739 24.816H282.075V26C281.979 26.016 281.771 26.032 281.562 26.032C280.539 26.032 280.075 25.632 279.963 24.688C279.547 25.568 278.379 26.192 277.131 26.192ZM277.259 25.008C278.955 25.008 279.947 23.92 279.947 22.512V21.904L277.195 22.416C276.043 22.624 275.674 23.056 275.674 23.76C275.674 24.56 276.267 25.008 277.259 25.008ZM283.593 26V17.52H284.825L284.857 19.04C285.305 17.872 286.297 17.328 287.465 17.328C289.401 17.328 290.329 18.752 290.329 20.544V26H288.985V20.928C288.985 19.36 288.457 18.512 287.177 18.512C285.865 18.512 284.937 19.36 284.937 20.928V26H283.593ZM295.353 26C293.817 26 293.097 25.328 293.097 23.824V18.704H291.849V17.52H293.097V15.536H294.441V17.52H296.697V18.704H294.441V23.792C294.441 24.56 294.777 24.816 295.481 24.816H296.697V26H295.353ZM302.514 26V17.52H303.746L303.778 19.008C304.194 17.968 305.074 17.328 306.162 17.328C307.442 17.328 308.338 17.968 308.706 19.104C309.074 17.968 309.938 17.328 311.186 17.328C312.994 17.328 313.986 18.496 313.986 20.544V26H312.642V20.832C312.642 19.296 312.034 18.512 310.866 18.512C309.682 18.512 308.914 19.408 308.914 20.928V26H307.57V20.928C307.57 19.424 307.074 18.512 305.826 18.512C304.642 18.512 303.858 19.424 303.858 20.928V26H302.514ZM319.67 26.192C317.27 26.192 315.782 24.448 315.782 21.76C315.782 19.072 317.27 17.328 319.606 17.328C321.814 17.328 323.35 18.928 323.35 21.776V22.176H317.19C317.286 24 318.198 24.912 319.67 24.912C320.774 24.912 321.494 24.352 321.782 23.488L323.222 23.6C322.774 25.12 321.462 26.192 319.67 26.192ZM317.19 20.992H321.878C321.75 19.36 320.854 18.608 319.606 18.608C318.294 18.608 317.414 19.424 317.19 20.992ZM332.431 26C330.895 26 330.175 25.328 330.175 23.824V18.704H328.927V17.52H330.175V15.536H331.519V17.52H333.775V18.704H331.519V23.792C331.519 24.56 331.855 24.816 332.559 24.816H333.775V26H332.431ZM338.655 26.192C336.303 26.192 334.767 24.464 334.767 21.76C334.767 19.056 336.303 17.328 338.655 17.328C340.991 17.328 342.527 19.056 342.527 21.76C342.527 24.464 340.991 26.192 338.655 26.192ZM338.655 24.912C340.207 24.912 341.119 23.728 341.119 21.76C341.119 19.792 340.207 18.608 338.655 18.608C337.087 18.608 336.174 19.792 336.174 21.76C336.174 23.728 337.087 24.912 338.655 24.912ZM348.514 26V17.52H349.698L349.746 19.088C350.05 18.016 350.722 17.52 351.762 17.52H352.594V18.8H351.778C350.498 18.8 349.858 19.488 349.858 20.88V26H348.514ZM357.248 26.192C354.848 26.192 353.36 24.448 353.36 21.76C353.36 19.072 354.848 17.328 357.184 17.328C359.392 17.328 360.928 18.928 360.928 21.776V22.176H354.768C354.864 24 355.776 24.912 357.248 24.912C358.352 24.912 359.072 24.352 359.36 23.488L360.8 23.6C360.352 25.12 359.04 26.192 357.248 26.192ZM354.768 20.992H359.456C359.328 19.36 358.432 18.608 357.184 18.608C355.872 18.608 354.992 19.424 354.768 20.992ZM365.256 26.192C363.496 26.192 362.392 25.344 362.392 23.888C362.392 22.448 363.208 21.648 365.064 21.296L368.072 20.736C368.072 19.312 367.4 18.608 366.056 18.608C364.872 18.608 364.216 19.152 363.96 20.128L362.536 20.016C362.856 18.416 364.136 17.328 366.056 17.328C368.232 17.328 369.416 18.64 369.416 20.784V24.288C369.416 24.672 369.544 24.816 369.864 24.816H370.2V26C370.104 26.016 369.896 26.032 369.688 26.032C368.664 26.032 368.2 25.632 368.088 24.688C367.672 25.568 366.504 26.192 365.256 26.192ZM365.384 25.008C367.08 25.008 368.072 23.92 368.072 22.512V21.904L365.32 22.416C364.168 22.624 363.799 23.056 363.799 23.76C363.799 24.56 364.392 25.008 365.384 25.008ZM374.998 26.192C372.63 26.192 371.11 24.448 371.11 21.76C371.11 19.072 372.63 17.328 374.998 17.328C376.95 17.328 378.31 18.384 378.598 20.272L377.19 20.368C376.998 19.248 376.15 18.608 374.998 18.608C373.43 18.608 372.518 19.792 372.518 21.76C372.518 23.728 373.43 24.912 374.998 24.912C376.15 24.912 376.998 24.272 377.19 22.992L378.598 23.088C378.31 24.976 376.95 26.192 374.998 26.192ZM380.264 26V14.64H381.608V18.848C382.04 17.808 383 17.328 384.168 17.328C385.992 17.328 387 18.656 387 20.544V26H385.656V20.928C385.656 19.296 385.064 18.512 383.88 18.512C382.504 18.512 381.608 19.376 381.608 20.944V26H380.264ZM396.873 26.192C394.521 26.192 392.985 24.464 392.985 21.76C392.985 19.056 394.521 17.328 396.873 17.328C399.209 17.328 400.745 19.056 400.745 21.76C400.745 24.464 399.209 26.192 396.873 26.192ZM396.873 24.912C398.425 24.912 399.337 23.728 399.337 21.76C399.337 19.792 398.425 18.608 396.873 18.608C395.305 18.608 394.393 19.792 394.393 21.76C394.393 23.728 395.305 24.912 396.873 24.912ZM405.361 26.192C403.665 26.192 402.577 24.992 402.577 22.976V17.52H403.921V22.608C403.921 24.256 404.497 25.008 405.713 25.008C407.057 25.008 407.873 24.096 407.873 22.576V17.52H409.217V26H407.937V24.624C407.473 25.632 406.577 26.192 405.361 26.192ZM414.431 26C412.895 26 412.175 25.328 412.175 23.824V18.704H410.927V17.52H412.175V15.536H413.519V17.52H415.775V18.704H413.519V23.792C413.519 24.56 413.855 24.816 414.559 24.816H415.775V26H414.431ZM420.057 22.784C420.057 21.248 420.505 20.448 421.609 19.76C422.857 18.992 423.113 18.608 423.113 17.648C423.113 16.544 422.329 15.728 421.033 15.728C419.449 15.728 418.617 16.56 418.457 18.096L417.017 18C417.209 15.888 418.697 14.384 421.033 14.384C423.113 14.384 424.553 15.744 424.553 17.648C424.553 18.992 423.913 19.696 422.537 20.592C421.673 21.152 421.433 21.664 421.433 22.784H420.057ZM419.801 26V24.192H421.609V26H419.801Z" fill="#1E2939"/>
<defs>
<linearGradient id="paint0_linear_6893_39475" x1="0" y1="20" x2="438" y2="20" gradientUnits="userSpaceOnUse">
<stop stop-color="#E7E6F4"/>
<stop offset="1" stop-color="#C8C6E6"/>
</linearGradient>
</defs>
</svg>
