<svg width="480" height="88" viewBox="0 0 480 88" fill="none" xmlns="http://www.w3.org/2000/svg">
<rect x="0.5" y="0.5" width="479" height="87" rx="7.5" fill="url(#paint0_linear_6889_39329)"/>
<rect x="0.5" y="0.5" width="479" height="87" rx="7.5" stroke="#B4C685"/>
<path d="M17.792 26.256C14.592 26.256 12.72 23.76 12.72 20.336C12.72 16.928 14.624 14.384 17.824 14.384C20.544 14.384 21.952 16.016 22.368 18.128L20.928 18.224C20.64 16.752 19.76 15.728 17.824 15.728C15.232 15.728 14.16 17.872 14.16 20.336C14.16 22.928 15.28 24.912 17.824 24.912C19.84 24.912 21.088 23.376 21.12 21.568H17.856V20.256H22.4V26H21.376L21.312 24.096C20.752 25.376 19.344 26.256 17.792 26.256ZM24.4831 26V17.52H25.6671L25.7151 19.088C26.0191 18.016 26.6911 17.52 27.7311 17.52H28.5631V18.8H27.7471C26.4671 18.8 25.8271 19.488 25.8271 20.88V26H24.4831ZM33.217 26.192C30.817 26.192 29.329 24.448 29.329 21.76C29.329 19.072 30.817 17.328 33.153 17.328C35.361 17.328 36.897 18.928 36.897 21.776V22.176H30.737C30.833 24 31.745 24.912 33.217 24.912C34.321 24.912 35.041 24.352 35.329 23.488L36.769 23.6C36.321 25.12 35.009 26.192 33.217 26.192ZM30.737 20.992H35.425C35.297 19.36 34.401 18.608 33.153 18.608C31.841 18.608 30.961 19.424 30.737 20.992ZM41.2243 26.192C39.4643 26.192 38.3603 25.344 38.3603 23.888C38.3603 22.448 39.1763 21.648 41.0323 21.296L44.0403 20.736C44.0403 19.312 43.3683 18.608 42.0243 18.608C40.8403 18.608 40.1843 19.152 39.9283 20.128L38.5043 20.016C38.8243 18.416 40.1043 17.328 42.0243 17.328C44.2003 17.328 45.3843 18.64 45.3843 20.784V24.288C45.3843 24.672 45.5123 24.816 45.8323 24.816H46.1683V26C46.0723 26.016 45.8643 26.032 45.6562 26.032C44.6323 26.032 44.1683 25.632 44.0563 24.688C43.6403 25.568 42.4723 26.192 41.2243 26.192ZM41.3523 25.008C43.0483 25.008 44.0403 23.92 44.0403 22.512V21.904L41.2883 22.416C40.1363 22.624 39.7682 23.056 39.7682 23.76C39.7682 24.56 40.3603 25.008 41.3523 25.008ZM50.0559 26C48.5199 26 47.7999 25.328 47.7999 23.824V18.704H46.5519V17.52H47.7999V15.536H49.1439V17.52H51.3999V18.704H49.1439V23.792C49.1439 24.56 49.4799 24.816 50.1839 24.816H51.3999V26H50.0559ZM53.0958 28.496L53.8638 26H53.0478V24.192H54.8558V25.776L53.8958 28.496H53.0958ZM61.0345 26V14.64H62.4105V26H61.0345ZM64.643 18.944L65.411 16.448H64.595V14.64H66.403V16.224L65.443 18.944H64.643ZM70.565 26L67.477 17.52H68.949L71.413 24.624L73.877 17.52H75.349L72.261 26H70.565ZM79.8733 26.192C77.4733 26.192 75.9853 24.448 75.9853 21.76C75.9853 19.072 77.4733 17.328 79.8093 17.328C82.0173 17.328 83.5533 18.928 83.5533 21.776V22.176H77.3932C77.4893 24 78.4013 24.912 79.8733 24.912C80.9773 24.912 81.6973 24.352 81.9853 23.488L83.4253 23.6C82.9773 25.12 81.6653 26.192 79.8733 26.192ZM77.3932 20.992H82.0813C81.9533 19.36 81.0573 18.608 79.8093 18.608C78.4973 18.608 77.6173 19.424 77.3932 20.992ZM95.178 16.192V14.624H96.586V16.192H95.178ZM90.362 26V18.704H89.21V17.52H90.362V16.752C90.362 15.504 91.066 14.64 92.602 14.64H93.946V15.824H92.698C92.026 15.824 91.706 16.208 91.706 16.848V17.52H93.834V18.704H91.706V26H90.362ZM95.21 26V17.52H96.554V26L95.21 26ZM100.616 26C99.6239 26 98.9519 25.52 98.9519 24.4V14.64H100.296V24.288C100.296 24.64 100.472 24.816 100.824 24.816H101.56V26H100.616ZM104.725 26C103.733 26 103.061 25.52 103.061 24.4V14.64H104.405V24.288C104.405 24.64 104.581 24.816 104.933 24.816H105.669V26H104.725ZM110.545 26.192C108.145 26.192 106.657 24.448 106.657 21.76C106.657 19.072 108.145 17.328 110.481 17.328C112.689 17.328 114.225 18.928 114.225 21.776V22.176H108.065C108.161 24 109.073 24.912 110.545 24.912C111.649 24.912 112.369 24.352 112.657 23.488L114.097 23.6C113.649 25.12 112.337 26.192 110.545 26.192ZM108.065 20.992H112.753C112.625 19.36 111.729 18.608 110.481 18.608C109.169 18.608 108.289 19.424 108.065 20.992ZM119.054 26.192C116.846 26.192 115.47 24.48 115.47 21.76C115.47 19.04 116.846 17.328 119.054 17.328C120.19 17.328 121.198 17.84 121.662 18.704V14.64H123.006V26H121.79L121.742 24.72C121.262 25.648 120.238 26.192 119.054 26.192ZM119.326 24.912C120.83 24.912 121.662 23.696 121.662 21.76C121.662 19.792 120.83 18.608 119.326 18.608C117.838 18.608 116.878 19.792 116.878 21.76C116.878 23.696 117.838 24.912 119.326 24.912ZM129.529 16.192V14.624H130.937V16.192H129.529ZM129.561 26V17.52H130.905V26H129.561ZM133.561 26V17.52H134.793L134.825 19.04C135.273 17.872 136.265 17.328 137.433 17.328C139.369 17.328 140.297 18.752 140.297 20.544V26H138.953V20.928C138.953 19.36 138.425 18.512 137.145 18.512C135.833 18.512 134.905 19.36 134.905 20.928V26H133.561ZM149.962 26C148.426 26 147.706 25.328 147.706 23.824V18.704H146.458V17.52H147.706V15.536H149.05V17.52H151.306V18.704H149.05V23.792C149.05 24.56 149.386 24.816 150.09 24.816H151.306V26H149.962ZM152.874 26V14.64H154.218V18.848C154.65 17.808 155.61 17.328 156.778 17.328C158.602 17.328 159.61 18.656 159.61 20.544V26H158.266V20.928C158.266 19.296 157.674 18.512 156.49 18.512C155.114 18.512 154.218 19.376 154.218 20.944V26H152.874ZM165.295 26.192C162.895 26.192 161.407 24.448 161.407 21.76C161.407 19.072 162.895 17.328 165.231 17.328C167.439 17.328 168.975 18.928 168.975 21.776V22.176H162.815C162.911 24 163.823 24.912 165.295 24.912C166.399 24.912 167.119 24.352 167.407 23.488L168.847 23.6C168.399 25.12 167.087 26.192 165.295 26.192ZM162.815 20.992H167.503C167.375 19.36 166.479 18.608 165.231 18.608C163.919 18.608 163.039 19.424 162.815 20.992ZM175.784 26V18.704H174.632V17.52H175.784V16.752C175.784 15.504 176.488 14.64 178.024 14.64H179.368V15.824H178.12C177.448 15.824 177.128 16.208 177.128 16.848V17.52H179.256V18.704H177.128V26H175.784ZM183.873 26.192C181.521 26.192 179.985 24.464 179.985 21.76C179.985 19.056 181.521 17.328 183.873 17.328C186.209 17.328 187.745 19.056 187.745 21.76C187.745 24.464 186.209 26.192 183.873 26.192ZM183.873 24.912C185.425 24.912 186.337 23.728 186.337 21.76C186.337 19.792 185.425 18.608 183.873 18.608C182.305 18.608 181.393 19.792 181.393 21.76C181.393 23.728 182.305 24.912 183.873 24.912ZM189.577 26V17.52H190.761L190.809 19.088C191.113 18.016 191.785 17.52 192.825 17.52H193.657V18.8H192.841C191.561 18.8 190.921 19.488 190.921 20.88V26H189.577ZM194.999 26V17.52H196.231L196.263 19.008C196.679 17.968 197.559 17.328 198.647 17.328C199.927 17.328 200.823 17.968 201.191 19.104C201.559 17.968 202.423 17.328 203.671 17.328C205.479 17.328 206.471 18.496 206.471 20.544V26H205.127V20.832C205.127 19.296 204.519 18.512 203.351 18.512C202.167 18.512 201.399 19.408 201.399 20.928V26H200.055V20.928C200.055 19.424 199.559 18.512 198.311 18.512C197.127 18.512 196.343 19.424 196.343 20.928V26H194.999ZM215.318 26.192C213.558 26.192 212.454 25.344 212.454 23.888C212.454 22.448 213.27 21.648 215.126 21.296L218.134 20.736C218.134 19.312 217.462 18.608 216.118 18.608C214.934 18.608 214.278 19.152 214.022 20.128L212.598 20.016C212.918 18.416 214.198 17.328 216.118 17.328C218.294 17.328 219.478 18.64 219.478 20.784V24.288C219.478 24.672 219.606 24.816 219.926 24.816H220.262V26C220.166 26.016 219.958 26.032 219.75 26.032C218.726 26.032 218.262 25.632 218.15 24.688C217.734 25.568 216.566 26.192 215.318 26.192ZM215.446 25.008C217.142 25.008 218.134 23.92 218.134 22.512V21.904L215.382 22.416C214.23 22.624 213.862 23.056 213.862 23.76C213.862 24.56 214.454 25.008 215.446 25.008ZM221.78 26V17.52L223.012 17.52L223.044 19.04C223.492 17.872 224.484 17.328 225.652 17.328C227.588 17.328 228.516 18.752 228.516 20.544V26H227.172V20.928C227.172 19.36 226.644 18.512 225.364 18.512C224.052 18.512 223.124 19.36 223.124 20.928V26H221.78ZM233.897 26.192C231.689 26.192 230.313 24.48 230.313 21.76C230.313 19.04 231.689 17.328 233.897 17.328C235.033 17.328 236.041 17.84 236.505 18.704V14.64H237.849V26H236.633L236.585 24.72C236.105 25.648 235.081 26.192 233.897 26.192ZM234.169 24.912C235.673 24.912 236.505 23.696 236.505 21.76C236.505 19.792 235.673 18.608 234.169 18.608C232.681 18.608 231.721 19.792 231.721 21.76C231.721 23.696 232.681 24.912 234.169 24.912ZM247.413 26.192C245.205 26.192 243.829 24.48 243.829 21.76C243.829 19.04 245.205 17.328 247.413 17.328C248.549 17.328 249.557 17.84 250.021 18.704V14.64H251.365V26H250.149L250.101 24.72C249.621 25.648 248.597 26.192 247.413 26.192ZM247.685 24.912C249.189 24.912 250.021 23.696 250.021 21.76C250.021 19.792 249.189 18.608 247.685 18.608C246.197 18.608 245.237 19.792 245.237 21.76C245.237 23.696 246.197 24.912 247.685 24.912ZM254.014 26V17.52H255.198L255.246 19.088C255.55 18.016 256.222 17.52 257.262 17.52H258.094V18.8H257.278C255.998 18.8 255.358 19.488 255.358 20.88V26H254.014ZM261.724 26.192C259.964 26.192 258.86 25.344 258.86 23.888C258.86 22.448 259.676 21.648 261.532 21.296L264.54 20.736C264.54 19.312 263.868 18.608 262.524 18.608C261.34 18.608 260.684 19.152 260.428 20.128L259.004 20.016C259.324 18.416 260.604 17.328 262.524 17.328C264.7 17.328 265.884 18.64 265.884 20.784V24.288C265.884 24.672 266.012 24.816 266.332 24.816H266.668V26C266.572 26.016 266.364 26.032 266.156 26.032C265.132 26.032 264.668 25.632 264.556 24.688C264.14 25.568 262.972 26.192 261.724 26.192ZM261.852 25.008C263.548 25.008 264.54 23.92 264.54 22.512V21.904L261.788 22.416C260.636 22.624 260.268 23.056 260.268 23.76C260.268 24.56 260.86 25.008 261.852 25.008ZM268.862 26V18.704H267.71V17.52H268.862V16.752C268.862 15.504 269.566 14.64 271.102 14.64H272.446V15.824H271.198C270.526 15.824 270.206 16.208 270.206 16.848V17.52H272.334V18.704H270.206V26H268.862ZM276.806 26C275.27 26 274.55 25.328 274.55 23.824V18.704H273.302V17.52H274.55V15.536H275.894V17.52H278.15V18.704H275.894V23.792C275.894 24.56 276.23 24.816 276.934 24.816H278.15V26H276.806ZM283.03 26.192C280.63 26.192 279.142 24.448 279.142 21.76C279.142 19.072 280.63 17.328 282.966 17.328C285.174 17.328 286.71 18.928 286.71 21.776V22.176H280.549C280.646 24 281.558 24.912 283.03 24.912C284.134 24.912 284.854 24.352 285.142 23.488L286.582 23.6C286.134 25.12 284.822 26.192 283.03 26.192ZM280.549 20.992H285.238C285.11 19.36 284.214 18.608 282.966 18.608C281.654 18.608 280.774 19.424 280.549 20.992ZM291.538 26.192C289.33 26.192 287.954 24.48 287.954 21.76C287.954 19.04 289.33 17.328 291.538 17.328C292.674 17.328 293.682 17.84 294.146 18.704V14.64H295.49V26H294.274L294.226 24.72C293.746 25.648 292.722 26.192 291.538 26.192ZM291.81 24.912C293.314 24.912 294.146 23.696 294.146 21.76C294.146 19.792 293.314 18.608 291.81 18.608C290.322 18.608 289.362 19.792 289.362 21.76C289.362 23.696 290.322 24.912 291.81 24.912ZM304.334 26.192C302.574 26.192 301.47 25.344 301.47 23.888C301.47 22.448 302.286 21.648 304.142 21.296L307.15 20.736C307.15 19.312 306.478 18.608 305.134 18.608C303.95 18.608 303.294 19.152 303.038 20.128L301.614 20.016C301.934 18.416 303.214 17.328 305.134 17.328C307.31 17.328 308.494 18.64 308.494 20.784V24.288C308.494 24.672 308.622 24.816 308.942 24.816H309.278V26C309.182 26.016 308.974 26.032 308.766 26.032C307.742 26.032 307.278 25.632 307.166 24.688C306.75 25.568 305.582 26.192 304.334 26.192ZM304.462 25.008C306.158 25.008 307.15 23.92 307.15 22.512V21.904L304.398 22.416C303.246 22.624 302.878 23.056 302.878 23.76C302.878 24.56 303.47 25.008 304.462 25.008ZM310.796 26V17.52H312.028L312.06 19.04C312.508 17.872 313.5 17.328 314.668 17.328C316.604 17.328 317.532 18.752 317.532 20.544V26H316.188V20.928C316.188 19.36 315.66 18.512 314.38 18.512C313.068 18.512 312.14 19.36 312.14 20.928V26H310.796ZM327.405 26.192C325.005 26.192 323.517 24.448 323.517 21.76C323.517 19.072 325.005 17.328 327.341 17.328C329.549 17.328 331.085 18.928 331.085 21.776V22.176H324.924C325.021 24 325.933 24.912 327.405 24.912C328.509 24.912 329.229 24.352 329.517 23.488L330.957 23.6C330.509 25.12 329.197 26.192 327.405 26.192ZM324.924 20.992H329.613C329.485 19.36 328.589 18.608 327.341 18.608C326.029 18.608 325.149 19.424 324.924 20.992ZM332.905 26V17.52H334.137L334.169 19.008C334.585 17.968 335.465 17.328 336.553 17.328C337.833 17.328 338.729 17.968 339.097 19.104C339.465 17.968 340.329 17.328 341.577 17.328C343.385 17.328 344.377 18.496 344.377 20.544V26H343.033V20.832C343.033 19.296 342.425 18.512 341.257 18.512C340.073 18.512 339.305 19.408 339.305 20.928V26H337.961V20.928C337.961 19.424 337.465 18.512 336.217 18.512C335.033 18.512 334.249 19.424 334.249 20.928V26H332.905ZM349.068 26.192C347.308 26.192 346.204 25.344 346.204 23.888C346.204 22.448 347.02 21.648 348.876 21.296L351.884 20.736C351.884 19.312 351.212 18.608 349.868 18.608C348.684 18.608 348.028 19.152 347.772 20.128L346.348 20.016C346.668 18.416 347.948 17.328 349.868 17.328C352.044 17.328 353.228 18.64 353.228 20.784V24.288C353.228 24.672 353.356 24.816 353.676 24.816H354.012V26C353.916 26.016 353.708 26.032 353.5 26.032C352.476 26.032 352.012 25.632 351.9 24.688C351.484 25.568 350.316 26.192 349.068 26.192ZM349.196 25.008C350.892 25.008 351.884 23.92 351.884 22.512V21.904L349.132 22.416C347.98 22.624 347.612 23.056 347.612 23.76C347.612 24.56 348.204 25.008 349.196 25.008ZM355.436 16.192V14.624H356.844V16.192H355.436ZM355.468 26V17.52H356.812V26H355.468ZM360.882 26C359.89 26 359.218 25.52 359.218 24.4V14.64H360.562V24.288C360.562 24.64 360.738 24.816 361.09 24.816H361.826V26H360.882ZM363.22 26V24.192H365.028V26H363.22ZM371.206 26V14.64H372.582V26H371.206ZM374.815 18.944L375.583 16.448H374.767V14.64H376.575V16.224L375.615 18.944H374.815ZM380.737 26L377.649 17.52H379.121L381.585 24.624L384.049 17.52H385.521L382.433 26H380.737ZM390.045 26.192C387.645 26.192 386.157 24.448 386.157 21.76C386.157 19.072 387.645 17.328 389.981 17.328C392.189 17.328 393.725 18.928 393.725 21.776V22.176H387.565C387.661 24 388.573 24.912 390.045 24.912C391.149 24.912 391.869 24.352 392.157 23.488L393.597 23.6C393.149 25.12 391.837 26.192 390.045 26.192ZM387.565 20.992H392.253C392.125 19.36 391.229 18.608 389.981 18.608C388.669 18.608 387.789 19.424 387.565 20.992ZM401.99 26.192C400.23 26.192 399.126 25.344 399.126 23.888C399.126 22.448 399.942 21.648 401.798 21.296L404.806 20.736C404.806 19.312 404.134 18.608 402.79 18.608C401.606 18.608 400.95 19.152 400.694 20.128L399.27 20.016C399.59 18.416 400.87 17.328 402.79 17.328C404.966 17.328 406.15 18.64 406.15 20.784V24.288C406.15 24.672 406.278 24.816 406.598 24.816H406.934V26C406.838 26.016 406.63 26.032 406.422 26.032C405.398 26.032 404.934 25.632 404.822 24.688C404.406 25.568 403.238 26.192 401.99 26.192ZM402.118 25.008C403.814 25.008 404.806 23.92 404.806 22.512V21.904L402.054 22.416C400.902 22.624 400.534 23.056 400.534 23.76C400.534 24.56 401.126 25.008 402.118 25.008ZM411.509 26.192C409.173 26.192 407.973 24.992 407.845 23.328L409.253 23.232C409.413 24.256 410.005 24.912 411.509 24.912C412.661 24.912 413.317 24.56 413.317 23.728C413.317 23.056 412.981 22.768 411.253 22.448C408.885 22 408.181 21.264 408.181 19.92C408.181 18.416 409.349 17.328 411.397 17.328C413.637 17.328 414.581 18.672 414.757 20.048L413.349 20.144C413.269 19.344 412.757 18.608 411.365 18.608C410.149 18.608 409.589 19.136 409.589 19.856C409.589 20.688 410.021 21.008 411.509 21.264C414.005 21.696 414.725 22.384 414.725 23.728C414.725 25.296 413.381 26.192 411.509 26.192ZM419.665 26.192C417.329 26.192 416.129 24.992 416.001 23.328L417.409 23.232C417.569 24.256 418.161 24.912 419.665 24.912C420.817 24.912 421.473 24.56 421.473 23.728C421.473 23.056 421.137 22.768 419.409 22.448C417.041 22 416.337 21.264 416.337 19.92C416.337 18.416 417.505 17.328 419.553 17.328C421.793 17.328 422.737 18.672 422.913 20.048L421.505 20.144C421.425 19.344 420.913 18.608 419.521 18.608C418.305 18.608 417.745 19.136 417.745 19.856C417.745 20.688 418.177 21.008 419.665 21.264C422.161 21.696 422.881 22.384 422.881 23.728C422.881 25.296 421.537 26.192 419.665 26.192ZM427.517 26.192C425.821 26.192 424.733 24.992 424.733 22.976V17.52H426.077V22.608C426.077 24.256 426.653 25.008 427.869 25.008C429.213 25.008 430.029 24.096 430.029 22.576V17.52H431.373V26H430.093V24.624C429.629 25.632 428.733 26.192 427.517 26.192ZM433.936 26V17.52H435.168L435.2 19.008C435.616 17.968 436.496 17.328 437.584 17.328C438.864 17.328 439.76 17.968 440.128 19.104C440.496 17.968 441.36 17.328 442.608 17.328C444.416 17.328 445.408 18.496 445.408 20.544V26H444.064V20.832C444.064 19.296 443.456 18.512 442.288 18.512C441.104 18.512 440.336 19.408 440.336 20.928V26H438.992V20.928C438.992 19.424 438.496 18.512 437.248 18.512C436.064 18.512 435.28 19.424 435.28 20.928V26H433.936ZM451.092 26.192C448.692 26.192 447.204 24.448 447.204 21.76C447.204 19.072 448.692 17.328 451.028 17.328C453.236 17.328 454.772 18.928 454.772 21.776V22.176H448.612C448.708 24 449.62 24.912 451.092 24.912C452.196 24.912 452.916 24.352 453.204 23.488L454.644 23.6C454.196 25.12 452.884 26.192 451.092 26.192ZM448.612 20.992H453.3C453.172 19.36 452.276 18.608 451.028 18.608C449.716 18.608 448.836 19.424 448.612 20.992ZM459.601 26.192C457.393 26.192 456.017 24.48 456.017 21.76C456.017 19.04 457.393 17.328 459.601 17.328C460.737 17.328 461.745 17.84 462.209 18.704V14.64H463.553V26H462.337L462.289 24.72C461.809 25.648 460.785 26.192 459.601 26.192ZM459.873 24.912C461.377 24.912 462.209 23.696 462.209 21.76C462.209 19.792 461.377 18.608 459.873 18.608C458.385 18.608 457.424 19.792 457.424 21.76C457.424 23.696 458.385 24.912 459.873 24.912ZM13.648 52.4V51.216H14.624C15.216 51.216 15.456 51.04 15.616 50.64L15.92 49.84H15.456L12.352 41.52H13.824L16.352 48.592L18.768 41.52H20.24L16.8 51.072C16.48 51.984 15.888 52.4 14.752 52.4H13.648ZM24.7639 50.192C22.4119 50.192 20.8759 48.464 20.8759 45.76C20.8759 43.056 22.4119 41.328 24.7639 41.328C27.0999 41.328 28.6359 43.056 28.6359 45.76C28.6359 48.464 27.0999 50.192 24.7639 50.192ZM24.7639 48.912C26.3159 48.912 27.2279 47.728 27.2279 45.76C27.2279 43.792 26.3159 42.608 24.7639 42.608C23.1959 42.608 22.2839 43.792 22.2839 45.76C22.2839 47.728 23.1959 48.912 24.7639 48.912ZM33.2515 50.192C31.5555 50.192 30.4675 48.992 30.4675 46.976V41.52H31.8115V46.608C31.8115 48.256 32.3875 49.008 33.6035 49.008C34.9475 49.008 35.7635 48.096 35.7635 46.576V41.52H37.1075V50H35.8275V48.624C35.3635 49.632 34.4675 50.192 33.2515 50.192ZM39.1586 42.944L39.9266 40.448H39.1106V38.64H40.9186V40.224L39.9586 42.944H39.1586ZM45.9286 50.192C43.7206 50.192 42.3446 48.48 42.3446 45.76C42.3446 43.04 43.7206 41.328 45.9286 41.328C47.0646 41.328 48.0726 41.84 48.5366 42.704V38.64H49.8806V50H48.6646L48.6166 48.72C48.1366 49.648 47.1126 50.192 45.9286 50.192ZM46.2006 48.912C47.7046 48.912 48.5366 47.696 48.5366 45.76C48.5366 43.792 47.7046 42.608 46.2006 42.608C44.7126 42.608 43.7526 43.792 43.7526 45.76C43.7526 47.696 44.7126 48.912 46.2006 48.912ZM60.3243 50.192C59.1403 50.192 58.1803 49.648 57.7003 48.72L57.6523 50H56.4363V38.64H57.7803V42.704C58.1963 42 59.1403 41.328 60.3243 41.328C62.5643 41.328 63.9722 43.04 63.9722 45.76C63.9722 48.48 62.5643 50.192 60.3243 50.192ZM60.2443 48.912C61.6683 48.912 62.5643 47.696 62.5643 45.76C62.5643 43.792 61.6683 42.608 60.2763 42.608C58.7083 42.608 57.7803 43.792 57.7803 45.76C57.7803 47.696 58.7083 48.912 60.2443 48.912ZM69.1076 50.192C66.7076 50.192 65.2196 48.448 65.2196 45.76C65.2196 43.072 66.7076 41.328 69.0436 41.328C71.2516 41.328 72.7876 42.928 72.7876 45.776V46.176H66.6276C66.7236 48 67.6356 48.912 69.1076 48.912C70.2116 48.912 70.9316 48.352 71.2196 47.488L72.6596 47.6C72.2116 49.12 70.8996 50.192 69.1076 50.192ZM66.6276 44.992H71.3156C71.1876 43.36 70.2916 42.608 69.0436 42.608C67.7316 42.608 66.8516 43.424 66.6276 44.992ZM82.0764 50.192C79.7244 50.192 78.1884 48.464 78.1884 45.76C78.1884 43.056 79.7244 41.328 82.0764 41.328C84.4124 41.328 85.9484 43.056 85.9484 45.76C85.9484 48.464 84.4124 50.192 82.0764 50.192ZM82.0764 48.912C83.6284 48.912 84.5404 47.728 84.5404 45.76C84.5404 43.792 83.6284 42.608 82.0764 42.608C80.5084 42.608 79.5964 43.792 79.5964 45.76C79.5964 47.728 80.5084 48.912 82.0764 48.912ZM87.78 50V38.64H89.124V46.08L93.252 41.52H95.044L91.7 45.12L95.188 50H93.556L90.788 46.032L89.124 47.792V50H87.78ZM104.322 50C102.786 50 102.066 49.328 102.066 47.824V42.704H100.818V41.52H102.066V39.536H103.41V41.52H105.666V42.704H103.41V47.792C103.41 48.56 103.746 48.816 104.45 48.816H105.666V50H104.322ZM110.545 50.192C108.193 50.192 106.657 48.464 106.657 45.76C106.657 43.056 108.193 41.328 110.545 41.328C112.881 41.328 114.417 43.056 114.417 45.76C114.417 48.464 112.881 50.192 110.545 50.192ZM110.545 48.912C112.097 48.912 113.009 47.728 113.009 45.76C113.009 43.792 112.097 42.608 110.545 42.608C108.977 42.608 108.065 43.792 108.065 45.76C108.065 47.728 108.977 48.912 110.545 48.912ZM120.405 52.4V41.52H121.653L121.669 42.816C122.181 41.84 123.125 41.328 124.277 41.328C126.805 41.328 127.941 43.424 127.941 45.76C127.941 48.096 126.805 50.192 124.277 50.192C123.173 50.192 122.197 49.696 121.749 48.88V52.4H120.405ZM124.149 48.912C125.621 48.912 126.533 47.744 126.533 45.76C126.533 43.776 125.621 42.608 124.149 42.608C122.677 42.608 121.749 43.68 121.749 45.76C121.749 47.84 122.661 48.912 124.149 48.912ZM129.732 40.192V38.624H131.14V40.192H129.732ZM129.764 50V41.52H131.108V50H129.764ZM136.826 50.192C134.458 50.192 132.938 48.448 132.938 45.76C132.938 43.072 134.458 41.328 136.826 41.328C138.778 41.328 140.138 42.384 140.426 44.272L139.018 44.368C138.826 43.248 137.978 42.608 136.826 42.608C135.258 42.608 134.346 43.792 134.346 45.76C134.346 47.728 135.258 48.912 136.826 48.912C137.978 48.912 138.826 48.272 139.018 46.992L140.426 47.088C140.138 48.976 138.778 50.192 136.826 50.192ZM142.093 50V38.64H143.437V46.08L147.565 41.52H149.357L146.013 45.12L149.501 50H147.869L145.101 46.032L143.437 47.792V50H142.093ZM160.074 50.256C157.034 50.256 154.97 48.016 154.97 44.336C154.97 40.656 157.034 38.384 160.074 38.384C162.826 38.384 164.282 39.872 164.762 42.256L163.306 42.352C162.986 40.736 161.962 39.728 160.074 39.728C157.898 39.728 156.41 41.456 156.41 44.336C156.41 47.216 157.898 48.912 160.074 48.912C162.058 48.912 163.114 47.808 163.402 46.032L164.858 46.128C164.442 48.592 162.794 50.256 160.074 50.256ZM166.811 50V38.64H168.155V42.848C168.587 41.808 169.547 41.328 170.715 41.328C172.539 41.328 173.547 42.656 173.547 44.544V50H172.203V44.928C172.203 43.296 171.611 42.512 170.427 42.512C169.051 42.512 168.155 43.376 168.155 44.944V50H166.811ZM178.24 50.192C176.48 50.192 175.376 49.344 175.376 47.888C175.376 46.448 176.192 45.648 178.048 45.296L181.056 44.736C181.056 43.312 180.384 42.608 179.04 42.608C177.856 42.608 177.2 43.152 176.944 44.128L175.52 44.016C175.84 42.416 177.12 41.328 179.04 41.328C181.216 41.328 182.4 42.64 182.4 44.784V48.288C182.4 48.672 182.528 48.816 182.848 48.816H183.184V50C183.088 50.016 182.88 50.032 182.672 50.032C181.648 50.032 181.184 49.632 181.072 48.688C180.656 49.568 179.488 50.192 178.24 50.192ZM178.368 49.008C180.064 49.008 181.056 47.92 181.056 46.512V45.904L178.304 46.416C177.152 46.624 176.784 47.056 176.784 47.76C176.784 48.56 177.376 49.008 178.368 49.008ZM184.702 50V41.52H185.886L185.934 43.088C186.238 42.016 186.91 41.52 187.95 41.52H188.782V42.8H187.966C186.686 42.8 186.046 43.488 186.046 44.88V50H184.702ZM191.944 50C190.952 50 190.28 49.52 190.28 48.4V38.64H191.624V48.288C191.624 48.64 191.8 48.816 192.152 48.816H192.888V50H191.944ZM197.764 50.192C195.412 50.192 193.876 48.464 193.876 45.76C193.876 43.056 195.412 41.328 197.764 41.328C200.1 41.328 201.636 43.056 201.636 45.76C201.636 48.464 200.1 50.192 197.764 50.192ZM197.764 48.912C199.316 48.912 200.228 47.728 200.228 45.76C200.228 43.792 199.316 42.608 197.764 42.608C196.196 42.608 195.284 43.792 195.284 45.76C195.284 47.728 196.196 48.912 197.764 48.912ZM206.243 50C204.707 50 203.987 49.328 203.987 47.824V42.704H202.739V41.52H203.987V39.536H205.331V41.52H208.803V39.536H210.147V41.52H212.403V42.704H210.147V47.792C210.147 48.56 210.483 48.816 211.187 48.816H212.403V50H211.059C209.523 50 208.803 49.328 208.803 47.824V42.704H205.331V47.792C205.331 48.56 205.667 48.816 206.371 48.816H207.587V50H206.243ZM217.295 50.192C214.895 50.192 213.407 48.448 213.407 45.76C213.407 43.072 214.895 41.328 217.231 41.328C219.439 41.328 220.975 42.928 220.975 45.776V46.176H214.815C214.911 48 215.823 48.912 217.295 48.912C218.399 48.912 219.119 48.352 219.407 47.488L220.847 47.6C220.399 49.12 219.087 50.192 217.295 50.192ZM214.815 44.992H219.503C219.375 43.36 218.479 42.608 217.231 42.608C215.919 42.608 215.039 43.424 214.815 44.992ZM229.736 50.192C228.04 50.192 226.952 48.992 226.952 46.976V41.52H228.296V46.608C228.296 48.256 228.872 49.008 230.088 49.008C231.432 49.008 232.248 48.096 232.248 46.576V41.52H233.592V50H232.312V48.624C231.848 49.632 230.952 50.192 229.736 50.192ZM236.155 52.4V41.52H237.403L237.419 42.816C237.931 41.84 238.875 41.328 240.027 41.328C242.555 41.328 243.691 43.424 243.691 45.76C243.691 48.096 242.555 50.192 240.027 50.192C238.923 50.192 237.947 49.696 237.499 48.88V52.4H236.155ZM239.899 48.912C241.371 48.912 242.283 47.744 242.283 45.76C242.283 43.776 241.371 42.608 239.899 42.608C238.427 42.608 237.499 43.68 237.499 45.76C237.499 47.84 238.411 48.912 239.899 48.912ZM251.959 50.192C250.199 50.192 249.095 49.344 249.095 47.888C249.095 46.448 249.911 45.648 251.767 45.296L254.775 44.736C254.775 43.312 254.103 42.608 252.759 42.608C251.575 42.608 250.919 43.152 250.663 44.128L249.239 44.016C249.559 42.416 250.839 41.328 252.759 41.328C254.935 41.328 256.119 42.64 256.119 44.784V48.288C256.119 48.672 256.247 48.816 256.567 48.816H256.903V50C256.807 50.016 256.599 50.032 256.391 50.032C255.367 50.032 254.903 49.632 254.791 48.688C254.375 49.568 253.207 50.192 251.959 50.192ZM252.087 49.008C253.783 49.008 254.775 47.92 254.775 46.512V45.904L252.023 46.416C250.871 46.624 250.503 47.056 250.503 47.76C250.503 48.56 251.095 49.008 252.087 49.008ZM261.477 50.192C259.141 50.192 257.941 48.992 257.813 47.328L259.221 47.232C259.381 48.256 259.973 48.912 261.477 48.912C262.629 48.912 263.285 48.56 263.285 47.728C263.285 47.056 262.949 46.768 261.221 46.448C258.853 46 258.149 45.264 258.149 43.92C258.149 42.416 259.317 41.328 261.365 41.328C263.605 41.328 264.549 42.672 264.725 44.048L263.317 44.144C263.237 43.344 262.725 42.608 261.333 42.608C260.117 42.608 259.557 43.136 259.557 43.856C259.557 44.688 259.989 45.008 261.477 45.264C263.973 45.696 264.693 46.384 264.693 47.728C264.693 49.296 263.349 50.192 261.477 50.192ZM270.67 40.192V38.624H272.078V40.192H270.67ZM270.702 50V41.52H272.046V50H270.702ZM277.072 50C275.536 50 274.816 49.328 274.816 47.824V42.704H273.568V41.52H274.816V39.536H276.16V41.52H278.416V42.704H276.16V47.792C276.16 48.56 276.496 48.816 277.2 48.816H278.416V50H277.072ZM289.881 40.192V38.624H291.289V40.192H289.881ZM285.065 50V42.704H283.913V41.52H285.065V40.752C285.065 39.504 285.769 38.64 287.305 38.64H288.649V39.824H287.401C286.729 39.824 286.409 40.208 286.409 40.848V41.52H288.537V42.704H286.409V50H285.065ZM289.913 50V41.52H291.257V50H289.913ZM293.905 50V41.52H295.137L295.169 43.04C295.617 41.872 296.609 41.328 297.777 41.328C299.713 41.328 300.641 42.752 300.641 44.544V50H299.297V44.928C299.297 43.36 298.769 42.512 297.489 42.512C296.177 42.512 295.249 43.36 295.249 44.928V50H293.905ZM303.076 40.192V38.624H304.484V40.192H303.076ZM303.108 50V41.52H304.452V50H303.108ZM309.946 50.192C307.61 50.192 306.41 48.992 306.282 47.328L307.69 47.232C307.85 48.256 308.442 48.912 309.946 48.912C311.098 48.912 311.754 48.56 311.754 47.728C311.754 47.056 311.418 46.768 309.69 46.448C307.322 46 306.618 45.264 306.618 43.92C306.618 42.416 307.786 41.328 309.834 41.328C312.074 41.328 313.018 42.672 313.194 44.048L311.786 44.144C311.706 43.344 311.194 42.608 309.802 42.608C308.586 42.608 308.026 43.136 308.026 43.856C308.026 44.688 308.458 45.008 309.946 45.264C312.442 45.696 313.162 46.384 313.162 47.728C313.162 49.296 311.818 50.192 309.946 50.192ZM315.014 50V38.64H316.358V42.848C316.79 41.808 317.75 41.328 318.918 41.328C320.742 41.328 321.75 42.656 321.75 44.544V50H320.406V44.928C320.406 43.296 319.814 42.512 318.63 42.512C317.254 42.512 316.358 43.376 316.358 44.944V50H315.014ZM327.436 50.192C325.036 50.192 323.548 48.448 323.548 45.76C323.548 43.072 325.036 41.328 327.372 41.328C329.58 41.328 331.116 42.928 331.116 45.776V46.176H324.956C325.052 48 325.964 48.912 327.436 48.912C328.54 48.912 329.26 48.352 329.548 47.488L330.988 47.6C330.54 49.12 329.228 50.192 327.436 50.192ZM324.956 44.992H329.644C329.516 43.36 328.62 42.608 327.372 42.608C326.06 42.608 325.18 43.424 324.956 44.992ZM336.024 50.192C333.688 50.192 332.488 48.992 332.36 47.328L333.768 47.232C333.928 48.256 334.52 48.912 336.024 48.912C337.176 48.912 337.832 48.56 337.832 47.728C337.832 47.056 337.496 46.768 335.768 46.448C333.4 46 332.696 45.264 332.696 43.92C332.696 42.416 333.864 41.328 335.912 41.328C338.152 41.328 339.096 42.672 339.272 44.048L337.864 44.144C337.784 43.344 337.272 42.608 335.88 42.608C334.664 42.608 334.104 43.136 334.104 43.856C334.104 44.688 334.536 45.008 336.024 45.264C338.52 45.696 339.24 46.384 339.24 47.728C339.24 49.296 337.896 50.192 336.024 50.192ZM347.537 50.192C345.777 50.192 344.673 49.344 344.673 47.888C344.673 46.448 345.489 45.648 347.345 45.296L350.353 44.736C350.353 43.312 349.681 42.608 348.337 42.608C347.153 42.608 346.497 43.152 346.241 44.128L344.817 44.016C345.137 42.416 346.417 41.328 348.337 41.328C350.513 41.328 351.697 42.64 351.697 44.784V48.288C351.697 48.672 351.825 48.816 352.145 48.816H352.481V50C352.385 50.016 352.177 50.032 351.969 50.032C350.945 50.032 350.481 49.632 350.369 48.688C349.953 49.568 348.785 50.192 347.537 50.192ZM347.665 49.008C349.361 49.008 350.353 47.92 350.353 46.512V45.904L347.601 46.416C346.449 46.624 346.081 47.056 346.081 47.76C346.081 48.56 346.673 49.008 347.665 49.008ZM356.368 50C354.832 50 354.112 49.328 354.112 47.824V42.704H352.864V41.52H354.112V39.536H355.456V41.52H357.712V42.704H355.456V47.792C355.456 48.56 355.792 48.816 356.496 48.816H357.712V50H356.368ZM365.258 50V41.584H362.89V40.4H363.85C365.098 40.4 365.546 39.984 365.546 38.64H366.634V50H365.258ZM370.926 50C370.926 46.48 372.43 42.896 374.958 39.984H368.398V38.64H376.462V39.888C373.598 43.152 372.334 46.16 372.334 50H370.926ZM377.628 43.712V41.904H379.436V43.712H377.628ZM377.628 50V48.192H379.436V50H377.628ZM386.202 50.256C383.45 50.256 381.706 47.968 381.706 44.336C381.706 40.688 383.45 38.384 386.202 38.384C388.97 38.384 390.714 40.672 390.714 44.336C390.714 47.968 388.97 50.256 386.202 50.256ZM386.202 48.912C388.17 48.912 389.274 47.264 389.274 44.336C389.274 41.392 388.17 39.728 386.202 39.728C384.25 39.728 383.146 41.392 383.146 44.336C383.146 47.264 384.25 48.912 386.202 48.912ZM396.968 50.256C394.216 50.256 392.472 47.968 392.472 44.336C392.472 40.688 394.216 38.384 396.968 38.384C399.736 38.384 401.48 40.672 401.48 44.336C401.48 47.968 399.736 50.256 396.968 50.256ZM396.968 48.912C398.936 48.912 400.04 47.264 400.04 44.336C400.04 41.392 398.936 39.728 396.968 39.728C395.016 39.728 393.912 41.392 393.912 44.336C393.912 47.264 395.016 48.912 396.968 48.912ZM406.985 45.968V44.704H412.281V45.968H406.985ZM418.632 52.4V51.216H419.608C420.2 51.216 420.44 51.04 420.6 50.64L420.904 49.84H420.44L417.336 41.52H418.808L421.336 48.592L423.752 41.52H425.224L421.784 51.072C421.464 51.984 420.872 52.4 419.736 52.4H418.632ZM429.748 50.192C427.396 50.192 425.86 48.464 425.86 45.76C425.86 43.056 427.396 41.328 429.748 41.328C432.084 41.328 433.62 43.056 433.62 45.76C433.62 48.464 432.084 50.192 429.748 50.192ZM429.748 48.912C431.3 48.912 432.212 47.728 432.212 45.76C432.212 43.792 431.3 42.608 429.748 42.608C428.18 42.608 427.268 43.792 427.268 45.76C427.268 47.728 428.18 48.912 429.748 48.912ZM438.236 50.192C436.54 50.192 435.452 48.992 435.452 46.976V41.52H436.796V46.608C436.796 48.256 437.372 49.008 438.588 49.008C439.932 49.008 440.748 48.096 440.748 46.576V41.52H442.092V50H440.812V48.624C440.348 49.632 439.452 50.192 438.236 50.192ZM444.655 50V41.52H445.839L445.887 43.088C446.191 42.016 446.863 41.52 447.903 41.52H448.735V42.8H447.919C446.639 42.8 445.999 43.488 445.999 44.88V50H444.655ZM16.592 74.192C14.224 74.192 12.704 72.448 12.704 69.76C12.704 67.072 14.224 65.328 16.592 65.328C18.544 65.328 19.904 66.384 20.192 68.272L18.784 68.368C18.592 67.248 17.744 66.608 16.592 66.608C15.024 66.608 14.112 67.792 14.112 69.76C14.112 71.728 15.024 72.912 16.592 72.912C17.744 72.912 18.592 72.272 18.784 70.992L20.192 71.088C19.904 72.976 18.544 74.192 16.592 74.192ZM24.3649 74.192C22.6049 74.192 21.5009 73.344 21.5009 71.888C21.5009 70.448 22.3169 69.648 24.1729 69.296L27.1809 68.736C27.1809 67.312 26.5089 66.608 25.1649 66.608C23.9809 66.608 23.3249 67.152 23.0689 68.128L21.6449 68.016C21.9649 66.416 23.2449 65.328 25.1649 65.328C27.3409 65.328 28.5249 66.64 28.5249 68.784V72.288C28.5249 72.672 28.6529 72.816 28.9729 72.816H29.3089V74C29.2129 74.016 29.0049 74.032 28.7969 74.032C27.7729 74.032 27.3089 73.632 27.1969 72.688C26.7809 73.568 25.6129 74.192 24.3649 74.192ZM24.4929 73.008C26.1889 73.008 27.1809 71.92 27.1809 70.512V69.904L24.4289 70.416C23.2769 70.624 22.9089 71.056 22.9089 71.76C22.9089 72.56 23.5009 73.008 24.4929 73.008ZM32.3971 74C31.4051 74 30.7331 73.52 30.7331 72.4V62.64H32.0771V72.288C32.0771 72.64 32.2531 72.816 32.6051 72.816H33.3411V74H32.3971ZM38.217 74.192C35.817 74.192 34.329 72.448 34.329 69.76C34.329 67.072 35.817 65.328 38.153 65.328C40.361 65.328 41.897 66.928 41.897 69.776V70.176H35.737C35.833 72 36.745 72.912 38.217 72.912C39.321 72.912 40.041 72.352 40.329 71.488L41.769 71.6C41.321 73.12 40.009 74.192 38.217 74.192ZM35.737 68.992H40.425C40.297 67.36 39.401 66.608 38.153 66.608C36.841 66.608 35.961 67.424 35.737 68.992ZM43.7175 74V65.52H44.9495L44.9815 67.04C45.4295 65.872 46.4215 65.328 47.5895 65.328C49.5255 65.328 50.4535 66.752 50.4535 68.544V74H49.1095V68.928C49.1095 67.36 48.5815 66.512 47.3015 66.512C45.9895 66.512 45.0615 67.36 45.0615 68.928V74H43.7175ZM55.8349 74.192C53.6269 74.192 52.2509 72.48 52.2509 69.76C52.2509 67.04 53.6269 65.328 55.8349 65.328C56.9709 65.328 57.9789 65.84 58.4429 66.704V62.64H59.7869V74H58.5709L58.5229 72.72C58.0429 73.648 57.0189 74.192 55.8349 74.192ZM56.1069 72.912C57.6109 72.912 58.4429 71.696 58.4429 69.76C58.4429 67.792 57.6109 66.608 56.1069 66.608C54.6189 66.608 53.6589 67.792 53.6589 69.76C53.6589 71.696 54.6189 72.912 56.1069 72.912ZM64.4743 74.192C62.7143 74.192 61.6103 73.344 61.6103 71.888C61.6103 70.448 62.4263 69.648 64.2823 69.296L67.2903 68.736C67.2903 67.312 66.6183 66.608 65.2743 66.608C64.0903 66.608 63.4343 67.152 63.1783 68.128L61.7543 68.016C62.0743 66.416 63.3543 65.328 65.2743 65.328C67.4503 65.328 68.6343 66.64 68.6343 68.784V72.288C68.6343 72.672 68.7623 72.816 69.0823 72.816H69.4183V74C69.3223 74.016 69.1143 74.032 68.9062 74.032C67.8823 74.032 67.4183 73.632 67.3063 72.688C66.8903 73.568 65.7223 74.192 64.4743 74.192ZM64.6023 73.008C66.2983 73.008 67.2903 71.92 67.2903 70.512V69.904L64.5383 70.416C63.3863 70.624 63.0182 71.056 63.0182 71.76C63.0182 72.56 63.6103 73.008 64.6023 73.008ZM70.9363 74V65.52H72.1203L72.1683 67.088C72.4723 66.016 73.1443 65.52 74.1843 65.52H75.0163V66.8H74.2003C72.9203 66.8 72.2803 67.488 72.2803 68.88V74H70.9363ZM80.9668 64.192V62.624H82.3748V64.192H80.9668ZM80.9988 74V65.52H82.3428V74H80.9988ZM87.8368 74.192C85.5008 74.192 84.3008 72.992 84.1728 71.328L85.5807 71.232C85.7408 72.256 86.3328 72.912 87.8368 72.912C88.9888 72.912 89.6448 72.56 89.6448 71.728C89.6448 71.056 89.3088 70.768 87.5807 70.448C85.2128 70 84.5088 69.264 84.5088 67.92C84.5088 66.416 85.6768 65.328 87.7248 65.328C89.9648 65.328 90.9088 66.672 91.0848 68.048L89.6768 68.144C89.5968 67.344 89.0848 66.608 87.6927 66.608C86.4768 66.608 85.9168 67.136 85.9168 67.856C85.9168 68.688 86.3488 69.008 87.8368 69.264C90.3328 69.696 91.0528 70.384 91.0528 71.728C91.0528 73.296 89.7088 74.192 87.8368 74.192ZM97.8932 74V66.704H96.7413V65.52H97.8932V64.752C97.8932 63.504 98.5973 62.64 100.133 62.64H101.477V63.824H100.229C99.5573 63.824 99.2373 64.208 99.2373 64.848V65.52H101.365V66.704H99.2373V74H97.8932ZM102.889 74V65.52H104.073L104.121 67.088C104.425 66.016 105.097 65.52 106.137 65.52H106.969V66.8H106.153C104.873 66.8 104.233 67.488 104.233 68.88V74H102.889ZM111.623 74.192C109.223 74.192 107.735 72.448 107.735 69.76C107.735 67.072 109.223 65.328 111.559 65.328C113.767 65.328 115.303 66.928 115.303 69.776V70.176H109.143C109.239 72 110.151 72.912 111.623 72.912C112.727 72.912 113.447 72.352 113.735 71.488L115.175 71.6C114.727 73.12 113.415 74.192 111.623 74.192ZM109.143 68.992H113.831C113.703 67.36 112.807 66.608 111.559 66.608C110.247 66.608 109.367 67.424 109.143 68.992ZM120.436 74.192C118.036 74.192 116.548 72.448 116.548 69.76C116.548 67.072 118.036 65.328 120.372 65.328C122.58 65.328 124.116 66.928 124.116 69.776V70.176H117.956C118.052 72 118.964 72.912 120.436 72.912C121.54 72.912 122.26 72.352 122.548 71.488L123.988 71.6C123.54 73.12 122.228 74.192 120.436 74.192ZM117.956 68.992H122.644C122.516 67.36 121.62 66.608 120.372 66.608C119.06 66.608 118.18 67.424 117.956 68.992ZM132.381 74.192C130.621 74.192 129.517 73.344 129.517 71.888C129.517 70.448 130.333 69.648 132.189 69.296L135.197 68.736C135.197 67.312 134.525 66.608 133.181 66.608C131.997 66.608 131.341 67.152 131.085 68.128L129.661 68.016C129.981 66.416 131.261 65.328 133.181 65.328C135.357 65.328 136.541 66.64 136.541 68.784V72.288C136.541 72.672 136.669 72.816 136.989 72.816H137.325V74C137.229 74.016 137.021 74.032 136.812 74.032C135.789 74.032 135.325 73.632 135.213 72.688C134.797 73.568 133.629 74.192 132.381 74.192ZM132.509 73.008C134.205 73.008 135.197 71.92 135.197 70.512V69.904L132.445 70.416C131.293 70.624 130.924 71.056 130.924 71.76C130.924 72.56 131.517 73.008 132.509 73.008ZM141.212 74C139.676 74 138.956 73.328 138.956 71.824V66.704H137.708V65.52H138.956V63.536H140.3V65.52H142.556V66.704H140.3V71.792C140.3 72.56 140.636 72.816 141.34 72.816H142.556V74H141.212ZM151.478 74C149.942 74 149.222 73.328 149.222 71.824V66.704H147.974V65.52H149.222V63.536H150.566V65.52H152.822V66.704H150.566V71.792C150.566 72.56 150.902 72.816 151.606 72.816H152.822V74H151.478ZM154.389 74V62.64H155.733V66.848C156.165 65.808 157.125 65.328 158.293 65.328C160.117 65.328 161.125 66.656 161.125 68.544V74H159.781V68.928C159.781 67.296 159.189 66.512 158.005 66.512C156.629 66.512 155.733 67.376 155.733 68.944V74H154.389ZM165.818 74.192C164.058 74.192 162.954 73.344 162.954 71.888C162.954 70.448 163.77 69.648 165.626 69.296L168.634 68.736C168.634 67.312 167.962 66.608 166.618 66.608C165.434 66.608 164.778 67.152 164.522 68.128L163.098 68.016C163.418 66.416 164.698 65.328 166.618 65.328C168.794 65.328 169.978 66.64 169.978 68.784V72.288C169.978 72.672 170.106 72.816 170.426 72.816H170.762V74C170.666 74.016 170.458 74.032 170.25 74.032C169.226 74.032 168.762 73.632 168.65 72.688C168.234 73.568 167.066 74.192 165.818 74.192ZM165.946 73.008C167.642 73.008 168.634 71.92 168.634 70.512V69.904L165.882 70.416C164.73 70.624 164.362 71.056 164.362 71.76C164.362 72.56 164.954 73.008 165.946 73.008ZM174.65 74C173.114 74 172.394 73.328 172.394 71.824V66.704H171.146V65.52H172.394V63.536H173.738V65.52H175.994V66.704H173.738V71.792C173.738 72.56 174.074 72.816 174.778 72.816H175.994V74H174.65ZM184.915 74C183.379 74 182.659 73.328 182.659 71.824V66.704H181.411V65.52H182.659V63.536H184.003V65.52H186.259V66.704H184.003V71.792C184.003 72.56 184.339 72.816 185.043 72.816H186.259V74H184.915ZM187.795 64.192V62.624H189.203V64.192H187.795ZM187.827 74V65.52H189.171V74H187.827ZM191.827 74V65.52H193.059L193.091 67.008C193.507 65.968 194.387 65.328 195.475 65.328C196.755 65.328 197.651 65.968 198.019 67.104C198.387 65.968 199.251 65.328 200.499 65.328C202.307 65.328 203.299 66.496 203.299 68.544V74H201.955V68.832C201.955 67.296 201.347 66.512 200.179 66.512C198.995 66.512 198.227 67.408 198.227 68.928V74H196.883V68.928C196.883 67.424 196.387 66.512 195.139 66.512C193.955 66.512 193.171 67.424 193.171 68.928V74H191.827ZM208.983 74.192C206.583 74.192 205.095 72.448 205.095 69.76C205.095 67.072 206.583 65.328 208.919 65.328C211.127 65.328 212.663 66.928 212.663 69.776V70.176H206.503C206.599 72 207.511 72.912 208.983 72.912C210.087 72.912 210.807 72.352 211.095 71.488L212.535 71.6C212.087 73.12 210.775 74.192 208.983 74.192ZM206.503 68.992H211.191C211.063 67.36 210.167 66.608 208.919 66.608C207.607 66.608 206.727 67.424 206.503 68.992ZM214.063 74V72.192H215.871V74H214.063Z" fill="#1E2939"/>
<defs>
<linearGradient id="paint0_linear_6889_39329" x1="0" y1="44" x2="480" y2="44" gradientUnits="userSpaceOnUse">
<stop stop-color="#F2F5EA"/>
<stop offset="1" stop-color="#DCE3C5"/>
</linearGradient>
</defs>
</svg>
