<svg width="195" height="36" viewBox="0 0 195 36" fill="none" xmlns="http://www.w3.org/2000/svg">
<rect x="0.5" y="0.5" width="194" height="35" rx="7.5" fill="url(#paint0_linear_6908_39492)"/>
<rect x="0.5" y="0.5" width="194" height="35" rx="7.5" stroke="#BF69A6"/>
<path d="M13.204 23V13.06H16.396C19.504 13.06 21.254 14.852 21.254 18.044C21.254 21.222 19.546 23 16.48 23H13.204ZM14.716 21.614H16.396C18.594 21.614 19.686 20.438 19.686 18.044C19.686 15.622 18.594 14.446 16.396 14.446H14.716V21.614ZM22.9211 23V15.552H24.2791L24.3211 16.966C24.6011 15.986 25.1891 15.552 26.0991 15.552H26.8131V16.882H26.0991C24.9651 16.882 24.4051 17.428 24.4051 18.604V23H22.9211ZM29.9837 23.168C28.4297 23.168 27.4357 22.426 27.4357 21.138C27.4357 19.864 28.1777 19.178 29.8157 18.856L32.3777 18.366C32.3777 17.218 31.8317 16.644 30.7677 16.644C29.8157 16.644 29.2837 17.078 29.0877 17.89L27.5617 17.792C27.8417 16.308 29.0037 15.384 30.7677 15.384C32.7837 15.384 33.8617 16.518 33.8617 18.45V21.348C33.8617 21.712 33.9737 21.824 34.2537 21.824H34.5197V23C34.4217 23.028 34.1977 23.042 33.9737 23.042C33.1197 23.042 32.6157 22.72 32.5037 21.852C32.1257 22.636 31.1457 23.168 29.9837 23.168ZM30.2217 21.992C31.5657 21.992 32.3777 21.152 32.3777 19.962V19.486L30.1937 19.906C29.2977 20.074 28.9757 20.424 28.9757 20.998C28.9757 21.642 29.4237 21.992 30.2217 21.992ZM36.3919 23V16.77H35.3559V15.552H36.3919V15.076C36.3919 13.844 37.0639 13.06 38.5199 13.06H39.8499V14.278H38.7299C38.1419 14.278 37.8759 14.6 37.8759 15.16V15.552H39.7379V16.77H37.8759V23H36.3919ZM43.7556 23C42.3416 23 41.6836 22.384 41.6836 20.984V16.77H40.5496V15.552H41.6836V13.802H43.1676V15.552H45.1416V16.77H43.1676V20.872C43.1676 21.572 43.4616 21.782 44.0776 21.782H45.1416V23H43.7556ZM46.4224 14.474V12.99H47.9624V14.474H46.4224ZM46.4504 23V15.552H47.9344V23H46.4504ZM50.1145 23V15.552H51.4725L51.5005 16.854C51.8925 15.832 52.7465 15.384 53.7685 15.384C55.4345 15.384 56.2885 16.588 56.2885 18.212V23H54.8045V18.66C54.8045 17.344 54.3985 16.63 53.3625 16.63C52.3125 16.63 51.5985 17.344 51.5985 18.66V23H50.1145ZM61.2179 25.268C59.4399 25.268 58.2919 24.414 57.9699 23.126L59.5099 23.028C59.7059 23.658 60.1679 24.036 61.2179 24.036C62.4499 24.036 63.1359 23.532 63.1359 22.454V21.376C62.7719 22.132 61.9319 22.622 60.9659 22.622C59.0899 22.622 57.7599 21.152 57.7599 19.01C57.7599 16.882 59.0619 15.384 60.9099 15.384C61.9739 15.384 62.8279 15.902 63.1919 16.728V15.552H64.6199V22.412C64.6199 24.246 63.3039 25.268 61.2179 25.268ZM61.2039 21.362C62.3659 21.362 63.1219 20.466 63.1359 18.996C63.1639 17.54 62.3799 16.644 61.2039 16.644C59.9999 16.644 59.2999 17.554 59.2999 18.996C59.2999 20.452 60.0279 21.362 61.2039 21.362ZM73.1961 23.168C71.0261 23.168 69.6681 21.628 69.6681 19.276C69.6681 16.924 71.0261 15.384 73.1541 15.384C75.1841 15.384 76.5561 16.826 76.5561 19.332V19.71H71.2081C71.2781 21.166 72.0201 21.894 73.2101 21.894C74.0781 21.894 74.6661 21.46 74.9041 20.76L76.4441 20.858C76.0521 22.244 74.8341 23.168 73.1961 23.168ZM71.2081 18.59H74.9881C74.8901 17.274 74.1621 16.644 73.1541 16.644C72.0901 16.644 71.3761 17.33 71.2081 18.59ZM78.0598 23V15.552H79.4178L79.4458 16.826C79.8098 15.916 80.5798 15.384 81.5178 15.384C82.6238 15.384 83.3938 15.958 83.7158 16.924C84.0518 15.93 84.8078 15.384 85.8718 15.384C87.4398 15.384 88.3358 16.392 88.3358 18.212V23H86.8518V18.576C86.8518 17.288 86.3898 16.63 85.4378 16.63C84.4998 16.63 83.8978 17.372 83.8978 18.632V23H82.4838V18.632C82.4838 17.372 82.0918 16.63 81.0978 16.63C80.1458 16.63 79.5438 17.386 79.5438 18.632V23H78.0598ZM92.3821 23.168C90.8281 23.168 89.8341 22.426 89.8341 21.138C89.8341 19.864 90.5761 19.178 92.2141 18.856L94.7761 18.366C94.7761 17.218 94.2301 16.644 93.1661 16.644C92.2141 16.644 91.6821 17.078 91.4861 17.89L89.9601 17.792C90.2401 16.308 91.4021 15.384 93.1661 15.384C95.1821 15.384 96.2601 16.518 96.2601 18.45V21.348C96.2601 21.712 96.3721 21.824 96.6521 21.824H96.9181V23C96.8201 23.028 96.5961 23.042 96.3721 23.042C95.5181 23.042 95.0141 22.72 94.9021 21.852C94.5241 22.636 93.5441 23.168 92.3821 23.168ZM92.6201 21.992C93.9641 21.992 94.7761 21.152 94.7761 19.962V19.486L92.5921 19.906C91.6961 20.074 91.3741 20.424 91.3741 20.998C91.3741 21.642 91.8221 21.992 92.6201 21.992ZM98.0747 14.474V12.99H99.6147V14.474H98.0747ZM98.1027 23V15.552H99.5867V23H98.1027ZM103.199 23C102.219 23 101.575 22.524 101.575 21.418V13.06H103.059V21.278C103.059 21.628 103.241 21.782 103.577 21.782H104.165V23H103.199ZM105.408 25.198L106.108 23H105.338V21.236H107.144V22.79L106.262 25.198H105.408ZM115.041 23C113.627 23 112.969 22.384 112.969 20.984V16.77H111.835V15.552H112.969V13.802H114.453V15.552H116.427V16.77H114.453V20.872C114.453 21.572 114.747 21.782 115.363 21.782H116.427V23H115.041ZM117.995 23V15.552H119.353L119.395 16.966C119.675 15.986 120.263 15.552 121.173 15.552H121.887V16.882H121.173C120.039 16.882 119.479 17.428 119.479 18.604V23H117.995ZM125.058 23.168C123.504 23.168 122.51 22.426 122.51 21.138C122.51 19.864 123.252 19.178 124.89 18.856L127.452 18.366C127.452 17.218 126.906 16.644 125.842 16.644C124.89 16.644 124.358 17.078 124.162 17.89L122.636 17.792C122.916 16.308 124.078 15.384 125.842 15.384C127.858 15.384 128.936 16.518 128.936 18.45V21.348C128.936 21.712 129.048 21.824 129.328 21.824H129.594V23C129.496 23.028 129.272 23.042 129.048 23.042C128.194 23.042 127.69 22.72 127.578 21.852C127.2 22.636 126.22 23.168 125.058 23.168ZM125.296 21.992C126.64 21.992 127.452 21.152 127.452 19.962V19.486L125.268 19.906C124.372 20.074 124.05 20.424 124.05 20.998C124.05 21.642 124.498 21.992 125.296 21.992ZM130.847 23V15.552H132.205L132.233 16.854C132.625 15.832 133.479 15.384 134.501 15.384C136.167 15.384 137.021 16.588 137.021 18.212V23H135.537V18.66C135.537 17.344 135.131 16.63 134.095 16.63C133.045 16.63 132.331 17.344 132.331 18.66V23H130.847ZM141.824 23.168C139.654 23.168 138.604 22.118 138.492 20.648L140.018 20.578C140.158 21.404 140.634 21.922 141.824 21.922C142.748 21.922 143.266 21.642 143.266 20.984C143.266 20.438 142.986 20.2 141.572 19.948C139.402 19.542 138.758 18.912 138.758 17.694C138.758 16.336 139.808 15.384 141.754 15.384C143.812 15.384 144.694 16.532 144.834 17.834L143.308 17.918C143.252 17.218 142.818 16.63 141.726 16.63C140.76 16.63 140.298 17.05 140.298 17.638C140.298 18.296 140.662 18.562 141.866 18.758C144.12 19.136 144.806 19.752 144.806 20.97C144.806 22.37 143.602 23.168 141.824 23.168ZM148.029 23C147.049 23 146.405 22.524 146.405 21.418V13.06H147.889V21.278C147.889 21.628 148.071 21.782 148.407 21.782H148.995V23H148.029ZM152.429 23.168C150.875 23.168 149.881 22.426 149.881 21.138C149.881 19.864 150.623 19.178 152.261 18.856L154.823 18.366C154.823 17.218 154.277 16.644 153.213 16.644C152.261 16.644 151.729 17.078 151.533 17.89L150.007 17.792C150.287 16.308 151.449 15.384 153.213 15.384C155.229 15.384 156.307 16.518 156.307 18.45V21.348C156.307 21.712 156.419 21.824 156.699 21.824H156.965V23C156.867 23.028 156.643 23.042 156.419 23.042C155.565 23.042 155.061 22.72 154.949 21.852C154.571 22.636 153.591 23.168 152.429 23.168ZM152.667 21.992C154.011 21.992 154.823 21.152 154.823 19.962V19.486L152.639 19.906C151.743 20.074 151.421 20.424 151.421 20.998C151.421 21.642 151.869 21.992 152.667 21.992ZM160.445 23C159.031 23 158.373 22.384 158.373 20.984V16.77H157.239V15.552H158.373V13.802H159.857V15.552H161.831V16.77H159.857V20.872C159.857 21.572 160.151 21.782 160.767 21.782H161.831V23H160.445ZM163.112 14.474V12.99H164.652V14.474H163.112ZM163.14 23V15.552H164.624V23H163.14ZM166.804 23V15.552H168.162L168.19 16.854C168.582 15.832 169.436 15.384 170.458 15.384C172.124 15.384 172.978 16.588 172.978 18.212V23H171.494V18.66C171.494 17.344 171.088 16.63 170.052 16.63C169.002 16.63 168.288 17.344 168.288 18.66V23H166.804ZM177.907 25.268C176.129 25.268 174.981 24.414 174.659 23.126L176.199 23.028C176.395 23.658 176.857 24.036 177.907 24.036C179.139 24.036 179.825 23.532 179.825 22.454V21.376C179.461 22.132 178.621 22.622 177.655 22.622C175.779 22.622 174.449 21.152 174.449 19.01C174.449 16.882 175.751 15.384 177.599 15.384C178.663 15.384 179.517 15.902 179.881 16.728V15.552H181.309V22.412C181.309 24.246 179.993 25.268 177.907 25.268ZM177.893 21.362C179.055 21.362 179.811 20.466 179.825 18.996C179.853 17.54 179.069 16.644 177.893 16.644C176.689 16.644 175.989 17.554 175.989 18.996C175.989 20.452 176.717 21.362 177.893 21.362Z" fill="#1E2939"/>
<defs>
<linearGradient id="paint0_linear_6908_39492" x1="0" y1="18" x2="195" y2="18" gradientUnits="userSpaceOnUse">
<stop stop-color="#F3E2EE"/>
<stop offset="1" stop-color="#DDB0D0"/>
</linearGradient>
</defs>
</svg>
