<svg width="480" height="160" viewBox="0 0 480 160" fill="none" xmlns="http://www.w3.org/2000/svg">
<rect x="0.5" y="0.5" width="479" height="159" rx="7.5" fill="url(#paint0_linear_6889_39313)"/>
<rect x="0.5" y="0.5" width="479" height="159" rx="7.5" stroke="#859DA7"/>
<path d="M13.472 26V14.64H15.392L19.024 24.496L22.64 14.64H24.56V26H23.184V17.2L19.936 26H18.096L14.848 17.2V26H13.472ZM29.443 26.192C27.683 26.192 26.579 25.344 26.579 23.888C26.579 22.448 27.395 21.648 29.251 21.296L32.259 20.736C32.259 19.312 31.587 18.608 30.243 18.608C29.059 18.608 28.403 19.152 28.147 20.128L26.723 20.016C27.043 18.416 28.323 17.328 30.243 17.328C32.419 17.328 33.603 18.64 33.603 20.784V24.288C33.603 24.672 33.731 24.816 34.051 24.816H34.387V26C34.291 26.016 34.083 26.032 33.875 26.032C32.851 26.032 32.387 25.632 32.275 24.688C31.859 25.568 30.691 26.192 29.443 26.192ZM29.571 25.008C31.267 25.008 32.259 23.92 32.259 22.512V21.904L29.507 22.416C28.355 22.624 27.987 23.056 27.987 23.76C27.987 24.56 28.579 25.008 29.571 25.008ZM35.905 26V17.52H37.089L37.137 19.088C37.441 18.016 38.113 17.52 39.153 17.52H39.985V18.8H39.169C37.889 18.8 37.249 19.488 37.249 20.88V26H35.905ZM44.6389 26.192C42.2709 26.192 40.7509 24.448 40.7509 21.76C40.7509 19.072 42.2709 17.328 44.6389 17.328C46.5909 17.328 47.9509 18.384 48.2389 20.272L46.8309 20.368C46.6389 19.248 45.7909 18.608 44.6389 18.608C43.0709 18.608 42.1589 19.792 42.1589 21.76C42.1589 23.728 43.0709 24.912 44.6389 24.912C45.7909 24.912 46.6389 24.272 46.8309 22.992L48.2389 23.088C47.9509 24.976 46.5909 26.192 44.6389 26.192ZM52.689 26.192C50.993 26.192 49.905 24.992 49.905 22.976V17.52H51.249V22.608C51.249 24.256 51.825 25.008 53.041 25.008C54.385 25.008 55.201 24.096 55.201 22.576V17.52H56.545V26H55.265V24.624C54.801 25.632 53.905 26.192 52.689 26.192ZM62.0399 26.192C59.7039 26.192 58.5039 24.992 58.3759 23.328L59.7839 23.232C59.9439 24.256 60.5359 24.912 62.0399 24.912C63.1919 24.912 63.8479 24.56 63.8479 23.728C63.8479 23.056 63.5119 22.768 61.7839 22.448C59.4159 22 58.7119 21.264 58.7119 19.92C58.7119 18.416 59.8799 17.328 61.9279 17.328C64.1679 17.328 65.1119 18.672 65.2879 20.048L63.8799 20.144C63.7999 19.344 63.2879 18.608 61.8959 18.608C60.6799 18.608 60.1199 19.136 60.1199 19.856C60.1199 20.688 60.5519 21.008 62.0399 21.264C64.5359 21.696 65.2559 22.384 65.2559 23.728C65.2559 25.296 63.9119 26.192 62.0399 26.192ZM71.2644 26V14.64H72.6084V18.848C73.0404 17.808 74.0004 17.328 75.1684 17.328C76.9924 17.328 78.0004 18.656 78.0004 20.544V26H76.6564V20.928C76.6564 19.296 76.0644 18.512 74.8804 18.512C73.5044 18.512 72.6084 19.376 72.6084 20.944V26H71.2644ZM82.693 26.192C80.933 26.192 79.829 25.344 79.829 23.888C79.829 22.448 80.645 21.648 82.501 21.296L85.509 20.736C85.509 19.312 84.837 18.608 83.493 18.608C82.309 18.608 81.653 19.152 81.397 20.128L79.973 20.016C80.293 18.416 81.573 17.328 83.493 17.328C85.669 17.328 86.853 18.64 86.853 20.784V24.288C86.853 24.672 86.981 24.816 87.301 24.816H87.637V26C87.541 26.016 87.333 26.032 87.125 26.032C86.101 26.032 85.637 25.632 85.525 24.688C85.109 25.568 83.941 26.192 82.693 26.192ZM82.821 25.008C84.517 25.008 85.509 23.92 85.509 22.512V21.904L82.757 22.416C81.605 22.624 81.237 23.056 81.237 23.76C81.237 24.56 81.829 25.008 82.821 25.008ZM92.2118 26.192C89.8758 26.192 88.6758 24.992 88.5478 23.328L89.9557 23.232C90.1158 24.256 90.7078 24.912 92.2118 24.912C93.3638 24.912 94.0198 24.56 94.0198 23.728C94.0198 23.056 93.6838 22.768 91.9557 22.448C89.5878 22 88.8838 21.264 88.8838 19.92C88.8838 18.416 90.0518 17.328 92.0998 17.328C94.3398 17.328 95.2838 18.672 95.4598 20.048L94.0518 20.144C93.9718 19.344 93.4598 18.608 92.0677 18.608C90.8518 18.608 90.2918 19.136 90.2918 19.856C90.2918 20.688 90.7238 21.008 92.2118 21.264C94.7078 21.696 95.4278 22.384 95.4278 23.728C95.4278 25.296 94.0838 26.192 92.2118 26.192ZM103.724 26.192C101.964 26.192 100.86 25.344 100.86 23.888C100.86 22.448 101.676 21.648 103.532 21.296L106.54 20.736C106.54 19.312 105.868 18.608 104.524 18.608C103.34 18.608 102.684 19.152 102.428 20.128L101.004 20.016C101.324 18.416 102.604 17.328 104.524 17.328C106.7 17.328 107.884 18.64 107.884 20.784V24.288C107.884 24.672 108.012 24.816 108.332 24.816H108.668V26C108.572 26.016 108.364 26.032 108.156 26.032C107.132 26.032 106.668 25.632 106.556 24.688C106.14 25.568 104.972 26.192 103.724 26.192ZM103.852 25.008C105.548 25.008 106.54 23.92 106.54 22.512V21.904L103.788 22.416C102.636 22.624 102.268 23.056 102.268 23.76C102.268 24.56 102.86 25.008 103.852 25.008ZM113.467 26.192C111.099 26.192 109.579 24.448 109.579 21.76C109.579 19.072 111.099 17.328 113.467 17.328C115.419 17.328 116.779 18.384 117.067 20.272L115.659 20.368C115.467 19.248 114.619 18.608 113.467 18.608C111.899 18.608 110.987 19.792 110.987 21.76C110.987 23.728 111.899 24.912 113.467 24.912C114.619 24.912 115.467 24.272 115.659 22.992L117.067 23.088C116.779 24.976 115.419 26.192 113.467 26.192ZM122.045 26.192C119.677 26.192 118.157 24.448 118.157 21.76C118.157 19.072 119.677 17.328 122.045 17.328C123.997 17.328 125.357 18.384 125.645 20.272L124.237 20.368C124.045 19.248 123.197 18.608 122.045 18.608C120.477 18.608 119.565 19.792 119.565 21.76C119.565 23.728 120.477 24.912 122.045 24.912C123.197 24.912 124.045 24.272 124.237 22.992L125.645 23.088C125.357 24.976 123.997 26.192 122.045 26.192ZM130.623 26.192C128.223 26.192 126.735 24.448 126.735 21.76C126.735 19.072 128.223 17.328 130.559 17.328C132.767 17.328 134.303 18.928 134.303 21.776V22.176H128.143C128.239 24 129.151 24.912 130.623 24.912C131.727 24.912 132.447 24.352 132.735 23.488L134.175 23.6C133.727 25.12 132.415 26.192 130.623 26.192ZM128.143 20.992H132.831C132.703 19.36 131.807 18.608 130.559 18.608C129.247 18.608 128.367 19.424 128.143 20.992ZM136.124 28.4V17.52H137.372L137.388 18.816C137.9 17.84 138.844 17.328 139.996 17.328C142.524 17.328 143.66 19.424 143.66 21.76C143.66 24.096 142.524 26.192 139.996 26.192C138.892 26.192 137.916 25.696 137.468 24.88V28.4H136.124ZM139.868 24.912C141.34 24.912 142.252 23.744 142.252 21.76C142.252 19.776 141.34 18.608 139.868 18.608C138.396 18.608 137.468 19.68 137.468 21.76C137.468 23.84 138.38 24.912 139.868 24.912ZM148.259 26C146.723 26 146.003 25.328 146.003 23.824V18.704H144.755V17.52H146.003V15.536H147.347V17.52H149.603V18.704H147.347V23.792C147.347 24.56 147.683 24.816 148.387 24.816H149.603V26H148.259ZM154.483 26.192C152.083 26.192 150.595 24.448 150.595 21.76C150.595 19.072 152.083 17.328 154.419 17.328C156.627 17.328 158.163 18.928 158.163 21.776V22.176H152.003C152.099 24 153.011 24.912 154.483 24.912C155.587 24.912 156.307 24.352 156.595 23.488L158.035 23.6C157.587 25.12 156.275 26.192 154.483 26.192ZM152.003 20.992H156.691C156.563 19.36 155.667 18.608 154.419 18.608C153.107 18.608 152.227 19.424 152.003 20.992ZM162.991 26.192C160.783 26.192 159.407 24.48 159.407 21.76C159.407 19.04 160.783 17.328 162.991 17.328C164.127 17.328 165.135 17.84 165.599 18.704V14.64H166.943V26H165.727L165.679 24.72C165.199 25.648 164.175 26.192 162.991 26.192ZM163.263 24.912C164.767 24.912 165.599 23.696 165.599 21.76C165.599 19.792 164.767 18.608 163.263 18.608C161.775 18.608 160.815 19.792 160.815 21.76C160.815 23.696 161.775 24.912 163.263 24.912ZM176.603 26C175.067 26 174.347 25.328 174.347 23.824V18.704H173.099V17.52H174.347V15.536H175.691V17.52H177.947V18.704H175.691V23.792C175.691 24.56 176.027 24.816 176.731 24.816H177.947V26H176.603ZM179.514 26V14.64H180.858V18.848C181.29 17.808 182.25 17.328 183.418 17.328C185.242 17.328 186.25 18.656 186.25 20.544V26H184.906V20.928C184.906 19.296 184.314 18.512 183.13 18.512C181.754 18.512 180.858 19.376 180.858 20.944V26H179.514ZM191.936 26.192C189.536 26.192 188.048 24.448 188.048 21.76C188.048 19.072 189.536 17.328 191.872 17.328C194.08 17.328 195.616 18.928 195.616 21.776V22.176H189.456C189.552 24 190.464 24.912 191.936 24.912C193.04 24.912 193.76 24.352 194.048 23.488L195.488 23.6C195.04 25.12 193.728 26.192 191.936 26.192ZM189.456 20.992H194.144C194.016 19.36 193.12 18.608 191.872 18.608C190.56 18.608 189.68 19.424 189.456 20.992ZM201.593 26V17.52H202.825L202.857 19.008C203.273 17.968 204.153 17.328 205.241 17.328C206.521 17.328 207.417 17.968 207.785 19.104C208.153 17.968 209.017 17.328 210.265 17.328C212.073 17.328 213.065 18.496 213.065 20.544V26H211.721V20.832C211.721 19.296 211.113 18.512 209.945 18.512C208.76 18.512 207.993 19.408 207.993 20.928V26H206.649V20.928C206.649 19.424 206.153 18.512 204.905 18.512C203.721 18.512 202.937 19.424 202.937 20.928V26H201.593ZM218.748 26.192C216.348 26.192 214.86 24.448 214.86 21.76C214.86 19.072 216.348 17.328 218.684 17.328C220.892 17.328 222.428 18.928 222.428 21.776V22.176L216.268 22.176C216.364 24 217.276 24.912 218.748 24.912C219.852 24.912 220.572 24.352 220.86 23.488L222.3 23.6C221.852 25.12 220.54 26.192 218.748 26.192ZM216.268 20.992H220.956C220.828 19.36 219.932 18.608 218.684 18.608C217.372 18.608 216.492 19.424 216.268 20.992ZM227.561 26.192C225.161 26.192 223.673 24.448 223.673 21.76C223.673 19.072 225.161 17.328 227.497 17.328C229.705 17.328 231.241 18.928 231.241 21.776V22.176H225.081C225.177 24 226.089 24.912 227.561 24.912C228.665 24.912 229.385 24.352 229.673 23.488L231.113 23.6C230.665 25.12 229.353 26.192 227.561 26.192ZM225.081 20.992H229.769C229.641 19.36 228.745 18.608 227.497 18.608C226.185 18.608 225.305 19.424 225.081 20.992ZM235.837 26C234.301 26 233.581 25.328 233.581 23.824V18.704H232.333V17.52H233.581V15.536H234.925V17.52H237.181V18.704H234.925V23.792C234.925 24.56 235.261 24.816 235.965 24.816H237.181V26H235.837ZM238.717 16.192V14.624H240.125V16.192H238.717ZM238.749 26V17.52H240.093V26H238.749ZM242.749 26V17.52H243.981L244.013 19.04C244.461 17.872 245.453 17.328 246.621 17.328C248.557 17.328 249.485 18.752 249.485 20.544V26H248.141V20.928C248.141 19.36 247.613 18.512 246.333 18.512C245.021 18.512 244.093 19.36 244.093 20.928V26H242.749ZM255.074 28.592C253.25 28.592 251.874 27.616 251.522 26.128L252.93 26.032C253.186 26.832 253.762 27.312 255.074 27.312C256.61 27.312 257.458 26.704 257.458 25.456V24.08C257.042 24.976 256.082 25.552 254.978 25.552C252.818 25.552 251.282 23.856 251.282 21.44C251.282 19.024 252.786 17.328 254.914 17.328C256.098 17.328 257.138 17.92 257.522 18.864V17.52H258.802V25.424C258.802 27.408 257.41 28.592 255.074 28.592ZM255.042 24.272C256.498 24.272 257.442 23.184 257.458 21.44C257.49 19.696 256.514 18.608 255.042 18.608C253.554 18.608 252.69 19.696 252.69 21.44C252.69 23.184 253.586 24.272 255.042 24.272ZM265.326 16.192V14.624H266.734V16.192H265.326ZM265.358 26V17.52H266.702V26H265.358ZM269.358 26V17.52H270.59L270.622 19.04C271.07 17.872 272.062 17.328 273.23 17.328C275.166 17.328 276.094 18.752 276.094 20.544V26H274.75V20.928C274.75 19.36 274.222 18.512 272.942 18.512C271.63 18.512 270.702 19.36 270.702 20.928V26H269.358ZM280.268 26L277.18 17.52H278.652L281.116 24.624L283.58 17.52H285.052L281.964 26H280.268ZM286.498 16.192V14.624H287.906V16.192H286.498ZM286.53 26V17.52H287.874V26H286.53ZM292.9 26C291.364 26 290.644 25.328 290.644 23.824V18.704H289.396V17.52H290.644V15.536H291.988V17.52H294.244V18.704H291.988V23.792C291.988 24.56 292.324 24.816 293.028 24.816H294.244V26H292.9ZM299.123 26.192C296.723 26.192 295.235 24.448 295.235 21.76C295.235 19.072 296.723 17.328 299.059 17.328C301.267 17.328 302.803 18.928 302.803 21.776V22.176H296.643C296.739 24 297.651 24.912 299.123 24.912C300.227 24.912 300.947 24.352 301.235 23.488L302.675 23.6C302.227 25.12 300.915 26.192 299.123 26.192ZM296.643 20.992H301.331C301.203 19.36 300.307 18.608 299.059 18.608C297.747 18.608 296.867 19.424 296.643 20.992ZM309.612 26V18.704H308.46V17.52H309.612V16.752C309.612 15.504 310.316 14.64 311.852 14.64H313.196V15.824H311.948C311.276 15.824 310.956 16.208 310.956 16.848V17.52H313.084V18.704H310.956V26H309.612ZM317.701 26.192C315.349 26.192 313.813 24.464 313.813 21.76C313.813 19.056 315.349 17.328 317.701 17.328C320.037 17.328 321.573 19.056 321.573 21.76C321.573 24.464 320.037 26.192 317.701 26.192ZM317.701 24.912C319.253 24.912 320.165 23.728 320.165 21.76C320.165 19.792 319.253 18.608 317.701 18.608C316.133 18.608 315.221 19.792 315.221 21.76C315.221 23.728 316.133 24.912 317.701 24.912ZM323.405 26V17.52H324.589L324.637 19.088C324.941 18.016 325.613 17.52 326.653 17.52H327.485V18.8H326.669C325.389 18.8 324.749 19.488 324.749 20.88V26H323.405ZM335.788 26L332.796 14.64H334.299L336.636 24.112L338.956 14.64H340.524L342.86 24.112L345.18 14.64H346.7L343.708 26H341.98L339.74 17.2L337.5 26H335.788ZM351.264 26.192C348.864 26.192 347.376 24.448 347.376 21.76C347.376 19.072 348.864 17.328 351.2 17.328C353.408 17.328 354.944 18.928 354.944 21.776V22.176H348.784C348.88 24 349.792 24.912 351.264 24.912C352.368 24.912 353.088 24.352 353.376 23.488L354.816 23.6C354.368 25.12 353.056 26.192 351.264 26.192ZM348.784 20.992H353.472C353.344 19.36 352.448 18.608 351.2 18.608C349.888 18.608 349.008 19.424 348.784 20.992ZM359.772 26.192C357.564 26.192 356.188 24.48 356.188 21.76C356.188 19.04 357.564 17.328 359.772 17.328C360.908 17.328 361.916 17.84 362.38 18.704V14.64H363.724V26H362.508L362.46 24.72C361.98 25.648 360.956 26.192 359.772 26.192ZM360.044 24.912C361.548 24.912 362.38 23.696 362.38 21.76C362.38 19.792 361.548 18.608 360.044 18.608C358.556 18.608 357.596 19.792 357.596 21.76C357.596 23.696 358.556 24.912 360.044 24.912ZM366.374 26V17.52H367.606L367.638 19.04C368.086 17.872 369.078 17.328 370.246 17.328C372.182 17.328 373.11 18.752 373.11 20.544V26H371.766V20.928C371.766 19.36 371.238 18.512 369.958 18.512C368.646 18.512 367.718 19.36 367.718 20.928V26H366.374ZM378.795 26.192C376.395 26.192 374.907 24.448 374.907 21.76C374.907 19.072 376.395 17.328 378.731 17.328C380.939 17.328 382.475 18.928 382.475 21.776V22.176H376.315C376.411 24 377.323 24.912 378.795 24.912C379.899 24.912 380.619 24.352 380.907 23.488L382.347 23.6C381.899 25.12 380.587 26.192 378.795 26.192ZM376.315 20.992H381.003C380.875 19.36 379.979 18.608 378.731 18.608C377.419 18.608 376.539 19.424 376.315 20.992ZM387.384 26.192C385.048 26.192 383.848 24.992 383.72 23.328L385.128 23.232C385.288 24.256 385.88 24.912 387.384 24.912C388.536 24.912 389.192 24.56 389.192 23.728C389.192 23.056 388.856 22.768 387.128 22.448C384.76 22 384.056 21.264 384.056 19.92C384.056 18.416 385.224 17.328 387.272 17.328C389.512 17.328 390.456 18.672 390.632 20.048L389.224 20.144C389.144 19.344 388.632 18.608 387.24 18.608C386.024 18.608 385.464 19.136 385.464 19.856C385.464 20.688 385.896 21.008 387.384 21.264C389.88 21.696 390.6 22.384 390.6 23.728C390.6 25.296 389.256 26.192 387.384 26.192ZM395.46 26.192C393.252 26.192 391.876 24.48 391.876 21.76C391.876 19.04 393.252 17.328 395.46 17.328C396.596 17.328 397.604 17.84 398.068 18.704V14.64H399.412V26H398.196L398.148 24.72C397.668 25.648 396.644 26.192 395.46 26.192ZM395.732 24.912C397.236 24.912 398.068 23.696 398.068 21.76C398.068 19.792 397.236 18.608 395.732 18.608C394.244 18.608 393.284 19.792 393.284 21.76C393.284 23.696 394.244 24.912 395.732 24.912ZM404.099 26.192C402.339 26.192 401.235 25.344 401.235 23.888C401.235 22.448 402.051 21.648 403.907 21.296L406.915 20.736C406.915 19.312 406.243 18.608 404.899 18.608C403.715 18.608 403.059 19.152 402.803 20.128L401.379 20.016C401.699 18.416 402.979 17.328 404.899 17.328C407.075 17.328 408.259 18.64 408.259 20.784V24.288C408.259 24.672 408.387 24.816 408.707 24.816H409.043V26C408.947 26.016 408.739 26.032 408.531 26.032C407.507 26.032 407.043 25.632 406.931 24.688C406.515 25.568 405.347 26.192 404.099 26.192ZM404.227 25.008C405.923 25.008 406.915 23.92 406.915 22.512V21.904L404.163 22.416C403.011 22.624 402.643 23.056 402.643 23.76C402.643 24.56 403.235 25.008 404.227 25.008ZM410.601 28.4V27.216H411.577C412.169 27.216 412.409 27.04 412.569 26.64L412.873 25.84H412.409L409.305 17.52H410.777L413.305 24.592L415.721 17.52H417.193L413.753 27.072C413.433 27.984 412.841 28.4 411.705 28.4H410.601ZM417.346 28.496L418.114 26H417.298V24.192H419.106V25.776L418.146 28.496H417.346ZM16.688 50.256C14.576 50.256 13.088 48.624 13.072 46.288L14.48 46.192C14.496 47.936 15.296 48.912 16.688 48.912C18.128 48.912 18.944 47.872 18.944 46.032V38.64H20.32V46.032C20.32 48.624 18.912 50.256 16.688 50.256ZM25.1149 50.192C23.3549 50.192 22.2509 49.344 22.2509 47.888C22.2509 46.448 23.0669 45.648 24.9229 45.296L27.9309 44.736C27.9309 43.312 27.2589 42.608 25.9149 42.608C24.7309 42.608 24.0749 43.152 23.8189 44.128L22.3949 44.016C22.7149 42.416 23.9949 41.328 25.9149 41.328C28.0909 41.328 29.2749 42.64 29.2749 44.784V48.288C29.2749 48.672 29.4029 48.816 29.7229 48.816H30.0589V50C29.9629 50.016 29.7549 50.032 29.5469 50.032C28.5229 50.032 28.0589 49.632 27.9469 48.688C27.5309 49.568 26.3629 50.192 25.1149 50.192ZM25.2429 49.008C26.9389 49.008 27.9309 47.92 27.9309 46.512V45.904L25.1789 46.416C24.0269 46.624 23.6589 47.056 23.6589 47.76C23.6589 48.56 24.2509 49.008 25.2429 49.008ZM31.5769 50V41.52H32.8089L32.8409 43.04C33.2889 41.872 34.2809 41.328 35.4489 41.328C37.3849 41.328 38.3129 42.752 38.3129 44.544V50H36.9689V44.928C36.9689 43.36 36.4409 42.512 35.1609 42.512C33.8489 42.512 32.9209 43.36 32.9209 44.928V50H31.5769ZM43.4234 50.192C41.7274 50.192 40.6394 48.992 40.6394 46.976V41.52H41.9834V46.608C41.9834 48.256 42.5594 49.008 43.7754 49.008C45.1194 49.008 45.9354 48.096 45.9354 46.576V41.52H47.2794V50H45.9994V48.624C45.5354 49.632 44.6394 50.192 43.4234 50.192ZM52.1305 50.192C50.3705 50.192 49.2665 49.344 49.2665 47.888C49.2665 46.448 50.0825 45.648 51.9385 45.296L54.9465 44.736C54.9465 43.312 54.2745 42.608 52.9305 42.608C51.7465 42.608 51.0905 43.152 50.8345 44.128L49.4105 44.016C49.7305 42.416 51.0105 41.328 52.9305 41.328C55.1065 41.328 56.2905 42.64 56.2905 44.784V48.288C56.2905 48.672 56.4185 48.816 56.7385 48.816H57.0745V50C56.9785 50.016 56.7705 50.032 56.5625 50.032C55.5385 50.032 55.0745 49.632 54.9625 48.688C54.5465 49.568 53.3785 50.192 52.1305 50.192ZM52.2585 49.008C53.9545 49.008 54.9465 47.92 54.9465 46.512V45.904L52.1945 46.416C51.0425 46.624 50.6745 47.056 50.6745 47.76C50.6745 48.56 51.2665 49.008 52.2585 49.008ZM58.5925 50V41.52H59.7765L59.8245 43.088C60.1285 42.016 60.8005 41.52 61.8405 41.52H62.6725V42.8H61.8565C60.5765 42.8 59.9365 43.488 59.9365 44.88V50H58.5925ZM64.6168 52.4V51.216H65.5928C66.1848 51.216 66.4248 51.04 66.5848 50.64L66.8888 49.84H66.4248L63.3208 41.52H64.7928L67.3208 48.592L69.7368 41.52H71.2088L67.7688 51.072C67.4488 51.984 66.8568 52.4 65.7208 52.4H64.6168ZM76.5225 50C76.5225 47.6 77.4665 46.016 80.8745 44.208C82.4425 43.376 83.0665 42.864 83.0665 41.712C83.0665 40.544 82.2985 39.728 80.7945 39.728C79.1945 39.728 78.2665 40.592 78.0265 42.128L76.5865 42.032C76.8425 39.808 78.3305 38.384 80.7945 38.384C83.1305 38.384 84.5065 39.728 84.5065 41.68C84.5065 43.408 83.7385 44.272 81.3865 45.52C79.3385 46.608 78.2825 47.792 78.2185 48.656H84.5065V50H76.5225ZM90.3008 50.256C87.8528 50.256 86.1088 49.088 86.1088 46.88C86.1088 45.408 86.9568 44.368 88.3008 43.888C87.2928 43.472 86.6528 42.72 86.6528 41.504C86.6528 39.712 88.0928 38.384 90.3008 38.384C92.5088 38.384 93.9488 39.712 93.9488 41.504C93.9488 42.72 93.3088 43.472 92.3008 43.888C93.6448 44.368 94.4928 45.408 94.4928 46.88C94.4928 49.088 92.7488 50.256 90.3008 50.256ZM90.3008 43.328C91.7088 43.328 92.5088 42.72 92.5088 41.504C92.5088 40.416 91.7408 39.728 90.3008 39.728C88.8608 39.728 88.0928 40.416 88.0928 41.504C88.0928 42.72 88.8928 43.328 90.3008 43.328ZM90.3008 48.912C91.9808 48.912 93.0528 48.24 93.0528 46.8C93.0528 45.472 92.1888 44.608 90.3008 44.608C88.4128 44.608 87.5488 45.472 87.5488 46.8C87.5488 48.24 88.6208 48.912 90.3008 48.912ZM99.509 50C97.973 50 97.253 49.328 97.253 47.824V42.704H96.005V41.52H97.253V39.536H98.597V41.52H100.853V42.704H98.597V47.792C98.597 48.56 98.933 48.816 99.637 48.816H100.853V50H99.509ZM102.421 50V38.64H103.765V42.848C104.197 41.808 105.157 41.328 106.325 41.328C108.149 41.328 109.157 42.656 109.157 44.544V50H107.813V44.928C107.813 43.296 107.221 42.512 106.037 42.512C104.661 42.512 103.765 43.376 103.765 44.944V50H102.421ZM118.006 50.192C116.246 50.192 115.142 49.344 115.142 47.888C115.142 46.448 115.958 45.648 117.814 45.296L120.822 44.736C120.822 43.312 120.15 42.608 118.806 42.608C117.622 42.608 116.966 43.152 116.71 44.128L115.286 44.016C115.606 42.416 116.886 41.328 118.806 41.328C120.982 41.328 122.166 42.64 122.166 44.784V48.288C122.166 48.672 122.294 48.816 122.614 48.816H122.95V50C122.854 50.016 122.646 50.032 122.438 50.032C121.414 50.032 120.95 49.632 120.838 48.688C120.422 49.568 119.254 50.192 118.006 50.192ZM118.134 49.008C119.83 49.008 120.822 47.92 120.822 46.512V45.904L118.07 46.416C116.918 46.624 116.549 47.056 116.549 47.76C116.549 48.56 117.142 49.008 118.134 49.008ZM126.837 50C125.301 50 124.581 49.328 124.581 47.824V42.704H123.333V41.52H124.581V39.536H125.925V41.52H128.181V42.704H125.925V47.792C125.925 48.56 126.261 48.816 126.965 48.816H128.181V50H126.837ZM135.727 50V41.584H133.359V40.4H134.319C135.567 40.4 136.015 39.984 136.015 38.64H137.103V50H135.727ZM144.803 50V47.536H139.027V46.288L144.707 38.64H146.179V46.192H147.587V47.536H146.179V50H144.803ZM140.691 46.192H144.803V40.752L140.691 46.192ZM149.55 43.712V41.904H151.358V43.712H149.55ZM149.55 50V48.192H151.358V50H149.55ZM158.124 50.256C155.372 50.256 153.628 47.968 153.628 44.336C153.628 40.688 155.372 38.384 158.124 38.384C160.892 38.384 162.636 40.672 162.636 44.336C162.636 47.968 160.892 50.256 158.124 50.256ZM158.124 48.912C160.092 48.912 161.196 47.264 161.196 44.336C161.196 41.392 160.092 39.728 158.124 39.728C156.172 39.728 155.068 41.392 155.068 44.336C155.068 47.264 156.172 48.912 158.124 48.912ZM168.89 50.256C166.138 50.256 164.394 47.968 164.394 44.336C164.394 40.688 166.138 38.384 168.89 38.384C171.658 38.384 173.402 40.672 173.402 44.336C173.402 47.968 171.658 50.256 168.89 50.256ZM168.89 48.912C170.858 48.912 171.962 47.264 171.962 44.336C171.962 41.392 170.858 39.728 168.89 39.728C166.938 39.728 165.834 41.392 165.834 44.336C165.834 47.264 166.938 48.912 168.89 48.912ZM183.995 50.256C180.795 50.256 178.923 47.76 178.923 44.336C178.923 40.928 180.827 38.384 184.027 38.384C186.747 38.384 188.155 40.016 188.571 42.128L187.131 42.224C186.843 40.752 185.963 39.728 184.027 39.728C181.435 39.728 180.363 41.872 180.363 44.336C180.363 46.928 181.483 48.912 184.027 48.912C186.043 48.912 187.291 47.376 187.323 45.568H184.059V44.256H188.603V50H187.579L187.515 48.096C186.955 49.376 185.547 50.256 183.995 50.256ZM190.878 50V38.64H192.798L196.43 48.496L200.046 38.64H201.966V50H200.59V41.2L197.342 50H195.502L192.254 41.2V50H190.878ZM206.525 50V39.984H202.989V38.64H211.437V39.984H207.901V50H206.525ZM210.735 50V48.192H212.543V50H210.735ZM220.978 50V39.984H217.442V38.64H225.89V39.984H222.354V50H220.978ZM226.874 50V38.64H228.218V42.848C228.65 41.808 229.61 41.328 230.778 41.328C232.602 41.328 233.61 42.656 233.61 44.544V50H232.266V44.928C232.266 43.296 231.674 42.512 230.49 42.512C229.114 42.512 228.218 43.376 228.218 44.944V50H226.874ZM239.295 50.192C236.895 50.192 235.407 48.448 235.407 45.76C235.407 43.072 236.895 41.328 239.231 41.328C241.439 41.328 242.975 42.928 242.975 45.776V46.176H236.815C236.911 48 237.823 48.912 239.295 48.912C240.399 48.912 241.119 48.352 241.407 47.488L242.847 47.6C242.399 49.12 241.087 50.192 239.295 50.192ZM236.815 44.992H241.503C241.375 43.36 240.479 42.608 239.231 42.608C237.919 42.608 237.039 43.424 236.815 44.992ZM252.264 50.192C249.896 50.192 248.376 48.448 248.376 45.76C248.376 43.072 249.896 41.328 252.264 41.328C254.216 41.328 255.576 42.384 255.864 44.272L254.456 44.368C254.264 43.248 253.416 42.608 252.264 42.608C250.696 42.608 249.784 43.792 249.784 45.76C249.784 47.728 250.696 48.912 252.264 48.912C253.416 48.912 254.264 48.272 254.456 46.992L255.864 47.088C255.576 48.976 254.216 50.192 252.264 50.192ZM260.037 50.192C258.277 50.192 257.173 49.344 257.173 47.888C257.173 46.448 257.989 45.648 259.845 45.296L262.853 44.736C262.853 43.312 262.181 42.608 260.837 42.608C259.653 42.608 258.997 43.152 258.741 44.128L257.317 44.016C257.637 42.416 258.917 41.328 260.837 41.328C263.013 41.328 264.197 42.64 264.197 44.784V48.288C264.197 48.672 264.325 48.816 264.645 48.816H264.981V50C264.885 50.016 264.677 50.032 264.469 50.032C263.445 50.032 262.981 49.632 262.869 48.688C262.453 49.568 261.285 50.192 260.037 50.192ZM260.165 49.008C261.861 49.008 262.853 47.92 262.853 46.512V45.904L260.101 46.416C258.949 46.624 258.581 47.056 258.581 47.76C258.581 48.56 259.173 49.008 260.165 49.008ZM268.069 50C267.077 50 266.405 49.52 266.405 48.4V38.64H267.749V48.288C267.749 48.64 267.925 48.816 268.277 48.816H269.013V50H268.069ZM273.889 50.192C271.489 50.192 270.001 48.448 270.001 45.76C270.001 43.072 271.489 41.328 273.825 41.328C276.033 41.328 277.569 42.928 277.569 45.776V46.176H271.409C271.505 48 272.417 48.912 273.889 48.912C274.993 48.912 275.713 48.352 276.001 47.488L277.441 47.6C276.993 49.12 275.681 50.192 273.889 50.192ZM271.409 44.992H276.097C275.969 43.36 275.073 42.608 273.825 42.608C272.513 42.608 271.633 43.424 271.409 44.992ZM279.389 50V41.52H280.621L280.653 43.04C281.101 41.872 282.093 41.328 283.261 41.328C285.197 41.328 286.125 42.752 286.125 44.544V50H284.781V44.928C284.781 43.36 284.253 42.512 282.973 42.512C281.661 42.512 280.733 43.36 280.733 44.928V50H279.389ZM291.507 50.192C289.299 50.192 287.923 48.48 287.923 45.76C287.923 43.04 289.299 41.328 291.507 41.328C292.643 41.328 293.651 41.84 294.115 42.704V38.64H295.459V50H294.243L294.195 48.72C293.715 49.648 292.691 50.192 291.507 50.192ZM291.779 48.912C293.283 48.912 294.115 47.696 294.115 45.76C294.115 43.792 293.283 42.608 291.779 42.608C290.291 42.608 289.331 43.792 289.331 45.76C289.331 47.696 290.291 48.912 291.779 48.912ZM300.146 50.192C298.386 50.192 297.282 49.344 297.282 47.888C297.282 46.448 298.098 45.648 299.954 45.296L302.962 44.736C302.962 43.312 302.29 42.608 300.946 42.608C299.762 42.608 299.106 43.152 298.85 44.128L297.426 44.016C297.746 42.416 299.026 41.328 300.946 41.328C303.122 41.328 304.306 42.64 304.306 44.784V48.288C304.306 48.672 304.434 48.816 304.754 48.816H305.09V50C304.994 50.016 304.786 50.032 304.578 50.032C303.554 50.032 303.09 49.632 302.978 48.688C302.562 49.568 301.394 50.192 300.146 50.192ZM300.274 49.008C301.97 49.008 302.962 47.92 302.962 46.512V45.904L300.21 46.416C299.058 46.624 298.69 47.056 298.69 47.76C298.69 48.56 299.282 49.008 300.274 49.008ZM306.608 50V41.52H307.792L307.84 43.088C308.144 42.016 308.816 41.52 309.856 41.52H310.688V42.8H309.872C308.592 42.8 307.952 43.488 307.952 44.88V50H306.608ZM316.639 40.192V38.624H318.047V40.192H316.639ZM316.671 50V41.52H318.015V50H316.671ZM320.671 50V41.52H321.903L321.935 43.04C322.383 41.872 323.375 41.328 324.543 41.328C326.479 41.328 327.407 42.752 327.407 44.544V50H326.063V44.928C326.063 43.36 325.535 42.512 324.255 42.512C322.943 42.512 322.015 43.36 322.015 44.928V50H320.671ZM331.581 50L328.493 41.52H329.965L332.429 48.624L334.893 41.52H336.365L333.277 50H331.581ZM337.811 40.192V38.624H339.219V40.192H337.811ZM337.843 50V41.52H339.187V50H337.843ZM344.212 50C342.676 50 341.956 49.328 341.956 47.824V42.704H340.708V41.52H341.956V39.536H343.3V41.52H345.556V42.704H343.3V47.792C343.3 48.56 343.636 48.816 344.34 48.816H345.556V50H344.212ZM350.436 50.192C348.036 50.192 346.548 48.448 346.548 45.76C346.548 43.072 348.036 41.328 350.372 41.328C352.58 41.328 354.116 42.928 354.116 45.776V46.176H347.956C348.052 48 348.964 48.912 350.436 48.912C351.54 48.912 352.26 48.352 352.548 47.488L353.988 47.6C353.54 49.12 352.228 50.192 350.436 50.192ZM347.956 44.992H352.644C352.516 43.36 351.62 42.608 350.372 42.608C349.06 42.608 348.18 43.424 347.956 44.992ZM360.093 50V38.64H361.437V42.848C361.869 41.808 362.829 41.328 363.997 41.328C365.821 41.328 366.829 42.656 366.829 44.544V50H365.485V44.928C365.485 43.296 364.893 42.512 363.709 42.512C362.333 42.512 361.437 43.376 361.437 44.944V50H360.093ZM371.521 50.192C369.761 50.192 368.657 49.344 368.657 47.888C368.657 46.448 369.473 45.648 371.329 45.296L374.337 44.736C374.337 43.312 373.665 42.608 372.321 42.608C371.137 42.608 370.481 43.152 370.225 44.128L368.801 44.016C369.121 42.416 370.401 41.328 372.321 41.328C374.497 41.328 375.681 42.64 375.681 44.784V48.288C375.681 48.672 375.809 48.816 376.129 48.816H376.465V50C376.369 50.016 376.161 50.032 375.953 50.032C374.929 50.032 374.465 49.632 374.353 48.688C373.937 49.568 372.769 50.192 371.521 50.192ZM371.649 49.008C373.345 49.008 374.337 47.92 374.337 46.512V45.904L371.585 46.416C370.433 46.624 370.065 47.056 370.065 47.76C370.065 48.56 370.657 49.008 371.649 49.008ZM381.04 50.192C378.704 50.192 377.504 48.992 377.376 47.328L378.784 47.232C378.944 48.256 379.536 48.912 381.04 48.912C382.192 48.912 382.848 48.56 382.848 47.728C382.848 47.056 382.512 46.768 380.784 46.448C378.416 46 377.712 45.264 377.712 43.92C377.712 42.416 378.88 41.328 380.928 41.328C383.168 41.328 384.112 42.672 384.288 44.048L382.88 44.144C382.8 43.344 382.288 42.608 380.896 42.608C379.68 42.608 379.12 43.136 379.12 43.856C379.12 44.688 379.552 45.008 381.04 45.264C383.536 45.696 384.256 46.384 384.256 47.728C384.256 49.296 382.912 50.192 381.04 50.192ZM394.152 50.192C392.968 50.192 392.008 49.648 391.528 48.72L391.48 50H390.264V38.64H391.608V42.704C392.024 42 392.968 41.328 394.152 41.328C396.392 41.328 397.8 43.04 397.8 45.76C397.8 48.48 396.392 50.192 394.152 50.192ZM394.072 48.912C395.496 48.912 396.392 47.696 396.392 45.76C396.392 43.792 395.496 42.608 394.104 42.608C392.536 42.608 391.608 43.792 391.608 45.76C391.608 47.696 392.536 48.912 394.072 48.912ZM402.936 50.192C400.536 50.192 399.048 48.448 399.048 45.76C399.048 43.072 400.536 41.328 402.872 41.328C405.08 41.328 406.616 42.928 406.616 45.776V46.176H400.456C400.552 48 401.464 48.912 402.936 48.912C404.04 48.912 404.76 48.352 405.048 47.488L406.488 47.6C406.04 49.12 404.728 50.192 402.936 50.192ZM400.456 44.992H405.144C405.016 43.36 404.12 42.608 402.872 42.608C401.56 42.608 400.68 43.424 400.456 44.992ZM411.748 50.192C409.348 50.192 407.86 48.448 407.86 45.76C407.86 43.072 409.348 41.328 411.684 41.328C413.892 41.328 415.428 42.928 415.428 45.776V46.176H409.268C409.364 48 410.276 48.912 411.748 48.912C412.852 48.912 413.572 48.352 413.86 47.488L415.3 47.6C414.852 49.12 413.54 50.192 411.748 50.192ZM409.268 44.992H413.956C413.828 43.36 412.932 42.608 411.684 42.608C410.372 42.608 409.492 43.424 409.268 44.992ZM417.249 50V41.52H418.481L418.513 43.04C418.961 41.872 419.953 41.328 421.121 41.328C423.057 41.328 423.985 42.752 423.985 44.544V50H422.641V44.928C422.641 43.36 422.113 42.512 420.833 42.512C419.521 42.512 418.593 43.36 418.593 44.928V50H417.249ZM433.634 50.192C431.298 50.192 430.098 48.992 429.97 47.328L431.378 47.232C431.538 48.256 432.13 48.912 433.634 48.912C434.786 48.912 435.442 48.56 435.442 47.728C435.442 47.056 435.106 46.768 433.378 46.448C431.01 46 430.306 45.264 430.306 43.92C430.306 42.416 431.474 41.328 433.522 41.328C435.762 41.328 436.706 42.672 436.882 44.048L435.474 44.144C435.394 43.344 434.882 42.608 433.49 42.608C432.274 42.608 431.714 43.136 431.714 43.856C431.714 44.688 432.146 45.008 433.634 45.264C436.13 45.696 436.85 46.384 436.85 47.728C436.85 49.296 435.506 50.192 433.634 50.192ZM442.014 50.192C439.614 50.192 438.126 48.448 438.126 45.76C438.126 43.072 439.614 41.328 441.95 41.328C444.158 41.328 445.694 42.928 445.694 45.776V46.176H439.534C439.63 48 440.542 48.912 442.014 48.912C443.118 48.912 443.838 48.352 444.126 47.488L445.566 47.6C445.118 49.12 443.806 50.192 442.014 50.192ZM439.534 44.992H444.222C444.094 43.36 443.198 42.608 441.95 42.608C440.638 42.608 439.758 43.424 439.534 44.992ZM447.514 50V41.52H448.746L448.778 43.04C449.226 41.872 450.218 41.328 451.386 41.328C453.322 41.328 454.25 42.752 454.25 44.544V50H452.906V44.928C452.906 43.36 452.378 42.512 451.098 42.512C449.786 42.512 448.858 43.36 448.858 44.928V50H447.514ZM459.275 50C457.739 50 457.019 49.328 457.019 47.824V42.704H455.771V41.52H457.019V39.536H458.363V41.52H460.619V42.704H458.363V47.792C458.363 48.56 458.699 48.816 459.403 48.816H460.619V50H459.275ZM14.976 74L12.352 65.52H13.824L15.808 72.592L17.824 65.52H19.264L21.28 72.592L23.28 65.52H24.752L22.128 74H20.432L18.544 67.552L16.656 74H14.976ZM26.2011 64.192V62.624H27.6091V64.192H26.2011ZM26.2331 74V65.52H27.5771V74H26.2331ZM32.6028 74C31.0668 74 30.3468 73.328 30.3468 71.824V66.704H29.0988V65.52H30.3468V63.536H31.6908V65.52H33.9468V66.704H31.6908V71.792C31.6908 72.56 32.0268 72.816 32.7308 72.816H33.9468V74H32.6028ZM35.5144 74V62.64H36.8584V66.848C37.2904 65.808 38.2504 65.328 39.4184 65.328C41.2424 65.328 42.2504 66.656 42.2504 68.544V74H40.9064V68.928C40.9064 67.296 40.3144 66.512 39.1304 66.512C37.7544 66.512 36.8584 67.376 36.8584 68.944V74H35.5144ZM49.1793 76.4V75.216H50.1553C50.7473 75.216 50.9873 75.04 51.1473 74.64L51.4513 73.84H50.9873L47.8833 65.52H49.3553L51.8833 72.592L54.2993 65.52H55.7713L52.3313 75.072C52.0113 75.984 51.4193 76.4 50.2833 76.4H49.1793ZM60.2951 74.192C57.9431 74.192 56.4071 72.464 56.4071 69.76C56.4071 67.056 57.9431 65.328 60.2951 65.328C62.6311 65.328 64.1671 67.056 64.1671 69.76C64.1671 72.464 62.6311 74.192 60.2951 74.192ZM60.2951 72.912C61.8471 72.912 62.7591 71.728 62.7591 69.76C62.7591 67.792 61.8471 66.608 60.2951 66.608C58.7271 66.608 57.8151 67.792 57.8151 69.76C57.8151 71.728 58.7271 72.912 60.2951 72.912ZM68.7828 74.192C67.0868 74.192 65.9988 72.992 65.9988 70.976V65.52H67.3428V70.608C67.3428 72.256 67.9188 73.008 69.1348 73.008C70.4788 73.008 71.2948 72.096 71.2948 70.576V65.52H72.6388V74H71.3588V72.624C70.8948 73.632 69.9988 74.192 68.7828 74.192ZM75.2019 74V65.52H76.3859L76.4339 67.088C76.7379 66.016 77.4099 65.52 78.4499 65.52H79.2819V66.8H78.4659C77.1859 66.8 76.5459 67.488 76.5459 68.88V74H75.2019ZM84.4324 74V72.592L90.5124 63.984H84.6404V62.64H92.0804V64.048L86.0004 72.656H92.2404V74H84.4324ZM96.7639 74.192C94.4119 74.192 92.8759 72.464 92.8759 69.76C92.8759 67.056 94.4119 65.328 96.7639 65.328C99.0999 65.328 100.636 67.056 100.636 69.76C100.636 72.464 99.0999 74.192 96.7639 74.192ZM96.7639 72.912C98.3159 72.912 99.2279 71.728 99.2279 69.76C99.2279 67.792 98.3159 66.608 96.7639 66.608C95.1959 66.608 94.2839 67.792 94.2839 69.76C94.2839 71.728 95.1959 72.912 96.7639 72.912ZM105.78 74.192C103.428 74.192 101.892 72.464 101.892 69.76C101.892 67.056 103.428 65.328 105.78 65.328C108.116 65.328 109.652 67.056 109.652 69.76C109.652 72.464 108.116 74.192 105.78 74.192ZM105.78 72.912C107.332 72.912 108.244 71.728 108.244 69.76C108.244 67.792 107.332 66.608 105.78 66.608C104.212 66.608 103.299 67.792 103.299 69.76C103.299 71.728 104.212 72.912 105.78 72.912ZM111.483 74V65.52H112.715L112.747 67.008C113.163 65.968 114.043 65.328 115.131 65.328C116.411 65.328 117.307 65.968 117.675 67.104C118.043 65.968 118.907 65.328 120.155 65.328C121.963 65.328 122.955 66.496 122.955 68.544V74H121.611V68.832C121.611 67.296 121.003 66.512 119.835 66.512C118.651 66.512 117.883 67.408 117.883 68.928V74H116.539V68.928C116.539 67.424 116.043 66.512 114.795 66.512C113.611 66.512 112.827 67.424 112.827 68.928V74H111.483ZM131.178 74C130.186 74 129.514 73.52 129.514 72.4V62.64H130.858V72.288C130.858 72.64 131.034 72.816 131.386 72.816H132.122V74H131.178ZM133.623 64.192V62.624H135.031V64.192H133.623ZM133.655 74V65.52H134.999V74H133.655ZM137.655 74V65.52H138.887L138.919 67.04C139.367 65.872 140.359 65.328 141.527 65.328C143.463 65.328 144.391 66.752 144.391 68.544V74H143.047V68.928C143.047 67.36 142.519 66.512 141.239 66.512C139.927 66.512 138.999 67.36 138.999 68.928V74H137.655ZM146.858 74V62.64H148.202V70.08L152.33 65.52H154.122L150.778 69.12L154.266 74H152.634L149.866 70.032L148.202 71.792V74H146.858ZM155.407 74V72.192H157.215V74H155.407ZM15.728 98V87.984H12.192V86.64H20.64V87.984H17.104V98H15.728ZM21.6238 98V86.64H22.9678V90.848C23.3998 89.808 24.3598 89.328 25.5278 89.328C27.3518 89.328 28.3598 90.656 28.3598 92.544L28.3598 98H27.0158V92.928C27.0158 91.296 26.4238 90.512 25.2398 90.512C23.8638 90.512 22.9678 91.376 22.9678 92.944V98H21.6238ZM34.0451 98.192C31.6451 98.192 30.1571 96.448 30.1571 93.76C30.1571 91.072 31.6451 89.328 33.9811 89.328C36.1891 89.328 37.7251 90.928 37.7251 93.776V94.176H31.5651C31.6611 96 32.5731 96.912 34.0451 96.912C35.1491 96.912 35.8691 96.352 36.1571 95.488L37.5971 95.6C37.1491 97.12 35.8371 98.192 34.0451 98.192ZM31.5651 92.992H36.2531C36.1251 91.36 35.2291 90.608 33.9811 90.608C32.6691 90.608 31.7891 91.424 31.5651 92.992ZM43.7019 98V89.52H44.9339L44.9659 91.008C45.3819 89.968 46.2619 89.328 47.3499 89.328C48.6299 89.328 49.5259 89.968 49.8939 91.104C50.2619 89.968 51.1259 89.328 52.3739 89.328C54.1819 89.328 55.1739 90.496 55.1739 92.544V98H53.8299V92.832C53.8299 91.296 53.2219 90.512 52.0539 90.512C50.8699 90.512 50.1019 91.408 50.1019 92.928V98H48.7579V92.928C48.7579 91.424 48.2619 90.512 47.0139 90.512C45.8299 90.512 45.0459 91.424 45.0459 92.928V98H43.7019ZM60.8576 98.192C58.4576 98.192 56.9696 96.448 56.9696 93.76C56.9696 91.072 58.4576 89.328 60.7936 89.328C63.0016 89.328 64.5376 90.928 64.5376 93.776V94.176H58.3776C58.4736 96 59.3856 96.912 60.8576 96.912C61.9616 96.912 62.6816 96.352 62.9696 95.488L64.4096 95.6C63.9616 97.12 62.6496 98.192 60.8576 98.192ZM58.3776 92.992H63.0656C62.9376 91.36 62.0416 90.608 60.7936 90.608C59.4816 90.608 58.6016 91.424 58.3776 92.992ZM69.6701 98.192C67.2701 98.192 65.7821 96.448 65.7821 93.76C65.7821 91.072 67.2701 89.328 69.6061 89.328C71.8141 89.328 73.3501 90.928 73.3501 93.776V94.176H67.1901C67.2861 96 68.1981 96.912 69.6701 96.912C70.7741 96.912 71.4941 96.352 71.7821 95.488L73.2221 95.6C72.7741 97.12 71.4621 98.192 69.6701 98.192ZM67.1901 92.992H71.8781C71.7501 91.36 70.8541 90.608 69.6061 90.608C68.2941 90.608 67.4141 91.424 67.1901 92.992ZM77.9465 98C76.4105 98 75.6905 97.328 75.6905 95.824V90.704H74.4425V89.52H75.6905V87.536H77.0345V89.52H79.2905V90.704H77.0345V95.792C77.0345 96.56 77.3705 96.816 78.0745 96.816H79.2905V98H77.9465ZM80.8261 88.192V86.624H82.2341V88.192H80.8261ZM80.8581 98V89.52H82.2021V98H80.8581ZM84.8581 98V89.52H86.0901L86.1221 91.04C86.5701 89.872 87.5621 89.328 88.7301 89.328C90.6661 89.328 91.5941 90.752 91.5941 92.544V98H90.2501V92.928C90.2501 91.36 89.7221 90.512 88.4421 90.512C87.1301 90.512 86.2021 91.36 86.2021 92.928V98H84.8581ZM97.1835 100.592C95.3595 100.592 93.9835 99.616 93.6315 98.128L95.0395 98.032C95.2955 98.832 95.8715 99.312 97.1835 99.312C98.7195 99.312 99.5675 98.704 99.5675 97.456V96.08C99.1515 96.976 98.1915 97.552 97.0875 97.552C94.9275 97.552 93.3915 95.856 93.3915 93.44C93.3915 91.024 94.8955 89.328 97.0235 89.328C98.2075 89.328 99.2475 89.92 99.6315 90.864V89.52H100.911V97.424C100.911 99.408 99.5195 100.592 97.1835 100.592ZM97.1515 96.272C98.6075 96.272 99.5515 95.184 99.5675 93.44C99.5995 91.696 98.6235 90.608 97.1515 90.608C95.6635 90.608 94.7995 91.696 94.7995 93.44C94.7995 95.184 95.6955 96.272 97.1515 96.272ZM107.436 88.192V86.624H108.844V88.192H107.436ZM107.468 98V89.52H108.812V98H107.468ZM114.306 98.192C111.97 98.192 110.77 96.992 110.642 95.328L112.049 95.232C112.21 96.256 112.802 96.912 114.306 96.912C115.458 96.912 116.114 96.56 116.114 95.728C116.114 95.056 115.778 94.768 114.049 94.448C111.682 94 110.978 93.264 110.978 91.92C110.978 90.416 112.146 89.328 114.194 89.328C116.434 89.328 117.378 90.672 117.554 92.048L116.146 92.144C116.066 91.344 115.554 90.608 114.161 90.608C112.946 90.608 112.386 91.136 112.386 91.856C112.386 92.688 112.818 93.008 114.306 93.264C116.802 93.696 117.522 94.384 117.522 95.728C117.522 97.296 116.178 98.192 114.306 98.192ZM126.842 98.192C124.474 98.192 122.954 96.448 122.954 93.76C122.954 91.072 124.474 89.328 126.842 89.328C128.794 89.328 130.154 90.384 130.442 92.272L129.034 92.368C128.842 91.248 127.994 90.608 126.842 90.608C125.274 90.608 124.362 91.792 124.362 93.76C124.362 95.728 125.274 96.912 126.842 96.912C127.994 96.912 128.842 96.272 129.034 94.992L130.442 95.088C130.154 96.976 128.794 98.192 126.842 98.192ZM135.42 98.192C133.068 98.192 131.532 96.464 131.532 93.76C131.532 91.056 133.068 89.328 135.42 89.328C137.756 89.328 139.292 91.056 139.292 93.76C139.292 96.464 137.756 98.192 135.42 98.192ZM135.42 96.912C136.972 96.912 137.884 95.728 137.884 93.76C137.884 91.792 136.972 90.608 135.42 90.608C133.852 90.608 132.94 91.792 132.94 93.76C132.94 95.728 133.852 96.912 135.42 96.912ZM141.124 98V89.52H142.356L142.388 91.04C142.836 89.872 143.828 89.328 144.996 89.328C146.932 89.328 147.86 90.752 147.86 92.544V98H146.516V92.928C146.516 91.36 145.988 90.512 144.708 90.512C143.396 90.512 142.468 91.36 142.468 92.928V98H141.124ZM155.522 88.192V86.624H156.93V88.192H155.522ZM150.706 98V90.704H149.554V89.52H150.706V88.752C150.706 87.504 151.41 86.64 152.946 86.64H154.29V87.824H153.042C152.37 87.824 152.05 88.208 152.05 88.848V89.52H154.178V90.704H152.05V98H150.706ZM155.554 98V89.52H156.898V98H155.554ZM159.546 98V89.52H160.73L160.778 91.088C161.082 90.016 161.754 89.52 162.794 89.52H163.626V90.8H162.81C161.53 90.8 160.89 91.488 160.89 92.88V98H159.546ZM164.968 98V89.52H166.2L166.232 91.008C166.648 89.968 167.528 89.328 168.616 89.328C169.896 89.328 170.792 89.968 171.16 91.104C171.528 89.968 172.392 89.328 173.64 89.328C175.448 89.328 176.44 90.496 176.44 92.544V98H175.096V92.832C175.096 91.296 174.488 90.512 173.32 90.512C172.135 90.512 171.368 91.408 171.368 92.928V98H170.024V92.928C170.024 91.424 169.528 90.512 168.28 90.512C167.096 90.512 166.312 91.424 166.312 92.928V98H164.968ZM182.123 98.192C179.723 98.192 178.235 96.448 178.235 93.76C178.235 91.072 179.723 89.328 182.059 89.328C184.267 89.328 185.803 90.928 185.803 93.776V94.176H179.643C179.739 96 180.651 96.912 182.123 96.912C183.227 96.912 183.947 96.352 184.235 95.488L185.675 95.6C185.227 97.12 183.915 98.192 182.123 98.192ZM179.643 92.992H184.331C184.203 91.36 183.307 90.608 182.059 90.608C180.747 90.608 179.867 91.424 179.643 92.992ZM190.632 98.192C188.424 98.192 187.048 96.48 187.048 93.76C187.048 91.04 188.424 89.328 190.632 89.328C191.768 89.328 192.776 89.84 193.24 90.704V86.64H194.584V98H193.368L193.32 96.72C192.84 97.648 191.816 98.192 190.632 98.192ZM190.904 96.912C192.408 96.912 193.24 95.696 193.24 93.76C193.24 91.792 192.408 90.608 190.904 90.608C189.416 90.608 188.456 91.792 188.456 93.76C188.456 95.696 189.416 96.912 190.904 96.912ZM201.971 98V90.704H200.819V89.52H201.971V88.752C201.971 87.504 202.675 86.64 204.211 86.64H205.555V87.824H204.307C203.635 87.824 203.315 88.208 203.315 88.848V89.52H205.443V90.704H203.315V98H201.971ZM210.061 98.192C207.709 98.192 206.173 96.464 206.173 93.76C206.173 91.056 207.709 89.328 210.061 89.328C212.397 89.328 213.933 91.056 213.933 93.76C213.933 96.464 212.397 98.192 210.061 98.192ZM210.061 96.912C211.613 96.912 212.525 95.728 212.525 93.76C212.525 91.792 211.613 90.608 210.061 90.608C208.493 90.608 207.581 91.792 207.581 93.76C207.581 95.728 208.493 96.912 210.061 96.912ZM215.764 98V89.52H216.948L216.996 91.088C217.3 90.016 217.972 89.52 219.012 89.52H219.844V90.8H219.028C217.748 90.8 217.108 91.488 217.108 92.88V98H215.764ZM229.363 98.256C226.835 98.256 225.443 96.944 225.347 95.072L226.771 94.976C226.899 96.368 227.939 96.912 229.363 96.912C230.835 96.912 232.115 96.368 232.115 94.832C232.115 93.328 231.011 92.64 229.379 92.64H228.483V91.296H229.379C230.723 91.296 231.715 90.816 231.715 89.52C231.715 88.352 230.947 87.728 229.443 87.728C227.939 87.728 227.219 88.336 227.075 89.344L225.635 89.248C225.843 87.552 227.171 86.384 229.443 86.384C231.747 86.384 233.155 87.568 233.155 89.456C233.155 90.672 232.483 91.488 231.187 91.888C232.659 92.288 233.555 93.376 233.555 94.832C233.555 97.008 231.827 98.256 229.363 98.256ZM239.655 98.256C236.903 98.256 235.159 95.968 235.159 92.336C235.159 88.688 236.903 86.384 239.655 86.384C242.423 86.384 244.167 88.672 244.167 92.336C244.167 95.968 242.423 98.256 239.655 98.256ZM239.655 96.912C241.623 96.912 242.727 95.264 242.727 92.336C242.727 89.392 241.623 87.728 239.655 87.728C237.703 87.728 236.599 89.392 236.599 92.336C236.599 95.264 237.703 96.912 239.655 96.912ZM250.249 98V89.52H251.481L251.513 91.008C251.929 89.968 252.809 89.328 253.897 89.328C255.177 89.328 256.073 89.968 256.441 91.104C256.809 89.968 257.673 89.328 258.921 89.328C260.729 89.328 261.721 90.496 261.721 92.544V98H260.377V92.832C260.377 91.296 259.769 90.512 258.601 90.512C257.417 90.512 256.649 91.408 256.649 92.928V98H255.305V92.928C255.305 91.424 254.809 90.512 253.561 90.512C252.377 90.512 251.593 91.424 251.593 92.928V98H250.249ZM264.154 88.192V86.624H265.562V88.192H264.154ZM264.186 98V89.52H265.53V98H264.186ZM268.186 98V89.52H269.418L269.45 91.04C269.898 89.872 270.89 89.328 272.058 89.328C273.994 89.328 274.922 90.752 274.922 92.544V98H273.578V92.928C273.578 91.36 273.05 90.512 271.77 90.512C270.458 90.512 269.53 91.36 269.53 92.928V98H268.186ZM280.033 98.192C278.337 98.192 277.249 96.992 277.249 94.976V89.52H278.593V94.608C278.593 96.256 279.169 97.008 280.385 97.008C281.729 97.008 282.545 96.096 282.545 94.576V89.52H283.889V98H282.609V96.624C282.145 97.632 281.249 98.192 280.033 98.192ZM289.103 98C287.567 98 286.847 97.328 286.847 95.824V90.704H285.599V89.52H286.847V87.536H288.191V89.52H290.447V90.704H288.191V95.792C288.191 96.56 288.527 96.816 289.231 96.816H290.447V98H289.103ZM295.326 98.192C292.926 98.192 291.438 96.448 291.438 93.76C291.438 91.072 292.926 89.328 295.262 89.328C297.47 89.328 299.006 90.928 299.006 93.776V94.176H292.846C292.942 96 293.854 96.912 295.326 96.912C296.43 96.912 297.15 96.352 297.438 95.488L298.878 95.6C298.43 97.12 297.118 98.192 295.326 98.192ZM292.846 92.992H297.534C297.406 91.36 296.51 90.608 295.262 90.608C293.95 90.608 293.07 91.424 292.846 92.992ZM303.915 98.192C301.579 98.192 300.379 96.992 300.251 95.328L301.659 95.232C301.819 96.256 302.411 96.912 303.915 96.912C305.067 96.912 305.723 96.56 305.723 95.728C305.723 95.056 305.387 94.768 303.659 94.448C301.291 94 300.587 93.264 300.587 91.92C300.587 90.416 301.755 89.328 303.803 89.328C306.043 89.328 306.987 90.672 307.163 92.048L305.755 92.144C305.675 91.344 305.163 90.608 303.771 90.608C302.555 90.608 301.995 91.136 301.995 91.856C301.995 92.688 302.427 93.008 303.915 93.264C306.411 93.696 307.131 94.384 307.131 95.728C307.131 97.296 305.787 98.192 303.915 98.192ZM316.147 98.192C313.939 98.192 312.563 96.48 312.563 93.76C312.563 91.04 313.939 89.328 316.147 89.328C317.283 89.328 318.291 89.84 318.755 90.704V86.64H320.099V98H318.883L318.835 96.72C318.355 97.648 317.331 98.192 316.147 98.192ZM316.419 96.912C317.923 96.912 318.755 95.696 318.755 93.76C318.755 91.792 317.923 90.608 316.419 90.608C314.931 90.608 313.971 91.792 313.971 93.76C313.971 95.696 314.931 96.912 316.419 96.912ZM325.127 98.192C323.431 98.192 322.343 96.992 322.343 94.976V89.52H323.687V94.608C323.687 96.256 324.263 97.008 325.479 97.008C326.823 97.008 327.639 96.096 327.639 94.576V89.52H328.983V98H327.703V96.624C327.239 97.632 326.343 98.192 325.127 98.192ZM331.546 98V89.52H332.73L332.778 91.088C333.082 90.016 333.754 89.52 334.794 89.52H335.626V90.8H334.81C333.53 90.8 332.89 91.488 332.89 92.88V98H331.546ZM337.092 88.192V86.624H338.5V88.192H337.092ZM337.124 98V89.52H338.468V98H337.124ZM341.124 98V89.52H342.356L342.388 91.04C342.836 89.872 343.828 89.328 344.996 89.328C346.932 89.328 347.86 90.752 347.86 92.544V98H346.516V92.928C346.516 91.36 345.988 90.512 344.708 90.512C343.396 90.512 342.468 91.36 342.468 92.928V98H341.124ZM353.449 100.592C351.625 100.592 350.249 99.616 349.897 98.128L351.305 98.032C351.561 98.832 352.137 99.312 353.449 99.312C354.985 99.312 355.833 98.704 355.833 97.456V96.08C355.417 96.976 354.457 97.552 353.353 97.552C351.193 97.552 349.657 95.856 349.657 93.44C349.657 91.024 351.161 89.328 353.289 89.328C354.473 89.328 355.513 89.92 355.897 90.864V89.52H357.177V97.424C357.177 99.408 355.785 100.592 353.449 100.592ZM353.417 96.272C354.873 96.272 355.817 95.184 355.833 93.44C355.865 91.696 354.889 90.608 353.417 90.608C351.929 90.608 351.065 91.696 351.065 93.44C351.065 95.184 351.961 96.272 353.417 96.272ZM366.837 98C365.301 98 364.581 97.328 364.581 95.824V90.704H363.333V89.52H364.581V87.536H365.925V89.52H368.181V90.704H365.925V95.792C365.925 96.56 366.261 96.816 366.965 96.816H368.181V98H366.837ZM369.749 98V86.64H371.093V90.848C371.525 89.808 372.485 89.328 373.653 89.328C375.477 89.328 376.485 90.656 376.485 92.544V98H375.141V92.928C375.141 91.296 374.549 90.512 373.365 90.512C371.989 90.512 371.093 91.376 371.093 92.944V98H369.749ZM382.17 98.192C379.77 98.192 378.282 96.448 378.282 93.76C378.282 91.072 379.77 89.328 382.106 89.328C384.314 89.328 385.85 90.928 385.85 93.776V94.176H379.69C379.786 96 380.698 96.912 382.17 96.912C383.274 96.912 383.994 96.352 384.282 95.488L385.722 95.6C385.274 97.12 383.962 98.192 382.17 98.192ZM379.69 92.992H384.378C384.25 91.36 383.354 90.608 382.106 90.608C380.794 90.608 379.914 91.424 379.69 92.992ZM16.432 122L12.32 110.64H13.824L17.344 120.496L20.848 110.64H22.352L18.24 122H16.432ZM26.6233 122.192C24.2233 122.192 22.7353 120.448 22.7353 117.76C22.7353 115.072 24.2233 113.328 26.5593 113.328C28.7673 113.328 30.3033 114.928 30.3033 117.776V118.176H24.1432C24.2393 120 25.1513 120.912 26.6233 120.912C27.7273 120.912 28.4473 120.352 28.7353 119.488L30.1753 119.6C29.7273 121.12 28.4153 122.192 26.6233 122.192ZM24.1432 116.992H28.8313C28.7033 115.36 27.8073 114.608 26.5593 114.608C25.2473 114.608 24.3673 115.424 24.1432 116.992ZM32.1238 122V113.52H33.3558L33.3878 115.04C33.8358 113.872 34.8278 113.328 35.9958 113.328C37.9318 113.328 38.8598 114.752 38.8598 116.544V122H37.5158V116.928C37.5158 115.36 36.9878 114.512 35.7078 114.512C34.3958 114.512 33.4678 115.36 33.4678 116.928V122H32.1238ZM43.884 122C42.348 122 41.628 121.328 41.628 119.824V114.704H40.38V113.52H41.628V111.536H42.972V113.52H45.228V114.704H42.972V119.792C42.972 120.56 43.308 120.816 44.012 120.816H45.228V122H43.884ZM49.7359 122.192C48.0399 122.192 46.9519 120.992 46.9519 118.976V113.52H48.2959V118.608C48.2959 120.256 48.8719 121.008 50.0879 121.008C51.4319 121.008 52.2479 120.096 52.2479 118.576V113.52H53.5919V122H52.3119V120.624C51.8479 121.632 50.9519 122.192 49.7359 122.192ZM56.155 122V113.52H57.339L57.387 115.088C57.691 114.016 58.363 113.52 59.403 113.52H60.235V114.8H59.419C58.139 114.8 57.499 115.488 57.499 116.88V122H56.155ZM64.8889 122.192C62.4889 122.192 61.0009 120.448 61.0009 117.76C61.0009 115.072 62.4889 113.328 64.8249 113.328C67.0329 113.328 68.5689 114.928 68.5689 117.776V118.176H62.4089C62.5049 120 63.4169 120.912 64.8889 120.912C65.9929 120.912 66.7129 120.352 67.0009 119.488L68.4409 119.6C67.9929 121.12 66.6809 122.192 64.8889 122.192ZM62.4089 116.992H67.0969C66.9689 115.36 66.0729 114.608 64.8249 114.608C63.5129 114.608 62.6329 115.424 62.4089 116.992ZM75.0896 122.256C72.0496 122.256 69.9856 120.016 69.9856 116.336C69.9856 112.656 72.0496 110.384 75.0896 110.384C77.8416 110.384 79.2976 111.872 79.7776 114.256L78.3216 114.352C78.0016 112.736 76.9776 111.728 75.0896 111.728C72.9136 111.728 71.4256 113.456 71.4256 116.336C71.4256 119.216 72.9136 120.912 75.0896 120.912C77.0736 120.912 78.1296 119.808 78.4176 118.032L79.8736 118.128C79.4576 120.592 77.8096 122.256 75.0896 122.256ZM84.0211 122.192C82.2611 122.192 81.1571 121.344 81.1571 119.888C81.1571 118.448 81.9731 117.648 83.8291 117.296L86.8371 116.736C86.8371 115.312 86.1651 114.608 84.8211 114.608C83.6371 114.608 82.9811 115.152 82.7251 116.128L81.3011 116.016C81.6211 114.416 82.9011 113.328 84.8211 113.328C86.9971 113.328 88.1811 114.64 88.1811 116.784V120.288C88.1811 120.672 88.3091 120.816 88.6291 120.816H88.9651V122C88.8691 122.016 88.6611 122.032 88.4531 122.032C87.4291 122.032 86.9651 121.632 86.8531 120.688C86.4371 121.568 85.2691 122.192 84.0211 122.192ZM84.1491 121.008C85.8451 121.008 86.8371 119.92 86.8371 118.512V117.904L84.0851 118.416C82.9331 118.624 82.5651 119.056 82.5651 119.76C82.5651 120.56 83.1571 121.008 84.1491 121.008ZM90.4831 124.4V113.52H91.7311L91.7471 114.816C92.2591 113.84 93.2031 113.328 94.3551 113.328C96.8831 113.328 98.0191 115.424 98.0191 117.76C98.0191 120.096 96.8831 122.192 94.3551 122.192C93.2511 122.192 92.2751 121.696 91.8271 120.88V124.4H90.4831ZM94.2271 120.912C95.6991 120.912 96.6111 119.744 96.6111 117.76C96.6111 115.776 95.6991 114.608 94.2271 114.608C92.7551 114.608 91.8271 115.68 91.8271 117.76C91.8271 119.84 92.7391 120.912 94.2271 120.912ZM107.087 122.192C104.751 122.192 103.551 120.992 103.423 119.328L104.831 119.232C104.991 120.256 105.583 120.912 107.087 120.912C108.239 120.912 108.895 120.56 108.895 119.728C108.895 119.056 108.559 118.768 106.831 118.448C104.463 118 103.759 117.264 103.759 115.92C103.759 114.416 104.927 113.328 106.975 113.328C109.215 113.328 110.159 114.672 110.335 116.048L108.927 116.144C108.847 115.344 108.335 114.608 106.943 114.608C105.727 114.608 105.167 115.136 105.167 115.856C105.167 116.688 105.599 117.008 107.087 117.264C109.583 117.696 110.303 118.384 110.303 119.728C110.303 121.296 108.959 122.192 107.087 122.192ZM114.939 122.192C113.243 122.192 112.155 120.992 112.155 118.976V113.52H113.499V118.608C113.499 120.256 114.075 121.008 115.291 121.008C116.635 121.008 117.451 120.096 117.451 118.576V113.52H118.795V122H117.515V120.624C117.051 121.632 116.155 122.192 114.939 122.192ZM121.358 122V113.52H122.59L122.622 115.008C123.038 113.968 123.918 113.328 125.006 113.328C126.286 113.328 127.182 113.968 127.55 115.104C127.918 113.968 128.782 113.328 130.03 113.328C131.838 113.328 132.83 114.496 132.83 116.544V122H131.486V116.832C131.486 115.296 130.878 114.512 129.71 114.512C128.526 114.512 127.758 115.408 127.758 116.928V122H126.414V116.928C126.414 115.424 125.918 114.512 124.67 114.512C123.486 114.512 122.702 115.424 122.702 116.928V122H121.358ZM135.077 122V113.52H136.309L136.341 115.008C136.757 113.968 137.637 113.328 138.725 113.328C140.005 113.328 140.901 113.968 141.269 115.104C141.637 113.968 142.501 113.328 143.749 113.328C145.557 113.328 146.549 114.496 146.549 116.544V122H145.205V116.832C145.205 115.296 144.597 114.512 143.429 114.512C142.245 114.512 141.477 115.408 141.477 116.928V122H140.133V116.928C140.133 115.424 139.637 114.512 138.389 114.512C137.205 114.512 136.421 115.424 136.421 116.928V122H135.077ZM148.982 112.192V110.624H150.39V112.192H148.982ZM149.014 122V113.52H150.358V122H149.014ZM155.384 122C153.848 122 153.128 121.328 153.128 119.824V114.704H151.88V113.52H153.128V111.536H154.472V113.52H156.728V114.704H154.472V119.792C154.472 120.56 154.808 120.816 155.512 120.816H156.728V122H155.384ZM161.97 117.968V116.704H167.266V117.968H161.97ZM173.617 124.4V123.216H174.593C175.185 123.216 175.425 123.04 175.585 122.64L175.889 121.84H175.425L172.321 113.52H173.793L176.321 120.592L178.737 113.52H180.209L176.769 123.072C176.449 123.984 175.857 124.4 174.721 124.4H173.617ZM184.733 122.192C182.381 122.192 180.845 120.464 180.845 117.76C180.845 115.056 182.381 113.328 184.733 113.328C187.069 113.328 188.605 115.056 188.605 117.76C188.605 120.464 187.069 122.192 184.733 122.192ZM184.733 120.912C186.285 120.912 187.197 119.728 187.197 117.76C187.197 115.792 186.285 114.608 184.733 114.608C183.165 114.608 182.253 115.792 182.253 117.76C182.253 119.728 183.165 120.912 184.733 120.912ZM193.22 122.192C191.524 122.192 190.436 120.992 190.436 118.976V113.52H191.78V118.608C191.78 120.256 192.356 121.008 193.572 121.008C194.916 121.008 195.732 120.096 195.732 118.576V113.52H197.076V122H195.796V120.624C195.332 121.632 194.436 122.192 193.22 122.192ZM203.639 122V113.52H204.871L204.903 115.008C205.319 113.968 206.199 113.328 207.287 113.328C208.567 113.328 209.463 113.968 209.831 115.104C210.199 113.968 211.063 113.328 212.311 113.328C214.119 113.328 215.111 114.496 215.111 116.544V122H213.767V116.832C213.767 115.296 213.159 114.512 211.991 114.512C210.807 114.512 210.039 115.408 210.039 116.928V122H208.695V116.928C208.695 115.424 208.199 114.512 206.951 114.512C205.767 114.512 204.983 115.424 204.983 116.928V122H203.639ZM220.795 122.192C218.395 122.192 216.907 120.448 216.907 117.76C216.907 115.072 218.395 113.328 220.731 113.328C222.939 113.328 224.475 114.928 224.475 117.776V118.176H218.315C218.411 120 219.323 120.912 220.795 120.912C221.899 120.912 222.619 120.352 222.907 119.488L224.347 119.6C223.899 121.12 222.587 122.192 220.795 122.192ZM218.315 116.992H223.003C222.875 115.36 221.979 114.608 220.731 114.608C219.419 114.608 218.539 115.424 218.315 116.992ZM226.296 122V113.52H227.528L227.56 115.04C228.008 113.872 229 113.328 230.168 113.328C232.104 113.328 233.032 114.752 233.032 116.544V122H231.688V116.928C231.688 115.36 231.16 114.512 229.88 114.512C228.568 114.512 227.64 115.36 227.64 116.928V122H226.296ZM238.056 122C236.52 122 235.8 121.328 235.8 119.824V114.704H234.552V113.52H235.8V111.536H237.144V113.52H239.4V114.704H237.144V119.792C237.144 120.56 237.48 120.816 238.184 120.816H239.4V122H238.056ZM240.936 112.192V110.624H242.344V112.192H240.936ZM240.968 122V113.52H242.312V122H240.968ZM248.03 122.192C245.678 122.192 244.142 120.464 244.142 117.76C244.142 115.056 245.678 113.328 248.03 113.328C250.366 113.328 251.902 115.056 251.902 117.76C251.902 120.464 250.366 122.192 248.03 122.192ZM248.03 120.912C249.582 120.912 250.494 119.728 250.494 117.76C250.494 115.792 249.582 114.608 248.03 114.608C246.462 114.608 245.549 115.792 245.549 117.76C245.549 119.728 246.462 120.912 248.03 120.912ZM253.733 122V113.52H254.965L254.997 115.04C255.445 113.872 256.437 113.328 257.605 113.328C259.541 113.328 260.469 114.752 260.469 116.544V122H259.125V116.928C259.125 115.36 258.597 114.512 257.317 114.512C256.005 114.512 255.077 115.36 255.077 116.928V122H253.733ZM266.155 122.192C263.755 122.192 262.267 120.448 262.267 117.76C262.267 115.072 263.755 113.328 266.091 113.328C268.299 113.328 269.835 114.928 269.835 117.776V118.176H263.674C263.771 120 264.683 120.912 266.155 120.912C267.259 120.912 267.979 120.352 268.267 119.488L269.707 119.6C269.259 121.12 267.947 122.192 266.155 122.192ZM263.674 116.992H268.363C268.235 115.36 267.339 114.608 266.091 114.608C264.779 114.608 263.899 115.424 263.674 116.992ZM274.663 122.192C272.455 122.192 271.079 120.48 271.079 117.76C271.079 115.04 272.455 113.328 274.663 113.328C275.799 113.328 276.807 113.84 277.271 114.704V110.64H278.615V122H277.399L277.351 120.72C276.871 121.648 275.847 122.192 274.663 122.192ZM274.935 120.912C276.439 120.912 277.271 119.696 277.271 117.76C277.271 115.792 276.439 114.608 274.935 114.608C273.447 114.608 272.487 115.792 272.487 117.76C272.487 119.696 273.447 120.912 274.935 120.912ZM285.539 124.4V123.216H286.515C287.107 123.216 287.347 123.04 287.507 122.64L287.811 121.84H287.347L284.243 113.52H285.715L288.243 120.592L290.659 113.52H292.131L288.691 123.072C288.371 123.984 287.779 124.4 286.643 124.4H285.539ZM296.655 122.192C294.303 122.192 292.767 120.464 292.767 117.76C292.767 115.056 294.303 113.328 296.655 113.328C298.991 113.328 300.527 115.056 300.527 117.76C300.527 120.464 298.991 122.192 296.655 122.192ZM296.655 120.912C298.207 120.912 299.119 119.728 299.119 117.76C299.119 115.792 298.207 114.608 296.655 114.608C295.087 114.608 294.174 115.792 294.174 117.76C294.174 119.728 295.087 120.912 296.655 120.912ZM305.142 122.192C303.446 122.192 302.358 120.992 302.358 118.976V113.52H303.702V118.608C303.702 120.256 304.278 121.008 305.494 121.008C306.838 121.008 307.654 120.096 307.654 118.576V113.52H308.998V122H307.718V120.624C307.254 121.632 306.358 122.192 305.142 122.192ZM318.873 122.192C316.505 122.192 314.985 120.448 314.985 117.76C314.985 115.072 316.505 113.328 318.873 113.328C320.825 113.328 322.185 114.384 322.473 116.272L321.065 116.368C320.873 115.248 320.025 114.608 318.873 114.608C317.305 114.608 316.393 115.792 316.393 117.76C316.393 119.728 317.305 120.912 318.873 120.912C320.025 120.912 320.873 120.272 321.065 118.992L322.473 119.088C322.185 120.976 320.825 122.192 318.873 122.192ZM326.646 122.192C324.886 122.192 323.782 121.344 323.782 119.888C323.782 118.448 324.598 117.648 326.454 117.296L329.462 116.736C329.462 115.312 328.79 114.608 327.446 114.608C326.262 114.608 325.606 115.152 325.35 116.128L323.926 116.016C324.246 114.416 325.526 113.328 327.446 113.328C329.622 113.328 330.806 114.64 330.806 116.784V120.288C330.806 120.672 330.934 120.816 331.254 120.816H331.59V122C331.494 122.016 331.286 122.032 331.078 122.032C330.054 122.032 329.59 121.632 329.478 120.688C329.062 121.568 327.894 122.192 326.646 122.192ZM326.774 121.008C328.47 121.008 329.462 119.92 329.462 118.512V117.904L326.71 118.416C325.558 118.624 325.19 119.056 325.19 119.76C325.19 120.56 325.782 121.008 326.774 121.008ZM333.108 122V113.52H334.34L334.372 115.04C334.82 113.872 335.812 113.328 336.98 113.328C338.916 113.328 339.844 114.752 339.844 116.544V122H338.5V116.928C338.5 115.36 337.972 114.512 336.692 114.512C335.38 114.512 334.452 115.36 334.452 116.928V122H333.108ZM349.493 122.192C347.157 122.192 345.957 120.992 345.829 119.328L347.237 119.232C347.397 120.256 347.989 120.912 349.493 120.912C350.645 120.912 351.301 120.56 351.301 119.728C351.301 119.056 350.965 118.768 349.237 118.448C346.869 118 346.165 117.264 346.165 115.92C346.165 114.416 347.333 113.328 349.381 113.328C351.621 113.328 352.565 114.672 352.741 116.048L351.333 116.144C351.253 115.344 350.741 114.608 349.349 114.608C348.133 114.608 347.573 115.136 347.573 115.856C347.573 116.688 348.005 117.008 349.493 117.264C351.989 117.696 352.709 118.384 352.709 119.728C352.709 121.296 351.365 122.192 349.493 122.192ZM357.337 122C355.801 122 355.081 121.328 355.081 119.824V114.704H353.833V113.52H355.081V111.536H356.425V113.52H358.681V114.704H356.425V119.792C356.425 120.56 356.761 120.816 357.465 120.816H358.681V122H357.337ZM363.561 122.192C361.161 122.192 359.673 120.448 359.673 117.76C359.673 115.072 361.161 113.328 363.497 113.328C365.705 113.328 367.241 114.928 367.241 117.776V118.176H361.081C361.177 120 362.089 120.912 363.561 120.912C364.665 120.912 365.385 120.352 365.673 119.488L367.113 119.6C366.665 121.12 365.353 122.192 363.561 122.192ZM361.081 116.992H365.769C365.641 115.36 364.745 114.608 363.497 114.608C362.185 114.608 361.305 115.424 361.081 116.992ZM369.061 124.4V113.52H370.309L370.325 114.816C370.837 113.84 371.781 113.328 372.933 113.328C375.461 113.328 376.597 115.424 376.597 117.76C376.597 120.096 375.461 122.192 372.933 122.192C371.829 122.192 370.853 121.696 370.405 120.88V124.4H369.061ZM372.805 120.912C374.277 120.912 375.189 119.744 375.189 117.76C375.189 115.776 374.277 114.608 372.805 114.608C371.333 114.608 370.405 115.68 370.405 117.76C370.405 119.84 371.317 120.912 372.805 120.912ZM384.865 122.192C383.105 122.192 382.001 121.344 382.001 119.888C382.001 118.448 382.817 117.648 384.673 117.296L387.681 116.736C387.681 115.312 387.009 114.608 385.665 114.608C384.481 114.608 383.825 115.152 383.569 116.128L382.145 116.016C382.465 114.416 383.745 113.328 385.665 113.328C387.841 113.328 389.025 114.64 389.025 116.784V120.288C389.025 120.672 389.153 120.816 389.473 120.816H389.809V122C389.713 122.016 389.505 122.032 389.297 122.032C388.273 122.032 387.809 121.632 387.697 120.688C387.281 121.568 386.113 122.192 384.865 122.192ZM384.993 121.008C386.689 121.008 387.681 119.92 387.681 118.512V117.904L384.929 118.416C383.777 118.624 383.409 119.056 383.409 119.76C383.409 120.56 384.001 121.008 384.993 121.008ZM392.695 122L390.071 113.52H391.543L393.527 120.592L395.543 113.52H396.983L398.999 120.592L400.999 113.52H402.471L399.847 122H398.151L396.263 115.552L394.375 122H392.695ZM406.037 122.192C404.277 122.192 403.173 121.344 403.173 119.888C403.173 118.448 403.989 117.648 405.845 117.296L408.853 116.736C408.853 115.312 408.181 114.608 406.837 114.608C405.653 114.608 404.997 115.152 404.741 116.128L403.317 116.016C403.637 114.416 404.917 113.328 406.837 113.328C409.013 113.328 410.197 114.64 410.197 116.784V120.288C410.197 120.672 410.325 120.816 410.645 120.816H410.981V122C410.885 122.016 410.677 122.032 410.469 122.032C409.445 122.032 408.981 121.632 408.869 120.688C408.453 121.568 407.285 122.192 406.037 122.192ZM406.165 121.008C407.861 121.008 408.853 119.92 408.853 118.512V117.904L406.101 118.416C404.949 118.624 404.581 119.056 404.581 119.76C404.581 120.56 405.173 121.008 406.165 121.008ZM412.539 124.4V123.216H413.515C414.107 123.216 414.347 123.04 414.507 122.64L414.811 121.84H414.347L411.243 113.52H412.715L415.243 120.592L417.659 113.52H419.131L415.691 123.072C415.371 123.984 414.779 124.4 413.643 124.4H412.539ZM425.596 122V114.704H424.444V113.52H425.596V112.752C425.596 111.504 426.3 110.64 427.836 110.64H429.18V111.824H427.932C427.26 111.824 426.94 112.208 426.94 112.848V113.52H429.068V114.704H426.94V122H425.596ZM430.593 122V113.52H431.777L431.825 115.088C432.129 114.016 432.801 113.52 433.841 113.52H434.673V114.8H433.857C432.577 114.8 431.937 115.488 431.937 116.88V122H430.593ZM439.326 122.192C436.974 122.192 435.438 120.464 435.438 117.76C435.438 115.056 436.974 113.328 439.326 113.328C441.662 113.328 443.198 115.056 443.198 117.76C443.198 120.464 441.662 122.192 439.326 122.192ZM439.326 120.912C440.878 120.912 441.79 119.728 441.79 117.76C441.79 115.792 440.878 114.608 439.326 114.608C437.758 114.608 436.846 115.792 436.846 117.76C436.846 119.728 437.758 120.912 439.326 120.912ZM445.03 122V113.52H446.262L446.294 115.008C446.71 113.968 447.59 113.328 448.678 113.328C449.958 113.328 450.854 113.968 451.222 115.104C451.59 113.968 452.454 113.328 453.702 113.328C455.51 113.328 456.502 114.496 456.502 116.544V122H455.158V116.832C455.158 115.296 454.55 114.512 453.382 114.512C452.198 114.512 451.43 115.408 451.43 116.928V122H450.086V116.928C450.086 115.424 449.59 114.512 448.342 114.512C447.158 114.512 446.374 115.424 446.374 116.928V122H445.03ZM16.368 146.192C14.032 146.192 12.832 144.992 12.704 143.328L14.112 143.232C14.272 144.256 14.864 144.912 16.368 144.912C17.52 144.912 18.176 144.56 18.176 143.728C18.176 143.056 17.84 142.768 16.112 142.448C13.744 142 13.04 141.264 13.04 139.92C13.04 138.416 14.208 137.328 16.256 137.328C18.496 137.328 19.44 138.672 19.616 140.048L18.208 140.144C18.128 139.344 17.616 138.608 16.224 138.608C15.008 138.608 14.448 139.136 14.448 139.856C14.448 140.688 14.88 141.008 16.368 141.264C18.864 141.696 19.584 142.384 19.584 143.728C19.584 145.296 18.24 146.192 16.368 146.192ZM24.7483 146.192C22.3963 146.192 20.8603 144.464 20.8603 141.76C20.8603 139.056 22.3963 137.328 24.7483 137.328C27.0843 137.328 28.6203 139.056 28.6203 141.76C28.6203 144.464 27.0843 146.192 24.7483 146.192ZM24.7483 144.912C26.3003 144.912 27.2123 143.728 27.2123 141.76C27.2123 139.792 26.3003 138.608 24.7483 138.608C23.1803 138.608 22.2682 139.792 22.2682 141.76C22.2682 143.728 23.1803 144.912 24.7483 144.912ZM30.4519 146V137.52H31.6839L31.7159 139.008C32.1319 137.968 33.0119 137.328 34.0999 137.328C35.3799 137.328 36.2759 137.968 36.6439 139.104C37.0119 137.968 37.8759 137.328 39.1239 137.328C40.9319 137.328 41.9239 138.496 41.9239 140.544V146H40.5799V140.832C40.5799 139.296 39.9719 138.512 38.8039 138.512C37.6199 138.512 36.8519 139.408 36.8519 140.928V146H35.5079V140.928C35.5079 139.424 35.0119 138.512 33.7639 138.512C32.5799 138.512 31.7959 139.424 31.7959 140.928V146H30.4519ZM47.6076 146.192C45.2076 146.192 43.7196 144.448 43.7196 141.76C43.7196 139.072 45.2076 137.328 47.5436 137.328C49.7516 137.328 51.2876 138.928 51.2876 141.776V142.176H45.1276C45.2236 144 46.1356 144.912 47.6076 144.912C48.7116 144.912 49.4316 144.352 49.7196 143.488L51.1596 143.6C50.7116 145.12 49.3996 146.192 47.6076 146.192ZM45.1276 140.992H49.8156C49.6876 139.36 48.7916 138.608 47.5436 138.608C46.2316 138.608 45.3516 139.424 45.1276 140.992ZM60.5764 146.192C58.1764 146.192 56.6884 144.448 56.6884 141.76C56.6884 139.072 58.1764 137.328 60.5124 137.328C62.7204 137.328 64.2564 138.928 64.2564 141.776V142.176H58.0964C58.1924 144 59.1044 144.912 60.5764 144.912C61.6804 144.912 62.4004 144.352 62.6884 143.488L64.1284 143.6C63.6804 145.12 62.3684 146.192 60.5764 146.192ZM58.0964 140.992H62.7844C62.6564 139.36 61.7604 138.608 60.5124 138.608C59.2004 138.608 58.3204 139.424 58.0964 140.992ZM67.9869 146L64.8989 137.52H66.3709L68.8349 144.624L71.2989 137.52H72.7709L69.6829 146H67.9869ZM77.2951 146.192C74.8951 146.192 73.4071 144.448 73.4071 141.76C73.4071 139.072 74.8951 137.328 77.2311 137.328C79.4391 137.328 80.9751 138.928 80.9751 141.776V142.176H74.8151C74.9111 144 75.8231 144.912 77.2951 144.912C78.3991 144.912 79.1191 144.352 79.4071 143.488L80.8471 143.6C80.3991 145.12 79.0871 146.192 77.2951 146.192ZM74.8151 140.992H79.5031C79.3751 139.36 78.4791 138.608 77.2311 138.608C75.9191 138.608 75.0391 139.424 74.8151 140.992ZM82.7956 146V137.52H84.0276L84.0596 139.04C84.5076 137.872 85.4996 137.328 86.6676 137.328C88.6036 137.328 89.5316 138.752 89.5316 140.544V146H88.1876V140.928C88.1876 139.36 87.6596 138.512 86.3796 138.512C85.0676 138.512 84.1396 139.36 84.1396 140.928V146H82.7956ZM94.5559 146C93.0199 146 92.2999 145.328 92.2999 143.824V138.704H91.0519V137.52H92.2999V135.536H93.6439V137.52H95.8999V138.704H93.6439V143.792C93.6439 144.56 93.9799 144.816 94.6839 144.816H95.8999V146H94.5559ZM100.556 146.192C98.2195 146.192 97.0195 144.992 96.8915 143.328L98.2995 143.232C98.4595 144.256 99.0515 144.912 100.556 144.912C101.708 144.912 102.364 144.56 102.364 143.728C102.364 143.056 102.028 142.768 100.299 142.448C97.9315 142 97.2275 141.264 97.2275 139.92C97.2275 138.416 98.3955 137.328 100.444 137.328C102.684 137.328 103.628 138.672 103.804 140.048L102.396 140.144C102.316 139.344 101.804 138.608 100.411 138.608C99.1955 138.608 98.6355 139.136 98.6355 139.856C98.6355 140.688 99.0675 141.008 100.556 141.264C103.052 141.696 103.772 142.384 103.772 143.728C103.772 145.296 102.428 146.192 100.556 146.192ZM112.884 146C111.348 146 110.628 145.328 110.628 143.824V138.704H109.38V137.52H110.628V135.536H111.972V137.52H114.228V138.704H111.972V143.792C111.972 144.56 112.308 144.816 113.012 144.816H114.228V146H112.884ZM115.796 146V134.64H117.14V138.848C117.572 137.808 118.532 137.328 119.7 137.328C121.524 137.328 122.532 138.656 122.532 140.544V146H121.188V140.928C121.188 139.296 120.596 138.512 119.412 138.512C118.036 138.512 117.14 139.376 117.14 140.944V146H115.796ZM127.224 146.192C125.464 146.192 124.36 145.344 124.36 143.888C124.36 142.448 125.176 141.648 127.032 141.296L130.04 140.736C130.04 139.312 129.368 138.608 128.024 138.608C126.84 138.608 126.184 139.152 125.928 140.128L124.504 140.016C124.824 138.416 126.104 137.328 128.024 137.328C130.2 137.328 131.384 138.64 131.384 140.784V144.288C131.384 144.672 131.512 144.816 131.832 144.816H132.168V146C132.072 146.016 131.864 146.032 131.656 146.032C130.632 146.032 130.168 145.632 130.056 144.688C129.64 145.568 128.472 146.192 127.224 146.192ZM127.352 145.008C129.048 145.008 130.04 143.92 130.04 142.512V141.904L127.288 142.416C126.136 142.624 125.768 143.056 125.768 143.76C125.768 144.56 126.36 145.008 127.352 145.008ZM136.056 146C134.52 146 133.8 145.328 133.8 143.824V138.704H132.552V137.52H133.8V135.536H135.144V137.52H137.4V138.704H135.144V143.792C135.144 144.56 135.48 144.816 136.184 144.816H137.4V146H136.056ZM146.226 146.192C144.018 146.192 142.642 144.48 142.642 141.76C142.642 139.04 144.018 137.328 146.226 137.328C147.362 137.328 148.37 137.84 148.834 138.704V134.64H150.178V146H148.962L148.914 144.72C148.434 145.648 147.41 146.192 146.226 146.192ZM146.498 144.912C148.002 144.912 148.834 143.696 148.834 141.76C148.834 139.792 148.002 138.608 146.498 138.608C145.01 138.608 144.049 139.792 144.049 141.76C144.049 143.696 145.01 144.912 146.498 144.912ZM154.865 146.192C153.105 146.192 152.001 145.344 152.001 143.888C152.001 142.448 152.817 141.648 154.673 141.296L157.681 140.736C157.681 139.312 157.009 138.608 155.665 138.608C154.481 138.608 153.825 139.152 153.569 140.128L152.145 140.016C152.465 138.416 153.745 137.328 155.665 137.328C157.841 137.328 159.025 138.64 159.025 140.784V144.288C159.025 144.672 159.153 144.816 159.473 144.816H159.809V146C159.713 146.016 159.505 146.032 159.297 146.032C158.273 146.032 157.809 145.632 157.697 144.688C157.281 145.568 156.113 146.192 154.865 146.192ZM154.993 145.008C156.689 145.008 157.681 143.92 157.681 142.512V141.904L154.929 142.416C153.777 142.624 153.409 143.056 153.409 143.76C153.409 144.56 154.001 145.008 154.993 145.008ZM161.367 148.4V147.216H162.343C162.935 147.216 163.175 147.04 163.335 146.64L163.639 145.84H163.175L160.071 137.52H161.543L164.071 144.592L166.487 137.52H167.959L164.519 147.072C164.199 147.984 163.607 148.4 162.471 148.4H161.367ZM168.111 148.496L168.879 146H168.063V144.192H169.871V145.776L168.911 148.496H168.111ZM178.946 146.192C176.61 146.192 175.41 144.992 175.282 143.328L176.69 143.232C176.85 144.256 177.442 144.912 178.946 144.912C180.098 144.912 180.754 144.56 180.754 143.728C180.754 143.056 180.418 142.768 178.69 142.448C176.322 142 175.618 141.264 175.618 139.92C175.618 138.416 176.786 137.328 178.834 137.328C181.074 137.328 182.018 138.672 182.194 140.048L180.786 140.144C180.706 139.344 180.194 138.608 178.802 138.608C177.586 138.608 177.026 139.136 177.026 139.856C177.026 140.688 177.458 141.008 178.946 141.264C181.442 141.696 182.162 142.384 182.162 143.728C182.162 145.296 180.818 146.192 178.946 146.192ZM187.326 146.192C184.974 146.192 183.438 144.464 183.438 141.76C183.438 139.056 184.974 137.328 187.326 137.328C189.662 137.328 191.198 139.056 191.198 141.76C191.198 144.464 189.662 146.192 187.326 146.192ZM187.326 144.912C188.878 144.912 189.79 143.728 189.79 141.76C189.79 139.792 188.878 138.608 187.326 138.608C185.758 138.608 184.846 139.792 184.846 141.76C184.846 143.728 185.758 144.912 187.326 144.912ZM200.29 146C198.754 146 198.034 145.328 198.034 143.824V138.704H196.786V137.52H198.034V135.536H199.378V137.52H201.634V138.704H199.378V143.792C199.378 144.56 199.714 144.816 200.418 144.816H201.634V146H200.29ZM203.202 146V134.64H204.546V138.848C204.978 137.808 205.938 137.328 207.106 137.328C208.93 137.328 209.938 138.656 209.938 140.544V146H208.594V140.928C208.594 139.296 208.002 138.512 206.818 138.512C205.442 138.512 204.546 139.376 204.546 140.944V146H203.202ZM212.373 136.192V134.624H213.781V136.192H212.373ZM212.405 146V137.52H213.749V146H212.405ZM219.243 146.192C216.907 146.192 215.707 144.992 215.579 143.328L216.987 143.232C217.147 144.256 217.739 144.912 219.243 144.912C220.395 144.912 221.051 144.56 221.051 143.728C221.051 143.056 220.715 142.768 218.987 142.448C216.619 142 215.915 141.264 215.915 139.92C215.915 138.416 217.083 137.328 219.131 137.328C221.371 137.328 222.315 138.672 222.491 140.048L221.083 140.144C221.003 139.344 220.491 138.608 219.099 138.608C217.883 138.608 217.323 139.136 217.323 139.856C217.323 140.688 217.755 141.008 219.243 141.264C221.739 141.696 222.459 142.384 222.459 143.728C222.459 145.296 221.115 146.192 219.243 146.192ZM231.556 146.192C229.22 146.192 228.02 144.992 227.892 143.328L229.299 143.232C229.46 144.256 230.052 144.912 231.556 144.912C232.708 144.912 233.364 144.56 233.364 143.728C233.364 143.056 233.028 142.768 231.299 142.448C228.932 142 228.228 141.264 228.228 139.92C228.228 138.416 229.396 137.328 231.444 137.328C233.684 137.328 234.628 138.672 234.804 140.048L233.396 140.144C233.316 139.344 232.804 138.608 231.411 138.608C230.196 138.608 229.636 139.136 229.636 139.856C229.636 140.688 230.068 141.008 231.556 141.264C234.052 141.696 234.772 142.384 234.772 143.728C234.772 145.296 233.428 146.192 231.556 146.192ZM236.624 146V134.64H237.968V138.848C238.4 137.808 239.36 137.328 240.528 137.328C242.352 137.328 243.36 138.656 243.36 140.544V146H242.016V140.928C242.016 139.296 241.424 138.512 240.24 138.512C238.864 138.512 237.968 139.376 237.968 140.944V146H236.624ZM249.045 146.192C246.693 146.192 245.157 144.464 245.157 141.76C245.157 139.056 246.693 137.328 249.045 137.328C251.381 137.328 252.917 139.056 252.917 141.76C252.917 144.464 251.381 146.192 249.045 146.192ZM249.045 144.912C250.597 144.912 251.509 143.728 251.509 141.76C251.509 139.792 250.597 138.608 249.045 138.608C247.477 138.608 246.565 139.792 246.565 141.76C246.565 143.728 247.477 144.912 249.045 144.912ZM257.533 146.192C255.837 146.192 254.749 144.992 254.749 142.976V137.52H256.093V142.608C256.093 144.256 256.669 145.008 257.885 145.008C259.229 145.008 260.045 144.096 260.045 142.576V137.52H261.389V146H260.109V144.624C259.645 145.632 258.749 146.192 257.533 146.192ZM265.616 146C264.624 146 263.952 145.52 263.952 144.4V134.64H265.296V144.288C265.296 144.64 265.472 144.816 265.824 144.816H266.56V146H265.616ZM271.132 146.192C268.924 146.192 267.548 144.48 267.548 141.76C267.548 139.04 268.924 137.328 271.132 137.328C272.268 137.328 273.276 137.84 273.74 138.704V134.64H275.084V146H273.868L273.82 144.72C273.34 145.648 272.316 146.192 271.132 146.192ZM271.404 144.912C272.908 144.912 273.74 143.696 273.74 141.76C273.74 139.792 272.908 138.608 271.404 138.608C269.916 138.608 268.956 139.792 268.956 141.76C268.956 143.696 269.916 144.912 271.404 144.912ZM283.335 146L280.711 137.52H282.183L284.167 144.592L286.183 137.52H287.623L289.639 144.592L291.639 137.52H293.111L290.487 146H288.791L286.903 139.552L285.015 146H283.335ZM297.639 146.192C295.287 146.192 293.751 144.464 293.751 141.76C293.751 139.056 295.287 137.328 297.639 137.328C299.975 137.328 301.511 139.056 301.511 141.76C301.511 144.464 299.975 146.192 297.639 146.192ZM297.639 144.912C299.191 144.912 300.103 143.728 300.103 141.76C300.103 139.792 299.191 138.608 297.639 138.608C296.071 138.608 295.159 139.792 295.159 141.76C295.159 143.728 296.071 144.912 297.639 144.912ZM303.343 146V137.52H304.527L304.575 139.088C304.879 138.016 305.551 137.52 306.591 137.52H307.423V138.8H306.607C305.327 138.8 304.687 139.488 304.687 140.88V146H303.343ZM308.921 146V134.64H310.265V142.08L314.393 137.52H316.185L312.841 141.12L316.329 146H314.697L311.929 142.032L310.265 143.792V146H308.921ZM324.054 146L321.43 137.52H322.902L324.886 144.592L326.902 137.52H328.342L330.358 144.592L332.358 137.52H333.83L331.206 146H329.51L327.622 139.552L325.734 146H324.054ZM338.358 146.192C335.958 146.192 334.47 144.448 334.47 141.76C334.47 139.072 335.958 137.328 338.294 137.328C340.502 137.328 342.038 138.928 342.038 141.776V142.176H335.878C335.974 144 336.886 144.912 338.358 144.912C339.462 144.912 340.182 144.352 340.47 143.488L341.91 143.6C341.462 145.12 340.15 146.192 338.358 146.192ZM335.878 140.992H340.566C340.438 139.36 339.542 138.608 338.294 138.608C336.982 138.608 336.102 139.424 335.878 140.992ZM345.6 146C344.608 146 343.936 145.52 343.936 144.4V134.64H345.28V144.288C345.28 144.64 345.456 144.816 345.808 144.816H346.544V146H345.6ZM349.71 146C348.718 146 348.046 145.52 348.046 144.4V134.64H349.39V144.288C349.39 144.64 349.566 144.816 349.918 144.816H350.654V146H349.71ZM352.048 146V144.192H353.856V146H352.048Z" fill="#1E2939"/>
<defs>
<linearGradient id="paint0_linear_6889_39313" x1="0" y1="80" x2="480" y2="80" gradientUnits="userSpaceOnUse">
<stop stop-color="#EFF3F6"/>
<stop offset="1" stop-color="#CEDBE3"/>
</linearGradient>
</defs>
</svg>
