<svg width="133" height="36" viewBox="0 0 133 36" fill="none" xmlns="http://www.w3.org/2000/svg">
<rect x="0.5" y="0.5" width="132" height="35" rx="7.5" fill="url(#paint0_linear_6893_39484)"/>
<rect x="0.5" y="0.5" width="132" height="35" rx="7.5" stroke="#6F69BF"/>
<path d="M17.152 23.224C14.464 23.224 12.616 21.278 12.616 18.044C12.616 14.838 14.436 12.836 17.166 12.836C19.63 12.836 20.946 14.152 21.366 16.322L19.784 16.406C19.518 15.048 18.678 14.222 17.166 14.222C15.36 14.222 14.184 15.678 14.184 18.044C14.184 20.424 15.374 21.838 17.152 21.838C18.762 21.838 19.616 20.928 19.854 19.444L21.436 19.528C21.058 21.782 19.602 23.224 17.152 23.224ZM22.9211 23V15.552H24.2791L24.3211 16.966C24.6011 15.986 25.1891 15.552 26.0991 15.552H26.8131V16.882H26.0991C24.9651 16.882 24.4051 17.428 24.4051 18.604V23H22.9211ZM30.9363 23.168C28.7663 23.168 27.4083 21.628 27.4083 19.276C27.4083 16.924 28.7663 15.384 30.8943 15.384C32.9243 15.384 34.2963 16.826 34.2963 19.332V19.71H28.9483C29.0183 21.166 29.7603 21.894 30.9503 21.894C31.8183 21.894 32.4063 21.46 32.6443 20.76L34.1843 20.858C33.7923 22.244 32.5743 23.168 30.9363 23.168ZM28.9483 18.59H32.7283C32.6303 17.274 31.9023 16.644 30.8943 16.644C29.8303 16.644 29.1163 17.33 28.9483 18.59ZM38.0364 23.168C36.4824 23.168 35.4884 22.426 35.4884 21.138C35.4884 19.864 36.2304 19.178 37.8684 18.856L40.4304 18.366C40.4304 17.218 39.8844 16.644 38.8204 16.644C37.8684 16.644 37.3364 17.078 37.1404 17.89L35.6144 17.792C35.8944 16.308 37.0564 15.384 38.8204 15.384C40.8364 15.384 41.9144 16.518 41.9144 18.45V21.348C41.9144 21.712 42.0264 21.824 42.3064 21.824H42.5724V23C42.4744 23.028 42.2504 23.042 42.0264 23.042C41.1724 23.042 40.6684 22.72 40.5564 21.852C40.1784 22.636 39.1984 23.168 38.0364 23.168ZM38.2744 21.992C39.6184 21.992 40.4304 21.152 40.4304 19.962V19.486L38.2464 19.906C37.3504 20.074 37.0284 20.424 37.0284 20.998C37.0284 21.642 37.4764 21.992 38.2744 21.992ZM46.0525 23C44.6385 23 43.9805 22.384 43.9805 20.984V16.77H42.8465V15.552H43.9805V13.802H45.4645V15.552H47.4385V16.77H45.4645V20.872C45.4645 21.572 45.7585 21.782 46.3745 21.782H47.4385V23H46.0525ZM51.7996 23.168C49.6296 23.168 48.2716 21.628 48.2716 19.276C48.2716 16.924 49.6296 15.384 51.7576 15.384C53.7876 15.384 55.1596 16.826 55.1596 19.332V19.71H49.8116C49.8816 21.166 50.6236 21.894 51.8136 21.894C52.6816 21.894 53.2696 21.46 53.5076 20.76L55.0476 20.858C54.6556 22.244 53.4376 23.168 51.7996 23.168ZM49.8116 18.59H53.5916C53.4936 17.274 52.7656 16.644 51.7576 16.644C50.6936 16.644 49.9796 17.33 49.8116 18.59ZM60.3583 23V13.06H64.0683C66.3363 13.06 67.6803 14.222 67.6803 16.154C67.6803 18.1 66.3363 19.276 64.0683 19.276H61.8703V23H60.3583ZM61.8703 17.904H64.0263C65.3983 17.904 66.1123 17.302 66.1123 16.154C66.1123 15.02 65.3983 14.446 64.0263 14.446H61.8703V17.904ZM69.2824 23V15.552H70.6404L70.6824 16.966C70.9624 15.986 71.5504 15.552 72.4604 15.552H73.1744V16.882H72.4604C71.3264 16.882 70.7664 17.428 70.7664 18.604V23H69.2824ZM77.2976 23.168C75.1696 23.168 73.7696 21.642 73.7696 19.276C73.7696 16.91 75.1696 15.384 77.2976 15.384C79.4256 15.384 80.8256 16.91 80.8256 19.276C80.8256 21.642 79.4256 23.168 77.2976 23.168ZM77.2976 21.88C78.5576 21.88 79.2856 20.914 79.2856 19.276C79.2856 17.638 78.5576 16.672 77.2976 16.672C76.0376 16.672 75.3096 17.638 75.3096 19.276C75.3096 20.914 76.0376 21.88 77.2976 21.88ZM86.2001 23.224C83.8201 23.224 82.3361 21.838 82.1681 19.794L83.7221 19.696C83.9041 21.082 84.7441 21.852 86.2281 21.852C87.5021 21.852 88.2581 21.362 88.2581 20.424C88.2581 19.584 87.8241 19.066 85.6261 18.534C83.2461 17.96 82.3781 17.274 82.3781 15.72C82.3781 14.012 83.6801 12.836 85.8221 12.836C88.0901 12.836 89.3921 14.194 89.6161 16.07L88.0621 16.154C87.9221 15.006 87.1521 14.208 85.7941 14.208C84.6461 14.208 83.9321 14.796 83.9321 15.664C83.9321 16.532 84.4221 16.854 86.3541 17.316C88.9301 17.918 89.8121 18.884 89.8121 20.34C89.8121 22.118 88.3421 23.224 86.2001 23.224ZM91.759 23V13.06H93.243V16.63C93.635 15.776 94.447 15.384 95.427 15.384C97.051 15.384 97.933 16.546 97.933 18.212V23H96.449V18.604C96.449 17.274 95.987 16.63 95.035 16.63C93.943 16.63 93.243 17.33 93.243 18.632V23H91.759ZM102.932 23.168C100.762 23.168 99.4044 21.628 99.4044 19.276C99.4044 16.924 100.762 15.384 102.89 15.384C104.92 15.384 106.292 16.826 106.292 19.332V19.71H100.944C101.014 21.166 101.756 21.894 102.946 21.894C103.814 21.894 104.402 21.46 104.64 20.76L106.18 20.858C105.788 22.244 104.57 23.168 102.932 23.168ZM100.944 18.59H104.724C104.626 17.274 103.898 16.644 102.89 16.644C101.826 16.644 101.112 17.33 100.944 18.59ZM110.862 23.168C108.692 23.168 107.334 21.628 107.334 19.276C107.334 16.924 108.692 15.384 110.82 15.384C112.85 15.384 114.222 16.826 114.222 19.332V19.71H108.874C108.944 21.166 109.686 21.894 110.876 21.894C111.744 21.894 112.332 21.46 112.57 20.76L114.11 20.858C113.718 22.244 112.5 23.168 110.862 23.168ZM108.874 18.59H112.654C112.556 17.274 111.828 16.644 110.82 16.644C109.756 16.644 109.042 17.33 108.874 18.59ZM118.308 23C116.894 23 116.236 22.384 116.236 20.984V16.77H115.102V15.552H116.236V13.802H117.72V15.552H119.694V16.77H117.72V20.872C117.72 21.572 118.014 21.782 118.63 21.782H119.694V23H118.308Z" fill="#1E2939"/>
<defs>
<linearGradient id="paint0_linear_6893_39484" x1="0" y1="18" x2="133" y2="18" gradientUnits="userSpaceOnUse">
<stop stop-color="#E7E6F4"/>
<stop offset="1" stop-color="#C8C6E6"/>
</linearGradient>
</defs>
</svg>
