<svg width="348" height="40" viewBox="0 0 348 40" fill="none" xmlns="http://www.w3.org/2000/svg">
<rect x="0.5" y="0.5" width="347" height="39" rx="7.5" fill="#FFFEFC"/>
<rect x="0.5" y="0.5" width="347" height="39" rx="7.5" stroke="#C1C5CD"/>
<path d="M13.472 26V14.64H14.848V19.616H20.56V14.64H21.936V26H20.56V20.96H14.848V26H13.472ZM27.842 26.192C25.442 26.192 23.954 24.448 23.954 21.76C23.954 19.072 25.442 17.328 27.778 17.328C29.986 17.328 31.522 18.928 31.522 21.776V22.176H25.362C25.458 24 26.37 24.912 27.842 24.912C28.946 24.912 29.666 24.352 29.954 23.488L31.394 23.6C30.946 25.12 29.634 26.192 27.842 26.192ZM25.362 20.992H30.05C29.922 19.36 29.026 18.608 27.778 18.608C26.466 18.608 25.586 19.424 25.362 20.992ZM35.0846 26C34.0926 26 33.4206 25.52 33.4206 24.4V14.64H34.7646V24.288C34.7646 24.64 34.9406 24.816 35.2926 24.816H36.0286V26H35.0846ZM37.6238 28.4V17.52H38.8718L38.8878 18.816C39.3998 17.84 40.3438 17.328 41.4958 17.328C44.0238 17.328 45.1597 19.424 45.1597 21.76C45.1597 24.096 44.0238 26.192 41.4958 26.192C40.3918 26.192 39.4158 25.696 38.9678 24.88V28.4H37.6238ZM41.3678 24.912C42.8398 24.912 43.7518 23.744 43.7518 21.76C43.7518 19.776 42.8398 18.608 41.3678 18.608C39.8958 18.608 38.9678 19.68 38.9678 21.76C38.9678 23.84 39.8798 24.912 41.3678 24.912ZM54.2274 26.192C51.8914 26.192 50.6914 24.992 50.5634 23.328L51.9714 23.232C52.1314 24.256 52.7234 24.912 54.2274 24.912C55.3794 24.912 56.0354 24.56 56.0354 23.728C56.0354 23.056 55.6994 22.768 53.9714 22.448C51.6034 22 50.8994 21.264 50.8994 19.92C50.8994 18.416 52.0674 17.328 54.1154 17.328C56.3554 17.328 57.2994 18.672 57.4754 20.048L56.0674 20.144C55.9874 19.344 55.4754 18.608 54.0834 18.608C52.8674 18.608 52.3074 19.136 52.3074 19.856C52.3074 20.688 52.7394 21.008 54.2274 21.264C56.7234 21.696 57.4434 22.384 57.4434 23.728C57.4434 25.296 56.0994 26.192 54.2274 26.192ZM62.0715 26C60.5355 26 59.8155 25.328 59.8155 23.824V18.704H58.5675V17.52H59.8155V15.536H61.1595V17.52H63.4155V18.704H61.1595V23.792C61.1595 24.56 61.4955 24.816 62.1995 24.816H63.4155V26H62.0715ZM65.3113 26V17.52H66.4953L66.5433 19.088C66.8473 18.016 67.5193 17.52 68.5593 17.52H69.3913V18.8H68.5753C67.2953 18.8 66.6553 19.488 66.6553 20.88V26H65.3113ZM73.8453 26.192C72.1493 26.192 71.0613 24.992 71.0613 22.976V17.52H72.4053V22.608C72.4053 24.256 72.9813 25.008 74.1973 25.008C75.5413 25.008 76.3573 24.096 76.3573 22.576V17.52H77.7013V26H76.4213V24.624C75.9573 25.632 75.0613 26.192 73.8453 26.192ZM83.4201 26.192C81.0521 26.192 79.5321 24.448 79.5321 21.76C79.5321 19.072 81.0521 17.328 83.4201 17.328C85.3721 17.328 86.7321 18.384 87.0201 20.272L85.6121 20.368C85.4201 19.248 84.5721 18.608 83.4201 18.608C81.8521 18.608 80.9401 19.792 80.9401 21.76C80.9401 23.728 81.8521 24.912 83.4201 24.912C84.5721 24.912 85.4201 24.272 85.6121 22.992L87.0201 23.088C86.7321 24.976 85.3721 26.192 83.4201 26.192ZM91.4621 26C89.9261 26 89.2061 25.328 89.2061 23.824V18.704H87.9581V17.52H89.2061V15.536H90.5501V17.52H92.8061V18.704H90.5501V23.792C90.5501 24.56 90.8861 24.816 91.5901 24.816H92.8061V26H91.4621ZM97.314 26.192C95.618 26.192 94.53 24.992 94.53 22.976V17.52H95.874V22.608C95.874 24.256 96.45 25.008 97.666 25.008C99.01 25.008 99.826 24.096 99.826 22.576V17.52H101.17V26H99.89V24.624C99.426 25.632 98.53 26.192 97.314 26.192ZM103.733 26V17.52H104.917L104.965 19.088C105.269 18.016 105.941 17.52 106.981 17.52H107.813V18.8H106.997C105.717 18.8 105.077 19.488 105.077 20.88V26H103.733ZM112.467 26.192C110.067 26.192 108.579 24.448 108.579 21.76C108.579 19.072 110.067 17.328 112.403 17.328C114.611 17.328 116.147 18.928 116.147 21.776V22.176H109.987C110.083 24 110.995 24.912 112.467 24.912C113.571 24.912 114.291 24.352 114.579 23.488L116.019 23.6C115.571 25.12 114.259 26.192 112.467 26.192ZM109.987 20.992H114.675C114.547 19.36 113.651 18.608 112.403 18.608C111.091 18.608 110.211 19.424 109.987 20.992ZM125.228 26C123.692 26 122.972 25.328 122.972 23.824V18.704H121.724V17.52H122.972V15.536H124.316V17.52H126.572V18.704H124.316V23.792C124.316 24.56 124.652 24.816 125.356 24.816H126.572V26H125.228ZM128.139 26V14.64H129.483V18.848C129.915 17.808 130.875 17.328 132.043 17.328C133.867 17.328 134.875 18.656 134.875 20.544V26H133.531V20.928C133.531 19.296 132.939 18.512 131.755 18.512C130.379 18.512 129.483 19.376 129.483 20.944V26H128.139ZM140.561 26.192C138.161 26.192 136.673 24.448 136.673 21.76C136.673 19.072 138.161 17.328 140.497 17.328C142.705 17.328 144.241 18.928 144.241 21.776V22.176H138.081C138.177 24 139.089 24.912 140.561 24.912C141.665 24.912 142.385 24.352 142.673 23.488L144.113 23.6C143.665 25.12 142.353 26.192 140.561 26.192ZM138.081 20.992H142.769C142.641 19.36 141.745 18.608 140.497 18.608C139.185 18.608 138.305 19.424 138.081 20.992ZM153.306 26.192C150.97 26.192 149.77 24.992 149.642 23.328L151.049 23.232C151.21 24.256 151.802 24.912 153.306 24.912C154.458 24.912 155.114 24.56 155.114 23.728C155.114 23.056 154.778 22.768 153.049 22.448C150.682 22 149.978 21.264 149.978 19.92C149.978 18.416 151.146 17.328 153.194 17.328C155.434 17.328 156.378 18.672 156.554 20.048L155.146 20.144C155.066 19.344 154.554 18.608 153.161 18.608C151.946 18.608 151.386 19.136 151.386 19.856C151.386 20.688 151.818 21.008 153.306 21.264C155.802 21.696 156.522 22.384 156.522 23.728C156.522 25.296 155.178 26.192 153.306 26.192ZM161.686 26.192C159.286 26.192 157.798 24.448 157.798 21.76C157.798 19.072 159.286 17.328 161.622 17.328C163.83 17.328 165.366 18.928 165.366 21.776V22.176H159.206C159.302 24 160.214 24.912 161.686 24.912C162.79 24.912 163.51 24.352 163.798 23.488L165.238 23.6C164.79 25.12 163.478 26.192 161.686 26.192ZM159.206 20.992H163.894C163.766 19.36 162.87 18.608 161.622 18.608C160.31 18.608 159.43 19.424 159.206 20.992ZM174.146 28.4H172.802V24.88C172.354 25.696 171.378 26.192 170.274 26.192C167.746 26.192 166.61 24.096 166.61 21.76C166.61 19.424 167.746 17.328 170.274 17.328C171.426 17.328 172.37 17.84 172.882 18.816L172.898 17.52H174.146V28.4ZM170.402 24.912C171.89 24.912 172.802 23.84 172.802 21.76C172.802 19.68 171.874 18.608 170.402 18.608C168.93 18.608 168.018 19.776 168.018 21.76C168.018 23.744 168.93 24.912 170.402 24.912ZM179.486 26.192C177.79 26.192 176.702 24.992 176.702 22.976V17.52H178.046V22.608C178.046 24.256 178.622 25.008 179.838 25.008C181.182 25.008 181.998 24.096 181.998 22.576V17.52H183.342V26H182.062V24.624C181.598 25.632 180.702 26.192 179.486 26.192ZM189.061 26.192C186.661 26.192 185.173 24.448 185.173 21.76C185.173 19.072 186.661 17.328 188.997 17.328C191.205 17.328 192.741 18.928 192.741 21.776V22.176H186.581C186.677 24 187.589 24.912 189.061 24.912C190.165 24.912 190.885 24.352 191.173 23.488L192.613 23.6C192.165 25.12 190.853 26.192 189.061 26.192ZM186.581 20.992H191.269C191.141 19.36 190.245 18.608 188.997 18.608C187.685 18.608 186.805 19.424 186.581 20.992ZM194.561 26V17.52H195.793L195.825 19.04C196.273 17.872 197.265 17.328 198.433 17.328C200.369 17.328 201.297 18.752 201.297 20.544V26H199.953V20.928C199.953 19.36 199.425 18.512 198.145 18.512C196.833 18.512 195.905 19.36 195.905 20.928V26H194.561ZM206.983 26.192C204.615 26.192 203.095 24.448 203.095 21.76C203.095 19.072 204.615 17.328 206.983 17.328C208.935 17.328 210.295 18.384 210.583 20.272L209.175 20.368C208.983 19.248 208.135 18.608 206.983 18.608C205.415 18.608 204.503 19.792 204.503 21.76C204.503 23.728 205.415 24.912 206.983 24.912C208.135 24.912 208.983 24.272 209.175 22.992L210.583 23.088C210.295 24.976 208.935 26.192 206.983 26.192ZM215.561 26.192C213.161 26.192 211.673 24.448 211.673 21.76C211.673 19.072 213.161 17.328 215.497 17.328C217.705 17.328 219.241 18.928 219.241 21.776V22.176H213.081C213.177 24 214.089 24.912 215.561 24.912C216.665 24.912 217.385 24.352 217.673 23.488L219.113 23.6C218.665 25.12 217.353 26.192 215.561 26.192ZM213.081 20.992H217.769C217.641 19.36 216.745 18.608 215.497 18.608C214.185 18.608 213.305 19.424 213.081 20.992ZM227.506 26.192C225.746 26.192 224.642 25.344 224.642 23.888C224.642 22.448 225.458 21.648 227.314 21.296L230.322 20.736C230.322 19.312 229.65 18.608 228.306 18.608C227.122 18.608 226.466 19.152 226.21 20.128L224.786 20.016C225.106 18.416 226.386 17.328 228.306 17.328C230.482 17.328 231.666 18.64 231.666 20.784V24.288C231.666 24.672 231.794 24.816 232.114 24.816H232.45V26C232.354 26.016 232.146 26.032 231.938 26.032C230.914 26.032 230.45 25.632 230.338 24.688C229.922 25.568 228.754 26.192 227.506 26.192ZM227.634 25.008C229.33 25.008 230.322 23.92 230.322 22.512V21.904L227.57 22.416C226.418 22.624 226.049 23.056 226.049 23.76C226.049 24.56 226.642 25.008 227.634 25.008ZM233.968 26V17.52H235.2L235.232 19.04C235.68 17.872 236.672 17.328 237.84 17.328C239.776 17.328 240.704 18.752 240.704 20.544V26H239.36V20.928C239.36 19.36 238.832 18.512 237.552 18.512C236.24 18.512 235.312 19.36 235.312 20.928V26H233.968ZM246.085 26.192C243.877 26.192 242.501 24.48 242.501 21.76C242.501 19.04 243.877 17.328 246.085 17.328C247.221 17.328 248.229 17.84 248.693 18.704V14.64H250.037V26H248.821L248.773 24.72C248.293 25.648 247.269 26.192 246.085 26.192ZM246.357 24.912C247.861 24.912 248.693 23.696 248.693 21.76C248.693 19.792 247.861 18.608 246.357 18.608C244.869 18.608 243.909 19.792 243.909 21.76C243.909 23.696 244.869 24.912 246.357 24.912ZM256.593 26V17.52H257.825L257.857 19.008C258.273 17.968 259.153 17.328 260.241 17.328C261.521 17.328 262.417 17.968 262.785 19.104C263.153 17.968 264.017 17.328 265.265 17.328C267.073 17.328 268.065 18.496 268.065 20.544V26H266.721V20.832C266.721 19.296 266.113 18.512 264.945 18.512C263.76 18.512 262.993 19.408 262.993 20.928V26H261.649V20.928C261.649 19.424 261.153 18.512 259.905 18.512C258.721 18.512 257.937 19.424 257.937 20.928V26H256.593ZM273.748 26.192C271.348 26.192 269.86 24.448 269.86 21.76C269.86 19.072 271.348 17.328 273.684 17.328C275.892 17.328 277.428 18.928 277.428 21.776V22.176H271.268C271.364 24 272.276 24.912 273.748 24.912C274.852 24.912 275.572 24.352 275.86 23.488L277.3 23.6C276.852 25.12 275.54 26.192 273.748 26.192ZM271.268 20.992H275.956C275.828 19.36 274.932 18.608 273.684 18.608C272.372 18.608 271.492 19.424 271.268 20.992ZM282.337 26.192C280.001 26.192 278.801 24.992 278.673 23.328L280.081 23.232C280.241 24.256 280.833 24.912 282.337 24.912C283.489 24.912 284.145 24.56 284.145 23.728C284.145 23.056 283.809 22.768 282.081 22.448C279.713 22 279.009 21.264 279.009 19.92C279.009 18.416 280.177 17.328 282.225 17.328C284.465 17.328 285.409 18.672 285.585 20.048L284.177 20.144C284.097 19.344 283.585 18.608 282.193 18.608C280.977 18.608 280.417 19.136 280.417 19.856C280.417 20.688 280.849 21.008 282.337 21.264C284.833 21.696 285.553 22.384 285.553 23.728C285.553 25.296 284.209 26.192 282.337 26.192ZM290.493 26.192C288.157 26.192 286.957 24.992 286.829 23.328L288.237 23.232C288.397 24.256 288.989 24.912 290.493 24.912C291.645 24.912 292.301 24.56 292.301 23.728C292.301 23.056 291.965 22.768 290.237 22.448C287.869 22 287.165 21.264 287.165 19.92C287.165 18.416 288.333 17.328 290.381 17.328C292.621 17.328 293.565 18.672 293.741 20.048L292.333 20.144C292.253 19.344 291.741 18.608 290.349 18.608C289.133 18.608 288.573 19.136 288.573 19.856C288.573 20.688 289.005 21.008 290.493 21.264C292.989 21.696 293.709 22.384 293.709 23.728C293.709 25.296 292.365 26.192 290.493 26.192ZM298.068 26.192C296.308 26.192 295.204 25.344 295.204 23.888C295.204 22.448 296.02 21.648 297.876 21.296L300.884 20.736C300.884 19.312 300.212 18.608 298.868 18.608C297.684 18.608 297.028 19.152 296.772 20.128L295.348 20.016C295.668 18.416 296.948 17.328 298.868 17.328C301.044 17.328 302.228 18.64 302.228 20.784V24.288C302.228 24.672 302.356 24.816 302.676 24.816H303.012V26C302.916 26.016 302.708 26.032 302.5 26.032C301.476 26.032 301.012 25.632 300.9 24.688C300.484 25.568 299.316 26.192 298.068 26.192ZM298.196 25.008C299.892 25.008 300.884 23.92 300.884 22.512V21.904L298.132 22.416C296.98 22.624 296.612 23.056 296.612 23.76C296.612 24.56 297.204 25.008 298.196 25.008ZM307.715 28.592C305.891 28.592 304.515 27.616 304.163 26.128L305.571 26.032C305.827 26.832 306.403 27.312 307.715 27.312C309.251 27.312 310.099 26.704 310.099 25.456V24.08C309.683 24.976 308.723 25.552 307.619 25.552C305.459 25.552 303.923 23.856 303.923 21.44C303.923 19.024 305.427 17.328 307.555 17.328C308.739 17.328 309.779 17.92 310.163 18.864V17.52H311.443V25.424C311.443 27.408 310.051 28.592 307.715 28.592ZM307.683 24.272C309.139 24.272 310.083 23.184 310.099 21.44C310.131 19.696 309.155 18.608 307.683 18.608C306.195 18.608 305.331 19.696 305.331 21.44C305.331 23.184 306.227 24.272 307.683 24.272ZM313.732 16.192V14.624H315.14V16.192H313.732ZM313.764 26V17.52H315.108V26H313.764ZM317.764 26V17.52H318.996L319.028 19.04C319.476 17.872 320.468 17.328 321.636 17.328C323.572 17.328 324.5 18.752 324.5 20.544V26H323.156V20.928C323.156 19.36 322.628 18.512 321.348 18.512C320.036 18.512 319.108 19.36 319.108 20.928V26H317.764ZM330.09 28.592C328.266 28.592 326.89 27.616 326.538 26.128L327.946 26.032C328.202 26.832 328.778 27.312 330.09 27.312C331.626 27.312 332.474 26.704 332.474 25.456V24.08C332.058 24.976 331.098 25.552 329.994 25.552C327.834 25.552 326.298 23.856 326.298 21.44C326.298 19.024 327.802 17.328 329.93 17.328C331.114 17.328 332.154 17.92 332.538 18.864V17.52H333.818V25.424C333.818 27.408 332.426 28.592 330.09 28.592ZM330.058 24.272C331.514 24.272 332.458 23.184 332.474 21.44C332.506 19.696 331.53 18.608 330.058 18.608C328.57 18.608 327.706 19.696 327.706 21.44C327.706 23.184 328.602 24.272 330.058 24.272Z" fill="#1E2939"/>
</svg>
