<svg width="437" height="64" viewBox="0 0 437 64" fill="none" xmlns="http://www.w3.org/2000/svg">
<rect x="0.5" y="0.5" width="436" height="63" rx="7.5" fill="#FFFEFC"/>
<rect x="0.5" y="0.5" width="436" height="63" rx="7.5" stroke="#C1C5CD"/>
<path d="M17.792 26.256C14.592 26.256 12.72 23.76 12.72 20.336C12.72 16.928 14.624 14.384 17.824 14.384C20.544 14.384 21.952 16.016 22.368 18.128L20.928 18.224C20.64 16.752 19.76 15.728 17.824 15.728C15.232 15.728 14.16 17.872 14.16 20.336C14.16 22.928 15.28 24.912 17.824 24.912C19.84 24.912 21.088 23.376 21.12 21.568H17.856V20.256H22.4V26H21.376L21.312 24.096C20.752 25.376 19.344 26.256 17.792 26.256ZM27.9514 26.192C25.5994 26.192 24.0634 24.464 24.0634 21.76C24.0634 19.056 25.5994 17.328 27.9514 17.328C30.2874 17.328 31.8234 19.056 31.8234 21.76C31.8234 24.464 30.2874 26.192 27.9514 26.192ZM27.9514 24.912C29.5034 24.912 30.4154 23.728 30.4154 21.76C30.4154 19.792 29.5034 18.608 27.9514 18.608C26.3834 18.608 25.4714 19.792 25.4714 21.76C25.4714 23.728 26.3834 24.912 27.9514 24.912ZM40.9153 26C39.3793 26 38.6593 25.328 38.6593 23.824V18.704H37.4113V17.52H38.6593V15.536H40.0033V17.52H42.2593V18.704H40.0033V23.792C40.0033 24.56 40.3393 24.816 41.0433 24.816H42.2593V26H40.9153ZM43.8269 26V14.64H45.1709V18.848C45.6029 17.808 46.5629 17.328 47.7309 17.328C49.5549 17.328 50.5629 18.656 50.5629 20.544V26H49.2189V20.928C49.2189 19.296 48.6269 18.512 47.4429 18.512C46.0669 18.512 45.1709 19.376 45.1709 20.944V26H43.8269ZM52.8113 26V17.52H53.9953L54.0433 19.088C54.3473 18.016 55.0193 17.52 56.0593 17.52H56.8913V18.8H56.0753C54.7953 18.8 54.1553 19.488 54.1553 20.88V26H52.8113ZM61.5451 26.192C59.1931 26.192 57.6571 24.464 57.6571 21.76C57.6571 19.056 59.1931 17.328 61.5451 17.328C63.8811 17.328 65.4171 19.056 65.4171 21.76C65.4171 24.464 63.8811 26.192 61.5451 26.192ZM61.5451 24.912C63.0971 24.912 64.0091 23.728 64.0091 21.76C64.0091 19.792 63.0971 18.608 61.5451 18.608C59.9771 18.608 59.0651 19.792 59.0651 21.76C59.0651 23.728 59.9771 24.912 61.5451 24.912ZM70.0328 26.192C68.3368 26.192 67.2488 24.992 67.2488 22.976V17.52H68.5928V22.608C68.5928 24.256 69.1688 25.008 70.3848 25.008C71.7288 25.008 72.5448 24.096 72.5448 22.576V17.52H73.8888V26H72.6088V24.624C72.1448 25.632 71.2488 26.192 70.0328 26.192ZM79.5116 28.592C77.6876 28.592 76.3116 27.616 75.9596 26.128L77.3676 26.032C77.6236 26.832 78.1996 27.312 79.5116 27.312C81.0476 27.312 81.8956 26.704 81.8956 25.456V24.08C81.4796 24.976 80.5196 25.552 79.4156 25.552C77.2556 25.552 75.7196 23.856 75.7196 21.44C75.7196 19.024 77.2236 17.328 79.3516 17.328C80.5356 17.328 81.5756 17.92 81.9596 18.864V17.52H83.2396V25.424C83.2396 27.408 81.8476 28.592 79.5116 28.592ZM79.4796 24.272C80.9356 24.272 81.8796 23.184 81.8956 21.44C81.9276 19.696 80.9516 18.608 79.4796 18.608C77.9916 18.608 77.1276 19.696 77.1276 21.44C77.1276 23.184 78.0236 24.272 79.4796 24.272ZM85.5613 26V14.64H86.9053V18.848C87.3373 17.808 88.2973 17.328 89.4653 17.328C91.2893 17.328 92.2973 18.656 92.2973 20.544V26H90.9533V20.928C90.9533 19.296 90.3613 18.512 89.1773 18.512C87.8013 18.512 86.9053 19.376 86.9053 20.944V26H85.5613ZM98.8581 26V17.52H100.09L100.122 19.008C100.538 17.968 101.418 17.328 102.506 17.328C103.786 17.328 104.682 17.968 105.05 19.104C105.418 17.968 106.282 17.328 107.53 17.328C109.338 17.328 110.33 18.496 110.33 20.544V26H108.986V20.832C108.986 19.296 108.378 18.512 107.21 18.512C106.026 18.512 105.258 19.408 105.258 20.928V26H103.914V20.928C103.914 19.424 103.418 18.512 102.17 18.512C100.986 18.512 100.202 19.424 100.202 20.928V26H98.8581ZM112.711 28.4V27.216H113.687C114.279 27.216 114.519 27.04 114.679 26.64L114.983 25.84H114.519L111.415 17.52H112.887L115.415 24.592L117.831 17.52H119.303L115.863 27.072C115.543 27.984 114.951 28.4 113.815 28.4H112.711ZM124.904 16.192V14.624H126.312V16.192H124.904ZM124.936 26V17.52H126.28V26H124.936ZM128.936 26V17.52H130.168L130.2 19.04C130.648 17.872 131.64 17.328 132.808 17.328C134.744 17.328 135.672 18.752 135.672 20.544V26H134.328V20.928C134.328 19.36 133.8 18.512 132.52 18.512C131.208 18.512 130.28 19.36 130.28 20.928V26H128.936ZM142.027 26.192C140.843 26.192 139.883 25.648 139.403 24.72L139.355 26H138.139V14.64H139.483V18.704C139.899 18 140.843 17.328 142.027 17.328C144.267 17.328 145.675 19.04 145.675 21.76C145.675 24.48 144.267 26.192 142.027 26.192ZM141.947 24.912C143.371 24.912 144.267 23.696 144.267 21.76C144.267 19.792 143.371 18.608 141.979 18.608C140.411 18.608 139.483 19.792 139.483 21.76C139.483 23.696 140.411 24.912 141.947 24.912ZM150.811 26.192C148.459 26.192 146.923 24.464 146.923 21.76C146.923 19.056 148.459 17.328 150.811 17.328C153.147 17.328 154.683 19.056 154.683 21.76C154.683 24.464 153.147 26.192 150.811 26.192ZM150.811 24.912C152.363 24.912 153.275 23.728 153.275 21.76C153.275 19.792 152.363 18.608 150.811 18.608C149.243 18.608 148.331 19.792 148.331 21.76C148.331 23.728 149.243 24.912 150.811 24.912ZM155.346 26L158.466 21.648L155.506 17.52H157.074L159.298 20.72L161.458 17.52H163.058L160.13 21.68L163.202 26H161.634L159.298 22.576L156.946 26H155.346ZM171.521 26.192C169.761 26.192 168.657 25.344 168.657 23.888C168.657 22.448 169.473 21.648 171.329 21.296L174.337 20.736C174.337 19.312 173.665 18.608 172.321 18.608C171.137 18.608 170.481 19.152 170.225 20.128L168.801 20.016C169.121 18.416 170.401 17.328 172.321 17.328C174.497 17.328 175.681 18.64 175.681 20.784V24.288C175.681 24.672 175.809 24.816 176.129 24.816H176.465V26C176.369 26.016 176.161 26.032 175.953 26.032C174.929 26.032 174.465 25.632 174.353 24.688C173.937 25.568 172.769 26.192 171.521 26.192ZM171.649 25.008C173.345 25.008 174.337 23.92 174.337 22.512V21.904L171.585 22.416C170.433 22.624 170.065 23.056 170.065 23.76C170.065 24.56 170.657 25.008 171.649 25.008ZM177.983 26V17.52H179.215L179.247 19.04C179.695 17.872 180.687 17.328 181.855 17.328C183.791 17.328 184.719 18.752 184.719 20.544V26H183.375V20.928C183.375 19.36 182.847 18.512 181.567 18.512C180.255 18.512 179.327 19.36 179.327 20.928V26H177.983ZM190.101 26.192C187.893 26.192 186.517 24.48 186.517 21.76C186.517 19.04 187.893 17.328 190.101 17.328C191.237 17.328 192.245 17.84 192.709 18.704V14.64H194.053V26H192.837L192.789 24.72C192.309 25.648 191.285 26.192 190.101 26.192ZM190.373 24.912C191.877 24.912 192.709 23.696 192.709 21.76C192.709 19.792 191.877 18.608 190.373 18.608C188.885 18.608 187.924 19.792 187.924 21.76C187.924 23.696 188.885 24.912 190.373 24.912ZM206.256 16.192V14.624H207.664V16.192H206.256ZM201.44 26V18.704H200.288V17.52H201.44V16.752C201.44 15.504 202.144 14.64 203.68 14.64H205.024V15.824H203.776C203.104 15.824 202.784 16.208 202.784 16.848V17.52H204.912V18.704H202.784V26H201.44ZM206.288 26V17.52H207.632V26H206.288ZM210.28 26V17.52H211.512L211.544 19.04C211.992 17.872 212.984 17.328 214.152 17.328C216.088 17.328 217.016 18.752 217.016 20.544V26H215.672V20.928C215.672 19.36 215.144 18.512 213.864 18.512C212.552 18.512 211.624 19.36 211.624 20.928V26H210.28ZM222.397 26.192C220.189 26.192 218.813 24.48 218.813 21.76C218.813 19.04 220.189 17.328 222.397 17.328C223.533 17.328 224.541 17.84 225.005 18.704V14.64H226.349V26H225.133L225.085 24.72C224.605 25.648 223.581 26.192 222.397 26.192ZM222.669 24.912C224.173 24.912 225.005 23.696 225.005 21.76C225.005 19.792 224.173 18.608 222.669 18.608C221.181 18.608 220.221 19.792 220.221 21.76C220.221 23.696 221.181 24.912 222.669 24.912ZM236.217 26.192C233.817 26.192 232.329 24.448 232.329 21.76C232.329 19.072 233.817 17.328 236.153 17.328C238.361 17.328 239.897 18.928 239.897 21.776V22.176H233.737C233.833 24 234.745 24.912 236.217 24.912C237.321 24.912 238.041 24.352 238.329 23.488L239.769 23.6C239.321 25.12 238.009 26.192 236.217 26.192ZM233.737 20.992H238.425C238.297 19.36 237.401 18.608 236.153 18.608C234.841 18.608 233.961 19.424 233.737 20.992ZM243.628 26L240.54 17.52H242.012L244.476 24.624L246.94 17.52H248.411L245.324 26H243.628ZM252.936 26.192C250.536 26.192 249.048 24.448 249.048 21.76C249.048 19.072 250.536 17.328 252.872 17.328C255.08 17.328 256.616 18.928 256.616 21.776V22.176H250.456C250.552 24 251.464 24.912 252.936 24.912C254.04 24.912 254.76 24.352 255.048 23.488L256.488 23.6C256.04 25.12 254.728 26.192 252.936 26.192ZM250.456 20.992H255.144C255.016 19.36 254.12 18.608 252.872 18.608C251.56 18.608 250.68 19.424 250.456 20.992ZM258.436 26V17.52H259.62L259.668 19.088C259.972 18.016 260.644 17.52 261.684 17.52H262.516V18.8H261.7C260.42 18.8 259.78 19.488 259.78 20.88V26H258.436ZM264.461 28.4V27.216H265.437C266.029 27.216 266.269 27.04 266.429 26.64L266.733 25.84H266.269L263.165 17.52H264.637L267.165 24.592L269.581 17.52H271.053L267.613 27.072C267.293 27.984 266.701 28.4 265.565 28.4H264.461ZM279.838 26L275.726 14.64H277.23L280.75 24.496L284.254 14.64H285.758L281.646 26H279.838ZM291.418 26.256C288.378 26.256 286.314 24.016 286.314 20.336C286.314 16.656 288.378 14.384 291.418 14.384C294.17 14.384 295.626 15.872 296.106 18.256L294.65 18.352C294.33 16.736 293.306 15.728 291.418 15.728C289.242 15.728 287.754 17.456 287.754 20.336C287.754 23.216 289.242 24.912 291.418 24.912C293.402 24.912 294.458 23.808 294.746 22.032L296.202 22.128C295.786 24.592 294.138 26.256 291.418 26.256ZM302.316 26V14.64H303.692V26H302.316ZM305.924 18.944L306.692 16.448H305.876V14.64H307.684V16.224L306.724 18.944H305.924ZM311.846 26L308.758 17.52H310.23L312.694 24.624L315.158 17.52H316.63L313.542 26H311.846ZM321.155 26.192C318.755 26.192 317.267 24.448 317.267 21.76C317.267 19.072 318.755 17.328 321.091 17.328C323.299 17.328 324.835 18.928 324.835 21.776V22.176H318.674C318.771 24 319.683 24.912 321.155 24.912C322.259 24.912 322.979 24.352 323.267 23.488L324.707 23.6C324.259 25.12 322.947 26.192 321.155 26.192ZM318.674 20.992H323.363C323.235 19.36 322.339 18.608 321.091 18.608C319.779 18.608 318.899 19.424 318.674 20.992ZM333.899 26.192C331.563 26.192 330.363 24.992 330.235 23.328L331.643 23.232C331.803 24.256 332.395 24.912 333.899 24.912C335.051 24.912 335.707 24.56 335.707 23.728C335.707 23.056 335.371 22.768 333.643 22.448C331.275 22 330.571 21.264 330.571 19.92C330.571 18.416 331.739 17.328 333.787 17.328C336.027 17.328 336.971 18.672 337.147 20.048L335.739 20.144C335.659 19.344 335.147 18.608 333.755 18.608C332.539 18.608 331.979 19.136 331.979 19.856C331.979 20.688 332.411 21.008 333.899 21.264C336.395 21.696 337.115 22.384 337.115 23.728C337.115 25.296 335.771 26.192 333.899 26.192ZM338.968 28.4V17.52H340.216L340.232 18.816C340.744 17.84 341.688 17.328 342.84 17.328C345.368 17.328 346.503 19.424 346.503 21.76C346.503 24.096 345.368 26.192 342.84 26.192C341.736 26.192 340.76 25.696 340.312 24.88V28.4H338.968ZM342.712 24.912C344.184 24.912 345.096 23.744 345.096 21.76C345.096 19.776 344.184 18.608 342.712 18.608C341.24 18.608 340.312 19.68 340.312 21.76C340.312 23.84 341.224 24.912 342.712 24.912ZM351.639 26.192C349.287 26.192 347.751 24.464 347.751 21.76C347.751 19.056 349.287 17.328 351.639 17.328C353.975 17.328 355.511 19.056 355.511 21.76C355.511 24.464 353.975 26.192 351.639 26.192ZM351.639 24.912C353.191 24.912 354.103 23.728 354.103 21.76C354.103 19.792 353.191 18.608 351.639 18.608C350.071 18.608 349.159 19.792 349.159 21.76C349.159 23.728 350.071 24.912 351.639 24.912ZM357.343 26V14.64H358.687V22.08L362.815 17.52H364.607L361.263 21.12L364.751 26H363.119L360.351 22.032L358.687 23.792V26H357.343ZM369.295 26.192C366.895 26.192 365.407 24.448 365.407 21.76C365.407 19.072 366.895 17.328 369.231 17.328C371.439 17.328 372.975 18.928 372.975 21.776V22.176H366.815C366.911 24 367.823 24.912 369.295 24.912C370.399 24.912 371.119 24.352 371.407 23.488L372.847 23.6C372.399 25.12 371.087 26.192 369.295 26.192ZM366.815 20.992H371.503C371.375 19.36 370.479 18.608 369.231 18.608C367.919 18.608 367.039 19.424 366.815 20.992ZM374.796 26V17.52H376.028L376.06 19.04C376.508 17.872 377.5 17.328 378.668 17.328C380.604 17.328 381.532 18.752 381.532 20.544V26H380.188V20.928C380.188 19.36 379.66 18.512 378.38 18.512C377.068 18.512 376.14 19.36 376.14 20.928V26H374.796ZM391.197 26C389.661 26 388.941 25.328 388.941 23.824V18.704H387.693V17.52H388.941V15.536H390.285V17.52H392.541V18.704H390.285V23.792C390.285 24.56 390.621 24.816 391.325 24.816H392.541V26H391.197ZM397.42 26.192C395.068 26.192 393.532 24.464 393.532 21.76C393.532 19.056 395.068 17.328 397.42 17.328C399.756 17.328 401.292 19.056 401.292 21.76C401.292 24.464 399.756 26.192 397.42 26.192ZM397.42 24.912C398.972 24.912 399.884 23.728 399.884 21.76C399.884 19.792 398.972 18.608 397.42 18.608C395.852 18.608 394.94 19.792 394.94 21.76C394.94 23.728 395.852 24.912 397.42 24.912ZM402.704 26V24.192H404.512V26H402.704ZM12.32 50L16.416 38.64H18.272L22.368 50H20.864L19.728 46.768H14.96L13.824 50H12.32ZM15.424 45.424H19.264L17.344 39.84L15.424 45.424ZM26.6943 50.192C24.4863 50.192 23.1103 48.48 23.1103 45.76C23.1103 43.04 24.4863 41.328 26.6943 41.328C27.8303 41.328 28.8383 41.84 29.3023 42.704V38.64H30.6463V50H29.4303L29.3823 48.72C28.9023 49.648 27.8783 50.192 26.6943 50.192ZM26.9663 48.912C28.4703 48.912 29.3023 47.696 29.3023 45.76C29.3023 43.792 28.4703 42.608 26.9663 42.608C25.4783 42.608 24.5182 43.792 24.5182 45.76C24.5182 47.696 25.4783 48.912 26.9663 48.912ZM36.0536 50.192C33.8456 50.192 32.4696 48.48 32.4696 45.76C32.4696 43.04 33.8456 41.328 36.0536 41.328C37.1896 41.328 38.1976 41.84 38.6616 42.704V38.64H40.0056V50H38.7896L38.7416 48.72C38.2616 49.648 37.2376 50.192 36.0536 50.192ZM36.3256 48.912C37.8296 48.912 38.6616 47.696 38.6616 45.76C38.6616 43.792 37.8296 42.608 36.3256 42.608C34.8376 42.608 33.8776 43.792 33.8776 45.76C33.8776 47.696 34.8376 48.912 36.3256 48.912ZM49.6653 50C48.1293 50 47.4093 49.328 47.4093 47.824V42.704H46.1613V41.52H47.4093V39.536H48.7533V41.52H51.0093V42.704H48.7533V47.792C48.7533 48.56 49.0893 48.816 49.7933 48.816H51.0093V50H49.6653ZM52.5769 50V38.64H53.9209V42.848C54.3529 41.808 55.3129 41.328 56.4809 41.328C58.3049 41.328 59.3129 42.656 59.3129 44.544V50H57.9689V44.928C57.9689 43.296 57.3769 42.512 56.1929 42.512C54.8169 42.512 53.9209 43.376 53.9209 44.944V50H52.5769ZM64.9983 50.192C62.5983 50.192 61.1103 48.448 61.1103 45.76C61.1103 43.072 62.5983 41.328 64.9343 41.328C67.1423 41.328 68.6783 42.928 68.6783 45.776V46.176H62.5182C62.6143 48 63.5263 48.912 64.9983 48.912C66.1023 48.912 66.8223 48.352 67.1103 47.488L68.5503 47.6C68.1023 49.12 66.7903 50.192 64.9983 50.192ZM62.5182 44.992H67.2063C67.0783 43.36 66.1823 42.608 64.9343 42.608C63.6223 42.608 62.7423 43.424 62.5182 44.992ZM70.4988 50V41.52H71.7308L71.7628 43.008C72.1788 41.968 73.0588 41.328 74.1468 41.328C75.4268 41.328 76.3228 41.968 76.6908 43.104C77.0588 41.968 77.9228 41.328 79.1708 41.328C80.9788 41.328 81.9708 42.496 81.9708 44.544V50H80.6268V44.832C80.6268 43.296 80.0188 42.512 78.8508 42.512C77.6667 42.512 76.8988 43.408 76.8988 44.928V50H75.5548V44.928C75.5548 43.424 75.0588 42.512 73.8108 42.512C72.6268 42.512 71.8428 43.424 71.8428 44.928V50H70.4988ZM91.634 50C90.098 50 89.378 49.328 89.378 47.824V42.704H88.13V41.52H89.378V39.536H90.722V41.52H92.978V42.704H90.722V47.792C90.722 48.56 91.058 48.816 91.762 48.816H92.978V50H91.634ZM97.8576 50.192C95.5056 50.192 93.9696 48.464 93.9696 45.76C93.9696 43.056 95.5056 41.328 97.8576 41.328C100.194 41.328 101.73 43.056 101.73 45.76C101.73 48.464 100.194 50.192 97.8576 50.192ZM97.8576 48.912C99.4096 48.912 100.322 47.728 100.322 45.76C100.322 43.792 99.4096 42.608 97.8576 42.608C96.2896 42.608 95.3776 43.792 95.3776 45.76C95.3776 47.728 96.2896 48.912 97.8576 48.912ZM110.006 50.192C108.246 50.192 107.142 49.344 107.142 47.888C107.142 46.448 107.958 45.648 109.814 45.296L112.822 44.736C112.822 43.312 112.15 42.608 110.806 42.608C109.622 42.608 108.966 43.152 108.71 44.128L107.286 44.016C107.606 42.416 108.886 41.328 110.806 41.328C112.982 41.328 114.166 42.64 114.166 44.784V48.288C114.166 48.672 114.294 48.816 114.614 48.816H114.95V50C114.854 50.016 114.646 50.032 114.438 50.032C113.414 50.032 112.95 49.632 112.838 48.688C112.422 49.568 111.254 50.192 110.006 50.192ZM110.134 49.008C111.83 49.008 112.822 47.92 112.822 46.512V45.904L110.07 46.416C108.918 46.624 108.549 47.056 108.549 47.76C108.549 48.56 109.142 49.008 110.134 49.008ZM122.194 50C121.202 50 120.53 49.52 120.53 48.4V38.64H121.874V48.288C121.874 48.64 122.05 48.816 122.402 48.816H123.138V50H122.194ZM124.639 40.192V38.624H126.047V40.192H124.639ZM124.671 50V41.52H126.015V50H124.671ZM131.509 50.192C129.173 50.192 127.973 48.992 127.845 47.328L129.253 47.232C129.413 48.256 130.005 48.912 131.509 48.912C132.661 48.912 133.317 48.56 133.317 47.728C133.317 47.056 132.981 46.768 131.253 46.448C128.885 46 128.181 45.264 128.181 43.92C128.181 42.416 129.349 41.328 131.397 41.328C133.637 41.328 134.581 42.672 134.757 44.048L133.349 44.144C133.269 43.344 132.757 42.608 131.365 42.608C130.149 42.608 129.589 43.136 129.589 43.856C129.589 44.688 130.021 45.008 131.509 45.264C134.005 45.696 134.725 46.384 134.725 47.728C134.725 49.296 133.381 50.192 131.509 50.192ZM139.353 50C137.817 50 137.097 49.328 137.097 47.824V42.704H135.849V41.52H137.097V39.536H138.441V41.52H140.697V42.704H138.441V47.792C138.441 48.56 138.777 48.816 139.481 48.816H140.697V50H139.353ZM148.21 50L145.586 41.52H147.058L149.042 48.592L151.058 41.52H152.498L154.514 48.592L156.514 41.52H157.986L155.362 50H153.666L151.778 43.552L149.89 50H148.21ZM159.436 40.192V38.624H160.844V40.192H159.436ZM159.468 50V41.52H160.812V50H159.468ZM165.837 50C164.301 50 163.581 49.328 163.581 47.824V42.704H162.333V41.52H163.581V39.536H164.925V41.52H167.181V42.704H164.925V47.792C164.925 48.56 165.261 48.816 165.965 48.816H167.181V50H165.837ZM168.749 50V38.64H170.093V42.848C170.525 41.808 171.485 41.328 172.653 41.328C174.477 41.328 175.485 42.656 175.485 44.544V50H174.141V44.928C174.141 43.296 173.549 42.512 172.365 42.512C170.989 42.512 170.093 43.376 170.093 44.944V50H168.749ZM185.15 50C183.614 50 182.894 49.328 182.894 47.824V42.704H181.646V41.52H182.894V39.536H184.238V41.52H186.494V42.704H184.238V47.792C184.238 48.56 184.574 48.816 185.278 48.816H186.494V50H185.15ZM188.061 50V38.64H189.405V42.848C189.837 41.808 190.797 41.328 191.965 41.328C193.789 41.328 194.797 42.656 194.797 44.544V50H193.453V44.928C193.453 43.296 192.861 42.512 191.677 42.512C190.301 42.512 189.405 43.376 189.405 44.944V50H188.061ZM200.483 50.192C198.083 50.192 196.595 48.448 196.595 45.76C196.595 43.072 198.083 41.328 200.419 41.328C202.627 41.328 204.163 42.928 204.163 45.776V46.176H198.003C198.099 48 199.011 48.912 200.483 48.912C201.587 48.912 202.307 48.352 202.595 47.488L204.035 47.6C203.587 49.12 202.275 50.192 200.483 50.192ZM198.003 44.992H202.691C202.563 43.36 201.667 42.608 200.419 42.608C199.107 42.608 198.227 43.424 198.003 44.992ZM205.951 40.192V38.624H207.359V40.192H205.951ZM205.983 50V41.52H207.327V50H205.983ZM209.983 50V41.52H211.167L211.215 43.088C211.519 42.016 212.191 41.52 213.231 41.52H214.063V42.8H213.247C211.967 42.8 211.327 43.488 211.327 44.88V50H209.983ZM223.358 50.192C220.99 50.192 219.47 48.448 219.47 45.76C219.47 43.072 220.99 41.328 223.358 41.328C225.31 41.328 226.67 42.384 226.958 44.272L225.55 44.368C225.358 43.248 224.51 42.608 223.358 42.608C221.79 42.608 220.878 43.792 220.878 45.76C220.878 47.728 221.79 48.912 223.358 48.912C224.51 48.912 225.358 48.272 225.55 46.992L226.958 47.088C226.67 48.976 225.31 50.192 223.358 50.192ZM231.408 50.192C229.712 50.192 228.624 48.992 228.624 46.976V41.52H229.968V46.608C229.968 48.256 230.544 49.008 231.76 49.008C233.104 49.008 233.92 48.096 233.92 46.576V41.52H235.264V50H233.984V48.624C233.52 49.632 232.624 50.192 231.408 50.192ZM237.827 50V41.52H239.011L239.059 43.088C239.363 42.016 240.035 41.52 241.075 41.52H241.907V42.8H241.091C239.811 42.8 239.171 43.488 239.171 44.88V50H237.827ZM243.249 50V41.52H244.433L244.481 43.088C244.785 42.016 245.457 41.52 246.497 41.52H247.329V42.8H246.513C245.233 42.8 244.593 43.488 244.593 44.88V50H243.249ZM251.983 50.192C249.583 50.192 248.095 48.448 248.095 45.76C248.095 43.072 249.583 41.328 251.919 41.328C254.127 41.328 255.663 42.928 255.663 45.776V46.176H249.503C249.599 48 250.511 48.912 251.983 48.912C253.087 48.912 253.807 48.352 254.095 47.488L255.535 47.6C255.087 49.12 253.775 50.192 251.983 50.192ZM249.503 44.992H254.191C254.063 43.36 253.167 42.608 251.919 42.608C250.607 42.608 249.727 43.424 249.503 44.992ZM257.483 50V41.52H258.715L258.747 43.04C259.195 41.872 260.187 41.328 261.355 41.328C263.291 41.328 264.219 42.752 264.219 44.544V50H262.875V44.928C262.875 43.36 262.347 42.512 261.067 42.512C259.755 42.512 258.827 43.36 258.827 44.928V50H257.483ZM269.243 50C267.707 50 266.987 49.328 266.987 47.824V42.704H265.739V41.52H266.987V39.536H268.331V41.52H270.587V42.704H268.331V47.792C268.331 48.56 268.667 48.816 269.371 48.816H270.587V50H269.243ZM282.053 40.192V38.624H283.461V40.192H282.053ZM277.237 50V42.704H276.085V41.52H277.237V40.752C277.237 39.504 277.941 38.64 279.477 38.64H280.821V39.824H279.573C278.901 39.824 278.581 40.208 278.581 40.848V41.52H280.709V42.704H278.581V50H277.237ZM282.085 50V41.52H283.429V50H282.085ZM286.077 50V41.52H287.261L287.309 43.088C287.613 42.016 288.285 41.52 289.325 41.52H290.157V42.8H289.341C288.061 42.8 287.421 43.488 287.421 44.88V50H286.077ZM291.499 50V41.52H292.731L292.763 43.008C293.179 41.968 294.059 41.328 295.147 41.328C296.427 41.328 297.323 41.968 297.691 43.104C298.059 41.968 298.923 41.328 300.171 41.328C301.979 41.328 302.971 42.496 302.971 44.544V50H301.627V44.832C301.627 43.296 301.019 42.512 299.851 42.512C298.667 42.512 297.899 43.408 297.899 44.928V50H296.555V44.928C296.555 43.424 296.059 42.512 294.811 42.512C293.627 42.512 292.843 43.424 292.843 44.928V50H291.499ZM304.954 50V48.192H306.762V50H304.954Z" fill="#1E2939"/>
</svg>
