<svg width="388" height="40" viewBox="0 0 388 40" fill="none" xmlns="http://www.w3.org/2000/svg">
<rect x="0.5" y="0.5" width="387" height="39" rx="7.5" fill="url(#paint0_linear_6908_39495)"/>
<rect x="0.5" y="0.5" width="387" height="39" rx="7.5" stroke="#BF69A6"/>
<path d="M15.6 26L12.608 14.64H14.112L16.448 24.112L18.768 14.64H20.336L22.672 24.112L24.992 14.64H26.512L23.52 26H21.792L19.552 17.2L17.312 26H15.6ZM31.0764 26.192C28.6764 26.192 27.1884 24.448 27.1884 21.76C27.1884 19.072 28.6764 17.328 31.0124 17.328C33.2204 17.328 34.7564 18.928 34.7564 21.776V22.176H28.5964C28.6924 24 29.6044 24.912 31.0764 24.912C32.1804 24.912 32.9004 24.352 33.1884 23.488L34.6284 23.6C34.1804 25.12 32.8684 26.192 31.0764 26.192ZM28.5964 20.992H33.2844C33.1564 19.36 32.2604 18.608 31.0124 18.608C29.7004 18.608 28.8204 19.424 28.5964 20.992ZM38.319 26C37.327 26 36.655 25.52 36.655 24.4V14.64H37.999V24.288C37.999 24.64 38.175 24.816 38.527 24.816H39.263V26H38.319ZM44.1389 26.192C41.7709 26.192 40.2509 24.448 40.2509 21.76C40.2509 19.072 41.7709 17.328 44.1389 17.328C46.0909 17.328 47.4509 18.384 47.7389 20.272L46.3309 20.368C46.1389 19.248 45.2909 18.608 44.1389 18.608C42.5709 18.608 41.6589 19.792 41.6589 21.76C41.6589 23.728 42.5709 24.912 44.1389 24.912C45.2909 24.912 46.1389 24.272 46.3309 22.992L47.7389 23.088C47.4509 24.976 46.0909 26.192 44.1389 26.192ZM52.717 26.192C50.365 26.192 48.829 24.464 48.829 21.76C48.829 19.056 50.365 17.328 52.717 17.328C55.053 17.328 56.589 19.056 56.589 21.76C56.589 24.464 55.053 26.192 52.717 26.192ZM52.717 24.912C54.269 24.912 55.181 23.728 55.181 21.76C55.181 19.792 54.269 18.608 52.717 18.608C51.149 18.608 50.237 19.792 50.237 21.76C50.237 23.728 51.149 24.912 52.717 24.912ZM58.4206 26V17.52H59.6526L59.6846 19.008C60.1006 17.968 60.9806 17.328 62.0686 17.328C63.3486 17.328 64.2446 17.968 64.6126 19.104C64.9806 17.968 65.8446 17.328 67.0926 17.328C68.9006 17.328 69.8926 18.496 69.8926 20.544V26H68.5486V20.832C68.5486 19.296 67.9406 18.512 66.7726 18.512C65.5886 18.512 64.8206 19.408 64.8206 20.928V26H63.4766V20.928C63.4766 19.424 62.9806 18.512 61.7326 18.512C60.5486 18.512 59.7646 19.424 59.7646 20.928V26H58.4206ZM75.5764 26.192C73.1764 26.192 71.6884 24.448 71.6884 21.76C71.6884 19.072 73.1764 17.328 75.5124 17.328C77.7204 17.328 79.2564 18.928 79.2564 21.776V22.176H73.0964C73.1924 24 74.1044 24.912 75.5764 24.912C76.6804 24.912 77.4004 24.352 77.6884 23.488L79.1284 23.6C78.6804 25.12 77.3684 26.192 75.5764 26.192ZM73.0964 20.992H77.7844C77.6564 19.36 76.7604 18.608 75.5124 18.608C74.2004 18.608 73.3204 19.424 73.0964 20.992ZM85.4251 26V14.64H89.5051C92.0331 14.64 93.5211 15.92 93.5211 18.08C93.5211 20.272 92.0331 21.584 89.5051 21.584H86.8011V26H85.4251ZM86.8011 20.24H89.5051C91.2171 20.24 92.0811 19.504 92.0811 18.08C92.0811 16.688 91.2171 15.984 89.5051 15.984H86.8011V20.24ZM95.2949 16.192V14.624H96.7029V16.192H95.2949ZM95.3269 26V17.52H96.6709V26H95.3269ZM102.389 26.192C100.021 26.192 98.5009 24.448 98.5009 21.76C98.5009 19.072 100.021 17.328 102.389 17.328C104.341 17.328 105.701 18.384 105.989 20.272L104.581 20.368C104.389 19.248 103.541 18.608 102.389 18.608C100.821 18.608 99.9089 19.792 99.9089 21.76C99.9089 23.728 100.821 24.912 102.389 24.912C103.541 24.912 104.389 24.272 104.581 22.992L105.989 23.088C105.701 24.976 104.341 26.192 102.389 26.192ZM107.655 26V14.64H108.999V22.08L113.127 17.52H114.919L111.575 21.12L115.063 26H113.431L110.663 22.032L108.999 23.792V26H107.655ZM119.564 26.192C117.868 26.192 116.78 24.992 116.78 22.976V17.52H118.124V22.608C118.124 24.256 118.7 25.008 119.916 25.008C121.26 25.008 122.076 24.096 122.076 22.576V17.52H123.42V26H122.14V24.624C121.676 25.632 120.78 26.192 119.564 26.192ZM125.983 28.4V17.52H127.231L127.247 18.816C127.759 17.84 128.703 17.328 129.855 17.328C132.383 17.328 133.519 19.424 133.519 21.76C133.519 24.096 132.383 26.192 129.855 26.192C128.751 26.192 127.775 25.696 127.327 24.88V28.4H125.983ZM129.727 24.912C131.199 24.912 132.111 23.744 132.111 21.76C132.111 19.776 131.199 18.608 129.727 18.608C128.255 18.608 127.327 19.68 127.327 21.76C127.327 23.84 128.239 24.912 129.727 24.912ZM138.431 26.192C136.095 26.192 134.895 24.992 134.767 23.328L136.174 23.232C136.335 24.256 136.927 24.912 138.431 24.912C139.583 24.912 140.239 24.56 140.239 23.728C140.239 23.056 139.903 22.768 138.174 22.448C135.807 22 135.103 21.264 135.103 19.92C135.103 18.416 136.271 17.328 138.319 17.328C140.559 17.328 141.503 18.672 141.679 20.048L140.271 20.144C140.191 19.344 139.679 18.608 138.286 18.608C137.071 18.608 136.511 19.136 136.511 19.856C136.511 20.688 136.943 21.008 138.431 21.264C140.927 21.696 141.647 22.384 141.647 23.728C141.647 25.296 140.303 26.192 138.431 26.192ZM147.655 26V14.64H148.999V18.848C149.431 17.808 150.391 17.328 151.559 17.328C153.383 17.328 154.391 18.656 154.391 20.544V26H153.047V20.928C153.047 19.296 152.455 18.512 151.271 18.512C149.895 18.512 148.999 19.376 148.999 20.944V26H147.655ZM159.084 26.192C157.324 26.192 156.22 25.344 156.22 23.888C156.22 22.448 157.036 21.648 158.892 21.296L161.9 20.736C161.9 19.312 161.228 18.608 159.884 18.608C158.7 18.608 158.044 19.152 157.788 20.128L156.364 20.016C156.684 18.416 157.964 17.328 159.884 17.328C162.06 17.328 163.244 18.64 163.244 20.784V24.288C163.244 24.672 163.372 24.816 163.692 24.816H164.028V26C163.932 26.016 163.724 26.032 163.516 26.032C162.492 26.032 162.028 25.632 161.916 24.688C161.5 25.568 160.332 26.192 159.084 26.192ZM159.212 25.008C160.908 25.008 161.9 23.92 161.9 22.512V21.904L159.148 22.416C157.996 22.624 157.628 23.056 157.628 23.76C157.628 24.56 158.22 25.008 159.212 25.008ZM168.602 26.192C166.266 26.192 165.066 24.992 164.938 23.328L166.346 23.232C166.506 24.256 167.098 24.912 168.602 24.912C169.754 24.912 170.41 24.56 170.41 23.728C170.41 23.056 170.074 22.768 168.346 22.448C165.978 22 165.274 21.264 165.274 19.92C165.274 18.416 166.442 17.328 168.49 17.328C170.73 17.328 171.674 18.672 171.85 20.048L170.442 20.144C170.362 19.344 169.85 18.608 168.458 18.608C167.242 18.608 166.682 19.136 166.682 19.856C166.682 20.688 167.114 21.008 168.602 21.264C171.098 21.696 171.818 22.384 171.818 23.728C171.818 25.296 170.474 26.192 168.602 26.192ZM181.043 28.592C179.219 28.592 177.843 27.616 177.491 26.128L178.899 26.032C179.155 26.832 179.731 27.312 181.043 27.312C182.579 27.312 183.427 26.704 183.427 25.456V24.08C183.011 24.976 182.051 25.552 180.947 25.552C178.787 25.552 177.251 23.856 177.251 21.44C177.251 19.024 178.755 17.328 180.883 17.328C182.067 17.328 183.107 17.92 183.491 18.864V17.52H184.771V25.424C184.771 27.408 183.379 28.592 181.043 28.592ZM181.011 24.272C182.467 24.272 183.411 23.184 183.427 21.44C183.459 19.696 182.483 18.608 181.011 18.608C179.523 18.608 178.659 19.696 178.659 21.44C178.659 23.184 179.555 24.272 181.011 24.272ZM187.061 16.192V14.624H188.469V16.192H187.061ZM187.093 26V17.52H188.437V26H187.093ZM193.003 26L189.915 17.52H191.387L193.851 24.624L196.315 17.52H197.786L194.699 26H193.003ZM202.311 26.192C199.911 26.192 198.423 24.448 198.423 21.76C198.423 19.072 199.911 17.328 202.247 17.328C204.455 17.328 205.991 18.928 205.991 21.776V22.176H199.831C199.927 24 200.839 24.912 202.311 24.912C203.415 24.912 204.135 24.352 204.423 23.488L205.863 23.6C205.415 25.12 204.103 26.192 202.311 26.192ZM199.831 20.992H204.519C204.391 19.36 203.495 18.608 202.247 18.608C200.935 18.608 200.055 19.424 199.831 20.992ZM207.811 26V17.52H209.043L209.075 19.04C209.523 17.872 210.515 17.328 211.683 17.328C213.619 17.328 214.547 18.752 214.547 20.544V26H213.203V20.928C213.203 19.36 212.675 18.512 211.395 18.512C210.083 18.512 209.155 19.36 209.155 20.928V26H207.811ZM223.396 26.192C221.636 26.192 220.532 25.344 220.532 23.888C220.532 22.448 221.348 21.648 223.204 21.296L226.212 20.736C226.212 19.312 225.54 18.608 224.196 18.608C223.012 18.608 222.356 19.152 222.1 20.128L220.676 20.016C220.996 18.416 222.276 17.328 224.196 17.328C226.372 17.328 227.556 18.64 227.556 20.784V24.288C227.556 24.672 227.684 24.816 228.004 24.816H228.34V26C228.244 26.016 228.036 26.032 227.828 26.032C226.804 26.032 226.34 25.632 226.228 24.688C225.812 25.568 224.644 26.192 223.396 26.192ZM223.524 25.008C225.22 25.008 226.212 23.92 226.212 22.512V21.904L223.46 22.416C222.308 22.624 221.94 23.056 221.94 23.76C221.94 24.56 222.532 25.008 223.524 25.008ZM237.809 26.192C236.625 26.192 235.665 25.648 235.185 24.72L235.137 26H233.921V14.64H235.265V18.704C235.681 18 236.625 17.328 237.809 17.328C240.049 17.328 241.457 19.04 241.457 21.76C241.457 24.48 240.049 26.192 237.809 26.192ZM237.729 24.912C239.153 24.912 240.049 23.696 240.049 21.76C240.049 19.792 239.153 18.608 237.761 18.608C236.193 18.608 235.265 19.792 235.265 21.76C235.265 23.696 236.193 24.912 237.729 24.912ZM246.592 26.192C244.24 26.192 242.704 24.464 242.704 21.76C242.704 19.056 244.24 17.328 246.592 17.328C248.928 17.328 250.464 19.056 250.464 21.76C250.464 24.464 248.928 26.192 246.592 26.192ZM246.592 24.912C248.144 24.912 249.056 23.728 249.056 21.76C249.056 19.792 248.144 18.608 246.592 18.608C245.024 18.608 244.112 19.792 244.112 21.76C244.112 23.728 245.024 24.912 246.592 24.912ZM255.608 26.192C253.256 26.192 251.72 24.464 251.72 21.76C251.72 19.056 253.256 17.328 255.608 17.328C257.944 17.328 259.48 19.056 259.48 21.76C259.48 24.464 257.944 26.192 255.608 26.192ZM255.608 24.912C257.16 24.912 258.072 23.728 258.072 21.76C258.072 19.792 257.16 18.608 255.608 18.608C254.04 18.608 253.128 19.792 253.128 21.76C253.128 23.728 254.04 24.912 255.608 24.912ZM261.311 26V14.64H262.655V22.08L266.783 17.52H268.575L265.231 21.12L268.719 26H267.087L264.319 22.032L262.655 23.792V26H261.311ZM269.92 16.192V14.624H271.328V16.192H269.92ZM269.952 26V17.52H271.296V26H269.952ZM273.952 26V17.52H275.184L275.216 19.04C275.664 17.872 276.656 17.328 277.824 17.328C279.76 17.328 280.688 18.752 280.688 20.544V26H279.344V20.928C279.344 19.36 278.816 18.512 277.536 18.512C276.224 18.512 275.296 19.36 275.296 20.928V26H273.952ZM286.277 28.592C284.453 28.592 283.077 27.616 282.725 26.128L284.133 26.032C284.389 26.832 284.965 27.312 286.277 27.312C287.813 27.312 288.661 26.704 288.661 25.456V24.08C288.245 24.976 287.285 25.552 286.181 25.552C284.021 25.552 282.485 23.856 282.485 21.44C282.485 19.024 283.989 17.328 286.117 17.328C287.301 17.328 288.341 17.92 288.725 18.864V17.52H290.005V25.424C290.005 27.408 288.613 28.592 286.277 28.592ZM286.245 24.272C287.701 24.272 288.645 23.184 288.661 21.44C288.693 19.696 287.717 18.608 286.245 18.608C284.757 18.608 283.893 19.696 283.893 21.44C283.893 23.184 284.789 24.272 286.245 24.272ZM298.225 26C297.233 26 296.561 25.52 296.561 24.4V14.64H297.905V24.288C297.905 24.64 298.081 24.816 298.433 24.816H299.169V26H298.225ZM300.67 16.192V14.624H302.078V16.192H300.67ZM300.702 26V17.52H302.046V26H300.702ZM304.702 26V17.52H305.934L305.966 19.04C306.414 17.872 307.406 17.328 308.574 17.328C310.51 17.328 311.438 18.752 311.438 20.544V26H310.094V20.928C310.094 19.36 309.566 18.512 308.286 18.512C306.974 18.512 306.046 19.36 306.046 20.928V26H304.702ZM313.905 26V14.64H315.249V22.08L319.377 17.52H321.169L317.825 21.12L321.313 26H319.681L316.913 22.032L315.249 23.792V26H313.905ZM329.631 26.192C327.871 26.192 326.767 25.344 326.767 23.888C326.767 22.448 327.583 21.648 329.439 21.296L332.447 20.736C332.447 19.312 331.775 18.608 330.431 18.608C329.247 18.608 328.591 19.152 328.335 20.128L326.911 20.016C327.231 18.416 328.511 17.328 330.431 17.328C332.607 17.328 333.791 18.64 333.791 20.784V24.288C333.791 24.672 333.919 24.816 334.239 24.816H334.575V26C334.479 26.016 334.271 26.032 334.062 26.032C333.039 26.032 332.575 25.632 332.463 24.688C332.047 25.568 330.879 26.192 329.631 26.192ZM329.759 25.008C331.455 25.008 332.447 23.92 332.447 22.512V21.904L329.695 22.416C328.543 22.624 328.174 23.056 328.174 23.76C328.174 24.56 328.767 25.008 329.759 25.008ZM338.462 26C336.926 26 336.206 25.328 336.206 23.824V18.704H334.958V17.52H336.206V15.536H337.55V17.52H339.806V18.704H337.55V23.792C337.55 24.56 337.886 24.816 338.59 24.816H339.806V26H338.462ZM345.224 22.24V21.056H346.6C346.584 20.816 346.568 20.576 346.568 20.336C346.568 20.144 346.568 19.952 346.584 19.776H345.224V18.592H346.744C347.256 16.064 348.92 14.384 351.24 14.384C353.24 14.384 354.76 15.888 355.24 17.968L353.8 18.064C353.448 16.688 352.472 15.728 351.24 15.728C349.624 15.728 348.584 16.88 348.2 18.592H351.96L351.784 19.776H348.024C348.008 19.952 348.008 20.144 348.008 20.336C348.008 20.576 348.024 20.816 348.04 21.056H351.64L351.464 22.24H348.232C348.664 23.84 349.688 24.912 351.24 24.912C352.552 24.912 353.56 23.824 353.864 22.32L355.336 22.416C354.936 24.64 353.432 26.256 351.24 26.256C348.984 26.256 347.336 24.656 346.776 22.24H345.224ZM360.785 26.256C358.257 26.256 356.865 24.944 356.769 23.072L358.193 22.976C358.321 24.368 359.361 24.912 360.785 24.912C362.257 24.912 363.537 24.368 363.537 22.832C363.537 21.328 362.433 20.64 360.801 20.64H359.905V19.296H360.801C362.145 19.296 363.137 18.816 363.137 17.52C363.137 16.352 362.369 15.728 360.865 15.728C359.361 15.728 358.641 16.336 358.497 17.344L357.057 17.248C357.265 15.552 358.593 14.384 360.865 14.384C363.169 14.384 364.577 15.568 364.577 17.456C364.577 18.672 363.905 19.488 362.609 19.888C364.081 20.288 364.977 21.376 364.977 22.832C364.977 25.008 363.249 26.256 360.785 26.256ZM370.773 26.256C368.373 26.256 366.901 24.96 366.741 23.072L368.181 22.976C368.341 24.256 369.333 24.912 370.773 24.912C372.373 24.912 373.381 23.952 373.381 22.352C373.381 20.752 372.405 19.744 370.741 19.744C369.685 19.744 368.773 20.224 368.405 21.024H366.933L367.685 14.64H374.053V15.984H368.949L368.533 19.408C369.109 18.768 370.021 18.432 370.997 18.432C373.269 18.432 374.821 20.08 374.821 22.352C374.821 24.64 373.157 26.256 370.773 26.256Z" fill="#1E2939"/>
<defs>
<linearGradient id="paint0_linear_6908_39495" x1="0" y1="20" x2="388" y2="20" gradientUnits="userSpaceOnUse">
<stop stop-color="#F3E2EE"/>
<stop offset="1" stop-color="#DDB0D0"/>
</linearGradient>
</defs>
</svg>
