<svg width="187" height="40" viewBox="0 0 187 40" fill="none" xmlns="http://www.w3.org/2000/svg">
<rect x="0.5" y="0.5" width="186" height="39" rx="7.5" fill="#FFFEFC"/>
<rect x="0.5" y="0.5" width="186" height="39" rx="7.5" stroke="#C1C5CD"/>
<path d="M17.824 26.256C14.784 26.256 12.72 24.016 12.72 20.336C12.72 16.656 14.784 14.384 17.824 14.384C20.576 14.384 22.032 15.872 22.512 18.256L21.056 18.352C20.736 16.736 19.712 15.728 17.824 15.728C15.648 15.728 14.16 17.456 14.16 20.336C14.16 23.216 15.648 24.912 17.824 24.912C19.808 24.912 20.864 23.808 21.152 22.032L22.608 22.128C22.192 24.592 20.544 26.256 17.824 26.256ZM24.5613 26V14.64H25.9053V18.848C26.3373 17.808 27.2973 17.328 28.4653 17.328C30.2893 17.328 31.2973 18.656 31.2973 20.544V26H29.9533V20.928C29.9533 19.296 29.3613 18.512 28.1773 18.512C26.8013 18.512 25.9053 19.376 25.9053 20.944V26H24.5613ZM36.9826 26.192C34.5826 26.192 33.0946 24.448 33.0946 21.76C33.0946 19.072 34.5826 17.328 36.9186 17.328C39.1266 17.328 40.6626 18.928 40.6626 21.776V22.176H34.5026C34.5986 24 35.5106 24.912 36.9826 24.912C38.0866 24.912 38.8066 24.352 39.0946 23.488L40.5346 23.6C40.0866 25.12 38.7746 26.192 36.9826 26.192ZM34.5026 20.992H39.1906C39.0626 19.36 38.1666 18.608 36.9186 18.608C35.6066 18.608 34.7266 19.424 34.5026 20.992ZM45.7951 26.192C43.4271 26.192 41.9071 24.448 41.9071 21.76C41.9071 19.072 43.4271 17.328 45.7951 17.328C47.7471 17.328 49.1071 18.384 49.3951 20.272L47.9871 20.368C47.7951 19.248 46.9471 18.608 45.7951 18.608C44.2271 18.608 43.3151 19.792 43.3151 21.76C43.3151 23.728 44.2271 24.912 45.7951 24.912C46.9471 24.912 47.7951 24.272 47.9871 22.992L49.3951 23.088C49.1071 24.976 47.7471 26.192 45.7951 26.192ZM51.0613 26V14.64H52.4053V22.08L56.5333 17.52H58.3253L54.9813 21.12L58.4693 26H56.8373L54.0693 22.032L52.4053 23.792V26H51.0613ZM66.1948 26L63.5708 17.52H65.0428L67.0268 24.592L69.0428 17.52H70.4828L72.4988 24.592L74.4988 17.52H75.9708L73.3468 26H71.6508L69.7628 19.552L67.8748 26H66.1948ZM77.4199 16.192V14.624H78.8279V16.192H77.4199ZM77.4519 26V17.52H78.7959V26H77.4519ZM83.8215 26C82.2855 26 81.5655 25.328 81.5655 23.824V18.704H80.3175V17.52H81.5655V15.536H82.9095V17.52H85.1655V18.704H82.9095V23.792C82.9095 24.56 83.2455 24.816 83.9495 24.816H85.1655V26H83.8215ZM86.7331 26V14.64H88.0771V18.848C88.5091 17.808 89.4691 17.328 90.6371 17.328C92.4611 17.328 93.4691 18.656 93.4691 20.544V26H92.1251V20.928C92.1251 19.296 91.5331 18.512 90.3491 18.512C88.9731 18.512 88.0771 19.376 88.0771 20.944V26H86.7331ZM101.694 26C100.702 26 100.03 25.52 100.03 24.4V14.64H101.374V24.288C101.374 24.64 101.55 24.816 101.902 24.816H102.638V26H101.694ZM107.514 26.192C105.162 26.192 103.626 24.464 103.626 21.76C103.626 19.056 105.162 17.328 107.514 17.328C109.85 17.328 111.386 19.056 111.386 21.76C111.386 24.464 109.85 26.192 107.514 26.192ZM107.514 24.912C109.066 24.912 109.978 23.728 109.978 21.76C109.978 19.792 109.066 18.608 107.514 18.608C105.946 18.608 105.034 19.792 105.034 21.76C105.034 23.728 105.946 24.912 107.514 24.912ZM116.53 26.192C114.162 26.192 112.642 24.448 112.642 21.76C112.642 19.072 114.162 17.328 116.53 17.328C118.482 17.328 119.842 18.384 120.13 20.272L118.722 20.368C118.53 19.248 117.682 18.608 116.53 18.608C114.962 18.608 114.049 19.792 114.049 21.76C114.049 23.728 114.962 24.912 116.53 24.912C117.682 24.912 118.53 24.272 118.722 22.992L120.13 23.088C119.842 24.976 118.482 26.192 116.53 26.192ZM124.302 26.192C122.542 26.192 121.438 25.344 121.438 23.888C121.438 22.448 122.254 21.648 124.11 21.296L127.118 20.736C127.118 19.312 126.446 18.608 125.102 18.608C123.918 18.608 123.262 19.152 123.006 20.128L121.582 20.016C121.902 18.416 123.182 17.328 125.102 17.328C127.278 17.328 128.462 18.64 128.462 20.784V24.288C128.462 24.672 128.59 24.816 128.91 24.816H129.246V26C129.15 26.016 128.942 26.032 128.734 26.032C127.71 26.032 127.246 25.632 127.134 24.688C126.718 25.568 125.55 26.192 124.302 26.192ZM124.43 25.008C126.126 25.008 127.118 23.92 127.118 22.512V21.904L124.366 22.416C123.214 22.624 122.846 23.056 122.846 23.76C122.846 24.56 123.438 25.008 124.43 25.008ZM132.335 26C131.343 26 130.671 25.52 130.671 24.4V14.64H132.015V24.288C132.015 24.64 132.191 24.816 132.543 24.816H133.279V26H132.335ZM144.584 16.192V14.624H145.992V16.192H144.584ZM139.768 26V18.704H138.616V17.52H139.768V16.752C139.768 15.504 140.472 14.64 142.008 14.64H143.352V15.824H142.104C141.432 15.824 141.112 16.208 141.112 16.848V17.52H143.24V18.704H141.112V26H139.768ZM144.616 26V17.52H145.96V26H144.616ZM148.608 26V17.52H149.792L149.84 19.088C150.144 18.016 150.816 17.52 151.856 17.52H152.688V18.8H151.872C150.592 18.8 149.952 19.488 149.952 20.88V26H148.608ZM154.03 26V17.52H155.262L155.294 19.008C155.71 17.968 156.59 17.328 157.678 17.328C158.958 17.328 159.854 17.968 160.222 19.104C160.59 17.968 161.454 17.328 162.702 17.328C164.51 17.328 165.502 18.496 165.502 20.544V26H164.158V20.832C164.158 19.296 163.55 18.512 162.382 18.512C161.198 18.512 160.43 19.408 160.43 20.928V26H159.086V20.928C159.086 19.424 158.59 18.512 157.342 18.512C156.158 18.512 155.374 19.424 155.374 20.928V26H154.03ZM170.962 26.192C168.626 26.192 167.426 24.992 167.298 23.328L168.706 23.232C168.866 24.256 169.458 24.912 170.962 24.912C172.114 24.912 172.77 24.56 172.77 23.728C172.77 23.056 172.434 22.768 170.706 22.448C168.338 22 167.634 21.264 167.634 19.92C167.634 18.416 168.802 17.328 170.85 17.328C173.09 17.328 174.034 18.672 174.21 20.048L172.802 20.144C172.722 19.344 172.21 18.608 170.818 18.608C169.602 18.608 169.042 19.136 169.042 19.856C169.042 20.688 169.474 21.008 170.962 21.264C173.458 21.696 174.178 22.384 174.178 23.728C174.178 25.296 172.834 26.192 170.962 26.192Z" fill="#1E2939"/>
</svg>
