<svg width="437" height="64" viewBox="0 0 437 64" fill="none" xmlns="http://www.w3.org/2000/svg">
<rect x="0.5" y="0.5" width="436" height="63" rx="7.5" fill="#FFFEFC"/>
<rect x="0.5" y="0.5" width="436" height="63" rx="7.5" stroke="#C1C5CD"/>
<path d="M17.904 26.256C14.672 26.256 12.72 24.016 12.72 20.336C12.72 16.656 14.672 14.384 17.904 14.384C21.152 14.384 23.104 16.656 23.104 20.336C23.104 24.016 21.152 26.256 17.904 26.256ZM17.904 24.912C20.256 24.912 21.664 23.216 21.664 20.336C21.664 17.456 20.256 15.728 17.904 15.728C15.568 15.728 14.16 17.456 14.16 20.336C14.16 23.216 15.568 24.912 17.904 24.912ZM25.2956 26V14.64H26.6396V22.08L30.7676 17.52H32.5596L29.2156 21.12L32.7036 26H31.0716L28.3036 22.032L26.6396 23.792V26H25.2956ZM36.318 26.192C34.558 26.192 33.454 25.344 33.454 23.888C33.454 22.448 34.27 21.648 36.126 21.296L39.134 20.736C39.134 19.312 38.462 18.608 37.118 18.608C35.934 18.608 35.278 19.152 35.022 20.128L33.598 20.016C33.918 18.416 35.198 17.328 37.118 17.328C39.294 17.328 40.478 18.64 40.478 20.784V24.288C40.478 24.672 40.606 24.816 40.926 24.816H41.262V26C41.166 26.016 40.958 26.032 40.75 26.032C39.726 26.032 39.262 25.632 39.15 24.688C38.734 25.568 37.566 26.192 36.318 26.192ZM36.446 25.008C38.142 25.008 39.134 23.92 39.134 22.512V21.904L36.382 22.416C35.23 22.624 34.862 23.056 34.862 23.76C34.862 24.56 35.454 25.008 36.446 25.008ZM42.8199 28.4V27.216H43.7959C44.3879 27.216 44.6279 27.04 44.7879 26.64L45.0919 25.84H44.6279L41.5239 17.52H42.9959L45.5239 24.592L47.9399 17.52H49.4119L45.9719 27.072C45.6519 27.984 45.0599 28.4 43.9239 28.4H42.8199ZM49.5645 28.496L50.3325 26H49.5165V24.192H51.3245V25.776L50.3645 28.496H49.5645ZM60.5273 28.592C58.7033 28.592 57.3273 27.616 56.9753 26.128L58.3832 26.032C58.6393 26.832 59.2153 27.312 60.5273 27.312C62.0633 27.312 62.9113 26.704 62.9113 25.456V24.08C62.4953 24.976 61.5353 25.552 60.4313 25.552C58.2713 25.552 56.7353 23.856 56.7353 21.44C56.7353 19.024 58.2393 17.328 60.3673 17.328C61.5513 17.328 62.5913 17.92 62.9753 18.864V17.52H64.2552V25.424C64.2552 27.408 62.8633 28.592 60.5273 28.592ZM60.4953 24.272C61.9513 24.272 62.8953 23.184 62.9113 21.44C62.9433 19.696 61.9673 18.608 60.4953 18.608C59.0073 18.608 58.1432 19.696 58.1432 21.44C58.1432 23.184 59.0393 24.272 60.4953 24.272ZM66.8113 26V17.52H67.9953L68.0433 19.088C68.3473 18.016 69.0193 17.52 70.0593 17.52H70.8913V18.8H70.0753C68.7953 18.8 68.1553 19.488 68.1553 20.88V26H66.8113ZM75.5451 26.192C73.1451 26.192 71.6571 24.448 71.6571 21.76C71.6571 19.072 73.1451 17.328 75.4811 17.328C77.6891 17.328 79.2251 18.928 79.2251 21.776V22.176H73.0651C73.1611 24 74.0731 24.912 75.5451 24.912C76.6491 24.912 77.3691 24.352 77.6571 23.488L79.0971 23.6C78.6491 25.12 77.3371 26.192 75.5451 26.192ZM73.0651 20.992H77.7531C77.6251 19.36 76.7291 18.608 75.4811 18.608C74.1691 18.608 73.2891 19.424 73.0651 20.992ZM83.5524 26.192C81.7924 26.192 80.6884 25.344 80.6884 23.888C80.6884 22.448 81.5044 21.648 83.3604 21.296L86.3684 20.736C86.3684 19.312 85.6964 18.608 84.3524 18.608C83.1684 18.608 82.5124 19.152 82.2564 20.128L80.8324 20.016C81.1524 18.416 82.4324 17.328 84.3524 17.328C86.5284 17.328 87.7124 18.64 87.7124 20.784V24.288C87.7124 24.672 87.8404 24.816 88.1604 24.816H88.4964V26C88.4004 26.016 88.1924 26.032 87.9844 26.032C86.9604 26.032 86.4964 25.632 86.3844 24.688C85.9684 25.568 84.8004 26.192 83.5524 26.192ZM83.6804 25.008C85.3764 25.008 86.3684 23.92 86.3684 22.512V21.904L83.6164 22.416C82.4644 22.624 82.0964 23.056 82.0964 23.76C82.0964 24.56 82.6884 25.008 83.6804 25.008ZM92.384 26C90.848 26 90.128 25.328 90.128 23.824V18.704H88.88V17.52H90.128V15.536H91.472V17.52H93.728V18.704H91.472V23.792C91.472 24.56 91.808 24.816 92.512 24.816H93.728V26H92.384ZM95.3759 26V24.192H97.1839V26H95.3759ZM103.363 26V14.64H105.315L110.931 24.624V14.64H112.307V26H110.259L104.739 16.208V26H103.363ZM118.217 26.192C115.865 26.192 114.329 24.464 114.329 21.76C114.329 19.056 115.865 17.328 118.217 17.328C120.553 17.328 122.089 19.056 122.089 21.76C122.089 24.464 120.553 26.192 118.217 26.192ZM118.217 24.912C119.769 24.912 120.681 23.728 120.681 21.76C120.681 19.792 119.769 18.608 118.217 18.608C116.649 18.608 115.737 19.792 115.737 21.76C115.737 23.728 116.649 24.912 118.217 24.912ZM125.367 26L122.743 17.52H124.215L126.199 24.592L128.215 17.52H129.655L131.671 24.592L133.671 17.52H135.143L132.519 26H130.823L128.935 19.552L127.047 26H125.367ZM140.78 26V17.52H141.964L142.012 19.088C142.316 18.016 142.988 17.52 144.028 17.52H144.86V18.8H144.044C142.764 18.8 142.124 19.488 142.124 20.88V26H140.78ZM148.49 26.192C146.73 26.192 145.626 25.344 145.626 23.888C145.626 22.448 146.442 21.648 148.298 21.296L151.306 20.736C151.306 19.312 150.634 18.608 149.29 18.608C148.106 18.608 147.45 19.152 147.194 20.128L145.77 20.016C146.09 18.416 147.37 17.328 149.29 17.328C151.466 17.328 152.65 18.64 152.65 20.784V24.288C152.65 24.672 152.778 24.816 153.098 24.816H153.434V26C153.338 26.016 153.13 26.032 152.922 26.032C151.898 26.032 151.434 25.632 151.322 24.688C150.906 25.568 149.738 26.192 148.49 26.192ZM148.618 25.008C150.314 25.008 151.306 23.92 151.306 22.512V21.904L148.554 22.416C147.402 22.624 147.034 23.056 147.034 23.76C147.034 24.56 147.626 25.008 148.618 25.008ZM154.952 26V17.52H156.184L156.216 19.04C156.664 17.872 157.656 17.328 158.824 17.328C160.76 17.328 161.688 18.752 161.688 20.544V26H160.344V20.928C160.344 19.36 159.816 18.512 158.536 18.512C157.224 18.512 156.296 19.36 156.296 20.928V26H154.952ZM164.155 26V14.64H165.499V22.08L169.627 17.52H171.419L168.075 21.12L171.563 26H169.931L167.163 22.032L165.499 23.792V26H164.155ZM180.697 26C179.161 26 178.441 25.328 178.441 23.824V18.704H177.193V17.52H178.441V15.536H179.785V17.52H182.041V18.704H179.785V23.792C179.785 24.56 180.121 24.816 180.825 24.816H182.041V26H180.697ZM183.608 26V14.64H184.952V18.848C185.384 17.808 186.344 17.328 187.512 17.328C189.336 17.328 190.344 18.656 190.344 20.544V26H189V20.928C189 19.296 188.408 18.512 187.224 18.512C185.848 18.512 184.952 19.376 184.952 20.944V26H183.608ZM196.03 26.192C193.63 26.192 192.142 24.448 192.142 21.76C192.142 19.072 193.63 17.328 195.966 17.328C198.174 17.328 199.71 18.928 199.71 21.776V22.176H193.549C193.646 24 194.558 24.912 196.03 24.912C197.134 24.912 197.854 24.352 198.142 23.488L199.582 23.6C199.134 25.12 197.822 26.192 196.03 26.192ZM193.549 20.992H198.238C198.11 19.36 197.214 18.608 195.966 18.608C194.654 18.608 193.774 19.424 193.549 20.992ZM201.53 26V17.52H202.762L202.794 19.008C203.21 17.968 204.09 17.328 205.178 17.328C206.458 17.328 207.354 17.968 207.722 19.104C208.09 17.968 208.954 17.328 210.202 17.328C212.01 17.328 213.002 18.496 213.002 20.544V26H211.658V20.832C211.658 19.296 211.05 18.512 209.882 18.512C208.698 18.512 207.93 19.408 207.93 20.928V26H206.586V20.928C206.586 19.424 206.09 18.512 204.842 18.512C203.658 18.512 202.874 19.424 202.874 20.928V26H201.53ZM223.449 26.192C222.265 26.192 221.305 25.648 220.825 24.72L220.777 26H219.561V14.64H220.905V18.704C221.321 18 222.265 17.328 223.449 17.328C225.689 17.328 227.097 19.04 227.097 21.76C227.097 24.48 225.689 26.192 223.449 26.192ZM223.369 24.912C224.793 24.912 225.689 23.696 225.689 21.76C225.689 19.792 224.793 18.608 223.401 18.608C221.833 18.608 220.905 19.792 220.905 21.76C220.905 23.696 221.833 24.912 223.369 24.912ZM231.427 26.192C229.667 26.192 228.563 25.344 228.563 23.888C228.563 22.448 229.379 21.648 231.235 21.296L234.243 20.736C234.243 19.312 233.571 18.608 232.227 18.608C231.043 18.608 230.387 19.152 230.131 20.128L228.707 20.016C229.027 18.416 230.307 17.328 232.227 17.328C234.403 17.328 235.587 18.64 235.587 20.784V24.288C235.587 24.672 235.715 24.816 236.035 24.816H236.371V26C236.275 26.016 236.067 26.032 235.859 26.032C234.835 26.032 234.371 25.632 234.259 24.688C233.843 25.568 232.675 26.192 231.427 26.192ZM231.555 25.008C233.251 25.008 234.243 23.92 234.243 22.512V21.904L231.491 22.416C230.339 22.624 229.971 23.056 229.971 23.76C229.971 24.56 230.563 25.008 231.555 25.008ZM240.946 26.192C238.61 26.192 237.41 24.992 237.282 23.328L238.69 23.232C238.85 24.256 239.442 24.912 240.946 24.912C242.098 24.912 242.754 24.56 242.754 23.728C242.754 23.056 242.418 22.768 240.69 22.448C238.322 22 237.618 21.264 237.618 19.92C237.618 18.416 238.786 17.328 240.834 17.328C243.074 17.328 244.018 18.672 244.194 20.048L242.786 20.144C242.706 19.344 242.194 18.608 240.802 18.608C239.586 18.608 239.026 19.136 239.026 19.856C239.026 20.688 239.458 21.008 240.946 21.264C243.442 21.696 244.162 22.384 244.162 23.728C244.162 25.296 242.818 26.192 240.946 26.192ZM249.326 26.192C246.926 26.192 245.438 24.448 245.438 21.76C245.438 19.072 246.926 17.328 249.262 17.328C251.47 17.328 253.006 18.928 253.006 21.776V22.176H246.846C246.942 24 247.854 24.912 249.326 24.912C250.43 24.912 251.15 24.352 251.438 23.488L252.878 23.6C252.43 25.12 251.118 26.192 249.326 26.192ZM246.846 20.992H251.534C251.406 19.36 250.51 18.608 249.262 18.608C247.95 18.608 247.07 19.424 246.846 20.992ZM257.835 26.192C255.627 26.192 254.251 24.48 254.251 21.76C254.251 19.04 255.627 17.328 257.835 17.328C258.971 17.328 259.979 17.84 260.443 18.704V14.64H261.787V26H260.571L260.523 24.72C260.043 25.648 259.019 26.192 257.835 26.192ZM258.107 24.912C259.611 24.912 260.443 23.696 260.443 21.76C260.443 19.792 259.611 18.608 258.107 18.608C256.619 18.608 255.659 19.792 255.659 21.76C255.659 23.696 256.619 24.912 258.107 24.912ZM271.655 26.192C269.303 26.192 267.767 24.464 267.767 21.76C267.767 19.056 269.303 17.328 271.655 17.328C273.991 17.328 275.527 19.056 275.527 21.76C275.527 24.464 273.991 26.192 271.655 26.192ZM271.655 24.912C273.207 24.912 274.119 23.728 274.119 21.76C274.119 19.792 273.207 18.608 271.655 18.608C270.087 18.608 269.174 19.792 269.174 21.76C269.174 23.728 270.087 24.912 271.655 24.912ZM277.358 26V17.52H278.59L278.622 19.04C279.07 17.872 280.062 17.328 281.23 17.328C283.166 17.328 284.094 18.752 284.094 20.544V26H282.75V20.928C282.75 19.36 282.222 18.512 280.942 18.512C279.63 18.512 278.702 19.36 278.702 20.928V26H277.358ZM290.655 26V17.52H291.839L291.887 19.088C292.191 18.016 292.863 17.52 293.903 17.52H294.735V18.8H293.919C292.639 18.8 291.999 19.488 291.999 20.88V26H290.655ZM299.389 26.192C296.989 26.192 295.501 24.448 295.501 21.76C295.501 19.072 296.989 17.328 299.325 17.328C301.533 17.328 303.069 18.928 303.069 21.776V22.176H296.909C297.005 24 297.917 24.912 299.389 24.912C300.493 24.912 301.213 24.352 301.501 23.488L302.941 23.6C302.493 25.12 301.181 26.192 299.389 26.192ZM296.909 20.992H301.597C301.469 19.36 300.573 18.608 299.325 18.608C298.013 18.608 297.133 19.424 296.909 20.992ZM308.201 26.192C305.833 26.192 304.313 24.448 304.313 21.76C304.313 19.072 305.833 17.328 308.201 17.328C310.153 17.328 311.513 18.384 311.801 20.272L310.393 20.368C310.201 19.248 309.353 18.608 308.201 18.608C306.633 18.608 305.721 19.792 305.721 21.76C305.721 23.728 306.633 24.912 308.201 24.912C309.353 24.912 310.201 24.272 310.393 22.992L311.801 23.088C311.513 24.976 310.153 26.192 308.201 26.192ZM316.78 26.192C314.38 26.192 312.892 24.448 312.892 21.76C312.892 19.072 314.38 17.328 316.716 17.328C318.924 17.328 320.46 18.928 320.46 21.776V22.176H314.299C314.396 24 315.308 24.912 316.78 24.912C317.884 24.912 318.604 24.352 318.892 23.488L320.332 23.6C319.884 25.12 318.572 26.192 316.78 26.192ZM314.299 20.992H318.988C318.86 19.36 317.964 18.608 316.716 18.608C315.404 18.608 314.524 19.424 314.299 20.992ZM322.28 26V17.52H323.512L323.544 19.04C323.992 17.872 324.984 17.328 326.152 17.328C328.088 17.328 329.016 18.752 329.016 20.544V26H327.672V20.928C327.672 19.36 327.144 18.512 325.864 18.512C324.552 18.512 323.624 19.36 323.624 20.928V26H322.28ZM334.04 26C332.504 26 331.784 25.328 331.784 23.824V18.704H330.536V17.52H331.784V15.536H333.128V17.52H335.384V18.704H333.128V23.792C333.128 24.56 333.464 24.816 334.168 24.816H335.384V26H334.04ZM344.29 26.192C341.954 26.192 340.754 24.992 340.626 23.328L342.034 23.232C342.194 24.256 342.786 24.912 344.29 24.912C345.442 24.912 346.098 24.56 346.098 23.728C346.098 23.056 345.762 22.768 344.034 22.448C341.666 22 340.962 21.264 340.962 19.92C340.962 18.416 342.13 17.328 344.178 17.328C346.418 17.328 347.362 18.672 347.538 20.048L346.13 20.144C346.05 19.344 345.538 18.608 344.146 18.608C342.93 18.608 342.37 19.136 342.37 19.856C342.37 20.688 342.802 21.008 344.29 21.264C346.786 21.696 347.506 22.384 347.506 23.728C347.506 25.296 346.162 26.192 344.29 26.192ZM352.134 26C350.598 26 349.878 25.328 349.878 23.824V18.704H348.63V17.52H349.878V15.536H351.222V17.52H353.478V18.704H351.222V23.792C351.222 24.56 351.558 24.816 352.262 24.816H353.478V26H352.134ZM357.427 26.192C355.667 26.192 354.563 25.344 354.563 23.888C354.563 22.448 355.379 21.648 357.235 21.296L360.243 20.736C360.243 19.312 359.571 18.608 358.227 18.608C357.043 18.608 356.387 19.152 356.131 20.128L354.707 20.016C355.027 18.416 356.307 17.328 358.227 17.328C360.403 17.328 361.587 18.64 361.587 20.784V24.288C361.587 24.672 361.715 24.816 362.035 24.816H362.371V26C362.275 26.016 362.067 26.032 361.859 26.032C360.835 26.032 360.371 25.632 360.259 24.688C359.843 25.568 358.675 26.192 357.427 26.192ZM357.555 25.008C359.251 25.008 360.243 23.92 360.243 22.512V21.904L357.491 22.416C356.339 22.624 355.971 23.056 355.971 23.76C355.971 24.56 356.563 25.008 357.555 25.008ZM366.259 26C364.723 26 364.003 25.328 364.003 23.824V18.704H362.755V17.52H364.003V15.536H365.347V17.52H367.603V18.704H365.347V23.792C365.347 24.56 365.683 24.816 366.387 24.816H367.603V26H366.259ZM372.483 26.192C370.083 26.192 368.595 24.448 368.595 21.76C368.595 19.072 370.083 17.328 372.419 17.328C374.627 17.328 376.163 18.928 376.163 21.776V22.176H370.003C370.099 24 371.011 24.912 372.483 24.912C373.587 24.912 374.307 24.352 374.595 23.488L376.035 23.6C375.587 25.12 374.275 26.192 372.483 26.192ZM370.003 20.992H374.691C374.563 19.36 373.667 18.608 372.419 18.608C371.107 18.608 370.227 19.424 370.003 20.992ZM377.983 26V17.52H379.215L379.247 19.008C379.663 17.968 380.543 17.328 381.631 17.328C382.911 17.328 383.807 17.968 384.175 19.104C384.543 17.968 385.407 17.328 386.655 17.328C388.463 17.328 389.455 18.496 389.455 20.544V26H388.111V20.832C388.111 19.296 387.503 18.512 386.335 18.512C385.151 18.512 384.383 19.408 384.383 20.928V26H383.039V20.928C383.039 19.424 382.543 18.512 381.295 18.512C380.111 18.512 379.327 19.424 379.327 20.928V26H377.983ZM395.139 26.192C392.739 26.192 391.251 24.448 391.251 21.76C391.251 19.072 392.739 17.328 395.075 17.328C397.283 17.328 398.819 18.928 398.819 21.776V22.176H392.659C392.755 24 393.667 24.912 395.139 24.912C396.243 24.912 396.963 24.352 397.251 23.488L398.691 23.6C398.243 25.12 396.931 26.192 395.139 26.192ZM392.659 20.992H397.347C397.219 19.36 396.323 18.608 395.075 18.608C393.763 18.608 392.883 19.424 392.659 20.992ZM400.639 26V17.52H401.871L401.903 19.04C402.351 17.872 403.343 17.328 404.511 17.328C406.447 17.328 407.375 18.752 407.375 20.544V26H406.031V20.928C406.031 19.36 405.503 18.512 404.223 18.512C402.911 18.512 401.983 19.36 401.983 20.928V26H400.639ZM412.4 26C410.864 26 410.144 25.328 410.144 23.824V18.704H408.896V17.52H410.144V15.536H411.488V17.52H413.744V18.704H411.488V23.792C411.488 24.56 411.824 24.816 412.528 24.816H413.744V26H412.4ZM418.399 26.192C416.063 26.192 414.863 24.992 414.735 23.328L416.143 23.232C416.303 24.256 416.895 24.912 418.399 24.912C419.551 24.912 420.207 24.56 420.207 23.728C420.207 23.056 419.871 22.768 418.143 22.448C415.775 22 415.071 21.264 415.071 19.92C415.071 18.416 416.239 17.328 418.287 17.328C420.527 17.328 421.471 18.672 421.647 20.048L420.239 20.144C420.159 19.344 419.647 18.608 418.255 18.608C417.039 18.608 416.479 19.136 416.479 19.856C416.479 20.688 416.911 21.008 418.399 21.264C420.895 21.696 421.615 22.384 421.615 23.728C421.615 25.296 420.271 26.192 418.399 26.192ZM15.568 50.192C13.808 50.192 12.704 49.344 12.704 47.888C12.704 46.448 13.52 45.648 15.376 45.296L18.384 44.736C18.384 43.312 17.712 42.608 16.368 42.608C15.184 42.608 14.528 43.152 14.272 44.128L12.848 44.016C13.168 42.416 14.448 41.328 16.368 41.328C18.544 41.328 19.728 42.64 19.728 44.784V48.288C19.728 48.672 19.856 48.816 20.176 48.816H20.512V50C20.416 50.016 20.208 50.032 20 50.032C18.976 50.032 18.512 49.632 18.4 48.688C17.984 49.568 16.816 50.192 15.568 50.192ZM15.696 49.008C17.392 49.008 18.384 47.92 18.384 46.512V45.904L15.632 46.416C14.48 46.624 14.112 47.056 14.112 47.76C14.112 48.56 14.704 49.008 15.696 49.008ZM25.8555 50.192C24.6715 50.192 23.7115 49.648 23.2315 48.72L23.1835 50H21.9675V38.64H23.3115V42.704C23.7275 42 24.6715 41.328 25.8555 41.328C28.0955 41.328 29.5035 43.04 29.5035 45.76C29.5035 48.48 28.0955 50.192 25.8555 50.192ZM25.7755 48.912C27.1995 48.912 28.0955 47.696 28.0955 45.76C28.0955 43.792 27.1995 42.608 25.8075 42.608C24.2395 42.608 23.3115 43.792 23.3115 45.76C23.3115 47.696 24.2395 48.912 25.7755 48.912ZM34.6389 50.192C32.2869 50.192 30.7509 48.464 30.7509 45.76C30.7509 43.056 32.2869 41.328 34.6389 41.328C36.9749 41.328 38.5109 43.056 38.5109 45.76C38.5109 48.464 36.9749 50.192 34.6389 50.192ZM34.6389 48.912C36.1909 48.912 37.1029 47.728 37.1029 45.76C37.1029 43.792 36.1909 42.608 34.6389 42.608C33.0709 42.608 32.1589 43.792 32.1589 45.76C32.1589 47.728 33.0709 48.912 34.6389 48.912ZM43.1265 50.192C41.4305 50.192 40.3425 48.992 40.3425 46.976V41.52H41.6865V46.608C41.6865 48.256 42.2625 49.008 43.4785 49.008C44.8225 49.008 45.6385 48.096 45.6385 46.576V41.52H46.9825V50H45.7025V48.624C45.2385 49.632 44.3425 50.192 43.1265 50.192ZM52.1965 50C50.6605 50 49.9405 49.328 49.9405 47.824V42.704H48.6925V41.52H49.9405V39.536H51.2845V41.52H53.5405V42.704H51.2845V47.792C51.2845 48.56 51.6205 48.816 52.3245 48.816H53.5405V50H52.1965ZM58.3981 50L62.4941 38.64H64.3501L68.4461 50H66.9421L65.8061 46.768H61.0381L59.9021 50H58.3981ZM61.5021 45.424H65.3421L63.4221 39.84L61.5021 45.424ZM69.9251 50V38.64H71.3011V50H69.9251ZM78.0456 52.4V41.52H79.2936L79.3096 42.816C79.8216 41.84 80.7656 41.328 81.9176 41.328C84.4456 41.328 85.5816 43.424 85.5816 45.76C85.5816 48.096 84.4456 50.192 81.9176 50.192C80.8136 50.192 79.8376 49.696 79.3896 48.88V52.4H78.0456ZM81.7896 48.912C83.2616 48.912 84.1736 47.744 84.1736 45.76C84.1736 43.776 83.2616 42.608 81.7896 42.608C80.3176 42.608 79.3896 43.68 79.3896 45.76C79.3896 47.84 80.3016 48.912 81.7896 48.912ZM90.717 50.192C88.317 50.192 86.829 48.448 86.829 45.76C86.829 43.072 88.317 41.328 90.653 41.328C92.861 41.328 94.397 42.928 94.397 45.776V46.176H88.237C88.333 48 89.245 48.912 90.717 48.912C91.821 48.912 92.541 48.352 92.829 47.488L94.269 47.6C93.821 49.12 92.509 50.192 90.717 50.192ZM88.237 44.992H92.925C92.797 43.36 91.901 42.608 90.653 42.608C89.341 42.608 88.461 43.424 88.237 44.992ZM96.2175 50V41.52H97.4015L97.4495 43.088C97.7535 42.016 98.4255 41.52 99.4655 41.52H100.298V42.8H99.4815C98.2015 42.8 97.5615 43.488 97.5615 44.88V50H96.2175ZM104.727 50.192C102.391 50.192 101.191 48.992 101.063 47.328L102.471 47.232C102.631 48.256 103.223 48.912 104.727 48.912C105.879 48.912 106.535 48.56 106.535 47.728C106.535 47.056 106.199 46.768 104.471 46.448C102.103 46 101.399 45.264 101.399 43.92C101.399 42.416 102.567 41.328 104.615 41.328C106.855 41.328 107.799 42.672 107.975 44.048L106.567 44.144C106.487 43.344 105.975 42.608 104.583 42.608C103.367 42.608 102.807 43.136 102.807 43.856C102.807 44.688 103.239 45.008 104.727 45.264C107.223 45.696 107.943 46.384 107.943 47.728C107.943 49.296 106.599 50.192 104.727 50.192ZM113.108 50.192C110.756 50.192 109.22 48.464 109.22 45.76C109.22 43.056 110.756 41.328 113.108 41.328C115.444 41.328 116.98 43.056 116.98 45.76C116.98 48.464 115.444 50.192 113.108 50.192ZM113.108 48.912C114.66 48.912 115.572 47.728 115.572 45.76C115.572 43.792 114.66 42.608 113.108 42.608C111.54 42.608 110.628 43.792 110.628 45.76C110.628 47.728 111.54 48.912 113.108 48.912ZM118.811 50V41.52H120.043L120.075 43.04C120.523 41.872 121.515 41.328 122.683 41.328C124.619 41.328 125.547 42.752 125.547 44.544V50H124.203V44.928C124.203 43.36 123.675 42.512 122.395 42.512C121.083 42.512 120.155 43.36 120.155 44.928V50H118.811ZM130.24 50.192C128.48 50.192 127.376 49.344 127.376 47.888C127.376 46.448 128.192 45.648 130.048 45.296L133.056 44.736C133.056 43.312 132.384 42.608 131.04 42.608C129.856 42.608 129.2 43.152 128.944 44.128L127.52 44.016C127.84 42.416 129.12 41.328 131.04 41.328C133.216 41.328 134.4 42.64 134.4 44.784V48.288C134.4 48.672 134.528 48.816 134.848 48.816H135.184V50C135.088 50.016 134.88 50.032 134.672 50.032C133.648 50.032 133.184 49.632 133.072 48.688C132.656 49.568 131.488 50.192 130.24 50.192ZM130.368 49.008C132.064 49.008 133.056 47.92 133.056 46.512V45.904L130.304 46.416C129.152 46.624 128.784 47.056 128.784 47.76C128.784 48.56 129.376 49.008 130.368 49.008ZM138.272 50C137.28 50 136.608 49.52 136.608 48.4V38.64H137.952V48.288C137.952 48.64 138.128 48.816 138.48 48.816H139.216V50H138.272ZM147.162 50.192C145.402 50.192 144.298 49.344 144.298 47.888C144.298 46.448 145.114 45.648 146.97 45.296L149.978 44.736C149.978 43.312 149.306 42.608 147.962 42.608C146.778 42.608 146.122 43.152 145.866 44.128L144.442 44.016C144.762 42.416 146.042 41.328 147.962 41.328C150.138 41.328 151.322 42.64 151.322 44.784V48.288C151.322 48.672 151.45 48.816 151.77 48.816H152.106V50C152.01 50.016 151.802 50.032 151.594 50.032C150.57 50.032 150.106 49.632 149.994 48.688C149.578 49.568 148.41 50.192 147.162 50.192ZM147.29 49.008C148.986 49.008 149.978 47.92 149.978 46.512V45.904L147.226 46.416C146.074 46.624 145.706 47.056 145.706 47.76C145.706 48.56 146.298 49.008 147.29 49.008ZM156.681 50.192C154.345 50.192 153.145 48.992 153.017 47.328L154.424 47.232C154.585 48.256 155.177 48.912 156.681 48.912C157.833 48.912 158.489 48.56 158.489 47.728C158.489 47.056 158.153 46.768 156.424 46.448C154.057 46 153.353 45.264 153.353 43.92C153.353 42.416 154.521 41.328 156.569 41.328C158.809 41.328 159.753 42.672 159.929 44.048L158.521 44.144C158.441 43.344 157.929 42.608 156.536 42.608C155.321 42.608 154.761 43.136 154.761 43.856C154.761 44.688 155.193 45.008 156.681 45.264C159.177 45.696 159.897 46.384 159.897 47.728C159.897 49.296 158.553 50.192 156.681 50.192ZM164.837 50.192C162.501 50.192 161.301 48.992 161.173 47.328L162.581 47.232C162.741 48.256 163.333 48.912 164.837 48.912C165.989 48.912 166.645 48.56 166.645 47.728C166.645 47.056 166.309 46.768 164.581 46.448C162.213 46 161.509 45.264 161.509 43.92C161.509 42.416 162.677 41.328 164.725 41.328C166.965 41.328 167.909 42.672 168.085 44.048L166.677 44.144C166.597 43.344 166.085 42.608 164.693 42.608C163.477 42.608 162.917 43.136 162.917 43.856C162.917 44.688 163.349 45.008 164.837 45.264C167.333 45.696 168.053 46.384 168.053 47.728C168.053 49.296 166.709 50.192 164.837 50.192ZM169.873 40.192V38.624H171.281V40.192H169.873ZM169.905 50V41.52H171.249V50H169.905ZM176.743 50.192C174.407 50.192 173.207 48.992 173.079 47.328L174.487 47.232C174.647 48.256 175.239 48.912 176.743 48.912C177.895 48.912 178.551 48.56 178.551 47.728C178.551 47.056 178.215 46.768 176.487 46.448C174.119 46 173.415 45.264 173.415 43.92C173.415 42.416 174.583 41.328 176.631 41.328C178.871 41.328 179.815 42.672 179.991 44.048L178.583 44.144C178.503 43.344 177.991 42.608 176.599 42.608C175.383 42.608 174.823 43.136 174.823 43.856C174.823 44.688 175.255 45.008 176.743 45.264C179.239 45.696 179.959 46.384 179.959 47.728C179.959 49.296 178.615 50.192 176.743 50.192ZM184.587 50C183.051 50 182.331 49.328 182.331 47.824V42.704H181.083V41.52H182.331V39.536H183.675V41.52H185.931V42.704H183.675V47.792C183.675 48.56 184.011 48.816 184.715 48.816H185.931V50H184.587ZM189.881 50.192C188.121 50.192 187.017 49.344 187.017 47.888C187.017 46.448 187.833 45.648 189.689 45.296L192.697 44.736C192.697 43.312 192.025 42.608 190.681 42.608C189.497 42.608 188.841 43.152 188.585 44.128L187.161 44.016C187.481 42.416 188.761 41.328 190.681 41.328C192.857 41.328 194.041 42.64 194.041 44.784V48.288C194.041 48.672 194.169 48.816 194.489 48.816H194.825V50C194.729 50.016 194.521 50.032 194.312 50.032C193.289 50.032 192.825 49.632 192.713 48.688C192.297 49.568 191.129 50.192 189.881 50.192ZM190.009 49.008C191.705 49.008 192.697 47.92 192.697 46.512V45.904L189.945 46.416C188.793 46.624 188.424 47.056 188.424 47.76C188.424 48.56 189.017 49.008 190.009 49.008ZM196.343 50V41.52H197.575L197.607 43.04C198.055 41.872 199.047 41.328 200.215 41.328C202.151 41.328 203.079 42.752 203.079 44.544V50H201.735V44.928C201.735 43.36 201.207 42.512 199.927 42.512C198.615 42.512 197.687 43.36 197.687 44.928V50H196.343ZM208.103 50C206.567 50 205.847 49.328 205.847 47.824V42.704H204.599V41.52H205.847V39.536H207.191V41.52H209.447V42.704H207.191V47.792C207.191 48.56 207.527 48.816 208.231 48.816H209.447V50H208.103ZM214.102 50.192C211.766 50.192 210.566 48.992 210.438 47.328L211.846 47.232C212.006 48.256 212.598 48.912 214.102 48.912C215.254 48.912 215.91 48.56 215.91 47.728C215.91 47.056 215.574 46.768 213.846 46.448C211.478 46 210.774 45.264 210.774 43.92C210.774 42.416 211.942 41.328 213.99 41.328C216.23 41.328 217.174 42.672 217.35 44.048L215.942 44.144C215.862 43.344 215.35 42.608 213.958 42.608C212.742 42.608 212.182 43.136 212.182 43.856C212.182 44.688 212.614 45.008 214.102 45.264C216.598 45.696 217.318 46.384 217.318 47.728C217.318 49.296 215.974 50.192 214.102 50.192ZM218.751 50V48.192H220.559V50H218.751Z" fill="#1E2939"/>
</svg>
