<svg width="395" height="40" viewBox="0 0 395 40" fill="none" xmlns="http://www.w3.org/2000/svg">
<rect x="0.5" y="0.5" width="394" height="39" rx="7.5" fill="#FFFEFC"/>
<rect x="0.5" y="0.5" width="394" height="39" rx="7.5" stroke="#C1C5CD"/>
<path d="M17.792 26.256C14.592 26.256 12.72 23.76 12.72 20.336C12.72 16.928 14.624 14.384 17.824 14.384C20.544 14.384 21.952 16.016 22.368 18.128L20.928 18.224C20.64 16.752 19.76 15.728 17.824 15.728C15.232 15.728 14.16 17.872 14.16 20.336C14.16 22.928 15.28 24.912 17.824 24.912C19.84 24.912 21.088 23.376 21.12 21.568H17.856V20.256H22.4V26H21.376L21.312 24.096C20.752 25.376 19.344 26.256 17.792 26.256ZM27.9514 26.192C25.5514 26.192 24.0634 24.448 24.0634 21.76C24.0634 19.072 25.5514 17.328 27.8874 17.328C30.0954 17.328 31.6314 18.928 31.6314 21.776V22.176H25.4714C25.5674 24 26.4794 24.912 27.9514 24.912C29.0554 24.912 29.7754 24.352 30.0634 23.488L31.5034 23.6C31.0554 25.12 29.7434 26.192 27.9514 26.192ZM25.4714 20.992H30.1594C30.0314 19.36 29.1354 18.608 27.8874 18.608C26.5754 18.608 25.6954 19.424 25.4714 20.992ZM36.2278 26C34.6918 26 33.9718 25.328 33.9718 23.824V18.704H32.7238V17.52H33.9718V15.536H35.3158V17.52H37.5718V18.704H35.3158V23.792C35.3158 24.56 35.6518 24.816 36.3558 24.816H37.5718V26H36.2278ZM50.3494 28.4H49.0054V24.88C48.5574 25.696 47.5814 26.192 46.4774 26.192C43.9494 26.192 42.8134 24.096 42.8134 21.76C42.8134 19.424 43.9494 17.328 46.4774 17.328C47.6294 17.328 48.5734 17.84 49.0854 18.816L49.1014 17.52H50.3494V28.4ZM46.6054 24.912C48.0934 24.912 49.0054 23.84 49.0054 21.76C49.0054 19.68 48.0774 18.608 46.6054 18.608C45.1334 18.608 44.2214 19.776 44.2214 21.76C44.2214 23.744 45.1334 24.912 46.6054 24.912ZM55.689 26.192C53.993 26.192 52.905 24.992 52.905 22.976V17.52H54.249V22.608C54.249 24.256 54.825 25.008 56.041 25.008C57.385 25.008 58.201 24.096 58.201 22.576V17.52H59.545V26H58.265V24.624C57.801 25.632 56.905 26.192 55.689 26.192ZM65.2639 26.192C62.9119 26.192 61.3759 24.464 61.3759 21.76C61.3759 19.056 62.9119 17.328 65.2639 17.328C67.5999 17.328 69.1359 19.056 69.1359 21.76C69.1359 24.464 67.5999 26.192 65.2639 26.192ZM65.2639 24.912C66.8159 24.912 67.7279 23.728 67.7279 21.76C67.7279 19.792 66.8159 18.608 65.2639 18.608C63.6959 18.608 62.7839 19.792 62.7839 21.76C62.7839 23.728 63.6959 24.912 65.2639 24.912ZM73.7434 26C72.2074 26 71.4874 25.328 71.4874 23.824V18.704H70.2394V17.52H71.4874V15.536H72.8314V17.52H75.0874V18.704H72.8314V23.792C72.8314 24.56 73.1674 24.816 73.8714 24.816H75.0874V26H73.7434ZM79.967 26.192C77.567 26.192 76.079 24.448 76.079 21.76C76.079 19.072 77.567 17.328 79.903 17.328C82.111 17.328 83.647 18.928 83.647 21.776V22.176H77.487C77.583 24 78.495 24.912 79.967 24.912C81.071 24.912 81.791 24.352 82.079 23.488L83.519 23.6C83.071 25.12 81.759 26.192 79.967 26.192ZM77.487 20.992H82.175C82.047 19.36 81.151 18.608 79.903 18.608C78.591 18.608 77.711 19.424 77.487 20.992ZM88.5555 26.192C86.2195 26.192 85.0195 24.992 84.8915 23.328L86.2995 23.232C86.4595 24.256 87.0515 24.912 88.5555 24.912C89.7075 24.912 90.3635 24.56 90.3635 23.728C90.3635 23.056 90.0275 22.768 88.2995 22.448C85.9315 22 85.2275 21.264 85.2275 19.92C85.2275 18.416 86.3955 17.328 88.4435 17.328C90.6835 17.328 91.6275 18.672 91.8035 20.048L90.3955 20.144C90.3155 19.344 89.8035 18.608 88.4115 18.608C87.1955 18.608 86.6355 19.136 86.6355 19.856C86.6355 20.688 87.0675 21.008 88.5555 21.264C91.0515 21.696 91.7715 22.384 91.7715 23.728C91.7715 25.296 90.4275 26.192 88.5555 26.192ZM98.612 26V18.704H97.46V17.52H98.612V16.752C98.612 15.504 99.316 14.64 100.852 14.64H102.196V15.824H100.948C100.276 15.824 99.956 16.208 99.956 16.848V17.52H102.084V18.704H99.956V26H98.612ZM106.701 26.192C104.349 26.192 102.813 24.464 102.813 21.76C102.813 19.056 104.349 17.328 106.701 17.328C109.037 17.328 110.573 19.056 110.573 21.76C110.573 24.464 109.037 26.192 106.701 26.192ZM106.701 24.912C108.253 24.912 109.165 23.728 109.165 21.76C109.165 19.792 108.253 18.608 106.701 18.608C105.133 18.608 104.221 19.792 104.221 21.76C104.221 23.728 105.133 24.912 106.701 24.912ZM112.405 26V17.52H113.589L113.637 19.088C113.941 18.016 114.613 17.52 115.653 17.52H116.485V18.8H115.669C114.389 18.8 113.749 19.488 113.749 20.88V26H112.405ZM124.756 26.192C122.996 26.192 121.892 25.344 121.892 23.888C121.892 22.448 122.708 21.648 124.564 21.296L127.572 20.736C127.572 19.312 126.9 18.608 125.556 18.608C124.372 18.608 123.716 19.152 123.46 20.128L122.036 20.016C122.356 18.416 123.636 17.328 125.556 17.328C127.732 17.328 128.916 18.64 128.916 20.784V24.288C128.916 24.672 129.044 24.816 129.364 24.816H129.7V26C129.604 26.016 129.396 26.032 129.188 26.032C128.164 26.032 127.7 25.632 127.588 24.688C127.172 25.568 126.004 26.192 124.756 26.192ZM124.884 25.008C126.58 25.008 127.572 23.92 127.572 22.512V21.904L124.82 22.416C123.668 22.624 123.299 23.056 123.299 23.76C123.299 24.56 123.892 25.008 124.884 25.008ZM138.384 26C136.848 26 136.128 25.328 136.128 23.824V18.704H134.88V17.52H136.128V15.536H137.472V17.52H139.728V18.704H137.472V23.792C137.472 24.56 137.808 24.816 138.512 24.816H139.728V26H138.384ZM143.677 26.192C141.917 26.192 140.813 25.344 140.813 23.888C140.813 22.448 141.629 21.648 143.485 21.296L146.493 20.736C146.493 19.312 145.821 18.608 144.477 18.608C143.293 18.608 142.637 19.152 142.381 20.128L140.957 20.016C141.277 18.416 142.557 17.328 144.477 17.328C146.653 17.328 147.837 18.64 147.837 20.784V24.288C147.837 24.672 147.965 24.816 148.285 24.816H148.621V26C148.525 26.016 148.317 26.032 148.109 26.032C147.085 26.032 146.621 25.632 146.509 24.688C146.093 25.568 144.925 26.192 143.677 26.192ZM143.805 25.008C145.501 25.008 146.493 23.92 146.493 22.512V21.904L143.741 22.416C142.589 22.624 142.221 23.056 142.221 23.76C142.221 24.56 142.813 25.008 143.805 25.008ZM149.252 26L152.372 21.648L149.412 17.52H150.98L153.204 20.72L155.364 17.52H156.964L154.036 21.68L157.108 26H155.54L153.204 22.576L150.852 26H149.252ZM158.311 16.192V14.624H159.719V16.192H158.311ZM158.343 26V17.52H159.687V26H158.343ZM169.353 26C167.817 26 167.097 25.328 167.097 23.824V18.704H165.849V17.52H167.097V15.536H168.441V17.52H170.697V18.704H168.441V23.792C168.441 24.56 168.777 24.816 169.481 24.816H170.697V26H169.353ZM172.593 26V17.52H173.777L173.825 19.088C174.129 18.016 174.801 17.52 175.841 17.52H176.673V18.8H175.857C174.577 18.8 173.937 19.488 173.937 20.88V26H172.593ZM180.302 26.192C178.542 26.192 177.438 25.344 177.438 23.888C177.438 22.448 178.254 21.648 180.11 21.296L183.118 20.736C183.118 19.312 182.446 18.608 181.102 18.608C179.918 18.608 179.262 19.152 179.006 20.128L177.582 20.016C177.902 18.416 179.182 17.328 181.102 17.328C183.278 17.328 184.462 18.64 184.462 20.784V24.288C184.462 24.672 184.59 24.816 184.91 24.816H185.246V26C185.15 26.016 184.942 26.032 184.734 26.032C183.71 26.032 183.246 25.632 183.134 24.688C182.718 25.568 181.55 26.192 180.302 26.192ZM180.43 25.008C182.126 25.008 183.118 23.92 183.118 22.512V21.904L180.366 22.416C179.214 22.624 178.846 23.056 178.846 23.76C178.846 24.56 179.438 25.008 180.43 25.008ZM186.764 26V17.52H187.996L188.028 19.04C188.476 17.872 189.468 17.328 190.636 17.328C192.572 17.328 193.5 18.752 193.5 20.544V26H192.156V20.928C192.156 19.36 191.628 18.512 190.348 18.512C189.036 18.512 188.108 19.36 188.108 20.928V26H186.764ZM198.962 26.192C196.626 26.192 195.426 24.992 195.298 23.328L196.706 23.232C196.866 24.256 197.458 24.912 198.962 24.912C200.114 24.912 200.77 24.56 200.77 23.728C200.77 23.056 200.434 22.768 198.706 22.448C196.338 22 195.634 21.264 195.634 19.92C195.634 18.416 196.802 17.328 198.85 17.328C201.09 17.328 202.034 18.672 202.21 20.048L200.802 20.144C200.722 19.344 200.21 18.608 198.818 18.608C197.602 18.608 197.042 19.136 197.042 19.856C197.042 20.688 197.474 21.008 198.962 21.264C201.458 21.696 202.178 22.384 202.178 23.728C202.178 25.296 200.834 26.192 198.962 26.192ZM204.534 26V18.704H203.382V17.52H204.534V16.752C204.534 15.504 205.238 14.64 206.774 14.64H208.118V15.824H206.87C206.198 15.824 205.878 16.208 205.878 16.848V17.52H208.006V18.704H205.878V26H204.534ZM212.623 26.192C210.223 26.192 208.735 24.448 208.735 21.76C208.735 19.072 210.223 17.328 212.559 17.328C214.767 17.328 216.303 18.928 216.303 21.776V22.176H210.143C210.239 24 211.151 24.912 212.623 24.912C213.727 24.912 214.447 24.352 214.735 23.488L216.175 23.6C215.727 25.12 214.415 26.192 212.623 26.192ZM210.143 20.992H214.831C214.703 19.36 213.807 18.608 212.559 18.608C211.247 18.608 210.367 19.424 210.143 20.992ZM218.124 26V17.52H219.308L219.356 19.088C219.66 18.016 220.332 17.52 221.372 17.52H222.204V18.8H221.388C220.108 18.8 219.468 19.488 219.468 20.88V26H218.124ZM229.018 26V18.704H227.866V17.52H229.018V16.752C229.018 15.504 229.722 14.64 231.258 14.64H232.602V15.824H231.354C230.682 15.824 230.362 16.208 230.362 16.848V17.52H232.49V18.704H230.362V26H229.018ZM237.108 26.192C234.756 26.192 233.22 24.464 233.22 21.76C233.22 19.056 234.756 17.328 237.108 17.328C239.444 17.328 240.98 19.056 240.98 21.76C240.98 24.464 239.444 26.192 237.108 26.192ZM237.108 24.912C238.66 24.912 239.572 23.728 239.572 21.76C239.572 19.792 238.66 18.608 237.108 18.608C235.54 18.608 234.628 19.792 234.628 21.76C234.628 23.728 235.54 24.912 237.108 24.912ZM242.811 26V17.52H243.995L244.043 19.088C244.347 18.016 245.019 17.52 246.059 17.52H246.891V18.8H246.075C244.795 18.8 244.155 19.488 244.155 20.88V26H242.811ZM252.874 26V17.52H254.106L254.138 19.008C254.554 17.968 255.434 17.328 256.522 17.328C257.802 17.328 258.698 17.968 259.066 19.104C259.434 17.968 260.298 17.328 261.546 17.328C263.354 17.328 264.346 18.496 264.346 20.544V26H263.002V20.832C263.002 19.296 262.394 18.512 261.226 18.512C260.042 18.512 259.274 19.408 259.274 20.928V26H257.93V20.928C257.93 19.424 257.434 18.512 256.186 18.512C255.002 18.512 254.218 19.424 254.218 20.928V26H252.874ZM266.726 28.4V27.216H267.702C268.294 27.216 268.534 27.04 268.694 26.64L268.998 25.84H268.534L265.43 17.52H266.902L269.43 24.592L271.846 17.52H273.318L269.878 27.072C269.558 27.984 268.966 28.4 267.83 28.4H266.726ZM282.056 26C280.52 26 279.8 25.328 279.8 23.824V18.704H278.552V17.52H279.8V15.536H281.144V17.52H283.4V18.704H281.144V23.792C281.144 24.56 281.48 24.816 282.184 24.816H283.4V26H282.056ZM285.296 26V17.52H286.48L286.528 19.088C286.832 18.016 287.504 17.52 288.544 17.52H289.376V18.8H288.56C287.28 18.8 286.64 19.488 286.64 20.88V26H285.296ZM290.842 16.192V14.624H292.25V16.192H290.842ZM290.874 26V17.52H292.218V26H290.874ZM294.874 28.4V17.52H296.122L296.138 18.816C296.65 17.84 297.594 17.328 298.746 17.328C301.274 17.328 302.41 19.424 302.41 21.76C302.41 24.096 301.274 26.192 298.746 26.192C297.642 26.192 296.666 25.696 296.218 24.88V28.4H294.874ZM298.618 24.912C300.09 24.912 301.002 23.744 301.002 21.76C301.002 19.776 300.09 18.608 298.618 18.608C297.146 18.608 296.218 19.68 296.218 21.76C296.218 23.84 297.13 24.912 298.618 24.912ZM308.389 26V17.52H309.621L309.653 19.04C310.101 17.872 311.093 17.328 312.261 17.328C314.197 17.328 315.125 18.752 315.125 20.544V26H313.781V20.928C313.781 19.36 313.253 18.512 311.973 18.512C310.661 18.512 309.733 19.36 309.733 20.928V26H308.389ZM320.811 26.192C318.411 26.192 316.923 24.448 316.923 21.76C316.923 19.072 318.411 17.328 320.747 17.328C322.955 17.328 324.491 18.928 324.491 21.776V22.176H318.331C318.427 24 319.339 24.912 320.811 24.912C321.915 24.912 322.635 24.352 322.923 23.488L324.363 23.6C323.915 25.12 322.603 26.192 320.811 26.192ZM318.331 20.992H323.019C322.891 19.36 321.995 18.608 320.747 18.608C319.435 18.608 318.555 19.424 318.331 20.992ZM325.143 26L328.263 21.648L325.303 17.52H326.871L329.095 20.72L331.255 17.52H332.855L329.927 21.68L332.999 26H331.431L329.095 22.576L326.743 26H325.143ZM337.29 26C335.754 26 335.034 25.328 335.034 23.824V18.704H333.786V17.52H335.034V15.536H336.378V17.52H338.634V18.704H336.378V23.792C336.378 24.56 336.714 24.816 337.418 24.816H338.634V26H337.29ZM346.148 26L343.524 17.52H344.996L346.98 24.592L348.996 17.52H350.436L352.452 24.592L354.452 17.52H355.924L353.3 26H351.604L349.716 19.552L347.828 26H346.148ZM360.451 26.192C358.051 26.192 356.563 24.448 356.563 21.76C356.563 19.072 358.051 17.328 360.387 17.328C362.595 17.328 364.131 18.928 364.131 21.776V22.176H357.971C358.067 24 358.979 24.912 360.451 24.912C361.555 24.912 362.275 24.352 362.563 23.488L364.003 23.6C363.555 25.12 362.243 26.192 360.451 26.192ZM357.971 20.992H362.659C362.531 19.36 361.635 18.608 360.387 18.608C359.075 18.608 358.195 19.424 357.971 20.992ZM369.264 26.192C366.864 26.192 365.376 24.448 365.376 21.76C365.376 19.072 366.864 17.328 369.2 17.328C371.408 17.328 372.944 18.928 372.944 21.776V22.176H366.784C366.88 24 367.792 24.912 369.264 24.912C370.368 24.912 371.088 24.352 371.376 23.488L372.816 23.6C372.368 25.12 371.056 26.192 369.264 26.192ZM366.784 20.992H371.472C371.344 19.36 370.448 18.608 369.2 18.608C367.888 18.608 367.008 19.424 366.784 20.992ZM374.764 26V14.64H376.108V22.08L380.236 17.52H382.028L378.684 21.12L382.172 26H380.54L377.772 22.032L376.108 23.792V26H374.764Z" fill="#1E2939"/>
</svg>
