<svg width="209" height="36" viewBox="0 0 209 36" fill="none" xmlns="http://www.w3.org/2000/svg">
<rect x="0.5" y="0.5" width="208" height="35" rx="7.5" fill="url(#paint0_linear_6889_39304)"/>
<rect x="0.5" y="0.5" width="208" height="35" rx="7.5" stroke="#859DA7"/>
<path d="M17.152 23.224C14.464 23.224 12.616 21.278 12.616 18.044C12.616 14.838 14.436 12.836 17.166 12.836C19.63 12.836 20.946 14.152 21.366 16.322L19.784 16.406C19.518 15.048 18.678 14.222 17.166 14.222C15.36 14.222 14.184 15.678 14.184 18.044C14.184 20.424 15.374 21.838 17.152 21.838C18.762 21.838 19.616 20.928 19.854 19.444L21.436 19.528C21.058 21.782 19.602 23.224 17.152 23.224ZM23.0031 23V13.06H24.4871V16.63C24.8791 15.776 25.6911 15.384 26.6711 15.384C28.2951 15.384 29.1771 16.546 29.1771 18.212V23H27.6931V18.604C27.6931 17.274 27.2311 16.63 26.2791 16.63C25.1871 16.63 24.4871 17.33 24.4871 18.632V23H23.0031ZM34.1765 23.168C32.0065 23.168 30.6485 21.628 30.6485 19.276C30.6485 16.924 32.0065 15.384 34.1345 15.384C36.1645 15.384 37.5365 16.826 37.5365 19.332V19.71H32.1885C32.2585 21.166 33.0005 21.894 34.1905 21.894C35.0585 21.894 35.6465 21.46 35.8845 20.76L37.4245 20.858C37.0325 22.244 35.8145 23.168 34.1765 23.168ZM32.1885 18.59H35.9685C35.8705 17.274 35.1425 16.644 34.1345 16.644C33.0705 16.644 32.3565 17.33 32.1885 18.59ZM42.1062 23.168C39.9642 23.168 38.5782 21.628 38.5782 19.276C38.5782 16.924 39.9642 15.384 42.1062 15.384C43.9122 15.384 45.1862 16.364 45.4382 18.086L43.8842 18.17C43.7302 17.204 43.0442 16.672 42.1062 16.672C40.8462 16.672 40.1182 17.638 40.1182 19.276C40.1182 20.914 40.8462 21.88 42.1062 21.88C43.0582 21.88 43.7442 21.348 43.8842 20.27L45.4382 20.354C45.2002 22.062 43.9262 23.168 42.1062 23.168ZM46.7922 23V13.06H48.2762V19.234L51.6222 15.552H53.4982L50.5862 18.688L53.6102 23H51.9022L49.5922 19.612L48.2762 21.012V23H46.7922ZM61.7937 23.168C59.6517 23.168 58.2657 21.628 58.2657 19.276C58.2657 16.924 59.6517 15.384 61.7937 15.384C63.5997 15.384 64.8737 16.364 65.1257 18.086L63.5717 18.17C63.4177 17.204 62.7317 16.672 61.7937 16.672C60.5337 16.672 59.8057 17.638 59.8057 19.276C59.8057 20.914 60.5337 21.88 61.7937 21.88C62.7457 21.88 63.4317 21.348 63.5717 20.27L65.1257 20.354C64.8877 22.062 63.6137 23.168 61.7937 23.168ZM68.7161 23.168C67.1621 23.168 66.1681 22.426 66.1681 21.138C66.1681 19.864 66.9101 19.178 68.5481 18.856L71.1101 18.366C71.1101 17.218 70.5641 16.644 69.5001 16.644C68.5481 16.644 68.0161 17.078 67.8201 17.89L66.2941 17.792C66.5741 16.308 67.7361 15.384 69.5001 15.384C71.5161 15.384 72.5941 16.518 72.5941 18.45V21.348C72.5941 21.712 72.7061 21.824 72.9861 21.824H73.2521V23C73.1541 23.028 72.9301 23.042 72.7061 23.042C71.8521 23.042 71.3481 22.72 71.2361 21.852C70.8581 22.636 69.8781 23.168 68.7161 23.168ZM68.9541 21.992C70.2981 21.992 71.1101 21.152 71.1101 19.962V19.486L68.9261 19.906C68.0301 20.074 67.7081 20.424 67.7081 20.998C67.7081 21.642 68.1561 21.992 68.9541 21.992ZM76.0334 23C75.0534 23 74.4094 22.524 74.4094 21.418V13.06H75.8934V21.278C75.8934 21.628 76.0754 21.782 76.4114 21.782H76.9994V23H76.0334ZM81.3308 23.168C79.1608 23.168 77.8028 21.628 77.8028 19.276C77.8028 16.924 79.1608 15.384 81.2888 15.384C83.3188 15.384 84.6908 16.826 84.6908 19.332V19.71H79.3428C79.4128 21.166 80.1548 21.894 81.3448 21.894C82.2128 21.894 82.8008 21.46 83.0388 20.76L84.5788 20.858C84.1868 22.244 82.9688 23.168 81.3308 23.168ZM79.3428 18.59H83.1228C83.0248 17.274 82.2968 16.644 81.2888 16.644C80.2248 16.644 79.5108 17.33 79.3428 18.59ZM86.1945 23V15.552H87.5525L87.5805 16.854C87.9725 15.832 88.8265 15.384 89.8485 15.384C91.5145 15.384 92.3685 16.588 92.3685 18.212V23H90.8845V18.66C90.8845 17.344 90.4785 16.63 89.4425 16.63C88.3925 16.63 87.6785 17.344 87.6785 18.66V23H86.1945ZM96.948 23.168C95.03 23.168 93.84 21.67 93.84 19.276C93.84 16.896 95.044 15.384 96.948 15.384C97.97 15.384 98.824 15.832 99.23 16.602V13.06H100.714V23H99.328L99.286 21.88C98.866 22.692 97.984 23.168 96.948 23.168ZM97.34 21.88C98.558 21.88 99.23 20.914 99.23 19.276C99.23 17.624 98.558 16.672 97.34 16.672C96.15 16.672 95.38 17.652 95.38 19.276C95.38 20.872 96.15 21.88 97.34 21.88ZM104.769 23.168C103.215 23.168 102.221 22.426 102.221 21.138C102.221 19.864 102.963 19.178 104.601 18.856L107.163 18.366C107.163 17.218 106.617 16.644 105.553 16.644C104.601 16.644 104.069 17.078 103.873 17.89L102.347 17.792C102.627 16.308 103.789 15.384 105.553 15.384C107.569 15.384 108.647 16.518 108.647 18.45V21.348C108.647 21.712 108.759 21.824 109.039 21.824H109.305V23C109.207 23.028 108.983 23.042 108.759 23.042C107.905 23.042 107.401 22.72 107.289 21.852C106.911 22.636 105.931 23.168 104.769 23.168ZM105.007 21.992C106.351 21.992 107.163 21.152 107.163 19.962V19.486L104.979 19.906C104.083 20.074 103.761 20.424 103.761 20.998C103.761 21.642 104.209 21.992 105.007 21.992ZM110.558 23V15.552H111.916L111.958 16.966C112.238 15.986 112.826 15.552 113.736 15.552H114.45V16.882H113.736C112.602 16.882 112.042 17.428 112.042 18.604V23H110.558ZM119.472 25.1V15.552H120.872L120.9 16.686C121.334 15.832 122.16 15.384 123.154 15.384C125.338 15.384 126.346 17.176 126.346 19.276C126.346 21.376 125.324 23.168 123.154 23.168C122.202 23.168 121.362 22.72 120.956 21.992V25.1H119.472ZM122.888 21.88C124.078 21.88 124.806 20.914 124.806 19.276C124.806 17.638 124.078 16.672 122.888 16.672C121.698 16.672 120.956 17.554 120.956 19.276C120.956 20.998 121.684 21.88 122.888 21.88ZM127.853 23V15.552H129.211L129.253 16.966C129.533 15.986 130.121 15.552 131.031 15.552H131.745V16.882H131.031C129.897 16.882 129.337 17.428 129.337 18.604V23H127.853ZM135.868 23.168C133.698 23.168 132.34 21.628 132.34 19.276C132.34 16.924 133.698 15.384 135.826 15.384C137.856 15.384 139.228 16.826 139.228 19.332V19.71H133.88C133.95 21.166 134.692 21.894 135.882 21.894C136.75 21.894 137.338 21.46 137.576 20.76L139.116 20.858C138.724 22.244 137.506 23.168 135.868 23.168ZM133.88 18.59H137.66C137.562 17.274 136.834 16.644 135.826 16.644C134.762 16.644 134.048 17.33 133.88 18.59ZM141.201 23V16.77H140.165V15.552H141.201V15.076C141.201 13.844 141.873 13.06 143.329 13.06H144.659V14.278H143.539C142.951 14.278 142.685 14.6 142.685 15.16V15.552H144.547V16.77H142.685V23H141.201ZM148.692 23.168C146.522 23.168 145.164 21.628 145.164 19.276C145.164 16.924 146.522 15.384 148.65 15.384C150.68 15.384 152.052 16.826 152.052 19.332V19.71H146.704C146.774 21.166 147.516 21.894 148.706 21.894C149.574 21.894 150.162 21.46 150.4 20.76L151.94 20.858C151.548 22.244 150.33 23.168 148.692 23.168ZM146.704 18.59H150.484C150.386 17.274 149.658 16.644 148.65 16.644C147.586 16.644 146.872 17.33 146.704 18.59ZM153.556 23V15.552H154.914L154.956 16.966C155.236 15.986 155.824 15.552 156.734 15.552H157.448V16.882H156.734C155.6 16.882 155.04 17.428 155.04 18.604V23H153.556ZM161.571 23.168C159.401 23.168 158.043 21.628 158.043 19.276C158.043 16.924 159.401 15.384 161.529 15.384C163.559 15.384 164.931 16.826 164.931 19.332V19.71H159.583C159.653 21.166 160.395 21.894 161.585 21.894C162.453 21.894 163.041 21.46 163.279 20.76L164.819 20.858C164.427 22.244 163.209 23.168 161.571 23.168ZM159.583 18.59H163.363C163.265 17.274 162.537 16.644 161.529 16.644C160.465 16.644 159.751 17.33 159.583 18.59ZM166.435 23V15.552H167.793L167.821 16.854C168.213 15.832 169.067 15.384 170.089 15.384C171.755 15.384 172.609 16.588 172.609 18.212V23H171.125V18.66C171.125 17.344 170.719 16.63 169.683 16.63C168.633 16.63 167.919 17.344 167.919 18.66V23H166.435ZM177.608 23.168C175.466 23.168 174.08 21.628 174.08 19.276C174.08 16.924 175.466 15.384 177.608 15.384C179.414 15.384 180.688 16.364 180.94 18.086L179.386 18.17C179.232 17.204 178.546 16.672 177.608 16.672C176.348 16.672 175.62 17.638 175.62 19.276C175.62 20.914 176.348 21.88 177.608 21.88C178.56 21.88 179.246 21.348 179.386 20.27L180.94 20.354C180.702 22.062 179.428 23.168 177.608 23.168ZM185.36 23.168C183.19 23.168 181.832 21.628 181.832 19.276C181.832 16.924 183.19 15.384 185.318 15.384C187.348 15.384 188.72 16.826 188.72 19.332V19.71H183.372C183.442 21.166 184.184 21.894 185.374 21.894C186.242 21.894 186.83 21.46 187.068 20.76L188.608 20.858C188.216 22.244 186.998 23.168 185.36 23.168ZM183.372 18.59H187.152C187.054 17.274 186.326 16.644 185.318 16.644C184.254 16.644 183.54 17.33 183.372 18.59ZM193.094 23.168C190.924 23.168 189.874 22.118 189.762 20.648L191.288 20.578C191.428 21.404 191.904 21.922 193.094 21.922C194.018 21.922 194.536 21.642 194.536 20.984C194.536 20.438 194.256 20.2 192.842 19.948C190.672 19.542 190.028 18.912 190.028 17.694C190.028 16.336 191.078 15.384 193.024 15.384C195.082 15.384 195.964 16.532 196.104 17.834L194.578 17.918C194.522 17.218 194.088 16.63 192.996 16.63C192.03 16.63 191.568 17.05 191.568 17.638C191.568 18.296 191.932 18.562 193.136 18.758C195.39 19.136 196.076 19.752 196.076 20.97C196.076 22.37 194.872 23.168 193.094 23.168Z" fill="#1E2939"/>
<defs>
<linearGradient id="paint0_linear_6889_39304" x1="0" y1="18" x2="209" y2="18" gradientUnits="userSpaceOnUse">
<stop stop-color="#EFF3F6"/>
<stop offset="1" stop-color="#CEDBE3"/>
</linearGradient>
</defs>
</svg>
