<svg width="480" height="88" viewBox="0 0 480 88" fill="none" xmlns="http://www.w3.org/2000/svg">
<rect x="0.5" y="0.5" width="479" height="87" rx="7.5" fill="url(#paint0_linear_6889_39353)"/>
<rect x="0.5" y="0.5" width="479" height="87" rx="7.5" stroke="#799A84"/>
<path d="M13.472 26V14.64H14.848V26H13.472ZM17.2885 18.896L17.0325 15.92V14.64H18.4405V15.92L18.1845 18.896H17.2885ZM22.1003 26C21.1083 26 20.4363 25.52 20.4363 24.4V14.64H21.7803V24.288C21.7803 24.64 21.9563 24.816 22.3083 24.816H23.0443V26H22.1003ZM26.2096 26C25.2176 26 24.5456 25.52 24.5456 24.4V14.64H25.8896V24.288C25.8896 24.64 26.0656 24.816 26.4176 24.816H27.1536V26H26.2096ZM32.8113 26V14.64H34.1553V18.848C34.5873 17.808 35.5473 17.328 36.7153 17.328C38.5393 17.328 39.5473 18.656 39.5473 20.544V26H38.2033V20.928C38.2033 19.296 37.6113 18.512 36.4273 18.512C35.0513 18.512 34.1553 19.376 34.1553 20.944V26H32.8113ZM45.2326 26.192C42.8326 26.192 41.3446 24.448 41.3446 21.76C41.3446 19.072 42.8326 17.328 45.1686 17.328C47.3766 17.328 48.9126 18.928 48.9126 21.776V22.176H42.7526C42.8486 24 43.7606 24.912 45.2326 24.912C46.3366 24.912 47.0566 24.352 47.3446 23.488L48.7846 23.6C48.3366 25.12 47.0246 26.192 45.2326 26.192ZM42.7526 20.992H47.4406C47.3126 19.36 46.4166 18.608 45.1686 18.608C43.8566 18.608 42.9766 19.424 42.7526 20.992ZM52.4753 26C51.4833 26 50.8113 25.52 50.8113 24.4V14.64H52.1553V24.288C52.1553 24.64 52.3313 24.816 52.6833 24.816H53.4193V26H52.4753ZM55.0144 28.4V17.52H56.2624L56.2784 18.816C56.7904 17.84 57.7344 17.328 58.8864 17.328C61.4144 17.328 62.5504 19.424 62.5504 21.76C62.5504 24.096 61.4144 26.192 58.8864 26.192C57.7824 26.192 56.8064 25.696 56.3584 24.88V28.4H55.0144ZM58.7584 24.912C60.2304 24.912 61.1424 23.744 61.1424 21.76C61.1424 19.776 60.2304 18.608 58.7584 18.608C57.2864 18.608 56.3584 19.68 56.3584 21.76C56.3584 23.84 57.2704 24.912 58.7584 24.912ZM68.898 28.4V27.216H69.874C70.466 27.216 70.706 27.04 70.866 26.64L71.17 25.84H70.706L67.602 17.52H69.074L71.602 24.592L74.018 17.52H75.49L72.05 27.072C71.73 27.984 71.138 28.4 70.002 28.4H68.898ZM80.0139 26.192C77.6619 26.192 76.1259 24.464 76.1259 21.76C76.1259 19.056 77.6619 17.328 80.0139 17.328C82.3499 17.328 83.8859 19.056 83.8859 21.76C83.8859 24.464 82.3499 26.192 80.0139 26.192ZM80.0139 24.912C81.5659 24.912 82.4779 23.728 82.4779 21.76C82.4779 19.792 81.5659 18.608 80.0139 18.608C78.4459 18.608 77.5339 19.792 77.5339 21.76C77.5339 23.728 78.4459 24.912 80.0139 24.912ZM88.5015 26.192C86.8055 26.192 85.7175 24.992 85.7175 22.976V17.52H87.0615V22.608C87.0615 24.256 87.6375 25.008 88.8535 25.008C90.1975 25.008 91.0135 24.096 91.0135 22.576V17.52H92.3575V26H91.0775V24.624C90.6135 25.632 89.7175 26.192 88.5015 26.192ZM102.009 26.192C99.6726 26.192 98.4726 24.992 98.3446 23.328L99.7526 23.232C99.9126 24.256 100.505 24.912 102.009 24.912C103.161 24.912 103.817 24.56 103.817 23.728C103.817 23.056 103.481 22.768 101.753 22.448C99.3846 22 98.6806 21.264 98.6806 19.92C98.6806 18.416 99.8486 17.328 101.897 17.328C104.137 17.328 105.081 18.672 105.257 20.048L103.849 20.144C103.769 19.344 103.257 18.608 101.865 18.608C100.649 18.608 100.089 19.136 100.089 19.856C100.089 20.688 100.521 21.008 102.009 21.264C104.505 21.696 105.225 22.384 105.225 23.728C105.225 25.296 103.881 26.192 102.009 26.192ZM109.853 26C108.317 26 107.597 25.328 107.597 23.824V18.704H106.349V17.52H107.597V15.536H108.941V17.52H111.197V18.704H108.941V23.792C108.941 24.56 109.277 24.816 109.981 24.816H111.197V26H109.853ZM113.093 26V17.52H114.277L114.325 19.088C114.629 18.016 115.301 17.52 116.341 17.52H117.173V18.8H116.357C115.077 18.8 114.437 19.488 114.437 20.88V26H113.093ZM121.627 26.192C119.931 26.192 118.843 24.992 118.843 22.976V17.52H120.187V22.608C120.187 24.256 120.763 25.008 121.979 25.008C123.323 25.008 124.139 24.096 124.139 22.576V17.52H125.483V26H124.203V24.624C123.739 25.632 122.843 26.192 121.627 26.192ZM131.201 26.192C128.833 26.192 127.313 24.448 127.313 21.76C127.313 19.072 128.833 17.328 131.201 17.328C133.153 17.328 134.513 18.384 134.801 20.272L133.393 20.368C133.201 19.248 132.353 18.608 131.201 18.608C129.633 18.608 128.721 19.792 128.721 21.76C128.721 23.728 129.633 24.912 131.201 24.912C132.353 24.912 133.201 24.272 133.393 22.992L134.801 23.088C134.513 24.976 133.153 26.192 131.201 26.192ZM139.243 26C137.707 26 136.987 25.328 136.987 23.824V18.704H135.739V17.52H136.987V15.536H138.331V17.52H140.587V18.704H138.331V23.792C138.331 24.56 138.667 24.816 139.371 24.816H140.587V26H139.243ZM145.095 26.192C143.399 26.192 142.311 24.992 142.311 22.976V17.52H143.655V22.608C143.655 24.256 144.231 25.008 145.447 25.008C146.791 25.008 147.607 24.096 147.607 22.576V17.52H148.951V26H147.671V24.624C147.207 25.632 146.311 26.192 145.095 26.192ZM151.514 26V17.52H152.698L152.746 19.088C153.05 18.016 153.722 17.52 154.762 17.52H155.594V18.8H154.778C153.498 18.8 152.858 19.488 152.858 20.88V26H151.514ZM160.248 26.192C157.848 26.192 156.36 24.448 156.36 21.76C156.36 19.072 157.848 17.328 160.184 17.328C162.392 17.328 163.928 18.928 163.928 21.776V22.176H157.768C157.864 24 158.776 24.912 160.248 24.912C161.352 24.912 162.072 24.352 162.36 23.488L163.8 23.6C163.352 25.12 162.04 26.192 160.248 26.192ZM157.768 20.992H162.456C162.328 19.36 161.432 18.608 160.184 18.608C158.872 18.608 157.992 19.424 157.768 20.992ZM172.193 26.192C170.433 26.192 169.329 25.344 169.329 23.888C169.329 22.448 170.145 21.648 172.001 21.296L175.009 20.736C175.009 19.312 174.337 18.608 172.993 18.608C171.809 18.608 171.153 19.152 170.897 20.128L169.473 20.016C169.793 18.416 171.073 17.328 172.993 17.328C175.169 17.328 176.353 18.64 176.353 20.784V24.288C176.353 24.672 176.481 24.816 176.801 24.816H177.137V26C177.041 26.016 176.833 26.032 176.625 26.032C175.601 26.032 175.137 25.632 175.025 24.688C174.609 25.568 173.441 26.192 172.193 26.192ZM172.321 25.008C174.017 25.008 175.009 23.92 175.009 22.512V21.904L172.257 22.416C171.105 22.624 170.737 23.056 170.737 23.76C170.737 24.56 171.329 25.008 172.321 25.008ZM185.806 26.192C183.47 26.192 182.27 24.992 182.142 23.328L183.549 23.232C183.71 24.256 184.302 24.912 185.806 24.912C186.958 24.912 187.614 24.56 187.614 23.728C187.614 23.056 187.278 22.768 185.549 22.448C183.182 22 182.478 21.264 182.478 19.92C182.478 18.416 183.646 17.328 185.694 17.328C187.934 17.328 188.878 18.672 189.054 20.048L187.646 20.144C187.566 19.344 187.054 18.608 185.661 18.608C184.446 18.608 183.886 19.136 183.886 19.856C183.886 20.688 184.318 21.008 185.806 21.264C188.302 21.696 189.022 22.384 189.022 23.728C189.022 25.296 187.678 26.192 185.806 26.192ZM194.186 26.192C191.834 26.192 190.298 24.464 190.298 21.76C190.298 19.056 191.834 17.328 194.186 17.328C196.522 17.328 198.058 19.056 198.058 21.76C198.058 24.464 196.522 26.192 194.186 26.192ZM194.186 24.912C195.738 24.912 196.65 23.728 196.65 21.76C196.65 19.792 195.738 18.608 194.186 18.608C192.618 18.608 191.706 19.792 191.706 21.76C191.706 23.728 192.618 24.912 194.186 24.912ZM201.632 26C200.64 26 199.968 25.52 199.968 24.4V14.64H201.312V24.288C201.312 24.64 201.488 24.816 201.84 24.816H202.576V26H201.632ZM204.076 16.192V14.624H205.484V16.192H204.076ZM204.108 26V17.52H205.452V26H204.108ZM210.866 26.192C208.658 26.192 207.282 24.48 207.282 21.76C207.282 19.04 208.658 17.328 210.866 17.328C212.002 17.328 213.01 17.84 213.474 18.704V14.64H214.818V26H213.602L213.554 24.72C213.074 25.648 212.05 26.192 210.866 26.192ZM211.138 24.912C212.642 24.912 213.474 23.696 213.474 21.76C213.474 19.792 212.642 18.608 211.138 18.608C209.65 18.608 208.69 19.792 208.69 21.76C208.69 23.696 209.65 24.912 211.138 24.912ZM225.086 26.256C222.686 26.256 221.214 24.96 221.054 23.072L222.494 22.976C222.654 24.256 223.646 24.912 225.086 24.912C226.686 24.912 227.694 23.952 227.694 22.352C227.694 20.752 226.718 19.744 225.054 19.744C223.998 19.744 223.086 20.224 222.718 21.024L221.246 21.024L221.998 14.64H228.366V15.984H223.262L222.846 19.408C223.422 18.768 224.334 18.432 225.31 18.432C227.582 18.432 229.134 20.08 229.134 22.352C229.134 24.64 227.47 26.256 225.086 26.256ZM230.813 21.968V20.704H236.109V21.968H230.813ZM239.02 26C239.02 22.48 240.524 18.896 243.052 15.984H236.492V14.64L244.556 14.64V15.888C241.692 19.152 240.428 22.16 240.428 26H239.02ZM253.155 26.192C250.755 26.192 249.267 24.448 249.267 21.76C249.267 19.072 250.755 17.328 253.091 17.328C255.299 17.328 256.835 18.928 256.835 21.776V22.176H250.674C250.771 24 251.683 24.912 253.155 24.912C254.259 24.912 254.979 24.352 255.267 23.488L256.707 23.6C256.259 25.12 254.947 26.192 253.155 26.192ZM250.674 20.992H255.363C255.235 19.36 254.339 18.608 253.091 18.608C251.779 18.608 250.899 19.424 250.674 20.992ZM258.655 26V17.52H259.887L259.919 19.008C260.335 17.968 261.215 17.328 262.303 17.328C263.583 17.328 264.479 17.968 264.847 19.104C265.215 17.968 266.079 17.328 267.327 17.328C269.135 17.328 270.127 18.496 270.127 20.544V26H268.783V20.832C268.783 19.296 268.175 18.512 267.007 18.512C265.823 18.512 265.055 19.408 265.055 20.928V26L263.711 26V20.928C263.711 19.424 263.215 18.512 261.967 18.512C260.783 18.512 259.999 19.424 259.999 20.928V26H258.655ZM274.818 26.192C273.058 26.192 271.954 25.344 271.954 23.888C271.954 22.448 272.77 21.648 274.626 21.296L277.634 20.736C277.634 19.312 276.962 18.608 275.618 18.608C274.434 18.608 273.778 19.152 273.522 20.128L272.098 20.016C272.418 18.416 273.698 17.328 275.618 17.328C277.794 17.328 278.978 18.64 278.978 20.784V24.288C278.978 24.672 279.106 24.816 279.426 24.816H279.762V26C279.666 26.016 279.458 26.032 279.25 26.032C278.226 26.032 277.762 25.632 277.65 24.688C277.234 25.568 276.066 26.192 274.818 26.192ZM274.946 25.008C276.642 25.008 277.634 23.92 277.634 22.512V21.904L274.882 22.416C273.73 22.624 273.362 23.056 273.362 23.76C273.362 24.56 273.954 25.008 274.946 25.008ZM281.186 16.192V14.624H282.594V16.192H281.186ZM281.218 26V17.52H282.562V26H281.218ZM286.632 26C285.64 26 284.968 25.52 284.968 24.4V14.64L286.312 14.64V24.288C286.312 24.64 286.488 24.816 286.84 24.816H287.576V26H286.632ZM296.321 26.192C293.985 26.192 292.785 24.992 292.657 23.328L294.065 23.232C294.225 24.256 294.817 24.912 296.321 24.912C297.473 24.912 298.129 24.56 298.129 23.728C298.129 23.056 297.793 22.768 296.065 22.448C293.697 22 292.993 21.264 292.993 19.92C292.993 18.416 294.161 17.328 296.209 17.328C298.449 17.328 299.393 18.672 299.569 20.048L298.161 20.144C298.081 19.344 297.569 18.608 296.177 18.608C294.961 18.608 294.401 19.136 294.401 19.856C294.401 20.688 294.833 21.008 296.321 21.264C298.817 21.696 299.537 22.384 299.537 23.728C299.537 25.296 298.193 26.192 296.321 26.192ZM304.701 26.192C302.301 26.192 300.813 24.448 300.813 21.76C300.813 19.072 302.301 17.328 304.637 17.328C306.845 17.328 308.381 18.928 308.381 21.776V22.176H302.221C302.317 24 303.229 24.912 304.701 24.912C305.805 24.912 306.525 24.352 306.813 23.488L308.253 23.6C307.805 25.12 306.493 26.192 304.701 26.192ZM302.221 20.992H306.909C306.781 19.36 305.885 18.608 304.637 18.608C303.325 18.608 302.445 19.424 302.221 20.992ZM317.162 28.4H315.818V24.88C315.37 25.696 314.394 26.192 313.29 26.192C310.762 26.192 309.626 24.096 309.626 21.76C309.626 19.424 310.762 17.328 313.29 17.328C314.442 17.328 315.386 17.84 315.898 18.816L315.914 17.52H317.162V28.4ZM313.418 24.912C314.906 24.912 315.818 23.84 315.818 21.76C315.818 19.68 314.89 18.608 313.418 18.608C311.946 18.608 311.034 19.776 311.034 21.76C311.034 23.744 311.946 24.912 313.418 24.912ZM322.502 26.192C320.806 26.192 319.718 24.992 319.718 22.976V17.52H321.062V22.608C321.062 24.256 321.638 25.008 322.854 25.008C324.198 25.008 325.014 24.096 325.014 22.576V17.52H326.358V26H325.078V24.624C324.614 25.632 323.718 26.192 322.502 26.192ZM332.076 26.192C329.676 26.192 328.188 24.448 328.188 21.76C328.188 19.072 329.676 17.328 332.012 17.328C334.22 17.328 335.756 18.928 335.756 21.776V22.176H329.596C329.692 24 330.604 24.912 332.076 24.912C333.18 24.912 333.9 24.352 334.188 23.488L335.628 23.6C335.18 25.12 333.868 26.192 332.076 26.192ZM329.596 20.992H334.284C334.156 19.36 333.26 18.608 332.012 18.608C330.7 18.608 329.82 19.424 329.596 20.992ZM337.577 26V17.52H338.809L338.841 19.04C339.289 17.872 340.281 17.328 341.449 17.328C343.385 17.328 344.313 18.752 344.313 20.544V26H342.969V20.928C342.969 19.36 342.441 18.512 341.161 18.512C339.849 18.512 338.921 19.36 338.921 20.928V26H337.577ZM349.998 26.192C347.63 26.192 346.11 24.448 346.11 21.76C346.11 19.072 347.63 17.328 349.998 17.328C351.95 17.328 353.31 18.384 353.598 20.272L352.19 20.368C351.998 19.248 351.15 18.608 349.998 18.608C348.43 18.608 347.518 19.792 347.518 21.76C347.518 23.728 348.43 24.912 349.998 24.912C351.15 24.912 351.998 24.272 352.19 22.992L353.598 23.088C353.31 24.976 351.95 26.192 349.998 26.192ZM358.576 26.192C356.176 26.192 354.688 24.448 354.688 21.76C354.688 19.072 356.176 17.328 358.512 17.328C360.72 17.328 362.256 18.928 362.256 21.776V22.176H356.096C356.192 24 357.104 24.912 358.576 24.912C359.68 24.912 360.4 24.352 360.688 23.488L362.128 23.6C361.68 25.12 360.368 26.192 358.576 26.192ZM356.096 20.992H360.784C360.656 19.36 359.76 18.608 358.512 18.608C357.2 18.608 356.32 19.424 356.096 20.992ZM369.065 26V18.704H367.913V17.52H369.065V16.752C369.065 15.504 369.769 14.64 371.305 14.64H372.649V15.824H371.401C370.729 15.824 370.409 16.208 370.409 16.848V17.52H372.537V18.704H370.409V26H369.065ZM377.155 26.192C374.803 26.192 373.267 24.464 373.267 21.76C373.267 19.056 374.803 17.328 377.155 17.328C379.491 17.328 381.027 19.056 381.027 21.76C381.027 24.464 379.491 26.192 377.155 26.192ZM377.155 24.912C378.707 24.912 379.619 23.728 379.619 21.76C379.619 19.792 378.707 18.608 377.155 18.608C375.587 18.608 374.674 19.792 374.674 21.76C374.674 23.728 375.587 24.912 377.155 24.912ZM382.858 26V17.52H384.042L384.09 19.088C384.394 18.016 385.066 17.52 386.106 17.52H386.938V18.8H386.122C384.842 18.8 384.202 19.488 384.202 20.88V26H382.858ZM392.921 26V17.52H394.105L394.153 19.088C394.457 18.016 395.129 17.52 396.169 17.52H397.001V18.8H396.185C394.905 18.8 394.265 19.488 394.265 20.88V26H392.921ZM401.655 26.192C399.255 26.192 397.767 24.448 397.767 21.76C397.767 19.072 399.255 17.328 401.591 17.328C403.799 17.328 405.335 18.928 405.335 21.776V22.176H399.174C399.271 24 400.183 24.912 401.655 24.912C402.759 24.912 403.479 24.352 403.767 23.488L405.207 23.6C404.759 25.12 403.447 26.192 401.655 26.192ZM399.174 20.992H403.863C403.735 19.36 402.839 18.608 401.591 18.608C400.279 18.608 399.399 19.424 399.174 20.992ZM409.662 26.192C407.902 26.192 406.798 25.344 406.798 23.888C406.798 22.448 407.614 21.648 409.47 21.296L412.478 20.736C412.478 19.312 411.806 18.608 410.462 18.608C409.278 18.608 408.622 19.152 408.366 20.128L406.942 20.016C407.262 18.416 408.542 17.328 410.462 17.328C412.638 17.328 413.822 18.64 413.822 20.784V24.288C413.822 24.672 413.95 24.816 414.27 24.816H414.606V26C414.51 26.016 414.302 26.032 414.094 26.032C413.07 26.032 412.606 25.632 412.494 24.688C412.078 25.568 410.91 26.192 409.662 26.192ZM409.79 25.008C411.486 25.008 412.478 23.92 412.478 22.512V21.904L409.726 22.416C408.574 22.624 408.206 23.056 408.206 23.76C408.206 24.56 408.798 25.008 409.79 25.008ZM419.405 26.192C417.037 26.192 415.517 24.448 415.517 21.76C415.517 19.072 417.037 17.328 419.405 17.328C421.357 17.328 422.717 18.384 423.005 20.272L421.597 20.368C421.405 19.248 420.557 18.608 419.405 18.608C417.837 18.608 416.924 19.792 416.924 21.76C416.924 23.728 417.837 24.912 419.405 24.912C420.557 24.912 421.405 24.272 421.597 22.992L423.005 23.088C422.717 24.976 421.357 26.192 419.405 26.192ZM424.671 26V14.64H426.015V18.848C426.447 17.808 427.407 17.328 428.575 17.328C430.399 17.328 431.407 18.656 431.407 20.544V26H430.063V20.928C430.063 19.296 429.471 18.512 428.287 18.512C426.911 18.512 426.015 19.376 426.015 20.944V26H424.671ZM433.842 16.192V14.624H435.25V16.192H433.842ZM433.874 26V17.52H435.218V26H433.874ZM437.874 26V17.52H439.106L439.138 19.04C439.586 17.872 440.578 17.328 441.746 17.328C443.682 17.328 444.61 18.752 444.61 20.544V26H443.266V20.928C443.266 19.36 442.738 18.512 441.458 18.512C440.146 18.512 439.218 19.36 439.218 20.928V26H437.874ZM450.199 28.592C448.375 28.592 446.999 27.616 446.647 26.128L448.055 26.032C448.311 26.832 448.887 27.312 450.199 27.312C451.735 27.312 452.583 26.704 452.583 25.456V24.08C452.167 24.976 451.207 25.552 450.103 25.552C447.943 25.552 446.407 23.856 446.407 21.44C446.407 19.024 447.911 17.328 450.039 17.328C451.223 17.328 452.263 17.92 452.647 18.864V17.52H453.927V25.424C453.927 27.408 452.535 28.592 450.199 28.592ZM450.167 24.272C451.623 24.272 452.567 23.184 452.583 21.44C452.615 19.696 451.639 18.608 450.167 18.608C448.679 18.608 447.815 19.696 447.815 21.44C447.815 23.184 448.711 24.272 450.167 24.272ZM16.288 50.192C14.08 50.192 12.704 48.48 12.704 45.76C12.704 43.04 14.08 41.328 16.288 41.328C17.424 41.328 18.432 41.84 18.896 42.704V38.64H20.24V50H19.024L18.976 48.72C18.496 49.648 17.472 50.192 16.288 50.192ZM16.56 48.912C18.064 48.912 18.896 47.696 18.896 45.76C18.896 43.792 18.064 42.608 16.56 42.608C15.072 42.608 14.112 43.792 14.112 45.76C14.112 47.696 15.072 48.912 16.56 48.912ZM25.9514 50.192C23.5514 50.192 22.0634 48.448 22.0634 45.76C22.0634 43.072 23.5514 41.328 25.8874 41.328C28.0954 41.328 29.6314 42.928 29.6314 45.776V46.176H23.4714C23.5674 48 24.4794 48.912 25.9514 48.912C27.0554 48.912 27.7754 48.352 28.0634 47.488L29.5034 47.6C29.0554 49.12 27.7434 50.192 25.9514 50.192ZM23.4714 44.992H28.1594C28.0314 43.36 27.1354 42.608 25.8874 42.608C24.5754 42.608 23.6954 43.424 23.4714 44.992ZM34.7639 50.192C32.3959 50.192 30.8759 48.448 30.8759 45.76C30.8759 43.072 32.3959 41.328 34.7639 41.328C36.7159 41.328 38.0759 42.384 38.3639 44.272L36.9559 44.368C36.7639 43.248 35.9159 42.608 34.7639 42.608C33.1959 42.608 32.2839 43.792 32.2839 45.76C32.2839 47.728 33.1959 48.912 34.7639 48.912C35.9159 48.912 36.7639 48.272 36.9559 46.992L38.3639 47.088C38.0759 48.976 36.7159 50.192 34.7639 50.192ZM39.998 40.192V38.624H41.406V40.192H39.998ZM40.03 50V41.52H41.374V50H40.03ZM46.868 50.192C44.532 50.192 43.332 48.992 43.204 47.328L44.612 47.232C44.772 48.256 45.364 48.912 46.868 48.912C48.02 48.912 48.676 48.56 48.676 47.728C48.676 47.056 48.34 46.768 46.612 46.448C44.244 46 43.54 45.264 43.54 43.92C43.54 42.416 44.708 41.328 46.756 41.328C48.996 41.328 49.94 42.672 50.116 44.048L48.708 44.144C48.628 43.344 48.116 42.608 46.724 42.608C45.508 42.608 44.948 43.136 44.948 43.856C44.948 44.688 45.38 45.008 46.868 45.264C49.364 45.696 50.084 46.384 50.084 47.728C50.084 49.296 48.74 50.192 46.868 50.192ZM51.9043 40.192V38.624H53.3123V40.192H51.9043ZM51.9363 50V41.52H53.2803V50H51.9363ZM58.9983 50.192C56.6463 50.192 55.1103 48.464 55.1103 45.76C55.1103 43.056 56.6463 41.328 58.9983 41.328C61.3343 41.328 62.8703 43.056 62.8703 45.76C62.8703 48.464 61.3343 50.192 58.9983 50.192ZM58.9983 48.912C60.5503 48.912 61.4623 47.728 61.4623 45.76C61.4623 43.792 60.5503 42.608 58.9983 42.608C57.4303 42.608 56.5182 43.792 56.5182 45.76C56.5182 47.728 57.4303 48.912 58.9983 48.912ZM64.7019 50V41.52H65.9339L65.9659 43.04C66.4139 41.872 67.4059 41.328 68.5739 41.328C70.5099 41.328 71.4379 42.752 71.4379 44.544V50H70.0939V44.928C70.0939 43.36 69.5659 42.512 68.2859 42.512C66.9739 42.512 66.0459 43.36 66.0459 44.928V50H64.7019ZM77.9988 50V41.52H79.2308L79.2628 43.008C79.6788 41.968 80.5588 41.328 81.6468 41.328C82.9268 41.328 83.8228 41.968 84.1908 43.104C84.5588 41.968 85.4228 41.328 86.6708 41.328C88.4788 41.328 89.4708 42.496 89.4708 44.544V50H88.1268V44.832C88.1268 43.296 87.5188 42.512 86.3508 42.512C85.1667 42.512 84.3988 43.408 84.3988 44.928V50H83.0548V44.928C83.0548 43.424 82.5588 42.512 81.3108 42.512C80.1268 42.512 79.3428 43.424 79.3428 44.928V50H77.9988ZM94.1618 50.192C92.4018 50.192 91.2978 49.344 91.2978 47.888C91.2978 46.448 92.1138 45.648 93.9698 45.296L96.9778 44.736C96.9778 43.312 96.3058 42.608 94.9618 42.608C93.7778 42.608 93.1218 43.152 92.8658 44.128L91.4418 44.016C91.7618 42.416 93.0418 41.328 94.9618 41.328C97.1378 41.328 98.3218 42.64 98.3218 44.784V48.288C98.3218 48.672 98.4498 48.816 98.7698 48.816H99.1058V50C99.0098 50.016 98.8018 50.032 98.5938 50.032C97.5698 50.032 97.1058 49.632 96.9938 48.688C96.5778 49.568 95.4098 50.192 94.1618 50.192ZM94.2898 49.008C95.9858 49.008 96.9778 47.92 96.9778 46.512V45.904L94.2258 46.416C93.0738 46.624 92.7057 47.056 92.7057 47.76C92.7057 48.56 93.2978 49.008 94.2898 49.008ZM100.561 50V38.64H101.905V46.08L106.033 41.52H107.825L104.481 45.12L107.969 50H106.337L103.569 46.032L101.905 47.792V50H100.561ZM112.514 50.192C110.114 50.192 108.626 48.448 108.626 45.76C108.626 43.072 110.114 41.328 112.45 41.328C114.658 41.328 116.194 42.928 116.194 45.776V46.176H110.034C110.13 48 111.042 48.912 112.514 48.912C113.618 48.912 114.338 48.352 114.626 47.488L116.066 47.6C115.618 49.12 114.306 50.192 112.514 50.192ZM110.034 44.992H114.722C114.594 43.36 113.698 42.608 112.45 42.608C111.138 42.608 110.258 43.424 110.034 44.992ZM118.014 50V41.52H119.198L119.246 43.088C119.55 42.016 120.222 41.52 121.262 41.52H122.094V42.8H121.278C119.998 42.8 119.358 43.488 119.358 44.88V50H118.014ZM126.524 50.192C124.188 50.192 122.988 48.992 122.86 47.328L124.268 47.232C124.428 48.256 125.02 48.912 126.524 48.912C127.676 48.912 128.332 48.56 128.332 47.728C128.332 47.056 127.996 46.768 126.268 46.448C123.9 46 123.196 45.264 123.196 43.92C123.196 42.416 124.364 41.328 126.412 41.328C128.652 41.328 129.596 42.672 129.772 44.048L128.364 44.144C128.284 43.344 127.772 42.608 126.38 42.608C125.164 42.608 124.604 43.136 124.604 43.856C124.604 44.688 125.036 45.008 126.524 45.264C129.02 45.696 129.74 46.384 129.74 47.728C129.74 49.296 128.396 50.192 126.524 50.192ZM138.037 50.192C136.277 50.192 135.173 49.344 135.173 47.888C135.173 46.448 135.989 45.648 137.845 45.296L140.853 44.736C140.853 43.312 140.181 42.608 138.837 42.608C137.653 42.608 136.997 43.152 136.741 44.128L135.317 44.016C135.637 42.416 136.917 41.328 138.837 41.328C141.013 41.328 142.197 42.64 142.197 44.784V48.288C142.197 48.672 142.325 48.816 142.645 48.816H142.981V50C142.885 50.016 142.677 50.032 142.469 50.032C141.445 50.032 140.981 49.632 140.869 48.688C140.453 49.568 139.285 50.192 138.037 50.192ZM138.165 49.008C139.861 49.008 140.853 47.92 140.853 46.512V45.904L138.101 46.416C136.949 46.624 136.581 47.056 136.581 47.76C136.581 48.56 137.173 49.008 138.165 49.008ZM146.868 50C145.332 50 144.612 49.328 144.612 47.824V42.704H143.364V41.52H144.612V39.536H145.956V41.52H148.212V42.704H145.956V47.792C145.956 48.56 146.292 48.816 146.996 48.816H148.212V50H146.868ZM157.134 50C155.598 50 154.878 49.328 154.878 47.824V42.704H153.63V41.52H154.878V39.536H156.222V41.52H158.478V42.704H156.222V47.792C156.222 48.56 156.558 48.816 157.262 48.816H158.478V50H157.134ZM160.046 50V38.64H161.39V42.848C161.822 41.808 162.782 41.328 163.95 41.328C165.774 41.328 166.782 42.656 166.782 44.544V50H165.438V44.928C165.438 43.296 164.846 42.512 163.662 42.512C162.286 42.512 161.39 43.376 161.39 44.944V50H160.046ZM172.467 50.192C170.067 50.192 168.579 48.448 168.579 45.76C168.579 43.072 170.067 41.328 172.403 41.328C174.611 41.328 176.147 42.928 176.147 45.776V46.176H169.987C170.083 48 170.995 48.912 172.467 48.912C173.571 48.912 174.291 48.352 174.579 47.488L176.019 47.6C175.571 49.12 174.259 50.192 172.467 50.192ZM169.987 44.992H174.675C174.547 43.36 173.651 42.608 172.403 42.608C171.091 42.608 170.211 43.424 169.987 44.992ZM181.056 50.192C178.72 50.192 177.52 48.992 177.392 47.328L178.799 47.232C178.96 48.256 179.552 48.912 181.056 48.912C182.208 48.912 182.864 48.56 182.864 47.728C182.864 47.056 182.528 46.768 180.799 46.448C178.432 46 177.728 45.264 177.728 43.92C177.728 42.416 178.896 41.328 180.944 41.328C183.184 41.328 184.128 42.672 184.304 44.048L182.896 44.144C182.816 43.344 182.304 42.608 180.911 42.608C179.696 42.608 179.136 43.136 179.136 43.856C179.136 44.688 179.568 45.008 181.056 45.264C183.552 45.696 184.272 46.384 184.272 47.728C184.272 49.296 182.928 50.192 181.056 50.192ZM189.436 50.192C187.036 50.192 185.548 48.448 185.548 45.76C185.548 43.072 187.036 41.328 189.372 41.328C191.58 41.328 193.116 42.928 193.116 45.776V46.176H186.956C187.052 48 187.964 48.912 189.436 48.912C190.54 48.912 191.26 48.352 191.548 47.488L192.988 47.6C192.54 49.12 191.228 50.192 189.436 50.192ZM186.956 44.992H191.644C191.516 43.36 190.62 42.608 189.372 42.608C188.06 42.608 187.18 43.424 186.956 44.992ZM202.181 50.192C199.845 50.192 198.645 48.992 198.517 47.328L199.924 47.232C200.085 48.256 200.677 48.912 202.181 48.912C203.333 48.912 203.989 48.56 203.989 47.728C203.989 47.056 203.653 46.768 201.924 46.448C199.557 46 198.853 45.264 198.853 43.92C198.853 42.416 200.021 41.328 202.069 41.328C204.309 41.328 205.253 42.672 205.429 44.048L204.021 44.144C203.941 43.344 203.429 42.608 202.036 42.608C200.821 42.608 200.261 43.136 200.261 43.856C200.261 44.688 200.693 45.008 202.181 45.264C204.677 45.696 205.397 46.384 205.397 47.728C205.397 49.296 204.053 50.192 202.181 50.192ZM207.249 52.4V41.52H208.497L208.513 42.816C209.025 41.84 209.969 41.328 211.121 41.328C213.649 41.328 214.785 43.424 214.785 45.76C214.785 48.096 213.649 50.192 211.121 50.192C210.017 50.192 209.041 49.696 208.593 48.88V52.4H207.249ZM210.993 48.912C212.465 48.912 213.377 47.744 213.377 45.76C213.377 43.776 212.465 42.608 210.993 42.608C209.521 42.608 208.593 43.68 208.593 45.76C208.593 47.84 209.505 48.912 210.993 48.912ZM219.92 50.192C217.52 50.192 216.032 48.448 216.032 45.76C216.032 43.072 217.52 41.328 219.856 41.328C222.064 41.328 223.6 42.928 223.6 45.776V46.176H217.44C217.536 48 218.448 48.912 219.92 48.912C221.024 48.912 221.744 48.352 222.032 47.488L223.472 47.6C223.024 49.12 221.712 50.192 219.92 50.192ZM217.44 44.992H222.128C222 43.36 221.104 42.608 219.856 42.608C218.544 42.608 217.664 43.424 217.44 44.992ZM228.733 50.192C226.365 50.192 224.845 48.448 224.845 45.76C224.845 43.072 226.365 41.328 228.733 41.328C230.685 41.328 232.045 42.384 232.333 44.272L230.925 44.368C230.733 43.248 229.885 42.608 228.733 42.608C227.165 42.608 226.253 43.792 226.253 45.76C226.253 47.728 227.165 48.912 228.733 48.912C229.885 48.912 230.733 48.272 230.925 46.992L232.333 47.088C232.045 48.976 230.685 50.192 228.733 50.192ZM233.967 40.192V38.624H235.375V40.192H233.967ZM233.999 50V41.52H235.343V50H233.999ZM240.037 50.192C238.277 50.192 237.173 49.344 237.173 47.888C237.173 46.448 237.989 45.648 239.845 45.296L242.853 44.736C242.853 43.312 242.181 42.608 240.837 42.608C239.653 42.608 238.997 43.152 238.741 44.128L237.317 44.016C237.637 42.416 238.917 41.328 240.837 41.328C243.013 41.328 244.197 42.64 244.197 44.784V48.288C244.197 48.672 244.325 48.816 244.645 48.816H244.981V50C244.885 50.016 244.677 50.032 244.469 50.032C243.445 50.032 242.981 49.632 242.869 48.688C242.453 49.568 241.285 50.192 240.037 50.192ZM240.165 49.008C241.861 49.008 242.853 47.92 242.853 46.512V45.904L240.101 46.416C238.949 46.624 238.581 47.056 238.581 47.76C238.581 48.56 239.173 49.008 240.165 49.008ZM248.069 50C247.077 50 246.405 49.52 246.405 48.4V38.64H247.749V48.288C247.749 48.64 247.925 48.816 248.277 48.816H249.013V50H248.069ZM250.514 40.192V38.624H251.922V40.192H250.514ZM250.546 50V41.52H251.89V50H250.546ZM256.915 50C255.379 50 254.659 49.328 254.659 47.824V42.704H253.411V41.52H254.659V39.536H256.003V41.52H258.259V42.704H256.003V47.792C256.003 48.56 256.339 48.816 257.043 48.816H258.259V50H256.915ZM260.289 52.4V51.216H261.265C261.857 51.216 262.097 51.04 262.257 50.64L262.561 49.84H262.097L258.993 41.52H260.465L262.993 48.592L265.409 41.52H266.881L263.441 51.072C263.121 51.984 262.529 52.4 261.393 52.4H260.289ZM272.514 50V41.52H273.698L273.746 43.088C274.05 42.016 274.722 41.52 275.762 41.52H276.594V42.8H275.778C274.498 42.8 273.858 43.488 273.858 44.88V50H272.514ZM281.248 50.192C278.848 50.192 277.36 48.448 277.36 45.76C277.36 43.072 278.848 41.328 281.184 41.328C283.392 41.328 284.928 42.928 284.928 45.776V46.176H278.768C278.864 48 279.776 48.912 281.248 48.912C282.352 48.912 283.072 48.352 283.36 47.488L284.8 47.6C284.352 49.12 283.04 50.192 281.248 50.192ZM278.768 44.992H283.456C283.328 43.36 282.432 42.608 281.184 42.608C279.872 42.608 278.992 43.424 278.768 44.992ZM289.525 50C287.989 50 287.269 49.328 287.269 47.824V42.704H286.021V41.52H287.269V39.536H288.613V41.52H290.869V42.704H288.613V47.792C288.613 48.56 288.949 48.816 289.653 48.816H290.869V50H289.525ZM294.818 50.192C293.058 50.192 291.954 49.344 291.954 47.888C291.954 46.448 292.77 45.648 294.626 45.296L297.634 44.736C297.634 43.312 296.962 42.608 295.618 42.608C294.434 42.608 293.778 43.152 293.522 44.128L292.098 44.016C292.418 42.416 293.698 41.328 295.618 41.328C297.794 41.328 298.978 42.64 298.978 44.784V48.288C298.978 48.672 299.106 48.816 299.426 48.816H299.762V50C299.666 50.016 299.458 50.032 299.25 50.032C298.226 50.032 297.762 49.632 297.65 48.688C297.234 49.568 296.066 50.192 294.818 50.192ZM294.946 49.008C296.642 49.008 297.634 47.92 297.634 46.512V45.904L294.882 46.416C293.73 46.624 293.362 47.056 293.362 47.76C293.362 48.56 293.954 49.008 294.946 49.008ZM301.186 40.192V38.624H302.594V40.192H301.186ZM301.218 50V41.52H302.562V50H301.218ZM306.632 50C305.64 50 304.968 49.52 304.968 48.4V38.64H306.312V48.288C306.312 48.64 306.488 48.816 306.84 48.816H307.576V50H306.632ZM312.451 50.192C310.051 50.192 308.563 48.448 308.563 45.76C308.563 43.072 310.051 41.328 312.387 41.328C314.595 41.328 316.131 42.928 316.131 45.776V46.176H309.971C310.067 48 310.979 48.912 312.451 48.912C313.555 48.912 314.275 48.352 314.563 47.488L316.003 47.6C315.555 49.12 314.243 50.192 312.451 50.192ZM309.971 44.992H314.659C314.531 43.36 313.635 42.608 312.387 42.608C311.075 42.608 310.195 43.424 309.971 44.992ZM317.952 50V41.52H319.136L319.184 43.088C319.488 42.016 320.16 41.52 321.2 41.52H322.032V42.8H321.216C319.936 42.8 319.296 43.488 319.296 44.88V50H317.952ZM326.462 50.192C324.126 50.192 322.926 48.992 322.798 47.328L324.206 47.232C324.366 48.256 324.958 48.912 326.462 48.912C327.614 48.912 328.27 48.56 328.27 47.728C328.27 47.056 327.934 46.768 326.206 46.448C323.838 46 323.134 45.264 323.134 43.92C323.134 42.416 324.302 41.328 326.35 41.328C328.59 41.328 329.534 42.672 329.71 44.048L328.302 44.144C328.222 43.344 327.71 42.608 326.318 42.608C325.102 42.608 324.542 43.136 324.542 43.856C324.542 44.688 324.974 45.008 326.462 45.264C328.958 45.696 329.678 46.384 329.678 47.728C329.678 49.296 328.334 50.192 326.462 50.192ZM337.974 50.192C336.214 50.192 335.11 49.344 335.11 47.888C335.11 46.448 335.926 45.648 337.782 45.296L340.79 44.736C340.79 43.312 340.118 42.608 338.774 42.608C337.59 42.608 336.934 43.152 336.678 44.128L335.254 44.016C335.574 42.416 336.854 41.328 338.774 41.328C340.95 41.328 342.134 42.64 342.134 44.784V48.288C342.134 48.672 342.262 48.816 342.582 48.816H342.918V50C342.822 50.016 342.614 50.032 342.406 50.032C341.382 50.032 340.918 49.632 340.806 48.688C340.39 49.568 339.222 50.192 337.974 50.192ZM338.102 49.008C339.798 49.008 340.79 47.92 340.79 46.512V45.904L338.038 46.416C336.886 46.624 336.518 47.056 336.518 47.76C336.518 48.56 337.11 49.008 338.102 49.008ZM348.262 50.192C347.078 50.192 346.118 49.648 345.638 48.72L345.59 50H344.374V38.64H345.718V42.704C346.134 42 347.078 41.328 348.262 41.328C350.502 41.328 351.91 43.04 351.91 45.76C351.91 48.48 350.502 50.192 348.262 50.192ZM348.182 48.912C349.606 48.912 350.502 47.696 350.502 45.76C350.502 43.792 349.606 42.608 348.214 42.608C346.646 42.608 345.718 43.792 345.718 45.76C345.718 47.696 346.646 48.912 348.182 48.912ZM357.045 50.192C354.693 50.192 353.157 48.464 353.157 45.76C353.157 43.056 354.693 41.328 357.045 41.328C359.381 41.328 360.917 43.056 360.917 45.76C360.917 48.464 359.381 50.192 357.045 50.192ZM357.045 48.912C358.597 48.912 359.509 47.728 359.509 45.76C359.509 43.792 358.597 42.608 357.045 42.608C355.477 42.608 354.565 43.792 354.565 45.76C354.565 47.728 355.477 48.912 357.045 48.912ZM365.533 50.192C363.837 50.192 362.749 48.992 362.749 46.976V41.52H364.093V46.608C364.093 48.256 364.669 49.008 365.885 49.008C367.229 49.008 368.045 48.096 368.045 46.576V41.52H369.389V50H368.109V48.624C367.645 49.632 366.749 50.192 365.533 50.192ZM374.603 50C373.067 50 372.347 49.328 372.347 47.824V42.704H371.099V41.52H372.347V39.536H373.691V41.52H375.947V42.704H373.691V47.792C373.691 48.56 374.027 48.816 374.731 48.816H375.947V50H374.603ZM381.764 52.4V41.52H383.012L383.028 42.816C383.54 41.84 384.484 41.328 385.636 41.328C388.164 41.328 389.3 43.424 389.3 45.76C389.3 48.096 388.164 50.192 385.636 50.192C384.532 50.192 383.556 49.696 383.108 48.88V52.4H381.764ZM385.508 48.912C386.98 48.912 387.892 47.744 387.892 45.76C387.892 43.776 386.98 42.608 385.508 42.608C384.036 42.608 383.108 43.68 383.108 45.76C383.108 47.84 384.02 48.912 385.508 48.912ZM391.124 50V41.52H392.308L392.356 43.088C392.66 42.016 393.332 41.52 394.372 41.52H395.204V42.8H394.388C393.108 42.8 392.468 43.488 392.468 44.88V50H391.124ZM399.858 50.192C397.506 50.192 395.97 48.464 395.97 45.76C395.97 43.056 397.506 41.328 399.858 41.328C402.194 41.328 403.73 43.056 403.73 45.76C403.73 48.464 402.194 50.192 399.858 50.192ZM399.858 48.912C401.41 48.912 402.322 47.728 402.322 45.76C402.322 43.792 401.41 42.608 399.858 42.608C398.29 42.608 397.378 43.792 397.378 45.76C397.378 47.728 398.29 48.912 399.858 48.912ZM408.569 50.192C406.361 50.192 404.985 48.48 404.985 45.76C404.985 43.04 406.361 41.328 408.569 41.328C409.705 41.328 410.713 41.84 411.177 42.704V38.64H412.521V50H411.305L411.257 48.72C410.777 49.648 409.753 50.192 408.569 50.192ZM408.841 48.912C410.345 48.912 411.177 47.696 411.177 45.76C411.177 43.792 410.345 42.608 408.841 42.608C407.353 42.608 406.393 43.792 406.393 45.76C406.393 47.696 407.353 48.912 408.841 48.912ZM417.548 50.192C415.852 50.192 414.764 48.992 414.764 46.976V41.52H416.108V46.608C416.108 48.256 416.684 49.008 417.9 49.008C419.244 49.008 420.06 48.096 420.06 46.576V41.52H421.404V50H420.124V48.624C419.66 49.632 418.764 50.192 417.548 50.192ZM427.123 50.192C424.755 50.192 423.235 48.448 423.235 45.76C423.235 43.072 424.755 41.328 427.123 41.328C429.075 41.328 430.435 42.384 430.723 44.272L429.315 44.368C429.123 43.248 428.275 42.608 427.123 42.608C425.555 42.608 424.643 43.792 424.643 45.76C424.643 47.728 425.555 48.912 427.123 48.912C428.275 48.912 429.123 48.272 429.315 46.992L430.723 47.088C430.435 48.976 429.075 50.192 427.123 50.192ZM435.165 50C433.629 50 432.909 49.328 432.909 47.824V42.704H431.661V41.52H432.909V39.536H434.253V41.52H436.509V42.704H434.253V47.792C434.253 48.56 434.589 48.816 435.293 48.816H436.509V50H435.165ZM16.368 74.192C14.032 74.192 12.832 72.992 12.704 71.328L14.112 71.232C14.272 72.256 14.864 72.912 16.368 72.912C17.52 72.912 18.176 72.56 18.176 71.728C18.176 71.056 17.84 70.768 16.112 70.448C13.744 70 13.04 69.264 13.04 67.92C13.04 66.416 14.208 65.328 16.256 65.328C18.496 65.328 19.44 66.672 19.616 68.048L18.208 68.144C18.128 67.344 17.616 66.608 16.224 66.608C15.008 66.608 14.448 67.136 14.448 67.856C14.448 68.688 14.88 69.008 16.368 69.264C18.864 69.696 19.584 70.384 19.584 71.728C19.584 73.296 18.24 74.192 16.368 74.192ZM23.943 74.192C22.183 74.192 21.079 73.344 21.079 71.888C21.079 70.448 21.895 69.648 23.751 69.296L26.759 68.736C26.759 67.312 26.087 66.608 24.743 66.608C23.559 66.608 22.903 67.152 22.647 68.128L21.223 68.016C21.543 66.416 22.823 65.328 24.743 65.328C26.919 65.328 28.103 66.64 28.103 68.784V72.288C28.103 72.672 28.231 72.816 28.551 72.816H28.887V74C28.791 74.016 28.583 74.032 28.375 74.032C27.351 74.032 26.887 73.632 26.775 72.688C26.359 73.568 25.191 74.192 23.943 74.192ZM24.071 73.008C25.767 73.008 26.759 71.92 26.759 70.512V69.904L24.007 70.416C22.855 70.624 22.487 71.056 22.487 71.76C22.487 72.56 23.079 73.008 24.071 73.008ZM30.405 74V65.52H31.637L31.669 67.008C32.085 65.968 32.965 65.328 34.053 65.328C35.333 65.328 36.229 65.968 36.597 67.104C36.965 65.968 37.829 65.328 39.077 65.328C40.885 65.328 41.877 66.496 41.877 68.544V74H40.533V68.832C40.533 67.296 39.925 66.512 38.757 66.512C37.573 66.512 36.805 67.408 36.805 68.928V74H35.461V68.928C35.461 67.424 34.965 66.512 33.717 66.512C32.533 66.512 31.749 67.424 31.749 68.928V74H30.405ZM44.1238 76.4V65.52H45.3718L45.3878 66.816C45.8998 65.84 46.8438 65.328 47.9958 65.328C50.5238 65.328 51.6597 67.424 51.6597 69.76C51.6597 72.096 50.5238 74.192 47.9958 74.192C46.8918 74.192 45.9158 73.696 45.4678 72.88V76.4H44.1238ZM47.8678 72.912C49.3398 72.912 50.2518 71.744 50.2518 69.76C50.2518 67.776 49.3398 66.608 47.8678 66.608C46.3958 66.608 45.4678 67.68 45.4678 69.76C45.4678 71.84 46.3798 72.912 47.8678 72.912ZM55.2253 74C54.2333 74 53.5613 73.52 53.5613 72.4V62.64H54.9053V72.288C54.9053 72.64 55.0813 72.816 55.4333 72.816H56.1693V74H55.2253ZM61.0451 74.192C58.6451 74.192 57.1571 72.448 57.1571 69.76C57.1571 67.072 58.6451 65.328 60.9811 65.328C63.1891 65.328 64.7251 66.928 64.7251 69.776V70.176H58.5651C58.6611 72 59.5731 72.912 61.0451 72.912C62.1491 72.912 62.8691 72.352 63.1571 71.488L64.5971 71.6C64.1491 73.12 62.8371 74.192 61.0451 74.192ZM58.5651 68.992H63.2531C63.1251 67.36 62.2291 66.608 60.9811 66.608C59.6691 66.608 58.7891 67.424 58.5651 68.992ZM69.6336 74.192C67.2976 74.192 66.0976 72.992 65.9696 71.328L67.3776 71.232C67.5376 72.256 68.1296 72.912 69.6336 72.912C70.7856 72.912 71.4416 72.56 71.4416 71.728C71.4416 71.056 71.1056 70.768 69.3776 70.448C67.0096 70 66.3056 69.264 66.3056 67.92C66.3056 66.416 67.4736 65.328 69.5216 65.328C71.7616 65.328 72.7056 66.672 72.8816 68.048L71.4736 68.144C71.3936 67.344 70.8816 66.608 69.4896 66.608C68.2736 66.608 67.7136 67.136 67.7136 67.856C67.7136 68.688 68.1456 69.008 69.6336 69.264C72.1296 69.696 72.8496 70.384 72.8496 71.728C72.8496 73.296 71.5056 74.192 69.6336 74.192ZM74.2821 74V72.192H76.0901V74H74.2821ZM86.2689 74V62.64H87.6449V74H86.2689ZM94.3894 74V65.52H95.6214L95.6534 67.04C96.1014 65.872 97.0934 65.328 98.2614 65.328C100.197 65.328 101.125 66.752 101.125 68.544V74H99.7814V68.928C99.7814 67.36 99.2534 66.512 97.9734 66.512C96.6614 66.512 95.7334 67.36 95.7334 68.928V74H94.3894ZM106.811 74.192C104.411 74.192 102.923 72.448 102.923 69.76C102.923 67.072 104.411 65.328 106.747 65.328C108.955 65.328 110.491 66.928 110.491 69.776V70.176H104.331C104.427 72 105.339 72.912 106.811 72.912C107.915 72.912 108.635 72.352 108.923 71.488L110.363 71.6C109.915 73.12 108.603 74.192 106.811 74.192ZM104.331 68.992H109.019C108.891 67.36 107.995 66.608 106.747 66.608C105.435 66.608 104.555 67.424 104.331 68.992ZM115.623 74.192C113.223 74.192 111.735 72.448 111.735 69.76C111.735 67.072 113.223 65.328 115.559 65.328C117.767 65.328 119.303 66.928 119.303 69.776V70.176H113.143C113.239 72 114.151 72.912 115.623 72.912C116.727 72.912 117.447 72.352 117.735 71.488L119.175 71.6C118.727 73.12 117.415 74.192 115.623 74.192ZM113.143 68.992H117.831C117.703 67.36 116.807 66.608 115.559 66.608C114.247 66.608 113.367 67.424 113.143 68.992ZM124.132 74.192C121.924 74.192 120.548 72.48 120.548 69.76C120.548 67.04 121.924 65.328 124.132 65.328C125.268 65.328 126.276 65.84 126.74 66.704V62.64H128.084V74H126.868L126.82 72.72C126.34 73.648 125.316 74.192 124.132 74.192ZM124.404 72.912C125.908 72.912 126.74 71.696 126.74 69.76C126.74 67.792 125.908 66.608 124.404 66.608C122.916 66.608 121.956 67.792 121.956 69.76C121.956 71.696 122.916 72.912 124.404 72.912ZM136.927 74.192C135.167 74.192 134.063 73.344 134.063 71.888C134.063 70.448 134.879 69.648 136.735 69.296L139.743 68.736C139.743 67.312 139.071 66.608 137.727 66.608C136.543 66.608 135.887 67.152 135.631 68.128L134.207 68.016C134.527 66.416 135.807 65.328 137.727 65.328C139.903 65.328 141.087 66.64 141.087 68.784V72.288C141.087 72.672 141.215 72.816 141.535 72.816H141.871V74C141.775 74.016 141.567 74.032 141.359 74.032C140.335 74.032 139.871 73.632 139.759 72.688C139.343 73.568 138.175 74.192 136.927 74.192ZM137.055 73.008C138.751 73.008 139.743 71.92 139.743 70.512V69.904L136.991 70.416C135.839 70.624 135.471 71.056 135.471 71.76C135.471 72.56 136.063 73.008 137.055 73.008ZM148.284 74V66.704H147.132V65.52H148.284V64.752C148.284 63.504 148.988 62.64 150.524 62.64H151.868V63.824H150.62C149.948 63.824 149.628 64.208 149.628 64.848V65.52H151.756V66.704H149.628V74H148.284ZM156.373 74.192C153.973 74.192 152.485 72.448 152.485 69.76C152.485 67.072 153.973 65.328 156.309 65.328C158.517 65.328 160.053 66.928 160.053 69.776V70.176H153.893C153.989 72 154.901 72.912 156.373 72.912C157.477 72.912 158.197 72.352 158.485 71.488L159.925 71.6C159.477 73.12 158.165 74.192 156.373 74.192ZM153.893 68.992H158.581C158.453 67.36 157.557 66.608 156.309 66.608C154.997 66.608 154.117 67.424 153.893 68.992ZM163.32 74L160.696 65.52H162.168L164.152 72.592L166.168 65.52H167.608L169.624 72.592L171.624 65.52H173.096L170.472 74H168.776L166.888 67.552L165 74H163.32ZM178.733 76.4V65.52H179.981L179.997 66.816C180.509 65.84 181.453 65.328 182.605 65.328C185.133 65.328 186.269 67.424 186.269 69.76C186.269 72.096 185.133 74.192 182.605 74.192C181.501 74.192 180.525 73.696 180.077 72.88V76.4H178.733ZM182.477 72.912C183.949 72.912 184.861 71.744 184.861 69.76C184.861 67.776 183.949 66.608 182.477 66.608C181.005 66.608 180.077 67.68 180.077 69.76C180.077 71.84 180.989 72.912 182.477 72.912ZM188.093 74V65.52H189.277L189.325 67.088C189.629 66.016 190.301 65.52 191.341 65.52H192.173V66.8H191.357C190.077 66.8 189.437 67.488 189.437 68.88V74H188.093ZM196.826 74.192C194.474 74.192 192.938 72.464 192.938 69.76C192.938 67.056 194.474 65.328 196.826 65.328C199.162 65.328 200.698 67.056 200.698 69.76C200.698 72.464 199.162 74.192 196.826 74.192ZM196.826 72.912C198.378 72.912 199.29 71.728 199.29 69.76C199.29 67.792 198.378 66.608 196.826 66.608C195.258 66.608 194.346 67.792 194.346 69.76C194.346 71.728 195.258 72.912 196.826 72.912ZM205.538 74.192C203.33 74.192 201.954 72.48 201.954 69.76C201.954 67.04 203.33 65.328 205.538 65.328C206.674 65.328 207.682 65.84 208.146 66.704V62.64H209.49V74H208.274L208.226 72.72C207.746 73.648 206.722 74.192 205.538 74.192ZM205.81 72.912C207.314 72.912 208.146 71.696 208.146 69.76C208.146 67.792 207.314 66.608 205.81 66.608C204.322 66.608 203.362 67.792 203.362 69.76C203.362 71.696 204.322 72.912 205.81 72.912ZM214.517 74.192C212.821 74.192 211.733 72.992 211.733 70.976V65.52H213.077V70.608C213.077 72.256 213.653 73.008 214.869 73.008C216.213 73.008 217.029 72.096 217.029 70.576V65.52H218.373V74H217.093V72.624C216.629 73.632 215.733 74.192 214.517 74.192ZM224.092 74.192C221.724 74.192 220.204 72.448 220.204 69.76C220.204 67.072 221.724 65.328 224.092 65.328C226.044 65.328 227.404 66.384 227.692 68.272L226.284 68.368C226.092 67.248 225.244 66.608 224.092 66.608C222.524 66.608 221.612 67.792 221.612 69.76C221.612 71.728 222.524 72.912 224.092 72.912C225.244 72.912 226.092 72.272 226.284 70.992L227.692 71.088C227.404 72.976 226.044 74.192 224.092 74.192ZM232.134 74C230.598 74 229.878 73.328 229.878 71.824V66.704H228.63V65.52H229.878V63.536H231.222V65.52H233.478V66.704H231.222V71.792C231.222 72.56 231.558 72.816 232.262 72.816H233.478V74H232.134ZM242.304 74.192C240.096 74.192 238.72 72.48 238.72 69.76C238.72 67.04 240.096 65.328 242.304 65.328C243.44 65.328 244.448 65.84 244.912 66.704V62.64H246.256V74H245.04L244.992 72.72C244.512 73.648 243.488 74.192 242.304 74.192ZM242.576 72.912C244.08 72.912 244.912 71.696 244.912 69.76C244.912 67.792 244.08 66.608 242.576 66.608C241.088 66.608 240.128 67.792 240.128 69.76C240.128 71.696 241.088 72.912 242.576 72.912ZM251.967 74.192C249.567 74.192 248.079 72.448 248.079 69.76C248.079 67.072 249.567 65.328 251.903 65.328C254.111 65.328 255.647 66.928 255.647 69.776V70.176H249.487C249.583 72 250.495 72.912 251.967 72.912C253.071 72.912 253.791 72.352 254.079 71.488L255.519 71.6C255.071 73.12 253.759 74.192 251.967 74.192ZM249.487 68.992H254.175C254.047 67.36 253.151 66.608 251.903 66.608C250.591 66.608 249.711 67.424 249.487 68.992ZM260.243 74C258.707 74 257.987 73.328 257.987 71.824V66.704H256.739V65.52H257.987V63.536H259.331V65.52H261.587V66.704H259.331V71.792C259.331 72.56 259.667 72.816 260.371 72.816H261.587V74H260.243ZM265.537 74.192C263.777 74.192 262.673 73.344 262.673 71.888C262.673 70.448 263.489 69.648 265.345 69.296L268.353 68.736C268.353 67.312 267.681 66.608 266.337 66.608C265.153 66.608 264.497 67.152 264.241 68.128L262.817 68.016C263.137 66.416 264.417 65.328 266.337 65.328C268.513 65.328 269.697 66.64 269.697 68.784V72.288C269.697 72.672 269.825 72.816 270.145 72.816H270.481V74C270.385 74.016 270.177 74.032 269.969 74.032C268.945 74.032 268.481 73.632 268.369 72.688C267.953 73.568 266.785 74.192 265.537 74.192ZM265.665 73.008C267.361 73.008 268.353 71.92 268.353 70.512V69.904L265.601 70.416C264.449 70.624 264.081 71.056 264.081 71.76C264.081 72.56 264.673 73.008 265.665 73.008ZM271.904 64.192V62.624H273.312V64.192H271.904ZM271.936 74V65.52H273.28V74H271.936ZM277.35 74C276.358 74 275.686 73.52 275.686 72.4V62.64H277.03V72.288C277.03 72.64 277.206 72.816 277.558 72.816H278.294V74H277.35ZM282.946 74.192C280.61 74.192 279.41 72.992 279.282 71.328L280.69 71.232C280.85 72.256 281.442 72.912 282.946 72.912C284.098 72.912 284.754 72.56 284.754 71.728C284.754 71.056 284.418 70.768 282.69 70.448C280.322 70 279.618 69.264 279.618 67.92C279.618 66.416 280.786 65.328 282.834 65.328C285.074 65.328 286.018 66.672 286.194 68.048L284.786 68.144C284.706 67.344 284.194 66.608 282.802 66.608C281.586 66.608 281.026 67.136 281.026 67.856C281.026 68.688 281.458 69.008 282.946 69.264C285.442 69.696 286.162 70.384 286.162 71.728C286.162 73.296 284.818 74.192 282.946 74.192ZM293.003 74V66.704H291.851V65.52H293.003V64.752C293.003 63.504 293.707 62.64 295.243 62.64H296.587V63.824H295.339C294.667 63.824 294.347 64.208 294.347 64.848V65.52H296.475V66.704H294.347V74H293.003ZM297.999 74V65.52H299.183L299.231 67.088C299.535 66.016 300.207 65.52 301.247 65.52H302.079V66.8H301.263C299.983 66.8 299.343 67.488 299.343 68.88V74H297.999ZM306.733 74.192C304.381 74.192 302.845 72.464 302.845 69.76C302.845 67.056 304.381 65.328 306.733 65.328C309.069 65.328 310.605 67.056 310.605 69.76C310.605 72.464 309.069 74.192 306.733 74.192ZM306.733 72.912C308.285 72.912 309.197 71.728 309.197 69.76C309.197 67.792 308.285 66.608 306.733 66.608C305.165 66.608 304.253 67.792 304.253 69.76C304.253 71.728 305.165 72.912 306.733 72.912ZM312.436 74V65.52H313.668L313.7 67.008C314.116 65.968 314.996 65.328 316.084 65.328C317.364 65.328 318.26 65.968 318.628 67.104C318.996 65.968 319.86 65.328 321.108 65.328C322.916 65.328 323.908 66.496 323.908 68.544V74H322.564V68.832C322.564 67.296 321.956 66.512 320.788 66.512C319.604 66.512 318.836 67.408 318.836 68.928V74H317.492V68.928C317.492 67.424 316.996 66.512 315.748 66.512C314.564 66.512 313.78 67.424 313.78 68.928V74H312.436ZM330.836 76.4V75.216H331.812C332.404 75.216 332.644 75.04 332.804 74.64L333.108 73.84H332.644L329.54 65.52H331.012L333.54 72.592L335.956 65.52H337.428L333.988 75.072C333.668 75.984 333.076 76.4 331.94 76.4H330.836ZM341.951 74.192C339.599 74.192 338.063 72.464 338.063 69.76C338.063 67.056 339.599 65.328 341.951 65.328C344.287 65.328 345.823 67.056 345.823 69.76C345.823 72.464 344.287 74.192 341.951 74.192ZM341.951 72.912C343.503 72.912 344.415 71.728 344.415 69.76C344.415 67.792 343.503 66.608 341.951 66.608C340.383 66.608 339.471 67.792 339.471 69.76C339.471 71.728 340.383 72.912 341.951 72.912ZM350.439 74.192C348.743 74.192 347.655 72.992 347.655 70.976V65.52H348.999V70.608C348.999 72.256 349.575 73.008 350.791 73.008C352.135 73.008 352.951 72.096 352.951 70.576V65.52H354.295V74H353.015V72.624C352.551 73.632 351.655 74.192 350.439 74.192ZM366.506 64.192V62.624H367.914V64.192H366.506ZM361.69 74V66.704H360.538V65.52H361.69V64.752C361.69 63.504 362.394 62.64 363.93 62.64H365.274V63.824H364.026C363.354 63.824 363.034 64.208 363.034 64.848V65.52H365.162V66.704H363.034V74H361.69ZM366.538 74V65.52H367.882V74H366.538ZM370.53 74V65.52H371.714L371.762 67.088C372.066 66.016 372.738 65.52 373.778 65.52H374.61V66.8H373.794C372.514 66.8 371.874 67.488 371.874 68.88V74H370.53ZM379.04 74.192C376.704 74.192 375.504 72.992 375.376 71.328L376.784 71.232C376.944 72.256 377.536 72.912 379.04 72.912C380.192 72.912 380.848 72.56 380.848 71.728C380.848 71.056 380.512 70.768 378.784 70.448C376.416 70 375.712 69.264 375.712 67.92C375.712 66.416 376.88 65.328 378.928 65.328C381.168 65.328 382.112 66.672 382.288 68.048L380.88 68.144C380.8 67.344 380.288 66.608 378.896 66.608C377.68 66.608 377.12 67.136 377.12 67.856C377.12 68.688 377.552 69.008 379.04 69.264C381.536 69.696 382.256 70.384 382.256 71.728C382.256 73.296 380.912 74.192 379.04 74.192ZM386.884 74C385.348 74 384.628 73.328 384.628 71.824V66.704H383.38V65.52H384.628V63.536H385.972V65.52H388.228V66.704H385.972V71.792C385.972 72.56 386.308 72.816 387.012 72.816H388.228V74H386.884ZM389.876 74V72.192H391.684V74H389.876Z" fill="#1E2939"/>
<defs>
<linearGradient id="paint0_linear_6889_39353" x1="0" y1="44" x2="480" y2="44" gradientUnits="userSpaceOnUse">
<stop stop-color="#EEF2F0"/>
<stop offset="1" stop-color="#D0DAD2"/>
</linearGradient>
</defs>
</svg>
