<svg width="332" height="40" viewBox="0 0 332 40" fill="none" xmlns="http://www.w3.org/2000/svg">
<rect x="0.5" y="0.5" width="331" height="39" rx="7.5" fill="#FFFEFC"/>
<rect x="0.5" y="0.5" width="331" height="39" rx="7.5" stroke="#C1C5CD"/>
<path d="M15.92 26V21.36L11.904 14.64H13.536L16.608 19.952L19.68 14.64H21.312L17.296 21.36V26H15.92ZM24.6858 26.192C22.2858 26.192 20.7978 24.448 20.7978 21.76C20.7978 19.072 22.2858 17.328 24.6218 17.328C26.8298 17.328 28.3658 18.928 28.3658 21.776V22.176H22.2057C22.3018 24 23.2138 24.912 24.6858 24.912C25.7898 24.912 26.5098 24.352 26.7978 23.488L28.2378 23.6C27.7898 25.12 26.4778 26.192 24.6858 26.192ZM22.2057 20.992H26.8938C26.7658 19.36 25.8698 18.608 24.6218 18.608C23.3098 18.608 22.4298 19.424 22.2057 20.992ZM33.2743 26.192C30.9383 26.192 29.7383 24.992 29.6103 23.328L31.0182 23.232C31.1783 24.256 31.7703 24.912 33.2743 24.912C34.4263 24.912 35.0823 24.56 35.0823 23.728C35.0823 23.056 34.7463 22.768 33.0182 22.448C30.6503 22 29.9463 21.264 29.9463 19.92C29.9463 18.416 31.1143 17.328 33.1623 17.328C35.4023 17.328 36.3463 18.672 36.5223 20.048L35.1143 20.144C35.0343 19.344 34.5223 18.608 33.1302 18.608C31.9143 18.608 31.3543 19.136 31.3543 19.856C31.3543 20.688 31.7863 21.008 33.2743 21.264C35.7703 21.696 36.4903 22.384 36.4903 23.728C36.4903 25.296 35.1463 26.192 33.2743 26.192ZM42.4988 28.4V17.52H43.7468L43.7628 18.816C44.2748 17.84 45.2188 17.328 46.3708 17.328C48.8988 17.328 50.0347 19.424 50.0347 21.76C50.0347 24.096 48.8988 26.192 46.3708 26.192C45.2668 26.192 44.2908 25.696 43.8428 24.88V28.4H42.4988ZM46.2428 24.912C47.7148 24.912 48.6268 23.744 48.6268 21.76C48.6268 19.776 47.7148 18.608 46.2428 18.608C44.7708 18.608 43.8428 19.68 43.8428 21.76C43.8428 23.84 44.7548 24.912 46.2428 24.912ZM53.6003 26C52.6083 26 51.9363 25.52 51.9363 24.4V14.64H53.2803V24.288C53.2803 24.64 53.4563 24.816 53.8083 24.816H54.5443V26H53.6003ZM59.4201 26.192C57.0201 26.192 55.5321 24.448 55.5321 21.76C55.5321 19.072 57.0201 17.328 59.3561 17.328C61.5641 17.328 63.1001 18.928 63.1001 21.776V22.176H56.9401C57.0361 24 57.9481 24.912 59.4201 24.912C60.5241 24.912 61.2441 24.352 61.5321 23.488L62.9721 23.6C62.5241 25.12 61.2121 26.192 59.4201 26.192ZM56.9401 20.992H61.6281C61.5001 19.36 60.6041 18.608 59.3561 18.608C58.0441 18.608 57.1641 19.424 56.9401 20.992ZM67.4274 26.192C65.6674 26.192 64.5634 25.344 64.5634 23.888C64.5634 22.448 65.3794 21.648 67.2354 21.296L70.2434 20.736C70.2434 19.312 69.5714 18.608 68.2274 18.608C67.0434 18.608 66.3874 19.152 66.1314 20.128L64.7074 20.016C65.0274 18.416 66.3074 17.328 68.2274 17.328C70.4034 17.328 71.5874 18.64 71.5874 20.784V24.288C71.5874 24.672 71.7154 24.816 72.0354 24.816H72.3714V26C72.2754 26.016 72.0674 26.032 71.8594 26.032C70.8354 26.032 70.3714 25.632 70.2594 24.688C69.8434 25.568 68.6754 26.192 67.4274 26.192ZM67.5554 25.008C69.2514 25.008 70.2434 23.92 70.2434 22.512V21.904L67.4914 22.416C66.3394 22.624 65.9714 23.056 65.9714 23.76C65.9714 24.56 66.5634 25.008 67.5554 25.008ZM76.9461 26.192C74.6101 26.192 73.4101 24.992 73.2821 23.328L74.6901 23.232C74.8501 24.256 75.4421 24.912 76.9461 24.912C78.0981 24.912 78.7541 24.56 78.7541 23.728C78.7541 23.056 78.4181 22.768 76.6901 22.448C74.3221 22 73.6181 21.264 73.6181 19.92C73.6181 18.416 74.7861 17.328 76.8341 17.328C79.0741 17.328 80.0181 18.672 80.1941 20.048L78.7861 20.144C78.7061 19.344 78.1941 18.608 76.8021 18.608C75.5861 18.608 75.0261 19.136 75.0261 19.856C75.0261 20.688 75.4581 21.008 76.9461 21.264C79.4421 21.696 80.1621 22.384 80.1621 23.728C80.1621 25.296 78.8181 26.192 76.9461 26.192ZM85.3264 26.192C82.9264 26.192 81.4384 24.448 81.4384 21.76C81.4384 19.072 82.9264 17.328 85.2624 17.328C87.4704 17.328 89.0064 18.928 89.0064 21.776V22.176H82.8464C82.9424 24 83.8544 24.912 85.3264 24.912C86.4304 24.912 87.1504 24.352 87.4384 23.488L88.8784 23.6C88.4304 25.12 87.1184 26.192 85.3264 26.192ZM82.8464 20.992H87.5344C87.4064 19.36 86.5104 18.608 85.2624 18.608C83.9504 18.608 83.0704 19.424 82.8464 20.992ZM90.4551 28.496L91.2231 26H90.4071V24.192H92.2151V25.776L91.2551 28.496H90.4551ZM101.514 26.192C99.1459 26.192 97.6259 24.448 97.6259 21.76C97.6259 19.072 99.1459 17.328 101.514 17.328C103.466 17.328 104.826 18.384 105.114 20.272L103.706 20.368C103.514 19.248 102.666 18.608 101.514 18.608C99.9459 18.608 99.0339 19.792 99.0339 21.76C99.0339 23.728 99.9459 24.912 101.514 24.912C102.666 24.912 103.514 24.272 103.706 22.992L105.114 23.088C104.826 24.976 103.466 26.192 101.514 26.192ZM109.287 26.192C107.527 26.192 106.423 25.344 106.423 23.888C106.423 22.448 107.239 21.648 109.095 21.296L112.103 20.736C112.103 19.312 111.431 18.608 110.087 18.608C108.903 18.608 108.247 19.152 107.991 20.128L106.567 20.016C106.887 18.416 108.167 17.328 110.087 17.328C112.263 17.328 113.447 18.64 113.447 20.784V24.288C113.447 24.672 113.575 24.816 113.895 24.816H114.231V26C114.135 26.016 113.927 26.032 113.719 26.032C112.695 26.032 112.231 25.632 112.119 24.688C111.703 25.568 110.535 26.192 109.287 26.192ZM109.415 25.008C111.111 25.008 112.103 23.92 112.103 22.512V21.904L109.351 22.416C108.199 22.624 107.831 23.056 107.831 23.76C107.831 24.56 108.423 25.008 109.415 25.008ZM115.749 26V17.52H116.981L117.013 19.04C117.461 17.872 118.453 17.328 119.621 17.328C121.557 17.328 122.485 18.752 122.485 20.544V26H121.141V20.928C121.141 19.36 120.613 18.512 119.333 18.512C118.021 18.512 117.093 19.36 117.093 20.928V26H115.749ZM129.414 28.4V27.216H130.39C130.982 27.216 131.222 27.04 131.382 26.64L131.686 25.84H131.222L128.118 17.52H129.59L132.118 24.592L134.534 17.52H136.006L132.566 27.072C132.246 27.984 131.654 28.4 130.518 28.4H129.414ZM140.53 26.192C138.178 26.192 136.642 24.464 136.642 21.76C136.642 19.056 138.178 17.328 140.53 17.328C142.866 17.328 144.402 19.056 144.402 21.76C144.402 24.464 142.866 26.192 140.53 26.192ZM140.53 24.912C142.082 24.912 142.994 23.728 142.994 21.76C142.994 19.792 142.082 18.608 140.53 18.608C138.962 18.608 138.049 19.792 138.049 21.76C138.049 23.728 138.962 24.912 140.53 24.912ZM149.017 26.192C147.321 26.192 146.233 24.992 146.233 22.976V17.52H147.577V22.608C147.577 24.256 148.153 25.008 149.369 25.008C150.713 25.008 151.529 24.096 151.529 22.576V17.52H152.873V26H151.593V24.624C151.129 25.632 150.233 26.192 149.017 26.192ZM165.084 16.192V14.624H166.492V16.192H165.084ZM160.268 26V18.704H159.116V17.52H160.268V16.752C160.268 15.504 160.972 14.64 162.508 14.64H163.852V15.824H162.604C161.932 15.824 161.612 16.208 161.612 16.848V17.52H163.74V18.704H161.612V26H160.268ZM165.116 26V17.52H166.46V26H165.116ZM170.522 26C169.53 26 168.858 25.52 168.858 24.4V14.64H170.202V24.288C170.202 24.64 170.378 24.816 170.73 24.816H171.466V26H170.522ZM174.632 26C173.64 26 172.968 25.52 172.968 24.4V14.64H174.312V24.288C174.312 24.64 174.488 24.816 174.84 24.816H175.576V26H174.632ZM184.337 26C182.801 26 182.081 25.328 182.081 23.824V18.704H180.833V17.52H182.081V15.536H183.425V17.52H185.681V18.704H183.425V23.792C183.425 24.56 183.761 24.816 184.465 24.816H185.681V26H184.337ZM187.249 26V14.64H188.593V18.848C189.025 17.808 189.985 17.328 191.153 17.328C192.977 17.328 193.985 18.656 193.985 20.544V26H192.641V20.928C192.641 19.296 192.049 18.512 190.865 18.512C189.489 18.512 188.593 19.376 188.593 20.944V26H187.249ZM199.67 26.192C197.27 26.192 195.782 24.448 195.782 21.76C195.782 19.072 197.27 17.328 199.606 17.328C201.814 17.328 203.35 18.928 203.35 21.776V22.176L197.19 22.176C197.286 24 198.198 24.912 199.67 24.912C200.774 24.912 201.494 24.352 201.782 23.488L203.222 23.6C202.774 25.12 201.462 26.192 199.67 26.192ZM197.19 20.992L201.878 20.992C201.75 19.36 200.854 18.608 199.606 18.608C198.294 18.608 197.414 19.424 197.19 20.992ZM210.159 26V18.704H209.007V17.52H210.159V16.752C210.159 15.504 210.863 14.64 212.399 14.64H213.743V15.824H212.495C211.823 15.824 211.503 16.208 211.503 16.848V17.52H213.631V18.704H211.503V26H210.159ZM218.248 26.192C215.896 26.192 214.36 24.464 214.36 21.76C214.36 19.056 215.896 17.328 218.248 17.328C220.584 17.328 222.12 19.056 222.12 21.76C222.12 24.464 220.584 26.192 218.248 26.192ZM218.248 24.912C219.8 24.912 220.712 23.728 220.712 21.76C220.712 19.792 219.8 18.608 218.248 18.608C216.68 18.608 215.768 19.792 215.768 21.76C215.768 23.728 216.68 24.912 218.248 24.912ZM223.952 26V17.52H225.136L225.184 19.088C225.488 18.016 226.16 17.52 227.2 17.52H228.032V18.8H227.216C225.936 18.8 225.296 19.488 225.296 20.88V26H223.952ZM229.374 26V17.52H230.606L230.638 19.008C231.054 17.968 231.934 17.328 233.022 17.328C234.302 17.328 235.198 17.968 235.566 19.104C235.934 17.968 236.798 17.328 238.046 17.328C239.854 17.328 240.846 18.496 240.846 20.544V26H239.502V20.832C239.502 19.296 238.894 18.512 237.726 18.512C236.542 18.512 235.774 19.408 235.774 20.928V26H234.43V20.928C234.43 19.424 233.934 18.512 232.686 18.512C231.502 18.512 230.718 19.424 230.718 20.928V26H229.374ZM247.373 16.192V14.624H248.781V16.192H247.373ZM247.405 26V17.52H248.749V26H247.405ZM251.405 26V17.52H252.637L252.669 19.04C253.117 17.872 254.109 17.328 255.277 17.328C257.213 17.328 258.141 18.752 258.141 20.544V26H256.797V20.928C256.797 19.36 256.269 18.512 254.989 18.512C253.677 18.512 252.749 19.36 252.749 20.928V26H251.405ZM265.534 26V18.704H264.382V17.52H265.534V16.752C265.534 15.504 266.238 14.64 267.774 14.64H269.118V15.824H267.87C267.198 15.824 266.878 16.208 266.878 16.848V17.52H269.006V18.704H266.878V26H265.534ZM273.623 26.192C271.271 26.192 269.735 24.464 269.735 21.76C269.735 19.056 271.271 17.328 273.623 17.328C275.959 17.328 277.495 19.056 277.495 21.76C277.495 24.464 275.959 26.192 273.623 26.192ZM273.623 24.912C275.175 24.912 276.087 23.728 276.087 21.76C276.087 19.792 275.175 18.608 273.623 18.608C272.055 18.608 271.143 19.792 271.143 21.76C271.143 23.728 272.055 24.912 273.623 24.912ZM279.327 26V17.52H280.511L280.559 19.088C280.863 18.016 281.535 17.52 282.575 17.52H283.407V18.8H282.591C281.311 18.8 280.671 19.488 280.671 20.88V26H279.327ZM289.389 26V17.52H290.621L290.653 19.008C291.069 17.968 291.949 17.328 293.037 17.328C294.317 17.328 295.213 17.968 295.581 19.104C295.949 17.968 296.813 17.328 298.061 17.328C299.869 17.328 300.861 18.496 300.861 20.544V26H299.517V20.832C299.517 19.296 298.909 18.512 297.741 18.512C296.557 18.512 295.789 19.408 295.789 20.928V26H294.445V20.928C294.445 19.424 293.949 18.512 292.701 18.512C291.517 18.512 290.733 19.424 290.733 20.928V26H289.389ZM306.545 26.192C304.145 26.192 302.657 24.448 302.657 21.76C302.657 19.072 304.145 17.328 306.481 17.328C308.689 17.328 310.225 18.928 310.225 21.776V22.176H304.065C304.161 24 305.073 24.912 306.545 24.912C307.649 24.912 308.369 24.352 308.657 23.488L310.097 23.6C309.649 25.12 308.337 26.192 306.545 26.192ZM304.065 20.992H308.753C308.625 19.36 307.729 18.608 306.481 18.608C305.169 18.608 304.289 19.424 304.065 20.992ZM314.025 22.784C314.025 21.248 314.473 20.448 315.577 19.76C316.825 18.992 317.081 18.608 317.081 17.648C317.081 16.544 316.297 15.728 315.001 15.728C313.417 15.728 312.585 16.56 312.425 18.096L310.985 18C311.177 15.888 312.665 14.384 315.001 14.384C317.081 14.384 318.521 15.744 318.521 17.648C318.521 18.992 317.881 19.696 316.505 20.592C315.641 21.152 315.401 21.664 315.401 22.784H314.025ZM313.769 26V24.192H315.577V26H313.769Z" fill="#1E2939"/>
</svg>
