<svg width="508" height="160" viewBox="0 0 508 160" fill="none" xmlns="http://www.w3.org/2000/svg">
<rect x="0.5" y="0.5" width="507" height="159" rx="7.5" fill="url(#paint0_linear_6908_39498)"/>
<rect x="0.5" y="0.5" width="507" height="159" rx="7.5" stroke="#BF69A6"/>
<path d="M17.792 26.256C14.592 26.256 12.72 23.76 12.72 20.336C12.72 16.928 14.624 14.384 17.824 14.384C20.544 14.384 21.952 16.016 22.368 18.128L20.928 18.224C20.64 16.752 19.76 15.728 17.824 15.728C15.232 15.728 14.16 17.872 14.16 20.336C14.16 22.928 15.28 24.912 17.824 24.912C19.84 24.912 21.088 23.376 21.12 21.568H17.856V20.256H22.4V26H21.376L21.312 24.096C20.752 25.376 19.344 26.256 17.792 26.256ZM24.4831 26V17.52H25.6671L25.7151 19.088C26.0191 18.016 26.6911 17.52 27.7311 17.52H28.5631V18.8H27.7471C26.4671 18.8 25.8271 19.488 25.8271 20.88V26H24.4831ZM33.217 26.192C30.817 26.192 29.329 24.448 29.329 21.76C29.329 19.072 30.817 17.328 33.153 17.328C35.361 17.328 36.897 18.928 36.897 21.776V22.176H30.737C30.833 24 31.745 24.912 33.217 24.912C34.321 24.912 35.041 24.352 35.329 23.488L36.769 23.6C36.321 25.12 35.009 26.192 33.217 26.192ZM30.737 20.992H35.425C35.297 19.36 34.401 18.608 33.153 18.608C31.841 18.608 30.961 19.424 30.737 20.992ZM41.2243 26.192C39.4643 26.192 38.3603 25.344 38.3603 23.888C38.3603 22.448 39.1763 21.648 41.0323 21.296L44.0403 20.736C44.0403 19.312 43.3683 18.608 42.0243 18.608C40.8403 18.608 40.1843 19.152 39.9283 20.128L38.5043 20.016C38.8243 18.416 40.1043 17.328 42.0243 17.328C44.2003 17.328 45.3843 18.64 45.3843 20.784V24.288C45.3843 24.672 45.5123 24.816 45.8323 24.816H46.1683V26C46.0723 26.016 45.8643 26.032 45.6562 26.032C44.6323 26.032 44.1683 25.632 44.0563 24.688C43.6403 25.568 42.4723 26.192 41.2243 26.192ZM41.3523 25.008C43.0483 25.008 44.0403 23.92 44.0403 22.512V21.904L41.2883 22.416C40.1363 22.624 39.7682 23.056 39.7682 23.76C39.7682 24.56 40.3603 25.008 41.3523 25.008ZM50.0559 26C48.5199 26 47.7999 25.328 47.7999 23.824V18.704H46.5519V17.52H47.7999V15.536H49.1439V17.52H51.3999V18.704H49.1439V23.792C49.1439 24.56 49.4799 24.816 50.1839 24.816H51.3999V26H50.0559ZM53.0958 28.496L53.8638 26H53.0478V24.192H54.8558V25.776L53.8958 28.496H53.0958ZM61.0345 26V14.64H62.4105V26H61.0345ZM64.643 18.944L65.411 16.448H64.595V14.64H66.403V16.224L65.443 18.944H64.643ZM70.565 26L67.477 17.52H68.949L71.413 24.624L73.877 17.52H75.349L72.261 26H70.565ZM79.8733 26.192C77.4733 26.192 75.9853 24.448 75.9853 21.76C75.9853 19.072 77.4733 17.328 79.8093 17.328C82.0173 17.328 83.5533 18.928 83.5533 21.776V22.176H77.3932C77.4893 24 78.4013 24.912 79.8733 24.912C80.9773 24.912 81.6973 24.352 81.9853 23.488L83.4253 23.6C82.9773 25.12 81.6653 26.192 79.8733 26.192ZM77.3932 20.992H82.0813C81.9533 19.36 81.0573 18.608 79.8093 18.608C78.4973 18.608 77.6173 19.424 77.3932 20.992ZM89.53 26V17.52H90.762L90.794 19.04C91.242 17.872 92.234 17.328 93.402 17.328C95.338 17.328 96.266 18.752 96.266 20.544V26L94.922 26V20.928C94.922 19.36 94.394 18.512 93.114 18.512C91.802 18.512 90.874 19.36 90.874 20.928V26H89.53ZM101.951 26.192C99.5994 26.192 98.0634 24.464 98.0634 21.76C98.0634 19.056 99.5994 17.328 101.951 17.328C104.287 17.328 105.823 19.056 105.823 21.76C105.823 24.464 104.287 26.192 101.951 26.192ZM101.951 24.912C103.503 24.912 104.415 23.728 104.415 21.76C104.415 19.792 103.503 18.608 101.951 18.608C100.383 18.608 99.4714 19.792 99.4714 21.76C99.4714 23.728 100.383 24.912 101.951 24.912ZM109.101 26L106.477 17.52H107.949L109.933 24.592L111.949 17.52H113.389L115.405 24.592L117.405 17.52H118.877L116.253 26H114.557L112.669 19.552L110.781 26H109.101ZM124.514 26V17.52H125.698L125.746 19.088C126.05 18.016 126.722 17.52 127.762 17.52H128.594V18.8H127.778C126.498 18.8 125.858 19.488 125.858 20.88V26H124.514ZM133.248 26.192C130.848 26.192 129.36 24.448 129.36 21.76C129.36 19.072 130.848 17.328 133.184 17.328C135.392 17.328 136.928 18.928 136.928 21.776V22.176H130.768C130.864 24 131.776 24.912 133.248 24.912C134.352 24.912 135.072 24.352 135.36 23.488L136.8 23.6C136.352 25.12 135.04 26.192 133.248 26.192ZM130.768 20.992H135.456C135.328 19.36 134.432 18.608 133.184 18.608C131.872 18.608 130.992 19.424 130.768 20.992ZM142.061 26.192C139.693 26.192 138.173 24.448 138.173 21.76C138.173 19.072 139.693 17.328 142.061 17.328C144.013 17.328 145.373 18.384 145.661 20.272L144.253 20.368C144.061 19.248 143.213 18.608 142.061 18.608C140.493 18.608 139.581 19.792 139.581 21.76C139.581 23.728 140.493 24.912 142.061 24.912C143.213 24.912 144.061 24.272 144.253 22.992L145.661 23.088C145.373 24.976 144.013 26.192 142.061 26.192ZM150.639 26.192C148.239 26.192 146.751 24.448 146.751 21.76C146.751 19.072 148.239 17.328 150.575 17.328C152.783 17.328 154.319 18.928 154.319 21.776V22.176H148.159C148.255 24 149.167 24.912 150.639 24.912C151.743 24.912 152.463 24.352 152.751 23.488L154.191 23.6C153.743 25.12 152.431 26.192 150.639 26.192ZM148.159 20.992H152.847C152.719 19.36 151.823 18.608 150.575 18.608C149.263 18.608 148.383 19.424 148.159 20.992ZM156.107 16.192V14.624H157.515V16.192H156.107ZM156.139 26V17.52H157.483V26H156.139ZM162.049 26L158.961 17.52H160.433L162.897 24.624L165.361 17.52H166.833L163.745 26H162.049ZM171.358 26.192C168.958 26.192 167.47 24.448 167.47 21.76C167.47 19.072 168.958 17.328 171.294 17.328C173.502 17.328 175.038 18.928 175.038 21.776V22.176H168.878C168.974 24 169.886 24.912 171.358 24.912C172.462 24.912 173.182 24.352 173.47 23.488L174.91 23.6C174.462 25.12 173.15 26.192 171.358 26.192ZM168.878 20.992H173.566C173.438 19.36 172.542 18.608 171.294 18.608C169.982 18.608 169.102 19.424 168.878 20.992ZM179.866 26.192C177.658 26.192 176.282 24.48 176.282 21.76C176.282 19.04 177.658 17.328 179.866 17.328C181.002 17.328 182.01 17.84 182.474 18.704V14.64H183.818V26H182.602L182.554 24.72C182.074 25.648 181.05 26.192 179.866 26.192ZM180.138 24.912C181.642 24.912 182.474 23.696 182.474 21.76C182.474 19.792 181.642 18.608 180.138 18.608C178.65 18.608 177.69 19.792 177.69 21.76C177.69 23.696 178.65 24.912 180.138 24.912ZM193.478 26C191.942 26 191.222 25.328 191.222 23.824V18.704H189.974V17.52H191.222V15.536H192.566V17.52H194.822V18.704H192.566V23.792C192.566 24.56 192.902 24.816 193.606 24.816H194.822V26H193.478ZM196.389 26V14.64H197.733V18.848C198.165 17.808 199.125 17.328 200.293 17.328C202.117 17.328 203.125 18.656 203.125 20.544V26H201.781V20.928C201.781 19.296 201.189 18.512 200.005 18.512C198.629 18.512 197.733 19.376 197.733 20.944V26H196.389ZM205.374 26V17.52H206.558L206.606 19.088C206.91 18.016 207.582 17.52 208.622 17.52H209.454V18.8H208.638C207.358 18.8 206.718 19.488 206.718 20.88V26H205.374ZM214.108 26.192C211.708 26.192 210.22 24.448 210.22 21.76C210.22 19.072 211.708 17.328 214.044 17.328C216.252 17.328 217.788 18.928 217.788 21.776V22.176H211.628C211.724 24 212.636 24.912 214.108 24.912C215.212 24.912 215.932 24.352 216.22 23.488L217.66 23.6C217.212 25.12 215.9 26.192 214.108 26.192ZM211.628 20.992H216.316C216.188 19.36 215.292 18.608 214.044 18.608C212.732 18.608 211.852 19.424 211.628 20.992ZM222.92 26.192C220.52 26.192 219.032 24.448 219.032 21.76C219.032 19.072 220.52 17.328 222.856 17.328C225.064 17.328 226.6 18.928 226.6 21.776V22.176L220.44 22.176C220.536 24 221.448 24.912 222.92 24.912C224.024 24.912 224.744 24.352 225.032 23.488L226.472 23.6C226.024 25.12 224.712 26.192 222.92 26.192ZM220.44 20.992L225.128 20.992C225 19.36 224.104 18.608 222.856 18.608C221.544 18.608 220.664 19.424 220.44 20.992ZM239.537 28.4H238.193V24.88C237.745 25.696 236.769 26.192 235.665 26.192C233.137 26.192 232.001 24.096 232.001 21.76C232.001 19.424 233.137 17.328 235.665 17.328C236.817 17.328 237.761 17.84 238.273 18.816L238.289 17.52H239.537V28.4ZM235.793 24.912C237.281 24.912 238.193 23.84 238.193 21.76C238.193 19.68 237.265 18.608 235.793 18.608C234.321 18.608 233.409 19.776 233.409 21.76C233.409 23.744 234.321 24.912 235.793 24.912ZM244.877 26.192C243.181 26.192 242.093 24.992 242.093 22.976V17.52H243.437V22.608C243.437 24.256 244.013 25.008 245.229 25.008C246.573 25.008 247.389 24.096 247.389 22.576V17.52H248.733V26H247.453V24.624C246.989 25.632 246.093 26.192 244.877 26.192ZM254.451 26.192C252.099 26.192 250.563 24.464 250.563 21.76C250.563 19.056 252.099 17.328 254.451 17.328C256.787 17.328 258.323 19.056 258.323 21.76C258.323 24.464 256.787 26.192 254.451 26.192ZM254.451 24.912C256.003 24.912 256.915 23.728 256.915 21.76C256.915 19.792 256.003 18.608 254.451 18.608C252.883 18.608 251.971 19.792 251.971 21.76C251.971 23.728 252.883 24.912 254.451 24.912ZM262.931 26C261.395 26 260.675 25.328 260.675 23.824V18.704H259.427V17.52H260.675V15.536H262.019V17.52H264.275V18.704H262.019V23.792C262.019 24.56 262.355 24.816 263.059 24.816H264.275V26H262.931ZM269.155 26.192C266.755 26.192 265.267 24.448 265.267 21.76C265.267 19.072 266.755 17.328 269.091 17.328C271.299 17.328 272.835 18.928 272.835 21.776V22.176H266.674C266.771 24 267.683 24.912 269.155 24.912C270.259 24.912 270.979 24.352 271.267 23.488L272.707 23.6C272.259 25.12 270.947 26.192 269.155 26.192ZM266.674 20.992H271.363C271.235 19.36 270.339 18.608 269.091 18.608C267.779 18.608 266.899 19.424 266.674 20.992ZM277.743 26.192C275.407 26.192 274.207 24.992 274.079 23.328L275.487 23.232C275.647 24.256 276.239 24.912 277.743 24.912C278.895 24.912 279.551 24.56 279.551 23.728C279.551 23.056 279.215 22.768 277.487 22.448C275.119 22 274.415 21.264 274.415 19.92C274.415 18.416 275.583 17.328 277.631 17.328C279.871 17.328 280.815 18.672 280.991 20.048L279.583 20.144C279.503 19.344 278.991 18.608 277.599 18.608C276.383 18.608 275.823 19.136 275.823 19.856C275.823 20.688 276.255 21.008 277.743 21.264C280.239 21.696 280.959 22.384 280.959 23.728C280.959 25.296 279.615 26.192 277.743 26.192ZM287.799 26V18.704H286.648V17.52H287.799V16.752C287.799 15.504 288.504 14.64 290.04 14.64H291.384V15.824H290.136C289.464 15.824 289.144 16.208 289.144 16.848V17.52H291.272V18.704H289.144V26H287.799ZM295.889 26.192C293.537 26.192 292.001 24.464 292.001 21.76C292.001 19.056 293.537 17.328 295.889 17.328C298.225 17.328 299.761 19.056 299.761 21.76C299.761 24.464 298.225 26.192 295.889 26.192ZM295.889 24.912C297.441 24.912 298.353 23.728 298.353 21.76C298.353 19.792 297.441 18.608 295.889 18.608C294.321 18.608 293.409 19.792 293.409 21.76C293.409 23.728 294.321 24.912 295.889 24.912ZM301.593 26V17.52H302.777L302.825 19.088C303.129 18.016 303.801 17.52 304.841 17.52H305.673V18.8H304.857C303.577 18.8 302.937 19.488 302.937 20.88V26H301.593ZM312.023 28.4V27.216H312.999C313.591 27.216 313.831 27.04 313.991 26.64L314.295 25.84H313.831L310.727 17.52H312.199L314.727 24.592L317.143 17.52H318.615L315.175 27.072C314.855 27.984 314.263 28.4 313.127 28.4H312.023ZM323.139 26.192C320.787 26.192 319.251 24.464 319.251 21.76C319.251 19.056 320.787 17.328 323.139 17.328C325.475 17.328 327.011 19.056 327.011 21.76C327.011 24.464 325.475 26.192 323.139 26.192ZM323.139 24.912C324.691 24.912 325.603 23.728 325.603 21.76C325.603 19.792 324.691 18.608 323.139 18.608C321.571 18.608 320.659 19.792 320.659 21.76C320.659 23.728 321.571 24.912 323.139 24.912ZM331.627 26.192C329.931 26.192 328.843 24.992 328.843 22.976V17.52H330.187V22.608C330.187 24.256 330.763 25.008 331.979 25.008C333.323 25.008 334.139 24.096 334.139 22.576V17.52H335.483V26H334.203V24.624C333.739 25.632 332.843 26.192 331.627 26.192ZM338.046 26V17.52H339.23L339.278 19.088C339.582 18.016 340.254 17.52 341.294 17.52H342.126V18.8H341.31C340.03 18.8 339.39 19.488 339.39 20.88V26H338.046ZM348.3 26V14.64H349.676V26H348.3ZM355.352 26.192C353.016 26.192 351.816 24.992 351.688 23.328L353.096 23.232C353.256 24.256 353.848 24.912 355.352 24.912C356.504 24.912 357.16 24.56 357.16 23.728C357.16 23.056 356.824 22.768 355.096 22.448C352.728 22 352.024 21.264 352.024 19.92C352.024 18.416 353.192 17.328 355.24 17.328C357.48 17.328 358.424 18.672 358.6 20.048L357.192 20.144C357.112 19.344 356.6 18.608 355.208 18.608C353.992 18.608 353.432 19.136 353.432 19.856C353.432 20.688 353.864 21.008 355.352 21.264C357.848 21.696 358.568 22.384 358.568 23.728C358.568 25.296 357.224 26.192 355.352 26.192ZM363.197 26C361.661 26 360.941 25.328 360.941 23.824V18.704H359.693V17.52H360.941V15.536H362.285V17.52H364.541V18.704H362.285V23.792C362.285 24.56 362.621 24.816 363.325 24.816H364.541V26H363.197ZM368.49 26.192C366.73 26.192 365.626 25.344 365.626 23.888C365.626 22.448 366.442 21.648 368.298 21.296L371.306 20.736C371.306 19.312 370.634 18.608 369.29 18.608C368.106 18.608 367.45 19.152 367.194 20.128L365.77 20.016C366.09 18.416 367.37 17.328 369.29 17.328C371.466 17.328 372.65 18.64 372.65 20.784V24.288C372.65 24.672 372.778 24.816 373.098 24.816H373.434V26C373.338 26.016 373.13 26.032 372.922 26.032C371.898 26.032 371.434 25.632 371.322 24.688C370.906 25.568 369.738 26.192 368.49 26.192ZM368.618 25.008C370.314 25.008 371.306 23.92 371.306 22.512V21.904L368.554 22.416C367.402 22.624 367.034 23.056 367.034 23.76C367.034 24.56 367.626 25.008 368.618 25.008ZM374.952 26V17.52H376.184L376.216 19.04C376.664 17.872 377.656 17.328 378.824 17.328C380.76 17.328 381.688 18.752 381.688 20.544V26H380.344V20.928C380.344 19.36 379.816 18.512 378.536 18.512C377.224 18.512 376.296 19.36 376.296 20.928V26H374.952ZM388.043 26.192C386.859 26.192 385.899 25.648 385.419 24.72L385.371 26H384.155V14.64H385.499V18.704C385.915 18 386.859 17.328 388.043 17.328C390.283 17.328 391.691 19.04 391.691 21.76C391.691 24.48 390.283 26.192 388.043 26.192ZM387.963 24.912C389.387 24.912 390.283 23.696 390.283 21.76C390.283 19.792 389.387 18.608 387.995 18.608C386.427 18.608 385.499 19.792 385.499 21.76C385.499 23.696 386.427 24.912 387.963 24.912ZM396.298 26.192C394.602 26.192 393.514 24.992 393.514 22.976V17.52H394.858V22.608C394.858 24.256 395.434 25.008 396.65 25.008C397.994 25.008 398.81 24.096 398.81 22.576V17.52H400.154V26H398.874V24.624C398.41 25.632 397.514 26.192 396.298 26.192ZM404.382 26C403.39 26 402.718 25.52 402.718 24.4V14.64H404.062V24.288C404.062 24.64 404.238 24.816 404.59 24.816H405.326V26H404.382ZM414.087 26C412.551 26 411.831 25.328 411.831 23.824V18.704H410.583V17.52H411.831V15.536H413.175V17.52H415.431V18.704H413.175V23.792C413.175 24.56 413.511 24.816 414.215 24.816H415.431V26H414.087ZM417.327 26V17.52H418.511L418.559 19.088C418.863 18.016 419.535 17.52 420.575 17.52H421.407V18.8H420.591C419.311 18.8 418.671 19.488 418.671 20.88V26H417.327ZM425.037 26.192C423.277 26.192 422.173 25.344 422.173 23.888C422.173 22.448 422.989 21.648 424.845 21.296L427.853 20.736C427.853 19.312 427.181 18.608 425.837 18.608C424.653 18.608 423.997 19.152 423.741 20.128L422.317 20.016C422.637 18.416 423.917 17.328 425.837 17.328C428.013 17.328 429.197 18.64 429.197 20.784V24.288C429.197 24.672 429.325 24.816 429.645 24.816H429.981V26C429.885 26.016 429.677 26.032 429.469 26.032C428.445 26.032 427.981 25.632 427.869 24.688C427.453 25.568 426.285 26.192 425.037 26.192ZM425.165 25.008C426.861 25.008 427.853 23.92 427.853 22.512V21.904L425.101 22.416C423.949 22.624 423.581 23.056 423.581 23.76C423.581 24.56 424.173 25.008 425.165 25.008ZM431.499 26V17.52H432.731L432.763 19.04C433.211 17.872 434.203 17.328 435.371 17.328C437.307 17.328 438.235 18.752 438.235 20.544V26H436.891V20.928C436.891 19.36 436.363 18.512 435.083 18.512C433.771 18.512 432.843 19.36 432.843 20.928V26L431.499 26ZM443.696 26.192C441.36 26.192 440.16 24.992 440.032 23.328L441.44 23.232C441.6 24.256 442.192 24.912 443.696 24.912C444.848 24.912 445.504 24.56 445.504 23.728C445.504 23.056 445.168 22.768 443.44 22.448C441.072 22 440.368 21.264 440.368 19.92C440.368 18.416 441.536 17.328 443.584 17.328C445.824 17.328 446.768 18.672 446.944 20.048L445.536 20.144C445.456 19.344 444.944 18.608 443.552 18.608C442.336 18.608 441.776 19.136 441.776 19.856C441.776 20.688 442.208 21.008 443.696 21.264C446.192 21.696 446.912 22.384 446.912 23.728C446.912 25.296 445.568 26.192 443.696 26.192ZM449.268 26V18.704H448.116V17.52H449.268V16.752C449.268 15.504 449.972 14.64 451.508 14.64H452.852V15.824H451.604C450.932 15.824 450.612 16.208 450.612 16.848V17.52H452.74V18.704H450.612V26H449.268ZM457.358 26.192C454.958 26.192 453.47 24.448 453.47 21.76C453.47 19.072 454.958 17.328 457.294 17.328C459.502 17.328 461.038 18.928 461.038 21.776V22.176H454.878C454.974 24 455.886 24.912 457.358 24.912C458.462 24.912 459.182 24.352 459.47 23.488L460.91 23.6C460.462 25.12 459.15 26.192 457.358 26.192ZM454.878 20.992H459.566C459.438 19.36 458.542 18.608 457.294 18.608C455.982 18.608 455.102 19.424 454.878 20.992ZM462.858 26V17.52H464.042L464.09 19.088C464.394 18.016 465.066 17.52 466.106 17.52H466.938V18.8H466.122C464.842 18.8 464.202 19.488 464.202 20.88V26H462.858ZM467.392 26V24.192H469.2V26H467.392ZM18.5446 50V48.192H21.0726V42.208H18.5446V40.624H19.6166C20.9766 40.624 21.5046 40.144 21.5046 38.64H23.1526V48.192H25.6166V50H18.5446ZM27.697 50V47.76H30.033V50H27.697ZM39.632 50L36.592 38.64H38.784L40.864 47.12L42.96 38.64H44.896L46.992 47.12L49.056 38.64H51.264L48.224 50H45.92L43.936 42.224L41.952 50H39.632ZM55.9098 50.192C53.3498 50.192 51.7178 48.432 51.7178 45.728C51.7178 43.04 53.3498 41.264 55.8618 41.264C58.3098 41.264 59.9097 42.96 59.9097 45.84V46.304H53.8458C53.9098 47.808 54.6938 48.56 55.9258 48.56C56.8378 48.56 57.4458 48.128 57.7018 47.376L59.7978 47.504C59.3338 49.168 57.8778 50.192 55.9098 50.192ZM53.8458 44.928H57.7978C57.7018 43.536 56.9498 42.88 55.8618 42.88C54.7578 42.88 54.0058 43.6 53.8458 44.928ZM63.6368 50C62.3888 50 61.5888 49.408 61.5888 47.984V38.64H63.6368V47.776C63.6368 48.224 63.8608 48.416 64.2768 48.416H64.9008V50H63.6368ZM69.9258 50.192C67.3818 50.192 65.7178 48.432 65.7178 45.728C65.7178 43.04 67.3818 41.264 69.9258 41.264C72.0858 41.264 73.6538 42.448 73.9097 44.48L71.7978 44.592C71.6218 43.504 70.9178 42.928 69.9258 42.928C68.5978 42.928 67.8458 43.968 67.8458 45.728C67.8458 47.504 68.5978 48.528 69.9258 48.528C70.9178 48.528 71.6378 47.952 71.7978 46.752L73.9097 46.848C73.6698 48.896 72.1178 50.192 69.9258 50.192ZM79.0508 50.192C76.5068 50.192 74.8428 48.432 74.8428 45.728C74.8428 43.024 76.5068 41.264 79.0508 41.264C81.5788 41.264 83.2428 43.024 83.2428 45.728C83.2428 48.432 81.5788 50.192 79.0508 50.192ZM79.0508 48.528C80.3628 48.528 81.1148 47.504 81.1148 45.728C81.1148 43.968 80.3628 42.928 79.0508 42.928C77.7228 42.928 76.9708 43.968 76.9708 45.728C76.9708 47.504 77.7228 48.528 79.0508 48.528ZM84.8231 50V41.456H86.6791L86.7271 42.88C87.1591 41.856 88.0231 41.264 89.0791 41.264C90.3271 41.264 91.1911 41.92 91.5591 43.024C91.9431 41.888 92.8231 41.264 94.0071 41.264C95.7671 41.264 96.8551 42.4 96.8551 44.512V50H94.8071V45.04C94.8071 43.632 94.3431 42.928 93.3511 42.928C92.3751 42.928 91.7831 43.728 91.7831 45.104V50H89.8791V45.104C89.8791 43.712 89.4951 42.928 88.4551 42.928C87.4791 42.928 86.8711 43.744 86.8711 45.104V50H84.8231ZM102.582 50.192C100.022 50.192 98.3896 48.432 98.3896 45.728C98.3896 43.04 100.022 41.264 102.534 41.264C104.982 41.264 106.582 42.96 106.582 45.84V46.304H100.518C100.582 47.808 101.366 48.56 102.598 48.56C103.51 48.56 104.118 48.128 104.374 47.376L106.47 47.504C106.006 49.168 104.55 50.192 102.582 50.192ZM100.518 44.928H104.47C104.374 43.536 103.622 42.88 102.534 42.88C101.43 42.88 100.678 43.6 100.518 44.928ZM112.28 50V38.64H116.68C119.336 38.64 120.92 40 120.92 42.256C120.92 44.528 119.336 45.904 116.68 45.904H114.36V50H112.28ZM114.36 44.096H116.584C117.992 44.096 118.776 43.472 118.776 42.256C118.776 41.072 118.008 40.448 116.584 40.448H114.36V44.096ZM122.401 40.32V38.496H124.529V40.32H122.401ZM122.433 50V41.456H124.481V50H122.433ZM130.285 50.192C127.741 50.192 126.077 48.432 126.077 45.728C126.077 43.04 127.741 41.264 130.285 41.264C132.445 41.264 134.013 42.448 134.269 44.48L132.157 44.592C131.981 43.504 131.277 42.928 130.285 42.928C128.957 42.928 128.205 43.968 128.205 45.728C128.205 47.504 128.957 48.528 130.285 48.528C131.277 48.528 131.997 47.952 132.157 46.752L134.269 46.848C134.029 48.896 132.477 50.192 130.285 50.192ZM135.698 50V38.64H137.746V45.312L141.25 41.456H143.778L140.434 45.008L143.89 50H141.586L139.09 46.224L137.746 47.648V50H135.698ZM148.249 50.192C146.505 50.192 145.433 48.992 145.433 46.96V41.456H147.481V46.448C147.481 47.888 147.945 48.528 148.937 48.528C150.041 48.528 150.681 47.776 150.681 46.368V41.456H152.729V50H150.857L150.825 48.608C150.377 49.648 149.497 50.192 148.249 50.192ZM154.979 52.4V41.456H156.947L156.979 42.736C157.475 41.776 158.403 41.264 159.539 41.264C161.971 41.264 163.171 43.264 163.171 45.728C163.171 48.192 161.955 50.192 159.523 50.192C158.435 50.192 157.491 49.68 157.027 48.832V52.4H154.979ZM159.043 48.528C160.291 48.528 161.043 47.488 161.043 45.728C161.043 43.968 160.291 42.928 159.043 42.928C157.795 42.928 157.027 43.872 157.027 45.728C157.027 47.584 157.779 48.528 159.043 48.528ZM168.233 50.192C165.625 50.192 164.393 48.992 164.265 47.312L166.361 47.216C166.505 48.112 167.017 48.624 168.249 48.624C169.193 48.624 169.721 48.336 169.721 47.664C169.721 47.088 169.433 46.832 167.913 46.56C165.321 46.112 164.553 45.408 164.553 43.952C164.553 42.368 165.801 41.264 168.169 41.264C170.633 41.264 171.721 42.56 171.865 44.144L169.785 44.24C169.737 43.44 169.257 42.832 168.137 42.832C167.161 42.832 166.665 43.264 166.665 43.888C166.665 44.576 167.065 44.848 168.345 45.056C170.985 45.456 171.849 46.208 171.849 47.632C171.849 49.28 170.425 50.192 168.233 50.192ZM177.188 45.968V44.704L182.484 44.704V45.968L177.188 45.968ZM188.068 46.24V45.056H189.444C189.428 44.816 189.412 44.576 189.412 44.336C189.412 44.144 189.412 43.952 189.428 43.776H188.068V42.592H189.588C190.1 40.064 191.764 38.384 194.084 38.384C196.084 38.384 197.604 39.888 198.084 41.968L196.644 42.064C196.292 40.688 195.316 39.728 194.084 39.728C192.468 39.728 191.428 40.88 191.044 42.592H194.804L194.628 43.776H190.868C190.852 43.952 190.852 44.144 190.852 44.336C190.852 44.576 190.868 44.816 190.884 45.056H194.484L194.308 46.24H191.076C191.508 47.84 192.532 48.912 194.084 48.912C195.396 48.912 196.404 47.824 196.708 46.32L198.18 46.416C197.78 48.64 196.276 50.256 194.084 50.256C191.828 50.256 190.18 48.656 189.62 46.24H188.068ZM199.773 50C199.773 47.6 200.717 46.016 204.125 44.208C205.693 43.376 206.317 42.864 206.317 41.712C206.317 40.544 205.549 39.728 204.045 39.728C202.445 39.728 201.517 40.592 201.277 42.128L199.837 42.032C200.093 39.808 201.581 38.384 204.045 38.384C206.381 38.384 207.757 39.728 207.757 41.68C207.757 43.408 206.989 44.272 204.637 45.52C202.589 46.608 201.533 47.792 201.469 48.656H207.757V50H199.773ZM213.007 50.256C211.119 50.256 209.919 49.216 209.503 47.808L210.959 47.696C211.215 48.464 211.887 48.912 213.007 48.912C214.735 48.912 215.759 47.696 215.935 44.88C215.327 45.84 214.335 46.384 213.135 46.384C210.927 46.384 209.359 44.784 209.359 42.416C209.359 39.936 211.023 38.384 213.311 38.384C216.159 38.384 217.407 40.464 217.407 43.648C217.407 47.456 216.319 50.256 213.007 50.256ZM213.231 45.024C214.783 45.024 215.887 44.08 215.887 42.448C215.887 40.88 214.911 39.728 213.311 39.728C211.743 39.728 210.799 40.848 210.799 42.416C210.799 44.016 211.791 45.024 213.231 45.024ZM225.147 51.76C223.675 49.552 222.923 47.216 222.923 44.88C222.923 42.544 223.675 40.208 225.147 38H226.347C225.003 40.288 224.315 42.592 224.315 44.88C224.315 47.168 225.003 49.456 226.347 51.76H225.147ZM230.162 50.192C228.402 50.192 227.298 49.344 227.298 47.888C227.298 46.448 228.114 45.648 229.97 45.296L232.978 44.736C232.978 43.312 232.306 42.608 230.962 42.608C229.778 42.608 229.122 43.152 228.866 44.128L227.442 44.016C227.762 42.416 229.042 41.328 230.962 41.328C233.138 41.328 234.322 42.64 234.322 44.784V48.288C234.322 48.672 234.45 48.816 234.77 48.816H235.106V50C235.01 50.016 234.802 50.032 234.594 50.032C233.57 50.032 233.106 49.632 232.994 48.688C232.578 49.568 231.41 50.192 230.162 50.192ZM230.29 49.008C231.986 49.008 232.978 47.92 232.978 46.512V45.904L230.226 46.416C229.074 46.624 228.706 47.056 228.706 47.76C228.706 48.56 229.298 49.008 230.29 49.008ZM236.624 52.4V41.52H237.872L237.888 42.816C238.4 41.84 239.344 41.328 240.496 41.328C243.024 41.328 244.16 43.424 244.16 45.76C244.16 48.096 243.024 50.192 240.496 50.192C239.392 50.192 238.416 49.696 237.968 48.88V52.4H236.624ZM240.368 48.912C241.84 48.912 242.752 47.744 242.752 45.76C242.752 43.776 241.84 42.608 240.368 42.608C238.896 42.608 237.968 43.68 237.968 45.76C237.968 47.84 238.88 48.912 240.368 48.912ZM245.983 52.4V41.52H247.231L247.247 42.816C247.759 41.84 248.703 41.328 249.855 41.328C252.383 41.328 253.519 43.424 253.519 45.76C253.519 48.096 252.383 50.192 249.855 50.192C248.751 50.192 247.775 49.696 247.327 48.88V52.4H245.983ZM249.727 48.912C251.199 48.912 252.111 47.744 252.111 45.76C252.111 43.776 251.199 42.608 249.727 42.608C248.255 42.608 247.327 43.68 247.327 45.76C247.327 47.84 248.239 48.912 249.727 48.912ZM255.343 50V41.52H256.527L256.575 43.088C256.879 42.016 257.551 41.52 258.591 41.52H259.423V42.8H258.607C257.327 42.8 256.687 43.488 256.687 44.88V50H255.343ZM264.076 50.192C261.724 50.192 260.188 48.464 260.188 45.76C260.188 43.056 261.724 41.328 264.076 41.328C266.412 41.328 267.948 43.056 267.948 45.76C267.948 48.464 266.412 50.192 264.076 50.192ZM264.076 48.912C265.628 48.912 266.54 47.728 266.54 45.76C266.54 43.792 265.628 42.608 264.076 42.608C262.508 42.608 261.596 43.792 261.596 45.76C261.596 47.728 262.508 48.912 264.076 48.912ZM268.611 50L271.731 45.648L268.771 41.52H270.339L272.563 44.72L274.723 41.52H276.323L273.395 45.68L276.467 50H274.899L272.563 46.576L270.211 50H268.611ZM282.115 50V48.688C283.315 47.968 283.987 46.896 283.987 45.552C283.987 45.36 283.955 45.152 283.923 44.928H282.099V43.744H283.651C283.379 42.912 283.187 42.192 283.187 41.536C283.187 39.744 284.627 38.384 286.563 38.384C288.947 38.384 290.003 39.712 290.243 41.2L288.643 41.312C288.371 40.256 287.555 39.728 286.627 39.728C285.411 39.728 284.611 40.576 284.611 41.76C284.611 42.256 284.771 42.896 285.027 43.744H287.875V44.928H285.219C285.219 46.832 284.835 47.92 283.491 48.608H290.051V50H282.115ZM291.96 50C291.96 47.6 292.904 46.016 296.312 44.208C297.88 43.376 298.504 42.864 298.504 41.712C298.504 40.544 297.736 39.728 296.232 39.728C294.632 39.728 293.704 40.592 293.464 42.128L292.024 42.032C292.28 39.808 293.768 38.384 296.232 38.384C298.568 38.384 299.944 39.728 299.944 41.68C299.944 43.408 299.176 44.272 296.824 45.52C294.776 46.608 293.72 47.792 293.656 48.656H299.944V50H291.96ZM305.898 50.256C303.498 50.256 302.026 48.96 301.866 47.072L303.306 46.976C303.466 48.256 304.458 48.912 305.898 48.912C307.498 48.912 308.506 47.952 308.506 46.352C308.506 44.752 307.53 43.744 305.866 43.744C304.81 43.744 303.898 44.224 303.53 45.024H302.058L302.81 38.64H309.178V39.984H304.074L303.658 43.408C304.234 42.768 305.146 42.432 306.122 42.432C308.394 42.432 309.946 44.08 309.946 46.352C309.946 48.64 308.282 50.256 305.898 50.256ZM312.206 51.76H311.006C312.35 49.456 313.038 47.168 313.038 44.88C313.038 42.592 312.35 40.288 311.006 38H312.206C313.678 40.208 314.43 42.544 314.43 44.88C314.43 47.216 313.678 49.552 312.206 51.76ZM17.8886 74C17.8886 71.248 18.9286 69.664 22.0326 68.032C23.5846 67.216 24.1446 66.768 24.1446 65.808C24.1446 64.864 23.5206 64.192 22.3206 64.192C21.0086 64.192 20.2566 64.944 20.0646 66.32L17.9206 66.192C18.1446 63.824 19.7126 62.384 22.3046 62.384C24.8166 62.384 26.2886 63.76 26.2886 65.776C26.2886 67.52 25.4726 68.336 23.2646 69.52C21.3606 70.528 20.4486 71.488 20.3846 72.192H26.2886V74H17.8886ZM27.697 74V71.76H30.033V74H27.697ZM37.28 74V62.64H42.032C44.48 62.64 46.048 63.968 46.048 66.048C46.048 67.408 45.2 68.416 44.08 68.752C45.152 68.912 45.76 69.552 45.856 70.72L46.144 74H44.032L43.792 71.024C43.728 70.112 43.264 69.712 42.08 69.712H39.36V74H37.28ZM39.36 67.888H41.904C43.152 67.888 43.904 67.28 43.904 66.176C43.904 65.056 43.152 64.448 41.808 64.448H39.36V67.888ZM51.5973 74.192C49.0373 74.192 47.4053 72.432 47.4053 69.728C47.4053 67.04 49.0373 65.264 51.5493 65.264C53.9973 65.264 55.5972 66.96 55.5972 69.84V70.304H49.5333C49.5973 71.808 50.3813 72.56 51.6133 72.56C52.5253 72.56 53.1333 72.128 53.3893 71.376L55.4853 71.504C55.0213 73.168 53.5653 74.192 51.5973 74.192ZM49.5333 68.928H53.4853C53.3893 67.536 52.6373 66.88 51.5493 66.88C50.4453 66.88 49.6933 67.6 49.5333 68.928ZM57.1981 74V65.456H59.0541L59.1021 66.912C59.5661 65.744 60.5261 65.264 61.6621 65.264C63.5501 65.264 64.5741 66.592 64.5741 68.512V74H62.5261V69.168C62.5261 67.728 62.1421 66.928 61.0381 66.928C59.9341 66.928 59.2461 67.728 59.2461 69.168V74H57.1981ZM69.6378 74C67.9418 74 67.1578 73.248 67.1578 71.552V67.04H65.8138V65.456H67.1578V63.456H69.2057V65.456H71.4618V67.04H69.2057V71.36C69.2057 72.16 69.5418 72.416 70.2618 72.416H71.4618V74H69.6378ZM76.5351 74.192C73.9911 74.192 72.3271 72.432 72.3271 69.728C72.3271 67.024 73.9911 65.264 76.5351 65.264C79.0631 65.264 80.7271 67.024 80.7271 69.728C80.7271 72.432 79.0631 74.192 76.5351 74.192ZM76.5351 72.528C77.8471 72.528 78.5991 71.504 78.5991 69.728C78.5991 67.968 77.8471 66.928 76.5351 66.928C75.2071 66.928 74.4551 67.968 74.4551 69.728C74.4551 71.504 75.2071 72.528 76.5351 72.528ZM88.757 74V64.448H85.301V62.64H94.277V64.448H90.837V74H88.757ZM94.8544 74V65.456H96.7744L96.8224 67.12C97.1584 65.968 97.8144 65.456 98.8704 65.456H99.6544V67.216H98.8544C97.5424 67.216 96.9024 67.76 96.9024 69.072V74H94.8544ZM103.303 74.192C101.511 74.192 100.327 73.344 100.327 71.856C100.327 70.384 101.239 69.6 103.111 69.232L105.943 68.672C105.943 67.472 105.383 66.848 104.295 66.848C103.303 66.848 102.743 67.312 102.551 68.176L100.471 68.08C100.807 66.288 102.183 65.264 104.295 65.264C106.727 65.264 107.991 66.544 107.991 68.816V71.92C107.991 72.384 108.151 72.512 108.471 72.512H108.743V74C108.599 74.032 108.279 74.064 107.991 74.064C107.063 74.064 106.375 73.728 106.215 72.688C105.783 73.6 104.695 74.192 103.303 74.192ZM103.719 72.704C105.079 72.704 105.943 71.84 105.943 70.544V70.064L103.735 70.512C102.823 70.688 102.455 71.072 102.455 71.664C102.455 72.336 102.903 72.704 103.719 72.704ZM110.073 74V65.456H111.929L111.977 66.912C112.441 65.744 113.401 65.264 114.537 65.264C116.425 65.264 117.449 66.592 117.449 68.512V74H115.401V69.168C115.401 67.728 115.017 66.928 113.913 66.928C112.809 66.928 112.121 67.728 112.121 69.168V74H110.073ZM122.951 74.192C120.343 74.192 119.111 72.992 118.983 71.312L121.079 71.216C121.223 72.112 121.735 72.624 122.967 72.624C123.911 72.624 124.439 72.336 124.439 71.664C124.439 71.088 124.151 70.832 122.631 70.56C120.039 70.112 119.271 69.408 119.271 67.952C119.271 66.368 120.519 65.264 122.887 65.264C125.351 65.264 126.439 66.56 126.583 68.144L124.503 68.24C124.455 67.44 123.975 66.832 122.855 66.832C121.879 66.832 121.383 67.264 121.383 67.888C121.383 68.576 121.783 68.848 123.063 69.056C125.703 69.456 126.567 70.208 126.567 71.632C126.567 73.28 125.143 74.192 122.951 74.192ZM128.751 74V67.04H127.535V65.456H128.751V65.12C128.751 63.584 129.567 62.64 131.375 62.64H133.039V64.224H131.759C131.087 64.224 130.799 64.576 130.799 65.232V65.456H132.927V67.04H130.799V74H128.751ZM137.754 74.192C135.194 74.192 133.562 72.432 133.562 69.728C133.562 67.04 135.194 65.264 137.706 65.264C140.154 65.264 141.753 66.96 141.753 69.84V70.304H135.69C135.754 71.808 136.538 72.56 137.77 72.56C138.682 72.56 139.29 72.128 139.546 71.376L141.642 71.504C141.178 73.168 139.722 74.192 137.754 74.192ZM135.69 68.928H139.642C139.546 67.536 138.794 66.88 137.706 66.88C136.602 66.88 135.85 67.6 135.69 68.928ZM143.354 74V65.456H145.274L145.322 67.12C145.658 65.968 146.314 65.456 147.37 65.456H148.154V67.216H147.354C146.042 67.216 145.402 67.76 145.402 69.072V74H143.354ZM153.485 69.968V68.704H158.781V69.968H153.485ZM168.044 75.44V74.208C165.884 73.936 164.54 72.48 164.364 70.448L165.772 70.352C165.964 71.76 166.716 72.64 168.044 72.864V68.848C165.5 68.208 164.604 67.44 164.604 65.776C164.604 63.984 165.9 62.72 168.044 62.624V61.2H169.228V62.688C171.116 63.024 172.22 64.4 172.444 66.16L171.02 66.256C170.876 65.2 170.284 64.368 169.228 64.064V67.808C171.788 68.496 172.668 69.536 172.668 71.088C172.668 72.896 171.26 74.08 169.228 74.24V75.44H168.044ZM166.012 65.728C166.012 66.624 166.428 67.024 168.044 67.488V63.936C166.796 64.016 166.012 64.72 166.012 65.728ZM171.26 71.184C171.26 70.32 170.908 69.728 169.228 69.184V72.912C170.524 72.816 171.26 72.208 171.26 71.184ZM179.803 74V71.536H174.027V70.288L179.707 62.64L181.179 62.64V70.192H182.587V71.536H181.179V74H179.803ZM175.691 70.192H179.803V64.752L175.691 70.192ZM188.53 74.256C185.778 74.256 184.034 71.968 184.034 68.336C184.034 64.688 185.778 62.384 188.53 62.384C191.298 62.384 193.042 64.672 193.042 68.336C193.042 71.968 191.298 74.256 188.53 74.256ZM188.53 72.912C190.498 72.912 191.602 71.264 191.602 68.336C191.602 65.392 190.498 63.728 188.53 63.728C186.578 63.728 185.474 65.392 185.474 68.336C185.474 71.264 186.578 72.912 188.53 72.912ZM200.788 75.76C199.316 73.552 198.564 71.216 198.564 68.88C198.564 66.544 199.316 64.208 200.788 62H201.988C200.644 64.288 199.956 66.592 199.956 68.88C199.956 71.168 200.644 73.456 201.988 75.76H200.788ZM205.802 74.192C204.042 74.192 202.938 73.344 202.938 71.888C202.938 70.448 203.754 69.648 205.61 69.296L208.618 68.736C208.618 67.312 207.946 66.608 206.602 66.608C205.418 66.608 204.762 67.152 204.506 68.128L203.082 68.016C203.402 66.416 204.682 65.328 206.602 65.328C208.778 65.328 209.962 66.64 209.962 68.784V72.288C209.962 72.672 210.09 72.816 210.41 72.816H210.746V74C210.65 74.016 210.442 74.032 210.234 74.032C209.21 74.032 208.746 73.632 208.634 72.688C208.218 73.568 207.05 74.192 205.802 74.192ZM205.93 73.008C207.626 73.008 208.618 71.92 208.618 70.512V69.904L205.866 70.416C204.714 70.624 204.346 71.056 204.346 71.76C204.346 72.56 204.938 73.008 205.93 73.008ZM212.264 76.4V65.52H213.512L213.528 66.816C214.04 65.84 214.984 65.328 216.136 65.328C218.664 65.328 219.8 67.424 219.8 69.76C219.8 72.096 218.664 74.192 216.136 74.192C215.032 74.192 214.056 73.696 213.608 72.88V76.4H212.264ZM216.008 72.912C217.48 72.912 218.392 71.744 218.392 69.76C218.392 67.776 217.48 66.608 216.008 66.608C214.536 66.608 213.608 67.68 213.608 69.76C213.608 71.84 214.52 72.912 216.008 72.912ZM221.624 76.4V65.52H222.872L222.888 66.816C223.4 65.84 224.344 65.328 225.496 65.328C228.024 65.328 229.16 67.424 229.16 69.76C229.16 72.096 228.024 74.192 225.496 74.192C224.392 74.192 223.416 73.696 222.968 72.88V76.4H221.624ZM225.368 72.912C226.84 72.912 227.752 71.744 227.752 69.76C227.752 67.776 226.84 66.608 225.368 66.608C223.896 66.608 222.968 67.68 222.968 69.76C222.968 71.84 223.88 72.912 225.368 72.912ZM230.983 74V65.52H232.167L232.215 67.088C232.519 66.016 233.191 65.52 234.231 65.52H235.063V66.8H234.247C232.967 66.8 232.327 67.488 232.327 68.88V74H230.983ZM239.717 74.192C237.365 74.192 235.829 72.464 235.829 69.76C235.829 67.056 237.365 65.328 239.717 65.328C242.053 65.328 243.589 67.056 243.589 69.76C243.589 72.464 242.053 74.192 239.717 74.192ZM239.717 72.912C241.269 72.912 242.181 71.728 242.181 69.76C242.181 67.792 241.269 66.608 239.717 66.608C238.149 66.608 237.237 67.792 237.237 69.76C237.237 71.728 238.149 72.912 239.717 72.912ZM244.252 74L247.372 69.648L244.412 65.52H245.98L248.204 68.72L250.364 65.52H251.964L249.036 69.68L252.108 74H250.54L248.204 70.576L245.852 74H244.252ZM257.755 74V72.688C258.955 71.968 259.627 70.896 259.627 69.552C259.627 69.36 259.595 69.152 259.563 68.928H257.739V67.744H259.291C259.019 66.912 258.827 66.192 258.827 65.536C258.827 63.744 260.267 62.384 262.203 62.384C264.587 62.384 265.643 63.712 265.883 65.2L264.283 65.312C264.011 64.256 263.195 63.728 262.267 63.728C261.051 63.728 260.251 64.576 260.251 65.76C260.251 66.256 260.411 66.896 260.667 67.744H263.515V68.928H260.859C260.859 70.832 260.475 71.92 259.131 72.608H265.691V74H257.755ZM271.457 74.256C268.929 74.256 267.537 72.944 267.441 71.072L268.865 70.976C268.993 72.368 270.033 72.912 271.457 72.912C272.929 72.912 274.209 72.368 274.209 70.832C274.209 69.328 273.105 68.64 271.473 68.64H270.577V67.296H271.473C272.817 67.296 273.809 66.816 273.809 65.52C273.809 64.352 273.041 63.728 271.537 63.728C270.033 63.728 269.313 64.336 269.169 65.344L267.729 65.248C267.937 63.552 269.265 62.384 271.537 62.384C273.841 62.384 275.249 63.568 275.249 65.456C275.249 66.672 274.577 67.488 273.281 67.888C274.753 68.288 275.649 69.376 275.649 70.832C275.649 73.008 273.921 74.256 271.457 74.256ZM277.413 74C277.413 71.6 278.357 70.016 281.765 68.208C283.333 67.376 283.957 66.864 283.957 65.712C283.957 64.544 283.189 63.728 281.685 63.728C280.085 63.728 279.157 64.592 278.917 66.128L277.477 66.032C277.733 63.808 279.221 62.384 281.685 62.384C284.021 62.384 285.397 63.728 285.397 65.68C285.397 67.408 284.629 68.272 282.277 69.52C280.229 70.608 279.173 71.792 279.109 72.656H285.397V74H277.413ZM287.799 75.76H286.599C287.943 73.456 288.631 71.168 288.631 68.88C288.631 66.592 287.943 64.288 286.599 62H287.799C289.271 64.208 290.023 66.544 290.023 68.88C290.023 71.216 289.271 73.552 287.799 75.76ZM22.0486 98.256C19.3286 98.256 17.8246 96.896 17.7286 94.8L19.8566 94.704C19.9686 95.92 20.8006 96.448 22.0486 96.448C23.2966 96.448 24.3046 95.92 24.3046 94.704C24.3046 93.488 23.3926 92.88 22.0006 92.88H21.0246V91.232H22.0006C23.1046 91.232 23.9206 90.816 23.9206 89.728C23.9206 88.768 23.3286 88.192 22.0486 88.192C20.7846 88.192 20.1766 88.752 20.0486 89.584L17.9366 89.472C18.1446 87.616 19.6166 86.384 22.0486 86.384C24.6086 86.384 26.0646 87.6 26.0646 89.536C26.0646 90.72 25.3766 91.552 24.0966 91.952C25.5846 92.352 26.4486 93.376 26.4486 94.816C26.4486 96.976 24.7046 98.256 22.0486 98.256ZM27.697 98V95.76H30.033V98H27.697ZM37.28 98V86.64H39.36V91.376H44.144V86.64H46.224V98H44.144V93.184H39.36V98H37.28ZM50.9438 98.192C49.1518 98.192 47.9678 97.344 47.9678 95.856C47.9678 94.384 48.8798 93.6 50.7518 93.232L53.5838 92.672C53.5838 91.472 53.0238 90.848 51.9358 90.848C50.9438 90.848 50.3838 91.312 50.1918 92.176L48.1118 92.08C48.4478 90.288 49.8238 89.264 51.9358 89.264C54.3678 89.264 55.6318 90.544 55.6318 92.816V95.92C55.6318 96.384 55.7917 96.512 56.1118 96.512H56.3837V98C56.2398 98.032 55.9198 98.064 55.6318 98.064C54.7038 98.064 54.0158 97.728 53.8558 96.688C53.4238 97.6 52.3358 98.192 50.9438 98.192ZM51.3598 96.704C52.7198 96.704 53.5838 95.84 53.5838 94.544V94.064L51.3758 94.512C50.4638 94.688 50.0958 95.072 50.0958 95.664C50.0958 96.336 50.5438 96.704 51.3598 96.704ZM65.316 100.4H63.268V96.832C62.804 97.68 61.86 98.192 60.772 98.192C58.34 98.192 57.124 96.192 57.124 93.728C57.124 91.264 58.324 89.264 60.756 89.264C61.892 89.264 62.82 89.776 63.316 90.736L63.348 89.456H65.316V100.4ZM61.252 96.528C62.516 96.528 63.268 95.584 63.268 93.728C63.268 91.872 62.5 90.928 61.252 90.928C60.004 90.928 59.252 91.968 59.252 93.728C59.252 95.488 60.004 96.528 61.252 96.528ZM75.0972 100.4H73.0493V96.832C72.5853 97.68 71.6413 98.192 70.5533 98.192C68.1213 98.192 66.9053 96.192 66.9053 93.728C66.9053 91.264 68.1053 89.264 70.5373 89.264C71.6733 89.264 72.6013 89.776 73.0973 90.736L73.1293 89.456H75.0972V100.4ZM71.0333 96.528C72.2973 96.528 73.0493 95.584 73.0493 93.728C73.0493 91.872 72.2813 90.928 71.0333 90.928C69.7853 90.928 69.0333 91.968 69.0333 93.728C69.0333 95.488 69.7853 96.528 71.0333 96.528ZM77.1349 88.32V86.496H79.2629V88.32H77.1349ZM77.1669 98V89.456H79.2149V98H77.1669ZM87.757 98V88.448H84.301V86.64H93.277V88.448H89.837V98H87.757ZM97.0195 98.192C94.4755 98.192 92.8115 96.432 92.8115 93.728C92.8115 91.024 94.4755 89.264 97.0195 89.264C99.5475 89.264 101.212 91.024 101.212 93.728C101.212 96.432 99.5475 98.192 97.0195 98.192ZM97.0195 96.528C98.3315 96.528 99.0835 95.504 99.0835 93.728C99.0835 91.968 98.3315 90.928 97.0195 90.928C95.6915 90.928 94.9395 91.968 94.9395 93.728C94.9395 95.504 95.6915 96.528 97.0195 96.528ZM105.608 98.192C103.864 98.192 102.792 96.992 102.792 94.96V89.456H104.84V94.448C104.84 95.888 105.304 96.528 106.296 96.528C107.4 96.528 108.04 95.776 108.04 94.368V89.456H110.088V98H108.216L108.184 96.608C107.736 97.648 106.856 98.192 105.608 98.192ZM112.339 98V89.456H114.259L114.307 91.12C114.643 89.968 115.299 89.456 116.355 89.456H117.139V91.216H116.339C115.027 91.216 114.387 91.76 114.387 93.072V98H112.339ZM121.717 98.192C119.109 98.192 117.877 96.992 117.749 95.312L119.845 95.216C119.989 96.112 120.501 96.624 121.733 96.624C122.677 96.624 123.205 96.336 123.205 95.664C123.205 95.088 122.917 94.832 121.397 94.56C118.805 94.112 118.037 93.408 118.037 91.952C118.037 90.368 119.285 89.264 121.653 89.264C124.117 89.264 125.205 90.56 125.349 92.144L123.269 92.24C123.221 91.44 122.741 90.832 121.621 90.832C120.645 90.832 120.149 91.264 120.149 91.888C120.149 92.576 120.549 92.848 121.829 93.056C124.469 93.456 125.333 94.208 125.333 95.632C125.333 97.28 123.909 98.192 121.717 98.192ZM130.673 93.968V92.704H135.969V93.968H130.673ZM145.232 99.44V98.208C143.072 97.936 141.728 96.48 141.552 94.448L142.96 94.352C143.152 95.76 143.904 96.64 145.232 96.864V92.848C142.688 92.208 141.792 91.44 141.792 89.776C141.792 87.984 143.088 86.72 145.232 86.624V85.2H146.416V86.688C148.304 87.024 149.408 88.4 149.632 90.16L148.208 90.256C148.064 89.2 147.472 88.368 146.416 88.064V91.808C148.976 92.496 149.856 93.536 149.856 95.088C149.856 96.896 148.448 98.08 146.416 98.24V99.44H145.232ZM143.2 89.728C143.2 90.624 143.616 91.024 145.232 91.488V87.936C143.984 88.016 143.2 88.72 143.2 89.728ZM148.448 95.184C148.448 94.32 148.096 93.728 146.416 93.184V96.912C147.712 96.816 148.448 96.208 148.448 95.184ZM156.99 98V95.536H151.214V94.288L156.894 86.64H158.366V94.192H159.774V95.536H158.366V98H156.99ZM152.878 94.192H156.99V88.752L152.878 94.192ZM165.57 98.256C163.17 98.256 161.698 96.96 161.538 95.072L162.978 94.976C163.138 96.256 164.13 96.912 165.57 96.912C167.17 96.912 168.178 95.952 168.178 94.352C168.178 92.752 167.202 91.744 165.538 91.744C164.482 91.744 163.57 92.224 163.202 93.024H161.73L162.482 86.64H168.85V87.984H163.746L163.33 91.408C163.906 90.768 164.818 90.432 165.794 90.432C168.066 90.432 169.618 92.08 169.618 94.352C169.618 96.64 167.954 98.256 165.57 98.256ZM177.538 99.76C176.066 97.552 175.314 95.216 175.314 92.88C175.314 90.544 176.066 88.208 177.538 86H178.738C177.394 88.288 176.706 90.592 176.706 92.88C176.706 95.168 177.394 97.456 178.738 99.76H177.538ZM182.552 98.192C180.792 98.192 179.688 97.344 179.688 95.888C179.688 94.448 180.504 93.648 182.36 93.296L185.368 92.736C185.368 91.312 184.696 90.608 183.352 90.608C182.168 90.608 181.512 91.152 181.256 92.128L179.832 92.016C180.152 90.416 181.432 89.328 183.352 89.328C185.528 89.328 186.712 90.64 186.712 92.784V96.288C186.712 96.672 186.84 96.816 187.16 96.816H187.496V98C187.4 98.016 187.192 98.032 186.984 98.032C185.96 98.032 185.496 97.632 185.384 96.688C184.968 97.568 183.8 98.192 182.552 98.192ZM182.68 97.008C184.376 97.008 185.368 95.92 185.368 94.512V93.904L182.616 94.416C181.464 94.624 181.096 95.056 181.096 95.76C181.096 96.56 181.688 97.008 182.68 97.008ZM189.014 100.4V89.52H190.262L190.278 90.816C190.79 89.84 191.734 89.328 192.886 89.328C195.414 89.328 196.55 91.424 196.55 93.76C196.55 96.096 195.414 98.192 192.886 98.192C191.782 98.192 190.806 97.696 190.358 96.88V100.4H189.014ZM192.758 96.912C194.23 96.912 195.142 95.744 195.142 93.76C195.142 91.776 194.23 90.608 192.758 90.608C191.286 90.608 190.358 91.68 190.358 93.76C190.358 95.84 191.27 96.912 192.758 96.912ZM198.374 100.4V89.52H199.622L199.638 90.816C200.15 89.84 201.094 89.328 202.246 89.328C204.774 89.328 205.91 91.424 205.91 93.76C205.91 96.096 204.774 98.192 202.246 98.192C201.142 98.192 200.166 97.696 199.718 96.88V100.4H198.374ZM202.118 96.912C203.59 96.912 204.502 95.744 204.502 93.76C204.502 91.776 203.59 90.608 202.118 90.608C200.646 90.608 199.718 91.68 199.718 93.76C199.718 95.84 200.63 96.912 202.118 96.912ZM207.733 98V89.52H208.917L208.965 91.088C209.269 90.016 209.941 89.52 210.981 89.52H211.813V90.8H210.997C209.717 90.8 209.077 91.488 209.077 92.88V98H207.733ZM216.467 98.192C214.115 98.192 212.579 96.464 212.579 93.76C212.579 91.056 214.115 89.328 216.467 89.328C218.803 89.328 220.339 91.056 220.339 93.76C220.339 96.464 218.803 98.192 216.467 98.192ZM216.467 96.912C218.019 96.912 218.931 95.728 218.931 93.76C218.931 91.792 218.019 90.608 216.467 90.608C214.899 90.608 213.987 91.792 213.987 93.76C213.987 95.728 214.899 96.912 216.467 96.912ZM221.002 98L224.122 93.648L221.162 89.52H222.73L224.954 92.72L227.114 89.52H228.714L225.786 93.68L228.858 98H227.29L224.954 94.576L222.602 98H221.002ZM234.505 98V96.688C235.705 95.968 236.377 94.896 236.377 93.552C236.377 93.36 236.345 93.152 236.313 92.928H234.489V91.744H236.041C235.769 90.912 235.577 90.192 235.577 89.536C235.577 87.744 237.017 86.384 238.953 86.384C241.337 86.384 242.393 87.712 242.633 89.2L241.033 89.312C240.761 88.256 239.945 87.728 239.017 87.728C237.801 87.728 237.001 88.576 237.001 89.76C237.001 90.256 237.161 90.896 237.417 91.744H240.265V92.928H237.609C237.609 94.832 237.225 95.92 235.881 96.608H242.441V98H234.505ZM248.207 98.256C245.679 98.256 244.287 96.944 244.191 95.072L245.615 94.976C245.743 96.368 246.783 96.912 248.207 96.912C249.679 96.912 250.959 96.368 250.959 94.832C250.959 93.328 249.855 92.64 248.223 92.64H247.327V91.296H248.223C249.567 91.296 250.559 90.816 250.559 89.52C250.559 88.352 249.791 87.728 248.287 87.728C246.783 87.728 246.063 88.336 245.919 89.344L244.479 89.248C244.687 87.552 246.015 86.384 248.287 86.384C250.591 86.384 251.999 87.568 251.999 89.456C251.999 90.672 251.327 91.488 250.031 91.888C251.503 92.288 252.399 93.376 252.399 94.832C252.399 97.008 250.671 98.256 248.207 98.256ZM258.035 98.256C255.475 98.256 254.003 96.448 254.003 93.2C254.003 89.456 255.123 86.384 258.483 86.384C260.499 86.384 261.555 87.472 262.003 89.072L260.563 89.2C260.307 88.304 259.731 87.728 258.483 87.728C256.755 87.728 255.667 89.072 255.443 91.808C255.987 90.976 256.995 90.352 258.291 90.352C260.531 90.352 262.051 91.888 262.051 94.224C262.051 96.72 260.387 98.256 258.035 98.256ZM258.067 96.912C259.555 96.912 260.611 95.92 260.611 94.224C260.611 92.656 259.619 91.664 258.195 91.664C256.659 91.664 255.507 92.656 255.507 94.224C255.507 95.792 256.499 96.912 258.067 96.912ZM264.128 99.76H262.928C264.272 97.456 264.96 95.168 264.96 92.88C264.96 90.592 264.272 88.288 262.928 86H264.128C265.6 88.208 266.352 90.544 266.352 92.88C266.352 95.216 265.6 97.552 264.128 99.76ZM23.2166 122V119.728H17.5206V118.032L22.8806 110.64H25.2966V117.92H26.6566V119.728H25.2966V122H23.2166ZM19.7926 117.92H23.2166V113.344L19.7926 117.92ZM27.697 122V119.76H30.033V122H27.697ZM36.304 122L40.4 110.64H42.944L47.04 122H44.864L43.92 119.312H39.424L38.48 122H36.304ZM40.032 117.536H43.312L41.68 112.736L40.032 117.536ZM50.1211 122C48.8731 122 48.0731 121.408 48.0731 119.984V110.64H50.1211V119.776C50.1211 120.224 50.3451 120.416 50.7611 120.416H51.3851V122H50.1211ZM52.5351 115.392L53.3671 112.88H52.3911V110.64H54.7271V112.624L53.6711 115.392H52.5351ZM60.0139 122.192C57.4059 122.192 56.1739 120.992 56.0459 119.312L58.1419 119.216C58.2859 120.112 58.7979 120.624 60.0299 120.624C60.9739 120.624 61.5019 120.336 61.5019 119.664C61.5019 119.088 61.2139 118.832 59.6939 118.56C57.1019 118.112 56.3339 117.408 56.3339 115.952C56.3339 114.368 57.5819 113.264 59.9499 113.264C62.4139 113.264 63.5019 114.56 63.6459 116.144L61.5659 116.24C61.5179 115.44 61.0379 114.832 59.9179 114.832C58.9419 114.832 58.4459 115.264 58.4459 115.888C58.4459 116.576 58.8459 116.848 60.1259 117.056C62.7659 117.456 63.6299 118.208 63.6299 119.632C63.6299 121.28 62.2059 122.192 60.0139 122.192ZM71.6789 122V112.448H68.2229V110.64H77.1989V112.448H73.7589V122H71.6789ZM79.8656 122.192C78.0736 122.192 76.8896 121.344 76.8896 119.856C76.8896 118.384 77.8016 117.6 79.6736 117.232L82.5056 116.672C82.5056 115.472 81.9456 114.848 80.8576 114.848C79.8656 114.848 79.3056 115.312 79.1136 116.176L77.0336 116.08C77.3696 114.288 78.7456 113.264 80.8576 113.264C83.2896 113.264 84.5536 114.544 84.5536 116.816V119.92C84.5536 120.384 84.7136 120.512 85.0336 120.512H85.3056V122C85.1616 122.032 84.8416 122.064 84.5536 122.064C83.6256 122.064 82.9376 121.728 82.7776 120.688C82.3456 121.6 81.2576 122.192 79.8656 122.192ZM80.2816 120.704C81.6416 120.704 82.5056 119.84 82.5056 118.544V118.064L80.2976 118.512C79.3856 118.688 79.0176 119.072 79.0176 119.664C79.0176 120.336 79.4656 120.704 80.2816 120.704ZM85.8298 122L88.9018 117.648L85.9418 113.456H88.1658L90.1178 116.368L92.0378 113.456H94.2938L91.3498 117.664L94.4058 122H92.1818L90.1498 118.928L88.1018 122H85.8298ZM95.4318 112.32V110.496H97.5598V112.32H95.4318ZM95.4638 122V113.456H97.5118V122H95.4638ZM103.126 117.968V116.704H108.422V117.968H103.126ZM114.005 118.24V117.056H115.381C115.365 116.816 115.349 116.576 115.349 116.336C115.349 116.144 115.349 115.952 115.365 115.776H114.005V114.592H115.525C116.037 112.064 117.701 110.384 120.021 110.384C122.021 110.384 123.541 111.888 124.021 113.968L122.581 114.064C122.229 112.688 121.253 111.728 120.021 111.728C118.405 111.728 117.365 112.88 116.981 114.592H120.741L120.565 115.776H116.805C116.789 115.952 116.789 116.144 116.789 116.336C116.789 116.576 116.805 116.816 116.821 117.056H120.421L120.245 118.24H117.013C117.445 119.84 118.469 120.912 120.021 120.912C121.333 120.912 122.341 119.824 122.645 118.32L124.117 118.416C123.717 120.64 122.213 122.256 120.021 122.256C117.765 122.256 116.117 120.656 115.557 118.24H114.005ZM131.006 122V119.536H125.23V118.288L130.91 110.64H132.382V118.192H133.79V119.536H132.382V122H131.006ZM126.894 118.192H131.006V112.752L126.894 118.192ZM139.586 122.256C137.186 122.256 135.714 120.96 135.554 119.072L136.994 118.976C137.154 120.256 138.146 120.912 139.586 120.912C141.186 120.912 142.194 119.952 142.194 118.352C142.194 116.752 141.218 115.744 139.554 115.744C138.498 115.744 137.586 116.224 137.218 117.024H135.746L136.498 110.64H142.866V111.984H137.762L137.346 115.408C137.922 114.768 138.834 114.432 139.81 114.432C142.082 114.432 143.634 116.08 143.634 118.352C143.634 120.64 141.97 122.256 139.586 122.256ZM151.553 123.76C150.081 121.552 149.329 119.216 149.329 116.88C149.329 114.544 150.081 112.208 151.553 110H152.753C151.409 112.288 150.721 114.592 150.721 116.88C150.721 119.168 151.409 121.456 152.753 123.76H151.553ZM156.568 122.192C154.808 122.192 153.704 121.344 153.704 119.888C153.704 118.448 154.52 117.648 156.376 117.296L159.384 116.736C159.384 115.312 158.712 114.608 157.368 114.608C156.184 114.608 155.528 115.152 155.272 116.128L153.848 116.016C154.168 114.416 155.448 113.328 157.368 113.328C159.544 113.328 160.728 114.64 160.728 116.784V120.288C160.728 120.672 160.856 120.816 161.176 120.816H161.512V122C161.416 122.016 161.208 122.032 161 122.032C159.976 122.032 159.512 121.632 159.4 120.688C158.984 121.568 157.816 122.192 156.568 122.192ZM156.696 121.008C158.392 121.008 159.384 119.92 159.384 118.512V117.904L156.632 118.416C155.48 118.624 155.112 119.056 155.112 119.76C155.112 120.56 155.704 121.008 156.696 121.008ZM163.03 124.4V113.52H164.278L164.294 114.816C164.806 113.84 165.75 113.328 166.902 113.328C169.43 113.328 170.566 115.424 170.566 117.76C170.566 120.096 169.43 122.192 166.902 122.192C165.798 122.192 164.822 121.696 164.374 120.88V124.4H163.03ZM166.774 120.912C168.246 120.912 169.158 119.744 169.158 117.76C169.158 115.776 168.246 114.608 166.774 114.608C165.302 114.608 164.374 115.68 164.374 117.76C164.374 119.84 165.286 120.912 166.774 120.912ZM172.389 124.4V113.52H173.637L173.653 114.816C174.165 113.84 175.109 113.328 176.261 113.328C178.789 113.328 179.925 115.424 179.925 117.76C179.925 120.096 178.789 122.192 176.261 122.192C175.157 122.192 174.181 121.696 173.733 120.88V124.4H172.389ZM176.133 120.912C177.605 120.912 178.517 119.744 178.517 117.76C178.517 115.776 177.605 114.608 176.133 114.608C174.661 114.608 173.733 115.68 173.733 117.76C173.733 119.84 174.645 120.912 176.133 120.912ZM181.749 122V113.52H182.933L182.981 115.088C183.285 114.016 183.957 113.52 184.997 113.52H185.829V114.8H185.013C183.733 114.8 183.093 115.488 183.093 116.88V122H181.749ZM190.483 122.192C188.131 122.192 186.595 120.464 186.595 117.76C186.595 115.056 188.131 113.328 190.483 113.328C192.819 113.328 194.355 115.056 194.355 117.76C194.355 120.464 192.819 122.192 190.483 122.192ZM190.483 120.912C192.035 120.912 192.947 119.728 192.947 117.76C192.947 115.792 192.035 114.608 190.483 114.608C188.915 114.608 188.003 115.792 188.003 117.76C188.003 119.728 188.915 120.912 190.483 120.912ZM195.018 122L198.138 117.648L195.178 113.52H196.746L198.97 116.72L201.13 113.52H202.73L199.802 117.68L202.874 122H201.306L198.97 118.576L196.618 122H195.018ZM208.521 122V120.688C209.721 119.968 210.393 118.896 210.393 117.552C210.393 117.36 210.361 117.152 210.329 116.928H208.505V115.744H210.057C209.785 114.912 209.593 114.192 209.593 113.536C209.593 111.744 211.033 110.384 212.969 110.384C215.353 110.384 216.409 111.712 216.649 113.2L215.049 113.312C214.777 112.256 213.961 111.728 213.033 111.728C211.817 111.728 211.017 112.576 211.017 113.76C211.017 114.256 211.177 114.896 211.433 115.744H214.281V116.928H211.625C211.625 118.832 211.241 119.92 209.897 120.608H216.457V122H208.521ZM222.222 122.256C219.694 122.256 218.302 120.944 218.206 119.072L219.63 118.976C219.758 120.368 220.798 120.912 222.222 120.912C223.694 120.912 224.974 120.368 224.974 118.832C224.974 117.328 223.87 116.64 222.238 116.64H221.342V115.296H222.238C223.582 115.296 224.574 114.816 224.574 113.52C224.574 112.352 223.806 111.728 222.302 111.728C220.798 111.728 220.078 112.336 219.934 113.344L218.494 113.248C218.702 111.552 220.03 110.384 222.302 110.384C224.606 110.384 226.014 111.568 226.014 113.456C226.014 114.672 225.342 115.488 224.046 115.888C225.518 116.288 226.414 117.376 226.414 118.832C226.414 121.008 224.686 122.256 222.222 122.256ZM232.051 122.256C229.603 122.256 227.859 121.088 227.859 118.88C227.859 117.408 228.707 116.368 230.051 115.888C229.043 115.472 228.403 114.72 228.403 113.504C228.403 111.712 229.843 110.384 232.051 110.384C234.259 110.384 235.699 111.712 235.699 113.504C235.699 114.72 235.059 115.472 234.051 115.888C235.395 116.368 236.243 117.408 236.243 118.88C236.243 121.088 234.499 122.256 232.051 122.256ZM232.051 115.328C233.459 115.328 234.259 114.72 234.259 113.504C234.259 112.416 233.491 111.728 232.051 111.728C230.611 111.728 229.843 112.416 229.843 113.504C229.843 114.72 230.643 115.328 232.051 115.328ZM232.051 120.912C233.731 120.912 234.803 120.24 234.803 118.8C234.803 117.472 233.939 116.608 232.051 116.608C230.163 116.608 229.299 117.472 229.299 118.8C229.299 120.24 230.371 120.912 232.051 120.912ZM238.19 123.76H236.99C238.334 121.456 239.022 119.168 239.022 116.88C239.022 114.592 238.334 112.288 236.99 110H238.19C239.662 112.208 240.414 114.544 240.414 116.88C240.414 119.216 239.662 121.552 238.19 123.76ZM15.6 146L12.608 134.64H14.112L16.448 144.112L18.768 134.64H20.336L22.672 144.112L24.992 134.64H26.512L23.52 146H21.792L19.552 137.2L17.312 146H15.6ZM31.0764 146.192C28.6764 146.192 27.1884 144.448 27.1884 141.76C27.1884 139.072 28.6764 137.328 31.0124 137.328C33.2204 137.328 34.7564 138.928 34.7564 141.776V142.176H28.5964C28.6924 144 29.6044 144.912 31.0764 144.912C32.1804 144.912 32.9004 144.352 33.1884 143.488L34.6284 143.6C34.1804 145.12 32.8684 146.192 31.0764 146.192ZM28.5964 140.992H33.2844C33.1564 139.36 32.2604 138.608 31.0124 138.608C29.7004 138.608 28.8204 139.424 28.5964 140.992ZM38.319 146C37.327 146 36.655 145.52 36.655 144.4V134.64H37.999V144.288C37.999 144.64 38.175 144.816 38.527 144.816H39.263V146H38.319ZM44.1389 146.192C41.7709 146.192 40.2509 144.448 40.2509 141.76C40.2509 139.072 41.7709 137.328 44.1389 137.328C46.0909 137.328 47.4509 138.384 47.7389 140.272L46.3309 140.368C46.1389 139.248 45.2909 138.608 44.1389 138.608C42.5709 138.608 41.6589 139.792 41.6589 141.76C41.6589 143.728 42.5709 144.912 44.1389 144.912C45.2909 144.912 46.1389 144.272 46.3309 142.992L47.7389 143.088C47.4509 144.976 46.0909 146.192 44.1389 146.192ZM52.717 146.192C50.365 146.192 48.829 144.464 48.829 141.76C48.829 139.056 50.365 137.328 52.717 137.328C55.053 137.328 56.589 139.056 56.589 141.76C56.589 144.464 55.053 146.192 52.717 146.192ZM52.717 144.912C54.269 144.912 55.181 143.728 55.181 141.76C55.181 139.792 54.269 138.608 52.717 138.608C51.149 138.608 50.237 139.792 50.237 141.76C50.237 143.728 51.149 144.912 52.717 144.912ZM58.4206 146V137.52H59.6526L59.6846 139.008C60.1006 137.968 60.9806 137.328 62.0686 137.328C63.3486 137.328 64.2446 137.968 64.6126 139.104C64.9806 137.968 65.8446 137.328 67.0926 137.328C68.9006 137.328 69.8926 138.496 69.8926 140.544V146H68.5486V140.832C68.5486 139.296 67.9406 138.512 66.7726 138.512C65.5886 138.512 64.8206 139.408 64.8206 140.928V146H63.4766V140.928C63.4766 139.424 62.9806 138.512 61.7326 138.512C60.5486 138.512 59.7646 139.424 59.7646 140.928V146H58.4206ZM75.5764 146.192C73.1764 146.192 71.6884 144.448 71.6884 141.76C71.6884 139.072 73.1764 137.328 75.5124 137.328C77.7204 137.328 79.2564 138.928 79.2564 141.776V142.176H73.0964C73.1924 144 74.1044 144.912 75.5764 144.912C76.6804 144.912 77.4004 144.352 77.6884 143.488L79.1284 143.6C78.6804 145.12 77.3684 146.192 75.5764 146.192ZM73.0964 140.992H77.7844C77.6564 139.36 76.7604 138.608 75.5124 138.608C74.2004 138.608 73.3204 139.424 73.0964 140.992ZM85.4251 146V134.64H89.5051C92.0331 134.64 93.5211 135.92 93.5211 138.08C93.5211 140.272 92.0331 141.584 89.5051 141.584H86.8011V146H85.4251ZM86.8011 140.24H89.5051C91.2171 140.24 92.0811 139.504 92.0811 138.08C92.0811 136.688 91.2171 135.984 89.5051 135.984H86.8011V140.24ZM95.2949 136.192V134.624H96.7029V136.192H95.2949ZM95.3269 146V137.52H96.6709V146H95.3269ZM102.389 146.192C100.021 146.192 98.5009 144.448 98.5009 141.76C98.5009 139.072 100.021 137.328 102.389 137.328C104.341 137.328 105.701 138.384 105.989 140.272L104.581 140.368C104.389 139.248 103.541 138.608 102.389 138.608C100.821 138.608 99.9089 139.792 99.9089 141.76C99.9089 143.728 100.821 144.912 102.389 144.912C103.541 144.912 104.389 144.272 104.581 142.992L105.989 143.088C105.701 144.976 104.341 146.192 102.389 146.192ZM107.655 146V134.64H108.999V142.08L113.127 137.52H114.919L111.575 141.12L115.063 146H113.431L110.663 142.032L108.999 143.792V146H107.655ZM119.564 146.192C117.868 146.192 116.78 144.992 116.78 142.976V137.52H118.124V142.608C118.124 144.256 118.7 145.008 119.916 145.008C121.26 145.008 122.076 144.096 122.076 142.576V137.52H123.42V146H122.14V144.624C121.676 145.632 120.78 146.192 119.564 146.192ZM125.983 148.4V137.52H127.231L127.247 138.816C127.759 137.84 128.703 137.328 129.855 137.328C132.383 137.328 133.519 139.424 133.519 141.76C133.519 144.096 132.383 146.192 129.855 146.192C128.751 146.192 127.775 145.696 127.327 144.88V148.4H125.983ZM129.727 144.912C131.199 144.912 132.111 143.744 132.111 141.76C132.111 139.776 131.199 138.608 129.727 138.608C128.255 138.608 127.327 139.68 127.327 141.76C127.327 143.84 128.239 144.912 129.727 144.912ZM138.431 146.192C136.095 146.192 134.895 144.992 134.767 143.328L136.174 143.232C136.335 144.256 136.927 144.912 138.431 144.912C139.583 144.912 140.239 144.56 140.239 143.728C140.239 143.056 139.903 142.768 138.174 142.448C135.807 142 135.103 141.264 135.103 139.92C135.103 138.416 136.271 137.328 138.319 137.328C140.559 137.328 141.503 138.672 141.679 140.048L140.271 140.144C140.191 139.344 139.679 138.608 138.286 138.608C137.071 138.608 136.511 139.136 136.511 139.856C136.511 140.688 136.943 141.008 138.431 141.264C140.927 141.696 141.647 142.384 141.647 143.728C141.647 145.296 140.303 146.192 138.431 146.192ZM147.623 136.192V134.624H149.031V136.192H147.623ZM147.655 146V137.52H148.999V146H147.655ZM154.493 146.192C152.157 146.192 150.957 144.992 150.829 143.328L152.237 143.232C152.397 144.256 152.989 144.912 154.493 144.912C155.645 144.912 156.301 144.56 156.301 143.728C156.301 143.056 155.965 142.768 154.237 142.448C151.869 142 151.165 141.264 151.165 139.92C151.165 138.416 152.333 137.328 154.381 137.328C156.621 137.328 157.565 138.672 157.741 140.048L156.333 140.144C156.253 139.344 155.741 138.608 154.349 138.608C153.133 138.608 152.573 139.136 152.573 139.856C152.573 140.688 153.005 141.008 154.493 141.264C156.989 141.696 157.709 142.384 157.709 143.728C157.709 145.296 156.365 146.192 154.493 146.192ZM166.822 146C165.286 146 164.566 145.328 164.566 143.824V138.704H163.318V137.52H164.566V135.536H165.91V137.52H168.166V138.704H165.91V143.792C165.91 144.56 166.246 144.816 166.95 144.816H168.166V146H166.822ZM169.733 146V134.64H171.077V138.848C171.509 137.808 172.469 137.328 173.637 137.328C175.461 137.328 176.469 138.656 176.469 140.544V146H175.125V140.928C175.125 139.296 174.533 138.512 173.349 138.512C171.973 138.512 171.077 139.376 171.077 140.944V146H169.733ZM182.155 146.192C179.755 146.192 178.267 144.448 178.267 141.76C178.267 139.072 179.755 137.328 182.091 137.328C184.299 137.328 185.835 138.928 185.835 141.776V142.176H179.674C179.771 144 180.683 144.912 182.155 144.912C183.259 144.912 183.979 144.352 184.267 143.488L185.707 143.6C185.259 145.12 183.947 146.192 182.155 146.192ZM179.674 140.992H184.363C184.235 139.36 183.339 138.608 182.091 138.608C180.779 138.608 179.899 139.424 179.674 140.992ZM191.811 146V137.52H193.043L193.075 139.008C193.491 137.968 194.371 137.328 195.459 137.328C196.739 137.328 197.635 137.968 198.003 139.104C198.371 137.968 199.235 137.328 200.483 137.328C202.291 137.328 203.283 138.496 203.283 140.544V146H201.939V140.832C201.939 139.296 201.331 138.512 200.163 138.512C198.979 138.512 198.211 139.408 198.211 140.928V146H196.867V140.928C196.867 139.424 196.371 138.512 195.123 138.512C193.939 138.512 193.155 139.424 193.155 140.928V146H191.811ZM208.967 146.192C206.615 146.192 205.079 144.464 205.079 141.76C205.079 139.056 206.615 137.328 208.967 137.328C211.303 137.328 212.839 139.056 212.839 141.76C212.839 144.464 211.303 146.192 208.967 146.192ZM208.967 144.912C210.519 144.912 211.431 143.728 211.431 141.76C211.431 139.792 210.519 138.608 208.967 138.608C207.399 138.608 206.487 139.792 206.487 141.76C206.487 143.728 207.399 144.912 208.967 144.912ZM217.759 146.192C215.423 146.192 214.223 144.992 214.095 143.328L215.503 143.232C215.663 144.256 216.255 144.912 217.759 144.912C218.911 144.912 219.567 144.56 219.567 143.728C219.567 143.056 219.231 142.768 217.503 142.448C215.135 142 214.431 141.264 214.431 139.92C214.431 138.416 215.599 137.328 217.647 137.328C219.887 137.328 220.831 138.672 221.007 140.048L219.599 140.144C219.519 139.344 219.007 138.608 217.615 138.608C216.399 138.608 215.839 139.136 215.839 139.856C215.839 140.688 216.271 141.008 217.759 141.264C220.255 141.696 220.975 142.384 220.975 143.728C220.975 145.296 219.631 146.192 217.759 146.192ZM225.603 146C224.067 146 223.347 145.328 223.347 143.824V138.704H222.099V137.52H223.347V135.536H224.691V137.52H226.947V138.704H224.691V143.792C224.691 144.56 225.027 144.816 225.731 144.816H226.947V146H225.603ZM236.076 146.192C233.708 146.192 232.188 144.448 232.188 141.76C232.188 139.072 233.708 137.328 236.076 137.328C238.028 137.328 239.388 138.384 239.676 140.272L238.268 140.368C238.076 139.248 237.228 138.608 236.076 138.608C234.508 138.608 233.596 139.792 233.596 141.76C233.596 143.728 234.508 144.912 236.076 144.912C237.228 144.912 238.076 144.272 238.268 142.992L239.676 143.088C239.388 144.976 238.028 146.192 236.076 146.192ZM244.655 146.192C242.303 146.192 240.767 144.464 240.767 141.76C240.767 139.056 242.303 137.328 244.655 137.328C246.991 137.328 248.527 139.056 248.527 141.76C248.527 144.464 246.991 146.192 244.655 146.192ZM244.655 144.912C246.207 144.912 247.119 143.728 247.119 141.76C247.119 139.792 246.207 138.608 244.655 138.608C243.087 138.608 242.174 139.792 242.174 141.76C242.174 143.728 243.087 144.912 244.655 144.912ZM250.358 146V137.52H251.59L251.622 139.008C252.038 137.968 252.918 137.328 254.006 137.328C255.286 137.328 256.182 137.968 256.55 139.104C256.918 137.968 257.782 137.328 259.03 137.328C260.838 137.328 261.83 138.496 261.83 140.544V146H260.486V140.832C260.486 139.296 259.878 138.512 258.71 138.512C257.526 138.512 256.758 139.408 256.758 140.928V146H255.414V140.928C255.414 139.424 254.918 138.512 253.67 138.512C252.486 138.512 251.702 139.424 251.702 140.928V146H250.358ZM264.077 148.4V137.52H265.325L265.341 138.816C265.853 137.84 266.797 137.328 267.949 137.328C270.477 137.328 271.613 139.424 271.613 141.76C271.613 144.096 270.477 146.192 267.949 146.192C266.845 146.192 265.869 145.696 265.421 144.88V148.4H264.077ZM267.821 144.912C269.293 144.912 270.205 143.744 270.205 141.76C270.205 139.776 269.293 138.608 267.821 138.608C266.349 138.608 265.421 139.68 265.421 141.76C265.421 143.84 266.333 144.912 267.821 144.912ZM276.748 146.192C274.348 146.192 272.86 144.448 272.86 141.76C272.86 139.072 274.348 137.328 276.684 137.328C278.892 137.328 280.428 138.928 280.428 141.776V142.176H274.268C274.364 144 275.276 144.912 276.748 144.912C277.852 144.912 278.572 144.352 278.86 143.488L280.3 143.6C279.852 145.12 278.54 146.192 276.748 146.192ZM274.268 140.992H278.956C278.828 139.36 277.932 138.608 276.684 138.608C275.372 138.608 274.492 139.424 274.268 140.992ZM285.025 146C283.489 146 282.769 145.328 282.769 143.824V138.704H281.521V137.52H282.769V135.536H284.113V137.52H286.369V138.704H284.113V143.792C284.113 144.56 284.449 144.816 285.153 144.816H286.369V146H285.025ZM287.904 136.192V134.624H289.312V136.192H287.904ZM287.936 146V137.52H289.28V146H287.936ZM294.306 146C292.77 146 292.05 145.328 292.05 143.824V138.704H290.802V137.52H292.05V135.536H293.394V137.52H295.65V138.704H293.394V143.792C293.394 144.56 293.73 144.816 294.434 144.816H295.65V146H294.306ZM297.186 136.192V134.624H298.594V136.192H297.186ZM297.218 146V137.52H298.562V146H297.218ZM303.128 146L300.04 137.52H301.512L303.976 144.624L306.44 137.52H307.911L304.824 146H303.128ZM312.436 146.192C310.036 146.192 308.548 144.448 308.548 141.76C308.548 139.072 310.036 137.328 312.372 137.328C314.58 137.328 316.116 138.928 316.116 141.776V142.176H309.956C310.052 144 310.964 144.912 312.436 144.912C313.54 144.912 314.26 144.352 314.548 143.488L315.988 143.6C315.54 145.12 314.228 146.192 312.436 146.192ZM309.956 140.992H314.644C314.516 139.36 313.62 138.608 312.372 138.608C311.06 138.608 310.18 139.424 309.956 140.992ZM317.517 146V144.192H319.325V146H317.517ZM329.407 146.256C326.783 146.256 325.103 144.672 324.911 142.368L326.351 142.272C326.575 143.968 327.615 144.912 329.439 144.912C331.023 144.912 331.951 144.288 331.951 143.12C331.951 142.064 331.423 141.424 328.703 140.752C326.079 140.096 325.151 139.312 325.151 137.616C325.151 135.712 326.591 134.384 328.927 134.384C331.423 134.384 332.895 135.92 333.151 138L331.711 138.096C331.519 136.72 330.591 135.728 328.895 135.728C327.487 135.728 326.591 136.464 326.591 137.552C326.591 138.624 327.167 139.008 329.567 139.6C332.415 140.304 333.391 141.392 333.391 143.024C333.391 145.008 331.727 146.256 329.407 146.256ZM335.733 146V134.64H337.077V138.848C337.509 137.808 338.469 137.328 339.637 137.328C341.461 137.328 342.469 138.656 342.469 140.544V146H341.125V140.928C341.125 139.296 340.533 138.512 339.349 138.512C337.973 138.512 337.077 139.376 337.077 140.944V146H335.733ZM347.162 146.192C345.402 146.192 344.298 145.344 344.298 143.888C344.298 142.448 345.114 141.648 346.97 141.296L349.978 140.736C349.978 139.312 349.306 138.608 347.962 138.608C346.778 138.608 346.122 139.152 345.866 140.128L344.442 140.016C344.762 138.416 346.042 137.328 347.962 137.328C350.138 137.328 351.322 138.64 351.322 140.784V144.288C351.322 144.672 351.45 144.816 351.77 144.816H352.106V146C352.01 146.016 351.802 146.032 351.594 146.032C350.57 146.032 350.106 145.632 349.994 144.688C349.578 145.568 348.41 146.192 347.162 146.192ZM347.29 145.008C348.986 145.008 349.978 143.92 349.978 142.512V141.904L347.226 142.416C346.074 142.624 345.706 143.056 345.706 143.76C345.706 144.56 346.298 145.008 347.29 145.008ZM355.194 146C354.202 146 353.53 145.52 353.53 144.4V134.64H354.874V144.288C354.874 144.64 355.05 144.816 355.402 144.816H356.138V146H355.194ZM359.303 146C358.311 146 357.639 145.52 357.639 144.4V134.64H358.983V144.288C358.983 144.64 359.159 144.816 359.511 144.816H360.247V146H359.303ZM366.097 146V134.64H367.473V146H366.097ZM378.106 146.192C376.922 146.192 375.962 145.648 375.482 144.72L375.434 146H374.218V134.64H375.562V138.704C375.978 138 376.922 137.328 378.106 137.328C380.346 137.328 381.753 139.04 381.753 141.76C381.753 144.48 380.346 146.192 378.106 146.192ZM378.026 144.912C379.45 144.912 380.346 143.696 380.346 141.76C380.346 139.792 379.45 138.608 378.058 138.608C376.49 138.608 375.562 139.792 375.562 141.76C375.562 143.696 376.49 144.912 378.026 144.912ZM386.889 146.192C384.537 146.192 383.001 144.464 383.001 141.76C383.001 139.056 384.537 137.328 386.889 137.328C389.225 137.328 390.761 139.056 390.761 141.76C390.761 144.464 389.225 146.192 386.889 146.192ZM386.889 144.912C388.441 144.912 389.353 143.728 389.353 141.76C389.353 139.792 388.441 138.608 386.889 138.608C385.321 138.608 384.409 139.792 384.409 141.76C384.409 143.728 385.321 144.912 386.889 144.912ZM395.905 146.192C393.553 146.192 392.017 144.464 392.017 141.76C392.017 139.056 393.553 137.328 395.905 137.328C398.241 137.328 399.777 139.056 399.777 141.76C399.777 144.464 398.241 146.192 395.905 146.192ZM395.905 144.912C397.457 144.912 398.369 143.728 398.369 141.76C398.369 139.792 397.457 138.608 395.905 138.608C394.337 138.608 393.424 139.792 393.424 141.76C393.424 143.728 394.337 144.912 395.905 144.912ZM401.608 146V134.64H402.952V142.08L407.08 137.52H408.872L405.528 141.12L409.016 146H407.384L404.616 142.032L402.952 143.792V146H401.608ZM418.15 146C416.614 146 415.894 145.328 415.894 143.824V138.704H414.646V137.52H415.894V135.536H417.238V137.52H419.494V138.704H417.238V143.792C417.238 144.56 417.574 144.816 418.278 144.816H419.494V146H418.15ZM421.061 146V134.64H422.405V138.848C422.837 137.808 423.797 137.328 424.965 137.328C426.789 137.328 427.797 138.656 427.797 140.544V146H426.453V140.928C426.453 139.296 425.861 138.512 424.677 138.512C423.301 138.512 422.405 139.376 422.405 140.944V146H421.061ZM433.483 146.192C431.083 146.192 429.595 144.448 429.595 141.76C429.595 139.072 431.083 137.328 433.419 137.328C435.627 137.328 437.163 138.928 437.163 141.776V142.176H431.003C431.099 144 432.011 144.912 433.483 144.912C434.587 144.912 435.307 144.352 435.595 143.488L437.035 143.6C436.587 145.12 435.275 146.192 433.483 146.192ZM431.003 140.992H435.691C435.563 139.36 434.667 138.608 433.419 138.608C432.107 138.608 431.227 139.424 431.003 140.992ZM438.983 146V137.52H440.215L440.247 139.008C440.663 137.968 441.543 137.328 442.631 137.328C443.911 137.328 444.807 137.968 445.175 139.104C445.543 137.968 446.407 137.328 447.655 137.328C449.463 137.328 450.455 138.496 450.455 140.544V146H449.111V140.832C449.111 139.296 448.503 138.512 447.335 138.512C446.151 138.512 445.383 139.408 445.383 140.928V146H444.039V140.928C444.039 139.424 443.543 138.512 442.295 138.512C441.111 138.512 440.327 139.424 440.327 140.928V146H438.983ZM457.014 146V137.52H458.246L458.278 139.04C458.726 137.872 459.718 137.328 460.886 137.328C462.822 137.328 463.75 138.752 463.75 140.544V146H462.406V140.928C462.406 139.36 461.878 138.512 460.598 138.512C459.286 138.512 458.358 139.36 458.358 140.928V146H457.014ZM469.436 146.192C467.084 146.192 465.548 144.464 465.548 141.76C465.548 139.056 467.084 137.328 469.436 137.328C471.772 137.328 473.308 139.056 473.308 141.76C473.308 144.464 471.772 146.192 469.436 146.192ZM469.436 144.912C470.988 144.912 471.9 143.728 471.9 141.76C471.9 139.792 470.988 138.608 469.436 138.608C467.868 138.608 466.956 139.792 466.956 141.76C466.956 143.728 467.868 144.912 469.436 144.912ZM476.585 146L473.961 137.52H475.433L477.417 144.592L479.433 137.52H480.873L482.889 144.592L484.889 137.52H486.361L483.737 146H482.041L480.153 139.552L478.265 146H476.585ZM490.463 142.784C490.463 141.248 490.911 140.448 492.015 139.76C493.263 138.992 493.519 138.608 493.519 137.648C493.519 136.544 492.735 135.728 491.439 135.728C489.855 135.728 489.023 136.56 488.863 138.096L487.423 138C487.615 135.888 489.103 134.384 491.439 134.384C493.519 134.384 494.959 135.744 494.959 137.648C494.959 138.992 494.319 139.696 492.943 140.592C492.079 141.152 491.839 141.664 491.839 142.784H490.463ZM490.207 146V144.192H492.015V146H490.207Z" fill="#1E2939"/>
<defs>
<linearGradient id="paint0_linear_6908_39498" x1="0" y1="80" x2="508" y2="80" gradientUnits="userSpaceOnUse">
<stop stop-color="#F3E2EE"/>
<stop offset="1" stop-color="#DDB0D0"/>
</linearGradient>
</defs>
</svg>
