<svg xmlns="http://www.w3.org/2000/svg" width="auto" fill="currentColor" aria-hidden="true" viewBox="0 0 665 200"><g clip-path="url(#a)"><path d="m243.328 72-33.679 88h-25.77L150 72h29.429l18.32 57.85L216.069 72zm84.068 41.72c0-26.41-15.059-44.72-42.139-44.72-31.159 0-45.069 20.65-45.069 47.39 0 28.9 15.87 46.57 48.879 46.61 10.74 0 22.16-1.77 32.209-6.89l2.15-22.29a69.64 69.64 0 0 1-30.059 6.44c-13.12 0-21.28-3.07-24.179-14.3h57.548c.34-3.26.68-8.87.66-12.24m-58.918-4.79c1.03-11.58 5.469-17.39 16.349-17.36 9.53 0 15.16 5.96 15.33 17.36zM380.665 69c-6.98 0-15.53 4.48-19.609 14.88L359.296 72h-23.98v88.01h27.92v-57.04c2.899-6.83 8.699-10.39 17.539-10.39 3.08.02 6.1.89 8.98 2l2.76-21.41c-3.54-2.07-7.75-4.23-11.85-4.17m85.808-6h27.92V40.07h-27.92zm0 97h27.92V72h-27.92zm83.829 3c7.259-.04 14.439-1.84 21.109-4.72l2.11-22.78a50 50 0 0 1-20.439 4.08c-10.57 0-21.8-6.44-21.8-23.15s10.39-22.86 22.48-22.86c6.189-.12 12.339.75 18.059 3.12l2.15-21.63c-7.29-3.41-15.37-6.23-23.419-6.07-29.64 0-47.859 19.15-47.859 47.41s17.999 46.62 47.609 46.6m-120.898-37.04V92.57h24.63l1.77-20.57h-26.4l.1-32s-24.869.06-28.799 17.24c-.41 1.88-.6 3.79-.58 5.71v66.57c0 21.28 12.609 32.68 34.749 32.68 6.16 0 12.25-.52 18.17-2.21l1.91-21.97a42.3 42.3 0 0 1-13.27 1.7c-8.87-.17-12.28-4.59-12.28-13.76m235.595-12.24c0-26.41-15.07-44.72-42.149-44.72-31.159 0-45.069 20.65-45.069 47.39 0 28.9 15.87 46.57 48.879 46.61 10.74 0 22.16-1.77 32.209-6.89l2.15-22.29a69.64 69.64 0 0 1-30.059 6.44c-13.12 0-21.28-3.07-24.18-14.3h57.549c.34-3.26.69-8.87.67-12.24m-58.919-4.79c1.03-11.58 5.46-17.39 16.34-17.36 9.53 0 15.16 5.96 15.33 17.36z"/><path fill="url(#b)" d="M114.861 1.19c-3.51-1.38-7.27-1.61-10.561-.41-1.55.57-3.74 1.48-5.77 3.19l-58.054 48.3a41.14 41.14 0 0 0 31.242 14.78l-27.882 70.76c-10.73-31.15-23.651-68.67-23.651-68.67l-6.84 5.69C1.924 84.08-3.097 99.82 1.973 114.52l25.751 74.7c1.48 4.26 4.72 7.88 9.251 9.66 8.22 3.24 17.511-.8 20.751-9.02l66.155-167.93c3.24-8.22-.8-17.5-9.021-20.74"/></g><defs><linearGradient id="b" x1="0" x2="36.301" y1="199.998" y2="-14.975" gradientUnits="userSpaceOnUse"><stop stop-color="#0041c2"/><stop offset="1" stop-color="#8b42ff"/></linearGradient><clipPath id="a"><path d="M0 0h665v200H0z"/></clipPath></defs></svg>