<svg width="32" height="32" viewBox="0 0 32 32" fill="none" xmlns="http://www.w3.org/2000/svg">
<path d="M19 3H29C30.1035 3 31 3.8965 31 5V11C31 12.1035 30.1035 13 29 13H26.5771L24.8457 16L23.1133 15L25.4229 11H29V5H19V11H22V13H19C17.8965 13 17 12.1035 17 11V5C17 3.8965 17.8965 3 19 3ZM15 30H13V25C12.9982 23.3439 11.6561 22.0018 10 22H6C4.3439 22.0018 3.0018 23.3439 3 25V30H1V25C1.0033 22.2399 3.2399 20.0033 6 20H10C12.7601 20.0033 14.9967 22.2399 15 25V30ZM8 10C9.6569 10 11 11.3431 11 13C11 14.6569 9.6569 16 8 16C6.3431 16 5 14.6569 5 13C5.0019 11.3439 6.3439 10.0019 8 10ZM8 8C5.2386 8 3 10.2386 3 13C3 15.7614 5.2386 18 8 18C10.7614 18 13 15.7614 13 13C13 10.2386 10.7614 8 8 8Z" fill="black"/>
</svg>
