<svg width="32" height="32" viewBox="0 0 32 32" fill="none" xmlns="http://www.w3.org/2000/svg">
<path d="M16.5 14H20V12H18V11H16V12.0508C15.3933 12.175 14.8543 12.52 14.4874 13.0189C14.1205 13.5178 13.9518 14.1351 14.0141 14.7513C14.0763 15.3674 14.365 15.9386 14.8243 16.354C15.2836 16.7695 15.8807 16.9996 16.5 17H17.5C17.6326 17 17.7598 17.0527 17.8536 17.1464C17.9473 17.2402 18 17.3674 18 17.5C18 17.6326 17.9473 17.7598 17.8536 17.8536C17.7598 17.9473 17.6326 18 17.5 18H14V20H16V21H18V19.9492C18.6067 19.825 19.1457 19.48 19.5126 18.9811C19.8795 18.4822 20.0482 17.8649 19.9859 17.2487C19.9237 16.6326 19.6349 16.0614 19.1757 15.646C18.7164 15.2305 18.1193 15.0004 17.5 15H16.5C16.3674 15 16.2402 14.9473 16.1464 14.8536C16.0527 14.7598 16 14.6326 16 14.5C16 14.3674 16.0527 14.2402 16.1464 14.1464C16.2402 14.0527 16.3674 14 16.5 14Z" fill="black"/>
<path d="M29 13H26.98C26.9512 12.21 26.7606 11.4343 26.42 10.721C26.0795 10.0076 25.5962 9.37164 25 8.8525V5C25 4.81429 24.9483 4.63225 24.8507 4.47427C24.753 4.31629 24.6133 4.18863 24.4472 4.10557C24.2811 4.02252 24.0952 3.98736 23.9102 4.00404C23.7252 4.02072 23.5486 4.08857 23.4 4.2L19.6665 7H15C9.4905 7 5.5366 10.2412 5.0515 15H5C4.73486 14.9998 4.48064 14.8943 4.29316 14.7068C4.10567 14.5194 4.00024 14.2651 4 14V12H2V14C2.00087 14.7954 2.31722 15.5579 2.87964 16.1204C3.44206 16.6828 4.20462 16.9991 5 17H5.07C5.2151 18.3112 5.64129 19.5757 6.31951 20.7072C6.99773 21.8387 7.91201 22.8106 9 23.5566V27C9 27.2652 9.10536 27.5196 9.29289 27.7071C9.48043 27.8946 9.73478 28 10 28H14C14.2652 28 14.5196 27.8946 14.7071 27.7071C14.8946 27.5196 15 27.2652 15 27V25H18V27C18 27.2652 18.1054 27.5196 18.2929 27.7071C18.4804 27.8946 18.7348 28 19 28H23C23.2652 28 23.5196 27.8946 23.7071 27.7071C23.8946 27.5196 24 27.2652 24 27V23.6372C24.7224 23.2947 25.3539 22.787 25.8436 22.1551C26.3333 21.5233 26.6674 20.785 26.8188 20H29C29.2652 20 29.5196 19.8946 29.7071 19.7071C29.8946 19.5196 30 19.2652 30 19V14C30 13.7348 29.8946 13.4804 29.7071 13.2929C29.5196 13.1054 29.2652 13 29 13ZM28 18H25.124C24.8188 20.7529 24.3005 21.4854 22 22.3154V26H20V23H13V26H11V22.3779C9.79592 21.8051 8.7801 20.9008 8.07163 19.7712C7.36317 18.6416 6.99143 17.3334 7 16C7 11.1646 11.0181 9 15 9H20.3335L23 7V9.7764C25.4182 11.6357 24.9126 12.9624 25.0183 15H28V18Z" fill="black"/>
</svg>
