<svg width="32" height="32" viewBox="0 0 32 32" fill="none" xmlns="http://www.w3.org/2000/svg">
<path d="M10 14C9.20888 14 8.43552 13.7654 7.77772 13.3259C7.11992 12.8864 6.60723 12.2616 6.30448 11.5307C6.00173 10.7998 5.92252 9.99556 6.07686 9.21964C6.2312 8.44372 6.61216 7.73098 7.17157 7.17157C7.73098 6.61216 8.44372 6.2312 9.21964 6.07686C9.99556 5.92252 10.7998 6.00173 11.5307 6.30448C12.2616 6.60723 12.8864 7.11992 13.3259 7.77772C13.7654 8.43552 14 9.20888 14 10C13.9988 11.0605 13.577 12.0772 12.8271 12.8271C12.0772 13.577 11.0605 13.9988 10 14ZM10 8C9.60454 7.99961 9.21784 8.11646 8.88878 8.33579C8.55971 8.55511 8.30305 8.86707 8.15124 9.23224C7.99943 9.5974 7.95928 9.99937 8.03587 10.3873C8.11246 10.7753 8.30235 11.1319 8.58153 11.412C8.86072 11.692 9.21667 11.8831 9.60439 11.9609C9.99212 12.0387 10.3942 11.9999 10.7599 11.8492C11.1255 11.6986 11.4383 11.4429 11.6587 11.1145C11.879 10.7862 11.9971 10.3999 11.998 10.0044C11.9986 9.47372 11.7885 8.96449 11.4139 8.58864C11.0392 8.21278 10.5307 8.00106 10 8Z" fill="black"/>
<path d="M16.6436 29.4145L2.5858 15.3555C2.21075 14.9805 2.00003 14.4718 2 13.9414V4C2 3.46957 2.21071 2.96086 2.58579 2.58579C2.96086 2.21071 3.46957 2 4 2H13.9413C14.4717 2.00001 14.9804 2.21073 15.3555 2.5858L29.4144 16.6436C29.7894 17.0187 30 17.5274 30 18.0578C30 18.5883 29.7894 19.097 29.4144 19.4721L19.472 29.4146C19.0968 29.7895 18.5881 30.0001 18.0578 30.0001C17.5274 30.0001 17.0188 29.7894 16.6436 29.4145ZM4 4V13.9417L18.0578 28L28 18.0579L13.9416 4H4Z" fill="black"/>
</svg>
