<svg width="32" height="32" viewBox="0 0 32 32" fill="none" xmlns="http://www.w3.org/2000/svg">
<path d="M9.5 15C9.79667 15 10.0867 15.088 10.3334 15.2528C10.58 15.4176 10.7723 15.6519 10.8858 15.926C10.9994 16.2001 11.0291 16.5017 10.9712 16.7926C10.9133 17.0836 10.7704 17.3509 10.5607 17.5607C10.3509 17.7704 10.0836 17.9133 9.79264 17.9712C9.50167 18.0291 9.20007 17.9993 8.92598 17.8858C8.65189 17.7723 8.41762 17.58 8.2528 17.3334C8.08797 17.0867 8 16.7967 8 16.5C8 16.1022 8.15804 15.7206 8.43934 15.4393C8.72065 15.158 9.10218 15 9.5 15ZM9.5 13C8.80777 13 8.13108 13.2053 7.55551 13.5899C6.97993 13.9744 6.53133 14.5211 6.26642 15.1606C6.00152 15.8001 5.9322 16.5039 6.06725 17.1828C6.2023 17.8617 6.53564 18.4854 7.02513 18.9749C7.51461 19.4644 8.13825 19.7977 8.81718 19.9327C9.49612 20.0678 10.1999 19.9985 10.8394 19.7336C11.4789 19.4687 12.0256 19.0201 12.4101 18.4445C12.7947 17.8689 13 17.1922 13 16.5C13 15.5717 12.6313 14.6815 11.9749 14.0251C11.3185 13.3687 10.4283 13 9.5 13Z" fill="black"/>
<path d="M25 14H17C16.4696 14 15.9609 14.2107 15.5858 14.5858C15.2107 14.9609 15 15.4696 15 16V22H4V10.6L16 4.14002L28.53 10.88L29.47 9.12002L16.47 2.12002C16.3253 2.04298 16.1639 2.00269 16 2.00269C15.8361 2.00269 15.6747 2.04298 15.53 2.12002L2.53 9.12002C2.37032 9.20504 2.2367 9.33179 2.14336 9.48676C2.05003 9.64173 2.00048 9.81911 2 10V30H4V24H28V30H30V19C30 17.6739 29.4732 16.4022 28.5355 15.4645C27.5979 14.5268 26.3261 14 25 14ZM17 22V16H25C25.7956 16 26.5587 16.3161 27.1213 16.8787C27.6839 17.4413 28 18.2044 28 19V22H17Z" fill="black"/>
</svg>
