<svg width="32" height="32" viewBox="0 0 32 32" fill="none" xmlns="http://www.w3.org/2000/svg">
<path d="M10.0005 31H6.00049C5.47054 30.9984 4.96274 30.7872 4.588 30.4125C4.21326 30.0378 4.00205 29.53 4.00049 29V22C3.47054 21.9984 2.96274 21.7872 2.588 21.4125C2.21326 21.0378 2.00205 20.53 2.00049 20V14C1.99324 13.604 2.06588 13.2107 2.21407 12.8434C2.36227 12.4762 2.58298 12.1426 2.86301 11.8625C3.14304 11.5825 3.47666 11.3618 3.84391 11.2136C4.21117 11.0654 4.60453 10.9927 5.00049 11H11.0005C11.3965 10.9927 11.7898 11.0654 12.1571 11.2136C12.5243 11.3618 12.8579 11.5825 13.138 11.8625C13.418 12.1426 13.6387 12.4762 13.7869 12.8434C13.9351 13.2107 14.0078 13.604 14.0005 14V20C13.9989 20.53 13.7877 21.0378 13.413 21.4125C13.0383 21.7872 12.5304 21.9984 12.0005 22V29C11.9989 29.53 11.7877 30.0378 11.413 30.4125C11.0383 30.7872 10.5304 30.9984 10.0005 31ZM5.00049 13C4.86707 12.9919 4.73346 13.0123 4.60849 13.0597C4.48351 13.1071 4.37002 13.1805 4.2755 13.275C4.18099 13.3695 4.10761 13.483 4.0602 13.608C4.01279 13.733 3.99244 13.8666 4.00049 14V20H6.00049V29H10.0005V20H12.0005V14C12.0085 13.8666 11.9882 13.733 11.9408 13.608C11.8934 13.483 11.82 13.3695 11.7255 13.275C11.631 13.1805 11.5175 13.1071 11.3925 13.0597C11.2675 13.0123 11.1339 12.9919 11.0005 13H5.00049ZM8.00049 10C7.20937 10 6.43601 9.76541 5.77821 9.32588C5.12042 8.88635 4.60773 8.26164 4.30498 7.53074C4.00223 6.79983 3.92301 5.99556 4.07735 5.21964C4.23169 4.44372 4.61266 3.73098 5.17207 3.17157C5.73148 2.61216 6.44421 2.2312 7.22013 2.07686C7.99606 1.92252 8.80032 2.00173 9.53123 2.30448C10.2621 2.60723 10.8868 3.11992 11.3264 3.77772C11.7659 4.43552 12.0005 5.20888 12.0005 6C11.9993 7.0605 11.5775 8.07723 10.8276 8.82711C10.0777 9.577 9.061 9.99881 8.00049 10ZM8.00049 4C7.60493 4 7.21825 4.1173 6.88935 4.33706C6.56046 4.55683 6.30411 4.86918 6.15274 5.23463C6.00136 5.60009 5.96175 6.00222 6.03892 6.39018C6.11609 6.77814 6.30658 7.13451 6.58628 7.41422C6.86599 7.69392 7.22235 7.8844 7.61031 7.96157C7.99828 8.03874 8.40041 7.99914 8.76586 7.84776C9.13131 7.69639 9.44367 7.44004 9.66343 7.11114C9.8832 6.78224 10.0005 6.39556 10.0005 6C9.99997 5.46973 9.78908 4.96133 9.41412 4.58637C9.03917 4.21142 8.53077 4.00053 8.00049 4ZM28.7668 4.2558C28.0147 3.49157 26.9994 3.04295 25.928 3.00138C24.8565 2.95981 23.8096 3.32844 23.0005 4.0321C22.1914 3.32844 21.1445 2.95981 20.073 3.00138C19.0016 3.04295 17.9863 3.49157 17.2342 4.2558C16.4434 5.06306 16.0005 6.1481 16.0005 7.27815C16.0005 8.4082 16.4434 9.49324 17.2342 10.3005L22.9985 16.14L23.0005 16.1376L23.0025 16.1395L28.7668 10.3005C29.5576 9.49324 30.0005 8.4082 30.0005 7.27815C30.0005 6.1481 29.5576 5.06306 28.7668 4.2558ZM27.3425 8.8948L23.0025 13.2921L23.0005 13.29L22.9985 13.292L18.6585 8.8947C18.2349 8.46309 17.9977 7.88252 17.9977 7.2778C17.9977 6.67309 18.2349 6.09251 18.6585 5.6609C19.0811 5.25009 19.6472 5.02027 20.2365 5.02027C20.8259 5.02027 21.392 5.25009 21.8146 5.6609L22.9956 6.8683L23.0005 6.8634L23.0054 6.8684L24.1864 5.661C24.609 5.25019 25.1751 5.02037 25.7644 5.02037C26.3538 5.02037 26.9199 5.25019 27.3425 5.661C27.766 6.09261 28.0033 6.67319 28.0033 7.2779C28.0033 7.88262 27.766 8.46319 27.3425 8.8948Z" fill="black"/>
</svg>
