<svg width="32" height="32" viewBox="0 0 32 32" fill="none" xmlns="http://www.w3.org/2000/svg">
<path d="M24 23C25.1046 23 26 22.1046 26 21C26 19.8954 25.1046 19 24 19C22.8954 19 22 19.8954 22 21C22 22.1046 22.8954 23 24 23Z" fill="black"/>
<path d="M24 31L19.2212 24.5981C18.4309 23.565 18.0018 22.3008 18 21C18 19.4087 18.6321 17.8826 19.7574 16.7574C20.8826 15.6321 22.4087 15 24 15C25.5913 15 27.1174 15.6321 28.2426 16.7574C29.3679 17.8826 30 19.4087 30 21C29.9979 22.3027 29.5676 23.5686 28.7754 24.6028L24 31ZM24 17C22.9395 17.0012 21.9228 17.423 21.1729 18.1729C20.423 18.9228 20.0012 19.9395 20 21C20.0032 21.8673 20.2913 22.7096 20.82 23.3972L24 27.6567L27.1763 23.4019C27.7069 22.7133 27.9963 21.8693 28 21C27.9988 19.9395 27.577 18.9228 26.8271 18.1729C26.0772 17.423 25.0605 17.0012 24 17Z" fill="black"/>
<path d="M25 5H22V4C21.9985 3.47004 21.7873 2.96222 21.4125 2.58748C21.0378 2.21274 20.53 2.00153 20 2H12C11.47 2.00153 10.9622 2.21274 10.5875 2.58748C10.2127 2.96222 10.0015 3.47004 10 4V5H7C6.47004 5.00153 5.96222 5.21274 5.58748 5.58748C5.21274 5.96222 5.00153 6.47004 5 7V28C5.00153 28.53 5.21274 29.0378 5.58748 29.4125C5.96222 29.7873 6.47004 29.9985 7 30H16V28H7V7H10V10H22V7H25V12H27V7C26.9985 6.47004 26.7873 5.96222 26.4125 5.58748C26.0378 5.21274 25.53 5.00153 25 5ZM20 8H12V4H20V8Z" fill="black"/>
</svg>
