<svg width="32" height="32" viewBox="0 0 32 32" fill="none" xmlns="http://www.w3.org/2000/svg">
<path d="M29.9991 10.6799L27.9991 4.67989C27.9295 4.47291 27.7941 4.2944 27.6135 4.17161C27.433 4.04882 27.2172 3.98851 26.9991 3.9999H4.99909C4.78102 3.98851 4.56522 4.04882 4.38465 4.17161C4.20408 4.2944 4.06867 4.47291 3.99909 4.67989L1.99909 10.6799C1.98468 10.7861 1.98468 10.8937 1.99909 10.9999V16.9999C1.99909 17.2651 2.10444 17.5195 2.29198 17.707C2.47952 17.8945 2.73387 17.9999 2.99909 17.9999H3.99909V27.9999H5.99909V17.9999H11.9991V27.9999H27.9991V17.9999H28.9991C29.2643 17.9999 29.5187 17.8945 29.7062 17.707C29.8937 17.5195 29.9991 17.2651 29.9991 16.9999V10.9999C30.0135 10.8937 30.0135 10.7861 29.9991 10.6799ZM25.9991 25.9999H13.9991V17.9999H25.9991V25.9999ZM27.9991 15.9999H23.9991V11.9999H21.9991V15.9999H16.9991V11.9999H14.9991V15.9999H9.99909V11.9999H7.99909V15.9999H3.99909V11.1599L5.71909 5.9999H26.2791L27.9991 11.1599V15.9999Z" fill="black"/>
</svg>
