<svg width="32" height="32" fill="none" xmlns="http://www.w3.org/2000/svg"><g clip-path="url(#clip0_464_5922)"><path fill-rule="evenodd" clip-rule="evenodd" d="M20.7 2.3l7 7c.2.2.3.4.3.7v18c0 1.1-.9 2-2 2H10c-1.1 0-2-.9-2-2v-4H6c-1.1 0-2-.9-2-2v-6c0-1.1.9-2 2-2h2V4c0-1.1.9-2 2-2h10c.3 0 .5.1.7.3zm4.9 7.7L20 4.4V10h5.6zm-10 6H6v6h9.61L19 19l-3.4-3zM10 28h16V12h-6c-1.1 0-2-.9-2-2V4h-8v10h5.61c.47 0 .94.17 1.3.48l3.4 3.01c.43.37.68.92.68 1.51s-.25 1.14-.69 1.52l-3.38 2.99c-.37.32-.83.49-1.31.49H10v4zm6-9a1 1 0 11-2 0 1 1 0 012 0z" fill="url(#paint0_linear_464_5922)"/></g><defs><linearGradient id="paint0_linear_464_5922" x1="4" y1="2.483" x2="28" y2="30.483" gradientUnits="userSpaceOnUse"><stop stop-color="#F67E7D"/><stop offset="1" stop-color="#FFA6A6"/></linearGradient><clipPath id="clip0_464_5922"><path fill="#fff" d="M0 0h32v32H0z"/></clipPath></defs></svg>