<svg width="25" height="24" viewBox="0 0 25 24" fill="none" xmlns="http://www.w3.org/2000/svg">
<path d="M8.53541 15.4599L7.66675 22L12.2552 19.247C12.4048 19.1572 12.4796 19.1123 12.5595 19.0947C12.6302 19.0792 12.7033 19.0792 12.774 19.0947C12.8539 19.1123 12.9287 19.1572 13.0783 19.247L17.6667 22L16.7987 15.4571M17.0926 4.24888C17.2471 4.6224 17.5435 4.9193 17.9168 5.0743L19.2257 5.61648C19.5992 5.77121 19.896 6.06799 20.0507 6.44154C20.2054 6.81509 20.2054 7.23481 20.0507 7.60836L19.5089 8.91635C19.3541 9.29007 19.3539 9.71021 19.5094 10.0837L20.0503 11.3913C20.127 11.5764 20.1665 11.7747 20.1665 11.975C20.1665 12.1752 20.1271 12.3736 20.0504 12.5586C19.9738 12.7436 19.8614 12.9118 19.7198 13.0534C19.5782 13.195 19.41 13.3073 19.225 13.3839L17.917 13.9256C17.5435 14.0801 17.2466 14.3765 17.0916 14.7498L16.5495 16.0588C16.3947 16.4323 16.098 16.7291 15.7244 16.8838C15.3509 17.0386 14.9312 17.0386 14.5577 16.8838L13.2497 16.342C12.8762 16.1877 12.4566 16.188 12.0833 16.3429L10.7744 16.8843C10.4011 17.0387 9.98176 17.0386 9.60852 16.884C9.23529 16.7293 8.93869 16.4329 8.78386 16.0598L8.24154 14.7504C8.0871 14.3769 7.79066 14.08 7.41738 13.925L6.1085 13.3828C5.73512 13.2282 5.43844 12.9316 5.28366 12.5582C5.12888 12.1849 5.12867 11.7654 5.28308 11.3919L5.82485 10.0839C5.97919 9.71035 5.97887 9.29079 5.82397 8.91746L5.28298 7.60759C5.20628 7.42257 5.16678 7.22426 5.16675 7.02397C5.16672 6.82369 5.20615 6.62536 5.28279 6.44032C5.35943 6.25529 5.47178 6.08716 5.61342 5.94556C5.75506 5.80396 5.92322 5.69166 6.10827 5.61508L7.41622 5.07329C7.7894 4.91898 8.08611 4.6229 8.24123 4.25004L8.78338 2.94111C8.93811 2.56756 9.23488 2.27078 9.60842 2.11605C9.98195 1.96132 10.4016 1.96132 10.7752 2.11605L12.0831 2.65784C12.4567 2.81218 12.8762 2.81187 13.2495 2.65696L14.559 2.11689C14.9325 1.96224 15.3521 1.96228 15.7255 2.11697C16.099 2.27167 16.3957 2.56837 16.5505 2.94182L17.0928 4.25115L17.0926 4.24888Z" stroke="white" stroke-width="2" stroke-linecap="round" stroke-linejoin="round"/>
</svg>
