<svg width="500" height="500" viewBox="0 0 500 500" fill="none" xmlns="http://www.w3.org/2000/svg">

<style>
    @keyframes rotate {
        100% { transform: rotate(1turn); }
    }

    #p1, #p2, #p3 {
        animation: rotate 6s linear infinite;
        transform-box: fill-box;
        transform-origin: 50%;
    }

    #p2 {
        animation-duration: 7s;
    }

    #p3 {
        animation-duration: 8s;
    }

    #topCog {
        transform-origin: center;
        transform-box: fill-box;
        transform: scale(1.05);
    }

</style>

<path id="p2" fill-rule="evenodd" clip-rule="evenodd" d="M147.927 192.795C151.658 197.53 152.209 203.933 149.955 209.525C147.659 215.221 142.661 219.587 136.563 220.322L23.1542 233.987C15.6478 234.891 10 241.261 10 248.821V253.348C10 260.919 15.6634 267.294 23.1822 268.186L137.368 281.726C143.371 282.438 148.324 286.671 150.683 292.236C153.074 297.878 152.584 304.409 148.8 309.229L78.2729 399.081C73.6046 405.029 74.1147 413.526 79.4609 418.872L82.6617 422.073C88.0156 427.427 96.5278 427.93 102.475 423.244L192.468 352.33C197.292 348.53 203.822 347.991 209.506 350.315C215.239 352.658 219.632 357.705 220.373 363.855L233.987 476.846C234.891 484.352 241.261 490 248.821 490H253.348C260.919 490 267.294 484.337 268.186 476.818L281.609 363.618C282.345 357.41 286.743 352.296 292.504 349.868C298.321 347.417 305.047 347.917 310.012 351.814L399.081 421.727C405.029 426.395 413.526 425.885 418.872 420.539L422.073 417.338C427.427 411.984 427.93 403.472 423.244 397.525L352.943 308.309C349.03 303.343 348.481 296.623 350.861 290.767C353.272 284.835 358.478 280.275 364.835 279.509L476.846 266.013C484.352 265.109 490 258.739 490 251.179V246.652C490 239.081 484.337 232.706 476.818 231.814L364.02 218.439C357.765 217.697 352.607 213.278 350.132 207.485C347.609 201.578 348.095 194.726 352.06 189.674L421.727 100.919C426.395 94.9714 425.885 86.4741 420.539 81.1279L417.338 77.927C411.984 72.5732 403.472 72.0703 397.525 76.7564L307.981 147.315C303.105 151.158 296.512 151.72 290.749 149.41C284.855 147.048 280.32 141.89 279.56 135.585L266.013 23.1542C265.109 15.6478 258.739 10 251.179 10H246.652C239.081 10 232.706 15.6634 231.814 23.1822L218.322 136.968C217.604 143.017 213.349 148.016 207.751 150.42C202.02 152.882 195.364 152.406 190.458 148.555L100.919 78.2729C94.9714 73.6046 86.4741 74.1147 81.1279 79.4609L77.927 82.6617C72.5732 88.0156 72.0703 96.5278 76.7564 102.475L147.927 192.795ZM250.467 287.354C271.097 287.354 287.821 270.63 287.821 250C287.821 229.37 271.097 212.646 250.467 212.646C229.837 212.646 213.113 229.37 213.113 250C213.113 270.63 229.837 287.354 250.467 287.354Z" fill="#FF4C00"/>
<path id="p3" fill-rule="evenodd" clip-rule="evenodd" d="M147.927 192.795C151.658 197.53 152.209 203.933 149.955 209.525C147.659 215.221 142.661 219.587 136.563 220.322L23.1542 233.987C15.6478 234.891 10 241.261 10 248.821V253.348C10 260.919 15.6634 267.294 23.1822 268.186L137.368 281.726C143.371 282.438 148.324 286.671 150.683 292.236C153.074 297.878 152.584 304.409 148.8 309.229L78.2729 399.081C73.6046 405.029 74.1147 413.526 79.4609 418.872L82.6617 422.073C88.0156 427.427 96.5278 427.93 102.475 423.244L192.468 352.33C197.292 348.53 203.822 347.991 209.506 350.315C215.239 352.658 219.632 357.705 220.373 363.855L233.987 476.846C234.891 484.352 241.261 490 248.821 490H253.348C260.919 490 267.294 484.337 268.186 476.818L281.609 363.618C282.345 357.41 286.743 352.296 292.504 349.868C298.321 347.417 305.047 347.917 310.012 351.814L399.081 421.727C405.029 426.395 413.526 425.885 418.872 420.539L422.073 417.338C427.427 411.984 427.93 403.472 423.244 397.525L352.943 308.309C349.03 303.343 348.481 296.623 350.861 290.767C353.272 284.835 358.478 280.275 364.835 279.509L476.846 266.013C484.352 265.109 490 258.739 490 251.179V246.652C490 239.081 484.337 232.706 476.818 231.814L364.02 218.439C357.765 217.697 352.607 213.278 350.132 207.485C347.609 201.578 348.095 194.726 352.06 189.674L421.727 100.919C426.395 94.9714 425.885 86.4741 420.539 81.1279L417.338 77.927C411.984 72.5732 403.472 72.0703 397.525 76.7564L307.981 147.315C303.105 151.158 296.512 151.72 290.749 149.41C284.855 147.048 280.32 141.89 279.56 135.585L266.013 23.1542C265.109 15.6478 258.739 10 251.179 10H246.652C239.081 10 232.706 15.6634 231.814 23.1822L218.322 136.968C217.604 143.017 213.349 148.016 207.751 150.42C202.02 152.882 195.364 152.406 190.458 148.555L100.919 78.2729C94.9714 73.6046 86.4741 74.1147 81.1279 79.4609L77.927 82.6617C72.5732 88.0156 72.0703 96.5278 76.7564 102.475L147.927 192.795ZM250.467 287.354C271.097 287.354 287.821 270.63 287.821 250C287.821 229.37 271.097 212.646 250.467 212.646C229.837 212.646 213.113 229.37 213.113 250C213.113 270.63 229.837 287.354 250.467 287.354Z" fill="#0D0400"/>
<g id="topCog">
    <path id="p1" fill-rule="evenodd" clip-rule="evenodd" d="M147.927 192.795C151.658 197.53 152.209 203.933 149.955 209.525C147.659 215.221 142.661 219.587 136.563 220.322L23.1542 233.987C15.6478 234.891 10 241.261 10 248.821V253.348C10 260.919 15.6634 267.294 23.1822 268.186L137.368 281.726C143.371 282.438 148.324 286.671 150.683 292.236C153.074 297.878 152.584 304.409 148.8 309.229L78.2729 399.081C73.6046 405.029 74.1147 413.526 79.4609 418.872L82.6617 422.073C88.0156 427.427 96.5278 427.93 102.475 423.244L192.468 352.33C197.292 348.53 203.822 347.991 209.506 350.315C215.239 352.658 219.632 357.705 220.373 363.855L233.987 476.846C234.891 484.352 241.261 490 248.821 490H253.348C260.919 490 267.294 484.337 268.186 476.818L281.609 363.618C282.345 357.41 286.743 352.296 292.504 349.868C298.321 347.417 305.047 347.917 310.012 351.814L399.081 421.727C405.029 426.395 413.526 425.885 418.872 420.539L422.073 417.338C427.427 411.984 427.93 403.472 423.244 397.525L352.943 308.309C349.03 303.343 348.481 296.623 350.861 290.767C353.272 284.835 358.478 280.275 364.835 279.509L476.846 266.013C484.352 265.109 490 258.739 490 251.179V246.652C490 239.081 484.337 232.706 476.818 231.814L364.02 218.439C357.765 217.697 352.607 213.278 350.132 207.485C347.609 201.578 348.095 194.726 352.06 189.674L421.727 100.919C426.395 94.9714 425.885 86.4741 420.539 81.1279L417.338 77.927C411.984 72.5732 403.472 72.0703 397.525 76.7564L307.981 147.315C303.105 151.158 296.512 151.72 290.749 149.41C284.855 147.048 280.32 141.89 279.56 135.585L266.013 23.1542C265.109 15.6478 258.739 10 251.179 10H246.652C239.081 10 232.706 15.6634 231.814 23.1822L218.322 136.968C217.604 143.017 213.349 148.016 207.751 150.42C202.02 152.882 195.364 152.406 190.458 148.555L100.919 78.2729C94.9714 73.6046 86.4741 74.1147 81.1279 79.4609L77.927 82.6617C72.5732 88.0156 72.0703 96.5278 76.7564 102.475L147.927 192.795ZM250.467 287.354C271.097 287.354 287.821 270.63 287.821 250C287.821 229.37 271.097 212.646 250.467 212.646C229.837 212.646 213.113 229.37 213.113 250C213.113 270.63 229.837 287.354 250.467 287.354Z" fill="#F9F7F2"/>
</g>
<circle cx="250" cy="250" r="45" fill="#FF4C00"/>
</svg>
