<svg width="500" height="344" fill="none" xmlns="http://www.w3.org/2000/svg"><rect width="342.315" height="500" rx="40" transform="matrix(0 1 1 0 0 1)" fill="#FF4C00"/><rect width="342.315" height="500" rx="40" transform="matrix(0 1 1 0 0 1)" fill="url(#paint0_linear_364_3441)" fill-opacity=".25"/><mask id="a" style="mask-type:alpha" maskUnits="userSpaceOnUse" x="0" y="1" width="500" height="343"><rect width="342.315" height="500" rx="40" transform="matrix(0 1 1 0 0 1)" fill="#FF4C00"/><rect width="342.315" height="500" rx="40" transform="matrix(0 1 1 0 0 1)" fill="url(#paint1_linear_364_3441)" fill-opacity=".25"/></mask><g mask="url(#a)"><g clip-path="url(#clip0_364_3441)" fill="#fff"><path fill-rule="evenodd" clip-rule="evenodd" d="M16.001 1.029l15.983 27.683H63.95L79.934 1.029 63.95-26.655H31.983L16.001 1.029z" fill-opacity=".75"/><path fill-rule="evenodd" clip-rule="evenodd" d="M31.983 28.717L47.966 1.034h31.968L63.95 28.717H31.982z"/><path d="M36 .5l6 10.392h12L60 .5 54-9.892H42L36 .5z"/></g><g clip-path="url(#clip1_364_3441)" fill="#fff"><path fill-rule="evenodd" clip-rule="evenodd" d="M79.999 98.971L64.016 71.288H32.049L16.067 98.971l15.984 27.684h31.966l15.983-27.684z" fill-opacity=".75"/><path fill-rule="evenodd" clip-rule="evenodd" d="M64.017 71.283L48.034 98.966H16.066L32.05 71.283h31.967z"/><path d="M36 99.5l6 10.392h12L60 99.5l-6-10.392H42L36 99.5z"/></g><g clip-path="url(#clip2_364_3441)" fill="#fff"><path fill-rule="evenodd" clip-rule="evenodd" d="M79.999 197.316l-15.983-27.683H32.049l-15.983 27.683L32.05 225h31.966l15.983-27.684z" fill-opacity=".75"/><path fill-rule="evenodd" clip-rule="evenodd" d="M64.025 169.632l-15.983 27.683L64.026 225l15.982-27.683-15.983-27.685z"/><path d="M60 197.5l-6-10.392H42L36 197.5l6 10.392h12l6-10.392z"/></g><g opacity=".5" clip-path="url(#clip3_364_3441)" fill-rule="evenodd" clip-rule="evenodd" fill="#fff"><path d="M79.999 295.316l-15.983-27.683H32.049l-15.983 27.683L32.05 323h31.966l15.983-27.684z" fill-opacity=".75"/><path d="M64.025 267.632l-15.983 27.683L64.026 323l15.982-27.683-15.983-27.685z"/></g><g opacity=".5" clip-path="url(#clip4_364_3441)" fill-rule="evenodd" clip-rule="evenodd" fill="#fff"><path d="M96.001 1.029l15.983 27.683h31.967l15.983-27.683-15.983-27.684h-31.967L96.001 1.029z" fill-opacity=".75"/><path d="M111.983 28.717l15.983-27.683h31.968l-15.983 27.683h-31.968z"/></g><g opacity=".5" clip-path="url(#clip5_364_3441)" fill-rule="evenodd" clip-rule="evenodd" fill="#fff"><path d="M159.999 98.971l-15.983-27.683h-31.967L96.066 98.971l15.983 27.684h31.967l15.983-27.684z" fill-opacity=".75"/><path d="M144.017 71.283l-15.983 27.683H96.066l15.983-27.683h31.968z"/></g><g clip-path="url(#clip6_364_3441)" fill="#fff"><path fill-rule="evenodd" clip-rule="evenodd" d="M96.001 196.684l15.983 27.683h31.967l15.983-27.683L143.951 169h-31.967l-15.983 27.684z" fill-opacity=".75"/><path fill-rule="evenodd" clip-rule="evenodd" d="M111.975 224.368l15.983-27.683L111.974 169l-15.982 27.683 15.983 27.685z"/><path d="M116 196.5l6 10.392h12l6-10.392-6-10.392h-12l-6 10.392z"/></g><g opacity=".5" clip-path="url(#clip7_364_3441)" fill-rule="evenodd" clip-rule="evenodd" fill="#fff"><path d="M159.999 295.316l-15.983-27.683h-31.967l-15.983 27.683L112.05 323h31.967l15.983-27.684z" fill-opacity=".75"/><path d="M144.025 267.632l-15.983 27.683L144.026 323l15.982-27.683-15.983-27.685z"/></g><g opacity=".5" clip-path="url(#clip8_364_3441)" fill-rule="evenodd" clip-rule="evenodd" fill="#fff"><path d="M176.001.684l15.983 27.683h31.967L239.934.684 223.951-27h-31.967L176.001.684z" fill-opacity=".75"/><path d="M191.975 28.368L207.958.685 191.974-27 175.992.683l15.983 27.685z"/></g><g clip-path="url(#clip9_364_3441)" fill="#fff"><path fill-rule="evenodd" clip-rule="evenodd" d="M176.001 99.029l15.983 27.683h31.967l15.983-27.683-15.983-27.684h-31.967l-15.983 27.684z" fill-opacity=".75"/><path fill-rule="evenodd" clip-rule="evenodd" d="M191.983 126.717l15.983-27.683h31.968l-15.983 27.683h-31.968z"/><path d="M220 98.5l-6-10.392h-12L196 98.5l6 10.392h12l6-10.392z"/></g><g clip-path="url(#clip10_364_3441)" fill="#fff"><path fill-rule="evenodd" clip-rule="evenodd" d="M239.999 196.971l-15.983-27.683h-31.967l-15.983 27.683 15.983 27.684h31.967l15.983-27.684z" fill-opacity=".75"/><path fill-rule="evenodd" clip-rule="evenodd" d="M224.017 169.283l-15.983 27.683h-31.968l15.983-27.683h31.968z"/><path d="M220 197.5l-6-10.392h-12l-6 10.392 6 10.392h12l6-10.392z"/></g><g opacity=".5" clip-path="url(#clip11_364_3441)" fill-rule="evenodd" clip-rule="evenodd" fill="#fff"><path d="M176.001 295.029l15.983 27.683h31.967l15.983-27.683-15.983-27.684h-31.967l-15.983 27.684z" fill-opacity=".75"/><path d="M191.983 322.717l15.983-27.683h31.968l-15.983 27.683h-31.968z"/></g><g opacity=".5" clip-path="url(#clip12_364_3441)"><path fill-rule="evenodd" clip-rule="evenodd" d="M319.999.971l-15.983-27.683h-31.967L256.066.971l15.983 27.684h31.967L319.999.971z" fill="#fff" fill-opacity=".75"/></g><g clip-path="url(#clip13_364_3441)" fill="#fff"><path fill-rule="evenodd" clip-rule="evenodd" d="M256.001 98.684l15.983 27.683h31.967l15.983-27.683L303.951 71h-31.967l-15.983 27.684z" fill-opacity=".75"/><path fill-rule="evenodd" clip-rule="evenodd" d="M271.975 126.368l15.983-27.683L271.974 71l-15.982 27.683 15.983 27.685z"/><path d="M276 98.5l6 10.392h12l6-10.392-6-10.392h-12L276 98.5z"/></g><g opacity=".5" clip-path="url(#clip14_364_3441)" fill-rule="evenodd" clip-rule="evenodd" fill="#fff"><path d="M256.001 196.684l15.983 27.683h31.967l15.983-27.683L303.951 169h-31.967l-15.983 27.684z" fill-opacity=".75"/><path d="M271.975 224.368l15.983-27.683L271.974 169l-15.982 27.683 15.983 27.685z"/></g><g opacity=".5" clip-path="url(#clip15_364_3441)" fill-rule="evenodd" clip-rule="evenodd" fill="#fff"><path d="M256.001 294.684l15.983 27.683h31.967l15.983-27.683L303.951 267h-31.967l-15.983 27.684z" fill-opacity=".75"/><path d="M271.975 322.368l15.983-27.683L271.974 267l-15.982 27.683 15.983 27.685z"/></g><g opacity=".5" clip-path="url(#clip16_364_3441)" fill-rule="evenodd" clip-rule="evenodd" fill="#fff"><path d="M336.001 1.029l15.983 27.683h31.967l15.983-27.683-15.983-27.684h-31.967L336.001 1.029z" fill-opacity=".75"/><path d="M351.983 28.717l15.983-27.683h31.968l-15.983 27.683h-31.968z"/></g><g clip-path="url(#clip17_364_3441)" fill="#fff"><path fill-rule="evenodd" clip-rule="evenodd" d="M336.001 99.029l15.983 27.683h31.967l15.983-27.683-15.983-27.684h-31.967l-15.983 27.684z" fill-opacity=".75"/><path fill-rule="evenodd" clip-rule="evenodd" d="M351.983 126.717l15.983-27.683h31.968l-15.983 27.683h-31.968z"/><path d="M380 98.5l-6-10.392h-12L356 98.5l6 10.392h12l6-10.392z"/></g><g clip-path="url(#clip18_364_3441)" fill="#fff"><path fill-rule="evenodd" clip-rule="evenodd" d="M399.999 196.971l-15.983-27.683h-31.967l-15.983 27.683 15.983 27.684h31.967l15.983-27.684z" fill-opacity=".75"/><path fill-rule="evenodd" clip-rule="evenodd" d="M384.017 169.283l-15.983 27.683h-31.968l15.983-27.683h31.968z"/><path d="M380 197.5l-6-10.392h-12l-6 10.392 6 10.392h12l6-10.392z"/></g><g opacity=".5" clip-path="url(#clip19_364_3441)" fill-rule="evenodd" clip-rule="evenodd" fill="#fff"><path d="M336.001 294.684l15.983 27.683h31.967l15.983-27.683L383.951 267h-31.967l-15.983 27.684z" fill-opacity=".75"/><path d="M351.975 322.368l15.983-27.683L351.974 267l-15.982 27.683 15.983 27.685z"/></g><g opacity=".5" clip-path="url(#clip20_364_3441)"><path fill-rule="evenodd" clip-rule="evenodd" d="M479.999.971l-15.983-27.683h-31.967L416.066.971l15.983 27.684h31.967L479.999.971z" fill="#fff" fill-opacity=".75"/></g><g opacity=".5" clip-path="url(#clip21_364_3441)" fill-rule="evenodd" clip-rule="evenodd" fill="#fff"><path d="M416.001 99.029l15.983 27.683h31.967l15.983-27.683-15.983-27.684h-31.967l-15.983 27.684z" fill-opacity=".75"/><path d="M431.983 126.717l15.983-27.683h31.968l-15.983 27.683h-31.968z"/></g><g clip-path="url(#clip22_364_3441)" fill="#fff"><path fill-rule="evenodd" clip-rule="evenodd" d="M416.001 196.684l15.983 27.683h31.967l15.983-27.683L463.951 169h-31.967l-15.983 27.684z" fill-opacity=".75"/><path fill-rule="evenodd" clip-rule="evenodd" d="M431.975 224.368l15.983-27.683L431.974 169l-15.982 27.683 15.983 27.685z"/><path d="M436 196.5l6 10.392h12l6-10.392-6-10.392h-12l-6 10.392z"/></g><g clip-path="url(#clip23_364_3441)" fill="#fff"><path fill-rule="evenodd" clip-rule="evenodd" d="M416.001 294.971l15.983-27.683h31.967l15.983 27.683-15.983 27.684h-31.967l-15.983-27.684z" fill-opacity=".75"/><path fill-rule="evenodd" clip-rule="evenodd" d="M431.983 267.283l15.983 27.683h31.968l-15.983-27.683h-31.968z"/><path d="M460 295.5l-6 10.392h-12l-6-10.392 6-10.392h12l6 10.392z"/></g></g><path d="M47.5 0v197H209l-1-98.5h159.5V197H449v146" stroke="#fff" stroke-width="2" stroke-dasharray="4 6"/><defs><clipPath id="clip0_364_3441"><path fill="#fff" transform="matrix(1 0 0 -1 16 29)" d="M0 0h64v56H0z"/></clipPath><clipPath id="clip1_364_3441"><path fill="#fff" transform="matrix(-1 0 0 1 80 71)" d="M0 0h64v56H0z"/></clipPath><clipPath id="clip2_364_3441"><path fill="#fff" transform="matrix(-1 0 0 1 80 169)" d="M0 0h64v56H0z"/></clipPath><clipPath id="clip3_364_3441"><path fill="#fff" transform="matrix(-1 0 0 1 80 267)" d="M0 0h64v56H0z"/></clipPath><clipPath id="clip4_364_3441"><path fill="#fff" transform="matrix(1 0 0 -1 96 29)" d="M0 0h64v56H0z"/></clipPath><clipPath id="clip5_364_3441"><path fill="#fff" transform="matrix(-1 0 0 1 160 71)" d="M0 0h64v56H0z"/></clipPath><clipPath id="clip6_364_3441"><path fill="#fff" transform="matrix(1 0 0 -1 96 225)" d="M0 0h64v56H0z"/></clipPath><clipPath id="clip7_364_3441"><path fill="#fff" transform="matrix(-1 0 0 1 160 267)" d="M0 0h64v56H0z"/></clipPath><clipPath id="clip8_364_3441"><path fill="#fff" transform="matrix(1 0 0 -1 176 29)" d="M0 0h64v56H0z"/></clipPath><clipPath id="clip9_364_3441"><path fill="#fff" transform="matrix(1 0 0 -1 176 127)" d="M0 0h64v56H0z"/></clipPath><clipPath id="clip10_364_3441"><path fill="#fff" transform="matrix(-1 0 0 1 240 169)" d="M0 0h64v56H0z"/></clipPath><clipPath id="clip11_364_3441"><path fill="#fff" transform="matrix(1 0 0 -1 176 323)" d="M0 0h64v56H0z"/></clipPath><clipPath id="clip12_364_3441"><path fill="#fff" transform="matrix(-1 0 0 1 320 -27)" d="M0 0h64v56H0z"/></clipPath><clipPath id="clip13_364_3441"><path fill="#fff" transform="matrix(1 0 0 -1 256 127)" d="M0 0h64v56H0z"/></clipPath><clipPath id="clip14_364_3441"><path fill="#fff" transform="matrix(1 0 0 -1 256 225)" d="M0 0h64v56H0z"/></clipPath><clipPath id="clip15_364_3441"><path fill="#fff" transform="matrix(1 0 0 -1 256 323)" d="M0 0h64v56H0z"/></clipPath><clipPath id="clip16_364_3441"><path fill="#fff" transform="matrix(1 0 0 -1 336 29)" d="M0 0h64v56H0z"/></clipPath><clipPath id="clip17_364_3441"><path fill="#fff" transform="matrix(1 0 0 -1 336 127)" d="M0 0h64v56H0z"/></clipPath><clipPath id="clip18_364_3441"><path fill="#fff" transform="matrix(-1 0 0 1 400 169)" d="M0 0h64v56H0z"/></clipPath><clipPath id="clip19_364_3441"><path fill="#fff" transform="matrix(1 0 0 -1 336 323)" d="M0 0h64v56H0z"/></clipPath><clipPath id="clip20_364_3441"><path fill="#fff" transform="matrix(-1 0 0 1 480 -27)" d="M0 0h64v56H0z"/></clipPath><clipPath id="clip21_364_3441"><path fill="#fff" transform="matrix(1 0 0 -1 416 127)" d="M0 0h64v56H0z"/></clipPath><clipPath id="clip22_364_3441"><path fill="#fff" transform="matrix(1 0 0 -1 416 225)" d="M0 0h64v56H0z"/></clipPath><clipPath id="clip23_364_3441"><path fill="#fff" transform="translate(416 267)" d="M0 0h64v56H0z"/></clipPath><linearGradient id="paint0_linear_364_3441" x1="0" y1="0" x2="466.141" y2="319.135" gradientUnits="userSpaceOnUse"><stop stop-color="#fff" stop-opacity="0"/><stop offset="1"/></linearGradient><linearGradient id="paint1_linear_364_3441" x1="0" y1="0" x2="466.141" y2="319.135" gradientUnits="userSpaceOnUse"><stop stop-color="#fff" stop-opacity="0"/><stop offset="1"/></linearGradient></defs></svg>