<svg width="32" height="24" viewBox="0 0 32 24" fill="none" xmlns="http://www.w3.org/2000/svg">
<g clip-path="url(#clip0_2298_17796)">
<path d="M20.5047 0C20.192 0.549325 19.9112 1.1176 19.656 1.6985C17.2309 1.3386 14.7612 1.3386 12.3297 1.6985C12.0808 1.1176 11.7936 0.549325 11.481 0C9.20267 0.385175 6.98182 1.06078 4.87586 2.0142C0.702191 8.1326 -0.427375 14.0931 0.134224 19.9716C2.57842 21.7585 5.3162 23.1223 8.23264 23.9937C8.88996 23.1223 9.47071 22.1941 9.96848 21.2281C9.02398 20.8808 8.11138 20.4452 7.2371 19.94C7.46683 19.7759 7.6902 19.6054 7.90717 19.4412C13.0317 21.8279 18.9667 21.8279 24.0976 19.4412C24.3146 19.618 24.538 19.7885 24.7677 19.94C23.8934 20.4515 22.9808 20.8808 22.03 21.2344C22.5277 22.2005 23.1085 23.1287 23.7658 24C26.6822 23.1287 29.4199 21.7711 31.8643 19.9842C32.5278 13.1649 30.7283 7.25492 27.1097 2.02052C25.0102 1.0671 22.7894 0.391475 20.5111 0.012625L20.5047 0ZM10.6832 16.3536C9.10695 16.3536 7.7987 14.9392 7.7987 13.1902C7.7987 11.4412 9.05589 10.0205 10.6769 10.0205C12.2978 10.0205 13.5869 11.4475 13.5614 13.1902C13.5359 14.9329 12.2914 16.3536 10.6832 16.3536ZM21.3152 16.3536C19.7325 16.3536 18.437 14.9392 18.437 13.1902C18.437 11.4412 19.6942 10.0205 21.3152 10.0205C22.9362 10.0205 24.2189 11.4475 24.1934 13.1902C24.1678 14.9329 22.9234 16.3536 21.3152 16.3536Z" fill="#5865F2"/>
</g>
<defs>
<clipPath id="clip0_2298_17796">
<rect width="32" height="24" fill="white"/>
</clipPath>
</defs>
</svg>
