<svg width="500" height="500" viewBox="0 0 500 500" fill="none" xmlns="http://www.w3.org/2000/svg">

<style>

@keyframes pulse-start {
    0% { opacity: 0.6; }
    15% { opacity: 0.6; }
    20% { transform: scale(0.7); opacity: 1; fill: #0D0400; }
    30% { transform: scale(1.15); fill: #FFD601; }
    33% { transform: scale(0.9); fill: #FFD601; }
    40%, 60% { transform: scale(1); fill: #FFD601; }
    70% { transform: scale(0.7); opacity: 1; fill: #FFD601; }
    80% { transform: scale(1.15); fill: #0D0400; }
    83% { transform: scale(0.9); fill: #0D0400; }
    90%, 100% { transform: scale(1); fill: #0D0400; opacity: 0.6; }
}

@keyframes pulse {
    0% { fill: rgba(13,4,0,.6); }
    10% { fill: rgba(13,4,0,.6); }
    20% { fill: #0D0400; }
    30% { fill: #FFD601; }
    40%, 60% { fill: #FFD601; }
    70% {  fill: #FFD601; }
    80% { fill: #0D0400; }
    90%, 100% { fill: rgba(13,4,0,.6); }
}

circle {
    animation: pulse 4s ease-in-out infinite;
    transform-origin: center center;
    transform-box: fill-box;
    animation-delay: 1.2s;
}

    circle.c1 { animation-delay: 0s; animation: pulse-start 4s ease-in-out infinite; }
    circle.c2 { animation-delay: 0.100s; }   /* 0.20s */
    circle.c3 { animation-delay: 0.190s; }   /* 0.30s */
    circle.c4 { animation-delay: 0.270s; }   /* 0.40s */
    circle.c5 { animation-delay: 0.340s; }   /* 0.50s */
    circle.c6 { animation-delay: 0.40s; }   /* 0.60s */
    circle.c7 { animation-delay: 0.450s; }   /* 0.70s */
    circle.c8 { animation-delay: 0.490s; }   /* 0.80s */
    circle.c9 { animation-delay: 0.520s; }   /* 0.90s */
    circle.c10 { animation-delay: 0.54s; }  /* 1.00s */

    
    <!-- Exponential delays 
    circle.c2 { animation-delay: 0.2000s; }   /* 0.20s */
    circle.c3 { animation-delay: 0.3500s; }   /* 0.35s */
    circle.c4 { animation-delay: 0.4700s; }   /* 0.47s */
    circle.c5 { animation-delay: 0.5800s; }   /* 0.58s */
    circle.c6 { animation-delay: 0.6700s; }   /* 0.67s */
    circle.c7 { animation-delay: 0.7400s; }   /* 0.74s */
    circle.c8 { animation-delay: 0.8000s; }   /* 0.80s */
    circle.c9 { animation-delay: 0.8700s; }   /* 0.87s */
    circle.c10 { animation-delay: 1.0000s; }  /* 1.00s */-->

</style>

    <g id="group">
    <circle class="c10" cx="34" cy="22" r="6" fill="#0D0400"/>
    <circle class="c10" cx="58" cy="22" r="6" fill="#0D0400"/>
    <circle class="c10" cx="82" cy="22" r="6" fill="#0D0400"/>
    <circle class="c10" cx="106" cy="22" r="6" fill="#0D0400"/>
    <circle class="c10" cx="130" cy="22" r="6" fill="#0D0400"/>
    <circle class="c10" cx="154" cy="22" r="6" fill="#0D0400"/>
    <circle class="c10" cx="178" cy="22" r="6" fill="#0D0400"/>
    <circle class="c10" cx="202" cy="22" r="6" fill="#0D0400"/>
    <circle class="c10" cx="226" cy="22" r="6" fill="#0D0400"/>
    <circle class="c10" cx="250" cy="22" r="6" fill="#0D0400"/>
    <circle class="c10" cx="274" cy="22" r="6" fill="#0D0400"/>
    <circle class="c10" cx="298" cy="22" r="6" fill="#0D0400"/>
    <circle class="c10" cx="322" cy="22" r="6" fill="#0D0400"/>
    <circle class="c10" cx="346" cy="22" r="6" fill="#0D0400"/>
    <circle class="c10" cx="370" cy="22" r="6" fill="#0D0400"/>
    <circle class="c10" cx="394" cy="22" r="6" fill="#0D0400"/>
    <circle class="c10" cx="418" cy="22" r="6" fill="#0D0400"/>
    <circle class="c10" cx="442" cy="22" r="6" fill="#0D0400"/>
    <circle class="c10" cx="466" cy="22" r="6" fill="#0D0400"/>

    <circle class="c10" cx="34" cy="46" r="6" fill="#0D0400"/>
    <circle class="c9" cx="58" cy="46" r="6" fill="#0D0400"/>
    <circle class="c9" cx="82" cy="46" r="6" fill="#0D0400"/>
    <circle class="c9" cx="106" cy="46" r="6" fill="#0D0400"/>
    <circle class="c9" cx="130" cy="46" r="6" fill="#0D0400"/>
    <circle class="c9" cx="154" cy="46" r="6" fill="#0D0400"/>
    <circle class="c9" cx="178" cy="46" r="6" fill="#0D0400"/>
    <circle class="c9" cx="202" cy="46" r="6" fill="#0D0400"/>
    <circle class="c9" cx="226" cy="46" r="6" fill="#0D0400"/>
    <circle class="c9" cx="250" cy="46" r="6" fill="#0D0400"/>
    <circle class="c9" cx="274" cy="46" r="6" fill="#0D0400"/>
    <circle class="c9" cx="298" cy="46" r="6" fill="#0D0400"/>
    <circle class="c9" cx="322" cy="46" r="6" fill="#0D0400"/>
    <circle class="c9" cx="346" cy="46" r="6" fill="#0D0400"/>
    <circle class="c9" cx="370" cy="46" r="6" fill="#0D0400"/>
    <circle class="c9" cx="394" cy="46" r="6" fill="#0D0400"/>
    <circle class="c9" cx="418" cy="46" r="6" fill="#0D0400"/>
    <circle class="c9" cx="442" cy="46" r="6" fill="#0D0400"/>
    <circle class="c10" cx="466" cy="46" r="6" fill="#0D0400"/>

    <circle class="c10" cx="34" cy="70" r="6" fill="#0D0400"/>
    <circle class="c9" cx="58" cy="70" r="6" fill="#0D0400"/>
    <circle class="c8" cx="82" cy="70" r="6" fill="#0D0400"/>
    <circle class="c8" cx="106" cy="70" r="6" fill="#0D0400"/>
    <circle class="c8" cx="130" cy="70" r="6" fill="#0D0400"/>
    <circle class="c8" cx="154" cy="70" r="6" fill="#0D0400"/>
    <circle class="c8" cx="178" cy="70" r="6" fill="#0D0400"/>
    <circle class="c8" cx="202" cy="70" r="6" fill="#0D0400"/>
    <circle class="c8" cx="226" cy="70" r="6" fill="#0D0400"/>
    <circle class="c8" cx="250" cy="70" r="6" fill="#0D0400"/>
    <circle class="c8" cx="274" cy="70" r="6" fill="#0D0400"/>
    <circle class="c8" cx="298" cy="70" r="6" fill="#0D0400"/>
    <circle class="c8" cx="322" cy="70" r="6" fill="#0D0400"/>
    <circle class="c8" cx="346" cy="70" r="6" fill="#0D0400"/>
    <circle class="c8" cx="370" cy="70" r="6" fill="#0D0400"/>
    <circle class="c8" cx="394" cy="70" r="6" fill="#0D0400"/>
    <circle class="c8" cx="418" cy="70" r="6" fill="#0D0400"/>
    <circle class="c9" cx="442" cy="70" r="6" fill="#0D0400"/>
    <circle class="c10" cx="466" cy="70" r="6" fill="#0D0400"/>

    <circle class="c10" cx="34" cy="94" r="6" fill="#0D0400"/>
    <circle class="c9" cx="58" cy="94" r="6" fill="#0D0400"/>
    <circle class="c8" cx="82" cy="94" r="6" fill="#0D0400"/>
    <circle class="c7" cx="106" cy="94" r="6" fill="#0D0400"/>
    <circle class="c7" cx="130" cy="94" r="6" fill="#0D0400"/>
    <circle class="c7" cx="154" cy="94" r="6" fill="#0D0400"/>
    <circle class="c7" cx="178" cy="94" r="6" fill="#0D0400"/>
    <circle class="c7" cx="202" cy="94" r="6" fill="#0D0400"/>
    <circle class="c7" cx="226" cy="94" r="6" fill="#0D0400"/>
    <circle class="c7" cx="250" cy="94" r="6" fill="#0D0400"/>
    <circle class="c7" cx="274" cy="94" r="6" fill="#0D0400"/>
    <circle class="c7" cx="298" cy="94" r="6" fill="#0D0400"/>
    <circle class="c7" cx="322" cy="94" r="6" fill="#0D0400"/>
    <circle class="c7" cx="346" cy="94" r="6" fill="#0D0400"/>
    <circle class="c7" cx="370" cy="94" r="6" fill="#0D0400"/>
    <circle class="c7" cx="394" cy="94" r="6" fill="#0D0400"/>
    <circle class="c8" cx="418" cy="94" r="6" fill="#0D0400"/>
    <circle class="c9" cx="442" cy="94" r="6" fill="#0D0400"/>
    <circle class="c10" cx="466" cy="94" r="6" fill="#0D0400"/>

    <circle class="c10" cx="34" cy="118" r="6" fill="#0D0400"/>
    <circle class="c9" cx="58" cy="118" r="6" fill="#0D0400"/>
    <circle class="c8" cx="82" cy="118" r="6" fill="#0D0400"/>
    <circle class="c7" cx="106" cy="118" r="6" fill="#0D0400"/>
    <circle class="c6" cx="130" cy="118" r="6" fill="#0D0400"/>
    <circle class="c6" cx="154" cy="118" r="6" fill="#0D0400"/>
    <circle class="c6" cx="178" cy="118" r="6" fill="#0D0400"/>
    <circle class="c6" cx="202" cy="118" r="6" fill="#0D0400"/>
    <circle class="c6" cx="226" cy="118" r="6" fill="#0D0400"/>
    <circle class="c6" cx="250" cy="118" r="6" fill="#0D0400"/>
    <circle class="c6" cx="274" cy="118" r="6" fill="#0D0400"/>
    <circle class="c6" cx="298" cy="118" r="6" fill="#0D0400"/>
    <circle class="c6" cx="322" cy="118" r="6" fill="#0D0400"/>
    <circle class="c6" cx="346" cy="118" r="6" fill="#0D0400"/>
    <circle class="c6" cx="370" cy="118" r="6" fill="#0D0400"/>
    <circle class="c7" cx="394" cy="118" r="6" fill="#0D0400"/>
    <circle class="c8" cx="418" cy="118" r="6" fill="#0D0400"/>
    <circle class="c9" cx="442" cy="118" r="6" fill="#0D0400"/>
    <circle class="c10" cx="466" cy="118" r="6" fill="#0D0400"/>

    <circle class="c10" cx="34" cy="142" r="6" fill="#0D0400"/>
    <circle class="c9" cx="58" cy="142" r="6" fill="#0D0400"/>
    <circle class="c8" cx="82" cy="142" r="6" fill="#0D0400"/>
    <circle class="c7" cx="106" cy="142" r="6" fill="#0D0400"/>
    <circle class="c6" cx="130" cy="142" r="6" fill="#0D0400"/>
    <circle class="c5" cx="154" cy="142" r="6" fill="#0D0400"/>
    <circle class="c5" cx="178" cy="142" r="6" fill="#0D0400"/>
    <circle class="c5" cx="202" cy="142" r="6" fill="#0D0400"/>
    <circle class="c5" cx="226" cy="142" r="6" fill="#0D0400"/>
    <circle class="c5" cx="250" cy="142" r="6" fill="#0D0400"/>
    <circle class="c5" cx="274" cy="142" r="6" fill="#0D0400"/>
    <circle class="c5" cx="298" cy="142" r="6" fill="#0D0400"/>
    <circle class="c5" cx="322" cy="142" r="6" fill="#0D0400"/>
    <circle class="c5" cx="346" cy="142" r="6" fill="#0D0400"/>
    <circle class="c6" cx="370" cy="142" r="6" fill="#0D0400"/>
    <circle class="c7" cx="394" cy="142" r="6" fill="#0D0400"/>
    <circle class="c8" cx="418" cy="142" r="6" fill="#0D0400"/>
    <circle class="c9" cx="442" cy="142" r="6" fill="#0D0400"/>
    <circle class="c10" cx="466" cy="142" r="6" fill="#0D0400"/>

    <circle class="c10" cx="34" cy="166" r="6" fill="#0D0400"/>
    <circle class="c9" cx="58" cy="166" r="6" fill="#0D0400"/>
    <circle class="c8" cx="82" cy="166" r="6" fill="#0D0400"/>
    <circle class="c7" cx="106" cy="166" r="6" fill="#0D0400"/>
    <circle class="c6" cx="130" cy="166" r="6" fill="#0D0400"/>
    <circle class="c5" cx="154" cy="166" r="6" fill="#0D0400"/>
    <circle class="c4" cx="178" cy="166" r="6" fill="#0D0400"/>
    <circle class="c4" cx="202" cy="166" r="6" fill="#0D0400"/>
    <circle class="c4" cx="226" cy="166" r="6" fill="#0D0400"/>
    <circle class="c4" cx="250" cy="166" r="6" fill="#0D0400"/>
    <circle class="c4" cx="274" cy="166" r="6" fill="#0D0400"/>
    <circle class="c4" cx="298" cy="166" r="6" fill="#0D0400"/>
    <circle class="c4" cx="322" cy="166" r="6" fill="#0D0400"/>
    <circle class="c5" cx="346" cy="166" r="6" fill="#0D0400"/>
    <circle class="c6" cx="370" cy="166" r="6" fill="#0D0400"/>
    <circle class="c7" cx="394" cy="166" r="6" fill="#0D0400"/>
    <circle class="c8" cx="418" cy="166" r="6" fill="#0D0400"/>
    <circle class="c9" cx="442" cy="166" r="6" fill="#0D0400"/>
    <circle class="c10" cx="466" cy="166" r="6" fill="#0D0400"/>

    <circle class="c10" cx="34" cy="190" r="6" fill="#0D0400"/>
    <circle class="c9" cx="58" cy="190" r="6" fill="#0D0400"/>
    <circle class="c8" cx="82" cy="190" r="6" fill="#0D0400"/>
    <circle class="c7" cx="106" cy="190" r="6" fill="#0D0400"/>
    <circle class="c6" cx="130" cy="190" r="6" fill="#0D0400"/>
    <circle class="c5" cx="154" cy="190" r="6" fill="#0D0400"/>
    <circle class="c4" cx="178" cy="190" r="6" fill="#0D0400"/>
    <circle class="c3" cx="202" cy="190" r="6" fill="#0D0400"/>
    <circle class="c3" cx="226" cy="190" r="6" fill="#0D0400"/>
    <circle class="c3" cx="250" cy="190" r="6" fill="#0D0400"/>
    <circle class="c3" cx="274" cy="190" r="6" fill="#0D0400"/>
    <circle class="c3" cx="298" cy="190" r="6" fill="#0D0400"/>
    <circle class="c4" cx="322" cy="190" r="6" fill="#0D0400"/>
    <circle class="c5" cx="346" cy="190" r="6" fill="#0D0400"/>
    <circle class="c6" cx="370" cy="190" r="6" fill="#0D0400"/>
    <circle class="c7" cx="394" cy="190" r="6" fill="#0D0400"/>
    <circle class="c8" cx="418" cy="190" r="6" fill="#0D0400"/>
    <circle class="c9" cx="442" cy="190" r="6" fill="#0D0400"/>
    <circle class="c10" cx="466" cy="190" r="6" fill="#0D0400"/>

    <circle class="c10" cx="34" cy="214" r="6" fill="#0D0400"/>
    <circle class="c9" cx="58" cy="214" r="6" fill="#0D0400"/>
    <circle class="c8" cx="82" cy="214" r="6" fill="#0D0400"/>
    <circle class="c7" cx="106" cy="214" r="6" fill="#0D0400"/>
    <circle class="c6" cx="130" cy="214" r="6" fill="#0D0400"/>
    <circle class="c5" cx="154" cy="214" r="6" fill="#0D0400"/>
    <circle class="c4" cx="178" cy="214" r="6" fill="#0D0400"/>
    <circle class="c3" cx="202" cy="214" r="6" fill="#0D0400"/>
    <circle class="c2" cx="226" cy="214" r="6" fill="#0D0400"/>
    <circle class="c2" cx="250" cy="214" r="6" fill="#0D0400"/>
    <circle class="c2" cx="274" cy="214" r="6" fill="#0D0400"/>
    <circle class="c3" cx="298" cy="214" r="6" fill="#0D0400"/>
    <circle class="c4" cx="322" cy="214" r="6" fill="#0D0400"/>
    <circle class="c5" cx="346" cy="214" r="6" fill="#0D0400"/>
    <circle class="c6" cx="370" cy="214" r="6" fill="#0D0400"/>
    <circle class="c7" cx="394" cy="214" r="6" fill="#0D0400"/>
    <circle class="c8" cx="418" cy="214" r="6" fill="#0D0400"/>
    <circle class="c9" cx="442" cy="214" r="6" fill="#0D0400"/>
    <circle class="c10" cx="466" cy="214" r="6" fill="#0D0400"/>

    <circle class="c10" cx="34" cy="238" r="6" fill="#0D0400"/>
    <circle class="c9" cx="58" cy="238" r="6" fill="#0D0400"/>
    <circle class="c8" cx="82" cy="238" r="6" fill="#0D0400"/>
    <circle class="c7" cx="106" cy="238" r="6" fill="#0D0400"/>
    <circle class="c6" cx="130" cy="238" r="6" fill="#0D0400"/>
    <circle class="c5" cx="154" cy="238" r="6" fill="#0D0400"/>
    <circle class="c4" cx="178" cy="238" r="6" fill="#0D0400"/>
    <circle class="c3" cx="202" cy="238" r="6" fill="#0D0400"/>
    <circle class="c2" cx="226" cy="238" r="6" fill="#0D0400"/>
    <circle class="c1" cx="250" cy="238" r="6" fill="#0D0400"/>
    <circle class="c2" cx="274" cy="238" r="6" fill="#0D0400"/>
    <circle class="c3" cx="298" cy="238" r="6" fill="#0D0400"/>
    <circle class="c4" cx="322" cy="238" r="6" fill="#0D0400"/>
    <circle class="c5" cx="346" cy="238" r="6" fill="#0D0400"/>
    <circle class="c6" cx="370" cy="238" r="6" fill="#0D0400"/>
    <circle class="c7" cx="394" cy="238" r="6" fill="#0D0400"/>
    <circle class="c8" cx="418" cy="238" r="6" fill="#0D0400"/>
    <circle class="c9" cx="442" cy="238" r="6" fill="#0D0400"/>
    <circle class="c10" cx="466" cy="238" r="6" fill="#0D0400"/>

    <circle class="c10" cx="34" cy="262" r="6" fill="#0D0400"/>
    <circle class="c9" cx="58" cy="262" r="6" fill="#0D0400"/>
    <circle class="c8" cx="82" cy="262" r="6" fill="#0D0400"/>
    <circle class="c7" cx="106" cy="262" r="6" fill="#0D0400"/>
    <circle class="c6" cx="130" cy="262" r="6" fill="#0D0400"/>
    <circle class="c5" cx="154" cy="262" r="6" fill="#0D0400"/>
    <circle class="c4" cx="178" cy="262" r="6" fill="#0D0400"/>
    <circle class="c3" cx="202" cy="262" r="6" fill="#0D0400"/>
    <circle class="c2" cx="226" cy="262" r="6" fill="#0D0400"/>
    <circle class="c2" cx="250" cy="262" r="6" fill="#0D0400"/>
    <circle class="c2" cx="274" cy="262" r="6" fill="#0D0400"/>
    <circle class="c3" cx="298" cy="262" r="6" fill="#0D0400"/>
    <circle class="c4" cx="322" cy="262" r="6" fill="#0D0400"/>
    <circle class="c5" cx="346" cy="262" r="6" fill="#0D0400"/>
    <circle class="c6" cx="370" cy="262" r="6" fill="#0D0400"/>
    <circle class="c7" cx="394" cy="262" r="6" fill="#0D0400"/>
    <circle class="c8" cx="418" cy="262" r="6" fill="#0D0400"/>
    <circle class="c9" cx="442" cy="262" r="6" fill="#0D0400"/>
    <circle class="c10" cx="466" cy="262" r="6" fill="#0D0400"/>

    <circle class="c10" cx="34" cy="286" r="6" fill="#0D0400"/>
    <circle class="c9" cx="58" cy="286" r="6" fill="#0D0400"/>
    <circle class="c8" cx="82" cy="286" r="6" fill="#0D0400"/>
    <circle class="c7" cx="106" cy="286" r="6" fill="#0D0400"/>
    <circle class="c6" cx="130" cy="286" r="6" fill="#0D0400"/>
    <circle class="c5" cx="154" cy="286" r="6" fill="#0D0400"/>
    <circle class="c4" cx="178" cy="286" r="6" fill="#0D0400"/>
    <circle class="c3" cx="202" cy="286" r="6" fill="#0D0400"/>
    <circle class="c3" cx="226" cy="286" r="6" fill="#0D0400"/>
    <circle class="c3" cx="250" cy="286" r="6" fill="#0D0400"/>
    <circle class="c3" cx="274" cy="286" r="6" fill="#0D0400"/>
    <circle class="c3" cx="298" cy="286" r="6" fill="#0D0400"/>
    <circle class="c4" cx="322" cy="286" r="6" fill="#0D0400"/>
    <circle class="c5" cx="346" cy="286" r="6" fill="#0D0400"/>
    <circle class="c6" cx="370" cy="286" r="6" fill="#0D0400"/>
    <circle class="c7" cx="394" cy="286" r="6" fill="#0D0400"/>
    <circle class="c8" cx="418" cy="286" r="6" fill="#0D0400"/>
    <circle class="c9" cx="442" cy="286" r="6" fill="#0D0400"/>
    <circle class="c10" cx="466" cy="286" r="6" fill="#0D0400"/>

    <circle class="c10" cx="34" cy="310" r="6" fill="#0D0400"/>
    <circle class="c9" cx="58" cy="310" r="6" fill="#0D0400"/>
    <circle class="c8" cx="82" cy="310" r="6" fill="#0D0400"/>
    <circle class="c7" cx="106" cy="310" r="6" fill="#0D0400"/>
    <circle class="c6" cx="130" cy="310" r="6" fill="#0D0400"/>
    <circle class="c5" cx="154" cy="310" r="6" fill="#0D0400"/>
    <circle class="c4" cx="178" cy="310" r="6" fill="#0D0400"/>
    <circle class="c4" cx="202" cy="310" r="6" fill="#0D0400"/>
    <circle class="c4" cx="226" cy="310" r="6" fill="#0D0400"/>
    <circle class="c4" cx="250" cy="310" r="6" fill="#0D0400"/>
    <circle class="c4" cx="274" cy="310" r="6" fill="#0D0400"/>
    <circle class="c4" cx="298" cy="310" r="6" fill="#0D0400"/>
    <circle class="c4" cx="322" cy="310" r="6" fill="#0D0400"/>
    <circle class="c5" cx="346" cy="310" r="6" fill="#0D0400"/>
    <circle class="c6" cx="370" cy="310" r="6" fill="#0D0400"/>
    <circle class="c7" cx="394" cy="310" r="6" fill="#0D0400"/>
    <circle class="c8" cx="418" cy="310" r="6" fill="#0D0400"/>
    <circle class="c9" cx="442" cy="310" r="6" fill="#0D0400"/>
    <circle class="c10" cx="466" cy="310" r="6" fill="#0D0400"/>

    <circle class="c10" cx="34" cy="334" r="6" fill="#0D0400"/>
    <circle class="c9" cx="58" cy="334" r="6" fill="#0D0400"/>
    <circle class="c8" cx="82" cy="334" r="6" fill="#0D0400"/>
    <circle class="c7" cx="106" cy="334" r="6" fill="#0D0400"/>
    <circle class="c6" cx="130" cy="334" r="6" fill="#0D0400"/>
    <circle class="c5" cx="154" cy="334" r="6" fill="#0D0400"/>
    <circle class="c5" cx="178" cy="334" r="6" fill="#0D0400"/>
    <circle class="c5" cx="202" cy="334" r="6" fill="#0D0400"/>
    <circle class="c5" cx="226" cy="334" r="6" fill="#0D0400"/>
    <circle class="c5" cx="250" cy="334" r="6" fill="#0D0400"/>
    <circle class="c5" cx="274" cy="334" r="6" fill="#0D0400"/>
    <circle class="c5" cx="298" cy="334" r="6" fill="#0D0400"/>
    <circle class="c5" cx="322" cy="334" r="6" fill="#0D0400"/>
    <circle class="c5" cx="346" cy="334" r="6" fill="#0D0400"/>
    <circle class="c6" cx="370" cy="334" r="6" fill="#0D0400"/>
    <circle class="c7" cx="394" cy="334" r="6" fill="#0D0400"/>
    <circle class="c8" cx="418" cy="334" r="6" fill="#0D0400"/>
    <circle class="c9" cx="442" cy="334" r="6" fill="#0D0400"/>
    <circle class="c10" cx="466" cy="334" r="6" fill="#0D0400"/>

    <circle class="c10" cx="34" cy="358" r="6" fill="#0D0400"/>
    <circle class="c9" cx="58" cy="358" r="6" fill="#0D0400"/>
    <circle class="c8" cx="82" cy="358" r="6" fill="#0D0400"/>
    <circle class="c7" cx="106" cy="358" r="6" fill="#0D0400"/>
    <circle class="c6" cx="130" cy="358" r="6" fill="#0D0400"/>
    <circle class="c6" cx="154" cy="358" r="6" fill="#0D0400"/>
    <circle class="c6" cx="178" cy="358" r="6" fill="#0D0400"/>
    <circle class="c6" cx="202" cy="358" r="6" fill="#0D0400"/>
    <circle class="c6" cx="226" cy="358" r="6" fill="#0D0400"/>
    <circle class="c6" cx="250" cy="358" r="6" fill="#0D0400"/>
    <circle class="c6" cx="274" cy="358" r="6" fill="#0D0400"/>
    <circle class="c6" cx="298" cy="358" r="6" fill="#0D0400"/>
    <circle class="c6" cx="322" cy="358" r="6" fill="#0D0400"/>
    <circle class="c6" cx="346" cy="358" r="6" fill="#0D0400"/>
    <circle class="c6" cx="370" cy="358" r="6" fill="#0D0400"/>
    <circle class="c7" cx="394" cy="358" r="6" fill="#0D0400"/>
    <circle class="c8" cx="418" cy="358" r="6" fill="#0D0400"/>
    <circle class="c9" cx="442" cy="358" r="6" fill="#0D0400"/>
    <circle class="c10" cx="466" cy="358" r="6" fill="#0D0400"/>

    <circle class="c10" cx="34" cy="382" r="6" fill="#0D0400"/>
    <circle class="c9" cx="58" cy="382" r="6" fill="#0D0400"/>
    <circle class="c8" cx="82" cy="382" r="6" fill="#0D0400"/>
    <circle class="c7" cx="106" cy="382" r="6" fill="#0D0400"/>
    <circle class="c7" cx="130" cy="382" r="6" fill="#0D0400"/>
    <circle class="c7" cx="154" cy="382" r="6" fill="#0D0400"/>
    <circle class="c7" cx="178" cy="382" r="6" fill="#0D0400"/>
    <circle class="c7" cx="202" cy="382" r="6" fill="#0D0400"/>
    <circle class="c7" cx="226" cy="382" r="6" fill="#0D0400"/>
    <circle class="c7" cx="250" cy="382" r="6" fill="#0D0400"/>
    <circle class="c7" cx="274" cy="382" r="6" fill="#0D0400"/>
    <circle class="c7" cx="298" cy="382" r="6" fill="#0D0400"/>
    <circle class="c7" cx="322" cy="382" r="6" fill="#0D0400"/>
    <circle class="c7" cx="346" cy="382" r="6" fill="#0D0400"/>
    <circle class="c7" cx="370" cy="382" r="6" fill="#0D0400"/>
    <circle class="c7" cx="394" cy="382" r="6" fill="#0D0400"/>
    <circle class="c8"  cx="418" cy="382" r="6" fill="#0D0400"/>
    <circle class="c9" cx="442" cy="382" r="6" fill="#0D0400"/>
    <circle class="c10" cx="466" cy="382" r="6" fill="#0D0400"/>

    <circle class="c10" cx="34" cy="406" r="6" fill="#0D0400"/>
    <circle class="c9" cx="58" cy="406" r="6" fill="#0D0400"/>
    <circle class="c8" cx="82" cy="406" r="6" fill="#0D0400"/>
    <circle class="c8" cx="106" cy="406" r="6" fill="#0D0400"/>
    <circle class="c8" cx="130" cy="406" r="6" fill="#0D0400"/>
    <circle class="c8" cx="154" cy="406" r="6" fill="#0D0400"/>
    <circle class="c8" cx="178" cy="406" r="6" fill="#0D0400"/>
    <circle class="c8" cx="202" cy="406" r="6" fill="#0D0400"/>
    <circle class="c8" cx="226" cy="406" r="6" fill="#0D0400"/>
    <circle class="c8" cx="250" cy="406" r="6" fill="#0D0400"/>
    <circle class="c8" cx="274" cy="406" r="6" fill="#0D0400"/>
    <circle class="c8" cx="298" cy="406" r="6" fill="#0D0400"/>
    <circle class="c8" cx="322" cy="406" r="6" fill="#0D0400"/>
    <circle class="c8" cx="346" cy="406" r="6" fill="#0D0400"/>
    <circle class="c8" cx="370" cy="406" r="6" fill="#0D0400"/>
    <circle class="c8" cx="394" cy="406" r="6" fill="#0D0400"/>
    <circle class="c8" cx="418" cy="406" r="6" fill="#0D0400"/>
    <circle class="c9" cx="442" cy="406" r="6" fill="#0D0400"/>
    <circle class="c10" cx="466" cy="406" r="6" fill="#0D0400"/>

    <circle class="c10" cx="34" cy="430" r="6" fill="#0D0400"/>
    <circle class="c9" cx="58" cy="430" r="6" fill="#0D0400"/>
    <circle class="c9" cx="82" cy="430" r="6" fill="#0D0400"/>
    <circle class="c9" cx="106" cy="430" r="6" fill="#0D0400"/>
    <circle class="c9" cx="130" cy="430" r="6" fill="#0D0400"/>
    <circle class="c9" cx="154" cy="430" r="6" fill="#0D0400"/>
    <circle class="c9" cx="178" cy="430" r="6" fill="#0D0400"/>
    <circle class="c9" cx="202" cy="430" r="6" fill="#0D0400"/>
    <circle class="c9" cx="226" cy="430" r="6" fill="#0D0400"/>
    <circle class="c9" cx="250" cy="430" r="6" fill="#0D0400"/>
    <circle class="c9" cx="274" cy="430" r="6" fill="#0D0400"/>
    <circle class="c9" cx="298" cy="430" r="6" fill="#0D0400"/>
    <circle class="c9" cx="322" cy="430" r="6" fill="#0D0400"/>
    <circle class="c9" cx="346" cy="430" r="6" fill="#0D0400"/>
    <circle class="c9" cx="370" cy="430" r="6" fill="#0D0400"/>
    <circle class="c9" cx="394" cy="430" r="6" fill="#0D0400"/>
    <circle class="c9" cx="418" cy="430" r="6" fill="#0D0400"/>
    <circle class="c9" cx="442" cy="430" r="6" fill="#0D0400"/>
    <circle class="c10" cx="466" cy="430" r="6" fill="#0D0400"/>

    <circle class="c10" cx="34" cy="454" r="6" fill="#0D0400"/>
    <circle class="c10" cx="58" cy="454" r="6" fill="#0D0400"/>
    <circle class="c10" cx="82" cy="454" r="6" fill="#0D0400"/>
    <circle class="c10" cx="106" cy="454" r="6" fill="#0D0400"/>
    <circle class="c10" cx="130" cy="454" r="6" fill="#0D0400"/>
    <circle class="c10" cx="154" cy="454" r="6" fill="#0D0400"/>
    <circle class="c10" cx="178" cy="454" r="6" fill="#0D0400"/>
    <circle class="c10" cx="202" cy="454" r="6" fill="#0D0400"/>
    <circle class="c10" cx="226" cy="454" r="6" fill="#0D0400"/>
    <circle class="c10" cx="250" cy="454" r="6" fill="#0D0400"/>
    <circle class="c10" cx="274" cy="454" r="6" fill="#0D0400"/>
    <circle class="c10" cx="298" cy="454" r="6" fill="#0D0400"/>
    <circle class="c10" cx="322" cy="454" r="6" fill="#0D0400"/>
    <circle class="c10" cx="346" cy="454" r="6" fill="#0D0400"/>
    <circle class="c10" cx="370" cy="454" r="6" fill="#0D0400"/>
    <circle class="c10" cx="394" cy="454" r="6" fill="#0D0400"/>
    <circle class="c10" cx="418" cy="454" r="6" fill="#0D0400"/>
    <circle class="c10" cx="442" cy="454" r="6" fill="#0D0400"/>
    <circle class="c10" cx="466" cy="454" r="6" fill="#0D0400"/>
</g>

</svg>
