<svg width="283" height="306" viewBox="0 0 283 306" fill="none" xmlns="http://www.w3.org/2000/svg">
<path d="M130 0C214.5 0 283 68.5004 283 153C283 237.5 214.5 306 130 306H51.0137C47.5457 306 45.7203 301.888 48.0469 299.316L80 264H124C184.751 264 234 213.751 234 153C234 92.2487 184.751 42 124 42H80L48.0469 6.68359C45.7203 4.11189 47.5457 0 51.0137 0H130ZM97.7158 55.4355C101.313 55.4358 104.206 58.357 104.459 61.9395C107.648 107.036 143.739 143.065 188.915 146.248C192.504 146.501 195.431 149.388 195.431 152.979C195.431 156.571 192.504 159.458 188.915 159.711C143.739 162.894 107.648 198.923 104.459 244.019C104.206 247.601 101.313 250.522 97.7158 250.522C94.1179 250.522 91.225 247.601 90.9717 244.019C87.7828 198.923 51.6915 162.894 6.51562 159.711C2.92683 159.458 7.62754e-05 156.571 0 152.979C0 149.388 2.92678 146.501 6.51562 146.248C51.6915 143.065 87.7828 107.036 90.9717 61.9395C91.225 58.3569 94.1179 55.4355 97.7158 55.4355Z" fill="#000D26"/>
</svg>
