<svg width="137" height="145" viewBox="0 0 137 145" fill="none" xmlns="http://www.w3.org/2000/svg">
<path d="M24.2285 124.927V144.656H76.6534C96.1283 144.656 111.013 139.861 121.307 130.27C131.74 120.543 136.956 105.884 136.956 86.2919V59.3704C136.956 39.7787 131.74 25.1192 121.307 15.3918C111.013 5.66446 96.1283 0.800781 76.6534 0.800781H24.2285V20.5295H37.8426V20.5309H67.5309H76.862C89.5208 20.5309 98.9105 24.2286 105.031 30.3939C111.152 36.5591 114.212 45.9439 114.212 58.5484V86.9084C114.212 99.3759 111.152 108.761 105.031 115.063C98.9105 121.365 89.5208 124.906 76.862 124.906H67.5309H37.8426V124.927H24.2285Z" fill="black"/>
<path d="M0.728516 72.7279C0.728516 71.0205 2.11733 69.6478 3.82051 69.5276C25.26 68.0143 42.3883 50.886 43.9016 29.4465C44.0218 27.7433 45.3945 26.3545 47.1019 26.3545C48.8093 26.3545 50.182 27.7433 50.3022 29.4465C51.8155 50.886 68.9438 68.0143 90.3833 69.5276C92.0865 69.6478 93.4753 71.0205 93.4753 72.7279C93.4753 74.4353 92.0865 75.808 90.3833 75.9282C68.9438 77.4415 51.8155 94.5698 50.3022 116.009C50.182 117.712 48.8093 119.101 47.1019 119.101C45.3945 119.101 44.0218 117.712 43.9016 116.009C42.3883 94.5698 25.26 77.4415 3.82051 75.9282C2.11733 75.808 0.728516 74.4353 0.728516 72.7279Z" fill="black"/>
</svg>
