<svg class="edmunds-logo" width="609" height="96" viewBox="0 0 203 32" style="fill: #0C1F3F;" xmlns="http://www.w3.org/2000/svg">
  <path
    d="M0.400391 0.588668H21.4913V5.53412H5.92766V11.0614H20.6186V16.0069H5.92766V26.4796H21.4913V31.425H0.400391V0.588668ZM26.8731 0.588668H36.0368C46.364 0.588668 52.1822 7.27958 52.1822 16.0069C52.1822 24.7341 45.9277 31.425 36.0368 31.425H26.8731V0.588668ZM36.1822 26.4796C42.2913 26.4796 46.5095 22.6978 46.5095 16.0069C46.5095 9.31594 42.4368 5.53412 36.1822 5.53412H32.4004V26.4796H36.1822ZM56.9822 0.588668H64.1095L72.2549 24.0069L80.6913 0.588668H87.6731V31.425H82.4368V10.625L74.8731 31.425H70.0731L62.364 10.625V31.425H56.9822V0.588668ZM93.0549 18.7705V0.588668H98.5822V18.0432C98.5822 24.1523 101.055 27.0614 105.564 27.0614C110.073 27.0614 112.546 24.1523 112.546 18.0432V0.588668H118.219V18.9159C118.219 26.625 113.855 32.1523 105.709 32.1523C97.564 32.1523 93.0549 26.4796 93.0549 18.7705ZM123.6 0.588668H129.709L142.8 22.5523V0.588668H148.328V31.425H142.364L129.128 9.89776V31.425H123.6V0.588668ZM154.291 0.588668H163.455C173.782 0.588668 179.6 7.13412 179.6 16.0069C179.6 24.8796 173.491 31.425 163.455 31.425H154.291V0.588668ZM163.6 26.4796C169.709 26.4796 173.928 22.6978 173.928 16.0069C173.928 9.31594 169.709 5.53412 163.6 5.53412H159.673V26.4796H163.6ZM181.2 24.1523L185.855 22.2614C186.582 25.1705 189.2 27.2069 192.109 27.2069C194.437 27.4978 196.619 25.7523 196.909 23.2796C196.909 23.1341 196.909 23.1341 196.909 22.9887C196.909 20.8069 195.455 19.3523 192.546 17.8978L188.909 15.8614C185.564 14.1159 183.237 11.6432 183.237 7.71594C183.237 3.20685 186.728 0.00684958 191.819 0.00684958C195.6 -0.138605 198.946 2.04321 200.4 5.53412L195.891 7.8614C195.455 6.11594 193.855 4.80685 191.964 4.80685C190.364 4.6614 188.909 5.82503 188.909 7.42503V7.57049C188.909 9.17049 189.782 10.1887 192.4 11.6432L196.182 13.6796C200.4 15.8614 202.437 18.7705 202.437 22.8432C202.437 27.6432 198.509 31.8614 192.109 31.8614C186.146 31.8614 182.8 28.9523 181.2 24.1523Z"
  />
</svg>
