<svg width="56" height="56" viewBox="0 0 56 56" fill="none" xmlns="http://www.w3.org/2000/svg">
<rect width="56" height="56" rx="12" fill="url(#paint0_linear_65_230)"/>
<path d="M37 23L35.59 24.41L38.17 27H29V17.83L31.59 20.41L33 19L28 14L23 19L24.41 20.41L27 17.83V27H17.83L20.41 24.41L19 23L14 28L19 33L20.41 31.59L17.83 29H27V38.17L24.41 35.59L23 37L28 42L33 37L31.59 35.59L29 38.17V29H38.17L35.59 31.59L37 33L42 28L37 23Z" fill="url(#paint1_linear_65_230)"/>
<defs>
<linearGradient id="paint0_linear_65_230" x1="0" y1="0" x2="48.5728" y2="-5.83433" gradientUnits="userSpaceOnUse">
<stop stop-color="#000D26"/>
<stop offset="1" stop-color="#5C6880"/>
</linearGradient>
<linearGradient id="paint1_linear_65_230" x1="28" y1="14" x2="28" y2="42" gradientUnits="userSpaceOnUse">
<stop stop-color="#FFFEFC"/>
<stop offset="1" stop-color="#E6E8EB"/>
</linearGradient>
</defs>
</svg>
