<svg width="456" height="456" viewBox="0 0 456 456" fill="none" xmlns="http://www.w3.org/2000/svg">
<rect width="456" height="456" fill="#FFD601"/>
<path d="M87 227.979C87 224.388 89.9264 221.501 93.5153 221.248C138.691 218.065 174.783 182.036 177.972 136.939C178.225 133.357 181.117 130.435 184.715 130.435C188.313 130.435 191.206 133.357 191.459 136.939C194.648 182.036 230.739 218.065 275.916 221.248C279.504 221.501 282.431 224.388 282.431 227.979C282.431 231.571 279.504 234.458 275.916 234.711C230.739 237.894 194.648 273.923 191.459 319.019C191.206 322.601 188.313 325.523 184.715 325.523C181.117 325.523 178.225 322.601 177.972 319.019C174.783 273.923 138.691 237.894 93.5153 234.711C89.9264 234.458 87 231.571 87 227.979Z" fill="#000D26"/>
<path d="M217 75C301.5 75 370 143.5 370 228C370 312.5 301.5 381 217 381H138.013C134.545 381 132.72 376.888 135.047 374.316L167 339H211C271.751 339 321 288.751 321 228C321 167.249 271.751 117 211 117H167L135.047 81.6837C132.72 79.112 134.545 75 138.013 75H217Z" fill="#000D26"/>
</svg>
