<svg width="32" height="32" viewBox="0 0 32 32" fill="none" xmlns="http://www.w3.org/2000/svg">
<g clip-path="url(#clip0_2859_12331)">
<path d="M26 5.00415C26 9.96615 21.963 14.0042 17 14.0042H16V13.0042C16 8.04115 20.037 4.00415 25 4.00415H26V5.00415ZM13 14.0042C10.243 14.0042 8 11.7612 8 9.00415V8.00415H9C11.757 8.00415 14 10.2472 14 13.0042V14.0042H13ZM25 2.00415C20.337 2.00415 16.353 4.92515 14.755 9.02815C13.49 7.20315 11.384 6.00415 9 6.00415H6V9.00415C6 12.8642 9.14 16.0042 13 16.0042H14V25.0532C11.707 25.2792 9.58 26.2821 7.929 27.9331L9.343 29.3472C10.854 27.8362 12.863 27.0042 15 27.0042C17.674 27.0042 20.16 28.3332 21.652 30.5602L23.313 29.4471C21.638 26.9451 18.954 25.3622 16 25.0662V16.0042H17C23.065 16.0042 28 11.0692 28 5.00415V2.00415H25Z" fill="black"/>
</g>
<defs>
<clipPath id="clip0_2859_12331">
<rect width="32" height="32" fill="white"/>
</clipPath>
</defs>
</svg>
