<svg width="32" height="32" viewBox="0 0 32 32" fill="none" xmlns="http://www.w3.org/2000/svg">
<path d="M19.3785 7C19.144 7.41199 18.9334 7.8382 18.742 8.27388C16.9232 8.00395 15.0709 8.00395 13.2473 8.27388C13.0606 7.8382 12.8452 7.41199 12.6107 7C10.902 7.28888 9.23636 7.79558 7.65689 8.51065C4.52664 13.0995 3.67947 17.5698 4.10067 21.9787C5.93381 23.3189 7.98715 24.3417 10.1745 24.9953C10.6675 24.3417 11.103 23.6456 11.4764 22.9211C10.768 22.6606 10.0835 22.3339 9.42782 21.955C9.60012 21.8319 9.76765 21.704 9.93038 21.5809C13.7738 23.371 18.2251 23.371 22.0732 21.5809C22.236 21.7135 22.4035 21.8414 22.5758 21.955C21.9201 22.3386 21.2356 22.6606 20.5225 22.9258C20.8958 23.6504 21.3313 24.3465 21.8244 25C24.0116 24.3465 26.0649 23.3283 27.8982 21.9882C28.3959 16.8737 27.0462 12.4412 24.3323 8.51539C22.7577 7.80032 21.092 7.29361 19.3833 7.00947L19.3785 7ZM12.0124 19.2652C10.8302 19.2652 9.84902 18.2044 9.84902 16.8927C9.84902 15.5809 10.7919 14.5154 12.0076 14.5154C13.2234 14.5154 14.1902 15.5856 14.171 16.8927C14.1519 18.1997 13.2186 19.2652 12.0124 19.2652ZM19.9864 19.2652C18.7994 19.2652 17.8278 18.2044 17.8278 16.8927C17.8278 15.5809 18.7707 14.5154 19.9864 14.5154C21.2021 14.5154 22.1642 15.5856 22.145 16.8927C22.1259 18.1997 21.1926 19.2652 19.9864 19.2652Z" fill="#374562"/>
</svg>
