<svg width="32" height="32" viewBox="0 0 32 32" fill="none" xmlns="http://www.w3.org/2000/svg">
<path d="M26.9022 10.5035C26.6404 9.51804 25.8694 8.74196 24.8903 8.47858C23.1157 8 15.9999 8 15.9999 8C15.9999 8 8.88403 8 7.1094 8.47858C6.13036 8.742 5.35928 9.51804 5.09757 10.5035C4.62207 12.2896 4.62207 16.0162 4.62207 16.0162C4.62207 16.0162 4.62207 19.7428 5.09757 21.5289C5.35928 22.5143 6.13036 23.258 7.1094 23.5214C8.88403 24 15.9999 24 15.9999 24C15.9999 24 23.1157 24 24.8903 23.5214C25.8694 23.258 26.6404 22.5143 26.9022 21.5289C27.3777 19.7428 27.3777 16.0162 27.3777 16.0162C27.3777 16.0162 27.3777 12.2896 26.9022 10.5035ZM13.6726 19.3996V12.6327L19.62 16.0163L13.6726 19.3996Z" fill="#374562"/>
</svg>
