<svg width="32" height="32" viewBox="0 0 32 32" fill="none" xmlns="http://www.w3.org/2000/svg">
<path fill-rule="evenodd" clip-rule="evenodd" d="M17.8069 5.04712H20.8378C21.13 6.61914 22.0662 7.96806 23.3633 8.81082C23.3637 8.81136 23.3642 8.8119 23.3646 8.81244C24.2676 9.3989 25.3441 9.74106 26.4999 9.74106V10.6595L26.5 13.8665C24.3532 13.8665 22.3639 13.182 20.7402 12.0205V20.4055C20.7402 24.5932 17.3218 28 13.1199 28C11.4963 28 9.99068 27.4897 8.75303 26.6236C8.75236 26.6229 8.7517 26.6221 8.75091 26.6214C6.78702 25.2463 5.5 22.9732 5.5 20.4047C5.5 16.2172 8.91833 12.8102 13.1202 12.8102C13.4688 12.8102 13.8106 12.8388 14.147 12.8843V13.8618L14.1469 17.0973C13.8218 16.996 13.4782 16.937 13.1199 16.937C11.2011 16.937 9.63994 18.4931 9.63994 20.4055C9.63994 21.7373 10.3981 22.8944 11.5057 23.4753C11.9887 23.7287 12.5373 23.8739 13.1198 23.8739C14.9945 23.8739 16.5237 22.3877 16.5933 20.536L16.6 4H20.74C20.74 4.35768 20.7747 4.70726 20.8378 5.04712H17.8069Z" fill="#374562"/>
</svg>
