<svg width="32" height="32" viewBox="0 0 32 32" fill="none" xmlns="http://www.w3.org/2000/svg">
<path d="M16.005 10.1601C12.7753 10.1601 10.1702 12.7652 10.1702 15.9949C10.1702 19.2246 12.7753 21.8297 16.005 21.8297C19.2347 21.8297 21.8397 19.2246 21.8397 15.9949C21.8397 12.7652 19.2347 10.1601 16.005 10.1601ZM16.005 19.7883C13.9179 19.7883 12.2116 18.0871 12.2116 15.9949C12.2116 13.9027 13.9128 12.2015 16.005 12.2015C18.0972 12.2015 19.7983 13.9027 19.7983 15.9949C19.7983 18.0871 18.0921 19.7883 16.005 19.7883ZM23.4394 9.92146C23.4394 10.6781 22.83 11.2824 22.0784 11.2824C21.3218 11.2824 20.7175 10.673 20.7175 9.92146C20.7175 9.1699 21.3269 8.56052 22.0784 8.56052C22.83 8.56052 23.4394 9.1699 23.4394 9.92146ZM27.3038 11.3027C27.2175 9.47966 26.8011 7.86482 25.4655 6.53435C24.1351 5.20388 22.5202 4.78748 20.6972 4.69607C18.8183 4.58943 13.1866 4.58943 11.3077 4.69607C9.48975 4.7824 7.8749 5.1988 6.53936 6.52927C5.20381 7.85974 4.79248 9.47458 4.70107 11.2976C4.59443 13.1765 4.59443 18.8082 4.70107 20.6871C4.7874 22.5101 5.20381 24.125 6.53936 25.4554C7.8749 26.7859 9.48467 27.2023 11.3077 27.2937C13.1866 27.4004 18.8183 27.4004 20.6972 27.2937C22.5202 27.2074 24.1351 26.791 25.4655 25.4554C26.796 24.125 27.2124 22.5101 27.3038 20.6871C27.4105 18.8082 27.4105 13.1816 27.3038 11.3027ZM24.8765 22.7031C24.4804 23.6984 23.7136 24.4652 22.7132 24.8664C21.2151 25.4605 17.6604 25.3234 16.005 25.3234C14.3495 25.3234 10.7897 25.4554 9.29678 24.8664C8.30146 24.4703 7.53467 23.7035 7.1335 22.7031C6.53936 21.2051 6.67646 17.6504 6.67646 15.9949C6.67646 14.3394 6.54443 10.7797 7.1335 9.28669C7.52959 8.29138 8.29639 7.52458 9.29678 7.12341C10.7948 6.52927 14.3495 6.66638 16.005 6.66638C17.6604 6.66638 21.2202 6.53435 22.7132 7.12341C23.7085 7.51951 24.4753 8.2863 24.8765 9.28669C25.4706 10.7847 25.3335 14.3394 25.3335 15.9949C25.3335 17.6504 25.4706 21.2101 24.8765 22.7031Z" fill="#374562"/>
</svg>
