<svg width="32" height="32" viewBox="0 0 32 32" fill="none" xmlns="http://www.w3.org/2000/svg">
<path d="M17.8789 10.4999C18.7742 10.6746 19.5971 11.1125 20.2421 11.7575C20.8872 12.4026 21.3251 13.2254 21.4997 14.1208M17.8789 6.83325C19.7391 7.0399 21.4737 7.87291 22.798 9.19551C24.1222 10.5181 24.9574 12.2517 25.1664 14.1116" stroke="#FFFEFC" stroke-width="2" stroke-linecap="round" stroke-linejoin="round"/>
<path d="M11.7652 14.0321C12.4032 15.3609 13.2729 16.6063 14.3743 17.7078C15.4758 18.8092 16.7212 19.6789 18.05 20.3169C18.1643 20.3718 18.2215 20.3992 18.2938 20.4203C18.5508 20.4952 18.8664 20.4414 19.084 20.2856C19.1452 20.2417 19.1976 20.1893 19.3024 20.0846C19.6229 19.7641 19.7831 19.6038 19.9443 19.4991C20.5519 19.104 21.3353 19.104 21.9429 19.4991C22.1041 19.6038 22.2643 19.7641 22.5848 20.0846L22.7634 20.2632C23.2505 20.7503 23.4941 20.9939 23.6264 21.2555C23.8896 21.7758 23.8896 22.3902 23.6264 22.9105C23.4941 23.1721 23.2505 23.4156 22.7634 23.9028L22.6189 24.0473C22.1334 24.5328 21.8907 24.7755 21.5606 24.9609C21.1944 25.1666 20.6256 25.3145 20.2056 25.3133C19.8271 25.3122 19.5684 25.2387 19.051 25.0919C16.2703 24.3027 13.6465 22.8136 11.4575 20.6246C9.26854 18.4356 7.77944 15.8118 6.99022 13.0312C6.84336 12.5137 6.76993 12.255 6.76881 11.8765C6.76756 11.4565 6.91547 10.8877 7.12119 10.5215C7.30658 10.1914 7.54933 9.9487 8.03482 9.46321L8.17931 9.31871C8.66647 8.83155 8.91005 8.58798 9.17165 8.45566C9.69191 8.19251 10.3063 8.19251 10.8266 8.45566C11.0882 8.58798 11.3318 8.83155 11.8189 9.31871L11.9975 9.49734C12.318 9.81781 12.4783 9.97805 12.583 10.1392C12.9781 10.7468 12.9781 11.5302 12.583 12.1378C12.4783 12.299 12.318 12.4592 11.9975 12.7797C11.8928 12.8845 11.8404 12.9369 11.7965 12.9981C11.6407 13.2158 11.5869 13.5313 11.6618 13.7883C11.6829 13.8606 11.7103 13.9178 11.7652 14.0321Z" fill="#FFFEFC"/>
</svg>
