<svg width="32" height="32" viewBox="0 0 32 32" fill="none" xmlns="http://www.w3.org/2000/svg">
<path d="M17.744 6.63358L25.272 11.5268C25.538 11.6997 25.671 11.7861 25.7674 11.9015C25.8527 12.0035 25.9167 12.1216 25.9558 12.2488C26 12.3924 26 12.551 26 12.8683V20.2C26 21.8802 26 22.7202 25.673 23.362C25.3854 23.9265 24.9265 24.3854 24.362 24.673C23.7202 25 22.8802 25 21.2 25H10.8C9.11984 25 8.27976 25 7.63803 24.673C7.07354 24.3854 6.6146 23.9265 6.32698 23.362C6 22.7202 6 21.8802 6 20.2V12.8683C6 12.551 6 12.3924 6.04417 12.2488C6.08327 12.1216 6.14735 12.0035 6.23265 11.9015C6.32901 11.7861 6.46201 11.6997 6.72802 11.5268L14.256 6.63358M17.744 6.63358C17.1127 6.22327 16.7971 6.01812 16.457 5.93829C16.1564 5.86774 15.8436 5.86774 15.543 5.93829C15.2029 6.01812 14.8873 6.22327 14.256 6.63358M17.744 6.63358L23.9361 10.6585C24.624 11.1056 24.9679 11.3291 25.087 11.6126C25.1911 11.8604 25.1911 12.1396 25.087 12.3874C24.9679 12.6709 24.624 12.8944 23.9361 13.3415L17.744 17.3664C17.1127 17.7767 16.7971 17.9819 16.457 18.0617C16.1564 18.1323 15.8436 18.1323 15.543 18.0617C15.2029 17.9819 14.8873 17.7767 14.256 17.3664L8.06386 13.3415C7.37601 12.8944 7.03209 12.6709 6.91297 12.3874C6.80888 12.1396 6.80888 11.8604 6.91297 11.6126C7.03209 11.3291 7.37601 11.1056 8.06386 10.6585L14.256 6.63358M25.5 23L18.8572 17M13.1428 17L6.5 23" stroke="#374562" stroke-width="2" stroke-linecap="round" stroke-linejoin="round"/>
</svg>
