<svg width="500" height="343" fill="none" xmlns="http://www.w3.org/2000/svg"><rect x="500" y=".631" width="342.315" height="500" rx="24" transform="rotate(90 500 .63)" fill="#1577EA"/><rect x="500" y=".631" width="342.315" height="500" rx="24" transform="rotate(90 500 .63)" fill="url(#paint0_linear_364_3599)" fill-opacity=".25"/><circle cx="165.5" cy="171.5" transform="rotate(90 165.5 171.5)" fill="#fff" r="13.5"/><path d="M165.5 206c-19.703 0-35.5-15.542-35.5-34.5s15.797-34.5 35.5-34.5 35.5 15.542 35.5 34.5-15.797 34.5-35.5 34.5z" stroke="#fff" stroke-opacity=".7" stroke-width="8"/><path d="M165.5 238c-36.747 0-66.5-29.57-66.5-66s29.753-66 66.5-66 66.5 29.57 66.5 66-29.753 66-66.5 66z" stroke="#fff" stroke-opacity=".4" stroke-width="6"/><path d="M165 291c-65.722 0-119-53.278-119-119 0-65.722 53.278-119 119-119 65.722 0 119 53.278 119 119 0 65.722-53.278 119-119 119z" fill="url(#paint1_angular_364_3599)" stroke="#0D0400" stroke-width="2"/><ellipse cx="334" cy="171.5" rx="13.5" ry="13" transform="rotate(90 334 171.5)" fill="#fff"/><path d="M334.5 206c-19.703 0-35.5-15.542-35.5-34.5s15.797-34.5 35.5-34.5 35.5 15.542 35.5 34.5-15.797 34.5-35.5 34.5z" stroke="#fff" stroke-opacity=".7" stroke-width="8"/><path d="M334.5 238c-36.747 0-66.5-29.57-66.5-66s29.753-66 66.5-66 66.5 29.57 66.5 66-29.753 66-66.5 66z" stroke="#fff" stroke-opacity=".4" stroke-width="6"/><path d="M335 291c-65.722 0-119-53.278-119-119 0-65.722 53.278-119 119-119 65.722 0 119 53.278 119 119 0 65.722-53.278 119-119 119z" fill="url(#paint2_angular_364_3599)" stroke="#0D0400" stroke-width="2"/><defs><radialGradient id="paint1_angular_364_3599" cx="0" cy="0" r="1" gradientUnits="userSpaceOnUse" gradientTransform="rotate(-45 290.122 -113.173) scale(118.794)"><stop stop-color="#F9F7F2" stop-opacity="0"/><stop offset="1" stop-color="#F9F7F2" stop-opacity=".25"/></radialGradient><radialGradient id="paint2_angular_364_3599" cx="0" cy="0" r="1" gradientUnits="userSpaceOnUse" gradientTransform="rotate(135 131.878 155.38) scale(119.501)"><stop stop-color="#F9F7F2" stop-opacity="0"/><stop offset="1" stop-color="#F9F7F2" stop-opacity=".25"/></radialGradient><linearGradient id="paint0_linear_364_3599" x1="500" y1=".631" x2="966.141" y2="319.766" gradientUnits="userSpaceOnUse"><stop stop-color="#fff" stop-opacity="0"/><stop offset="1"/></linearGradient></defs></svg>