<svg width="56" height="56" viewBox="0 0 56 56" fill="none" xmlns="http://www.w3.org/2000/svg">
<rect width="56" height="56" rx="12" fill="url(#paint0_linear_1497_78503)"/>
<path fill-rule="evenodd" clip-rule="evenodd" d="M15.9863 14.0001L13.9866 15.9998L15.9863 17.9995L17.986 15.9998L15.9863 14.0001ZM22.586 20L19.999 22.587L24.999 27.587L27.586 25L22.586 20ZM24 18.586L41.414 36C41.792 36.378 42 36.88 42 37.414C42 37.948 41.792 38.451 41.414 38.828L38.827 41.415C38.437 41.804 37.925 41.999 37.413 41.999C36.901 41.999 36.389 41.804 35.999 41.414L18.586 24C17.806 23.22 17.806 21.951 18.586 21.172L21.172 18.586C21.925 17.831 23.244 17.83 24 18.586ZM13.9866 27.9998L15.9863 26.0001L17.986 27.9998L15.9863 29.9995L13.9866 27.9998ZM27.9863 14.0001L25.9866 15.9998L27.9863 17.9995L29.986 15.9998L27.9863 14.0001Z" fill="url(#paint1_linear_1497_78503)"/>
<defs>
<linearGradient id="paint0_linear_1497_78503" x1="0" y1="0" x2="48.5728" y2="-5.83433" gradientUnits="userSpaceOnUse">
<stop stop-color="#000D26"/>
<stop offset="1" stop-color="#5C6880"/>
</linearGradient>
<linearGradient id="paint1_linear_1497_78503" x1="27.9933" y1="14.0001" x2="27.9933" y2="41.999" gradientUnits="userSpaceOnUse">
<stop stop-color="#FFFEFC"/>
<stop offset="1" stop-color="#E6E8EB"/>
</linearGradient>
</defs>
</svg>
