<svg width="56" height="56" viewBox="0 0 56 56" fill="none" xmlns="http://www.w3.org/2000/svg">
<rect width="56" height="56" rx="12" fill="url(#paint0_linear_1497_78529)"/>
<path fill-rule="evenodd" clip-rule="evenodd" d="M34 36H40V20H16V36H22V34C22 32.343 23.343 31 25 31H31C32.657 31 34 32.343 34 34V36ZM24 34V36H32V34C32 33.448 31.552 33 31 33H25C24.448 33 24 33.448 24 34ZM16 18H40C41.103 18 42 18.897 42 20V36C42 37.103 41.103 38 40 38H16C14.897 38 14 37.103 14 36V20C14 18.897 14.897 18 16 18ZM30 26C30 24.895 29.105 24 28 24C26.895 24 26 24.895 26 26C26 27.105 26.895 28 28 28C29.105 28 30 27.105 30 26ZM32 26C32 28.209 30.209 30 28 30C25.791 30 24 28.209 24 26C24 23.791 25.791 22 28 22C30.209 22 32 23.791 32 26Z" fill="url(#paint1_linear_1497_78529)"/>
<defs>
<linearGradient id="paint0_linear_1497_78529" x1="0" y1="0" x2="48.5728" y2="-5.83433" gradientUnits="userSpaceOnUse">
<stop stop-color="#000D26"/>
<stop offset="1" stop-color="#5C6880"/>
</linearGradient>
<linearGradient id="paint1_linear_1497_78529" x1="28" y1="18" x2="28" y2="38" gradientUnits="userSpaceOnUse">
<stop stop-color="#FFFEFC"/>
<stop offset="1" stop-color="#E6E8EB"/>
</linearGradient>
</defs>
</svg>
