<svg width="56" height="56" viewBox="0 0 56 56" fill="none" xmlns="http://www.w3.org/2000/svg">
<rect width="56" height="56" rx="12" fill="url(#paint0_linear_1497_78485)"/>
<path fill-rule="evenodd" clip-rule="evenodd" d="M16 28C16 21.383 21.383 16 28 16C34.617 16 40 21.383 40 28C40 34.617 34.617 40 28 40C21.383 40 16 34.617 16 28ZM14 28C14 35.72 20.28 42 28 42C35.72 42 42 35.72 42 28C42 20.28 35.72 14 28 14C20.28 14 14 20.28 14 28ZM27 28.004C27 28.556 27.448 29.004 28 29.004C28.552 29.004 29 28.556 29 28.004C29 27.452 28.552 27.004 28 27.004C27.448 27.004 27 27.452 27 28.004ZM34 20.59L35.414 22.004L30.699 26.719C30.886 27.11 31 27.542 31 28.004C31 29.658 29.654 31.004 28 31.004C26.346 31.004 25 29.658 25 28.004C25 26.35 26.346 25.004 28 25.004C28.462 25.004 28.894 25.117 29.285 25.305L34 20.59ZM38.0012 28.0041C38.0016 26.3379 37.5858 24.7692 36.8625 23.3867L35.3664 24.8824C35.7742 25.8415 36.0014 26.8968 36.0015 28.0038L38.0012 28.0041ZM31.122 20.635C30.162 20.227 29.107 20 28 20C23.589 20 20 23.589 20 28H18C18 22.486 22.486 18 28 18C29.666 18 31.235 18.415 32.618 19.139L31.122 20.635Z" fill="url(#paint1_linear_1497_78485)"/>
<defs>
<linearGradient id="paint0_linear_1497_78485" x1="0" y1="0" x2="48.5728" y2="-5.83433" gradientUnits="userSpaceOnUse">
<stop stop-color="#000D26"/>
<stop offset="1" stop-color="#5C6880"/>
</linearGradient>
<linearGradient id="paint1_linear_1497_78485" x1="28" y1="14" x2="28" y2="42" gradientUnits="userSpaceOnUse">
<stop stop-color="#FFFEFC"/>
<stop offset="1" stop-color="#E6E8EB"/>
</linearGradient>
</defs>
</svg>
