<svg width="32" height="32" fill="none" xmlns="http://www.w3.org/2000/svg"><path fill-rule="evenodd" clip-rule="evenodd" d="M6 30h6v-2H6V4h16v10h2V4c0-1.1-.9-2-2-2H6c-1.1 0-2 .9-2 2v24c0 1.1.9 2 2 2zm20.71-13.71l3 3c.39.39.39 1.02 0 1.41l-9.29 9.29h-4.41v-4.41l9.29-9.29a.996.996 0 011.41 0zM18 28h1.59l5-5L23 21.41l-5 5V28zm6.41-8L26 21.59 27.59 20 26 18.41 24.41 20zM17 15h-6c-1.66 0-3 1.34-3 3v1h2v-1c0-.55.45-1 1-1h6c.55 0 1 .45 1 1v1h2v-1c0-1.66-1.34-3-3-3zm1-5c0 2.21-1.79 4-4 4s-4-1.79-4-4 1.79-4 4-4 4 1.79 4 4zm-2 0c0-1.1-.9-2-2-2s-2 .9-2 2 .9 2 2 2 2-.9 2-2z" fill="url(#paint0_linear_464_5913)"/><defs><linearGradient id="paint0_linear_464_5913" x1="4" y1="2.483" x2="30.667" y2="30.482" gradientUnits="userSpaceOnUse"><stop stop-color="#07A0C3"/><stop offset="1" stop-color="#59E0FF"/></linearGradient></defs></svg>