<svg width="32" height="32" viewBox="0 0 32 32" fill="none" xmlns="http://www.w3.org/2000/svg">
<path fill-rule="evenodd" clip-rule="evenodd" d="M6 30H12V28H6V4H22V14H24V4C24 2.9 23.1 2 22 2H6C4.9 2 4 2.9 4 4V28C4 29.1 4.9 30 6 30ZM26.7094 16.2894L29.7094 19.2894C30.0994 19.6794 30.0994 20.3094 29.7094 20.6994L20.4194 29.9894H16.0094V25.5794L25.2994 16.2894C25.6894 15.8994 26.3194 15.8994 26.7094 16.2894ZM17.9994 27.9994H19.5894L24.5894 22.9994L22.9994 21.4094L17.9994 26.4094V27.9994ZM24.4094 19.9994L25.9994 21.5894L27.5894 19.9994L25.9994 18.4094L24.4094 19.9994ZM17 15H11C9.34 15 8 16.34 8 18V19H10V18C10 17.45 10.45 17 11 17H17C17.55 17 18 17.45 18 18V19H20V18C20 16.34 18.66 15 17 15ZM18 10C18 12.21 16.21 14 14 14C11.79 14 10 12.21 10 10C10 7.79 11.79 6 14 6C16.21 6 18 7.79 18 10ZM16 10C16 8.9 15.1 8 14 8C12.9 8 12 8.9 12 10C12 11.1 12.9 12 14 12C15.1 12 16 11.1 16 10Z" fill="url(#paint0_linear_464_5913)"/>
<defs>
<linearGradient id="paint0_linear_464_5913" x1="4" y1="2.48291" x2="30.6667" y2="30.4823" gradientUnits="userSpaceOnUse">
<stop stop-color="#07A0C3"/>
<stop offset="1" stop-color="#59E0FF"/>
</linearGradient>
</defs>
</svg>
