<svg width="416" height="84" viewBox="0 0 416 84" fill="none" xmlns="http://www.w3.org/2000/svg">
<path d="M116.72 4.56982H143.37C152.96 4.56982 159.97 6.85982 164.39 11.4298C168.82 15.9998 171.03 23.3098 171.03 33.3398V53.2598C171.03 63.2898 168.82 70.5898 164.39 75.1698C159.96 79.7398 152.96 82.0298 143.37 82.0298H116.72V73.2898H122.23V13.1998H116.72V4.56982ZM142.04 73.3898C145.43 73.3898 148.36 73.0598 150.84 72.3898C153.31 71.7298 155.36 70.5998 156.98 69.0198C158.6 67.4298 159.8 65.3098 160.58 62.6598C161.35 59.9998 161.74 56.6498 161.74 52.5898V33.9998C161.74 29.9398 161.35 26.5898 160.58 23.9298C159.81 21.2698 158.61 19.1498 156.98 17.5698C155.36 15.9798 153.31 14.8598 150.84 14.1998C148.37 13.5398 145.44 13.1998 142.04 13.1998H131.52V73.3898H142.04Z" fill="#000D26"/>
<path d="M177.35 27.1398H197.27V34.4398H198.6C200 31.4198 201.99 29.1798 204.58 27.7498C207.16 26.3098 210.11 25.5898 213.43 25.5898C218.96 25.5898 223.43 27.3998 226.82 31.0098C230.21 34.6198 232.02 39.8998 232.24 46.8298L223.17 48.1598C223.17 43.0698 221.95 39.3998 219.52 37.1498C217.08 34.8998 214.1 33.7798 210.56 33.7798C208.27 33.7798 206.3 34.2198 204.64 35.1098C202.98 35.9998 201.6 37.2098 200.49 38.7598C199.38 40.3098 198.57 42.1198 198.06 44.1798C197.54 46.2498 197.29 48.4598 197.29 50.8198V74.0598H211.23V82.0298H176.05V74.0598H188.66V35.1098H177.37V27.1398H177.35Z" fill="#000D26"/>
<path d="M244.87 57.2401C245.09 62.7001 246.79 67.0901 249.96 70.4101C253.13 73.7301 257.56 75.3901 263.24 75.3901C265.82 75.3901 268.07 75.1001 269.99 74.5001C271.91 73.9101 273.55 73.1001 274.91 72.0701C276.27 71.0401 277.38 69.8401 278.23 68.4701C279.08 67.1101 279.76 65.6501 280.28 64.1001L288.47 66.3101C286.92 71.4001 284.06 75.5501 279.9 78.7601C275.73 81.9701 270.11 83.5701 263.03 83.5701C259.12 83.5701 255.52 82.8901 252.24 81.5201C248.96 80.1601 246.14 78.2201 243.78 75.7101C241.42 73.2001 239.58 70.2201 238.25 66.7501C236.92 63.2801 236.26 59.4501 236.26 55.2401V52.5801C236.26 48.7501 236.94 45.1701 238.31 41.8501C239.67 38.5301 241.57 35.6701 244.01 33.2701C246.44 30.8701 249.3 28.9901 252.58 27.6301C255.86 26.2701 259.42 25.5801 263.26 25.5801C267.76 25.5801 271.65 26.4101 274.93 28.0701C278.21 29.7301 280.91 31.7801 283.01 34.2101C285.11 36.6401 286.66 39.3001 287.66 42.1801C288.65 45.0601 289.15 47.7101 289.15 50.1501V57.2301H244.89L244.87 57.2401ZM263.24 33.7801C260.8 33.7801 258.54 34.1701 256.43 34.9401C254.33 35.7101 252.48 36.8001 250.9 38.2001C249.31 39.6001 248.02 41.2401 247.03 43.1201C246.04 45.0001 245.39 47.0501 245.09 49.2601H280.5C280.35 46.9001 279.78 44.7601 278.79 42.8401C277.79 40.9201 276.5 39.3001 274.92 37.9701C273.33 36.6401 271.53 35.6101 269.5 34.8701C267.47 34.1301 265.39 33.7601 263.25 33.7601L263.24 33.7801Z" fill="#000D26"/>
<path d="M338.88 72.7298H337.55C335.78 76.4198 333.33 79.1498 330.19 80.9198C327.06 82.6898 323.76 83.5798 320.29 83.5798C316.82 83.5798 313.32 82.9698 310.22 81.7498C307.12 80.5298 304.41 78.7298 302.09 76.3298C299.77 73.9298 297.94 70.9998 296.61 67.5298C295.28 64.0598 294.62 60.0398 294.62 55.4698V53.6998C294.62 49.1998 295.28 45.2198 296.61 41.7498C297.94 38.2798 299.76 35.3498 302.09 32.9498C304.41 30.5498 307.12 28.7298 310.22 27.4698C313.32 26.2198 316.6 25.5898 320.07 25.5898C323.83 25.5898 327.24 26.4198 330.3 28.0798C333.36 29.7398 335.77 32.2998 337.55 35.7698H338.88V27.1398H347.51V70.7298C347.51 72.9398 348.51 74.0498 350.5 74.0498H353.27V82.0198H347.41C344.9 82.0198 342.85 81.2098 341.27 79.5898C339.68 77.9698 338.89 75.8998 338.89 73.3898V72.7298H338.88ZM321.18 75.3898C323.76 75.3898 326.14 74.9098 328.32 73.9498C330.5 72.9898 332.36 71.6298 333.91 69.8598C335.46 68.0898 336.68 65.9698 337.56 63.4998C338.45 61.0298 338.89 58.2798 338.89 55.2598V53.9298C338.89 50.9798 338.45 48.2698 337.56 45.7998C336.67 43.3298 335.44 41.2098 333.85 39.4398C332.26 37.6698 330.38 36.2898 328.21 35.2898C326.03 34.2898 323.69 33.7998 321.18 33.7998C318.67 33.7998 316.24 34.2798 314.1 35.2398C311.96 36.1998 310.1 37.5498 308.51 39.2798C306.92 41.0098 305.69 43.1198 304.8 45.5898C303.91 48.0598 303.47 50.7698 303.47 53.7198V55.4898C303.47 61.7598 305.11 66.6498 308.39 70.1498C311.67 73.6498 315.93 75.4098 321.17 75.4098L321.18 75.3898Z" fill="#000D26"/>
<path d="M415.86 82.0201H407.23V42.6301C407.23 40.0501 406.64 37.9301 405.46 36.2701C404.28 34.6101 402.4 33.7801 399.82 33.7801C397.39 33.7801 395.41 34.6801 393.9 36.4901C392.39 38.3001 391.63 41.0801 391.63 44.8401V82.0201H383V42.1901C383 39.7601 382.34 37.7501 381.01 36.1601C379.68 34.5701 377.91 33.7801 375.7 33.7801C373.05 33.7801 371 34.7401 369.56 36.6601C368.12 38.5801 367.4 41.0901 367.4 44.1801V82.0201H358.77V27.1401H367.4V33.1101H368.73C369.69 30.5301 371.09 28.6301 372.93 27.4101C374.77 26.1901 376.95 25.5801 379.46 25.5801C382.12 25.5801 384.31 26.2801 386.04 27.6801C387.77 29.0801 388.97 30.8901 389.64 33.1001H390.97C393.48 28.0801 397.46 25.5801 402.92 25.5801C407.05 25.5801 410.24 26.8901 412.49 29.5101C414.74 32.1301 415.87 35.5401 415.87 39.7401V82.0101L415.86 82.0201Z" fill="#000D26"/>
<path d="M40.96 0H33.99V4.05C33.99 22.04 48.62 36.67 66.61 36.67H70.66V47.33H66.61C48.62 47.33 33.99 61.96 33.99 79.95V84H40.96C64.16 84 82.96 65.2 82.96 42C82.96 18.8 64.15 0 40.96 0Z" fill="#000D26"/>
<path d="M64.12 43.27V40.74C44.12 40.74 27.9 24.52 27.9 4.52V0H15.52V4.51C15.52 24.51 31.74 40.73 51.74 40.73V43.26C31.74 43.26 15.52 59.48 15.52 79.48V83.99H27.9V79.48C27.9 59.48 44.12 43.26 64.12 43.26V43.27Z" fill="#000D26"/>
<path d="M33.4 43.27V40.74C13.4 40.74 6.29 32.45 6.29 4.52V0H0V4.51H0.03C0.03 25.22 4.17 42 24.87 42C4.17 42 0.03 58.78 0.03 79.49H0V84H6.3V79.49C6.3 51.56 13.4 43.27 33.41 43.27H33.4Z" fill="#000D26"/>
</svg>
