<svg width="1154" height="1175" viewBox="0 0 1154 1175" fill="none" xmlns="http://www.w3.org/2000/svg">
<path fill-rule="evenodd" clip-rule="evenodd" d="M170.719 706.286C230.223 628.866 324.383 600.014 462.799 599.857V566.724C324.377 566.586 230.173 537.74 170.632 460.295C111.014 382.749 86.3443 256.704 86.3443 62.7657V1H1V61.6268H1.41659V62.6268C1.41659 206.396 15.7952 336.329 65.9737 430.297C91.0507 477.257 125.062 515.221 170.687 541.453C216.316 567.686 273.625 582.221 345.35 582.221V583.221C337.632 583.221 330.08 583.053 322.69 582.72C54.8598 570.669 0.416586 342.489 0.416586 62.6268H0V0H87.3443V62.7657C87.3443 450.608 186.075 565.724 463.799 565.724V600.856C463.466 600.856 463.133 600.857 462.799 600.857C185.806 601.172 87.4831 716.503 87.4831 1103.81V1166.44H0V1103.81H0.416586C0.416586 823.953 54.8598 595.773 322.69 583.721C330.08 583.389 337.632 583.221 345.35 583.221V584.221C273.625 584.221 216.316 598.756 170.687 624.989C125.062 651.22 91.0507 689.184 65.9737 736.145C15.7952 830.113 1.41659 960.046 1.41659 1103.81V1104.81H1V1165.44H86.4831V1103.81C86.4831 909.877 111.118 783.832 170.719 706.286ZM890.384 565.724C612.66 565.724 387.426 340.49 387.426 62.7657V0H215.514V62.6268C215.514 340.351 440.749 565.585 718.473 565.585V600.717C440.749 600.717 215.514 825.952 215.514 1103.68V1166.3H387.426V1103.68C387.426 826.285 612.12 601.258 889.384 600.718C889.717 600.718 890.051 600.717 890.384 600.717V565.724ZM386.426 1165.3V1103.68C386.426 825.733 611.567 600.258 889.384 599.718V566.723C611.567 566.183 386.426 340.709 386.426 62.7657V1H216.514V62.6268C216.514 339.799 441.301 564.585 718.473 564.585H719.473V601.717H718.473C441.301 601.717 216.514 826.504 216.514 1103.68V1165.3H386.426ZM982.2 658.234H924.96C675.7 658.234 472.992 860.942 472.992 1110.2V1165.44H568.779C890.387 1165.44 1151 904.829 1151 583.221C1151 261.613 890.248 1 568.779 1H472.992V56.2392C472.992 305.5 675.7 508.207 924.96 508.207H982.2V658.234ZM471.992 56.2392C471.992 306.052 675.147 509.207 924.96 509.207H981.2V657.234H924.96C675.147 657.234 471.992 860.39 471.992 1110.2V1166.44H568.779C890.939 1166.44 1152 905.381 1152 583.221C1152 261.061 890.8 0 568.779 0H471.992V56.2392Z" fill="url(#linear)"/>
<defs>
<linearGradient id="linear" x1="576.545" y1="0" x2="576.545" y2="1174.89" gradientUnits="userSpaceOnUse">
<stop stop-opacity="0.2"/>
<stop offset="1" stop-color="#666666" stop-opacity="0.1"/>
</linearGradient>

<style>
    path {
        transform: rotate(20deg);
    }
</style>
</defs>
</svg>
