<svg width="1297" height="1152" viewBox="0 0 1297 1152" fill="none" xmlns="http://www.w3.org/2000/svg">
<path fill-rule="evenodd" clip-rule="evenodd" d="M46.7375 1071.53L123.53 741.392C135.4 686.167 179.121 642.446 234.815 630.464L235.025 631.442C179.713 643.341 136.295 686.763 124.507 741.602L124.505 741.61L124.504 741.619L47.7115 1071.76C44.4336 1085.85 31.8742 1095.82 17.4056 1095.82H1V1150.81H48.8489C71.6876 1150.81 89.506 1136.42 94.2077 1114.56L94.2095 1114.55L94.2114 1114.54L178.167 753.625L178.169 753.616C185.529 719.414 212.383 692.562 246.594 685.205L538.773 622.307C561.584 617.395 576.116 598.882 575.458 575.322C574.857 553.788 558.771 535.697 537.643 531.149L246.594 468.493C212.372 461.127 185.512 434.266 178.065 399.628L178.064 399.62L94.3145 37.7208L94.3128 37.7134L94.3112 37.7059C89.5049 15.3881 71.6814 1 48.8489 1H1V55.9904H17.362C31.8437 55.9904 44.4108 65.9813 47.6759 80.0901L124.393 411.595L124.394 411.603L124.396 411.611C136.279 466.921 179.707 510.349 235.026 522.256L461.037 570.905C467.433 572.282 467.433 581.408 461.037 582.785L235.026 631.442L234.815 630.464L460.826 581.808C466.17 580.657 466.17 573.033 460.826 571.883L234.815 523.234C179.113 511.244 135.384 467.515 123.418 411.821L46.7016 80.3156C43.5415 66.6602 31.3783 56.9904 17.362 56.9904H1H0V55.9904V1V0H1H48.8489C72.1523 0 90.3832 14.7167 95.2888 37.4954L179.041 399.41C186.404 433.669 212.967 460.232 246.805 467.515L537.854 530.171C559.398 534.809 575.842 553.265 576.458 575.294C577.129 599.333 562.268 618.27 538.984 623.285L246.805 686.183C212.975 693.457 186.419 720.013 179.145 753.835L95.1854 1114.77C90.3832 1137.1 72.1524 1151.81 48.8489 1151.81H1H0V1150.81V1095.82V1094.82H1H17.4056C31.4092 1094.82 43.5649 1085.17 46.7375 1071.53ZM925.381 576.849V576.846C925.382 576.349 925.402 575.856 925.422 575.386L925.43 575.189C925.451 574.651 925.468 574.14 925.456 573.628C924.021 512.272 881.593 460.797 821.283 447.814L563.477 392.322C541.133 387.512 523.678 370.059 518.868 347.714L463.36 89.8944C459.11 70.1581 450.738 52.3412 439.249 37.2497C422.412 15.1319 395.723 2.69775 367.886 2.69775H235.64V48.826C265.032 49.2279 294.237 67.3495 301.948 103.18L364.844 395.36C370.374 421.049 390.441 441.116 416.13 446.645L708.307 509.539C744.544 517.34 762.669 547.121 762.669 576.847C762.669 606.574 744.544 636.354 708.307 644.155L416.13 707.049C390.441 712.579 370.374 732.646 364.844 758.335L301.948 1050.51C294.237 1086.35 265.032 1104.47 235.64 1104.87V1151H367.886C395.723 1151 422.412 1138.56 439.249 1116.45C450.738 1101.35 459.11 1083.54 463.36 1063.8L518.868 805.98C523.678 783.636 541.133 766.182 563.477 761.373L821.283 705.881C881.593 692.898 924.021 641.422 925.456 580.066C925.461 579.852 925.461 579.637 925.458 579.421C925.453 579.121 925.442 578.818 925.43 578.506L925.422 578.308C925.403 577.838 925.382 577.346 925.381 576.849ZM235.64 1152H234.64V1151V1104.88V1103.88C263.963 1103.88 293.285 1086.02 300.971 1050.3L363.867 758.124C369.479 732.051 389.846 711.684 415.92 706.072L708.097 643.178C743.811 635.489 761.669 606.169 761.669 576.847C761.669 547.525 743.811 518.205 708.097 510.517L415.92 447.623C389.846 442.011 369.479 421.644 363.867 395.57L300.971 103.391C293.284 67.6764 263.962 49.8192 234.64 49.8192V48.8192V2.69775V1.69775H235.64H367.886C396.015 1.69775 423.007 14.2623 440.045 36.644C451.622 51.8517 460.057 69.8033 464.337 89.6839L519.845 347.504C524.573 369.464 541.728 386.617 563.688 391.344L821.493 446.836C882.255 459.917 925.01 511.787 926.456 573.605C926.47 574.218 926.445 574.823 926.421 575.427C926.402 575.899 926.382 576.371 926.381 576.847C926.382 577.323 926.402 577.795 926.421 578.266C926.445 578.871 926.47 579.476 926.456 580.089C925.01 641.908 882.255 693.778 821.493 706.859L563.688 762.35C541.728 767.077 524.573 784.231 519.845 806.191L464.337 1064.01C460.057 1083.89 451.622 1101.84 440.045 1117.05C423.007 1139.43 396.015 1152 367.886 1152H235.64ZM559.515 38.5826C565.571 51.2749 570.255 64.8599 573.343 79.1972L625.62 322.055C628.183 333.965 637.487 343.269 649.399 345.834L892.256 398.11C977.248 416.408 1036.61 489.914 1036.61 576.848C1036.61 663.783 977.248 737.289 892.256 755.587L649.399 807.863C637.487 810.427 628.183 819.732 625.62 831.641L573.343 1074.5C570.255 1088.84 565.571 1102.42 559.515 1115.11C551.56 1131.78 563.473 1151 581.914 1151H713.834C911.909 1151 1099.04 1052.93 1205.64 886.026C1265.87 791.713 1295.91 684.282 1295.91 576.848C1295.91 469.414 1265.87 361.984 1205.64 267.67C1099.04 100.762 911.909 2.69775 713.834 2.69775H581.914C563.473 2.69775 551.561 21.9122 559.515 38.5826ZM624.643 322.266L572.365 79.4076C569.294 65.147 564.635 51.6359 558.613 39.0132C550.348 21.6927 562.723 1.69775 581.914 1.69775H713.834C912.235 1.69775 1099.69 99.9233 1206.48 267.132C1266.82 361.61 1296.91 469.228 1296.91 576.848C1296.91 684.469 1266.82 792.087 1206.48 886.565C1099.69 1053.77 912.235 1152 713.834 1152H581.914C562.723 1152 550.348 1132 558.613 1114.68C564.635 1102.06 569.294 1088.55 572.365 1074.29L624.643 831.431C627.288 819.137 636.893 809.533 649.189 806.885L892.046 754.609C976.577 736.41 1035.61 663.312 1035.61 576.848C1035.61 490.385 976.577 417.286 892.046 399.087L649.189 346.811C636.893 344.164 627.288 334.56 624.643 322.266Z" fill="url(#gradient)"/>
<defs>
<linearGradient id="gradient" x1="648.456" y1="0" x2="648.456" y2="1152" gradientTransform="rotate(45)" gradientUnits="userSpaceOnUse">
<stop stop-color="#000D26" stop-opacity="0.2"/>
<stop offset="1" stop-color="#000D26" stop-opacity="0.1"/>
</linearGradient>
</defs>
</svg>
