<svg width="1270" height="181" viewBox="0 0 1270 181" fill="none" xmlns="http://www.w3.org/2000/svg">
<path d="M86.144 148.495V174.736C86.144 175.779 86.436 176.791 86.993 177.672C87.507 178.486 88.2 179.119 88.988 179.553C89.776 179.988 90.681 180.236 91.644 180.236C92.686 180.237 93.698 179.944 94.579 179.388L157.036 139.972C158.633 138.965 159.601 137.209 159.601 135.321V103.844C159.601 100.808 157.137 98.3443 154.101 98.3443C151.065 98.3443 148.601 100.808 148.601 103.844V132.288C148.601 132.288 113.646 154.348 97.144 164.762V151.612L136.637 127.966C138.295 126.973 139.31 125.184 139.312 123.252L139.368 59.0813C139.371 56.0453 136.909 53.5793 133.873 53.5763C130.838 53.5733 128.371 56.0353 128.368 59.0713L128.315 120.128L88.819 143.776C87.16 144.77 86.144 146.561 86.144 148.495Z" stroke="black" stroke-width="1.5" stroke-linejoin="round"/>
<path d="M12 48.9483C12 48.9483 46.955 26.8883 63.457 16.4743V29.6243L23.963 53.2703C22.306 54.2633 21.29 56.0523 21.289 57.9843L21.232 122.155C21.23 125.191 23.692 127.657 26.728 127.66C29.763 127.663 32.23 125.2 32.232 122.165L32.286 61.1083L71.782 37.4603C73.441 36.4663 74.457 34.6753 74.457 32.7413L74.456 6.50027C74.457 5.45727 74.164 4.44529 73.608 3.56429C73.094 2.75029 72.401 2.11731 71.612 1.68331C70.825 1.24831 69.919 1.00027 68.957 1.00027C67.914 0.999265 66.902 1.29229 66.021 1.84829L3.56396 41.2643C1.96796 42.2713 1 44.0273 1 45.9153V77.3923C1 80.4283 3.464 82.8923 6.5 82.8923C9.535 82.8923 12 80.4283 12 77.3923V48.9483Z" stroke="black" stroke-width="1.5" stroke-linejoin="round"/>
<path d="M52.277 93.3293V73.6303L80.314 55.8063L108.337 73.6213H69.42C66.385 73.6213 63.92 76.0863 63.92 79.1213C63.92 82.1573 66.385 84.6213 69.42 84.6213H108.351V93.3293C108.351 96.3653 110.816 98.8293 113.851 98.8293C116.887 98.8293 119.351 96.3653 119.351 93.3293V71.0493C119.351 70.9753 119.35 70.9023 119.347 70.8293C119.42 68.9373 118.514 67.0563 116.802 65.9683L83.265 44.6473C82.349 44.0653 81.325 43.7883 80.314 43.7893C79.303 43.7883 78.279 44.0653 77.363 44.6473L43.826 65.9683C42.114 67.0563 41.208 68.9373 41.281 70.8293C41.278 70.9023 41.277 70.9753 41.277 71.0493V93.3293C41.277 96.3653 43.741 98.8293 46.777 98.8293C49.812 98.8293 52.277 96.3653 52.277 93.3293Z" stroke="black" stroke-width="1.5" stroke-linejoin="round"/>
<path d="M49.727 119.731L74.814 103.783V134.387C74.814 137.422 77.278 139.887 80.314 139.887C83.349 139.887 85.814 137.422 85.814 134.387V103.783L110.901 119.731C113.462 121.359 116.864 120.602 118.493 118.04C120.121 115.478 119.364 112.076 116.802 110.448L83.265 89.1273C82.349 88.5453 81.325 88.2683 80.314 88.2693C79.303 88.2683 78.279 88.5453 77.363 89.1273L43.826 110.448C41.264 112.076 40.507 115.478 42.135 118.04C43.764 120.602 47.166 121.359 49.727 119.731Z" stroke="black" stroke-width="1.5" stroke-linejoin="round"/>
<path d="M128.32 28.7273C129.893 26.1313 129.063 22.7463 126.467 21.1733L94.495 1.79629C92.795 0.766286 90.671 0.733287 88.941 1.71029C87.21 2.68729 86.14 4.52228 86.144 6.51028L86.194 33.4053C86.198 35.3283 87.206 37.1093 88.852 38.1033L114.249 53.4323C115.991 54.4833 118.17 54.4873 119.916 53.4433L138.3 42.4423L148.601 48.9473V77.3923C148.601 80.4283 151.065 82.8923 154.101 82.8923C157.137 82.8923 159.601 80.4283 159.601 77.3923V45.9153C159.601 44.0283 158.633 42.2723 157.038 41.2653L141.315 31.3363C139.561 30.2293 137.334 30.2023 135.554 31.2673L117.104 42.3073L97.1889 30.2863L97.162 16.2753L120.766 30.5803C123.361 32.1543 126.746 31.3233 128.32 28.7273Z" stroke="black" stroke-width="1.5" stroke-linejoin="round"/>
<path d="M32.281 152.509C30.708 155.105 31.538 158.49 34.134 160.063L66.106 179.44C67.806 180.47 69.929 180.503 71.66 179.526C73.391 178.549 74.46 176.714 74.457 174.726L74.406 147.831C74.403 145.908 73.395 144.127 71.748 143.133L46.351 127.804C44.61 126.753 42.431 126.749 40.685 127.793L22.3 138.794L12 132.289V103.844C12 100.808 9.535 98.3443 6.5 98.3443C3.464 98.3443 1 100.808 1 103.844V135.321C1 137.208 1.96699 138.964 3.56299 139.971L19.286 149.9C21.04 151.007 23.267 151.034 25.047 149.969L43.497 138.929L63.412 150.95L63.438 164.961L39.835 150.656C37.239 149.082 33.854 149.913 32.281 152.509Z" stroke="black" stroke-width="1.5" stroke-linejoin="round"/>
<path d="M507.393 144.897V72.7219H525.767V144.897H507.393Z" stroke="black" stroke-width="1.5" stroke-linejoin="round"/>
<path d="M516.58 64.282C513.275 64.282 510.455 63.2149 508.122 61.0807C505.886 58.9465 504.768 56.1332 504.768 52.6409C504.768 49.1486 505.886 46.3353 508.122 44.2011C510.455 42.0669 513.275 40.9998 516.58 40.9998C519.983 40.9998 522.802 42.0669 525.038 44.2011C527.274 46.3353 528.392 49.1486 528.392 52.6409C528.392 56.1332 527.274 58.9465 525.038 61.0807C522.802 63.2149 519.983 64.282 516.58 64.282Z" stroke="black" stroke-width="1.5" stroke-linejoin="round"/>
<path fill-rule="evenodd" clip-rule="evenodd" d="M232.835 43.037L206.003 144.897H225.835L231.376 122.488H267.833L273.374 144.897H293.206L266.374 43.037H232.835ZM263.312 104.735H235.897L248.292 55.1146H250.917L263.312 104.735Z" stroke="black" stroke-width="1.5" stroke-linejoin="round"/>
<path fill-rule="evenodd" clip-rule="evenodd" d="M300.175 72.7219V174H318.549V136.603H321.173C322.243 138.252 323.652 139.901 325.402 141.55C327.249 143.102 329.631 144.363 332.548 145.333C335.561 146.401 339.256 146.934 343.63 146.934C349.463 146.934 354.859 145.527 359.817 142.714C364.775 139.804 368.761 135.584 371.774 130.054C374.788 124.525 376.295 117.831 376.295 109.974V107.645C376.295 99.7875 374.788 93.0939 371.774 87.5643C368.761 82.0348 364.775 77.8634 359.817 75.0501C354.859 72.1398 349.463 70.6847 343.63 70.6847C337.117 70.6847 332.11 71.8003 328.61 74.0315C325.111 76.1657 322.534 78.6394 320.882 81.4527H318.257V72.7219H300.175ZM352.234 125.544C348.54 129.133 343.825 130.928 338.089 130.928C332.451 130.928 327.736 129.133 323.944 125.544C320.153 121.857 318.257 116.522 318.257 109.537V108.082C318.257 101.097 320.153 95.8101 323.944 92.2208C327.736 88.5344 332.451 86.6912 338.089 86.6912C343.728 86.6912 348.443 88.5344 352.234 92.2208C356.025 95.8101 357.921 101.097 357.921 108.082V109.537C357.921 116.522 356.025 121.857 352.234 125.544Z" stroke="black" stroke-width="1.5" stroke-linejoin="round"/>
<path fill-rule="evenodd" clip-rule="evenodd" d="M387.333 174V72.7219H405.415V81.4527H408.04C409.693 78.6394 412.269 76.1657 415.769 74.0315C419.269 71.8003 424.275 70.6847 430.789 70.6847C436.622 70.6847 442.017 72.1398 446.975 75.0501C451.933 77.8634 455.919 82.0348 458.933 87.5643C461.947 93.0939 463.453 99.7875 463.453 107.645V109.974C463.453 117.831 461.947 124.525 458.933 130.054C455.919 135.584 451.933 139.804 446.975 142.714C442.017 145.527 436.622 146.934 430.789 146.934C426.414 146.934 422.72 146.401 419.706 145.333C416.79 144.363 414.408 143.102 412.561 141.55C410.811 139.901 409.401 138.252 408.332 136.603H405.707V174H387.333ZM425.247 130.928C430.983 130.928 435.698 129.133 439.392 125.544C443.184 121.857 445.08 116.522 445.08 109.537V108.082C445.08 101.097 443.184 95.8101 439.392 92.2208C435.601 88.5344 430.886 86.6912 425.247 86.6912C419.609 86.6912 414.894 88.5344 411.103 92.2208C407.311 95.8101 405.415 101.097 405.415 108.082V109.537C405.415 116.522 407.311 121.857 411.103 125.544C414.894 129.133 419.609 130.928 425.247 130.928Z" stroke="black" stroke-width="1.5" stroke-linejoin="round"/>
<path d="M474.492 43.037V144.897H492.865V43.037H474.492Z" stroke="black" stroke-width="1.5" stroke-linejoin="round"/>
<path fill-rule="evenodd" clip-rule="evenodd" d="M554.148 142.423C559.689 145.43 566.057 146.934 573.251 146.934C579.862 146.934 585.306 145.916 589.583 143.878C593.861 141.744 597.263 139.222 599.791 136.312C602.416 133.304 604.409 130.54 605.77 128.017L590.75 120.16C589.486 122.876 587.639 125.35 585.209 127.581C582.778 129.812 578.987 130.928 573.834 130.928C568.779 130.928 564.502 129.375 561.002 126.271C557.502 123.167 555.655 119.141 555.46 114.193H608.103V107.936C608.103 100.564 606.645 94.1125 603.728 88.5829C600.812 82.9564 596.729 78.5909 591.479 75.4866C586.229 72.2853 580.056 70.6847 572.959 70.6847C565.765 70.6847 559.446 72.2368 554.002 75.3411C548.558 78.3484 544.329 82.6653 541.315 88.2919C538.302 93.8214 536.795 100.37 536.795 107.936V109.682C536.795 117.249 538.302 123.846 541.315 129.472C544.426 135.002 548.704 139.319 554.148 142.423ZM589.437 100.515H555.606C556.287 96.3437 558.085 92.9968 561.002 90.4746C563.918 87.9524 567.855 86.6912 572.814 86.6912C577.577 86.6912 581.417 87.9524 584.334 90.4746C587.347 92.9968 589.049 96.3437 589.437 100.515Z" stroke="black" stroke-width="1.5" stroke-linejoin="round"/>
<path fill-rule="evenodd" clip-rule="evenodd" d="M647.789 146.934C642.053 146.934 636.658 145.527 631.602 142.714C626.644 139.804 622.658 135.584 619.645 130.054C616.631 124.525 615.124 117.831 615.124 109.974V107.645C615.124 99.7875 616.631 93.0939 619.645 87.5643C622.658 82.0348 626.644 77.8634 631.602 75.0501C636.56 72.1398 641.956 70.6847 647.789 70.6847C652.164 70.6847 655.809 71.2182 658.726 72.2853C661.739 73.2554 664.17 74.5165 666.017 76.0687C667.864 77.6208 669.274 79.27 670.246 81.0162H672.871V43.037H691.244V144.897H673.162V136.166H670.537C668.885 138.882 666.308 141.356 662.809 143.587C659.406 145.819 654.399 146.934 647.789 146.934ZM653.33 130.928C658.969 130.928 663.684 129.133 667.475 125.544C671.266 121.857 673.162 116.522 673.162 109.537V108.082C673.162 101.097 671.266 95.8101 667.475 92.2208C663.781 88.5344 659.066 86.6912 653.33 86.6912C647.692 86.6912 642.977 88.5344 639.185 92.2208C635.394 95.8101 633.498 101.097 633.498 108.082V109.537C633.498 116.522 635.394 121.857 639.185 125.544C642.977 129.133 647.692 130.928 653.33 130.928Z" stroke="black" stroke-width="1.5" stroke-linejoin="round"/>
<path d="M741.579 60.4987V144.897H760.828V60.4987H790.576V43.037H711.831V60.4987H741.579Z" stroke="black" stroke-width="1.5" stroke-linejoin="round"/>
<path d="M798.434 144.897V43.037H816.808V81.5982H819.433C820.211 80.0461 821.426 78.4939 823.079 76.9418C824.731 75.3896 826.918 74.1285 829.641 73.1584C832.46 72.0913 836.008 71.5578 840.286 71.5578C845.924 71.5578 850.834 72.8674 855.014 75.4866C859.292 78.0089 862.597 81.5497 864.93 86.1092C867.263 90.5716 868.43 95.8101 868.43 101.825V144.897H850.056V103.28C850.056 97.8473 848.695 93.7729 845.973 91.0567C843.348 88.3404 839.557 86.9823 834.599 86.9823C828.96 86.9823 824.585 88.8739 821.474 92.6573C818.363 96.3437 816.808 101.534 816.808 108.227V144.897H798.434Z" stroke="black" stroke-width="1.5" stroke-linejoin="round"/>
<path fill-rule="evenodd" clip-rule="evenodd" d="M897.48 142.569C903.215 145.479 909.68 146.934 916.874 146.934C924.068 146.934 930.533 145.479 936.269 142.569C942.005 139.658 946.525 135.438 949.83 129.909C953.136 124.379 954.789 117.734 954.789 109.974V107.645C954.789 99.8845 953.136 93.2394 949.83 87.7098C946.525 82.1803 942.005 77.9604 936.269 75.0501C930.533 72.1398 924.068 70.6847 916.874 70.6847C909.68 70.6847 903.215 72.1398 897.48 75.0501C891.744 77.9604 887.223 82.1803 883.918 87.7098C880.613 93.2394 878.96 99.8845 878.96 107.645V109.974C878.96 117.734 880.613 124.379 883.918 129.909C887.223 135.438 891.744 139.658 897.48 142.569ZM930.873 125.253C927.179 128.842 922.513 130.637 916.874 130.637C911.236 130.637 906.569 128.842 902.875 125.253C899.181 121.566 897.334 116.328 897.334 109.537V108.082C897.334 101.291 899.181 96.1012 902.875 92.5118C906.569 88.8254 911.236 86.9823 916.874 86.9823C922.61 86.9823 927.276 88.8254 930.873 92.5118C934.567 96.1012 936.415 101.291 936.415 108.082V109.537C936.415 116.328 934.567 121.566 930.873 125.253Z" stroke="black" stroke-width="1.5" stroke-linejoin="round"/>
<path d="M993.476 146.061C987.838 146.061 982.88 144.8 978.602 142.278C974.422 139.658 971.165 136.069 968.832 131.51C966.499 126.95 965.332 121.712 965.332 115.794V72.7219H983.706V114.339C983.706 119.771 985.018 123.846 987.643 126.562C990.365 129.278 994.206 130.637 999.164 130.637C1004.8 130.637 1009.18 128.793 1012.29 125.107C1015.4 121.324 1016.95 116.085 1016.95 109.391V72.7219H1035.33V144.897H1017.25V135.438H1014.62C1013.45 137.864 1011.27 140.24 1008.06 142.569C1004.85 144.897 999.99 146.061 993.476 146.061Z" stroke="black" stroke-width="1.5" stroke-linejoin="round"/>
<path fill-rule="evenodd" clip-rule="evenodd" d="M1050.96 87.4188C1047.95 92.7543 1046.44 99.2055 1046.44 106.772V109.1C1046.44 116.667 1047.95 123.167 1050.96 128.599C1053.98 133.935 1057.96 138.058 1062.92 140.968C1067.97 143.781 1073.47 145.188 1079.4 145.188C1083.87 145.188 1087.56 144.654 1090.48 143.587C1093.4 142.52 1095.73 141.211 1097.48 139.658C1099.23 138.009 1100.59 136.409 1101.56 134.856H1104.19V153.628C1104.19 156.538 1102.83 157.993 1100.1 157.993H1058.11V174H1106.52C1111.38 174 1115.27 172.496 1118.19 169.489C1121.1 166.579 1122.56 162.65 1122.56 157.702V72.7219H1104.48V81.4527H1101.85C1100.3 78.9305 1097.82 76.5052 1094.42 74.177C1091.01 71.8488 1086.01 70.6847 1079.4 70.6847C1073.47 70.6847 1067.97 72.1398 1062.92 75.0501C1057.96 77.8634 1053.98 81.9863 1050.96 87.4188ZM1098.79 123.797C1095 127.387 1090.29 129.181 1084.65 129.181C1079.01 129.181 1074.29 127.387 1070.5 123.797C1066.71 120.208 1064.82 115.164 1064.82 108.664V107.209C1064.82 100.612 1066.71 95.5676 1070.5 92.0753C1074.29 88.4859 1079.01 86.6912 1084.65 86.6912C1090.38 86.6912 1095.1 88.4859 1098.79 92.0753C1102.58 95.5676 1104.48 100.612 1104.48 107.209V108.664C1104.48 115.164 1102.58 120.208 1098.79 123.797Z" stroke="black" stroke-width="1.5" stroke-linejoin="round"/>
<path d="M1137.1 144.897V43.037H1155.47V81.5982H1158.1C1158.88 80.0461 1160.09 78.4939 1161.74 76.9418C1163.4 75.3896 1165.58 74.1285 1168.31 73.1584C1171.12 72.0913 1174.67 71.5578 1178.95 71.5578C1184.59 71.5578 1189.5 72.8674 1193.68 75.4866C1197.96 78.0089 1201.26 81.5497 1203.6 86.1092C1205.93 90.5716 1207.1 95.8101 1207.1 101.825V144.897H1188.72V103.28C1188.72 97.8473 1187.36 93.7729 1184.64 91.0567C1182.01 88.3404 1178.22 86.9823 1173.26 86.9823C1167.63 86.9823 1163.25 88.8739 1160.14 92.6573C1157.03 96.3437 1155.47 101.534 1155.47 108.227V144.897H1137.1Z" stroke="black" stroke-width="1.5" stroke-linejoin="round"/>
<path d="M1235.17 140.531C1238.19 143.442 1242.07 144.897 1246.84 144.897H1267.25V129.763H1253.25C1250.53 129.763 1249.17 128.308 1249.17 125.398V87.8553H1269V72.7219H1249.17V50.3127H1230.8V72.7219H1212.71V87.8553H1230.8V128.599C1230.8 133.547 1232.26 137.524 1235.17 140.531Z" stroke="black" stroke-width="1.5" stroke-linejoin="round"/>
</svg>
