<svg width="25" height="24" viewBox="0 0 25 24" fill="none" xmlns="http://www.w3.org/2000/svg">
<path d="M12.3333 10.5V7M12.3333 14H12.3433M7.33325 18V20.3355C7.33325 20.8684 7.33325 21.1348 7.44248 21.2716C7.53747 21.3906 7.68152 21.4599 7.83379 21.4597C8.00888 21.4595 8.21692 21.2931 8.63301 20.9602L11.0185 19.0518C11.5058 18.662 11.7494 18.4671 12.0207 18.3285C12.2615 18.2055 12.5177 18.1156 12.7825 18.0613C13.0809 18 13.3929 18 14.017 18H16.5333C18.2134 18 19.0535 18 19.6952 17.673C20.2597 17.3854 20.7187 16.9265 21.0063 16.362C21.3333 15.7202 21.3333 14.8802 21.3333 13.2V7.8C21.3333 6.11984 21.3333 5.27976 21.0063 4.63803C20.7187 4.07354 20.2597 3.6146 19.6952 3.32698C19.0535 3 18.2134 3 16.5333 3H8.13325C6.45309 3 5.61302 3 4.97128 3.32698C4.40679 3.6146 3.94785 4.07354 3.66023 4.63803C3.33325 5.27976 3.33325 6.11984 3.33325 7.8V14C3.33325 14.93 3.33325 15.395 3.43547 15.7765C3.71288 16.8117 4.52152 17.6204 5.55679 17.8978C5.93829 18 6.40328 18 7.33325 18Z" stroke="black" stroke-width="2" stroke-linecap="round" stroke-linejoin="round"/>
</svg>
