<svg width="56" height="56" viewBox="0 0 56 56" fill="none" xmlns="http://www.w3.org/2000/svg">
<rect width="56" height="56" rx="12" fill="url(#paint0_linear_65_214)"/>
<path d="M28 14C20.268 14 14 20.268 14 28C14 35.732 20.268 42 28 42C35.732 42 42 35.732 42 28C42 20.268 35.732 14 28 14ZM28 16C34.617 16 40 21.383 40 28C40 34.617 34.617 40 28 40C21.383 40 16 34.617 16 28C16 21.383 21.383 16 28 16Z" fill="url(#paint1_linear_65_214)"/>
<path d="M29 28C29 28.551 28.551 29 28 29C27.449 29 27 28.551 27 28C27 27.449 27.449 27 28 27C28.551 27 29 27.449 29 28ZM35 22.414L33.586 21L29.286 25.3C28.895 25.113 28.462 25 28 25C26.343 25 25 26.343 25 28C25 28.462 25.113 28.895 25.3 29.286L21 33.586L22.414 35L26.714 30.7C27.105 30.887 27.538 31 28 31C29.657 31 31 29.657 31 28C31 27.538 30.887 27.105 30.7 26.714L35 22.414Z" fill="url(#paint2_linear_65_214)"/>
<path d="M29.5 19.5C29.5 20.328 28.828 21 28 21C27.172 21 26.5 20.328 26.5 19.5C26.5 18.672 27.172 18 28 18C28.828 18 29.5 18.672 29.5 19.5Z" fill="url(#paint3_linear_65_214)"/>
<defs>
<linearGradient id="paint0_linear_65_214" x1="0" y1="0" x2="48.5728" y2="-5.83433" gradientUnits="userSpaceOnUse">
<stop stop-color="#000D26"/>
<stop offset="1" stop-color="#5C6880"/>
</linearGradient>
<linearGradient id="paint1_linear_65_214" x1="28" y1="14" x2="28" y2="42" gradientUnits="userSpaceOnUse">
<stop stop-color="#FFFEFC"/>
<stop offset="1" stop-color="#E6E8EB"/>
</linearGradient>
<linearGradient id="paint2_linear_65_214" x1="28" y1="21" x2="28" y2="35" gradientUnits="userSpaceOnUse">
<stop stop-color="#FFFEFC"/>
<stop offset="1" stop-color="#E6E8EB"/>
</linearGradient>
<linearGradient id="paint3_linear_65_214" x1="29.5" y1="19.5" x2="26.5" y2="19.5" gradientUnits="userSpaceOnUse">
<stop stop-color="#FFFEFC"/>
<stop offset="1" stop-color="#E6E8EB"/>
</linearGradient>
</defs>
</svg>
