<svg width="25" height="24" viewBox="0 0 25 24" fill="none" xmlns="http://www.w3.org/2000/svg">
<path d="M15.6667 2V3.4C15.6667 3.96005 15.6667 4.24008 15.5578 4.45399C15.4619 4.64215 15.3089 4.79513 15.1207 4.89101C14.9068 5 14.6268 5 14.0667 5H11.2667C10.7067 5 10.4267 5 10.2128 4.89101C10.0246 4.79513 9.87161 4.64215 9.77574 4.45399C9.66675 4.24008 9.66675 3.96005 9.66675 3.4V2M8.86675 22H16.4667C17.5869 22 18.1469 22 18.5747 21.782C18.9511 21.5903 19.257 21.2843 19.4488 20.908C19.6667 20.4802 19.6667 19.9201 19.6667 18.8V5.2C19.6667 4.07989 19.6667 3.51984 19.4488 3.09202C19.257 2.71569 18.9511 2.40973 18.5747 2.21799C18.1469 2 17.5869 2 16.4667 2H8.86675C7.74664 2 7.18659 2 6.75877 2.21799C6.38244 2.40973 6.07648 2.71569 5.88474 3.09202C5.66675 3.51984 5.66675 4.0799 5.66675 5.2V18.8C5.66675 19.9201 5.66675 20.4802 5.88474 20.908C6.07648 21.2843 6.38244 21.5903 6.75877 21.782C7.18659 22 7.74664 22 8.86675 22Z" stroke="#000D26" stroke-width="2" stroke-linecap="round" stroke-linejoin="round"/>
</svg>
