<svg width="25" height="24" viewBox="0 0 25 24" fill="none" xmlns="http://www.w3.org/2000/svg">
<path d="M18.4107 2.81249C19.3755 1.81601 20.9695 1.80312 21.9503 2.78387C22.9041 3.73775 22.9219 5.27872 21.9903 6.25432L19.2116 9.16409C18.9938 9.39216 18.8849 9.50619 18.8178 9.63975C18.7584 9.75799 18.723 9.88683 18.7138 10.0188C18.7033 10.1679 18.7388 10.3216 18.8097 10.6289L20.5376 18.1164C20.6104 18.4318 20.6468 18.5895 20.635 18.7421C20.6246 18.8771 20.5869 19.0086 20.5242 19.1286C20.4533 19.2642 20.3388 19.3787 20.11 19.6076L19.7392 19.9783C19.133 20.5845 18.83 20.8875 18.5198 20.9424C18.2489 20.9903 17.9703 20.9245 17.7494 20.7606C17.4965 20.5728 17.361 20.1661 17.0899 19.3529L15.0802 13.3236L11.7348 16.669C11.5352 16.8687 11.4353 16.9685 11.3685 17.0861C11.3094 17.1902 11.2694 17.3042 11.2505 17.4225C11.2292 17.556 11.2448 17.6964 11.276 17.977L11.4597 19.6304C11.4909 19.9111 11.5065 20.0514 11.4852 20.185C11.4663 20.3033 11.4263 20.4172 11.3672 20.5214C11.3004 20.6389 11.2005 20.7388 11.0009 20.9385L10.8034 21.136C10.3303 21.609 10.0938 21.8456 9.83092 21.9141C9.60037 21.9742 9.35595 21.95 9.14166 21.8458C8.89735 21.7271 8.7118 21.4488 8.3407 20.8921L6.77238 18.5396C6.70608 18.4402 6.67293 18.3905 6.63445 18.3454C6.60026 18.3053 6.56296 18.268 6.5229 18.2338C6.4778 18.1953 6.42807 18.1622 6.32862 18.0959L3.97614 16.5276C3.41949 16.1565 3.14117 15.9709 3.02245 15.7266C2.91832 15.5123 2.89411 15.2679 2.9542 15.0374C3.0227 14.7745 3.25923 14.538 3.73229 14.0649L3.92979 13.8674C4.12948 13.6677 4.22932 13.5679 4.3469 13.5011C4.45106 13.4419 4.56501 13.402 4.68331 13.3831C4.81685 13.3618 4.95718 13.3774 5.23785 13.4086L6.89124 13.5923C7.17191 13.6235 7.31225 13.6391 7.44579 13.6178C7.56409 13.5989 7.67803 13.5589 7.7822 13.4997C7.89977 13.433 7.99962 13.3331 8.1993 13.1334L11.5446 9.78811L5.51535 7.77835C4.70212 7.50727 4.2955 7.37174 4.10771 7.11883C3.94373 6.89799 3.87795 6.61935 3.92586 6.34849C3.98072 6.0383 4.2838 5.73523 4.88994 5.12909L5.26071 4.75831C5.48961 4.52942 5.60405 4.41497 5.73965 4.34408C5.85966 4.28134 5.99116 4.24362 6.12618 4.23323C6.27874 4.22148 6.43644 4.25787 6.75186 4.33066L14.211 6.052C14.5209 6.12353 14.6759 6.15929 14.8256 6.14865C14.97 6.13838 15.1105 6.09685 15.2374 6.02693C15.3687 5.95452 15.4794 5.84025 15.7006 5.61171L18.4107 2.81249Z" stroke="white" stroke-width="2" stroke-linecap="round" stroke-linejoin="round"/>
</svg>
