<svg width="20" height="20" viewBox="0 0 20 20" fill="none" xmlns="http://www.w3.org/2000/svg">
<path d="M0 10C0 9.63185 0.299486 9.33584 0.666761 9.30992C5.29 8.98359 8.98356 5.29001 9.30989 0.666764C9.33581 0.299483 9.6318 0 10 0C10.3682 0 10.6642 0.299483 10.6901 0.666764C11.0164 5.29001 14.71 8.98359 19.3332 9.30992C19.7005 9.33584 20 9.63185 20 10C20 10.3682 19.7005 10.6642 19.3332 10.6902C14.71 11.0165 11.0164 14.7101 10.6901 19.3332C10.6642 19.7005 10.3682 20 10 20C9.6318 20 9.33581 19.7005 9.30989 19.3332C8.98356 14.7101 5.29 11.0165 0.666761 10.6902C0.299486 10.6642 0 10.3682 0 10Z" fill="#97D5FC"/>
</svg>
