<svg width="383" height="328" viewBox="0 0 383 328" fill="none" xmlns="http://www.w3.org/2000/svg">
<circle cx="205" cy="164" r="163.5" stroke="#C1C5CD" stroke-opacity="0.8"/>
<circle cx="205" cy="164" r="125.5" stroke="#C1C5CD" stroke-opacity="0.4"/>
<g filter="url(#filter0_dd_464_5905)">
<g clip-path="url(#clip0_464_5905)">
<path d="M124.84 65.555C124.446 58.9393 129.49 53.2569 136.106 52.863L259.887 45.4932C266.502 45.0993 272.185 50.1431 272.579 56.7588L284.822 262.395C285.216 269.01 280.172 274.693 273.556 275.087L149.775 282.456C143.16 282.85 137.477 277.807 137.083 271.191L124.84 65.555Z" fill="white"/>
<rect width="148" height="132" transform="translate(124.127 53.5762) rotate(-3.4073)" fill="#FFD601"/>
<g filter="url(#filter1_d_464_5905)">
<rect x="178.745" y="62.3457" width="40" height="8" rx="4" transform="rotate(-3.4073 178.745 62.3457)" fill="#152647"/>
</g>
<path d="M201.431 106.798C195.132 107.173 190.327 112.586 190.702 118.886C191.077 125.186 196.49 129.99 202.79 129.615C209.09 129.24 213.894 123.827 213.519 117.528C213.144 111.228 207.731 106.423 201.431 106.798Z" fill="#000D26"/>
<path d="M221.961 144.324C221.498 138.119 216.133 133.392 209.902 133.763L196.212 134.578C189.978 134.949 185.212 140.279 185.488 146.496C179.593 141.811 175.615 134.765 175.133 126.674C174.234 111.578 185.785 98.5623 200.883 97.6634C215.979 96.7647 228.995 108.318 229.893 123.413C230.375 131.504 227.259 138.973 221.961 144.324ZM200.611 93.1001C182.997 94.1488 169.521 109.331 170.57 126.945C171.619 144.56 186.801 158.036 204.415 156.987C222.027 155.938 235.505 140.756 234.457 123.142C233.408 105.527 218.224 92.0515 200.611 93.1001Z" fill="#000D26"/>
<path d="M171.052 238.113L170.943 236.293L172.796 236.182C173.446 236.144 174.028 235.97 174.544 235.662C175.06 235.353 175.457 234.891 175.736 234.276C176.02 233.661 176.134 232.877 176.077 231.924C176.018 230.928 175.814 230.15 175.465 229.588C175.116 229.021 174.668 228.628 174.12 228.41C173.573 228.186 172.969 228.094 172.309 228.133L170.4 228.247L170.297 226.506L172.253 226.389C173.323 226.326 174.278 226.472 175.116 226.828C175.96 227.184 176.639 227.771 177.153 228.59C177.671 229.403 177.97 230.47 178.048 231.79C178.125 233.079 177.947 234.174 177.515 235.076C177.082 235.978 176.469 236.677 175.676 237.173C174.882 237.664 173.977 237.939 172.96 238L171.052 238.113ZM169.399 238.212L168.707 226.6L170.616 226.487L171.307 238.098L169.399 238.212ZM180.136 237.573L179.617 228.852L181.23 228.756L181.638 232.106L181.442 231.652C181.459 231.299 181.507 230.938 181.586 230.57C181.671 230.202 181.8 229.86 181.974 229.545C182.153 229.23 182.389 228.973 182.681 228.774C182.979 228.569 183.349 228.454 183.791 228.427C183.897 228.421 184.004 228.42 184.111 228.424C184.218 228.428 184.318 228.441 184.41 228.462L184.53 230.475C184.345 230.427 184.149 230.401 183.94 230.398C183.737 230.389 183.55 230.389 183.379 230.399C183.172 230.412 182.951 230.467 182.716 230.567C182.481 230.661 182.268 230.797 182.075 230.974C181.883 231.151 181.748 231.364 181.672 231.615L182.02 237.46L180.136 237.573ZM189.738 237.121C188.897 237.171 188.158 237.044 187.52 236.74C186.887 236.431 186.385 235.95 186.015 235.299C185.645 234.648 185.431 233.835 185.373 232.861C185.317 231.913 185.442 231.094 185.748 230.402C186.059 229.705 186.51 229.163 187.102 228.775C187.693 228.382 188.385 228.162 189.178 228.114C189.961 228.068 190.638 228.182 191.21 228.458C191.787 228.734 192.241 229.166 192.569 229.756C192.898 230.34 193.089 231.071 193.141 231.95C193.151 232.12 193.154 232.261 193.15 232.374C193.151 232.486 193.151 232.62 193.15 232.775L187.272 233.125C187.373 234.011 187.63 234.653 188.044 235.05C188.457 235.442 188.946 235.622 189.511 235.588C190.038 235.557 190.433 235.421 190.697 235.181C190.965 234.935 191.131 234.669 191.194 234.382L193.015 234.273C193 234.835 192.853 235.325 192.573 235.742C192.293 236.154 191.909 236.479 191.421 236.716C190.938 236.948 190.377 237.083 189.738 237.121ZM188.058 231.788L191.237 231.598C191.183 230.96 190.999 230.477 190.685 230.148C190.372 229.815 189.879 229.668 189.209 229.707C188.511 229.749 188.006 230.014 187.693 230.503C187.38 230.986 187.227 231.639 187.233 232.462C187.261 232.22 187.342 232.052 187.475 231.958C187.608 231.86 187.803 231.803 188.058 231.788ZM197.45 236.638C196.918 236.67 196.441 236.599 196.019 236.427C195.597 236.249 195.259 235.988 195.003 235.646C194.753 235.303 194.614 234.897 194.586 234.428C194.555 233.912 194.623 233.48 194.789 233.134C194.956 232.787 195.209 232.505 195.548 232.287C195.893 232.064 196.302 231.884 196.775 231.749C197.111 231.655 197.467 231.572 197.842 231.502C198.222 231.431 198.574 231.372 198.897 231.326C199.22 231.275 199.469 231.239 199.644 231.218L199.623 230.867C199.588 230.276 199.442 229.841 199.185 229.562C198.933 229.278 198.525 229.153 197.96 229.186C197.598 229.208 197.298 229.271 197.058 229.376C196.818 229.476 196.642 229.652 196.529 229.905C196.42 230.152 196.375 230.507 196.392 230.971L194.675 231.073C194.571 230.326 194.641 229.705 194.884 229.209C195.132 228.708 195.521 228.327 196.05 228.066C196.585 227.799 197.225 227.643 197.97 227.599C198.412 227.573 198.83 227.599 199.225 227.677C199.625 227.749 199.983 227.896 200.301 228.117C200.618 228.334 200.877 228.641 201.077 229.041C201.277 229.44 201.396 229.954 201.434 230.582L201.773 236.284L199.928 236.394L199.836 234.436C199.77 235.033 199.543 235.538 199.157 235.951C198.77 236.364 198.201 236.593 197.45 236.638ZM197.869 235.186C198.146 235.17 198.422 235.105 198.699 234.993C198.981 234.88 199.223 234.727 199.425 234.533C199.632 234.339 199.758 234.118 199.802 233.869L199.707 232.272C199.495 232.306 199.245 232.358 198.955 232.429C198.671 232.499 198.426 232.562 198.221 232.617C197.632 232.775 197.21 232.963 196.956 233.181C196.707 233.394 196.595 233.705 196.619 234.115C196.633 234.349 196.698 234.551 196.815 234.72C196.937 234.884 197.091 235.006 197.278 235.085C197.464 235.165 197.661 235.199 197.869 235.186ZM204.093 236.146L203.574 227.426L205.195 227.329L205.599 230.607L205.424 229.952C205.459 229.469 205.557 229.009 205.718 228.572C205.879 228.13 206.14 227.764 206.502 227.476C206.864 227.187 207.36 227.024 207.988 226.987C208.685 226.945 209.259 227.111 209.709 227.485C210.163 227.853 210.466 228.445 210.616 229.258L210.663 229.384L211.041 235.733L209.148 235.845L208.844 230.726C208.814 230.226 208.742 229.827 208.628 229.529C208.514 229.231 208.349 229.022 208.134 228.901C207.923 228.775 207.65 228.722 207.315 228.742C206.921 228.765 206.571 228.903 206.266 229.157C205.96 229.405 205.747 229.679 205.626 229.98L205.986 236.034L204.093 236.146ZM214.203 235.544L213.899 230.425C213.869 229.925 213.797 229.526 213.683 229.228C213.569 228.93 213.405 228.721 213.189 228.6C212.978 228.474 212.705 228.421 212.37 228.441C211.976 228.464 211.626 228.602 211.321 228.856C211.015 229.104 210.802 229.378 210.681 229.679L210.702 230.303L210.543 229.792C210.568 229.315 210.655 228.847 210.804 228.39C210.958 227.926 211.213 227.537 211.568 227.222C211.923 226.902 212.415 226.723 213.043 226.686C213.831 226.639 214.464 226.86 214.942 227.35C215.419 227.834 215.69 228.604 215.752 229.658L216.096 235.432L214.203 235.544ZM224.805 235.073C223.953 235.124 223.207 235.032 222.568 234.798C221.929 234.563 221.42 234.185 221.042 233.662C220.663 233.135 220.441 232.459 220.376 231.634L222.197 231.526C222.245 231.972 222.377 232.341 222.592 232.633C222.812 232.924 223.108 233.133 223.479 233.261C223.855 233.388 224.301 233.436 224.818 233.406C225.313 233.376 225.714 233.294 226.021 233.158C226.328 233.022 226.55 232.843 226.686 232.621C226.822 232.394 226.882 232.134 226.864 231.841C226.845 231.522 226.739 231.258 226.545 231.051C226.35 230.838 226.05 230.647 225.645 230.479C225.245 230.305 224.716 230.126 224.058 229.941C223.379 229.751 222.78 229.507 222.259 229.206C221.745 228.906 221.335 228.537 221.032 228.101C220.733 227.66 220.565 227.133 220.529 226.52C220.467 225.488 220.758 224.679 221.402 224.096C222.046 223.513 222.956 223.186 224.133 223.116C224.947 223.068 225.615 223.153 226.136 223.374C226.656 223.594 227.059 223.941 227.344 224.416C227.633 224.885 227.842 225.476 227.97 226.19L226.141 226.298C226.072 225.934 225.955 225.636 225.792 225.406C225.628 225.175 225.413 225.009 225.145 224.907C224.882 224.8 224.556 224.758 224.168 224.781C223.566 224.817 223.11 224.967 222.8 225.231C222.49 225.49 222.349 225.859 222.377 226.338C222.393 226.61 222.459 226.854 222.573 227.072C222.693 227.289 222.922 227.497 223.259 227.696C223.603 227.895 224.112 228.105 224.788 228.326C225.311 228.498 225.801 228.664 226.26 228.824C226.723 228.978 227.132 229.165 227.487 229.384C227.848 229.603 228.137 229.885 228.355 230.23C228.573 230.575 228.701 231.021 228.739 231.569C228.813 232.623 228.515 233.45 227.845 234.051C227.181 234.651 226.168 234.992 224.805 235.073ZM232.271 234.468L232.163 232.648L234.016 232.537C234.665 232.499 235.248 232.325 235.764 232.017C236.28 231.708 236.677 231.246 236.956 230.631C237.24 230.016 237.353 229.232 237.296 228.279C237.237 227.283 237.033 226.505 236.685 225.943C236.336 225.376 235.887 224.983 235.34 224.765C234.793 224.541 234.189 224.449 233.529 224.488L231.62 224.602L231.516 222.861L233.473 222.744C234.543 222.681 235.497 222.827 236.336 223.183C237.18 223.539 237.859 224.126 238.372 224.945C238.891 225.758 239.189 226.825 239.268 228.145C239.345 229.434 239.167 230.529 238.734 231.431C238.302 232.333 237.689 233.032 236.896 233.528C236.102 234.019 235.197 234.294 234.18 234.355L232.271 234.468ZM230.618 234.567L229.927 222.955L231.836 222.842L232.527 234.453L230.618 234.567ZM247.608 233.555L244.597 229.151L242.848 229.255L242.306 229.167L242.461 227.875L242.446 227.62L244.355 227.506C244.829 227.478 245.202 227.378 245.475 227.207C245.748 227.036 245.937 226.803 246.042 226.508C246.153 226.213 246.197 225.866 246.173 225.466C246.145 225.003 246.039 224.657 245.854 224.427C245.675 224.192 245.439 224.038 245.146 223.965C244.853 223.891 244.528 223.865 244.171 223.887L242.678 223.967L242.587 223.532L241.886 222.243C242.131 222.229 242.367 222.215 242.596 222.201C242.825 222.188 243.065 222.173 243.315 222.158C243.571 222.143 243.855 222.126 244.17 222.107C244.91 222.063 245.566 222.142 246.139 222.343C246.712 222.539 247.17 222.872 247.513 223.343C247.856 223.809 248.05 224.425 248.096 225.192C248.126 225.703 248.06 226.206 247.897 226.702C247.739 227.192 247.474 227.625 247.101 228C246.728 228.369 246.236 228.634 245.626 228.793L245.499 228.68C245.728 228.667 245.918 228.674 246.069 228.702C246.22 228.725 246.363 228.792 246.497 228.901C246.632 229.011 246.784 229.181 246.953 229.411L249.9 233.419L247.608 233.555ZM241.443 233.922L240.752 222.311L242.62 222.2L243.312 233.811L241.443 233.922Z" fill="black"/>
</g>
<path d="M136.135 53.3621L259.916 45.9923C266.256 45.6148 271.702 50.4485 272.079 56.7885L284.323 262.424C284.7 268.764 279.867 274.21 273.527 274.588L149.746 281.957C143.406 282.335 137.96 277.501 137.583 271.161L125.339 65.5252C124.962 59.1852 129.795 53.7396 136.135 53.3621Z" stroke="#E6E8EB"/>
</g>
<g filter="url(#filter2_f_464_5905)">
<path d="M189.5 65.5L194 50.5L186.5 51L189.5 65.5Z" fill="#000D26" fill-opacity="0.1"/>
</g>
<path d="M187.585 25.7556C187.454 23.5504 189.135 21.6563 191.341 21.525L202.321 20.8712C204.526 20.7399 206.421 22.4212 206.552 24.6264L209.167 68.5486L190.2 69.6778L187.585 25.7556Z" fill="url(#paint0_linear_464_5905)"/>
<rect x="242" y="150" width="141" height="33" rx="12" fill="white"/>
<rect x="242" y="150" width="141" height="33" rx="12" fill="#F67E7D" fill-opacity="0.5"/>
<path d="M261.625 168.528C261.48 168.528 261.336 168.477 261.191 168.374C261.046 168.271 260.972 168.122 260.967 167.926L260.498 167.443L260.988 167.051H262.773C263.184 167.051 263.524 166.983 263.795 166.848C264.07 166.708 264.276 166.496 264.411 166.211C264.551 165.926 264.621 165.565 264.621 165.126C264.621 164.431 264.446 163.959 264.096 163.712C263.751 163.46 263.272 163.334 262.661 163.334H260.946L260.344 161.822C260.559 161.822 260.813 161.822 261.107 161.822C261.406 161.822 261.69 161.822 261.961 161.822C262.232 161.822 262.435 161.822 262.57 161.822C263.816 161.822 264.749 162.079 265.37 162.592C265.991 163.101 266.301 163.931 266.301 165.084C266.301 165.523 266.238 165.947 266.112 166.358C265.991 166.764 265.79 167.13 265.51 167.457C265.23 167.784 264.852 168.045 264.376 168.241C263.9 168.432 263.312 168.528 262.612 168.528H261.625ZM259.336 172V161.822H260.988V172H259.336ZM270.664 172.105C269.927 172.105 269.288 171.956 268.746 171.657C268.21 171.354 267.797 170.908 267.507 170.32C267.218 169.732 267.073 169.011 267.073 168.157C267.073 167.326 267.225 166.617 267.528 166.029C267.836 165.436 268.259 164.986 268.795 164.678C269.332 164.365 269.948 164.209 270.643 164.209C271.329 164.209 271.915 164.344 272.4 164.615C272.89 164.886 273.264 165.287 273.52 165.819C273.777 166.346 273.905 166.995 273.905 167.765C273.905 167.914 273.901 168.038 273.891 168.136C273.887 168.234 273.88 168.351 273.87 168.486H268.718C268.76 169.265 268.952 169.839 269.292 170.208C269.633 170.572 270.051 170.754 270.545 170.754C271.007 170.754 271.36 170.656 271.602 170.46C271.85 170.259 272.008 170.035 272.078 169.788H273.674C273.632 170.278 273.478 170.698 273.212 171.048C272.946 171.393 272.594 171.657 272.155 171.839C271.721 172.016 271.224 172.105 270.664 172.105ZM269.474 167.359H272.26C272.246 166.799 272.111 166.367 271.854 166.064C271.598 165.756 271.175 165.602 270.587 165.602C269.976 165.602 269.521 165.807 269.222 166.218C268.924 166.624 268.756 167.186 268.718 167.905C268.756 167.695 268.835 167.553 268.956 167.478C269.078 167.399 269.25 167.359 269.474 167.359ZM275.392 172V164.356H276.806L276.988 167.303L276.841 166.897C276.874 166.589 276.934 166.276 277.023 165.959C277.116 165.642 277.247 165.35 277.415 165.084C277.588 164.818 277.807 164.606 278.073 164.447C278.344 164.284 278.673 164.202 279.06 164.202C279.153 164.202 279.247 164.207 279.34 164.216C279.433 164.225 279.52 164.242 279.599 164.265V166.029C279.44 165.978 279.27 165.945 279.088 165.931C278.911 165.912 278.747 165.903 278.598 165.903C278.416 165.903 278.22 165.94 278.01 166.015C277.8 166.085 277.606 166.192 277.429 166.337C277.252 166.482 277.123 166.661 277.044 166.876V172H275.392ZM283.403 172.119C282.829 172.119 282.315 172.035 281.863 171.867C281.415 171.699 281.058 171.44 280.792 171.09C280.53 170.735 280.386 170.283 280.358 169.732H281.954C282.014 170.124 282.171 170.402 282.423 170.565C282.679 170.728 282.994 170.81 283.368 170.81C283.638 170.81 283.879 170.784 284.089 170.733C284.303 170.677 284.471 170.586 284.593 170.46C284.719 170.329 284.782 170.154 284.782 169.935C284.782 169.781 284.747 169.655 284.677 169.557C284.611 169.454 284.509 169.366 284.369 169.291C284.233 169.216 284.061 169.146 283.851 169.081C283.645 169.016 283.407 168.943 283.137 168.864C282.651 168.724 282.21 168.558 281.814 168.367C281.417 168.176 281.102 167.926 280.869 167.618C280.635 167.305 280.519 166.899 280.519 166.4C280.519 165.719 280.771 165.187 281.275 164.804C281.779 164.417 282.427 164.223 283.221 164.223C283.734 164.223 284.196 164.298 284.607 164.447C285.022 164.592 285.363 164.834 285.629 165.175C285.895 165.511 286.067 165.968 286.147 166.547L284.551 166.54C284.481 166.269 284.378 166.062 284.243 165.917C284.107 165.768 283.951 165.665 283.774 165.609C283.601 165.548 283.412 165.518 283.207 165.518C282.983 165.518 282.789 165.553 282.626 165.623C282.462 165.693 282.336 165.791 282.248 165.917C282.159 166.043 282.115 166.195 282.115 166.372C282.115 166.577 282.173 166.75 282.29 166.89C282.411 167.025 282.591 167.144 282.829 167.247C283.071 167.345 283.372 167.448 283.732 167.555C284.021 167.639 284.32 167.732 284.628 167.835C284.936 167.933 285.223 168.059 285.489 168.213C285.755 168.367 285.969 168.572 286.133 168.829C286.296 169.081 286.378 169.41 286.378 169.816C286.378 170.539 286.105 171.104 285.559 171.51C285.017 171.916 284.299 172.119 283.403 172.119ZM291 172.105C290.295 172.105 289.682 171.953 289.159 171.65C288.636 171.347 288.23 170.901 287.941 170.313C287.652 169.72 287.507 168.995 287.507 168.136C287.507 167.324 287.659 166.624 287.962 166.036C288.27 165.448 288.69 164.998 289.222 164.685C289.754 164.368 290.356 164.209 291.028 164.209C291.756 164.209 292.379 164.368 292.897 164.685C293.42 164.998 293.821 165.448 294.101 166.036C294.381 166.624 294.521 167.324 294.521 168.136C294.521 168.995 294.365 169.72 294.052 170.313C293.744 170.901 293.324 171.347 292.792 171.65C292.26 171.953 291.663 172.105 291 172.105ZM291.028 170.698C291.565 170.698 292.003 170.497 292.344 170.096C292.685 169.695 292.855 169.041 292.855 168.136C292.855 167.296 292.689 166.666 292.358 166.246C292.027 165.826 291.574 165.616 291 165.616C290.463 165.616 290.025 165.824 289.684 166.239C289.348 166.654 289.18 167.287 289.18 168.136C289.18 168.999 289.35 169.643 289.691 170.068C290.036 170.488 290.482 170.698 291.028 170.698ZM296.132 172V164.356H297.546L297.728 167.24L297.609 166.659C297.665 166.239 297.775 165.842 297.938 165.469C298.106 165.091 298.356 164.785 298.687 164.552C299.019 164.319 299.462 164.202 300.017 164.202C300.741 164.202 301.301 164.428 301.697 164.881C302.094 165.329 302.292 166.015 302.292 166.939V172H300.64V167.513C300.64 167.074 300.596 166.722 300.507 166.456C300.423 166.19 300.286 165.999 300.094 165.882C299.903 165.761 299.649 165.7 299.331 165.7C298.986 165.7 298.671 165.803 298.386 166.008C298.106 166.209 297.906 166.437 297.784 166.694V172H296.132ZM306.232 172.084C305.765 172.084 305.352 171.998 304.993 171.825C304.634 171.648 304.351 171.403 304.146 171.09C303.945 170.777 303.845 170.416 303.845 170.005C303.845 169.552 303.927 169.179 304.09 168.885C304.253 168.591 304.489 168.358 304.797 168.185C305.11 168.008 305.476 167.872 305.896 167.779C306.195 167.714 306.51 167.66 306.841 167.618C307.177 167.576 307.487 167.543 307.772 167.52C308.057 167.492 308.276 167.473 308.43 167.464V167.156C308.43 166.638 308.325 166.251 308.115 165.994C307.91 165.733 307.56 165.602 307.065 165.602C306.748 165.602 306.482 165.642 306.267 165.721C306.052 165.796 305.889 165.94 305.777 166.155C305.67 166.365 305.611 166.673 305.602 167.079H304.097C304.046 166.421 304.139 165.882 304.377 165.462C304.62 165.037 304.979 164.725 305.455 164.524C305.936 164.319 306.503 164.216 307.156 164.216C307.543 164.216 307.907 164.26 308.248 164.349C308.593 164.433 308.899 164.58 309.165 164.79C309.431 164.995 309.641 165.278 309.795 165.637C309.949 165.996 310.026 166.451 310.026 167.002V172H308.409L308.43 170.285C308.341 170.803 308.117 171.232 307.758 171.573C307.399 171.914 306.89 172.084 306.232 172.084ZM306.673 170.838C306.916 170.838 307.161 170.796 307.408 170.712C307.66 170.628 307.879 170.507 308.066 170.348C308.257 170.189 308.379 170.003 308.43 169.788V168.388C308.243 168.407 308.022 168.439 307.765 168.486C307.513 168.533 307.296 168.575 307.114 168.612C306.591 168.719 306.213 168.862 305.98 169.039C305.751 169.212 305.637 169.478 305.637 169.837C305.637 170.042 305.684 170.222 305.777 170.376C305.875 170.525 306.003 170.64 306.162 170.719C306.321 170.798 306.491 170.838 306.673 170.838ZM312.06 172V161.108H313.712V172H312.06ZM321.464 172.133C320.708 172.133 320.059 171.967 319.518 171.636C318.976 171.3 318.561 170.833 318.272 170.236C317.987 169.639 317.845 168.946 317.845 168.157C317.845 167.326 317.992 166.617 318.286 166.029C318.58 165.441 318.988 164.993 319.511 164.685C320.033 164.372 320.635 164.216 321.317 164.216C321.993 164.216 322.56 164.342 323.018 164.594C323.48 164.841 323.825 165.175 324.054 165.595C324.282 166.01 324.387 166.475 324.369 166.988H322.78C322.775 166.783 322.742 166.596 322.682 166.428C322.621 166.255 322.53 166.111 322.409 165.994C322.292 165.873 322.143 165.779 321.961 165.714C321.779 165.649 321.566 165.616 321.324 165.616C320.67 165.611 320.206 165.835 319.931 166.288C319.66 166.741 319.525 167.352 319.525 168.122C319.525 168.999 319.688 169.655 320.015 170.089C320.346 170.518 320.862 170.735 321.562 170.74C321.725 170.74 321.902 170.693 322.094 170.6C322.29 170.502 322.455 170.364 322.591 170.187C322.731 170.005 322.798 169.788 322.794 169.536H324.369C324.387 170.073 324.259 170.535 323.984 170.922C323.713 171.309 323.354 171.608 322.906 171.818C322.458 172.028 321.977 172.133 321.464 172.133ZM328.857 172.105C328.153 172.105 327.539 171.953 327.016 171.65C326.494 171.347 326.088 170.901 325.798 170.313C325.509 169.72 325.364 168.995 325.364 168.136C325.364 167.324 325.516 166.624 325.819 166.036C326.127 165.448 326.547 164.998 327.079 164.685C327.611 164.368 328.213 164.209 328.885 164.209C329.613 164.209 330.236 164.368 330.754 164.685C331.277 164.998 331.678 165.448 331.958 166.036C332.238 166.624 332.378 167.324 332.378 168.136C332.378 168.995 332.222 169.72 331.909 170.313C331.601 170.901 331.181 171.347 330.649 171.65C330.117 171.953 329.52 172.105 328.857 172.105ZM328.885 170.698C329.422 170.698 329.861 170.497 330.201 170.096C330.542 169.695 330.712 169.041 330.712 168.136C330.712 167.296 330.547 166.666 330.215 166.246C329.884 165.826 329.431 165.616 328.857 165.616C328.321 165.616 327.882 165.824 327.541 166.239C327.205 166.654 327.037 167.287 327.037 168.136C327.037 168.999 327.208 169.643 327.548 170.068C327.894 170.488 328.339 170.698 328.885 170.698ZM333.99 172V164.356H335.404L335.586 167.24L335.467 166.659C335.523 166.239 335.632 165.842 335.796 165.469C335.964 165.091 336.213 164.785 336.545 164.552C336.876 164.319 337.319 164.202 337.875 164.202C338.598 164.202 339.158 164.428 339.555 164.881C339.951 165.329 340.15 166.015 340.15 166.939V172H338.498V167.513C338.498 167.074 338.453 166.722 338.365 166.456C338.281 166.19 338.143 165.999 337.952 165.882C337.76 165.761 337.506 165.7 337.189 165.7C336.843 165.7 336.528 165.803 336.244 166.008C335.964 166.209 335.763 166.437 335.642 166.694V172H333.99ZM344.216 172.112C343.609 172.112 343.136 171.958 342.795 171.65C342.459 171.337 342.291 170.892 342.291 170.313V166.449C342.291 166.295 342.324 166.157 342.389 166.036C342.454 165.91 342.55 165.831 342.676 165.798L342.291 164.664V164.461L342.662 162.172H343.922V169.9C343.922 170.171 343.98 170.36 344.097 170.467C344.218 170.574 344.442 170.628 344.769 170.628C344.979 170.628 345.173 170.628 345.35 170.628C345.527 170.623 345.688 170.619 345.833 170.614V172.021C345.59 172.063 345.324 172.089 345.035 172.098C344.746 172.107 344.473 172.112 344.216 172.112ZM341.29 165.798V164.356H345.847V165.798H341.29ZM350.317 172.105C349.579 172.105 348.94 171.956 348.399 171.657C347.862 171.354 347.449 170.908 347.16 170.32C346.87 169.732 346.726 169.011 346.726 168.157C346.726 167.326 346.877 166.617 347.181 166.029C347.489 165.436 347.911 164.986 348.448 164.678C348.984 164.365 349.6 164.209 350.296 164.209C350.982 164.209 351.567 164.344 352.053 164.615C352.543 164.886 352.916 165.287 353.173 165.819C353.429 166.346 353.558 166.995 353.558 167.765C353.558 167.914 353.553 168.038 353.544 168.136C353.539 168.234 353.532 168.351 353.523 168.486H348.371C348.413 169.265 348.604 169.839 348.945 170.208C349.285 170.572 349.703 170.754 350.198 170.754C350.66 170.754 351.012 170.656 351.255 170.46C351.502 170.259 351.661 170.035 351.731 169.788H353.327C353.285 170.278 353.131 170.698 352.865 171.048C352.599 171.393 352.246 171.657 351.808 171.839C351.374 172.016 350.877 172.105 350.317 172.105ZM349.127 167.359H351.913C351.899 166.799 351.763 166.367 351.507 166.064C351.25 165.756 350.828 165.602 350.24 165.602C349.628 165.602 349.173 165.807 348.875 166.218C348.576 166.624 348.408 167.186 348.371 167.905C348.408 167.695 348.487 167.553 348.609 167.478C348.73 167.399 348.903 167.359 349.127 167.359ZM354.1 172L356.907 167.618L356.928 168.808L354.24 164.363H356.235L357.271 166.407L357.719 167.352L358.048 166.428L359.014 164.363H360.995L358.272 168.808L358.293 167.611L361.121 172H359.07L357.929 169.914L357.488 169.088L357.145 169.963L356.074 172H354.1ZM364.656 172.112C364.049 172.112 363.575 171.958 363.235 171.65C362.899 171.337 362.731 170.892 362.731 170.313V166.449C362.731 166.295 362.763 166.157 362.829 166.036C362.894 165.91 362.99 165.831 363.116 165.798L362.731 164.664V164.461L363.102 162.172H364.362V169.9C364.362 170.171 364.42 170.36 364.537 170.467C364.658 170.574 364.882 170.628 365.209 170.628C365.419 170.628 365.612 170.628 365.79 170.628C365.967 170.623 366.128 170.619 366.273 170.614V172.021C366.03 172.063 365.764 172.089 365.475 172.098C365.185 172.107 364.912 172.112 364.656 172.112ZM361.73 165.798V164.356H366.287V165.798H361.73Z" fill="black"/>
<rect x="24" y="78" width="126" height="33" rx="12" fill="white"/>
<rect x="24" y="78" width="126" height="33" rx="12" fill="#64B6AC" fill-opacity="0.5"/>
<path d="M42.9071 100V98.404H44.5311C45.1004 98.404 45.6184 98.2827 46.0851 98.04C46.5517 97.7973 46.9227 97.4147 47.1981 96.892C47.4781 96.3693 47.6181 95.6903 47.6181 94.855C47.6181 93.9823 47.4804 93.2917 47.2051 92.783C46.9297 92.2697 46.5587 91.9033 46.0921 91.684C45.6254 91.46 45.1027 91.348 44.5241 91.348H42.8511V89.822H44.5661C45.5041 89.822 46.3301 89.9993 47.0441 90.354C47.7627 90.7087 48.3251 91.257 48.7311 91.999C49.1417 92.7363 49.3471 93.6837 49.3471 94.841C49.3471 95.9703 49.1347 96.9177 48.7101 97.683C48.2854 98.4483 47.7137 99.027 46.9951 99.419C46.2764 99.8063 45.4714 100 44.5801 100H42.9071ZM41.4581 100V89.822H43.1311V100H41.4581ZM54.003 100.105C53.2657 100.105 52.6264 99.9557 52.085 99.657C51.5484 99.3537 51.1354 98.908 50.846 98.32C50.5567 97.732 50.412 97.011 50.412 96.157C50.412 95.3263 50.5637 94.617 50.867 94.029C51.175 93.4363 51.5974 92.986 52.134 92.678C52.6707 92.3653 53.2867 92.209 53.982 92.209C54.668 92.209 55.2537 92.3443 55.739 92.615C56.229 92.8857 56.6024 93.287 56.859 93.819C57.1157 94.3463 57.244 94.995 57.244 95.765C57.244 95.9143 57.2394 96.038 57.23 96.136C57.2254 96.234 57.2184 96.3507 57.209 96.486H52.057C52.099 97.2653 52.2904 97.8393 52.631 98.208C52.9717 98.572 53.3894 98.754 53.884 98.754C54.346 98.754 54.6984 98.656 54.941 98.46C55.1884 98.2593 55.347 98.0353 55.417 97.788H57.013C56.971 98.278 56.817 98.698 56.551 99.048C56.285 99.3933 55.9327 99.657 55.494 99.839C55.06 100.016 54.563 100.105 54.003 100.105ZM52.813 95.359H55.599C55.585 94.799 55.4497 94.3673 55.193 94.064C54.9364 93.756 54.514 93.602 53.926 93.602C53.3147 93.602 52.8597 93.8073 52.561 94.218C52.2624 94.624 52.0944 95.1863 52.057 95.905C52.0944 95.695 52.1737 95.5527 52.295 95.478C52.4164 95.3987 52.589 95.359 52.813 95.359ZM62.0148 100.105C61.2774 100.105 60.6381 99.9557 60.0968 99.657C59.5601 99.3537 59.1471 98.908 58.8578 98.32C58.5684 97.732 58.4238 97.011 58.4238 96.157C58.4238 95.3263 58.5754 94.617 58.8788 94.029C59.1868 93.4363 59.6091 92.986 60.1458 92.678C60.6824 92.3653 61.2984 92.209 61.9938 92.209C62.6798 92.209 63.2654 92.3443 63.7508 92.615C64.2408 92.8857 64.6141 93.287 64.8708 93.819C65.1274 94.3463 65.2558 94.995 65.2558 95.765C65.2558 95.9143 65.2511 96.038 65.2418 96.136C65.2371 96.234 65.2301 96.3507 65.2208 96.486H60.0688C60.1108 97.2653 60.3021 97.8393 60.6428 98.208C60.9834 98.572 61.4011 98.754 61.8958 98.754C62.3578 98.754 62.7101 98.656 62.9528 98.46C63.2001 98.2593 63.3588 98.0353 63.4288 97.788H65.0248C64.9828 98.278 64.8288 98.698 64.5628 99.048C64.2968 99.3933 63.9444 99.657 63.5058 99.839C63.0718 100.016 62.5748 100.105 62.0148 100.105ZM60.8248 95.359H63.6108C63.5968 94.799 63.4614 94.3673 63.2048 94.064C62.9481 93.756 62.5258 93.602 61.9378 93.602C61.3264 93.602 60.8714 93.8073 60.5728 94.218C60.2741 94.624 60.1061 95.1863 60.0688 95.905C60.1061 95.695 60.1854 95.5527 60.3068 95.478C60.4281 95.3987 60.6008 95.359 60.8248 95.359ZM70.411 100.084C69.907 100.084 69.5057 100 69.207 99.832C68.9084 99.664 68.689 99.468 68.549 99.244C68.409 99.0153 68.3204 98.8147 68.283 98.642L67.723 98.67L68.374 98.117C68.4067 98.2337 68.479 98.348 68.591 98.46C68.703 98.5673 68.8664 98.656 69.081 98.726C69.2957 98.7913 69.5594 98.824 69.872 98.824C70.3947 98.824 70.824 98.621 71.16 98.215C71.5007 97.809 71.671 97.13 71.671 96.178C71.671 95.3567 71.5124 94.7267 71.195 94.288C70.8777 93.8447 70.4717 93.623 69.977 93.623C69.627 93.623 69.3377 93.672 69.109 93.77C68.885 93.868 68.7147 93.9823 68.598 94.113C68.4814 94.2437 68.4067 94.3603 68.374 94.463V93.938C68.3834 93.784 68.423 93.6113 68.493 93.42C68.5677 93.224 68.6867 93.035 68.85 92.853C69.018 92.6663 69.2374 92.5147 69.508 92.398C69.7834 92.2767 70.124 92.216 70.53 92.216C71.146 92.216 71.664 92.3817 72.084 92.713C72.504 93.0443 72.8214 93.4993 73.036 94.078C73.2554 94.652 73.365 95.3053 73.365 96.038C73.365 96.7147 73.281 97.3073 73.113 97.816C72.9497 98.32 72.7257 98.74 72.441 99.076C72.161 99.412 71.846 99.664 71.496 99.832C71.146 100 70.7844 100.084 70.411 100.084ZM66.729 102.821V92.356H68.353L68.374 93.413V98.18L68.283 98.642L68.374 100.007V102.821H66.729ZM77.5298 100V92.356H78.9438L79.1258 95.303L78.9788 94.897C79.0115 94.589 79.0722 94.2763 79.1608 93.959C79.2542 93.6417 79.3848 93.35 79.5528 93.084C79.7255 92.818 79.9448 92.6057 80.2108 92.447C80.4815 92.2837 80.8105 92.202 81.1978 92.202C81.2912 92.202 81.3845 92.2067 81.4778 92.216C81.5712 92.2253 81.6575 92.2417 81.7368 92.265V94.029C81.5782 93.9777 81.4078 93.945 81.2258 93.931C81.0485 93.9123 80.8852 93.903 80.7358 93.903C80.5538 93.903 80.3578 93.9403 80.1478 94.015C79.9378 94.085 79.7442 94.1923 79.5668 94.337C79.3895 94.4817 79.2612 94.6613 79.1818 94.876V100H77.5298ZM85.9405 100.105C85.2032 100.105 84.5639 99.9557 84.0225 99.657C83.4859 99.3537 83.0729 98.908 82.7835 98.32C82.4942 97.732 82.3495 97.011 82.3495 96.157C82.3495 95.3263 82.5012 94.617 82.8045 94.029C83.1125 93.4363 83.5349 92.986 84.0715 92.678C84.6082 92.3653 85.2242 92.209 85.9195 92.209C86.6055 92.209 87.1912 92.3443 87.6765 92.615C88.1665 92.8857 88.5399 93.287 88.7965 93.819C89.0532 94.3463 89.1815 94.995 89.1815 95.765C89.1815 95.9143 89.1769 96.038 89.1675 96.136C89.1629 96.234 89.1559 96.3507 89.1465 96.486H83.9945C84.0365 97.2653 84.2279 97.8393 84.5685 98.208C84.9092 98.572 85.3269 98.754 85.8215 98.754C86.2835 98.754 86.6359 98.656 86.8785 98.46C87.1259 98.2593 87.2845 98.0353 87.3545 97.788H88.9505C88.9085 98.278 88.7545 98.698 88.4885 99.048C88.2225 99.3933 87.8702 99.657 87.4315 99.839C86.9975 100.016 86.5005 100.105 85.9405 100.105ZM84.7505 95.359H87.5365C87.5225 94.799 87.3872 94.3673 87.1305 94.064C86.8739 93.756 86.4515 93.602 85.8635 93.602C85.2522 93.602 84.7972 93.8073 84.4985 94.218C84.1999 94.624 84.0319 95.1863 83.9945 95.905C84.0319 95.695 84.1112 95.5527 84.2325 95.478C84.3539 95.3987 84.5265 95.359 84.7505 95.359ZM93.4289 100.119C92.8549 100.119 92.3416 100.035 91.8889 99.867C91.4409 99.699 91.0839 99.44 90.8179 99.09C90.5566 98.7353 90.4119 98.2827 90.3839 97.732H91.9799C92.0406 98.124 92.1969 98.4017 92.4489 98.565C92.7056 98.7283 93.0206 98.81 93.3939 98.81C93.6646 98.81 93.9049 98.7843 94.1149 98.733C94.3296 98.677 94.4976 98.586 94.6189 98.46C94.7449 98.3293 94.8079 98.1543 94.8079 97.935C94.8079 97.781 94.7729 97.655 94.7029 97.557C94.6376 97.4543 94.5349 97.3657 94.3949 97.291C94.2596 97.2163 94.0869 97.1463 93.8769 97.081C93.6716 97.0157 93.4336 96.9433 93.1629 96.864C92.6776 96.724 92.2366 96.5583 91.8399 96.367C91.4432 96.1757 91.1282 95.926 90.8949 95.618C90.6616 95.3053 90.5449 94.8993 90.5449 94.4C90.5449 93.7187 90.7969 93.1867 91.3009 92.804C91.8049 92.4167 92.4536 92.223 93.2469 92.223C93.7602 92.223 94.2222 92.2977 94.6329 92.447C95.0482 92.5917 95.3889 92.8343 95.6549 93.175C95.9209 93.511 96.0936 93.9683 96.1729 94.547L94.5769 94.54C94.5069 94.2693 94.4042 94.0617 94.2689 93.917C94.1336 93.7677 93.9772 93.665 93.7999 93.609C93.6272 93.5483 93.4382 93.518 93.2329 93.518C93.0089 93.518 92.8152 93.553 92.6519 93.623C92.4886 93.693 92.3626 93.791 92.2739 93.917C92.1852 94.043 92.1409 94.1947 92.1409 94.372C92.1409 94.5773 92.1992 94.75 92.3159 94.89C92.4372 95.0253 92.6169 95.1443 92.8549 95.247C93.0976 95.345 93.3986 95.4477 93.7579 95.555C94.0472 95.639 94.3459 95.7323 94.6539 95.835C94.9619 95.933 95.2489 96.059 95.5149 96.213C95.7809 96.367 95.9956 96.5723 96.1589 96.829C96.3222 97.081 96.4039 97.41 96.4039 97.816C96.4039 98.5393 96.1309 99.104 95.5849 99.51C95.0436 99.916 94.3249 100.119 93.4289 100.119ZM101.075 100.105C100.338 100.105 99.6986 99.9557 99.1573 99.657C98.6206 99.3537 98.2076 98.908 97.9183 98.32C97.629 97.732 97.4843 97.011 97.4843 96.157C97.4843 95.3263 97.636 94.617 97.9393 94.029C98.2473 93.4363 98.6696 92.986 99.2063 92.678C99.743 92.3653 100.359 92.209 101.054 92.209C101.74 92.209 102.326 92.3443 102.811 92.615C103.301 92.8857 103.675 93.287 103.931 93.819C104.188 94.3463 104.316 94.995 104.316 95.765C104.316 95.9143 104.312 96.038 104.302 96.136C104.298 96.234 104.291 96.3507 104.281 96.486H99.1293C99.1713 97.2653 99.3626 97.8393 99.7033 98.208C100.044 98.572 100.462 98.754 100.956 98.754C101.418 98.754 101.771 98.656 102.013 98.46C102.261 98.2593 102.419 98.0353 102.489 97.788H104.085C104.043 98.278 103.889 98.698 103.623 99.048C103.357 99.3933 103.005 99.657 102.566 99.839C102.132 100.016 101.635 100.105 101.075 100.105ZM99.8853 95.359H102.671C102.657 94.799 102.522 94.3673 102.265 94.064C102.009 93.756 101.586 93.602 100.998 93.602C100.387 93.602 99.932 93.8073 99.6333 94.218C99.3346 94.624 99.1666 95.1863 99.1293 95.905C99.1666 95.695 99.246 95.5527 99.3673 95.478C99.4886 95.3987 99.6613 95.359 99.8853 95.359ZM107.837 100.084C107.37 100.084 106.957 99.9977 106.598 99.825C106.238 99.6477 105.956 99.4027 105.751 99.09C105.55 98.7773 105.45 98.4157 105.45 98.005C105.45 97.5523 105.531 97.179 105.695 96.885C105.858 96.591 106.094 96.3577 106.402 96.185C106.714 96.0077 107.081 95.8723 107.501 95.779C107.799 95.7137 108.114 95.66 108.446 95.618C108.782 95.576 109.092 95.5433 109.377 95.52C109.661 95.492 109.881 95.4733 110.035 95.464V95.156C110.035 94.638 109.93 94.2507 109.72 93.994C109.514 93.7327 109.164 93.602 108.67 93.602C108.352 93.602 108.086 93.6417 107.872 93.721C107.657 93.7957 107.494 93.9403 107.382 94.155C107.274 94.365 107.216 94.673 107.207 95.079H105.702C105.65 94.421 105.744 93.882 105.982 93.462C106.224 93.0373 106.584 92.7247 107.06 92.524C107.54 92.3187 108.107 92.216 108.761 92.216C109.148 92.216 109.512 92.2603 109.853 92.349C110.198 92.433 110.504 92.58 110.77 92.79C111.036 92.9953 111.246 93.2777 111.4 93.637C111.554 93.9963 111.631 94.4513 111.631 95.002V100H110.014L110.035 98.285C109.946 98.803 109.722 99.2323 109.363 99.573C109.003 99.9137 108.495 100.084 107.837 100.084ZM108.278 98.838C108.52 98.838 108.765 98.796 109.013 98.712C109.265 98.628 109.484 98.5067 109.671 98.348C109.862 98.1893 109.983 98.0027 110.035 97.788V96.388C109.848 96.4067 109.626 96.4393 109.37 96.486C109.118 96.5327 108.901 96.5747 108.719 96.612C108.196 96.7193 107.818 96.8617 107.585 97.039C107.356 97.2117 107.242 97.4777 107.242 97.837C107.242 98.0423 107.288 98.222 107.382 98.376C107.48 98.5253 107.608 98.6397 107.767 98.719C107.925 98.7983 108.096 98.838 108.278 98.838ZM113.665 100V92.356H115.079L115.261 95.303L115.114 94.897C115.146 94.589 115.207 94.2763 115.296 93.959C115.389 93.6417 115.52 93.35 115.688 93.084C115.86 92.818 116.08 92.6057 116.346 92.447C116.616 92.2837 116.945 92.202 117.333 92.202C117.426 92.202 117.519 92.2067 117.613 92.216C117.706 92.2253 117.792 92.2417 117.872 92.265V94.029C117.713 93.9777 117.543 93.945 117.361 93.931C117.183 93.9123 117.02 93.903 116.871 93.903C116.689 93.903 116.493 93.9403 116.283 94.015C116.073 94.085 115.879 94.1923 115.702 94.337C115.524 94.4817 115.396 94.6613 115.317 94.876V100H113.665ZM122.125 100.133C121.369 100.133 120.72 99.9673 120.179 99.636C119.638 99.3 119.222 98.8333 118.933 98.236C118.648 97.6387 118.506 96.9457 118.506 96.157C118.506 95.3263 118.653 94.617 118.947 94.029C119.241 93.441 119.649 92.993 120.172 92.685C120.695 92.3723 121.297 92.216 121.978 92.216C122.655 92.216 123.222 92.342 123.679 92.594C124.141 92.8413 124.486 93.175 124.715 93.595C124.944 94.0103 125.049 94.4747 125.03 94.988H123.441C123.436 94.7827 123.404 94.596 123.343 94.428C123.282 94.2553 123.191 94.1107 123.07 93.994C122.953 93.8727 122.804 93.7793 122.622 93.714C122.44 93.6487 122.228 93.616 121.985 93.616C121.332 93.6113 120.867 93.8353 120.592 94.288C120.321 94.7407 120.186 95.352 120.186 96.122C120.186 96.9993 120.349 97.655 120.676 98.089C121.007 98.5183 121.523 98.7353 122.223 98.74C122.386 98.74 122.564 98.6933 122.755 98.6C122.951 98.502 123.117 98.3643 123.252 98.187C123.392 98.005 123.46 97.788 123.455 97.536H125.03C125.049 98.0727 124.92 98.5347 124.645 98.922C124.374 99.3093 124.015 99.608 123.567 99.818C123.119 100.028 122.638 100.133 122.125 100.133ZM126.516 100V89.108H128.154V92.363L128.042 94.54L128.105 95.156L128.021 94.659C128.077 94.239 128.184 93.8423 128.343 93.469C128.506 93.091 128.751 92.7853 129.078 92.552C129.409 92.3187 129.853 92.202 130.408 92.202C131.131 92.202 131.689 92.4283 132.081 92.881C132.478 93.329 132.676 94.015 132.676 94.939V100H131.017V95.513C131.017 94.8643 130.921 94.4 130.73 94.12C130.539 93.84 130.196 93.7 129.701 93.7C129.36 93.7 129.052 93.8143 128.777 94.043C128.506 94.267 128.301 94.5167 128.161 94.792V100H126.516Z" fill="black"/>
<rect y="192" width="158" height="33" rx="12" fill="white"/>
<rect y="192" width="158" height="33" rx="12" fill="#07A0C3" fill-opacity="0.3"/>
<path d="M21.6315 214.147C20.7682 214.147 19.9958 213.949 19.3145 213.552C18.6332 213.155 18.0942 212.567 17.6975 211.788C17.3055 211.009 17.1095 210.043 17.1095 208.89C17.1095 207.807 17.3008 206.874 17.6835 206.09C18.0708 205.301 18.6075 204.695 19.2935 204.27C19.9795 203.845 20.7752 203.633 21.6805 203.633C22.3292 203.633 22.9382 203.759 23.5075 204.011C24.0815 204.263 24.5482 204.646 24.9075 205.159C25.2668 205.668 25.4558 206.314 25.4745 207.098H23.7875C23.7595 206.631 23.6405 206.256 23.4305 205.971C23.2205 205.686 22.9545 205.481 22.6325 205.355C22.3152 205.229 21.9722 205.166 21.6035 205.166C21.0995 205.166 20.6352 205.308 20.2105 205.593C19.7905 205.878 19.4498 206.298 19.1885 206.853C18.9318 207.408 18.8035 208.09 18.8035 208.897C18.8035 209.83 18.9365 210.568 19.2025 211.109C19.4685 211.65 19.8185 212.038 20.2525 212.271C20.6865 212.5 21.1532 212.614 21.6525 212.614C22.1798 212.614 22.5952 212.532 22.8985 212.369C23.2018 212.206 23.4212 211.989 23.5565 211.718C23.6965 211.443 23.7782 211.146 23.8015 210.829H25.4885C25.4512 211.524 25.2785 212.119 24.9705 212.614C24.6672 213.109 24.2355 213.489 23.6755 213.755C23.1155 214.016 22.4342 214.147 21.6315 214.147ZM30.0195 214.105C29.3148 214.105 28.7011 213.953 28.1785 213.65C27.6558 213.347 27.2498 212.901 26.9605 212.313C26.6711 211.72 26.5265 210.995 26.5265 210.136C26.5265 209.324 26.6781 208.624 26.9815 208.036C27.2895 207.448 27.7095 206.998 28.2415 206.685C28.7735 206.368 29.3755 206.209 30.0475 206.209C30.7755 206.209 31.3985 206.368 31.9165 206.685C32.4391 206.998 32.8405 207.448 33.1205 208.036C33.4005 208.624 33.5405 209.324 33.5405 210.136C33.5405 210.995 33.3841 211.72 33.0715 212.313C32.7635 212.901 32.3435 213.347 31.8115 213.65C31.2795 213.953 30.6821 214.105 30.0195 214.105ZM30.0475 212.698C30.5841 212.698 31.0228 212.497 31.3635 212.096C31.7041 211.695 31.8745 211.041 31.8745 210.136C31.8745 209.296 31.7088 208.666 31.3775 208.246C31.0461 207.826 30.5935 207.616 30.0195 207.616C29.4828 207.616 29.0441 207.824 28.7035 208.239C28.3675 208.654 28.1995 209.287 28.1995 210.136C28.1995 210.999 28.3698 211.643 28.7105 212.068C29.0558 212.488 29.5015 212.698 30.0475 212.698ZM35.1519 214V206.356H36.5659L36.7479 209.24L36.6289 208.659C36.6849 208.239 36.7946 207.842 36.9579 207.469C37.1259 207.091 37.3756 206.785 37.7069 206.552C38.0382 206.319 38.4816 206.202 39.0369 206.202C39.7602 206.202 40.3202 206.428 40.7169 206.881C41.1136 207.329 41.3119 208.015 41.3119 208.939V214H39.6599V209.513C39.6599 209.074 39.6156 208.722 39.5269 208.456C39.4429 208.19 39.3052 207.999 39.1139 207.882C38.9226 207.761 38.6682 207.7 38.3509 207.7C38.0056 207.7 37.6906 207.803 37.4059 208.008C37.1259 208.209 36.9252 208.437 36.8039 208.694V214H35.1519ZM45.3782 214.112C44.7716 214.112 44.2979 213.958 43.9572 213.65C43.6212 213.337 43.4532 212.892 43.4532 212.313V208.449C43.4532 208.295 43.4859 208.157 43.5512 208.036C43.6166 207.91 43.7122 207.831 43.8382 207.798L43.4532 206.664V206.461L43.8242 204.172H45.0842V211.9C45.0842 212.171 45.1426 212.36 45.2592 212.467C45.3806 212.574 45.6046 212.628 45.9312 212.628C46.1412 212.628 46.3349 212.628 46.5122 212.628C46.6896 212.623 46.8506 212.619 46.9952 212.614V214.021C46.7526 214.063 46.4866 214.089 46.1972 214.098C45.9079 214.107 45.6349 214.112 45.3782 214.112ZM42.4522 207.798V206.356H47.0092V207.798H42.4522ZM51.4786 214.105C50.7413 214.105 50.102 213.956 49.5606 213.657C49.024 213.354 48.611 212.908 48.3216 212.32C48.0323 211.732 47.8876 211.011 47.8876 210.157C47.8876 209.326 48.0393 208.617 48.3426 208.029C48.6506 207.436 49.073 206.986 49.6096 206.678C50.1463 206.365 50.7623 206.209 51.4576 206.209C52.1436 206.209 52.7293 206.344 53.2146 206.615C53.7046 206.886 54.078 207.287 54.3346 207.819C54.5913 208.346 54.7196 208.995 54.7196 209.765C54.7196 209.914 54.715 210.038 54.7056 210.136C54.701 210.234 54.694 210.351 54.6846 210.486H49.5326C49.5746 211.265 49.766 211.839 50.1066 212.208C50.4473 212.572 50.865 212.754 51.3596 212.754C51.8216 212.754 52.174 212.656 52.4166 212.46C52.664 212.259 52.8226 212.035 52.8926 211.788H54.4886C54.4466 212.278 54.2926 212.698 54.0266 213.048C53.7606 213.393 53.4083 213.657 52.9696 213.839C52.5356 214.016 52.0386 214.105 51.4786 214.105ZM50.2886 209.359H53.0746C53.0606 208.799 52.9253 208.367 52.6686 208.064C52.412 207.756 51.9896 207.602 51.4016 207.602C50.7903 207.602 50.3353 207.807 50.0366 208.218C49.738 208.624 49.57 209.186 49.5326 209.905C49.57 209.695 49.6493 209.553 49.7706 209.478C49.892 209.399 50.0646 209.359 50.2886 209.359ZM55.2622 214L58.0692 209.618L58.0902 210.808L55.4022 206.363H57.3972L58.4332 208.407L58.8812 209.352L59.2102 208.428L60.1762 206.363H62.1572L59.4342 210.808L59.4552 209.611L62.2832 214H60.2322L59.0912 211.914L58.6502 211.088L58.3072 211.963L57.2362 214H55.2622ZM65.8177 214.112C65.211 214.112 64.7374 213.958 64.3967 213.65C64.0607 213.337 63.8927 212.892 63.8927 212.313V208.449C63.8927 208.295 63.9254 208.157 63.9907 208.036C64.056 207.91 64.1517 207.831 64.2777 207.798L63.8927 206.664V206.461L64.2637 204.172H65.5237V211.9C65.5237 212.171 65.582 212.36 65.6987 212.467C65.82 212.574 66.044 212.628 66.3707 212.628C66.5807 212.628 66.7744 212.628 66.9517 212.628C67.129 212.623 67.29 212.619 67.4347 212.614V214.021C67.192 214.063 66.926 214.089 66.6367 214.098C66.3474 214.107 66.0744 214.112 65.8177 214.112ZM62.8917 207.798V206.356H67.4487V207.798H62.8917ZM71.1315 214.154C70.4688 214.154 69.9368 213.923 69.5355 213.461C69.1341 212.999 68.9335 212.336 68.9335 211.473V206.356H70.5855V211.032C70.5855 211.405 70.6275 211.713 70.7115 211.956C70.7955 212.199 70.9285 212.376 71.1105 212.488C71.2925 212.6 71.5281 212.656 71.8175 212.656C72.1675 212.656 72.4825 212.556 72.7625 212.355C73.0471 212.15 73.2478 211.919 73.3645 211.662V206.356H75.0165V214H73.6095L73.4205 211.116L73.5465 211.697C73.4905 212.117 73.3785 212.514 73.2105 212.887C73.0471 213.26 72.7975 213.566 72.4615 213.804C72.1301 214.037 71.6868 214.154 71.1315 214.154ZM79.0212 214.084C78.5546 214.084 78.1416 213.998 77.7822 213.825C77.4229 213.648 77.1406 213.403 76.9352 213.09C76.7346 212.777 76.6342 212.416 76.6342 212.005C76.6342 211.552 76.7159 211.179 76.8792 210.885C77.0426 210.591 77.2782 210.358 77.5862 210.185C77.8989 210.008 78.2652 209.872 78.6852 209.779C78.9839 209.714 79.2989 209.66 79.6302 209.618C79.9662 209.576 80.2766 209.543 80.5612 209.52C80.8459 209.492 81.0652 209.473 81.2192 209.464V209.156C81.2192 208.638 81.1142 208.251 80.9042 207.994C80.6989 207.733 80.3489 207.602 79.8542 207.602C79.5369 207.602 79.2709 207.642 79.0562 207.721C78.8416 207.796 78.6782 207.94 78.5662 208.155C78.4589 208.365 78.4006 208.673 78.3912 209.079H76.8862C76.8349 208.421 76.9282 207.882 77.1662 207.462C77.4089 207.037 77.7682 206.725 78.2442 206.524C78.7249 206.319 79.2919 206.216 79.9452 206.216C80.3326 206.216 80.6966 206.26 81.0372 206.349C81.3826 206.433 81.6882 206.58 81.9542 206.79C82.2202 206.995 82.4302 207.278 82.5842 207.637C82.7382 207.996 82.8152 208.451 82.8152 209.002V214H81.1982L81.2192 212.285C81.1306 212.803 80.9066 213.232 80.5472 213.573C80.1879 213.914 79.6792 214.084 79.0212 214.084ZM79.4622 212.838C79.7049 212.838 79.9499 212.796 80.1972 212.712C80.4492 212.628 80.6686 212.507 80.8552 212.348C81.0466 212.189 81.1679 212.003 81.2192 211.788V210.388C81.0326 210.407 80.8109 210.439 80.5542 210.486C80.3022 210.533 80.0852 210.575 79.9032 210.612C79.3806 210.719 79.0026 210.862 78.7692 211.039C78.5406 211.212 78.4262 211.478 78.4262 211.837C78.4262 212.042 78.4729 212.222 78.5662 212.376C78.6642 212.525 78.7926 212.64 78.9512 212.719C79.1099 212.798 79.2802 212.838 79.4622 212.838ZM84.8495 214V203.108H86.5015V214H84.8495ZM93.4759 214.112C92.8692 214.112 92.3956 213.958 92.0549 213.65C91.7189 213.337 91.5509 212.892 91.5509 212.313V208.449C91.5509 208.295 91.5836 208.157 91.6489 208.036C91.7142 207.91 91.8099 207.831 91.9359 207.798L91.5509 206.664V206.461L91.9219 204.172H93.1819V211.9C93.1819 212.171 93.2402 212.36 93.3569 212.467C93.4782 212.574 93.7022 212.628 94.0289 212.628C94.2389 212.628 94.4326 212.628 94.6099 212.628C94.7872 212.623 94.9482 212.619 95.0929 212.614V214.021C94.8502 214.063 94.5842 214.089 94.2949 214.098C94.0056 214.107 93.7326 214.112 93.4759 214.112ZM90.5499 207.798V206.356H95.1069V207.798H90.5499ZM96.648 214V206.356H98.062L98.244 209.303L98.097 208.897C98.1297 208.589 98.1903 208.276 98.279 207.959C98.3723 207.642 98.503 207.35 98.671 207.084C98.8437 206.818 99.063 206.606 99.329 206.447C99.5997 206.284 99.9287 206.202 100.316 206.202C100.409 206.202 100.503 206.207 100.596 206.216C100.689 206.225 100.776 206.242 100.855 206.265V208.029C100.696 207.978 100.526 207.945 100.344 207.931C100.167 207.912 100.003 207.903 99.854 207.903C99.672 207.903 99.476 207.94 99.266 208.015C99.056 208.085 98.8623 208.192 98.685 208.337C98.5077 208.482 98.3793 208.661 98.3 208.876V214H96.648ZM102.09 214V206.356H103.763L103.742 214H102.09ZM102.937 205.229C102.633 205.229 102.377 205.124 102.167 204.914C101.957 204.699 101.852 204.426 101.852 204.095C101.852 203.768 101.957 203.502 102.167 203.297C102.377 203.092 102.633 202.989 102.937 202.989C103.231 202.989 103.483 203.092 103.693 203.297C103.907 203.502 104.015 203.768 104.015 204.095C104.015 204.426 103.907 204.699 103.693 204.914C103.483 205.124 103.231 205.229 102.937 205.229ZM108.833 217.122C108.212 217.122 107.652 217.019 107.153 216.814C106.658 216.613 106.275 216.305 106.005 215.89C105.734 215.475 105.629 214.954 105.69 214.329H107.286C107.281 214.595 107.314 214.833 107.384 215.043C107.454 215.258 107.601 215.428 107.825 215.554C108.049 215.68 108.389 215.743 108.847 215.743C109.243 215.743 109.547 215.687 109.757 215.575C109.971 215.463 110.116 215.293 110.191 215.064C110.265 214.835 110.303 214.539 110.303 214.175V212.103C110.261 212.322 110.17 212.553 110.03 212.796C109.89 213.039 109.673 213.244 109.379 213.412C109.085 213.575 108.688 213.657 108.189 213.657C107.736 213.657 107.332 213.557 106.978 213.356C106.623 213.155 106.322 212.885 106.075 212.544C105.827 212.203 105.638 211.821 105.508 211.396C105.382 210.967 105.319 210.523 105.319 210.066C105.319 209.217 105.459 208.507 105.739 207.938C106.023 207.369 106.39 206.939 106.838 206.65C107.286 206.361 107.759 206.216 108.259 206.216C108.702 206.216 109.059 206.277 109.33 206.398C109.605 206.519 109.82 206.666 109.974 206.839C110.128 207.012 110.24 207.182 110.31 207.35L110.317 206.363H111.934V214.161C111.934 214.852 111.798 215.414 111.528 215.848C111.262 216.282 110.895 216.599 110.429 216.8C109.962 217.005 109.43 217.113 108.833 217.122ZM108.756 212.334C109.106 212.334 109.388 212.287 109.603 212.194C109.817 212.096 109.981 211.982 110.093 211.851C110.205 211.716 110.275 211.599 110.303 211.501V208.302C110.256 208.19 110.17 208.08 110.044 207.973C109.918 207.866 109.752 207.777 109.547 207.707C109.341 207.637 109.089 207.602 108.791 207.602C108.273 207.602 107.848 207.793 107.517 208.176C107.185 208.559 107.02 209.158 107.02 209.975C107.02 210.717 107.183 211.296 107.51 211.711C107.841 212.126 108.256 212.334 108.756 212.334ZM117.036 217.122C116.415 217.122 115.855 217.019 115.356 216.814C114.861 216.613 114.479 216.305 114.208 215.89C113.937 215.475 113.832 214.954 113.893 214.329H115.489C115.484 214.595 115.517 214.833 115.587 215.043C115.657 215.258 115.804 215.428 116.028 215.554C116.252 215.68 116.593 215.743 117.05 215.743C117.447 215.743 117.75 215.687 117.96 215.575C118.175 215.463 118.319 215.293 118.394 215.064C118.469 214.835 118.506 214.539 118.506 214.175V212.103C118.464 212.322 118.373 212.553 118.233 212.796C118.093 213.039 117.876 213.244 117.582 213.412C117.288 213.575 116.891 213.657 116.392 213.657C115.939 213.657 115.536 213.557 115.181 213.356C114.826 213.155 114.525 212.885 114.278 212.544C114.031 212.203 113.842 211.821 113.711 211.396C113.585 210.967 113.522 210.523 113.522 210.066C113.522 209.217 113.662 208.507 113.942 207.938C114.227 207.369 114.593 206.939 115.041 206.65C115.489 206.361 115.963 206.216 116.462 206.216C116.905 206.216 117.262 206.277 117.533 206.398C117.808 206.519 118.023 206.666 118.177 206.839C118.331 207.012 118.443 207.182 118.513 207.35L118.52 206.363H120.137V214.161C120.137 214.852 120.002 215.414 119.731 215.848C119.465 216.282 119.099 216.599 118.632 216.8C118.165 217.005 117.633 217.113 117.036 217.122ZM116.959 212.334C117.309 212.334 117.591 212.287 117.806 212.194C118.021 212.096 118.184 211.982 118.296 211.851C118.408 211.716 118.478 211.599 118.506 211.501V208.302C118.459 208.19 118.373 208.08 118.247 207.973C118.121 207.866 117.955 207.777 117.75 207.707C117.545 207.637 117.293 207.602 116.994 207.602C116.476 207.602 116.051 207.793 115.72 208.176C115.389 208.559 115.223 209.158 115.223 209.975C115.223 210.717 115.386 211.296 115.713 211.711C116.044 212.126 116.46 212.334 116.959 212.334ZM125.266 214.105C124.528 214.105 123.889 213.956 123.348 213.657C122.811 213.354 122.398 212.908 122.109 212.32C121.819 211.732 121.675 211.011 121.675 210.157C121.675 209.326 121.826 208.617 122.13 208.029C122.438 207.436 122.86 206.986 123.397 206.678C123.933 206.365 124.549 206.209 125.245 206.209C125.931 206.209 126.516 206.344 127.002 206.615C127.492 206.886 127.865 207.287 128.122 207.819C128.378 208.346 128.507 208.995 128.507 209.765C128.507 209.914 128.502 210.038 128.493 210.136C128.488 210.234 128.481 210.351 128.472 210.486H123.32C123.362 211.265 123.553 211.839 123.894 212.208C124.234 212.572 124.652 212.754 125.147 212.754C125.609 212.754 125.961 212.656 126.204 212.46C126.451 212.259 126.61 212.035 126.68 211.788H128.276C128.234 212.278 128.08 212.698 127.814 213.048C127.548 213.393 127.195 213.657 126.757 213.839C126.323 214.016 125.826 214.105 125.266 214.105ZM124.076 209.359H126.862C126.848 208.799 126.712 208.367 126.456 208.064C126.199 207.756 125.777 207.602 125.189 207.602C124.577 207.602 124.122 207.807 123.824 208.218C123.525 208.624 123.357 209.186 123.32 209.905C123.357 209.695 123.436 209.553 123.558 209.478C123.679 209.399 123.852 209.359 124.076 209.359ZM129.994 214V206.356H131.408L131.59 209.303L131.443 208.897C131.475 208.589 131.536 208.276 131.625 207.959C131.718 207.642 131.849 207.35 132.017 207.084C132.189 206.818 132.409 206.606 132.675 206.447C132.945 206.284 133.274 206.202 133.662 206.202C133.755 206.202 133.848 206.207 133.942 206.216C134.035 206.225 134.121 206.242 134.201 206.265V208.029C134.042 207.978 133.872 207.945 133.69 207.931C133.512 207.912 133.349 207.903 133.2 207.903C133.018 207.903 132.822 207.94 132.612 208.015C132.402 208.085 132.208 208.192 132.031 208.337C131.853 208.482 131.725 208.661 131.646 208.876V214H129.994ZM138.004 214.119C137.43 214.119 136.917 214.035 136.464 213.867C136.016 213.699 135.659 213.44 135.393 213.09C135.132 212.735 134.987 212.283 134.959 211.732H136.555C136.616 212.124 136.772 212.402 137.024 212.565C137.281 212.728 137.596 212.81 137.969 212.81C138.24 212.81 138.48 212.784 138.69 212.733C138.905 212.677 139.073 212.586 139.194 212.46C139.32 212.329 139.383 212.154 139.383 211.935C139.383 211.781 139.348 211.655 139.278 211.557C139.213 211.454 139.11 211.366 138.97 211.291C138.835 211.216 138.662 211.146 138.452 211.081C138.247 211.016 138.009 210.943 137.738 210.864C137.253 210.724 136.812 210.558 136.415 210.367C136.018 210.176 135.703 209.926 135.47 209.618C135.237 209.305 135.12 208.899 135.12 208.4C135.12 207.719 135.372 207.187 135.876 206.804C136.38 206.417 137.029 206.223 137.822 206.223C138.335 206.223 138.797 206.298 139.208 206.447C139.623 206.592 139.964 206.834 140.23 207.175C140.496 207.511 140.669 207.968 140.748 208.547L139.152 208.54C139.082 208.269 138.979 208.062 138.844 207.917C138.709 207.768 138.552 207.665 138.375 207.609C138.202 207.548 138.013 207.518 137.808 207.518C137.584 207.518 137.39 207.553 137.227 207.623C137.064 207.693 136.938 207.791 136.849 207.917C136.76 208.043 136.716 208.195 136.716 208.372C136.716 208.577 136.774 208.75 136.891 208.89C137.012 209.025 137.192 209.144 137.43 209.247C137.673 209.345 137.974 209.448 138.333 209.555C138.622 209.639 138.921 209.732 139.229 209.835C139.537 209.933 139.824 210.059 140.09 210.213C140.356 210.367 140.571 210.572 140.734 210.829C140.897 211.081 140.979 211.41 140.979 211.816C140.979 212.539 140.706 213.104 140.16 213.51C139.619 213.916 138.9 214.119 138.004 214.119Z" fill="black"/>
<defs>
<filter id="filter0_dd_464_5905" x="108.127" y="40.7803" width="193.408" height="270.39" filterUnits="userSpaceOnUse" color-interpolation-filters="sRGB">
<feFlood flood-opacity="0" result="BackgroundImageFix"/>
<feColorMatrix in="SourceAlpha" type="matrix" values="0 0 0 0 0 0 0 0 0 0 0 0 0 0 0 0 0 0 127 0" result="hardAlpha"/>
<feOffset dy="2"/>
<feGaussianBlur stdDeviation="2.5"/>
<feComposite in2="hardAlpha" operator="out"/>
<feColorMatrix type="matrix" values="0 0 0 0 0 0 0 0 0 0.0509804 0 0 0 0 0.14902 0 0 0 0.15 0"/>
<feBlend mode="normal" in2="BackgroundImageFix" result="effect1_dropShadow_464_5905"/>
<feColorMatrix in="SourceAlpha" type="matrix" values="0 0 0 0 0 0 0 0 0 0 0 0 0 0 0 0 0 0 127 0" result="hardAlpha"/>
<feOffset dy="12"/>
<feGaussianBlur stdDeviation="8"/>
<feComposite in2="hardAlpha" operator="out"/>
<feColorMatrix type="matrix" values="0 0 0 0 0.0625 0 0 0 0 0.125 0 0 0 0 0.25 0 0 0 0.1 0"/>
<feBlend mode="normal" in2="effect1_dropShadow_464_5905" result="effect2_dropShadow_464_5905"/>
<feBlend mode="normal" in="SourceGraphic" in2="effect2_dropShadow_464_5905" result="shape"/>
</filter>
<filter id="filter1_d_464_5905" x="177.976" y="60.1992" width="41.9434" height="11.9014" filterUnits="userSpaceOnUse" color-interpolation-filters="sRGB">
<feFlood flood-opacity="0" result="BackgroundImageFix"/>
<feColorMatrix in="SourceAlpha" type="matrix" values="0 0 0 0 0 0 0 0 0 0 0 0 0 0 0 0 0 0 127 0" result="hardAlpha"/>
<feOffset dy="1"/>
<feGaussianBlur stdDeviation="0.5"/>
<feComposite in2="hardAlpha" operator="out"/>
<feColorMatrix type="matrix" values="0 0 0 0 1 0 0 0 0 1 0 0 0 0 1 0 0 0 0.5 0"/>
<feBlend mode="normal" in2="BackgroundImageFix" result="effect1_dropShadow_464_5905"/>
<feBlend mode="normal" in="SourceGraphic" in2="effect1_dropShadow_464_5905" result="shape"/>
</filter>
<filter id="filter2_f_464_5905" x="185.5" y="49.5" width="9.5" height="17" filterUnits="userSpaceOnUse" color-interpolation-filters="sRGB">
<feFlood flood-opacity="0" result="BackgroundImageFix"/>
<feBlend mode="normal" in="SourceGraphic" in2="BackgroundImageFix" result="shape"/>
<feGaussianBlur stdDeviation="0.5" result="effect1_foregroundBlur_464_5905"/>
</filter>
<linearGradient id="paint0_linear_464_5905" x1="196.831" y1="21.1981" x2="199.684" y2="69.1132" gradientUnits="userSpaceOnUse">
<stop stop-color="#E6E8EB"/>
<stop offset="0.84" stop-color="#C1C5CD"/>
<stop offset="1" stop-color="#737373"/>
</linearGradient>
<clipPath id="clip0_464_5905">
<path d="M124.84 65.555C124.446 58.9393 129.49 53.2569 136.106 52.863L259.887 45.4932C266.502 45.0993 272.185 50.1431 272.579 56.7588L284.822 262.395C285.216 269.01 280.172 274.693 273.556 275.087L149.775 282.456C143.16 282.85 137.477 277.807 137.083 271.191L124.84 65.555Z" fill="white"/>
</clipPath>
</defs>
</svg>
