<svg width="383" height="328" fill="none" xmlns="http://www.w3.org/2000/svg"><circle cx="205" cy="164" r="163.5" stroke="#C1C5CD" stroke-opacity=".8"/><circle cx="205" cy="164" r="125.5" stroke="#C1C5CD" stroke-opacity=".4"/><g filter="url(#filter0_dd_464_5905)"><g clip-path="url(#clip0_464_5905)"><path d="M124.84 65.555c-.394-6.616 4.65-12.298 11.266-12.692l123.781-7.37c6.615-.394 12.298 4.65 12.692 11.266l12.243 205.636c.394 6.615-4.65 12.298-11.266 12.692l-123.781 7.369c-6.615.394-12.298-4.649-12.692-11.265L124.84 65.555z" fill="#fff"/><path fill="#FFD601" d="M124.127 53.576l147.738-8.796 7.846 131.767-147.739 8.796z"/><g filter="url(#filter1_d_464_5905)"><rect x="178.745" y="62.346" width="40" height="8" rx="4" transform="rotate(-3.407 178.745 62.346)" fill="#152647"/></g><path d="M201.431 106.798c-6.299.375-11.104 5.788-10.729 12.088.375 6.3 5.788 11.104 12.088 10.729 6.3-.375 11.104-5.788 10.729-12.087-.375-6.3-5.788-11.105-12.088-10.73z" fill="#000D26"/><path d="M221.961 144.324c-.463-6.205-5.828-10.932-12.059-10.561l-13.69.815c-6.234.371-11 5.701-10.724 11.918-5.895-4.685-9.873-11.731-10.355-19.822-.899-15.096 10.652-28.112 25.75-29.01 15.096-.9 28.112 10.654 29.01 25.749.482 8.091-2.634 15.56-7.932 20.911zM200.611 93.1c-17.614 1.049-31.09 16.231-30.041 33.845 1.049 17.615 16.231 31.091 33.845 30.042 17.612-1.049 31.09-16.231 30.042-33.845-1.049-17.615-16.233-31.09-33.846-30.042z" fill="#000D26"/><path d="M171.052 238.113l-.109-1.82 1.853-.111a3.787 3.787 0 001.748-.52c.516-.309.913-.771 1.192-1.386.284-.615.398-1.399.341-2.352-.059-.996-.263-1.774-.612-2.336-.349-.567-.797-.96-1.345-1.178-.547-.224-1.151-.316-1.811-.277l-1.909.114-.103-1.741 1.956-.117c1.07-.063 2.025.083 2.863.439.844.356 1.523.943 2.037 1.762.518.813.817 1.88.895 3.2.077 1.289-.101 2.384-.533 3.286-.433.902-1.046 1.601-1.839 2.097-.794.491-1.699.766-2.716.827l-1.908.113zm-1.653.099l-.692-11.612 1.909-.113.691 11.611-1.908.114zm10.737-.639l-.519-8.721 1.613-.096.408 3.35-.196-.454c.017-.353.065-.714.144-1.082.085-.368.214-.71.388-1.025.179-.315.415-.572.707-.771.298-.205.668-.32 1.11-.347.106-.006.213-.007.32-.003.107.004.207.017.299.038l.12 2.013a2.48 2.48 0 00-.59-.077 5.498 5.498 0 00-.561.001 2.022 2.022 0 00-.663.168c-.235.094-.448.23-.641.407-.192.177-.327.39-.403.641l.348 5.845-1.884.113zm9.602-.452c-.841.05-1.58-.077-2.218-.381-.633-.309-1.135-.79-1.505-1.441-.37-.651-.584-1.464-.642-2.438-.056-.948.069-1.767.375-2.459.311-.697.762-1.239 1.354-1.627.591-.393 1.283-.613 2.076-.661.783-.046 1.46.068 2.032.344a3.024 3.024 0 011.359 1.298c.329.584.52 1.315.572 2.194.01.17.013.311.009.424v.401l-5.878.35c.101.886.358 1.528.772 1.925.413.392.902.572 1.467.538.527-.031.922-.167 1.186-.407.268-.246.434-.512.497-.799l1.821-.109c-.015.562-.162 1.052-.442 1.469a2.88 2.88 0 01-1.152.974c-.483.232-1.044.367-1.683.405zm-1.68-5.333l3.179-.19c-.054-.638-.238-1.121-.552-1.45-.313-.333-.806-.48-1.476-.441-.698.042-1.203.307-1.516.796-.313.483-.466 1.136-.46 1.959.028-.242.109-.41.242-.504.133-.098.328-.155.583-.17zm9.392 4.85c-.532.032-1.009-.039-1.431-.211a2.41 2.41 0 01-1.016-.781 2.248 2.248 0 01-.417-1.218c-.031-.516.037-.948.203-1.294.167-.347.42-.629.759-.847a4.548 4.548 0 011.227-.538c.336-.094.692-.177 1.067-.247.38-.071.732-.13 1.055-.176.323-.051.572-.087.747-.108l-.021-.351c-.035-.591-.181-1.026-.438-1.305-.252-.284-.66-.409-1.225-.376-.362.022-.662.085-.902.19a.98.98 0 00-.529.529c-.109.247-.154.602-.137 1.066l-1.717.102c-.104-.747-.034-1.368.209-1.864a2.483 2.483 0 011.166-1.143c.535-.267 1.175-.423 1.92-.467.442-.026.86 0 1.255.078.4.072.758.219 1.076.44.317.217.576.524.776.924.2.399.319.913.357 1.541l.339 5.702-1.845.11-.092-1.958a2.57 2.57 0 01-.679 1.515c-.387.413-.956.642-1.707.687zm.419-1.452c.277-.016.553-.081.83-.193.282-.113.524-.266.726-.46.207-.194.333-.415.377-.664l-.095-1.597a9.64 9.64 0 00-.752.157c-.284.07-.529.133-.734.188-.589.158-1.011.346-1.265.564-.249.213-.361.524-.337.934.014.234.079.436.196.605.122.164.276.286.463.365.186.08.383.114.591.101zm6.224.96l-.519-8.72 1.621-.097.404 3.278-.175-.655a5.02 5.02 0 01.294-1.38 2.44 2.44 0 01.784-1.096c.362-.289.858-.452 1.486-.489.697-.042 1.271.124 1.721.498.454.368.757.96.907 1.773l.047.126.378 6.349-1.893.112-.304-5.119c-.03-.5-.102-.899-.216-1.197-.114-.298-.279-.507-.494-.628-.211-.126-.484-.179-.819-.159a1.76 1.76 0 00-1.049.415c-.306.248-.519.522-.64.823l.36 6.054-1.893.112zm10.11-.602l-.304-5.119c-.03-.5-.102-.899-.216-1.197-.114-.298-.278-.507-.494-.628-.211-.126-.484-.179-.819-.159a1.76 1.76 0 00-1.049.415c-.306.248-.519.522-.64.823l.021.624-.159-.511c.025-.477.112-.945.261-1.402.154-.464.409-.853.764-1.168.355-.32.847-.499 1.475-.536.788-.047 1.421.174 1.899.664.477.484.748 1.254.81 2.308l.344 5.774-1.893.112zm10.602-.471c-.852.051-1.598-.041-2.237-.275a3.19 3.19 0 01-1.526-1.136c-.379-.527-.601-1.203-.666-2.028l1.821-.108c.048.446.18.815.395 1.107.22.291.516.5.887.628.376.127.822.175 1.339.145.495-.03.896-.112 1.203-.248.307-.136.529-.315.665-.537.136-.227.196-.487.178-.78a1.222 1.222 0 00-.319-.79c-.195-.213-.495-.404-.9-.572a12.78 12.78 0 00-1.587-.538 7.764 7.764 0 01-1.799-.735 3.794 3.794 0 01-1.227-1.105c-.299-.441-.467-.968-.503-1.581-.062-1.032.229-1.841.873-2.424s1.554-.91 2.731-.98c.814-.048 1.482.037 2.003.258.52.22.923.567 1.208 1.042.289.469.498 1.06.626 1.774l-1.829.108c-.069-.364-.186-.662-.349-.892a1.374 1.374 0 00-.647-.499c-.263-.107-.589-.149-.977-.126-.602.036-1.058.186-1.368.45-.31.259-.451.628-.423 1.107.016.272.082.516.196.734.12.217.349.425.686.624.344.199.853.409 1.529.63.523.172 1.013.338 1.472.498.463.154.872.341 1.227.56.361.219.65.501.868.846.218.345.346.791.384 1.339.074 1.054-.224 1.881-.894 2.482-.664.6-1.677.941-3.04 1.022zm7.466-.605l-.108-1.82 1.853-.111a3.79 3.79 0 001.748-.52c.516-.309.913-.771 1.192-1.386.284-.615.397-1.399.34-2.352-.059-.996-.263-1.774-.611-2.336-.349-.567-.798-.96-1.345-1.178-.547-.224-1.151-.316-1.811-.277l-1.909.114-.104-1.741 1.957-.117c1.07-.063 2.024.083 2.863.439.844.356 1.523.943 2.036 1.762.519.813.817 1.88.896 3.2.077 1.289-.101 2.384-.534 3.286-.432.902-1.045 1.601-1.838 2.097-.794.491-1.699.766-2.716.827l-1.909.113zm-1.653.099l-.691-11.612 1.909-.113.691 11.611-1.909.114zm16.99-1.012l-3.011-4.404-1.749.104-.542-.088.155-1.292-.015-.255 1.909-.114c.474-.028.847-.128 1.12-.299.273-.171.462-.404.567-.699.111-.295.155-.642.131-1.042-.028-.463-.134-.809-.319-1.039a1.24 1.24 0 00-.708-.462 3.177 3.177 0 00-.975-.078l-1.493.08-.091-.435-.701-1.289.71-.042.719-.043.855-.051c.74-.044 1.396.035 1.969.236a2.758 2.758 0 011.374 1c.343.466.537 1.082.583 1.849a4.036 4.036 0 01-.199 1.51 3.22 3.22 0 01-.796 1.298c-.373.369-.865.634-1.475.793l-.127-.113a2.45 2.45 0 01.57.022c.151.023.294.09.428.199.135.11.287.28.456.51l2.947 4.008-2.292.136zm-6.165.367l-.691-11.611 1.868-.111.692 11.611-1.869.111z" fill="#000"/></g><path d="M136.135 53.362l123.781-7.37c6.34-.377 11.786 4.457 12.163 10.797l12.244 205.635c.377 6.34-4.456 11.786-10.796 12.164l-123.781 7.369c-6.34.378-11.786-4.456-12.163-10.796L125.339 65.525c-.377-6.34 4.456-11.785 10.796-12.163z" stroke="#E6E8EB"/></g><g filter="url(#filter2_f_464_5905)"><path d="M189.5 65.5l4.5-15-7.5.5 3 14.5z" fill="#000D26" fill-opacity=".1"/></g><path d="M187.585 25.756a4 4 0 013.756-4.231l10.98-.654a4 4 0 014.231 3.755l2.615 43.923-18.967 1.129-2.615-43.922z" fill="url(#paint0_linear_464_5905)"/><rect x="242" y="150" width="141" height="33" rx="12" fill="#fff"/><rect x="242" y="150" width="141" height="33" rx="12" fill="#F67E7D" fill-opacity=".5"/><path d="M261.625 168.528a.744.744 0 01-.434-.154.532.532 0 01-.224-.448l-.469-.483.49-.392h1.785c.411 0 .751-.068 1.022-.203.275-.14.481-.352.616-.637.14-.285.21-.646.21-1.085 0-.695-.175-1.167-.525-1.414-.345-.252-.824-.378-1.435-.378h-1.715l-.602-1.512h2.226c1.246 0 2.179.257 2.8.77.621.509.931 1.339.931 2.492 0 .439-.063.863-.189 1.274a2.984 2.984 0 01-.602 1.099c-.28.327-.658.588-1.134.784-.476.191-1.064.287-1.764.287h-.987zM259.336 172v-10.178h1.652V172h-1.652zm11.328.105c-.737 0-1.376-.149-1.918-.448a3.03 3.03 0 01-1.239-1.337c-.289-.588-.434-1.309-.434-2.163 0-.831.152-1.54.455-2.128.308-.593.731-1.043 1.267-1.351.537-.313 1.153-.469 1.848-.469.686 0 1.272.135 1.757.406.49.271.864.672 1.12 1.204.257.527.385 1.176.385 1.946 0 .149-.004.273-.014.371-.004.098-.011.215-.021.35h-5.152c.042.779.234 1.353.574 1.722.341.364.759.546 1.253.546.462 0 .815-.098 1.057-.294.248-.201.406-.425.476-.672h1.596c-.042.49-.196.91-.462 1.26a2.524 2.524 0 01-1.057.791c-.434.177-.931.266-1.491.266zm-1.19-4.746h2.786c-.014-.56-.149-.992-.406-1.295-.256-.308-.679-.462-1.267-.462-.611 0-1.066.205-1.365.616-.298.406-.466.968-.504 1.687.038-.21.117-.352.238-.427.122-.079.294-.119.518-.119zm5.918 4.641v-7.644h1.414l.182 2.947-.147-.406c.033-.308.093-.621.182-.938.093-.317.224-.609.392-.875.173-.266.392-.478.658-.637.271-.163.6-.245.987-.245.093 0 .187.005.28.014.093.009.18.026.259.049v1.764a2.225 2.225 0 00-.511-.098 4.616 4.616 0 00-.49-.028c-.182 0-.378.037-.588.112-.21.07-.404.177-.581.322a1.237 1.237 0 00-.385.539V172h-1.652zm8.011.119a4.402 4.402 0 01-1.54-.252 2.342 2.342 0 01-1.071-.777c-.262-.355-.406-.807-.434-1.358h1.596c.06.392.217.67.469.833.256.163.571.245.945.245.27 0 .511-.026.721-.077.214-.056.382-.147.504-.273.126-.131.189-.306.189-.525a.635.635 0 00-.105-.378.803.803 0 00-.308-.266 2.795 2.795 0 00-.518-.21 35.44 35.44 0 00-.714-.217 8.39 8.39 0 01-1.323-.497 2.537 2.537 0 01-.945-.749c-.234-.313-.35-.719-.35-1.218 0-.681.252-1.213.756-1.596.504-.387 1.152-.581 1.946-.581.513 0 .975.075 1.386.224.415.145.756.387 1.022.728.266.336.438.793.518 1.372l-1.596-.007c-.07-.271-.173-.478-.308-.623a1.065 1.065 0 00-.469-.308 1.694 1.694 0 00-.567-.091c-.224 0-.418.035-.581.105a.857.857 0 00-.378.294.769.769 0 00-.133.455.78.78 0 00.175.518c.121.135.301.254.539.357.242.098.543.201.903.308.289.084.588.177.896.28.308.098.595.224.861.378s.48.359.644.616c.163.252.245.581.245.987 0 .723-.273 1.288-.819 1.694-.542.406-1.26.609-2.156.609zm7.597-.014c-.705 0-1.318-.152-1.841-.455-.523-.303-.929-.749-1.218-1.337-.289-.593-.434-1.318-.434-2.177 0-.812.152-1.512.455-2.1a3.302 3.302 0 011.26-1.351 3.46 3.46 0 011.806-.476c.728 0 1.351.159 1.869.476.523.313.924.763 1.204 1.351.28.588.42 1.288.42 2.1 0 .859-.156 1.584-.469 2.177-.308.588-.728 1.034-1.26 1.337a3.556 3.556 0 01-1.792.455zm.028-1.407c.537 0 .975-.201 1.316-.602.341-.401.511-1.055.511-1.96 0-.84-.166-1.47-.497-1.89-.331-.42-.784-.63-1.358-.63-.537 0-.975.208-1.316.623-.336.415-.504 1.048-.504 1.897 0 .863.17 1.507.511 1.932.345.42.791.63 1.337.63zm5.104 1.302v-7.644h1.414l.182 2.884-.119-.581c.056-.42.166-.817.329-1.19.168-.378.418-.684.749-.917.332-.233.775-.35 1.33-.35.724 0 1.284.226 1.68.679.397.448.595 1.134.595 2.058V172h-1.652v-4.487c0-.439-.044-.791-.133-1.057-.084-.266-.221-.457-.413-.574-.191-.121-.445-.182-.763-.182-.345 0-.66.103-.945.308-.28.201-.48.429-.602.686V172h-1.652zm10.1.084a2.82 2.82 0 01-1.239-.259 2.096 2.096 0 01-.847-.735 1.962 1.962 0 01-.301-1.085c0-.453.082-.826.245-1.12a1.79 1.79 0 01.707-.7 3.962 3.962 0 011.099-.406c.299-.065.614-.119.945-.161.336-.042.646-.075.931-.098.285-.028.504-.047.658-.056v-.308c0-.518-.105-.905-.315-1.162-.205-.261-.555-.392-1.05-.392-.317 0-.583.04-.798.119a.857.857 0 00-.49.434c-.107.21-.166.518-.175.924h-1.505c-.051-.658.042-1.197.28-1.617a2.174 2.174 0 011.078-.938c.481-.205 1.048-.308 1.701-.308.387 0 .751.044 1.092.133.345.084.651.231.917.441.266.205.476.488.63.847.154.359.231.814.231 1.365V172h-1.617l.021-1.715a2.25 2.25 0 01-.672 1.288c-.359.341-.868.511-1.526.511zm.441-1.246c.243 0 .488-.042.735-.126.252-.084.471-.205.658-.364.191-.159.313-.345.364-.56v-1.4a8.554 8.554 0 00-.665.098c-.252.047-.469.089-.651.126-.523.107-.901.25-1.134.427-.229.173-.343.439-.343.798 0 .205.047.385.14.539a.972.972 0 00.385.343c.159.079.329.119.511.119zM312.06 172v-10.892h1.652V172h-1.652zm9.404.133c-.756 0-1.405-.166-1.946-.497a3.297 3.297 0 01-1.246-1.4c-.285-.597-.427-1.29-.427-2.079 0-.831.147-1.54.441-2.128.294-.588.702-1.036 1.225-1.344.522-.313 1.124-.469 1.806-.469.676 0 1.243.126 1.701.378.462.247.807.581 1.036 1.001.228.415.333.88.315 1.393h-1.589a1.788 1.788 0 00-.098-.56 1.102 1.102 0 00-.273-.434 1.15 1.15 0 00-.448-.28 1.895 1.895 0 00-.637-.098c-.654-.005-1.118.219-1.393.672-.271.453-.406 1.064-.406 1.834 0 .877.163 1.533.49 1.967.331.429.847.646 1.547.651.163 0 .34-.047.532-.14.196-.098.361-.236.497-.413.14-.182.207-.399.203-.651h1.575c.018.537-.11.999-.385 1.386-.271.387-.63.686-1.078.896-.448.21-.929.315-1.442.315zm7.393-.028c-.704 0-1.318-.152-1.841-.455-.522-.303-.928-.749-1.218-1.337-.289-.593-.434-1.318-.434-2.177 0-.812.152-1.512.455-2.1a3.302 3.302 0 011.26-1.351 3.46 3.46 0 011.806-.476c.728 0 1.351.159 1.869.476.523.313.924.763 1.204 1.351.28.588.42 1.288.42 2.1 0 .859-.156 1.584-.469 2.177-.308.588-.728 1.034-1.26 1.337a3.556 3.556 0 01-1.792.455zm.028-1.407c.537 0 .976-.201 1.316-.602.341-.401.511-1.055.511-1.96 0-.84-.165-1.47-.497-1.89-.331-.42-.784-.63-1.358-.63-.536 0-.975.208-1.316.623-.336.415-.504 1.048-.504 1.897 0 .863.171 1.507.511 1.932.346.42.791.63 1.337.63zM333.99 172v-7.644h1.414l.182 2.884-.119-.581c.056-.42.165-.817.329-1.19.168-.378.417-.684.749-.917.331-.233.774-.35 1.33-.35.723 0 1.283.226 1.68.679.396.448.595 1.134.595 2.058V172h-1.652v-4.487c0-.439-.045-.791-.133-1.057-.084-.266-.222-.457-.413-.574-.192-.121-.446-.182-.763-.182-.346 0-.661.103-.945.308-.28.201-.481.429-.602.686V172h-1.652zm10.226.112c-.607 0-1.08-.154-1.421-.462-.336-.313-.504-.758-.504-1.337v-3.864a.86.86 0 01.098-.413.44.44 0 01.287-.238l-.385-1.134v-.203l.371-2.289h1.26v7.728c0 .271.058.46.175.567.121.107.345.161.672.161h.581l.483-.014v1.407a5.747 5.747 0 01-.798.077 26.44 26.44 0 01-.819.014zm-2.926-6.314v-1.442h4.557v1.442h-4.557zm9.027 6.307c-.738 0-1.377-.149-1.918-.448a3.018 3.018 0 01-1.239-1.337c-.29-.588-.434-1.309-.434-2.163 0-.831.151-1.54.455-2.128.308-.593.73-1.043 1.267-1.351.536-.313 1.152-.469 1.848-.469.686 0 1.271.135 1.757.406.49.271.863.672 1.12 1.204.256.527.385 1.176.385 1.946a22.919 22.919 0 01-.035.721h-5.152c.042.779.233 1.353.574 1.722.34.364.758.546 1.253.546.462 0 .814-.098 1.057-.294.247-.201.406-.425.476-.672h1.596c-.042.49-.196.91-.462 1.26a2.53 2.53 0 01-1.057.791c-.434.177-.931.266-1.491.266zm-1.19-4.746h2.786c-.014-.56-.15-.992-.406-1.295-.257-.308-.679-.462-1.267-.462-.612 0-1.067.205-1.365.616-.299.406-.467.968-.504 1.687.037-.21.116-.352.238-.427.121-.079.294-.119.518-.119zM354.1 172l2.807-4.382.021 1.19-2.688-4.445h1.995l1.036 2.044.448.945.329-.924.966-2.065h1.981l-2.723 4.445.021-1.197 2.828 4.389h-2.051l-1.141-2.086-.441-.826-.343.875-1.071 2.037H354.1zm10.556.112c-.607 0-1.081-.154-1.421-.462-.336-.313-.504-.758-.504-1.337v-3.864c0-.154.032-.292.098-.413a.44.44 0 01.287-.238l-.385-1.134v-.203l.371-2.289h1.26v7.728c0 .271.058.46.175.567.121.107.345.161.672.161h.581l.483-.014v1.407a5.747 5.747 0 01-.798.077c-.29.009-.563.014-.819.014zm-2.926-6.314v-1.442h4.557v1.442h-4.557z" fill="#000"/><rect x="24" y="78" width="126" height="33" rx="12" fill="#fff"/><rect x="24" y="78" width="126" height="33" rx="12" fill="#64B6AC" fill-opacity=".5"/><path d="M42.907 100v-1.596h1.624c.57 0 1.087-.121 1.554-.364.467-.243.838-.625 1.113-1.148.28-.523.42-1.202.42-2.037 0-.873-.138-1.563-.413-2.072-.275-.513-.646-.88-1.113-1.099a3.578 3.578 0 00-1.568-.336h-1.673v-1.526h1.715c.938 0 1.764.177 2.478.532.719.355 1.281.903 1.687 1.645.41.737.616 1.685.616 2.842 0 1.13-.212 2.077-.637 2.842-.425.765-.996 1.344-1.715 1.736-.719.387-1.524.581-2.415.581h-1.673zm-1.449 0V89.822h1.673V100h-1.673zm12.545.105c-.737 0-1.377-.15-1.918-.448a3.024 3.024 0 01-1.239-1.337c-.29-.588-.434-1.309-.434-2.163 0-.83.152-1.54.455-2.128.308-.593.73-1.043 1.267-1.351.537-.313 1.153-.469 1.848-.469.686 0 1.272.135 1.757.406.49.27.863.672 1.12 1.204.257.527.385 1.176.385 1.946 0 .15-.005.273-.014.371l-.021.35h-5.152c.042.78.233 1.353.574 1.722.34.364.758.546 1.253.546.462 0 .814-.098 1.057-.294.247-.2.406-.425.476-.672h1.596c-.042.49-.196.91-.462 1.26a2.523 2.523 0 01-1.057.791c-.434.177-.931.266-1.491.266zm-1.19-4.746h2.786c-.014-.56-.15-.992-.406-1.295-.257-.308-.679-.462-1.267-.462-.611 0-1.066.205-1.365.616-.299.406-.467.968-.504 1.687.037-.21.117-.352.238-.427.121-.08.294-.119.518-.119zm9.202 4.746c-.738 0-1.377-.15-1.918-.448a3.023 3.023 0 01-1.24-1.337c-.289-.588-.433-1.309-.433-2.163 0-.83.151-1.54.455-2.128.308-.593.73-1.043 1.267-1.351.536-.313 1.152-.469 1.848-.469.686 0 1.271.135 1.757.406.49.27.863.672 1.12 1.204.256.527.385 1.176.385 1.946 0 .15-.005.273-.014.371a17.27 17.27 0 01-.021.35h-5.152c.042.78.233 1.353.574 1.722.34.364.758.546 1.253.546.462 0 .814-.098 1.057-.294.247-.2.406-.425.476-.672h1.596c-.042.49-.196.91-.462 1.26a2.524 2.524 0 01-1.057.791c-.434.177-.931.266-1.491.266zm-1.19-4.746h2.786c-.014-.56-.15-.992-.406-1.295-.257-.308-.68-.462-1.267-.462-.612 0-1.067.205-1.365.616-.299.406-.467.968-.504 1.687.037-.21.116-.352.238-.427.121-.08.294-.119.518-.119zm9.586 4.725c-.504 0-.905-.084-1.204-.252-.299-.168-.518-.364-.658-.588a2.019 2.019 0 01-.266-.602l-.56.028.651-.553a.799.799 0 00.217.343c.112.107.275.196.49.266.215.065.478.098.791.098.523 0 .952-.203 1.288-.609.34-.406.511-1.085.511-2.037 0-.821-.159-1.451-.476-1.89-.317-.443-.723-.665-1.218-.665-.35 0-.64.049-.868.147a1.458 1.458 0 00-.511.343 1.03 1.03 0 00-.224.35v-.525c.01-.154.049-.327.119-.518a1.828 1.828 0 011.015-1.022c.275-.121.616-.182 1.022-.182.616 0 1.134.166 1.554.497.42.331.737.786.952 1.365.22.574.329 1.227.329 1.96 0 .677-.084 1.27-.252 1.778-.163.504-.387.924-.672 1.26-.28.336-.595.588-.945.756a2.48 2.48 0 01-1.085.252zm-3.682 2.737V92.356h1.624l.021 1.057v4.767l-.091.462.091 1.365v2.814h-1.645zm10.8-2.821v-7.644h1.415l.182 2.947-.147-.406a5.74 5.74 0 01.182-.938c.093-.317.224-.609.392-.875.172-.266.392-.478.658-.637.27-.163.6-.245.987-.245.093 0 .187.005.28.014.093.01.18.026.259.049v1.764a2.205 2.205 0 00-.511-.098 4.696 4.696 0 00-.49-.028 1.76 1.76 0 00-.588.112c-.21.07-.404.177-.581.322a1.238 1.238 0 00-.385.539V100H77.53zm8.412.105c-.738 0-1.377-.15-1.919-.448a3.024 3.024 0 01-1.239-1.337c-.289-.588-.433-1.309-.433-2.163 0-.83.151-1.54.455-2.128.307-.593.73-1.043 1.266-1.351.537-.313 1.153-.469 1.849-.469.686 0 1.271.135 1.757.406.49.27.863.672 1.12 1.204.256.527.385 1.176.385 1.946 0 .15-.005.273-.014.371-.005.098-.012.215-.022.35h-5.151c.041.78.233 1.353.573 1.722.341.364.759.546 1.254.546.462 0 .814-.098 1.056-.294.248-.2.406-.425.477-.672h1.596c-.042.49-.197.91-.462 1.26a2.523 2.523 0 01-1.058.791c-.433.177-.93.266-1.49.266zm-1.19-4.746h2.785c-.014-.56-.149-.992-.406-1.295-.256-.308-.678-.462-1.266-.462-.612 0-1.067.205-1.365.616-.3.406-.467.968-.504 1.687.037-.21.116-.352.237-.427.122-.08.294-.119.519-.119zm8.678 4.76a4.405 4.405 0 01-1.54-.252 2.342 2.342 0 01-1.071-.777c-.261-.355-.406-.807-.434-1.358h1.596c.06.392.217.67.469.833.257.163.572.245.945.245.27 0 .51-.026.72-.077.216-.056.384-.147.505-.273.126-.13.189-.306.189-.525a.635.635 0 00-.105-.378.798.798 0 00-.308-.266 2.817 2.817 0 00-.518-.21 32.868 32.868 0 00-.714-.217 8.413 8.413 0 01-1.323-.497 2.545 2.545 0 01-.945-.749c-.233-.313-.35-.719-.35-1.218 0-.681.252-1.213.756-1.596.504-.387 1.153-.581 1.946-.581.513 0 .975.075 1.386.224.415.145.756.387 1.022.728.266.336.439.793.518 1.372l-1.596-.007c-.07-.27-.173-.478-.308-.623a1.057 1.057 0 00-.47-.308 1.7 1.7 0 00-.566-.091c-.224 0-.418.035-.581.105a.865.865 0 00-.378.294.77.77 0 00-.133.455c0 .205.058.378.175.518.121.135.3.254.539.357.243.098.544.2.903.308.29.084.588.177.896.28.308.098.595.224.86.378.267.154.482.36.645.616.163.252.245.581.245.987 0 .723-.273 1.288-.82 1.694-.54.406-1.26.609-2.155.609zm7.646-.014c-.737 0-1.376-.15-1.918-.448a3.023 3.023 0 01-1.239-1.337c-.289-.588-.434-1.309-.434-2.163 0-.83.152-1.54.455-2.128.308-.593.73-1.043 1.267-1.351.537-.313 1.153-.469 1.848-.469.686 0 1.272.135 1.757.406.49.27.864.672 1.12 1.204.257.527.385 1.176.385 1.946 0 .15-.004.273-.014.371-.004.098-.011.215-.021.35h-5.152c.042.78.234 1.353.574 1.722.341.364.759.546 1.253.546.462 0 .815-.098 1.057-.294.248-.2.406-.425.476-.672h1.596c-.042.49-.196.91-.462 1.26a2.521 2.521 0 01-1.057.791c-.434.177-.931.266-1.491.266zm-1.19-4.746h2.786c-.014-.56-.149-.992-.406-1.295-.256-.308-.679-.462-1.267-.462-.611 0-1.066.205-1.365.616-.298.406-.466.968-.504 1.687.038-.21.117-.352.238-.427.122-.08.294-.119.518-.119zm7.952 4.725c-.467 0-.88-.086-1.239-.259a2.094 2.094 0 01-.847-.735 1.962 1.962 0 01-.301-1.085c0-.453.081-.826.245-1.12.163-.294.399-.527.707-.7a3.95 3.95 0 011.099-.406c.298-.065.613-.119.945-.161.336-.042.646-.075.931-.098.284-.028.504-.047.658-.056v-.308c0-.518-.105-.905-.315-1.162-.206-.261-.556-.392-1.05-.392-.318 0-.584.04-.798.119a.857.857 0 00-.49.434c-.108.21-.166.518-.175.924h-1.505c-.052-.658.042-1.197.28-1.617a2.17 2.17 0 011.078-.938c.48-.205 1.047-.308 1.701-.308.387 0 .751.044 1.092.133.345.084.651.231.917.441.266.205.476.488.63.847.154.36.231.814.231 1.365V100h-1.617l.021-1.715a2.249 2.249 0 01-.672 1.288c-.36.34-.868.511-1.526.511zm.441-1.246c.242 0 .487-.042.735-.126.252-.084.471-.205.658-.364.191-.159.312-.345.364-.56v-1.4a8.485 8.485 0 00-.665.098c-.252.047-.469.089-.651.126-.523.107-.901.25-1.134.427-.229.173-.343.439-.343.798 0 .205.046.385.14.539.098.15.226.264.385.343.158.08.329.119.511.119zm5.387 1.162v-7.644h1.414l.182 2.947-.147-.406c.032-.308.093-.62.182-.938.093-.317.224-.609.392-.875.172-.266.392-.478.658-.637.27-.163.599-.245.987-.245.093 0 .186.005.28.014.093.01.179.026.259.049v1.764a2.21 2.21 0 00-.511-.098 4.712 4.712 0 00-.49-.028 1.76 1.76 0 00-.588.112c-.21.07-.404.177-.581.322a1.229 1.229 0 00-.385.539V100h-1.652zm8.46.133c-.756 0-1.405-.166-1.946-.497a3.302 3.302 0 01-1.246-1.4c-.285-.597-.427-1.29-.427-2.079 0-.83.147-1.54.441-2.128.294-.588.702-1.036 1.225-1.344.523-.313 1.125-.469 1.806-.469.677 0 1.244.126 1.701.378a2.47 2.47 0 011.036 1.001c.229.415.334.88.315 1.393h-1.589a1.759 1.759 0 00-.098-.56 1.102 1.102 0 00-.273-.434 1.15 1.15 0 00-.448-.28 1.883 1.883 0 00-.637-.098c-.653-.005-1.118.22-1.393.672-.271.453-.406 1.064-.406 1.834 0 .877.163 1.533.49 1.967.331.43.847.646 1.547.651.163 0 .341-.047.532-.14.196-.098.362-.236.497-.413.14-.182.208-.399.203-.651h1.575c.019.537-.11.999-.385 1.386-.271.387-.63.686-1.078.896-.448.21-.929.315-1.442.315zm4.391-.133V89.108h1.638v3.255l-.112 2.177.063.616-.084-.497c.056-.42.163-.817.322-1.19.163-.378.408-.684.735-.917.331-.233.775-.35 1.33-.35.723 0 1.281.226 1.673.679.397.448.595 1.134.595 2.058V100h-1.659v-4.487c0-.649-.096-1.113-.287-1.393-.191-.28-.534-.42-1.029-.42-.341 0-.649.114-.924.343a2.366 2.366 0 00-.616.749V100h-1.645z" fill="#000"/><rect y="192" width="158" height="33" rx="12" fill="#fff"/><rect y="192" width="158" height="33" rx="12" fill="#07A0C3" fill-opacity=".3"/><path d="M21.631 214.147c-.863 0-1.635-.198-2.317-.595-.68-.397-1.22-.985-1.616-1.764-.393-.779-.588-1.745-.588-2.898 0-1.083.19-2.016.573-2.8.388-.789.925-1.395 1.61-1.82.687-.425 1.482-.637 2.387-.637.65 0 1.258.126 1.828.378.573.252 1.04.635 1.4 1.148.359.509.548 1.155.566 1.939h-1.686c-.029-.467-.148-.842-.358-1.127a1.78 1.78 0 00-.797-.616 2.763 2.763 0 00-1.03-.189c-.504 0-.968.142-1.393.427-.42.285-.76.705-1.021 1.26-.257.555-.386 1.237-.386 2.044 0 .933.133 1.671.4 2.212.265.541.616.929 1.05 1.162.433.229.9.343 1.4.343.527 0 .942-.082 1.245-.245a1.5 1.5 0 00.659-.651c.14-.275.221-.572.245-.889h1.686c-.037.695-.21 1.29-.517 1.785a2.97 2.97 0 01-1.296 1.141c-.56.261-1.24.392-2.044.392zm8.389-.042c-.705 0-1.319-.152-1.841-.455-.523-.303-.93-.749-1.218-1.337-.29-.593-.434-1.318-.434-2.177 0-.812.151-1.512.454-2.1a3.302 3.302 0 011.26-1.351 3.46 3.46 0 011.806-.476c.729 0 1.351.159 1.87.476.522.313.923.763 1.203 1.351s.42 1.288.42 2.1c0 .859-.156 1.584-.468 2.177-.309.588-.729 1.034-1.26 1.337a3.557 3.557 0 01-1.793.455zm.027-1.407c.537 0 .976-.201 1.316-.602.341-.401.512-1.055.512-1.96 0-.84-.166-1.47-.497-1.89-.332-.42-.785-.63-1.358-.63-.537 0-.976.208-1.317.623-.335.415-.503 1.048-.503 1.897 0 .863.17 1.507.51 1.932.346.42.791.63 1.337.63zM35.153 214v-7.644h1.414l.182 2.884-.12-.581c.057-.42.167-.817.33-1.19.168-.378.418-.684.749-.917.331-.233.775-.35 1.33-.35.723 0 1.283.226 1.68.679.397.448.595 1.134.595 2.058V214H39.66v-4.487c0-.439-.044-.791-.133-1.057-.084-.266-.222-.457-.413-.574-.191-.121-.446-.182-.763-.182-.345 0-.66.103-.945.308-.28.201-.48.429-.602.686V214h-1.652zm10.226.112c-.606 0-1.08-.154-1.42-.462-.337-.313-.505-.758-.505-1.337v-3.864c0-.154.033-.292.098-.413a.44.44 0 01.287-.238l-.385-1.134v-.203l.371-2.289h1.26v7.728c0 .271.059.46.175.567.122.107.346.161.672.161h.581l.483-.014v1.407a5.735 5.735 0 01-.798.077c-.29.009-.562.014-.819.014zm-2.926-6.314v-1.442h4.557v1.442h-4.557zm9.027 6.307c-.738 0-1.377-.149-1.918-.448a3.023 3.023 0 01-1.24-1.337c-.289-.588-.433-1.309-.433-2.163 0-.831.151-1.54.455-2.128.308-.593.73-1.043 1.267-1.351.536-.313 1.152-.469 1.848-.469.686 0 1.271.135 1.757.406.49.271.863.672 1.12 1.204.256.527.385 1.176.385 1.946 0 .149-.005.273-.014.371l-.021.35h-5.152c.042.779.233 1.353.574 1.722.34.364.758.546 1.253.546.462 0 .814-.098 1.057-.294.247-.201.406-.425.476-.672h1.596c-.042.49-.196.91-.462 1.26a2.526 2.526 0 01-1.057.791c-.434.177-.931.266-1.491.266zm-1.19-4.746h2.786c-.014-.56-.15-.992-.406-1.295-.257-.308-.68-.462-1.267-.462-.612 0-1.067.205-1.365.616-.299.406-.467.968-.504 1.687.037-.21.116-.352.238-.427.121-.079.294-.119.518-.119zM55.262 214l2.807-4.382.021 1.19-2.688-4.445h1.995l1.036 2.044.448.945.33-.924.965-2.065h1.981l-2.723 4.445.021-1.197L62.283 214h-2.05l-1.142-2.086-.44-.826-.344.875-1.07 2.037h-1.975zm10.556.112c-.607 0-1.08-.154-1.421-.462-.336-.313-.504-.758-.504-1.337v-3.864c0-.154.032-.292.098-.413a.44.44 0 01.287-.238l-.385-1.134v-.203l.37-2.289h1.26v7.728c0 .271.059.46.176.567.121.107.345.161.672.161h.58l.484-.014v1.407a5.738 5.738 0 01-.798.077c-.29.009-.563.014-.82.014zm-2.926-6.314v-1.442h4.557v1.442h-4.557zm8.24 6.356c-.663 0-1.195-.231-1.597-.693-.4-.462-.602-1.125-.602-1.988v-5.117h1.652v4.676c0 .373.043.681.127.924s.216.42.398.532c.183.112.418.168.707.168.35 0 .666-.1.946-.301.284-.205.485-.436.602-.693v-5.306h1.651V214H73.61l-.188-2.884.125.581a4.25 4.25 0 01-.336 1.19 2.174 2.174 0 01-.748.917c-.332.233-.775.35-1.33.35zm7.89-.07c-.467 0-.88-.086-1.24-.259a2.097 2.097 0 01-.847-.735 1.965 1.965 0 01-.3-1.085c0-.453.08-.826.244-1.12.164-.294.4-.527.707-.7a3.959 3.959 0 011.1-.406c.298-.065.613-.119.944-.161.336-.042.647-.075.931-.098.285-.028.504-.047.658-.056v-.308c0-.518-.105-.905-.315-1.162-.205-.261-.555-.392-1.05-.392-.317 0-.583.04-.798.119a.859.859 0 00-.49.434c-.107.21-.165.518-.175.924h-1.505c-.051-.658.042-1.197.28-1.617a2.173 2.173 0 011.078-.938c.48-.205 1.048-.308 1.701-.308.388 0 .752.044 1.092.133.346.084.651.231.917.441.266.205.476.488.63.847.154.359.231.814.231 1.365V214h-1.617l.021-1.715a2.245 2.245 0 01-.672 1.288c-.36.341-.868.511-1.526.511zm.44-1.246c.243 0 .488-.042.735-.126.252-.084.472-.205.658-.364.192-.159.313-.345.364-.56v-1.4a8.561 8.561 0 00-.665.098c-.252.047-.469.089-.65.126-.523.107-.901.25-1.135.427-.228.173-.343.439-.343.798 0 .205.047.385.14.539a.975.975 0 00.385.343c.159.079.33.119.511.119zM84.85 214v-10.892H86.5V214H84.85zm8.626.112c-.607 0-1.08-.154-1.421-.462-.336-.313-.504-.758-.504-1.337v-3.864c0-.154.033-.292.098-.413a.44.44 0 01.287-.238l-.385-1.134v-.203l.37-2.289h1.26v7.728c0 .271.06.46.176.567.121.107.345.161.672.161h.58l.484-.014v1.407a5.738 5.738 0 01-.798.077c-.29.009-.562.014-.82.014zm-2.926-6.314v-1.442h4.557v1.442H90.55zM96.648 214v-7.644h1.414l.182 2.947-.147-.406c.033-.308.093-.621.182-.938.093-.317.224-.609.392-.875.173-.266.392-.478.658-.637.27-.163.6-.245.987-.245.093 0 .187.005.28.014.093.009.18.026.259.049v1.764a2.225 2.225 0 00-.511-.098 4.616 4.616 0 00-.49-.028c-.182 0-.378.037-.588.112a1.82 1.82 0 00-.581.322 1.237 1.237 0 00-.385.539V214h-1.652zm5.442 0v-7.644h1.673l-.021 7.644h-1.652zm.847-8.771c-.304 0-.56-.105-.77-.315a1.124 1.124 0 01-.315-.819c0-.327.105-.593.315-.798a1.06 1.06 0 01.77-.308c.294 0 .546.103.756.308.214.205.322.471.322.798 0 .331-.108.604-.322.819-.21.21-.462.315-.756.315zm5.896 11.893a4.384 4.384 0 01-1.68-.308 2.409 2.409 0 01-1.148-.924c-.271-.415-.376-.936-.315-1.561h1.596c-.005.266.028.504.098.714a.9.9 0 00.441.511c.224.126.564.189 1.022.189.396 0 .7-.056.91-.168a.859.859 0 00.434-.511c.074-.229.112-.525.112-.889v-2.072c-.042.219-.133.45-.273.693-.14.243-.357.448-.651.616-.294.163-.691.245-1.19.245-.453 0-.857-.1-1.211-.301a2.821 2.821 0 01-.903-.812 3.848 3.848 0 01-.567-1.148 4.698 4.698 0 01-.189-1.33c0-.849.14-1.559.42-2.128.284-.569.651-.999 1.099-1.288a2.578 2.578 0 011.421-.434c.443 0 .8.061 1.071.182.275.121.49.268.644.441.154.173.266.343.336.511l.007-.987h1.617v7.798c0 .691-.136 1.253-.406 1.687a2.353 2.353 0 01-1.099.952c-.467.205-.999.313-1.596.322zm-.077-4.788c.35 0 .632-.047.847-.14.214-.098.378-.212.49-.343.112-.135.182-.252.21-.35v-3.199a.903.903 0 00-.259-.329 1.521 1.521 0 00-.497-.266 2.369 2.369 0 00-.756-.105c-.518 0-.943.191-1.274.574-.332.383-.497.982-.497 1.799 0 .742.163 1.321.49 1.736.331.415.746.623 1.246.623zm8.28 4.788a4.384 4.384 0 01-1.68-.308 2.413 2.413 0 01-1.148-.924c-.271-.415-.376-.936-.315-1.561h1.596c-.005.266.028.504.098.714a.9.9 0 00.441.511c.224.126.565.189 1.022.189.397 0 .7-.056.91-.168a.855.855 0 00.434-.511c.075-.229.112-.525.112-.889v-2.072c-.042.219-.133.45-.273.693-.14.243-.357.448-.651.616-.294.163-.691.245-1.19.245-.453 0-.856-.1-1.211-.301a2.821 2.821 0 01-.903-.812 3.896 3.896 0 01-.567-1.148 4.698 4.698 0 01-.189-1.33c0-.849.14-1.559.42-2.128.285-.569.651-.999 1.099-1.288a2.58 2.58 0 011.421-.434c.443 0 .8.061 1.071.182.275.121.49.268.644.441.154.173.266.343.336.511l.007-.987h1.617v7.798c0 .691-.135 1.253-.406 1.687a2.348 2.348 0 01-1.099.952c-.467.205-.999.313-1.596.322zm-.077-4.788c.35 0 .632-.047.847-.14.215-.098.378-.212.49-.343.112-.135.182-.252.21-.35v-3.199a.903.903 0 00-.259-.329 1.521 1.521 0 00-.497-.266 2.36 2.36 0 00-.756-.105c-.518 0-.943.191-1.274.574-.331.383-.497.982-.497 1.799 0 .742.163 1.321.49 1.736.331.415.747.623 1.246.623zm8.307 1.771c-.738 0-1.377-.149-1.918-.448a3.018 3.018 0 01-1.239-1.337c-.29-.588-.434-1.309-.434-2.163 0-.831.151-1.54.455-2.128.308-.593.73-1.043 1.267-1.351.536-.313 1.152-.469 1.848-.469.686 0 1.271.135 1.757.406.49.271.863.672 1.12 1.204.256.527.385 1.176.385 1.946a22.919 22.919 0 01-.035.721h-5.152c.042.779.233 1.353.574 1.722.34.364.758.546 1.253.546.462 0 .814-.098 1.057-.294.247-.201.406-.425.476-.672h1.596c-.042.49-.196.91-.462 1.26a2.53 2.53 0 01-1.057.791c-.434.177-.931.266-1.491.266zm-1.19-4.746h2.786c-.014-.56-.15-.992-.406-1.295-.257-.308-.679-.462-1.267-.462-.612 0-1.067.205-1.365.616-.299.406-.467.968-.504 1.687.037-.21.116-.352.238-.427.121-.079.294-.119.518-.119zm5.918 4.641v-7.644h1.414l.182 2.947-.147-.406a5.62 5.62 0 01.182-.938c.093-.317.224-.609.392-.875.172-.266.392-.478.658-.637.27-.163.599-.245.987-.245.093 0 .186.005.28.014.093.009.179.026.259.049v1.764a2.225 2.225 0 00-.511-.098 4.63 4.63 0 00-.49-.028c-.182 0-.378.037-.588.112-.21.07-.404.177-.581.322a1.229 1.229 0 00-.385.539V214h-1.652zm8.01.119a4.406 4.406 0 01-1.54-.252 2.342 2.342 0 01-1.071-.777c-.261-.355-.406-.807-.434-1.358h1.596c.061.392.217.67.469.833.257.163.572.245.945.245.271 0 .511-.026.721-.077.215-.056.383-.147.504-.273.126-.131.189-.306.189-.525a.635.635 0 00-.105-.378.796.796 0 00-.308-.266 2.767 2.767 0 00-.518-.21 31.876 31.876 0 00-.714-.217 8.466 8.466 0 01-1.323-.497 2.537 2.537 0 01-.945-.749c-.233-.313-.35-.719-.35-1.218 0-.681.252-1.213.756-1.596.504-.387 1.153-.581 1.946-.581.513 0 .975.075 1.386.224.415.145.756.387 1.022.728.266.336.439.793.518 1.372l-1.596-.007c-.07-.271-.173-.478-.308-.623a1.06 1.06 0 00-.469-.308 1.694 1.694 0 00-.567-.091c-.224 0-.418.035-.581.105a.868.868 0 00-.378.294.769.769 0 00-.133.455.78.78 0 00.175.518c.121.135.301.254.539.357.243.098.544.201.903.308.289.084.588.177.896.28.308.098.595.224.861.378s.481.359.644.616c.163.252.245.581.245.987 0 .723-.273 1.288-.819 1.694-.541.406-1.26.609-2.156.609z" fill="#000"/><defs><filter id="filter0_dd_464_5905" x="108.127" y="40.78" width="193.408" height="270.39" filterUnits="userSpaceOnUse" color-interpolation-filters="sRGB"><feFlood flood-opacity="0" result="BackgroundImageFix"/><feColorMatrix in="SourceAlpha" values="0 0 0 0 0 0 0 0 0 0 0 0 0 0 0 0 0 0 127 0" result="hardAlpha"/><feOffset dy="2"/><feGaussianBlur stdDeviation="2.5"/><feComposite in2="hardAlpha" operator="out"/><feColorMatrix values="0 0 0 0 0 0 0 0 0 0.0509804 0 0 0 0 0.14902 0 0 0 0.15 0"/><feBlend in2="BackgroundImageFix" result="effect1_dropShadow_464_5905"/><feColorMatrix in="SourceAlpha" values="0 0 0 0 0 0 0 0 0 0 0 0 0 0 0 0 0 0 127 0" result="hardAlpha"/><feOffset dy="12"/><feGaussianBlur stdDeviation="8"/><feComposite in2="hardAlpha" operator="out"/><feColorMatrix values="0 0 0 0 0.0625 0 0 0 0 0.125 0 0 0 0 0.25 0 0 0 0.1 0"/><feBlend in2="effect1_dropShadow_464_5905" result="effect2_dropShadow_464_5905"/><feBlend in="SourceGraphic" in2="effect2_dropShadow_464_5905" result="shape"/></filter><filter id="filter1_d_464_5905" x="177.976" y="60.199" width="41.943" height="11.901" filterUnits="userSpaceOnUse" color-interpolation-filters="sRGB"><feFlood flood-opacity="0" result="BackgroundImageFix"/><feColorMatrix in="SourceAlpha" values="0 0 0 0 0 0 0 0 0 0 0 0 0 0 0 0 0 0 127 0" result="hardAlpha"/><feOffset dy="1"/><feGaussianBlur stdDeviation=".5"/><feComposite in2="hardAlpha" operator="out"/><feColorMatrix values="0 0 0 0 1 0 0 0 0 1 0 0 0 0 1 0 0 0 0.5 0"/><feBlend in2="BackgroundImageFix" result="effect1_dropShadow_464_5905"/><feBlend in="SourceGraphic" in2="effect1_dropShadow_464_5905" result="shape"/></filter><filter id="filter2_f_464_5905" x="185.5" y="49.5" width="9.5" height="17" filterUnits="userSpaceOnUse" color-interpolation-filters="sRGB"><feFlood flood-opacity="0" result="BackgroundImageFix"/><feBlend in="SourceGraphic" in2="BackgroundImageFix" result="shape"/><feGaussianBlur stdDeviation=".5" result="effect1_foregroundBlur_464_5905"/></filter><linearGradient id="paint0_linear_464_5905" x1="196.831" y1="21.198" x2="199.684" y2="69.113" gradientUnits="userSpaceOnUse"><stop stop-color="#E6E8EB"/><stop offset=".84" stop-color="#C1C5CD"/><stop offset="1" stop-color="#737373"/></linearGradient><clipPath id="clip0_464_5905"><path d="M124.84 65.555c-.394-6.616 4.65-12.298 11.266-12.692l123.781-7.37c6.615-.394 12.298 4.65 12.692 11.266l12.243 205.636c.394 6.615-4.65 12.298-11.266 12.692l-123.781 7.369c-6.615.394-12.298-4.649-12.692-11.265L124.84 65.555z" fill="#fff"/></clipPath></defs></svg>