<svg width="1197" height="684" fill="none" xmlns="http://www.w3.org/2000/svg">
    <mask id="a" style="mask-type:alpha" maskUnits="userSpaceOnUse" x="0" y="0" width="1197" height="684">
    <path fill="#D9D9D9" d="M0 0h1197v684H0z"/>
</mask>
<style>
    path {
        filter: blur(8px);
    }

    @keyframes pulse {
        0%, 100% { transform: scale(1); }
        30% { transform: scale(1.07); }
        70% { transform: scale(0.95); }
    }

    .el3 {
        animation: pulse 10s cubic-bezier(0.5, 0, 0.5, 1) infinite;
        transform-origin: 50%;
    }
</style>
<g mask="url(#a)">
    <path class="el3" opacity=".1" fill-rule="evenodd" clip-rule="evenodd" d="M599 828c346.283 0 627-217.59 627-486 0-268.41-280.717-486-627-486S-28 73.59-28 342c0 268.41 280.717 486 627 486zm0 0c-214.839 0-389-217.59-389-486 0-268.41 174.161-486 389-486S988 73.59 988 342c0 268.41-174.161 486-389 486z" fill="#000D26"/>
    <path class="el2" opacity=".15" fill-rule="evenodd" clip-rule="evenodd" d="M1445 342c0 268.41-378.77 486-846 486 346.282 0 627-217.59 627-486 0-268.41-280.718-486-627-486 467.23 0 846 217.59 846 486zM599-144c-467.233 0-846 217.59-846 486 0 268.41 378.767 486 846 486-346.283 0-627-217.59-627-486 0-268.41 280.717-486 627-486z" fill="#FFD200"/>
    <ellipse class="el1" opacity=".05" cx="599" cy="342" rx="389" ry="486" fill="#152647"/>
    <ellipse opacity=".1" cx="599" cy="342" rx="846" ry="486" stroke="url(#paint0_linear_460_5816)" stroke-opacity=".5" stroke-width="2"/>
    <ellipse opacity=".05" cx="599" cy="342" rx="627" ry="486" stroke="url(#paint1_linear_460_5816)" stroke-opacity=".5" stroke-width="2"/>
    <ellipse opacity=".05" cx="599" cy="342" rx="389" ry="486" stroke="url(#paint2_linear_460_5816)" stroke-opacity=".5" stroke-width="2"/>
</g>
<path fill="#FFD601" fill-opacity=".1" d="M0 0h1197v684H0z"/>
<defs>
    <linearGradient id="paint0_linear_460_5816" x1="599" y1="-144" x2="599" y2="828" gradientUnits="userSpaceOnUse">
        <stop stop-color="#000D26"/>
        <stop offset="1" stop-color="#152647" stop-opacity=".5"/>
    </linearGradient>
    <linearGradient id="paint1_linear_460_5816" x1="599" y1="-144" x2="599" y2="828" gradientUnits="userSpaceOnUse">
        <stop stop-color="#000D26"/>
        <stop offset="1" stop-color="#152647" stop-opacity=".5"/>
    </linearGradient>
    <linearGradient id="paint2_linear_460_5816" x1="599" y1="-144" x2="599" y2="828" gradientUnits="userSpaceOnUse">
        <stop stop-color="#000D26"/><stop offset="1" stop-color="#152647" stop-opacity=".5"/>
    </linearGradient>
</defs>
</svg>