<svg width="500" height="500" viewBox="0 0 500 500" fill="none" xmlns="http://www.w3.org/2000/svg">

<style>
   @keyframes rotate {
    100% {
        transform: rotate(1turn);
    }
}

@keyframes fadeIn {
    0% {
        opacity: 0;
    }
    100% {
        opacity: 1;
    }
}

path {
    animation: rotate 6s ease-in-out infinite, fadeIn 0.9s ease-in-out forwards, bounce 2s ease-in-out infinite; /* Adjusted fadeIn to finish by 1s */
    transform-origin: center;
    opacity: 0;
}

path:nth-of-type(1) {
    animation-duration: 6s, 0.9s;
    animation-delay: 0s, 0.1s;
}

path:nth-of-type(2) {
    animation-duration: 6.2s, 0.9s;
    animation-delay: 0.2s, 0.2s;
}

path:nth-of-type(3) {
    animation-duration: 6.4s, 0.9s;
    animation-delay: 0.4s, 0.3s;
}

path:nth-of-type(4) {
    animation-duration: 6.6s, 0.9s;
    animation-delay: 0.6s, 0.4s;
}

path:nth-of-type(5) {
    animation-duration: 6.8s, 0.9s;
    animation-delay: 0.8s, 0.5s;
}

path:nth-of-type(6) {
    animation-duration: 7s, 0.9s;
    animation-delay: 1s, 0.6s;
}

path:nth-of-type(7) {
    animation-duration: 7.2s, 0.9s;
    animation-delay: 1.2s, 0.7s;
}

path:nth-of-type(8) {
    animation-duration: 7.4s, 0.9s;
    animation-delay: 1.4s, 0.8s;
}

path:nth-of-type(9) {
    animation-duration: 7.6s, 0.9s;
    animation-delay: 1.6s, 0.9s;
}

path:nth-of-type(10) {
    animation-duration: 7.8s, 0.9s;
    animation-delay: 1.8s, 1s;
}

path:nth-of-type(11) {
    animation-duration: 8s, 0.9s;
    animation-delay: 2s, 1.1s;
}

path:nth-of-type(12) {
    animation-duration: 8.2s, 0.9s;
    animation-delay: 2.2s, 1.2s;
}

path:nth-of-type(13) {
    animation-duration: 8.4s, 0.9s;
    animation-delay: 2.4s, 1.3s;
}

path:nth-of-type(14) {
    animation-duration: 8.6s, 0.9s;
    animation-delay: 2.6s, 1.4s;
}

path:nth-of-type(15) {
    animation-duration: 8.8s, 0.9s;
    animation-delay: 2.8s, 1.5s;
}

path:nth-of-type(16) {
    animation-duration: 9s, 0.9s;
    animation-delay: 3s, 1.6s;
}

path:nth-of-type(17) {
    animation-duration: 9.2s, 0.9s;
    animation-delay: 3.2s, 1.7s;
}

path:nth-of-type(18) {
    animation-duration: 9.4s, 0.9s;
    animation-delay: 3.4s, 1.8s;
}

path:nth-of-type(19) {
    animation-duration: 9.6s, 0.9s;
    animation-delay: 3.6s, 1.9s;
}

path:nth-of-type(20) {
    animation-duration: 9.8s, 0.9s;
    animation-delay: 3.8s, 2s;
}

path:nth-of-type(21) {
    animation-duration: 10s, 0.9s;
    animation-delay: 4s, 2.1s;
}

path:nth-of-type(22) {
    animation-duration: 10.2s, 0.9s;
    animation-delay: 4.2s, 2.2s;
}

</style>




<g>
    <circle cx="250" cy="250" r="38" fill="#FF4C00"/>
    
    <path d="M283 283C301.225 264.775 301.225 235.225 283 217C264.775 198.775 235.225 198.775 217 217C198.774 235.225 198.774 264.775 217 283" stroke="#0D0400" stroke-width="4" stroke-linecap="round"/>
    <path d="M306.569 250C306.569 218.758 281.242 193.431 250 193.431C218.758 193.431 193.431 218.758 193.431 250C193.431 281.242 218.758 306.569 250 306.569" stroke="#0D0400" stroke-width="4" stroke-linecap="round"/>
    <path d="M296.669 203.331C270.894 177.556 229.106 177.556 203.331 203.331C177.556 229.106 177.556 270.894 203.331 296.669C229.106 322.444 270.894 322.444 296.669 296.669" stroke="#0D0400" stroke-width="4" stroke-linecap="round"/>
    <path d="M325 250C325 208.579 291.421 175 250 175C208.579 175 175 208.579 175 250C175 291.421 208.579 325 250 325" stroke="#0D0400" stroke-width="3.7" stroke-linecap="round"/>
    <path d="M309.397 309.397C342.201 276.593 342.201 223.407 309.397 190.603C276.593 157.799 223.407 157.799 190.603 190.603C157.799 223.407 157.799 276.593 190.603 309.397" stroke="#0D0400" stroke-width="3.55" stroke-linecap="round"/>
    <path d="M250 343C301.362 343 343 301.362 343 250C343 198.638 301.362 157 250 157C198.638 157 157 198.638 157 250" stroke="#0D0400" stroke-width="3.4" stroke-linecap="round"/>
    <path d="M177.875 322.125C217.709 361.958 282.291 361.958 322.125 322.125C361.958 282.291 361.958 217.709 322.125 177.875C282.291 138.042 217.709 138.042 177.875 177.875" stroke="#0D0400" stroke-width="3.25" stroke-linecap="round"/>
    <path d="M139 250C139 311.304 188.696 361 250 361C311.304 361 361 311.304 361 250C361 188.696 311.304 139 250 139" stroke="#0D0400" stroke-width="3.1" stroke-linecap="round"/>
    <path d="M165.147 165.147C118.284 212.01 118.284 287.99 165.147 334.853C212.01 381.716 287.99 381.716 334.853 334.853C381.716 287.99 381.716 212.01 334.853 165.147" stroke="#0D0400" stroke-width="2.95" stroke-linecap="round"/>
    <path d="M250 121C178.755 121 121 178.755 121 250C121 321.245 178.755 379 250 379C321.245 379 379 321.245 379 250" stroke="#0D0400" stroke-width="2.8" stroke-linecap="round"/>
    <path d="M347.581 152.419C293.688 98.5268 206.312 98.5268 152.419 152.419C98.5269 206.312 98.5269 293.688 152.419 347.581C206.312 401.473 293.688 401.473 347.581 347.581" stroke="#0D0400" stroke-width="2.65" stroke-linecap="round"/>
    <path d="M397 250C397 168.814 331.186 103 250 103C168.814 103 103 168.814 103 250C103 331.186 168.814 397 250 397" stroke="#0D0400" stroke-width="2.45" stroke-linecap="round"/>
    <path d="M360.309 360.309C421.23 299.387 421.23 200.613 360.309 139.691C299.387 78.7696 200.613 78.7696 139.691 139.691C78.7694 200.613 78.7694 299.387 139.691 360.309" stroke="#0D0400" stroke-width="2.3" stroke-linecap="round"/>
    <path d="M250 415C341.127 415 415 341.127 415 250C415 158.873 341.127 85 250 85C158.873 85 85 158.873 85 250" stroke="#0D0400" stroke-width="2.2" stroke-linecap="round"/>
    <path d="M126.963 373.037C194.915 440.988 305.085 440.988 373.037 373.037C440.988 305.085 440.988 194.915 373.037 126.963C305.085 59.0122 194.915 59.0122 126.963 126.963" stroke="#0D0400" stroke-width="2.05" stroke-linecap="round"/>
    <path d="M67 250C67 351.068 148.932 433 250 433C351.068 433 433 351.068 433 250C433 148.932 351.068 67 250 67" stroke="#0D0400" stroke-width="1.9" stroke-linecap="round"/>
    <path d="M114.236 114.236C39.2549 189.216 39.2549 310.784 114.236 385.764C189.216 460.745 310.784 460.745 385.765 385.764C460.745 310.784 460.745 189.216 385.765 114.236" stroke="#0D0400" stroke-width="1.75" stroke-linecap="round"/>
    <path d="M250 49C138.991 49 49 138.991 49 250C49 361.009 138.991 451 250 451C361.009 451 451 361.009 451 250" stroke="#0D0400" stroke-width="1.6" stroke-linecap="round"/>
    <path d="M398.492 101.508C316.482 19.4975 183.518 19.4975 101.508 101.508C19.4975 183.518 19.4975 316.482 101.508 398.492C183.518 480.503 316.482 480.503 398.492 398.492" stroke="#0D0400" stroke-width="1.45" stroke-linecap="round"/>
    <path d="M469 250C469 129.05 370.95 31 250 31C129.05 31 31 129.05 31 250C31 370.95 129.05 469 250 469" stroke="#0D0400" stroke-width="1.3" stroke-linecap="round"/>
    <path d="M411.22 411.22C500.26 322.181 500.26 177.819 411.22 88.7797C322.181 -0.259889 177.819 -0.259889 88.7797 88.7797C-0.259864 177.819 -0.259864 322.181 88.7797 411.22" stroke="#0D0400" stroke-width="1.15" stroke-linecap="round"/>
    <path d="M250 487C380.891 487 487 380.891 487 250C487 119.109 380.891 13 250 13C119.109 13 13 119.109 13 250" stroke="#0D0400" stroke-linecap="round"/>
    
  </g>



</svg>
