<?xml version="1.0" encoding="UTF-8" standalone="no"?>
<!DOCTYPE svg PUBLIC "-//W3C//DTD SVG 1.1//EN" "http://www.w3.org/Graphics/SVG/1.1/DTD/svg11.dtd">
<svg width="100%" height="100%" viewBox="0 0 700 700" version="1.1" xmlns="http://www.w3.org/2000/svg" xmlns:xlink="http://www.w3.org/1999/xlink" xml:space="preserve" xmlns:serif="http://www.serif.com/" style="fill-rule:evenodd;clip-rule:evenodd;stroke-linejoin:round;stroke-miterlimit:2;">
    <g id="Group-67.svg" serif:id="Group 67.svg" transform="matrix(3.82759,0,0,3.82759,350,350)">
        <g transform="matrix(1,0,0,1,-68.5,-72.5)">
            <path d="M23.659,125.078L23.659,144.807L76.084,144.807C95.559,144.807 110.443,140.012 120.737,130.421C131.17,120.694 136.387,106.034 136.387,86.443L136.387,59.521C136.387,39.93 131.17,25.27 120.737,15.543C110.443,5.815 95.559,0.952 76.084,0.952L23.659,0.952L23.659,20.68L37.273,20.68L37.273,20.682L76.293,20.682C88.951,20.682 98.341,24.38 104.462,30.545C110.583,36.71 113.643,46.095 113.643,58.699L113.643,87.059C113.643,99.527 110.583,108.912 104.462,115.214C98.341,121.516 88.951,125.057 76.293,125.057L37.273,125.057L37.273,125.078L23.659,125.078Z" style="fill:rgb(0,13,38);fill-rule:nonzero;"/>
            <path d="M0.159,72.879C0.159,71.171 1.548,69.799 3.251,69.679C24.691,68.165 41.819,51.037 43.332,29.597C43.453,27.894 44.825,26.505 46.533,26.505C48.24,26.505 49.613,27.894 49.733,29.597C51.246,51.037 68.374,68.165 89.814,69.679C91.517,69.799 92.906,71.171 92.906,72.879C92.906,74.586 91.517,75.959 89.814,76.079C68.374,77.592 51.246,94.721 49.733,116.16C49.613,117.863 48.24,119.252 46.533,119.252C44.825,119.252 43.453,117.863 43.332,116.16C41.819,94.721 24.691,77.592 3.251,76.079C1.548,75.959 0.159,74.586 0.159,72.879Z" style="fill:rgb(0,13,38);fill-rule:nonzero;"/>
        </g>
    </g>
</svg>
