<?xml version="1.0" standalone="no"?>
<!DOCTYPE svg PUBLIC "-//W3C//DTD SVG 20010904//EN"
 "http://www.w3.org/TR/2001/REC-SVG-20010904/DTD/svg10.dtd">
<svg version="1.0" xmlns="http://www.w3.org/2000/svg"
 width="700.000000pt" height="700.000000pt" viewBox="0 0 700.000000 700.000000"
 preserveAspectRatio="xMidYMid meet">
<metadata>
Created by potrace 1.14, written by Peter Selinger 2001-2017
</metadata>
<g transform="translate(0.000000,700.000000) scale(0.100000,-0.100000)"
fill="#000000" stroke="none">
<path d="M813 5877 c4 -188 11 -401 17 -472 72 -924 306 -1438 782 -1716 149
-87 394 -162 578 -176 44 -3 80 -9 80 -13 0 -4 -36 -10 -80 -13 -341 -27 -689
-194 -889 -429 -347 -407 -490 -1021 -491 -2095 l0 -183 204 0 203 0 6 388 c8
492 31 748 93 1044 111 527 330 854 689 1028 221 108 459 158 838 176 l137 7
0 76 0 77 -197 12 c-366 22 -587 72 -798 180 -544 279 -765 909 -765 2178 l0
274 -207 0 -206 0 6 -343z"/>
<path d="M1820 6000 c0 -340 30 -542 121 -815 114 -343 298 -642 554 -901 422
-426 943 -660 1558 -699 l107 -7 0 -77 0 -77 -153 -12 c-568 -43 -1063 -263
-1476 -657 -295 -282 -530 -683 -636 -1085 -55 -209 -67 -317 -72 -612 l-5
-278 400 0 399 0 6 268 c6 292 21 418 78 630 172 650 625 1200 1232 1497 294
144 588 220 925 241 l112 7 0 77 0 77 -112 7 c-340 21 -630 97 -923 240 -610
299 -1062 848 -1234 1498 -57 212 -72 338 -78 631 l-6 267 -398 0 -399 0 0
-220z"/>
<path d="M3014 5998 c9 -322 37 -491 118 -728 151 -440 455 -827 858 -1090
183 -119 417 -219 641 -274 174 -42 310 -56 544 -56 l215 0 0 -350 0 -350
-215 0 c-386 0 -659 -59 -970 -210 -210 -102 -385 -227 -559 -398 -335 -330
-545 -748 -611 -1214 -8 -57 -18 -203 -21 -325 l-7 -223 314 0 c342 0 493 12
704 56 499 106 951 343 1318 694 452 432 737 993 824 1620 23 172 23 528 0
700 -60 430 -203 807 -442 1165 -384 575 -961 975 -1635 1134 -234 55 -314 63
-714 68 l-369 5 7 -224z"/>
</g>
</svg>
