<?xml version="1.0" standalone="no"?>
<!DOCTYPE svg PUBLIC "-//W3C//DTD SVG 20010904//EN"
 "http://www.w3.org/TR/2001/REC-SVG-20010904/DTD/svg10.dtd">
<svg version="1.0" xmlns="http://www.w3.org/2000/svg"
 width="700.000000pt" height="700.000000pt" viewBox="0 0 700.000000 700.000000"
 preserveAspectRatio="xMidYMid meet">
<metadata>
Created by potrace 1.14, written by Peter Selinger 2001-2017
</metadata>
<g transform="translate(0.000000,700.000000) scale(0.100000,-0.100000)"
fill="#000000" stroke="none">
<path d="M880 6116 c0 -2 83 -178 184 -392 l184 -389 181 -3 181 -2 0 -2225 0
-2225 1098 0 c930 0 1118 2 1232 16 515 59 865 225 1234 584 309 300 516 613
679 1025 146 370 204 694 194 1090 -9 363 -67 652 -192 956 -355 867 -1097
1448 -1985 1555 -93 11 -392 13 -1552 14 -791 0 -1438 -2 -1438 -4z m3025
-809 c359 -61 602 -184 842 -429 128 -131 214 -254 303 -433 168 -340 228
-628 217 -1048 -4 -175 -10 -233 -31 -335 -85 -401 -251 -710 -524 -973 -221
-214 -539 -386 -842 -454 -64 -15 -176 -18 -759 -26 -377 -5 -691 -7 -698 -5
-11 4 -13 344 -13 1859 0 1020 3 1857 7 1861 5 4 321 6 703 3 590 -3 710 -6
795 -20z"/>
</g>
</svg>
