<svg width="32" height="32" fill="none" xmlns="http://www.w3.org/2000/svg"><g clip-path="url(#clip0_464_5930)"><path d="M16 22c2.21 0 4-1.79 4-4s-1.79-4-4-4-4 1.79-4 4 1.79 4 4 4zm0-6c1.1 0 2 .9 2 2s-.9 2-2 2-2-.9-2-2 .9-2 2-2z" fill="url(#paint0_linear_464_5930)"/><path d="M24 2H8c-1.1 0-2 .9-2 2v24c0 1.1.9 2 2 2h16c1.1 0 2-.9 2-2V4c0-1.1-.9-2-2-2zm-4 26h-8v-2c0-.55.45-1 1-1h6c.55 0 1 .45 1 1v2zm2 0v-2c0-1.66-1.34-3-3-3h-6c-1.66 0-3 1.34-3 3v2H8V4h16v24h-2z" fill="url(#paint1_linear_464_5930)"/><path d="M18 6h-4v2h4V6z" fill="url(#paint2_linear_464_5930)"/></g><defs><linearGradient id="paint0_linear_464_5930" x1="12.191" y1="13.944" x2="20.751" y2="21.514" gradientUnits="userSpaceOnUse"><stop stop-color="#64B6AC"/><stop offset="1" stop-color="#77D9CD"/></linearGradient><linearGradient id="paint1_linear_464_5930" x1="6.476" y1="1.802" x2="33.739" y2="19.023" gradientUnits="userSpaceOnUse"><stop stop-color="#64B6AC"/><stop offset="1" stop-color="#77D9CD"/></linearGradient><linearGradient id="paint2_linear_464_5930" x1="14.095" y1="5.986" x2="15.943" y2="9.254" gradientUnits="userSpaceOnUse"><stop stop-color="#64B6AC"/><stop offset="1" stop-color="#77D9CD"/></linearGradient><clipPath id="clip0_464_5930"><path fill="#fff" d="M0 0h32v32H0z"/></clipPath></defs></svg>