<svg width="500" height="500" viewBox="0 0 500 500" fill="none" xmlns="http://www.w3.org/2000/svg">

    <style>

    @keyframes rotateTick {
        0%, 10%, 90%, 100% { transform: rotate(0); }
        30%, 70% { transform: rotate(1turn); }
    }

    @keyframes rotateTock {
        0%, 10%, 90%, 100% { transform: rotate(0); }
        30%, 70% { transform: rotate(-1turn); fill: }
    }

    @keyframes translateHor {
        40%, 60% { transform: translateX(58px); fill: initial; }
        0%, 20%, 80%, 100% { transform: translateX(0); fill: #FFD601; }
    }

    @keyframes translateHor2 {
        40%, 60% { transform: translateX(-58px); }
        0%, 20%, 80%, 100% { transform: translateX(0); }
    }

    @keyframes translateVer {
        35%, 65% { transform: translateY(58px); }
        0%, 100% { transform: translateX(0); }
    }

    @keyframes translateVer2 {
        35%, 65% { transform: translateY(-58px); fill: initial; }
        0%, 100% { transform: translateX(0); fill: #FFD601; }
    }


    .cell {
        animation: rotateTick 4s ease infinite;
        transform-box: fill-box;
        transform-origin: center;
    }

    .cell:nth-of-type(2n) {
        animation-name: rotateTock;
        animation-delay: 1s;
    }

    .cell.hor path:first-of-type {
        animation: translateHor 4s ease infinite;
        transform-box: fill-box;
        transform-origin: right center;
    }

    .cell.hor path:last-of-type {
        animation: translateHor2 4s ease infinite;
        transform-box: fill-box;
        transform-origin: left center;
    }

    .cell.ver path:first-of-type {
        animation: translateVer 4s ease infinite;
        transform-box: fill-box;
        transform-origin: right center;
    }

    .cell.ver path:last-of-type {
        animation: translateVer2 4s ease infinite;
        transform-box: fill-box;
        transform-origin: left center;
    }

    .cell.ver:nth-of-type(3n + 1) {
        animation-duration: 4.2s;
        animation-delay: 0.1s;
    }

    .cell.ver:nth-of-type(2n + 1) path:last-of-type {
        fill: 
    }

    </style>

    <g class="cell hor">
        <path d="M12.5566 70.9862C12.5566 103.019 38.5241 128.986 70.5566 128.986V12.9862C38.5241 12.9862 12.5566 38.9537 12.5566 70.9862Z" fill="#000D26"/>
        <path d="M70.5566 70.9862C70.5566 103.019 96.5241 128.986 128.557 128.986V12.9862C96.5241 12.9862 70.5566 38.9537 70.5566 70.9862Z" fill="#000D26"/>
    </g>
    <g class="cell hor">
        <path d="M70.5566 190.986C70.5566 158.954 44.5892 132.986 12.5567 132.986L12.5566 248.986C44.5892 248.986 70.5566 223.019 70.5566 190.986Z" fill="#000D26"/>
        <path d="M70.5566 190.986C70.5566 223.019 96.5241 248.986 128.557 248.986V132.986C96.5241 132.986 70.5566 158.954 70.5566 190.986Z" fill="#000D26"/>
    </g>
    <g class="cell hor">
        <path d="M70.5566 310.986C70.5566 278.954 44.5892 252.986 12.5567 252.986L12.5566 368.986C44.5892 368.986 70.5566 343.019 70.5566 310.986Z" fill="#000D26"/>
        <path d="M128.557 310.986C128.557 278.954 102.589 252.986 70.5567 252.986L70.5566 368.986C102.589 368.986 128.557 343.019 128.557 310.986Z" fill="#000D26"/>
    </g>
    <g class="cell hor">
        <path d="M12.5566 430.986C12.5566 463.019 38.5241 488.986 70.5566 488.986L70.5566 372.986C38.5241 372.986 12.5566 398.954 12.5566 430.986Z" fill="#000D26"/>
        <path d="M128.557 430.986C128.557 398.954 102.589 372.986 70.5567 372.986L70.5566 488.986C102.589 488.986 128.557 463.019 128.557 430.986Z" fill="#000D26"/>
    </g>
    <g class="cell hor">
        <path d="M132.557 70.9862C132.557 103.019 158.524 128.986 190.557 128.986V12.9862C158.524 12.9862 132.557 38.9537 132.557 70.9862Z" fill="#000D26"/>
        <path d="M248.557 70.9862C248.557 38.9537 222.589 12.9862 190.557 12.9862L190.557 128.986C222.589 128.986 248.557 103.019 248.557 70.9862Z" fill="#000D26"/>
    </g>
    <g class="cell ver">
        <path d="M190.557 132.986C158.524 132.986 132.557 158.954 132.557 190.986L248.557 190.986C248.557 158.954 222.589 132.986 190.557 132.986Z" fill="#000D26"/>
        <path d="M190.557 190.986C158.524 190.986 132.557 216.954 132.557 248.986L248.557 248.986C248.557 216.954 222.589 190.986 190.557 190.986Z" fill="#000D26"/>
    </g>
    <g class="cell ver">
        <path d="M190.557 310.986C222.589 310.986 248.557 285.019 248.557 252.986L132.557 252.986C132.557 285.019 158.524 310.986 190.557 310.986Z" fill="#000D26"/>
        <path d="M190.557 310.986C158.524 310.986 132.557 336.954 132.557 368.986L248.557 368.986C248.557 336.954 222.589 310.986 190.557 310.986Z" fill="#000D26"/>
    </g>
    <g class="cell ver">
        <path d="M190.557 430.986C222.589 430.986 248.557 405.019 248.557 372.986L132.557 372.986C132.557 405.019 158.524 430.986 190.557 430.986Z" fill="#000D26"/>
        <path d="M190.557 488.986C222.589 488.986 248.557 463.019 248.557 430.986L132.557 430.986C132.557 463.019 158.524 488.986 190.557 488.986Z" fill="#000D26"/>
    </g>
    <g class="cell hor">
        <path d="M310.557 70.9862C310.557 38.9537 284.589 12.9862 252.557 12.9862L252.557 128.986C284.589 128.986 310.557 103.019 310.557 70.9862Z" fill="#000D26"/>
        <path d="M368.557 70.9862C368.557 38.9537 342.589 12.9862 310.557 12.9862L310.557 128.986C342.589 128.986 368.557 103.019 368.557 70.9862Z" fill="#000D26"/>
    </g>
    <g class="cell hor">
        <path d="M252.557 190.986C252.557 223.019 278.524 248.986 310.557 248.986V132.986C278.524 132.986 252.557 158.954 252.557 190.986Z" fill="#000D26"/>
        <path d="M368.557 190.986C368.557 158.954 342.589 132.986 310.557 132.986L310.557 248.986C342.589 248.986 368.557 223.019 368.557 190.986Z" fill="#000D26"/>
    </g>
    <g class="cell ver">
        <path d="M310.557 310.986C342.589 310.986 368.557 285.019 368.557 252.986L252.557 252.986C252.557 285.019 278.524 310.986 310.557 310.986Z" fill="#000D26"/>
        <path d="M310.557 310.986C278.524 310.986 252.557 336.954 252.557 368.986L368.557 368.986C368.557 336.954 342.589 310.986 310.557 310.986Z" fill="#000D26"/>
    </g>
    <g class="cell hor">
        <path d="M310.557 430.986C310.557 398.954 284.589 372.986 252.557 372.986L252.557 488.986C284.589 488.986 310.557 463.019 310.557 430.986Z" fill="#000D26"/>
        <path d="M368.557 430.986C368.557 398.954 342.589 372.986 310.557 372.986L310.557 488.986C342.589 488.986 368.557 463.019 368.557 430.986Z" fill="#000D26"/>
    </g>
    <g class="cell ver">
        <path d="M430.557 12.9862C398.524 12.9862 372.557 38.9537 372.557 70.9862L488.557 70.9862C488.557 38.9537 462.589 12.9862 430.557 12.9862Z" fill="#000D26"/>
        <path d="M430.557 70.9862C398.524 70.9862 372.557 96.9537 372.557 128.986L488.557 128.986C488.557 96.9537 462.589 70.9862 430.557 70.9862Z" fill="#000D26"/>
    </g>
    <g class="cell hor">
        <path d="M372.557 190.986C372.557 223.019 398.524 248.986 430.557 248.986V132.986C398.524 132.986 372.557 158.954 372.557 190.986Z" fill="#000D26"/>
        <path d="M430.557 190.986C430.557 223.019 456.524 248.986 488.557 248.986V132.986C456.524 132.986 430.557 158.954 430.557 190.986Z" fill="#000D26"/>
    </g>
    <g class="cell hor">
        <path d="M372.557 310.986C372.557 343.019 398.524 368.986 430.557 368.986V252.986C398.524 252.986 372.557 278.954 372.557 310.986Z" fill="#000D26"/>
        <path d="M488.557 310.986C488.557 278.954 462.589 252.986 430.557 252.986L430.557 368.986C462.589 368.986 488.557 343.019 488.557 310.986Z" fill="#000D26"/>
    </g>
    <g class="cell ver">
        <path d="M430.557 430.986C462.589 430.986 488.557 405.019 488.557 372.986L372.557 372.986C372.557 405.019 398.524 430.986 430.557 430.986Z" fill="#000D26"/>
        <path d="M430.557 430.986C398.524 430.986 372.557 456.954 372.557 488.986L488.557 488.986C488.557 456.954 462.589 430.986 430.557 430.986Z" fill="#000D26"/>
    </g>
</svg>
