<svg width="48" height="48" viewBox="0 0 48 48" fill="none" xmlns="http://www.w3.org/2000/svg">
<path d="M30 42V31.2C30 30.0799 30 29.5198 29.782 29.092C29.5903 28.7157 29.2843 28.4097 28.908 28.218C28.4802 28 27.9201 28 26.8 28H21.2C20.0799 28 19.5198 28 19.092 28.218C18.7157 28.4097 18.4097 28.7157 18.218 29.092C18 29.5198 18 30.0799 18 31.2V42M6 14C6 17.3137 8.68629 20 12 20C15.3137 20 18 17.3137 18 14C18 17.3137 20.6863 20 24 20C27.3137 20 30 17.3137 30 14C30 17.3137 32.6863 20 36 20C39.3137 20 42 17.3137 42 14M12.4 42H35.6C37.8402 42 38.9603 42 39.816 41.564C40.5686 41.1805 41.1805 40.5686 41.564 39.816C42 38.9603 42 37.8402 42 35.6V12.4C42 10.1598 42 9.03968 41.564 8.18404C41.1805 7.43139 40.5686 6.81947 39.816 6.43597C38.9603 6 37.8402 6 35.6 6H12.4C10.1598 6 9.03968 6 8.18404 6.43597C7.43139 6.81947 6.81947 7.43139 6.43597 8.18404C6 9.03968 6 10.1598 6 12.4V35.6C6 37.8402 6 38.9603 6.43597 39.816C6.81947 40.5686 7.43139 41.1805 8.18404 41.564C9.03968 42 10.1598 42 12.4 42Z" stroke="#374562" stroke-width="4" stroke-linecap="round" stroke-linejoin="round"/>
</svg>
