<svg width="57" height="56" viewBox="0 0 57 56" fill="none" xmlns="http://www.w3.org/2000/svg">
<rect x="0.666626" width="56" height="56" rx="12" fill="url(#paint0_linear_1614_80353)"/>
<g clip-path="url(#clip0_1614_80353)">
<path d="M26.6666 33.414L21.6666 28.413L23.0796 27L26.6666 30.585L34.2516 23L35.6666 24.415L26.6666 33.414Z" fill="#FFFEFC"/>
<path d="M28.6666 40C22.0396 40 16.6666 34.627 16.6666 28C16.6666 21.373 22.0396 16 28.6666 16C35.2936 16 40.6666 21.373 40.6666 28C40.6666 34.627 35.2936 40 28.6666 40ZM28.6666 14C20.9346 14 14.6666 20.268 14.6666 28C14.6666 35.732 20.9346 42 28.6666 42C36.3986 42 42.6666 35.732 42.6666 28C42.6666 20.268 36.3986 14 28.6666 14Z" fill="#FFFEFC"/>
</g>
<defs>
<linearGradient id="paint0_linear_1614_80353" x1="0.666626" y1="0" x2="49.2394" y2="-5.83433" gradientUnits="userSpaceOnUse">
<stop stop-color="#000D26"/>
<stop offset="1" stop-color="#5C6880"/>
</linearGradient>
<clipPath id="clip0_1614_80353">
<rect width="32" height="32" fill="white" transform="translate(12.6666 12)"/>
</clipPath>
</defs>
</svg>
