<svg width="56" height="56" viewBox="0 0 56 56" fill="none" xmlns="http://www.w3.org/2000/svg">
<rect width="56" height="56" rx="12" fill="url(#paint0_linear_1614_80347)"/>
<g clip-path="url(#clip0_1614_80347)">
<path d="M16 27V24C16 23.449 16.449 23 17 23H39C39.552 23 40 23.449 40 24V27H16ZM26 29H30V32H26V29ZM40 38H16V29H24V34H32V29H40V38ZM22 18H34V21H22V18ZM39 21H36V18C36 16.897 35.103 16 34 16H22C20.897 16 20 16.897 20 18V21H17C15.346 21 14 22.346 14 24V38C14 39.103 14.897 40 16 40H40C41.103 40 42 39.103 42 38V24C42 22.346 40.654 21 39 21Z" fill="#FFFEFC"/>
</g>
<defs>
<linearGradient id="paint0_linear_1614_80347" x1="0" y1="0" x2="48.5728" y2="-5.83433" gradientUnits="userSpaceOnUse">
<stop stop-color="#000D26"/>
<stop offset="1" stop-color="#5C6880"/>
</linearGradient>
<clipPath id="clip0_1614_80347">
<rect width="32" height="32" fill="white" transform="translate(12 12)"/>
</clipPath>
</defs>
</svg>
