<svg width="57" height="56" viewBox="0 0 57 56" fill="none" xmlns="http://www.w3.org/2000/svg">
<rect x="0.333374" width="56" height="56" rx="12" fill="url(#paint0_linear_1614_80359)"/>
<g clip-path="url(#clip0_1614_80359)">
<path d="M14.3334 40H42.3334V42H14.3334V40Z" fill="#FFFEFC"/>
<path d="M26.4934 15.035C26.3324 14.992 26.1604 14.99 25.9924 15.035L22.9054 15.86C22.3894 15.999 22.0824 16.529 22.2204 17.046L24.7214 26.4L21.9154 27.15L19.1864 23.498C19.0534 23.32 18.8674 23.198 18.6624 23.143C18.5014 23.1 18.3284 23.098 18.1604 23.143L15.0524 23.974C14.5364 24.112 14.2294 24.642 14.3674 25.159L15.3674 28.901L16.1174 31.707L16.3674 32.642C16.7384 34.028 17.8154 35.037 19.1084 35.384C19.7424 35.554 20.4294 35.565 21.1094 35.383L39.8164 30.382C42.0044 29.797 43.2514 27.451 42.4424 25.277C41.9974 24.082 40.9884 23.259 39.8144 22.943C39.1244 22.758 38.3784 22.748 37.6554 22.941L33.1414 24.15L27.0354 15.416C26.9024 15.225 26.7084 15.093 26.4934 15.035ZM25.8104 17.154L31.5004 25.295L32.3024 26.443L33.6584 26.082L38.1714 24.874C38.5384 24.776 38.9274 24.776 39.2954 24.875C39.9044 25.038 40.3684 25.439 40.5674 25.975C40.7564 26.483 40.7264 27.024 40.4814 27.498C40.2354 27.974 39.8164 28.311 39.3004 28.449L20.5934 33.451C20.2704 33.538 19.9454 33.538 19.6264 33.452C18.9804 33.279 18.4724 32.77 18.2994 32.126L18.0504 31.19L17.2994 28.384L16.5664 25.639L18.0024 25.255L20.3134 28.347L21.1234 29.432L22.4314 29.082L25.2374 28.332L27.1694 27.815L26.6534 25.883L24.4194 17.526L25.8104 17.154Z" fill="#FFFEFC"/>
</g>
<defs>
<linearGradient id="paint0_linear_1614_80359" x1="0.333374" y1="0" x2="48.9061" y2="-5.83433" gradientUnits="userSpaceOnUse">
<stop stop-color="#000D26"/>
<stop offset="1" stop-color="#5C6880"/>
</linearGradient>
<clipPath id="clip0_1614_80359">
<rect width="32" height="32" fill="white" transform="translate(12.3334 12)"/>
</clipPath>
</defs>
</svg>
