<svg width="48" height="48" viewBox="0 0 48 48" fill="none" xmlns="http://www.w3.org/2000/svg">
<path d="M0 44C0.147247 44 0.265962 44.1198 0.276367 44.2666C0.406899 46.1159 1.8841 47.5931 3.7334 47.7236C3.88027 47.734 3.99999 47.8528 4 48H0V44ZM48 48H44C44 47.8528 44.1197 47.734 44.2666 47.7236C46.1159 47.5931 47.5931 46.1159 47.7236 44.2666C47.734 44.1198 47.8527 44 48 44V48ZM24 28C24.1472 28 24.266 28.1198 24.2764 28.2666C24.4069 30.1159 25.8841 31.5931 27.7334 31.7236C27.8803 31.734 28 31.8528 28 32C28 32.1473 27.8803 32.266 27.7334 32.2764C25.8841 32.4069 24.4069 33.8842 24.2764 35.7334C24.266 35.8802 24.1472 36 24 36C23.8527 36 23.734 35.8802 23.7236 35.7334C23.5931 33.8842 22.1159 32.4069 20.2666 32.2764C20.1197 32.266 20 32.1473 20 32C20 31.8528 20.1197 31.734 20.2666 31.7236C22.1159 31.5931 23.5931 30.1159 23.7236 28.2666C23.734 28.1198 23.8527 28 24 28ZM0 20C0.147247 20 0.265962 20.1198 0.276367 20.2666C0.406899 22.1159 1.8841 23.5931 3.7334 23.7236C3.88027 23.734 3.99999 23.8528 4 24C4 24.1473 3.88027 24.266 3.7334 24.2764C1.8841 24.4069 0.406899 25.8842 0.276367 27.7334C0.265962 27.8802 0.147247 28 0 28V20ZM48 28C47.8527 28 47.734 27.8802 47.7236 27.7334C47.5931 25.8842 46.1159 24.4069 44.2666 24.2764C44.1197 24.266 44 24.1473 44 24C44 23.8528 44.1197 23.734 44.2666 23.7236C46.1159 23.5931 47.5931 22.1159 47.7236 20.2666C47.734 20.1198 47.8527 20 48 20V28ZM24 4C24.1472 4 24.266 4.11975 24.2764 4.2666C24.4069 6.11591 25.8841 7.59308 27.7334 7.72363C27.8803 7.73401 28 7.85278 28 8C28 8.14728 27.8803 8.26599 27.7334 8.27637C25.8841 8.40692 24.4069 9.88416 24.2764 11.7334C24.266 11.8802 24.1472 12 24 12C23.8527 12 23.734 11.8802 23.7236 11.7334C23.5931 9.88416 22.1159 8.40692 20.2666 8.27637C20.1197 8.26599 20 8.14728 20 8C20 7.85278 20.1197 7.73401 20.2666 7.72363C22.1159 7.59308 23.5931 6.11591 23.7236 4.2666C23.734 4.11975 23.8527 4 24 4ZM4 0C4 0.147278 3.88027 0.265991 3.7334 0.276367C1.8841 0.406921 0.406899 1.88416 0.276367 3.7334C0.265962 3.88025 0.147247 4 0 4V0H4ZM48 4C47.8527 4 47.734 3.88025 47.7236 3.7334C47.5931 1.88416 46.1159 0.406921 44.2666 0.276367C44.1197 0.265991 44 0.147278 44 0H48V4Z" fill="#F7F3ED"/>
<defs>
</defs>
</svg>
