<svg width="72" height="72" viewBox="0 0 72 72" fill="none" xmlns="http://www.w3.org/2000/svg">
<path d="M20 64C20.1472 64 20.266 64.1197 20.2764 64.2666C20.4069 66.1159 21.8841 67.5931 23.7334 67.7236C23.8803 67.734 24 67.8528 24 68C24 68.1472 23.8803 68.266 23.7334 68.2764C21.8841 68.4069 20.4069 69.8841 20.2764 71.7334C20.266 71.8803 20.1472 72 20 72C19.8527 72 19.734 71.8803 19.7236 71.7334C19.5931 69.8841 18.1159 68.4069 16.2666 68.2764C16.1197 68.266 16 68.1472 16 68C16 67.8528 16.1197 67.734 16.2666 67.7236C18.1159 67.5931 19.5931 66.1159 19.7236 64.2666C19.734 64.1197 19.8527 64 20 64ZM68 64C68.1472 64 68.266 64.1197 68.2764 64.2666C68.4069 66.1159 69.8841 67.5931 71.7334 67.7236C71.8803 67.734 72 67.8528 72 68C72 68.1472 71.8803 68.266 71.7334 68.2764C69.8841 68.4069 68.4069 69.8841 68.2764 71.7334C68.266 71.8803 68.1472 72 68 72C67.8527 72 67.734 71.8803 67.7236 71.7334C67.5931 69.8841 66.1159 68.4069 64.2666 68.2764C64.1197 68.266 64 68.1472 64 68C64 67.8528 64.1197 67.734 64.2666 67.7236C66.1159 67.5931 67.5931 66.1159 67.7236 64.2666C67.734 64.1197 67.8527 64 68 64ZM44 56C44.1472 56 44.266 56.1197 44.2764 56.2666C44.4069 58.1159 45.8841 59.5931 47.7334 59.7236C47.8803 59.734 48 59.8528 48 60C48 60.1472 47.8803 60.266 47.7334 60.2764C45.8841 60.4069 44.4069 61.8841 44.2764 63.7334C44.266 63.8803 44.1472 64 44 64C43.8527 64 43.734 63.8803 43.7236 63.7334C43.5931 61.8841 42.1159 60.4069 40.2666 60.2764C40.1197 60.266 40 60.1472 40 60C40 59.8528 40.1197 59.734 40.2666 59.7236C42.1159 59.5931 43.5931 58.1159 43.7236 56.2666C43.734 56.1197 43.8527 56 44 56ZM20 40C20.1472 40 20.266 40.1197 20.2764 40.2666C20.4069 42.1159 21.8841 43.5931 23.7334 43.7236C23.8803 43.734 24 43.8528 24 44C24 44.1472 23.8803 44.266 23.7334 44.2764C21.8841 44.4069 20.4069 45.8841 20.2764 47.7334C20.266 47.8803 20.1472 48 20 48C19.8527 48 19.734 47.8803 19.7236 47.7334C19.5931 45.8841 18.1159 44.4069 16.2666 44.2764C16.1197 44.266 16 44.1472 16 44C16 43.8528 16.1197 43.734 16.2666 43.7236C18.1159 43.5931 19.5931 42.1159 19.7236 40.2666C19.734 40.1197 19.8527 40 20 40ZM68 40C68.1472 40 68.266 40.1197 68.2764 40.2666C68.4069 42.1159 69.8841 43.5931 71.7334 43.7236C71.8803 43.734 72 43.8528 72 44C72 44.1472 71.8803 44.266 71.7334 44.2764C69.8841 44.4069 68.4069 45.8841 68.2764 47.7334C68.266 47.8803 68.1472 48 68 48C67.8527 48 67.734 47.8803 67.7236 47.7334C67.5931 45.8841 66.1159 44.4069 64.2666 44.2764C64.1197 44.266 64 44.1472 64 44C64 43.8528 64.1197 43.734 64.2666 43.7236C66.1159 43.5931 67.5931 42.1159 67.7236 40.2666C67.734 40.1197 67.8527 40 68 40ZM44 32C44.1472 32 44.266 32.1197 44.2764 32.2666C44.4069 34.1159 45.8841 35.5931 47.7334 35.7236C47.8803 35.734 48 35.8528 48 36C48 36.1472 47.8803 36.266 47.7334 36.2764C45.8841 36.4069 44.4069 37.8841 44.2764 39.7334C44.266 39.8803 44.1472 40 44 40C43.8527 40 43.734 39.8803 43.7236 39.7334C43.5931 37.8841 42.1159 36.4069 40.2666 36.2764C40.1197 36.266 40 36.1472 40 36C40 35.8528 40.1197 35.734 40.2666 35.7236C42.1159 35.5931 43.5931 34.1159 43.7236 32.2666C43.734 32.1197 43.8527 32 44 32ZM20 16C20.1472 16 20.266 16.1197 20.2764 16.2666C20.4069 18.1159 21.8841 19.5931 23.7334 19.7236C23.8803 19.734 24 19.8528 24 20C24 20.1472 23.8803 20.266 23.7334 20.2764C21.8841 20.4069 20.4069 21.8841 20.2764 23.7334C20.266 23.8803 20.1472 24 20 24C19.8527 24 19.734 23.8803 19.7236 23.7334C19.5931 21.8841 18.1159 20.4069 16.2666 20.2764C16.1197 20.266 16 20.1472 16 20C16 19.8528 16.1197 19.734 16.2666 19.7236C18.1159 19.5931 19.5931 18.1159 19.7236 16.2666C19.734 16.1197 19.8527 16 20 16ZM68 16C68.1472 16 68.266 16.1197 68.2764 16.2666C68.4069 18.1159 69.8841 19.5931 71.7334 19.7236C71.8803 19.734 72 19.8528 72 20C72 20.1472 71.8803 20.266 71.7334 20.2764C69.8841 20.4069 68.4069 21.8841 68.2764 23.7334C68.266 23.8803 68.1472 24 68 24C67.8527 24 67.734 23.8803 67.7236 23.7334C67.5931 21.8841 66.1159 20.4069 64.2666 20.2764C64.1197 20.266 64 20.1472 64 20C64 19.8528 64.1197 19.734 64.2666 19.7236C66.1159 19.5931 67.5931 18.1159 67.7236 16.2666C67.734 16.1197 67.8527 16 68 16ZM44 8C44.1472 8 44.266 8.11973 44.2764 8.2666C44.4069 10.1159 45.8841 11.5931 47.7334 11.7236C47.8803 11.734 48 11.8528 48 12C48 12.1472 47.8803 12.266 47.7334 12.2764C45.8841 12.4069 44.4069 13.8841 44.2764 15.7334C44.266 15.8803 44.1472 16 44 16C43.8527 16 43.734 15.8803 43.7236 15.7334C43.5931 13.8841 42.1159 12.4069 40.2666 12.2764C40.1197 12.266 40 12.1472 40 12C40 11.8528 40.1197 11.734 40.2666 11.7236C42.1159 11.5931 43.5931 10.1159 43.7236 8.2666C43.734 8.11973 43.8527 8 44 8Z" fill="#000D26" fill-opacity="0.1"/>
</svg>
