<svg width="500" height="500" viewBox="0 0 500 500" fill="none" xmlns="http://www.w3.org/2000/svg">

<style>
        @keyframes rotate {
            100% { transform: rotate(1turn); }
        }

        @keyframes wave {
            100% { transform: rotate(1turn); }
        }

        @keyframes pulse {
            20% { transform: scale(0.8); }
        }

        g#group {
            animation: rotate 8s linear infinite;
            transform-origin: 250px 250px; /* Center the entire group */
        }

        g path {
            transform-origin: bottom center;
            animation: wave 4s linear infinite;
            transform-box: fill-box;
        }

        rect {
            opacity: 0;
        }

        circle {
            transform-origin: 50% center;
            animation: pulse 4s ease-in-out infinite;
        }
        
    </style>

    <circle cx="250" cy="250" r="90" fill="#FF4C00"/>

    <g id="group">
        <g class="g1" transform="rotate(0, 250, 250) scale(0.775)"><path d="M190.03 91.5858C188.856 106.528 194.963 121.078 200.963 134.813L226.085 192.319C235.117 215.894 264.883 215.894 273.915 192.319L299.037 134.813C305.037 121.078 311.144 106.528 309.97 91.5858C307.258 57.0684 281.444 30 250 30C218.556 30 192.742 57.0683 190.03 91.5858Z" fill="#0D0400"/>
</g>
    <g class="g2" transform="rotate(30, 250, 250) scale(0.775)"><path d="M190.03 91.5858C188.856 106.528 194.963 121.078 200.963 134.813L226.085 192.319C235.117 215.894 264.883 215.894 273.915 192.319L299.037 134.813C305.037 121.078 311.144 106.528 309.97 91.5858C307.258 57.0684 281.444 30 250 30C218.556 30 192.742 57.0683 190.03 91.5858Z" fill="#F9F7F2"/>
</g>
    <g class="g3" transform="rotate(60, 250, 250) scale(0.775)"><path d="M190.03 91.5858C188.856 106.528 194.963 121.078 200.963 134.813L226.085 192.319C235.117 215.894 264.883 215.894 273.915 192.319L299.037 134.813C305.037 121.078 311.144 106.528 309.97 91.5858C307.258 57.0684 281.444 30 250 30C218.556 30 192.742 57.0683 190.03 91.5858Z" fill="#0D0400"/>
</g>
    <g class="g4" transform="rotate(90, 250, 250) scale(0.775)"><path d="M190.03 91.5858C188.856 106.528 194.963 121.078 200.963 134.813L226.085 192.319C235.117 215.894 264.883 215.894 273.915 192.319L299.037 134.813C305.037 121.078 311.144 106.528 309.97 91.5858C307.258 57.0684 281.444 30 250 30C218.556 30 192.742 57.0683 190.03 91.5858Z" fill="#F9F7F2"/>
</g>
    <g class="g5" transform="rotate(120, 250, 250) scale(0.775)"><path d="M190.03 91.5858C188.856 106.528 194.963 121.078 200.963 134.813L226.085 192.319C235.117 215.894 264.883 215.894 273.915 192.319L299.037 134.813C305.037 121.078 311.144 106.528 309.97 91.5858C307.258 57.0684 281.444 30 250 30C218.556 30 192.742 57.0683 190.03 91.5858Z" fill="#0D0400"/>
</g>
    <g class="g6" transform="rotate(150, 250, 250) scale(0.775)"><path d="M190.03 91.5858C188.856 106.528 194.963 121.078 200.963 134.813L226.085 192.319C235.117 215.894 264.883 215.894 273.915 192.319L299.037 134.813C305.037 121.078 311.144 106.528 309.97 91.5858C307.258 57.0684 281.444 30 250 30C218.556 30 192.742 57.0683 190.03 91.5858Z" fill="#F9F7F2"/>
</g>
    <g class="g7" transform="rotate(180, 250, 250) scale(0.775)"><path d="M190.03 91.5858C188.856 106.528 194.963 121.078 200.963 134.813L226.085 192.319C235.117 215.894 264.883 215.894 273.915 192.319L299.037 134.813C305.037 121.078 311.144 106.528 309.97 91.5858C307.258 57.0684 281.444 30 250 30C218.556 30 192.742 57.0683 190.03 91.5858Z" fill="#0D0400"/>
</g>
    <g class="g8" transform="rotate(210, 250, 250) scale(0.775)"><path d="M190.03 91.5858C188.856 106.528 194.963 121.078 200.963 134.813L226.085 192.319C235.117 215.894 264.883 215.894 273.915 192.319L299.037 134.813C305.037 121.078 311.144 106.528 309.97 91.5858C307.258 57.0684 281.444 30 250 30C218.556 30 192.742 57.0683 190.03 91.5858Z" fill="#F9F7F2"/>
</g>
    <g class="g9" transform="rotate(240, 250, 250) scale(0.775)"><path d="M190.03 91.5858C188.856 106.528 194.963 121.078 200.963 134.813L226.085 192.319C235.117 215.894 264.883 215.894 273.915 192.319L299.037 134.813C305.037 121.078 311.144 106.528 309.97 91.5858C307.258 57.0684 281.444 30 250 30C218.556 30 192.742 57.0683 190.03 91.5858Z" fill="#0D0400"/>
</g>
    <g class="g10" transform="rotate(270, 250, 250) scale(0.775)"><path d="M190.03 91.5858C188.856 106.528 194.963 121.078 200.963 134.813L226.085 192.319C235.117 215.894 264.883 215.894 273.915 192.319L299.037 134.813C305.037 121.078 311.144 106.528 309.97 91.5858C307.258 57.0684 281.444 30 250 30C218.556 30 192.742 57.0683 190.03 91.5858Z" fill="#F9F7F2"/>
</g>
    <g class="g11" transform="rotate(300, 250, 250) scale(0.775)"><path d="M190.03 91.5858C188.856 106.528 194.963 121.078 200.963 134.813L226.085 192.319C235.117 215.894 264.883 215.894 273.915 192.319L299.037 134.813C305.037 121.078 311.144 106.528 309.97 91.5858C307.258 57.0684 281.444 30 250 30C218.556 30 192.742 57.0683 190.03 91.5858Z" fill="#0D0400"/>
</g>
    <g class="g12" transform="rotate(330, 250, 250) scale(0.775)"><path d="M190.03 91.5858C188.856 106.528 194.963 121.078 200.963 134.813L226.085 192.319C235.117 215.894 264.883 215.894 273.915 192.319L299.037 134.813C305.037 121.078 311.144 106.528 309.97 91.5858C307.258 57.0684 281.444 30 250 30C218.556 30 192.742 57.0683 190.03 91.5858Z" fill="#F9F7F2"/>
</g>
    </g>

</svg>
