<svg width="32" height="32" viewBox="0 0 32 32" fill="none" xmlns="http://www.w3.org/2000/svg">
<g clip-path="url(#clip0_282_476)">
<path d="M14 21.414L9 16.413L10.413 15L14 18.585L21.585 11L23 12.415L14 21.414Z" fill="#64B6AC"/>
<path d="M16 28C9.373 28 4 22.627 4 16C4 9.373 9.373 4 16 4C22.627 4 28 9.373 28 16C28 22.627 22.627 28 16 28ZM16 2C8.268 2 2 8.268 2 16C2 23.732 8.268 30 16 30C23.732 30 30 23.732 30 16C30 8.268 23.732 2 16 2Z" fill="#64B6AC"/>
</g>
<defs>
<clipPath id="clip0_282_476">
<rect width="32" height="32" fill="white"/>
</clipPath>
</defs>
</svg>
