<svg width="32" height="32" viewBox="0 0 32 32" fill="none" xmlns="http://www.w3.org/2000/svg">
<g clip-path="url(#clip0_4428_6396)">
<path fill-rule="evenodd" clip-rule="evenodd" d="M24.5031 7.48501C22.2473 5.23878 19.2471 4.00114 16.0504 4C9.4634 4 4.10256 9.33065 4.10027 15.883C4.09913 17.9776 4.64976 20.0221 5.69546 21.8239L4 27.9825L10.3349 26.33C12.0802 27.2771 14.0455 27.7756 16.0453 27.7762H16.0504C22.6363 27.7762 27.9977 22.445 28 15.8927C28.0011 12.7171 26.7595 9.7318 24.5031 7.48558V7.48501ZM16.0504 25.7693H16.0464C14.2644 25.7688 12.5163 25.2924 10.991 24.3926L10.6283 24.1784L6.86893 25.159L7.87223 21.5139L7.63615 21.1401C6.64203 19.5674 6.1166 17.7497 6.11775 15.8836C6.12004 10.4378 10.5756 6.0069 16.0545 6.0069C18.7073 6.00804 21.201 7.03656 23.0763 8.90386C24.9517 10.7706 25.9837 13.2527 25.9825 15.8915C25.9802 21.3379 21.5247 25.7688 16.0504 25.7688V25.7693ZM21.4983 18.372C21.1998 18.2232 19.7319 17.5052 19.4579 17.4061C19.1841 17.3069 18.9853 17.2574 18.7864 17.5548C18.5876 17.8523 18.0152 18.5213 17.841 18.719C17.6668 18.9173 17.4926 18.9418 17.1941 18.793C16.8956 18.6443 15.9335 18.3309 14.7927 17.3195C13.9052 16.532 13.3058 15.5599 13.1317 15.2624C12.9575 14.965 13.1133 14.8043 13.2623 14.6567C13.3963 14.5234 13.5608 14.3097 13.7103 14.1365C13.8599 13.9632 13.9092 13.8391 14.0089 13.6413C14.1086 13.443 14.0587 13.2698 13.9843 13.1211C13.9097 12.9724 13.3127 11.5107 13.0635 10.9164C12.8211 10.3375 12.5747 10.4162 12.3919 10.4065C12.2177 10.3979 12.0189 10.3962 11.8195 10.3962C11.6201 10.3962 11.2969 10.4703 11.0231 10.7677C10.7492 11.0651 9.97794 11.7837 9.97794 13.2447C9.97794 14.7057 11.0477 16.1183 11.1973 16.3166C11.3468 16.5149 13.3029 19.5139 16.2979 20.8005C17.0102 21.1065 17.5665 21.2894 18.0003 21.4262C18.7154 21.6524 19.3663 21.6205 19.8808 21.5441C20.4544 21.4587 21.6473 20.8256 21.896 20.1321C22.1447 19.4386 22.1447 18.8437 22.0702 18.7201C21.9957 18.5964 21.7963 18.5218 21.4978 18.3731L21.4983 18.372Z" fill="white"/>
</g>
<defs>
<clipPath id="clip0_4428_6396">
<rect width="24" height="24" fill="white" transform="translate(4 4)"/>
</clipPath>
</defs>
</svg>
