<svg width="24" height="24" viewBox="0 0 24 24" fill="none" xmlns="http://www.w3.org/2000/svg">
<g clip-path="url(#clip0_3422_8927)">
<g filter="url(#filter0_d_3422_8927)">
<path d="M1.776 22.043L3.20587 16.8324C2.32251 15.3039 1.85852 13.5699 1.86065 11.8053C1.86298 6.26078 6.38366 1.75012 11.9389 1.75012C14.6347 1.75149 17.165 2.79856 19.068 4.69927C20.971 6.59997 22.018 9.1264 22.017 11.8133C22.0146 17.3574 17.4932 21.8689 11.9388 21.8689H11.9344C10.2478 21.8682 8.59058 21.4459 7.11853 20.6448L1.776 22.043Z" fill="white"/>
</g>
<path d="M11.9419 3.44888C7.32139 3.44888 3.56379 7.19792 3.56214 11.8061C3.55987 13.3796 4.00383 14.9217 4.84271 16.254L5.04201 16.5702L4.19565 19.6541L7.36604 18.8244L7.67218 19.0054C8.95795 19.767 10.4322 20.1698 11.9356 20.1706H11.9388C16.5558 20.1706 20.3134 16.4212 20.3151 11.8128C20.3186 10.7144 20.1038 9.62618 19.683 8.61122C19.2623 7.59626 18.644 6.67468 17.864 5.89984C17.0883 5.12076 16.1655 4.50298 15.1489 4.08227C14.1324 3.66156 13.0424 3.44628 11.9419 3.44888Z" fill="url(#paint0_linear_3422_8927)"/>
<path fill-rule="evenodd" clip-rule="evenodd" d="M9.41998 7.60157C9.23123 7.1831 9.03262 7.17462 8.85332 7.16738L8.37062 7.1615C8.20269 7.1615 7.92984 7.22439 7.69918 7.47594C7.46851 7.72749 6.81775 8.33544 6.81775 9.572C6.81775 10.8086 7.72013 12.0034 7.84587 12.1713C7.97162 12.3392 9.58791 14.9576 12.1475 15.965C14.2746 16.8023 14.7074 16.6358 15.1693 16.5939C15.6312 16.5521 16.6592 15.986 16.8689 15.3991C17.0786 14.8122 17.0787 14.3093 17.0159 14.2042C16.953 14.0991 16.7851 14.0366 16.533 13.9108C16.281 13.785 15.0432 13.1771 14.8124 13.0931C14.5816 13.0092 14.4138 12.9675 14.2457 13.2191C14.0776 13.4706 13.5956 14.0365 13.4486 14.2042C13.3017 14.3719 13.155 14.393 12.9029 14.2674C12.6509 14.1417 11.84 13.8762 10.8779 13.02C10.1294 12.3538 9.62407 11.5311 9.47696 11.2797C9.32985 11.0283 9.46134 10.8921 9.58763 10.7669C9.70064 10.6542 9.83939 10.4733 9.96554 10.3266C10.0917 10.18 10.1332 10.0751 10.217 9.90763C10.3009 9.74015 10.2591 9.59305 10.1961 9.46741C10.1331 9.34178 9.64379 8.09866 9.41998 7.60157Z" fill="white"/>
</g>
<defs>
<filter id="filter0_d_3422_8927" x="0.776001" y="1.75012" width="22.2411" height="22.293" filterUnits="userSpaceOnUse" color-interpolation-filters="sRGB">
<feFlood flood-opacity="0" result="BackgroundImageFix"/>
<feColorMatrix in="SourceAlpha" type="matrix" values="0 0 0 0 0 0 0 0 0 0 0 0 0 0 0 0 0 0 127 0" result="hardAlpha"/>
<feOffset dy="1"/>
<feGaussianBlur stdDeviation="0.5"/>
<feComposite in2="hardAlpha" operator="out"/>
<feColorMatrix type="matrix" values="0 0 0 0 0 0 0 0 0 0.0509804 0 0 0 0 0.14902 0 0 0 0.25 0"/>
<feBlend mode="normal" in2="BackgroundImageFix" result="effect1_dropShadow_3422_8927"/>
<feBlend mode="normal" in="SourceGraphic" in2="effect1_dropShadow_3422_8927" result="shape"/>
</filter>
<linearGradient id="paint0_linear_3422_8927" x1="11.7681" y1="4.45234" x2="11.8527" y2="18.7421" gradientUnits="userSpaceOnUse">
<stop stop-color="#57D163"/>
<stop offset="1" stop-color="#23B33A"/>
</linearGradient>
<clipPath id="clip0_3422_8927">
<rect width="24" height="24" fill="white"/>
</clipPath>
</defs>
</svg>
