<svg width="1268" height="180" fill="none" xmlns="http://www.w3.org/2000/svg"><path d="M85.144 147.496v26.241c0 1.043.292 2.055.849 2.936a5.481 5.481 0 001.995 1.881 5.478 5.478 0 002.656.683 5.475 5.475 0 002.935-.848l62.457-39.416a5.498 5.498 0 002.565-4.651v-31.477c0-3.036-2.464-5.5-5.5-5.5a5.502 5.502 0 00-5.5 5.5v28.444l-51.457 32.474v-13.15l39.493-23.646a5.5 5.5 0 002.675-4.714l.056-64.171a5.502 5.502 0 00-5.495-5.505 5.503 5.503 0 00-5.505 5.495l-.053 61.057-39.496 23.648a5.501 5.501 0 00-2.675 4.719zM11 47.949l51.457-32.474v13.15L22.963 52.27a5.5 5.5 0 00-2.674 4.714l-.057 64.172a5.504 5.504 0 005.496 5.505 5.502 5.502 0 005.504-5.495l.054-61.057L70.782 36.46a5.501 5.501 0 002.675-4.72l-.001-26.24a5.475 5.475 0 00-.848-2.936A5.476 5.476 0 0070.612.684 5.475 5.475 0 0067.957 0a5.475 5.475 0 00-2.936.848L2.564 40.265A5.5 5.5 0 000 44.915v31.477c0 3.037 2.464 5.5 5.5 5.5 3.035 0 5.5-2.463 5.5-5.5V47.95z" fill="#fff"/><path d="M51.277 92.33v-19.7l28.037-17.823 28.023 17.815H68.42a5.503 5.503 0 00-5.5 5.5c0 3.036 2.465 5.5 5.5 5.5h38.931v8.708c0 3.036 2.465 5.5 5.5 5.5 3.036 0 5.5-2.464 5.5-5.5V70.05c0-.075-.001-.147-.004-.22a5.5 5.5 0 00-2.545-4.861L82.265 43.648a5.478 5.478 0 00-2.951-.859 5.478 5.478 0 00-2.951.859l-33.537 21.32a5.5 5.5 0 00-2.545 4.862 5.344 5.344 0 00-.004.22v22.28c0 3.036 2.464 5.5 5.5 5.5 3.035 0 5.5-2.464 5.5-5.5z" fill="#fff"/><path d="M48.727 118.732l25.087-15.948v30.604c0 3.035 2.464 5.5 5.5 5.5 3.035 0 5.5-2.465 5.5-5.5v-30.604l25.087 15.948a5.503 5.503 0 007.592-1.691 5.502 5.502 0 00-1.691-7.592L82.265 88.127a5.477 5.477 0 00-2.951-.857 5.477 5.477 0 00-2.951.858l-33.537 21.321a5.502 5.502 0 00-1.691 7.592 5.503 5.503 0 007.592 1.691zM127.32 27.728a5.503 5.503 0 00-1.853-7.555L93.495.797a5.5 5.5 0 00-8.351 4.714l.05 26.895a5.502 5.502 0 002.658 4.697l25.397 15.33a5.503 5.503 0 005.667.01l18.384-11 10.301 6.505v28.444c0 3.037 2.464 5.5 5.5 5.5s5.5-2.463 5.5-5.5V44.916a5.5 5.5 0 00-2.563-4.65l-15.723-9.93a5.501 5.501 0 00-5.761-.069l-18.45 11.04-19.915-12.02-.027-14.011 23.604 14.305a5.502 5.502 0 007.554-1.853zM31.281 151.51a5.503 5.503 0 001.853 7.554l31.972 19.377a5.5 5.5 0 008.351-4.714l-.051-26.895a5.497 5.497 0 00-2.658-4.698l-25.397-15.329a5.5 5.5 0 00-5.666-.011L21.3 137.795 11 131.29v-28.445c0-3.036-2.465-5.5-5.5-5.5a5.502 5.502 0 00-5.5 5.5v31.477c0 1.887.967 3.643 2.563 4.65l15.723 9.929a5.501 5.501 0 005.761.069l18.45-11.04 19.915 12.021.026 14.011-23.603-14.305a5.502 5.502 0 00-7.554 1.853zM506.393 143.897V71.722h18.374v72.175h-18.374zM515.58 63.282c-3.305 0-6.125-1.067-8.458-3.201-2.236-2.134-3.354-4.948-3.354-8.44 0-3.492 1.118-6.305 3.354-8.44 2.333-2.134 5.153-3.201 8.458-3.201 3.403 0 6.222 1.067 8.458 3.201 2.236 2.135 3.354 4.948 3.354 8.44 0 3.492-1.118 6.306-3.354 8.44-2.236 2.134-5.055 3.201-8.458 3.201z" fill="#fff"/><path fill-rule="evenodd" clip-rule="evenodd" d="M231.835 42.037l-26.832 101.86h19.832l5.541-22.409h36.457l5.541 22.409h19.832l-26.832-101.86h-33.539zm30.477 61.698h-27.415l12.395-49.62h2.625l12.395 49.62zM299.175 71.722V173h18.374v-37.397h2.624c1.07 1.649 2.479 3.298 4.229 4.947 1.847 1.552 4.229 2.814 7.146 3.784 3.013 1.067 6.708 1.6 11.082 1.6 5.833 0 11.229-1.406 16.187-4.22 4.958-2.91 8.944-7.13 11.957-12.659 3.014-5.53 4.521-12.223 4.521-20.081v-2.328c0-7.858-1.507-14.552-4.521-20.081-3.013-5.53-6.999-9.701-11.957-12.515-4.958-2.91-10.354-4.365-16.187-4.365-6.513 0-11.52 1.115-15.02 3.347-3.499 2.134-6.076 4.608-7.728 7.421h-2.625v-8.73h-18.082zm52.059 52.822c-3.694 3.589-8.409 5.384-14.145 5.384-5.638 0-10.353-1.795-14.145-5.384-3.791-3.687-5.687-9.022-5.687-16.007v-1.455c0-6.985 1.896-12.272 5.687-15.861 3.792-3.686 8.507-5.53 14.145-5.53 5.639 0 10.354 1.844 14.145 5.53 3.791 3.59 5.687 8.876 5.687 15.861v1.455c0 6.985-1.896 12.32-5.687 16.007zM386.333 173V71.722h18.082v8.731h2.625c1.653-2.813 4.229-5.287 7.729-7.421 3.5-2.231 8.506-3.347 15.02-3.347 5.833 0 11.228 1.455 16.186 4.365 4.958 2.814 8.944 6.985 11.958 12.515 3.014 5.53 4.52 12.223 4.52 20.081v2.328c0 7.858-1.506 14.551-4.52 20.081-3.014 5.529-7 9.749-11.958 12.659-4.958 2.814-10.353 4.22-16.186 4.22-4.375 0-8.069-.533-11.083-1.6-2.916-.97-5.298-2.232-7.145-3.784-1.75-1.649-3.16-3.298-4.229-4.947h-2.625V173h-18.374zm37.914-43.072c5.736 0 10.451-1.795 14.145-5.384 3.792-3.687 5.688-9.022 5.688-16.007v-1.455c0-6.985-1.896-12.272-5.688-15.861-3.791-3.686-8.506-5.53-14.145-5.53-5.638 0-10.353 1.844-14.144 5.53-3.792 3.59-5.688 8.876-5.688 15.861v1.455c0 6.985 1.896 12.32 5.688 16.007 3.791 3.589 8.506 5.384 14.144 5.384z" fill="#fff"/><path d="M473.492 42.037v101.86h18.373V42.037h-18.373z" fill="#fff"/><path fill-rule="evenodd" clip-rule="evenodd" d="M553.148 141.423c5.541 3.008 11.909 4.511 19.103 4.511 6.611 0 12.055-1.018 16.332-3.055 4.278-2.135 7.68-4.657 10.208-7.567 2.625-3.007 4.618-5.772 5.979-8.294l-15.02-7.858c-1.264 2.716-3.111 5.19-5.541 7.421-2.431 2.231-6.222 3.347-11.375 3.347-5.055 0-9.332-1.552-12.832-4.657-3.5-3.104-5.347-7.13-5.542-12.077h52.643v-6.257c0-7.373-1.458-13.824-4.375-19.354-2.916-5.626-6.999-9.992-12.249-13.096-5.25-3.201-11.423-4.802-18.52-4.802-7.194 0-13.513 1.552-18.957 4.656-5.444 3.008-9.673 7.325-12.687 12.951-3.013 5.53-4.52 12.078-4.52 19.645v1.746c0 7.566 1.507 14.163 4.52 19.79 3.111 5.529 7.389 9.846 12.833 12.95zm35.289-41.908h-33.831c.681-4.171 2.479-7.518 5.396-10.04 2.916-2.522 6.853-3.783 11.812-3.783 4.763 0 8.603 1.26 11.52 3.783 3.013 2.522 4.715 5.869 5.103 10.04zM646.789 145.934c-5.736 0-11.131-1.406-16.187-4.22-4.958-2.91-8.944-7.13-11.957-12.659-3.014-5.53-4.521-12.223-4.521-20.081v-2.328c0-7.858 1.507-14.552 4.521-20.081 3.013-5.53 6.999-9.701 11.957-12.515 4.958-2.91 10.354-4.365 16.187-4.365 4.375 0 8.02.534 10.937 1.6 3.013.97 5.444 2.232 7.291 3.784 1.847 1.552 3.257 3.201 4.229 4.947h2.625V42.037h18.373v101.86h-18.082v-8.731h-2.625c-1.652 2.717-4.229 5.19-7.728 7.422-3.403 2.231-8.41 3.346-15.02 3.346zm5.541-16.006c5.639 0 10.354-1.795 14.145-5.384 3.791-3.687 5.687-9.022 5.687-16.007v-1.455c0-6.985-1.896-12.272-5.687-15.861-3.694-3.686-8.409-5.53-14.145-5.53-5.638 0-10.353 1.844-14.145 5.53-3.791 3.59-5.687 8.876-5.687 15.861v1.455c0 6.985 1.896 12.32 5.687 16.007 3.792 3.589 8.507 5.384 14.145 5.384z" fill="#fff"/><path d="M740.579 59.499v84.398h19.249V59.499h29.748V42.037h-78.745V59.5h29.748zM797.434 143.897V42.037h18.374V80.6h2.625c.778-1.553 1.993-3.105 3.646-4.657 1.652-1.552 3.839-2.813 6.562-3.783 2.819-1.068 6.367-1.601 10.645-1.601 5.638 0 10.548 1.31 14.728 3.929 4.278 2.522 7.583 6.063 9.916 10.622 2.333 4.463 3.5 9.701 3.5 15.716v43.072h-18.374V102.28c0-5.432-1.361-9.507-4.083-12.223-2.625-2.716-6.416-4.075-11.374-4.075-5.639 0-10.014 1.892-13.125 5.676-3.111 3.686-4.666 8.876-4.666 15.57v36.669h-18.374z" fill="#fff"/><path fill-rule="evenodd" clip-rule="evenodd" d="M896.48 141.569c5.735 2.91 12.2 4.365 19.394 4.365 7.194 0 13.659-1.455 19.395-4.365 5.736-2.91 10.256-7.13 13.561-12.66 3.306-5.529 4.959-12.174 4.959-19.935v-2.328c0-7.761-1.653-14.406-4.959-19.936-3.305-5.53-7.825-9.75-13.561-12.66s-12.201-4.365-19.395-4.365c-7.194 0-13.659 1.455-19.394 4.365-5.736 2.91-10.257 7.13-13.562 12.66-3.305 5.53-4.958 12.175-4.958 19.936v2.328c0 7.761 1.653 14.406 4.958 19.935 3.305 5.53 7.826 9.75 13.562 12.66zm33.393-17.316c-3.694 3.589-8.36 5.384-13.999 5.384-5.638 0-10.305-1.795-13.999-5.384-3.694-3.687-5.541-8.925-5.541-15.716v-1.455c0-6.791 1.847-11.98 5.541-15.57 3.694-3.686 8.361-5.53 13.999-5.53 5.736 0 10.402 1.844 13.999 5.53 3.694 3.59 5.542 8.779 5.542 15.57v1.455c0 6.791-1.848 12.029-5.542 15.716z" fill="#fff"/><path d="M992.476 145.061c-5.638 0-10.596-1.261-14.874-3.783-4.18-2.619-7.437-6.209-9.77-10.768-2.333-4.56-3.5-9.798-3.5-15.716V71.722h18.374v41.617c0 5.433 1.312 9.507 3.937 12.223 2.722 2.717 6.563 4.075 11.521 4.075 5.636 0 10.016-1.843 13.126-5.53 3.11-3.783 4.66-9.022 4.66-15.715v-36.67h18.38v72.175h-18.08v-9.458h-2.63c-1.17 2.425-3.35 4.802-6.56 7.13-3.21 2.328-8.07 3.492-14.584 3.492z" fill="#fff"/><path fill-rule="evenodd" clip-rule="evenodd" d="M1049.96 86.419c-3.01 5.336-4.52 11.787-4.52 19.353v2.329c0 7.566 1.51 14.066 4.52 19.499 3.02 5.335 7 9.458 11.96 12.368 5.05 2.814 10.55 4.22 16.48 4.22 4.47 0 8.16-.533 11.08-1.6 2.92-1.068 5.25-2.377 7-3.929 1.75-1.65 3.11-3.25 4.08-4.802h2.63v18.771c0 2.91-1.36 4.365-4.09 4.365h-41.99V173h48.41c4.86 0 8.75-1.504 11.67-4.511 2.91-2.91 4.37-6.839 4.37-11.787v-84.98h-18.08v8.731h-2.63c-1.55-2.522-4.03-4.948-7.43-7.276-3.41-2.328-8.41-3.492-15.02-3.492-5.93 0-11.43 1.455-16.48 4.365-4.96 2.814-8.94 6.937-11.96 12.369zm47.83 36.379c-3.79 3.589-8.5 5.384-14.14 5.384-5.64 0-10.36-1.795-14.15-5.384-3.79-3.59-5.68-8.634-5.68-15.134v-1.455c0-6.597 1.89-11.641 5.68-15.133 3.79-3.59 8.51-5.384 14.15-5.384 5.73 0 10.45 1.794 14.14 5.384 3.79 3.492 5.69 8.536 5.69 15.133v1.455c0 6.5-1.9 11.544-5.69 15.134z" fill="#fff"/><path d="M1136.1 143.897V42.037h18.37V80.6h2.63c.78-1.553 1.99-3.105 3.64-4.657 1.66-1.552 3.84-2.813 6.57-3.783 2.81-1.068 6.36-1.601 10.64-1.601 5.64 0 10.55 1.31 14.73 3.929 4.28 2.522 7.58 6.063 9.92 10.622 2.33 4.463 3.5 9.701 3.5 15.716v43.072h-18.38V102.28c0-5.432-1.36-9.507-4.08-12.223-2.63-2.716-6.42-4.075-11.38-4.075-5.63 0-10.01 1.892-13.12 5.676-3.11 3.686-4.67 8.876-4.67 15.57v36.669h-18.37zM1234.17 139.532c3.02 2.91 6.9 4.365 11.67 4.365h20.41v-15.133h-14c-2.72 0-4.08-1.455-4.08-4.366V86.856H1268V71.722h-19.83v-22.41h-18.37v22.41h-18.09v15.134h18.09V127.6c0 4.947 1.46 8.924 4.37 11.932z" fill="#fff"/></svg>