<svg width="763" height="319" fill="none" xmlns="http://www.w3.org/2000/svg"><path d="M85.144 147.495v26.241c0 1.043.292 2.055.849 2.936a5.481 5.481 0 001.995 1.881 5.478 5.478 0 002.656.683 5.475 5.475 0 002.935-.848l62.457-39.416a5.498 5.498 0 002.565-4.651v-31.477c0-3.036-2.464-5.5-5.5-5.5a5.502 5.502 0 00-5.5 5.5v28.444l-51.457 32.474v-13.15l39.493-23.646a5.5 5.5 0 002.675-4.714l.056-64.17a5.502 5.502 0 00-5.495-5.506 5.503 5.503 0 00-5.505 5.495l-.053 61.057-39.496 23.648a5.501 5.501 0 00-2.675 4.719zM11 47.948l51.457-32.474v13.15L22.963 52.27a5.5 5.5 0 00-2.674 4.714l-.057 64.171a5.504 5.504 0 005.496 5.505 5.502 5.502 0 005.504-5.495l.054-61.057L70.782 36.46a5.501 5.501 0 002.675-4.719l-.001-26.24a5.475 5.475 0 00-.848-2.937 5.476 5.476 0 00-1.996-1.88A5.475 5.475 0 0067.957 0a5.475 5.475 0 00-2.936.848L2.564 40.264A5.5 5.5 0 000 44.915v31.477c0 3.036 2.464 5.5 5.5 5.5 3.035 0 5.5-2.464 5.5-5.5V47.948z" fill="#fff"/><path d="M51.277 92.33v-19.7l28.037-17.824 28.023 17.815H68.42a5.503 5.503 0 00-5.5 5.5c0 3.036 2.465 5.5 5.5 5.5h38.931v8.708c0 3.036 2.465 5.5 5.5 5.5 3.036 0 5.5-2.464 5.5-5.5V70.05c0-.074-.001-.147-.004-.22a5.5 5.5 0 00-2.545-4.86L82.265 43.646a5.478 5.478 0 00-2.951-.858 5.478 5.478 0 00-2.951.858L42.826 64.968a5.5 5.5 0 00-2.545 4.861 5.349 5.349 0 00-.004.22v22.28c0 3.036 2.464 5.5 5.5 5.5 3.035 0 5.5-2.464 5.5-5.5z" fill="#fff"/><path d="M48.727 118.731l25.087-15.948v30.604c0 3.035 2.464 5.5 5.5 5.5 3.035 0 5.5-2.465 5.5-5.5v-30.604l25.087 15.948a5.503 5.503 0 007.592-1.691 5.502 5.502 0 00-1.691-7.592l-33.537-21.32a5.478 5.478 0 00-2.951-.859 5.478 5.478 0 00-2.951.858l-33.537 21.321a5.502 5.502 0 00-1.691 7.592 5.503 5.503 0 007.592 1.691zM127.32 27.727a5.503 5.503 0 00-1.853-7.554L93.495.796a5.5 5.5 0 00-8.351 4.714l.05 26.895a5.502 5.502 0 002.658 4.698l25.397 15.33a5.503 5.503 0 005.667.01l18.384-11 10.301 6.504v28.445c0 3.036 2.464 5.5 5.5 5.5s5.5-2.464 5.5-5.5V44.915a5.5 5.5 0 00-2.563-4.65l-15.723-9.929a5.501 5.501 0 00-5.761-.069l-18.45 11.04-19.915-12.02-.027-14.012 23.604 14.305a5.502 5.502 0 007.554-1.853zM31.281 151.509a5.503 5.503 0 001.853 7.554l31.972 19.377a5.5 5.5 0 008.351-4.714l-.051-26.895a5.497 5.497 0 00-2.658-4.698l-25.397-15.329a5.5 5.5 0 00-5.666-.011L21.3 137.794 11 131.289v-28.445c0-3.036-2.465-5.5-5.5-5.5a5.502 5.502 0 00-5.5 5.5v31.477c0 1.887.967 3.643 2.563 4.65l15.723 9.929a5.501 5.501 0 005.761.069l18.45-11.04 19.915 12.021.026 14.011-23.603-14.305a5.502 5.502 0 00-7.554 1.853zM506.393 143.897V71.722h18.374v72.175h-18.374zM515.58 63.282c-3.305 0-6.125-1.067-8.458-3.201-2.236-2.135-3.354-4.948-3.354-8.44 0-3.492 1.118-6.306 3.354-8.44 2.333-2.134 5.153-3.201 8.458-3.201 3.403 0 6.222 1.067 8.458 3.201 2.236 2.134 3.354 4.948 3.354 8.44 0 3.492-1.118 6.306-3.354 8.44-2.236 2.134-5.055 3.201-8.458 3.201z" fill="#fff"/><path fill-rule="evenodd" clip-rule="evenodd" d="M231.835 42.037l-26.832 101.86h19.832l5.541-22.409h36.457l5.541 22.409h19.832l-26.832-101.86h-33.539zm30.477 61.698h-27.415l12.395-49.62h2.625l12.395 49.62zM299.175 71.722V173h18.374v-37.397h2.624c1.07 1.649 2.479 3.298 4.229 4.947 1.847 1.552 4.229 2.813 7.146 3.783 3.013 1.068 6.708 1.601 11.082 1.601 5.833 0 11.229-1.407 16.187-4.22 4.958-2.91 8.944-7.13 11.957-12.66 3.014-5.529 4.521-12.223 4.521-20.08v-2.329c0-7.858-1.507-14.551-4.521-20.08-3.013-5.53-6.999-9.702-11.957-12.515-4.958-2.91-10.354-4.365-16.187-4.365-6.513 0-11.52 1.115-15.02 3.346-3.499 2.135-6.076 4.608-7.728 7.422h-2.625v-8.731h-18.082zm52.059 52.822c-3.694 3.589-8.409 5.384-14.145 5.384-5.638 0-10.353-1.795-14.145-5.384-3.791-3.687-5.687-9.022-5.687-16.007v-1.455c0-6.985 1.896-12.272 5.687-15.861 3.792-3.687 8.507-5.53 14.145-5.53 5.639 0 10.354 1.843 14.145 5.53 3.791 3.59 5.687 8.876 5.687 15.861v1.455c0 6.985-1.896 12.32-5.687 16.007zM386.333 173V71.722h18.082v8.73h2.625c1.653-2.813 4.229-5.286 7.729-7.42 3.5-2.232 8.506-3.347 15.02-3.347 5.833 0 11.228 1.455 16.186 4.365 4.958 2.813 8.944 6.985 11.958 12.514 3.014 5.53 4.52 12.224 4.52 20.081v2.329c0 7.857-1.506 14.551-4.52 20.08-3.014 5.53-7 9.75-11.958 12.66-4.958 2.813-10.353 4.22-16.186 4.22-4.375 0-8.069-.533-11.083-1.601-2.916-.97-5.298-2.231-7.145-3.783-1.75-1.649-3.16-3.298-4.229-4.947h-2.625V173h-18.374zm37.914-43.072c5.736 0 10.451-1.795 14.145-5.384 3.792-3.687 5.688-9.022 5.688-16.007v-1.455c0-6.985-1.896-12.272-5.688-15.861-3.791-3.687-8.506-5.53-14.145-5.53-5.638 0-10.353 1.843-14.144 5.53-3.792 3.59-5.688 8.876-5.688 15.861v1.455c0 6.985 1.896 12.32 5.688 16.007 3.791 3.589 8.506 5.384 14.144 5.384z" fill="#fff"/><path d="M473.492 42.037v101.86h18.373V42.037h-18.373z" fill="#fff"/><path fill-rule="evenodd" clip-rule="evenodd" d="M553.148 141.423c5.541 3.007 11.909 4.511 19.103 4.511 6.611 0 12.055-1.018 16.332-3.056 4.278-2.134 7.68-4.656 10.208-7.566 2.625-3.008 4.618-5.772 5.979-8.295l-15.02-7.857c-1.264 2.716-3.111 5.19-5.541 7.421-2.431 2.231-6.222 3.347-11.375 3.347-5.055 0-9.332-1.553-12.832-4.657s-5.347-7.13-5.542-12.078h52.643v-6.257c0-7.372-1.458-13.824-4.375-19.353-2.916-5.627-6.999-9.992-12.249-13.096-5.25-3.202-11.423-4.802-18.52-4.802-7.194 0-13.513 1.552-18.957 4.656-5.444 3.007-9.673 7.324-12.687 12.95-3.013 5.53-4.52 12.079-4.52 19.645v1.746c0 7.567 1.507 14.164 4.52 19.79 3.111 5.53 7.389 9.847 12.833 12.951zm35.289-41.908h-33.831c.681-4.171 2.479-7.518 5.396-10.04 2.916-2.523 6.853-3.784 11.812-3.784 4.763 0 8.603 1.261 11.52 3.784 3.013 2.522 4.715 5.869 5.103 10.04zM646.789 145.934c-5.736 0-11.131-1.407-16.187-4.22-4.958-2.91-8.944-7.13-11.957-12.66-3.014-5.529-4.521-12.223-4.521-20.08v-2.329c0-7.858 1.507-14.551 4.521-20.08 3.013-5.53 6.999-9.702 11.957-12.515 4.958-2.91 10.354-4.365 16.187-4.365 4.375 0 8.02.533 10.937 1.6 3.013.97 5.444 2.231 7.291 3.784 1.847 1.552 3.257 3.201 4.229 4.947h2.625V42.037h18.373v101.86h-18.082v-8.731h-2.625c-1.652 2.716-4.229 5.19-7.728 7.421-3.403 2.232-8.41 3.347-15.02 3.347zm5.541-16.006c5.639 0 10.354-1.795 14.145-5.384 3.791-3.687 5.687-9.022 5.687-16.007v-1.455c0-6.985-1.896-12.272-5.687-15.861-3.694-3.687-8.409-5.53-14.145-5.53-5.638 0-10.353 1.843-14.145 5.53-3.791 3.59-5.687 8.876-5.687 15.861v1.455c0 6.985 1.896 12.32 5.687 16.007 3.792 3.589 8.507 5.384 14.145 5.384z" fill="#fff"/><path d="M234.751 204.999v84.398H254v-84.398h29.748v-17.462h-78.745v17.462h29.748zM291.607 289.397v-101.86h18.374v38.561h2.624c.778-1.552 1.993-3.104 3.646-4.656 1.653-1.552 3.84-2.813 6.562-3.783 2.819-1.067 6.368-1.601 10.645-1.601 5.639 0 10.548 1.31 14.729 3.929 4.277 2.522 7.582 6.063 9.916 10.622 2.333 4.463 3.499 9.701 3.499 15.716v43.072h-18.374V247.78c0-5.432-1.361-9.507-4.083-12.223-2.624-2.716-6.416-4.075-11.374-4.075-5.638 0-10.013 1.892-13.124 5.676-3.111 3.686-4.666 8.876-4.666 15.57v36.669h-18.374z" fill="#fff"/><path fill-rule="evenodd" clip-rule="evenodd" d="M390.652 287.069c5.736 2.91 12.201 4.365 19.395 4.365 7.194 0 13.659-1.455 19.394-4.365 5.736-2.91 10.257-7.13 13.562-12.66 3.305-5.529 4.958-12.175 4.958-19.935v-2.328c0-7.761-1.653-14.406-4.958-19.936-3.305-5.529-7.826-9.749-13.562-12.66-5.735-2.91-12.2-4.365-19.394-4.365-7.194 0-13.659 1.455-19.395 4.365-5.736 2.911-10.256 7.131-13.562 12.66-3.305 5.53-4.958 12.175-4.958 19.936v2.328c0 7.76 1.653 14.406 4.958 19.935 3.306 5.53 7.826 9.75 13.562 12.66zm33.394-17.316c-3.694 3.589-8.361 5.384-13.999 5.384-5.639 0-10.305-1.795-13.999-5.384-3.695-3.687-5.542-8.925-5.542-15.716v-1.455c0-6.791 1.847-11.981 5.542-15.57 3.694-3.686 8.36-5.53 13.999-5.53 5.735 0 10.402 1.844 13.999 5.53 3.694 3.589 5.541 8.779 5.541 15.57v1.455c0 6.791-1.847 12.029-5.541 15.716z" fill="#fff"/><path d="M486.649 290.561c-5.639 0-10.597-1.261-14.874-3.783-4.181-2.619-7.437-6.209-9.77-10.768-2.334-4.56-3.5-9.798-3.5-15.716v-43.072h18.374v41.617c0 5.433 1.312 9.507 3.937 12.223 2.722 2.717 6.562 4.075 11.52 4.075 5.639 0 10.013-1.843 13.124-5.53 3.111-3.783 4.667-9.022 4.667-15.715v-36.67H528.5v72.175h-18.082v-9.458h-2.625c-1.166 2.425-3.354 4.802-6.562 7.13-3.208 2.328-8.069 3.492-14.582 3.492z" fill="#fff"/><path fill-rule="evenodd" clip-rule="evenodd" d="M544.134 231.919c-3.013 5.336-4.52 11.787-4.52 19.353v2.329c0 7.566 1.507 14.066 4.52 19.499 3.014 5.335 7 9.458 11.958 12.368 5.055 2.814 10.548 4.22 16.478 4.22 4.472 0 8.166-.533 11.083-1.6 2.916-1.068 5.249-2.377 6.999-3.929 1.75-1.65 3.111-3.25 4.083-4.802h2.625v18.771c0 2.91-1.361 4.365-4.083 4.365H551.28V318.5h48.413c4.861 0 8.75-1.504 11.666-4.511 2.917-2.91 4.375-6.839 4.375-11.787v-84.98h-18.082v8.731h-2.625c-1.556-2.522-4.035-4.948-7.437-7.276-3.403-2.328-8.409-3.492-15.02-3.492-5.93 0-11.423 1.455-16.478 4.365-4.958 2.814-8.944 6.937-11.958 12.369zm47.831 36.379c-3.792 3.589-8.507 5.384-14.145 5.384-5.639 0-10.354-1.795-14.145-5.384-3.792-3.59-5.687-8.634-5.687-15.134v-1.455c0-6.597 1.895-11.641 5.687-15.133 3.791-3.59 8.506-5.385 14.145-5.385 5.735 0 10.45 1.795 14.145 5.385 3.791 3.492 5.687 8.536 5.687 15.133v1.455c0 6.5-1.896 11.544-5.687 15.134z" fill="#fff"/><path d="M630.272 289.397v-101.86h18.374v38.561h2.625c.777-1.552 1.993-3.104 3.645-4.656 1.653-1.552 3.84-2.813 6.562-3.783 2.819-1.067 6.368-1.601 10.646-1.601 5.638 0 10.548 1.31 14.728 3.929 4.277 2.522 7.583 6.063 9.916 10.622 2.333 4.463 3.5 9.701 3.5 15.716v43.072h-18.374V247.78c0-5.432-1.361-9.507-4.083-12.223-2.625-2.716-6.417-4.075-11.375-4.075-5.638 0-10.013 1.892-13.124 5.676-3.111 3.686-4.666 8.876-4.666 15.57v36.669h-18.374zM728.344 285.032c3.014 2.91 6.903 4.365 11.666 4.365h20.416v-15.133h-13.999c-2.723 0-4.083-1.455-4.083-4.366v-37.542h19.832v-15.134h-19.832v-22.409H723.97v22.409h-18.083v15.134h18.083V273.1c0 4.947 1.458 8.924 4.374 11.932z" fill="#fff"/></svg>