<svg width="159" height="180" fill="none" xmlns="http://www.w3.org/2000/svg"><g clip-path="url(#clip0_90_210)"><path fill-rule="evenodd" clip-rule="evenodd" d="M85.14 173.737v-26.241a5.501 5.501 0 012.676-4.719l39.496-23.648.053-61.057a5.503 5.503 0 015.505-5.495 5.502 5.502 0 015.495 5.505l-.056 64.171a5.5 5.5 0 01-2.675 4.714l-39.493 23.646v13.15l51.457-32.474v-28.444c0-3.036 2.464-5.5 5.5-5.5s5.5 2.464 5.5 5.5v31.477a5.498 5.498 0 01-2.565 4.651l-62.457 39.416a5.475 5.475 0 01-2.935.848 5.49 5.49 0 01-4.651-2.564 5.476 5.476 0 01-.85-2.936zM62.455 15.475L10.997 47.949v28.444c0 3.035-2.465 5.5-5.5 5.5a5.502 5.502 0 01-5.5-5.5V44.915a5.5 5.5 0 012.564-4.651L65.018.849A5.475 5.475 0 0167.954 0c.962 0 1.868.248 2.655.683a5.476 5.476 0 011.996 1.88c.556.882.849 1.894.848 2.937v26.24a5.501 5.501 0 01-2.674 4.72L31.283 60.109l-.054 61.057a5.502 5.502 0 01-5.504 5.495 5.504 5.504 0 01-5.496-5.505l.057-64.172a5.5 5.5 0 012.674-4.714l39.494-23.646v-13.15zM51.274 72.63v19.7c0 3.036-2.465 5.5-5.5 5.5a5.502 5.502 0 01-5.5-5.5V70.05c0-.075 0-.147.004-.22a5.5 5.5 0 012.545-4.861L76.36 43.648a5.478 5.478 0 012.95-.859 5.478 5.478 0 012.952.858l33.537 21.322a5.5 5.5 0 012.545 4.86c.003.074.004.147.004.22v22.28c0 3.037-2.464 5.5-5.5 5.5a5.503 5.503 0 01-5.5-5.5v-8.707H68.417a5.503 5.503 0 01-5.5-5.5c0-3.035 2.465-5.5 5.5-5.5h38.917L79.311 54.805 51.274 72.632zm22.537 30.154l-25.087 15.948a5.503 5.503 0 01-7.592-1.691 5.502 5.502 0 011.69-7.592L76.36 88.127a5.477 5.477 0 012.95-.857 5.477 5.477 0 012.952.858l33.537 21.321a5.502 5.502 0 011.691 7.592 5.503 5.503 0 01-7.592 1.691l-25.087-15.948v30.604c0 3.035-2.465 5.5-5.5 5.5a5.503 5.503 0 01-5.5-5.5v-30.604zm51.653-82.61a5.503 5.503 0 011.853 7.554 5.502 5.502 0 01-7.554 1.852L96.159 15.277l.027 14.01L116.1 41.308l18.45-11.04a5.501 5.501 0 015.761.07l15.723 9.929a5.5 5.5 0 012.563 4.65v31.477c0 3.035-2.464 5.5-5.5 5.5a5.502 5.502 0 01-5.5-5.5V47.947l-10.301-6.505-18.384 11.002a5.503 5.503 0 01-5.667-.012L87.849 37.103a5.502 5.502 0 01-2.658-4.697L85.14 5.51A5.5 5.5 0 0193.49.797l31.973 19.377zm-92.333 138.89a5.503 5.503 0 01-1.853-7.554 5.502 5.502 0 017.554-1.853l23.603 14.305-.026-14.011-19.915-12.021-18.45 11.04a5.501 5.501 0 01-5.761-.069L2.56 138.972a5.498 5.498 0 01-2.563-4.65v-31.477c0-3.036 2.464-5.5 5.5-5.5 3.035 0 5.5 2.464 5.5 5.5v28.445l10.3 6.505 18.385-11.001a5.5 5.5 0 015.666.011l25.397 15.329a5.497 5.497 0 012.658 4.698l.05 26.895a5.503 5.503 0 01-8.35 4.714L33.13 159.064z" fill="#fff"/></g><defs><clipPath id="clip0_90_210"><path fill="#fff" d="M0 0h159v180H0z"/></clipPath></defs></svg>